M48
;GenerationSoftware,Autodesk,EAGLE,9.6.2*%
;CreationDate,2024-02-08T08:05:34Z*%
FMAT,2
ICI,OFF
METRIC,TZ,000.000
T3C0.200
T2C0.250
T1C0.300
%
G90
M71
T1
X25300Y1200
X32000Y13200
X24500Y1200
X32000Y4400
X32000Y5400
X32000Y6200
X32000Y7400
X32000Y8100
X32000Y8800
X32000Y9700
X32000Y10300
X32000Y11200
X32000Y12300
X32000Y14400
X32000Y15300
X32000Y16100
X32000Y16900
X32000Y17800
X32000Y19200
X32000Y20000
X32000Y20900
X32000Y21800
T2
X25700Y17500
X26600Y16600
X27900Y16600
X29300Y16600
X29800Y2600
X29800Y4000
X29800Y5600
X29300Y24900
X29300Y23000
X27600Y1100
X29800Y8900
X14300Y19800
X13400Y25200
X8600Y3400
X4600Y1500
X23900Y3600
X23900Y17400
X19400Y7600
X5400Y22900
X3500Y13500
X15000Y20000
X25300Y23600
X4100Y8000
X4500Y7400
X27900Y21200
X28300Y20600
X28700Y20000
X29800Y1100
X2400Y6800
X2400Y7500
X7600Y11500
X19000Y22500
X3100Y16100
X5300Y19600
X12900Y22600
X14600Y17900
X15800Y13600
X15800Y12600
X15800Y11600
X18300Y13600
X18300Y12600
X18300Y11500
X5200Y3000
X15700Y20700
X20000Y6500
X18000Y20700
X19000Y19800
X19200Y21400
X20200Y20500
X22000Y19000
X23000Y18300
X24800Y16600
X24000Y19200
X24900Y18300
T3
X2600Y1600
M30