M48
;GenerationSoftware,Autodesk,EAGLE,9.6.2*%
;CreationDate,2024-04-08T19:19:50Z*%
FMAT,2
ICI,OFF
METRIC,TZ,000.000
T3C0.200
T2C0.250
T1C0.300
%
G90
M71
T1
X32000Y21800
X22700Y6300
X25900Y1200
X25300Y1200
X32000Y12300
X32000Y4400
X32000Y5400
X32000Y6200
X32000Y7400
X32000Y8100
X32000Y8800
X32000Y9700
X32000Y10300
X32000Y11200
X32000Y13200
X32000Y14400
X32000Y15300
X32000Y16100
X32000Y16900
X32000Y17800
X32000Y19200
X32000Y20000
X32000Y20900
T2
X14600Y17900
X15800Y13600
X15800Y12600
X15800Y11600
X18300Y13600
X18300Y12600
X18300Y11500
X30600Y6000
X30600Y4600
X30600Y3000
X30600Y1200
X28800Y1200
X30700Y17800
X5200Y3000
X8000Y22700
X4300Y22500
X8200Y2800
X10300Y2200
X14300Y19800
X13400Y25200
X27300Y16500
X4600Y1500
X16100Y3200
X20000Y6500
X19400Y7600
X5400Y22900
X3500Y13500
X15000Y20000
X27600Y24400
X4100Y8000
X4500Y7400
X27900Y21200
X28300Y20600
X28700Y20000
X15800Y20500
X25600Y14800
X2400Y6800
X2100Y8800
X2400Y7500
X9700Y3800
X22200Y23800
X3100Y16100
X25600Y16100
X25200Y17300
X24200Y18300
X23200Y19300
X22200Y20200
X20500Y20500
X18800Y20500
X26100Y13600
X12900Y22600
X30500Y20400
X8600Y3400
X30500Y22100
X30600Y9300
X30600Y7500
X23500Y21400
X24600Y20500
X25500Y19600
X26700Y18300
X29000Y16500
X30700Y16500
X5300Y19600
T3
X2600Y1600
M30