G04 EAGLE Gerber RS-274X export*
G75*
%MOMM*%
%FSLAX34Y34*%
%LPD*%
%INCopper Layer 2*%
%IPPOS*%
%AMOC8*
5,1,8,0,0,1.08239X$1,22.5*%
G01*
%ADD10C,1.905000*%
%ADD11C,1.050000*%
%ADD12C,0.453200*%
%ADD13C,0.603200*%
%ADD14C,0.503200*%


D10*
X506000Y201000D03*
X506000Y74000D03*
D11*
X190700Y257000D03*
X203400Y257000D03*
X216100Y257000D03*
X228800Y257000D03*
X241500Y257000D03*
X178000Y257000D03*
X165300Y257000D03*
X152600Y257000D03*
X139900Y257000D03*
X127200Y257000D03*
X114500Y257000D03*
X101800Y257000D03*
D12*
X543000Y144000D03*
X543000Y124000D03*
X299000Y113750D03*
X314000Y113750D03*
X331500Y113750D03*
X349000Y113750D03*
X367750Y113750D03*
X382750Y113750D03*
X399000Y113750D03*
X415250Y113750D03*
X436500Y113750D03*
X282750Y115000D03*
X270250Y123750D03*
X265250Y138750D03*
X270250Y155000D03*
X282750Y163750D03*
X299000Y163750D03*
X314000Y163750D03*
X332750Y163750D03*
X349000Y163750D03*
X364000Y163750D03*
X384000Y163750D03*
X399000Y163750D03*
X416500Y163750D03*
X432750Y163750D03*
X449000Y163750D03*
X466500Y162500D03*
X480250Y152500D03*
X484000Y137500D03*
X475250Y120000D03*
X455250Y115000D03*
X282750Y183750D03*
X314000Y183750D03*
X332750Y183750D03*
X347750Y183750D03*
X364000Y183750D03*
X384000Y183750D03*
X399000Y183750D03*
X416500Y183750D03*
X431500Y183750D03*
X449000Y183750D03*
X12750Y63000D03*
X12750Y75750D03*
X12750Y88750D03*
X12750Y105000D03*
X12750Y121250D03*
X12750Y137500D03*
X12750Y153750D03*
X12750Y170000D03*
X12750Y186250D03*
X12750Y201250D03*
X12750Y217500D03*
X12750Y232500D03*
X251250Y40750D03*
X61750Y49750D03*
X299000Y93750D03*
X314000Y93750D03*
X331500Y93750D03*
X349000Y93750D03*
X367750Y93750D03*
X382750Y93750D03*
X399000Y93750D03*
X415250Y93750D03*
X436500Y93750D03*
D13*
X514200Y22600D03*
D12*
X286000Y93750D03*
X270000Y93750D03*
X258000Y106750D03*
X247000Y116750D03*
X218000Y144750D03*
X208000Y155750D03*
X198000Y165750D03*
X185000Y177750D03*
X175000Y186750D03*
X161000Y186750D03*
X145000Y186750D03*
X129000Y186750D03*
X113000Y186750D03*
X78000Y204750D03*
X207000Y189750D03*
X198000Y198750D03*
X181000Y204750D03*
X151000Y204750D03*
X134000Y204750D03*
X115000Y204750D03*
X217000Y179750D03*
X240000Y154750D03*
X252000Y142750D03*
X239000Y124750D03*
X167000Y204750D03*
X100000Y186750D03*
X88000Y194750D03*
X266750Y183750D03*
X468000Y183750D03*
X487000Y183750D03*
X501000Y173750D03*
X122000Y248750D03*
X122000Y238750D03*
X147000Y248750D03*
X147000Y238750D03*
X172000Y248750D03*
X197000Y248750D03*
X172000Y239750D03*
X197000Y239750D03*
X220000Y248750D03*
X197000Y230750D03*
X172000Y230750D03*
X147000Y230750D03*
X122000Y230750D03*
X94000Y248750D03*
X94000Y230750D03*
X255000Y254750D03*
X269000Y254750D03*
X285000Y254750D03*
X220000Y239750D03*
X414000Y16750D03*
X432000Y16750D03*
X102000Y204750D03*
X94000Y239750D03*
X119750Y128750D03*
X119750Y110750D03*
X119750Y77750D03*
X100750Y77750D03*
X520500Y190400D03*
X228000Y35750D03*
X64000Y42500D03*
D14*
X499000Y34000D03*
D13*
X499600Y22500D03*
D12*
X101000Y68000D03*
X157000Y26000D03*
X296000Y20000D03*
D13*
X456600Y22400D03*
D12*
X114000Y67000D03*
X87000Y85000D03*
D13*
X442100Y22500D03*
X485300Y22300D03*
X471100Y22300D03*
D12*
X76000Y232000D03*
X380000Y16000D03*
X19000Y241000D03*
X199000Y42000D03*
X191000Y207000D03*
X313000Y227000D03*
X241000Y89000D03*
X193000Y68000D03*
X203000Y89000D03*
X104000Y103000D03*
M02*
