G04 EAGLE Gerber RS-274X export*
G75*
%MOMM*%
%FSLAX34Y34*%
%LPD*%
%INBottom Copper*%
%IPPOS*%
%AMOC8*
5,1,8,0,0,1.08239X$1,22.5*%
G01*
%ADD10C,1.905000*%
%ADD11C,1.050000*%
%ADD12C,0.453200*%
%ADD13C,0.603200*%
%ADD14C,0.609600*%
%ADD15C,0.254000*%
%ADD16C,0.503200*%
%ADD17C,0.203200*%
%ADD18C,0.200000*%

G36*
X521714Y12610D02*
X521714Y12610D01*
X521778Y12609D01*
X521853Y12630D01*
X521929Y12641D01*
X521988Y12667D01*
X522050Y12684D01*
X522116Y12725D01*
X522186Y12757D01*
X522235Y12799D01*
X522290Y12832D01*
X522342Y12890D01*
X522400Y12940D01*
X522436Y12994D01*
X522479Y13042D01*
X522512Y13111D01*
X522555Y13176D01*
X522574Y13238D01*
X522602Y13295D01*
X522613Y13365D01*
X522637Y13446D01*
X522638Y13531D01*
X522649Y13600D01*
X522649Y31476D01*
X525106Y39038D01*
X526808Y41380D01*
X526817Y41396D01*
X526829Y41409D01*
X526883Y41520D01*
X526940Y41630D01*
X526944Y41647D01*
X526952Y41663D01*
X526966Y41752D01*
X526997Y41906D01*
X526995Y41939D01*
X526999Y41968D01*
X526999Y231815D01*
X526997Y231833D01*
X526999Y231851D01*
X526977Y231972D01*
X526959Y232094D01*
X526952Y232111D01*
X526949Y232128D01*
X526908Y232208D01*
X526843Y232351D01*
X526822Y232376D01*
X526808Y232402D01*
X526112Y233362D01*
X523899Y240170D01*
X523899Y261400D01*
X523890Y261464D01*
X523891Y261528D01*
X523870Y261603D01*
X523859Y261679D01*
X523833Y261738D01*
X523816Y261800D01*
X523775Y261866D01*
X523743Y261936D01*
X523701Y261985D01*
X523668Y262040D01*
X523610Y262092D01*
X523560Y262150D01*
X523506Y262186D01*
X523458Y262229D01*
X523389Y262262D01*
X523324Y262305D01*
X523262Y262324D01*
X523205Y262352D01*
X523135Y262363D01*
X523054Y262387D01*
X522969Y262388D01*
X522900Y262399D01*
X255098Y262399D01*
X255036Y262391D01*
X254974Y262392D01*
X254897Y262371D01*
X254819Y262359D01*
X254762Y262334D01*
X254731Y262325D01*
X253695Y262397D01*
X253658Y262394D01*
X253626Y262399D01*
X252580Y262399D01*
X252527Y262430D01*
X252456Y262446D01*
X252375Y262477D01*
X252293Y262483D01*
X252226Y262498D01*
X251949Y262517D01*
X249210Y264271D01*
X247649Y267124D01*
X247649Y279500D01*
X247639Y279570D01*
X247641Y279631D01*
X247627Y279734D01*
X247616Y279774D01*
X247613Y279816D01*
X247582Y279896D01*
X247551Y280006D01*
X247520Y280055D01*
X247502Y280103D01*
X247398Y280282D01*
X247332Y280367D01*
X247272Y280455D01*
X247247Y280475D01*
X247224Y280504D01*
X247104Y280591D01*
X247032Y280648D01*
X246853Y280752D01*
X246814Y280767D01*
X246780Y280790D01*
X246697Y280814D01*
X246591Y280857D01*
X246533Y280863D01*
X246484Y280877D01*
X246380Y280891D01*
X246310Y280890D01*
X246250Y280899D01*
X235035Y280899D01*
X235003Y280895D01*
X234971Y280897D01*
X234864Y280875D01*
X234756Y280859D01*
X234726Y280846D01*
X234695Y280840D01*
X234598Y280788D01*
X234499Y280743D01*
X234474Y280722D01*
X234446Y280707D01*
X234367Y280631D01*
X234284Y280560D01*
X234267Y280533D01*
X234244Y280510D01*
X234190Y280416D01*
X234130Y280324D01*
X234120Y280293D01*
X234105Y280265D01*
X234079Y280159D01*
X234048Y280054D01*
X234047Y280022D01*
X234040Y279991D01*
X234045Y279881D01*
X234044Y279772D01*
X234052Y279741D01*
X234054Y279709D01*
X234090Y279606D01*
X234119Y279500D01*
X234136Y279473D01*
X234147Y279442D01*
X234200Y279369D01*
X234267Y279260D01*
X234303Y279228D01*
X234328Y279193D01*
X234828Y278694D01*
X235821Y276297D01*
X235821Y273703D01*
X234828Y271306D01*
X232994Y269472D01*
X232936Y269448D01*
X232927Y269443D01*
X232918Y269441D01*
X232806Y269371D01*
X232693Y269304D01*
X232686Y269297D01*
X232678Y269292D01*
X232590Y269195D01*
X232500Y269099D01*
X232496Y269090D01*
X232489Y269083D01*
X232432Y268965D01*
X232372Y268847D01*
X232370Y268838D01*
X232366Y268829D01*
X232354Y268753D01*
X232320Y268570D01*
X232322Y268546D01*
X232319Y268525D01*
X232319Y201318D01*
X232328Y201254D01*
X232327Y201190D01*
X232348Y201115D01*
X232359Y201039D01*
X232385Y200980D01*
X232402Y200918D01*
X232443Y200852D01*
X232475Y200782D01*
X232517Y200733D01*
X232550Y200678D01*
X232608Y200626D01*
X232658Y200568D01*
X232712Y200532D01*
X232760Y200489D01*
X232829Y200456D01*
X232894Y200413D01*
X232956Y200394D01*
X233013Y200366D01*
X233083Y200355D01*
X233164Y200331D01*
X233249Y200330D01*
X233318Y200319D01*
X277797Y200319D01*
X277892Y200332D01*
X277988Y200337D01*
X278031Y200352D01*
X278076Y200359D01*
X278164Y200398D01*
X278255Y200430D01*
X278289Y200455D01*
X278333Y200475D01*
X278431Y200558D01*
X278504Y200611D01*
X288389Y210496D01*
X288446Y210573D01*
X288511Y210644D01*
X288531Y210685D01*
X288558Y210722D01*
X288592Y210812D01*
X288634Y210898D01*
X288640Y210940D01*
X288657Y210986D01*
X288667Y211113D01*
X288681Y211203D01*
X288681Y243789D01*
X302961Y258069D01*
X488039Y258069D01*
X510819Y235289D01*
X510819Y211357D01*
X510820Y211347D01*
X510819Y211338D01*
X510840Y211208D01*
X510859Y211078D01*
X510862Y211069D01*
X510864Y211060D01*
X510921Y210941D01*
X510975Y210821D01*
X510981Y210814D01*
X510985Y210805D01*
X511073Y210706D01*
X511158Y210606D01*
X511166Y210601D01*
X511172Y210594D01*
X511238Y210554D01*
X511394Y210452D01*
X511417Y210445D01*
X511436Y210434D01*
X512115Y210152D01*
X515152Y207115D01*
X516796Y203147D01*
X516796Y198853D01*
X515152Y194885D01*
X512115Y191848D01*
X508147Y190204D01*
X503853Y190204D01*
X499885Y191848D01*
X496848Y194885D01*
X495204Y198853D01*
X495204Y203147D01*
X496848Y207115D01*
X499885Y210152D01*
X501564Y210848D01*
X501573Y210853D01*
X501582Y210855D01*
X501694Y210925D01*
X501807Y210992D01*
X501814Y210998D01*
X501822Y211003D01*
X501910Y211102D01*
X502000Y211197D01*
X502004Y211206D01*
X502011Y211213D01*
X502068Y211331D01*
X502128Y211449D01*
X502130Y211458D01*
X502134Y211467D01*
X502146Y211542D01*
X502180Y211726D01*
X502178Y211750D01*
X502181Y211771D01*
X502181Y231297D01*
X502168Y231392D01*
X502163Y231488D01*
X502148Y231531D01*
X502141Y231576D01*
X502102Y231664D01*
X502070Y231755D01*
X502045Y231789D01*
X502025Y231833D01*
X501942Y231931D01*
X501889Y232004D01*
X484754Y249139D01*
X484677Y249196D01*
X484606Y249261D01*
X484565Y249281D01*
X484528Y249308D01*
X484438Y249342D01*
X484352Y249384D01*
X484310Y249390D01*
X484264Y249407D01*
X484137Y249417D01*
X484047Y249431D01*
X306953Y249431D01*
X306858Y249418D01*
X306762Y249413D01*
X306719Y249398D01*
X306674Y249391D01*
X306586Y249352D01*
X306495Y249320D01*
X306461Y249295D01*
X306417Y249275D01*
X306319Y249192D01*
X306246Y249139D01*
X297611Y240504D01*
X297554Y240427D01*
X297489Y240356D01*
X297469Y240315D01*
X297442Y240278D01*
X297408Y240188D01*
X297366Y240102D01*
X297360Y240060D01*
X297343Y240014D01*
X297333Y239887D01*
X297319Y239797D01*
X297319Y226624D01*
X297323Y226592D01*
X297321Y226560D01*
X297343Y226453D01*
X297359Y226345D01*
X297372Y226316D01*
X297378Y226284D01*
X297430Y226188D01*
X297475Y226088D01*
X297496Y226064D01*
X297511Y226035D01*
X297587Y225957D01*
X297658Y225874D01*
X297685Y225856D01*
X297708Y225833D01*
X297803Y225779D01*
X297894Y225720D01*
X297925Y225710D01*
X297953Y225694D01*
X298059Y225669D01*
X298164Y225637D01*
X298196Y225637D01*
X298227Y225629D01*
X298337Y225635D01*
X298446Y225633D01*
X298477Y225642D01*
X298509Y225644D01*
X298612Y225679D01*
X298718Y225709D01*
X298745Y225726D01*
X298776Y225736D01*
X298849Y225789D01*
X298958Y225857D01*
X298990Y225893D01*
X299025Y225918D01*
X302377Y229271D01*
X309855Y229271D01*
X309950Y229284D01*
X310046Y229289D01*
X310089Y229304D01*
X310134Y229311D01*
X310222Y229350D01*
X310313Y229382D01*
X310347Y229407D01*
X310391Y229427D01*
X310489Y229510D01*
X310562Y229563D01*
X311535Y230537D01*
X314465Y230537D01*
X316537Y228465D01*
X316537Y225535D01*
X314465Y223463D01*
X311535Y223463D01*
X310562Y224437D01*
X310485Y224494D01*
X310413Y224559D01*
X310373Y224579D01*
X310336Y224606D01*
X310246Y224640D01*
X310160Y224682D01*
X310118Y224688D01*
X310072Y224705D01*
X309945Y224715D01*
X309855Y224729D01*
X304672Y224729D01*
X304578Y224716D01*
X304481Y224711D01*
X304438Y224696D01*
X304393Y224689D01*
X304306Y224650D01*
X304215Y224618D01*
X304180Y224593D01*
X304136Y224573D01*
X304039Y224490D01*
X303966Y224437D01*
X300881Y221352D01*
X300824Y221275D01*
X300759Y221204D01*
X300739Y221163D01*
X300712Y221127D01*
X300678Y221036D01*
X300636Y220950D01*
X300630Y220908D01*
X300613Y220863D01*
X300603Y220735D01*
X300589Y220646D01*
X300589Y205857D01*
X283143Y188411D01*
X241354Y188411D01*
X241260Y188398D01*
X241163Y188393D01*
X241120Y188378D01*
X241075Y188371D01*
X240988Y188332D01*
X240897Y188300D01*
X240862Y188275D01*
X240818Y188255D01*
X240721Y188172D01*
X240648Y188119D01*
X235881Y183352D01*
X235824Y183275D01*
X235759Y183204D01*
X235739Y183163D01*
X235712Y183127D01*
X235678Y183037D01*
X235636Y182950D01*
X235630Y182908D01*
X235613Y182863D01*
X235603Y182735D01*
X235589Y182646D01*
X235589Y98036D01*
X235602Y97942D01*
X235607Y97845D01*
X235622Y97802D01*
X235629Y97757D01*
X235668Y97670D01*
X235700Y97579D01*
X235725Y97544D01*
X235745Y97500D01*
X235828Y97403D01*
X235881Y97330D01*
X240382Y92829D01*
X240459Y92772D01*
X240530Y92707D01*
X240571Y92687D01*
X240607Y92660D01*
X240698Y92626D01*
X240784Y92584D01*
X240826Y92578D01*
X240871Y92561D01*
X240999Y92551D01*
X241088Y92537D01*
X242465Y92537D01*
X244537Y90465D01*
X244537Y87535D01*
X242465Y85463D01*
X239535Y85463D01*
X237463Y87535D01*
X237463Y88912D01*
X237450Y89006D01*
X237445Y89103D01*
X237430Y89146D01*
X237423Y89191D01*
X237384Y89278D01*
X237352Y89369D01*
X237327Y89403D01*
X237307Y89448D01*
X237224Y89545D01*
X237171Y89618D01*
X234025Y92764D01*
X233999Y92784D01*
X233978Y92808D01*
X233886Y92868D01*
X233799Y92933D01*
X233769Y92945D01*
X233742Y92962D01*
X233637Y92994D01*
X233535Y93033D01*
X233503Y93035D01*
X233472Y93045D01*
X233363Y93046D01*
X233254Y93055D01*
X233222Y93048D01*
X233190Y93049D01*
X233085Y93019D01*
X232978Y92997D01*
X232949Y92982D01*
X232918Y92973D01*
X232825Y92916D01*
X232729Y92865D01*
X232706Y92842D01*
X232678Y92825D01*
X232605Y92744D01*
X232527Y92668D01*
X232511Y92640D01*
X232489Y92616D01*
X232442Y92518D01*
X232388Y92423D01*
X232380Y92391D01*
X232366Y92362D01*
X232352Y92273D01*
X232323Y92148D01*
X232325Y92100D01*
X232319Y92058D01*
X232319Y37953D01*
X232332Y37858D01*
X232337Y37762D01*
X232352Y37719D01*
X232359Y37674D01*
X232398Y37586D01*
X232430Y37495D01*
X232455Y37461D01*
X232475Y37417D01*
X232558Y37319D01*
X232611Y37246D01*
X234246Y35611D01*
X234323Y35554D01*
X234394Y35489D01*
X234435Y35469D01*
X234472Y35442D01*
X234562Y35408D01*
X234648Y35366D01*
X234690Y35360D01*
X234736Y35343D01*
X234863Y35333D01*
X234953Y35319D01*
X262410Y35319D01*
X262496Y35331D01*
X262582Y35334D01*
X262635Y35351D01*
X262689Y35359D01*
X262768Y35394D01*
X262850Y35421D01*
X262896Y35452D01*
X262946Y35475D01*
X263012Y35531D01*
X263083Y35580D01*
X263118Y35622D01*
X263160Y35658D01*
X263208Y35731D01*
X263263Y35798D01*
X263284Y35848D01*
X263314Y35894D01*
X263340Y35977D01*
X263374Y36057D01*
X263381Y36111D01*
X263397Y36164D01*
X263398Y36251D01*
X263409Y36337D01*
X263400Y36391D01*
X263401Y36446D01*
X263377Y36530D01*
X263364Y36615D01*
X263340Y36665D01*
X263325Y36718D01*
X263280Y36792D01*
X263243Y36870D01*
X263206Y36911D01*
X263177Y36958D01*
X263113Y37016D01*
X263055Y37081D01*
X263012Y37107D01*
X262968Y37147D01*
X262866Y37196D01*
X262792Y37241D01*
X259881Y38447D01*
X256097Y42231D01*
X254049Y47174D01*
X254049Y52526D01*
X256097Y57469D01*
X259881Y61253D01*
X264824Y63301D01*
X270176Y63301D01*
X275119Y61253D01*
X278903Y57469D01*
X280951Y52526D01*
X280951Y47174D01*
X278903Y42231D01*
X275119Y38447D01*
X272208Y37241D01*
X272133Y37197D01*
X272054Y37161D01*
X272013Y37126D01*
X271965Y37098D01*
X271906Y37034D01*
X271840Y36978D01*
X271810Y36932D01*
X271772Y36892D01*
X271733Y36815D01*
X271686Y36742D01*
X271669Y36689D01*
X271645Y36640D01*
X271628Y36555D01*
X271603Y36472D01*
X271602Y36417D01*
X271592Y36363D01*
X271601Y36277D01*
X271599Y36190D01*
X271614Y36137D01*
X271619Y36083D01*
X271651Y36002D01*
X271675Y35918D01*
X271703Y35871D01*
X271724Y35821D01*
X271777Y35752D01*
X271823Y35678D01*
X271864Y35641D01*
X271897Y35598D01*
X271968Y35548D01*
X272032Y35489D01*
X272081Y35465D01*
X272126Y35433D01*
X272208Y35404D01*
X272286Y35366D01*
X272336Y35358D01*
X272392Y35339D01*
X272505Y35332D01*
X272590Y35319D01*
X493797Y35319D01*
X493892Y35332D01*
X493988Y35337D01*
X494031Y35352D01*
X494076Y35359D01*
X494164Y35398D01*
X494255Y35430D01*
X494289Y35455D01*
X494333Y35475D01*
X494431Y35558D01*
X494504Y35611D01*
X497211Y38319D01*
X500789Y38319D01*
X503319Y35789D01*
X503319Y32211D01*
X500612Y29504D01*
X500611Y29504D01*
X499600Y28493D01*
X499581Y28467D01*
X499556Y28446D01*
X499496Y28354D01*
X499431Y28267D01*
X499420Y28237D01*
X499402Y28210D01*
X499370Y28105D01*
X499331Y28003D01*
X499329Y27971D01*
X499319Y27940D01*
X499318Y27831D01*
X499310Y27722D01*
X499316Y27690D01*
X499316Y27658D01*
X499345Y27553D01*
X499367Y27446D01*
X499382Y27417D01*
X499391Y27386D01*
X499448Y27293D01*
X499500Y27197D01*
X499522Y27174D01*
X499539Y27146D01*
X499620Y27073D01*
X499696Y26995D01*
X499724Y26979D01*
X499748Y26957D01*
X499846Y26910D01*
X499942Y26856D01*
X499973Y26848D01*
X500002Y26834D01*
X500092Y26820D01*
X500216Y26791D01*
X500265Y26793D01*
X500307Y26787D01*
X501376Y26787D01*
X503887Y24276D01*
X503887Y20724D01*
X501376Y18213D01*
X497824Y18213D01*
X495313Y20724D01*
X495313Y24276D01*
X496013Y24975D01*
X496032Y25001D01*
X496057Y25022D01*
X496117Y25114D01*
X496182Y25201D01*
X496194Y25231D01*
X496211Y25258D01*
X496243Y25363D01*
X496282Y25465D01*
X496284Y25497D01*
X496294Y25528D01*
X496295Y25637D01*
X496304Y25746D01*
X496297Y25778D01*
X496298Y25810D01*
X496268Y25915D01*
X496246Y26022D01*
X496231Y26051D01*
X496222Y26082D01*
X496165Y26175D01*
X496114Y26271D01*
X496091Y26294D01*
X496074Y26322D01*
X495993Y26395D01*
X495917Y26473D01*
X495889Y26489D01*
X495865Y26511D01*
X495767Y26558D01*
X495672Y26612D01*
X495640Y26620D01*
X495611Y26634D01*
X495522Y26648D01*
X495397Y26677D01*
X495349Y26675D01*
X495307Y26681D01*
X489393Y26681D01*
X489362Y26677D01*
X489329Y26679D01*
X489222Y26657D01*
X489114Y26641D01*
X489085Y26628D01*
X489053Y26622D01*
X488957Y26570D01*
X488857Y26525D01*
X488833Y26504D01*
X488804Y26489D01*
X488726Y26413D01*
X488643Y26342D01*
X488625Y26315D01*
X488602Y26292D01*
X488549Y26197D01*
X488489Y26106D01*
X488479Y26075D01*
X488463Y26047D01*
X488438Y25941D01*
X488406Y25836D01*
X488406Y25804D01*
X488398Y25773D01*
X488404Y25663D01*
X488402Y25554D01*
X488411Y25523D01*
X488413Y25491D01*
X488448Y25388D01*
X488478Y25282D01*
X488495Y25255D01*
X488505Y25224D01*
X488558Y25151D01*
X488626Y25042D01*
X488662Y25010D01*
X488687Y24975D01*
X489587Y24076D01*
X489587Y20524D01*
X487076Y18013D01*
X483524Y18013D01*
X481013Y20524D01*
X481013Y24076D01*
X481913Y24975D01*
X481932Y25001D01*
X481957Y25022D01*
X482017Y25114D01*
X482082Y25201D01*
X482094Y25231D01*
X482111Y25258D01*
X482143Y25363D01*
X482182Y25465D01*
X482184Y25497D01*
X482194Y25528D01*
X482195Y25637D01*
X482204Y25746D01*
X482197Y25778D01*
X482198Y25810D01*
X482168Y25915D01*
X482146Y26022D01*
X482131Y26051D01*
X482122Y26082D01*
X482065Y26175D01*
X482014Y26271D01*
X481991Y26294D01*
X481974Y26322D01*
X481893Y26395D01*
X481817Y26473D01*
X481789Y26489D01*
X481765Y26511D01*
X481667Y26558D01*
X481571Y26612D01*
X481540Y26620D01*
X481511Y26634D01*
X481422Y26648D01*
X481297Y26677D01*
X481249Y26675D01*
X481207Y26681D01*
X475193Y26681D01*
X475162Y26677D01*
X475129Y26679D01*
X475022Y26657D01*
X474914Y26641D01*
X474885Y26628D01*
X474853Y26622D01*
X474757Y26570D01*
X474657Y26525D01*
X474633Y26504D01*
X474604Y26489D01*
X474526Y26413D01*
X474443Y26342D01*
X474425Y26315D01*
X474402Y26292D01*
X474349Y26197D01*
X474289Y26106D01*
X474279Y26075D01*
X474263Y26047D01*
X474238Y25941D01*
X474206Y25836D01*
X474206Y25804D01*
X474198Y25773D01*
X474204Y25663D01*
X474202Y25554D01*
X474211Y25523D01*
X474213Y25491D01*
X474248Y25388D01*
X474278Y25282D01*
X474295Y25255D01*
X474305Y25224D01*
X474358Y25151D01*
X474426Y25042D01*
X474462Y25010D01*
X474487Y24975D01*
X475387Y24076D01*
X475387Y20524D01*
X472876Y18013D01*
X469324Y18013D01*
X466813Y20524D01*
X466813Y24076D01*
X467713Y24975D01*
X467732Y25001D01*
X467757Y25022D01*
X467817Y25114D01*
X467882Y25201D01*
X467894Y25231D01*
X467911Y25258D01*
X467943Y25363D01*
X467982Y25465D01*
X467984Y25497D01*
X467994Y25528D01*
X467995Y25637D01*
X468004Y25746D01*
X467997Y25778D01*
X467998Y25810D01*
X467968Y25915D01*
X467946Y26022D01*
X467931Y26051D01*
X467922Y26082D01*
X467865Y26175D01*
X467814Y26271D01*
X467791Y26294D01*
X467774Y26322D01*
X467693Y26395D01*
X467617Y26473D01*
X467589Y26489D01*
X467565Y26511D01*
X467467Y26558D01*
X467371Y26612D01*
X467340Y26620D01*
X467311Y26634D01*
X467222Y26648D01*
X467097Y26677D01*
X467049Y26675D01*
X467007Y26681D01*
X460793Y26681D01*
X460762Y26677D01*
X460729Y26679D01*
X460622Y26657D01*
X460514Y26641D01*
X460485Y26628D01*
X460453Y26622D01*
X460357Y26570D01*
X460257Y26525D01*
X460233Y26504D01*
X460204Y26489D01*
X460126Y26413D01*
X460043Y26342D01*
X460025Y26315D01*
X460002Y26292D01*
X459949Y26197D01*
X459889Y26106D01*
X459879Y26075D01*
X459863Y26047D01*
X459838Y25941D01*
X459806Y25836D01*
X459806Y25804D01*
X459798Y25773D01*
X459804Y25663D01*
X459802Y25554D01*
X459811Y25523D01*
X459813Y25491D01*
X459848Y25388D01*
X459878Y25282D01*
X459895Y25255D01*
X459905Y25224D01*
X459958Y25151D01*
X460026Y25042D01*
X460062Y25010D01*
X460087Y24975D01*
X460887Y24176D01*
X460887Y20624D01*
X458376Y18113D01*
X454824Y18113D01*
X452313Y20624D01*
X452313Y24176D01*
X453113Y24975D01*
X453132Y25001D01*
X453157Y25022D01*
X453217Y25114D01*
X453282Y25201D01*
X453294Y25231D01*
X453311Y25258D01*
X453343Y25363D01*
X453382Y25465D01*
X453384Y25497D01*
X453394Y25528D01*
X453395Y25637D01*
X453404Y25746D01*
X453397Y25778D01*
X453398Y25810D01*
X453368Y25915D01*
X453346Y26022D01*
X453331Y26051D01*
X453322Y26082D01*
X453265Y26175D01*
X453214Y26271D01*
X453191Y26294D01*
X453174Y26322D01*
X453093Y26395D01*
X453017Y26473D01*
X452989Y26489D01*
X452965Y26511D01*
X452867Y26558D01*
X452772Y26612D01*
X452740Y26620D01*
X452711Y26634D01*
X452622Y26648D01*
X452497Y26677D01*
X452449Y26675D01*
X452407Y26681D01*
X446393Y26681D01*
X446362Y26677D01*
X446329Y26679D01*
X446222Y26657D01*
X446114Y26641D01*
X446085Y26628D01*
X446053Y26622D01*
X445957Y26570D01*
X445857Y26525D01*
X445833Y26504D01*
X445804Y26489D01*
X445726Y26413D01*
X445643Y26342D01*
X445625Y26315D01*
X445602Y26292D01*
X445549Y26197D01*
X445489Y26106D01*
X445479Y26075D01*
X445463Y26047D01*
X445438Y25941D01*
X445406Y25836D01*
X445406Y25804D01*
X445398Y25773D01*
X445404Y25663D01*
X445402Y25554D01*
X445411Y25523D01*
X445413Y25491D01*
X445448Y25388D01*
X445478Y25282D01*
X445495Y25255D01*
X445505Y25224D01*
X445558Y25151D01*
X445626Y25042D01*
X445662Y25010D01*
X445687Y24975D01*
X446387Y24276D01*
X446387Y20724D01*
X443876Y18213D01*
X440324Y18213D01*
X437813Y20724D01*
X437813Y24276D01*
X438513Y24975D01*
X438532Y25001D01*
X438557Y25022D01*
X438617Y25114D01*
X438682Y25201D01*
X438694Y25231D01*
X438711Y25258D01*
X438743Y25363D01*
X438782Y25465D01*
X438784Y25497D01*
X438794Y25528D01*
X438795Y25637D01*
X438804Y25746D01*
X438797Y25778D01*
X438798Y25810D01*
X438768Y25915D01*
X438746Y26022D01*
X438731Y26051D01*
X438722Y26082D01*
X438665Y26175D01*
X438614Y26271D01*
X438591Y26294D01*
X438574Y26322D01*
X438493Y26395D01*
X438417Y26473D01*
X438389Y26489D01*
X438365Y26511D01*
X438267Y26558D01*
X438172Y26612D01*
X438140Y26620D01*
X438111Y26634D01*
X438022Y26648D01*
X437897Y26677D01*
X437849Y26675D01*
X437807Y26681D01*
X358733Y26681D01*
X358701Y26677D01*
X358669Y26679D01*
X358562Y26657D01*
X358454Y26641D01*
X358424Y26628D01*
X358393Y26622D01*
X358296Y26570D01*
X358197Y26525D01*
X358172Y26504D01*
X358144Y26489D01*
X358066Y26413D01*
X357982Y26342D01*
X357965Y26315D01*
X357942Y26292D01*
X357888Y26197D01*
X357828Y26106D01*
X357818Y26075D01*
X357803Y26047D01*
X357777Y25941D01*
X357746Y25836D01*
X357745Y25804D01*
X357738Y25773D01*
X357743Y25663D01*
X357742Y25554D01*
X357750Y25523D01*
X357752Y25491D01*
X357788Y25388D01*
X357817Y25282D01*
X357834Y25255D01*
X357845Y25224D01*
X357898Y25151D01*
X357965Y25042D01*
X358001Y25010D01*
X358026Y24975D01*
X359537Y23465D01*
X359537Y20535D01*
X357465Y18463D01*
X354535Y18463D01*
X352463Y20535D01*
X352463Y20889D01*
X352450Y20984D01*
X352445Y21080D01*
X352430Y21123D01*
X352423Y21168D01*
X352384Y21256D01*
X352352Y21346D01*
X352327Y21381D01*
X352307Y21425D01*
X352224Y21522D01*
X352171Y21595D01*
X350679Y23087D01*
X350603Y23144D01*
X350531Y23209D01*
X350490Y23229D01*
X350454Y23256D01*
X350364Y23290D01*
X350277Y23332D01*
X350235Y23338D01*
X350190Y23355D01*
X350062Y23365D01*
X349973Y23379D01*
X229387Y23379D01*
X223151Y29615D01*
X223075Y29672D01*
X223003Y29737D01*
X222962Y29757D01*
X222926Y29784D01*
X222836Y29818D01*
X222749Y29860D01*
X222707Y29866D01*
X222662Y29883D01*
X222534Y29893D01*
X222445Y29907D01*
X63859Y29907D01*
X62227Y31539D01*
X55707Y38059D01*
X55681Y38079D01*
X55660Y38103D01*
X55568Y38163D01*
X55481Y38229D01*
X55451Y38240D01*
X55424Y38258D01*
X55319Y38290D01*
X55217Y38328D01*
X55185Y38331D01*
X55154Y38340D01*
X55045Y38342D01*
X54936Y38350D01*
X54904Y38344D01*
X54872Y38344D01*
X54767Y38315D01*
X54660Y38292D01*
X54631Y38277D01*
X54600Y38269D01*
X54507Y38211D01*
X54411Y38160D01*
X54388Y38138D01*
X54360Y38121D01*
X54287Y38040D01*
X54209Y37963D01*
X54193Y37935D01*
X54171Y37911D01*
X54124Y37813D01*
X54070Y37718D01*
X54062Y37686D01*
X54048Y37658D01*
X54034Y37568D01*
X54005Y37443D01*
X54007Y37395D01*
X54001Y37353D01*
X54001Y13600D01*
X54010Y13536D01*
X54009Y13472D01*
X54030Y13397D01*
X54041Y13321D01*
X54067Y13262D01*
X54084Y13200D01*
X54125Y13134D01*
X54157Y13064D01*
X54199Y13015D01*
X54232Y12960D01*
X54290Y12908D01*
X54340Y12850D01*
X54394Y12814D01*
X54442Y12771D01*
X54511Y12738D01*
X54576Y12695D01*
X54638Y12676D01*
X54695Y12648D01*
X54765Y12637D01*
X54846Y12613D01*
X54931Y12612D01*
X55000Y12601D01*
X521650Y12601D01*
X521714Y12610D01*
G37*
G36*
X222746Y38300D02*
X222746Y38300D01*
X222810Y38299D01*
X222885Y38320D01*
X222961Y38331D01*
X223020Y38357D01*
X223082Y38374D01*
X223148Y38415D01*
X223218Y38447D01*
X223267Y38489D01*
X223322Y38522D01*
X223374Y38580D01*
X223432Y38630D01*
X223468Y38684D01*
X223511Y38732D01*
X223544Y38801D01*
X223587Y38866D01*
X223606Y38928D01*
X223634Y38985D01*
X223645Y39055D01*
X223669Y39136D01*
X223670Y39221D01*
X223681Y39290D01*
X223681Y270447D01*
X223677Y270479D01*
X223679Y270511D01*
X223657Y270618D01*
X223641Y270726D01*
X223628Y270756D01*
X223622Y270787D01*
X223570Y270884D01*
X223525Y270983D01*
X223504Y271008D01*
X223489Y271036D01*
X223413Y271114D01*
X223342Y271198D01*
X223315Y271215D01*
X223292Y271238D01*
X223197Y271292D01*
X223106Y271352D01*
X223075Y271362D01*
X223047Y271377D01*
X222941Y271403D01*
X222836Y271434D01*
X222804Y271435D01*
X222773Y271442D01*
X222663Y271437D01*
X222554Y271438D01*
X222523Y271430D01*
X222491Y271428D01*
X222388Y271392D01*
X222282Y271363D01*
X222255Y271346D01*
X222224Y271335D01*
X222151Y271282D01*
X222042Y271215D01*
X222010Y271179D01*
X221975Y271154D01*
X220294Y269472D01*
X217897Y268479D01*
X215303Y268479D01*
X212906Y269472D01*
X210957Y271422D01*
X210905Y271460D01*
X210860Y271506D01*
X210793Y271545D01*
X210731Y271591D01*
X210671Y271614D01*
X210615Y271645D01*
X210540Y271663D01*
X210467Y271691D01*
X210403Y271695D01*
X210340Y271710D01*
X210263Y271706D01*
X210186Y271712D01*
X210123Y271699D01*
X210059Y271696D01*
X209986Y271671D01*
X209910Y271655D01*
X209853Y271625D01*
X209792Y271603D01*
X209736Y271562D01*
X209661Y271522D01*
X209600Y271463D01*
X209543Y271422D01*
X207594Y269472D01*
X205197Y268479D01*
X202603Y268479D01*
X200206Y269472D01*
X198257Y271422D01*
X198205Y271460D01*
X198160Y271506D01*
X198093Y271545D01*
X198031Y271591D01*
X197971Y271614D01*
X197915Y271645D01*
X197840Y271663D01*
X197767Y271691D01*
X197703Y271695D01*
X197640Y271710D01*
X197563Y271706D01*
X197486Y271712D01*
X197423Y271699D01*
X197359Y271696D01*
X197286Y271671D01*
X197210Y271655D01*
X197153Y271625D01*
X197092Y271603D01*
X197036Y271562D01*
X196961Y271522D01*
X196900Y271463D01*
X196843Y271422D01*
X194894Y269472D01*
X192497Y268479D01*
X189903Y268479D01*
X187506Y269472D01*
X185557Y271422D01*
X185505Y271460D01*
X185460Y271506D01*
X185393Y271545D01*
X185331Y271591D01*
X185271Y271614D01*
X185215Y271645D01*
X185140Y271663D01*
X185067Y271691D01*
X185003Y271695D01*
X184941Y271710D01*
X184863Y271706D01*
X184786Y271712D01*
X184723Y271699D01*
X184659Y271696D01*
X184586Y271670D01*
X184510Y271655D01*
X184453Y271625D01*
X184392Y271603D01*
X184336Y271562D01*
X184261Y271522D01*
X184200Y271463D01*
X184143Y271422D01*
X182194Y269472D01*
X179797Y268479D01*
X177203Y268479D01*
X174806Y269472D01*
X172857Y271422D01*
X172805Y271460D01*
X172760Y271506D01*
X172693Y271545D01*
X172631Y271591D01*
X172571Y271614D01*
X172515Y271645D01*
X172440Y271663D01*
X172367Y271691D01*
X172303Y271695D01*
X172241Y271710D01*
X172163Y271706D01*
X172086Y271712D01*
X172023Y271699D01*
X171959Y271696D01*
X171886Y271670D01*
X171810Y271655D01*
X171753Y271625D01*
X171692Y271603D01*
X171636Y271562D01*
X171561Y271522D01*
X171500Y271463D01*
X171443Y271422D01*
X169494Y269472D01*
X167097Y268479D01*
X164503Y268479D01*
X162106Y269472D01*
X160157Y271422D01*
X160105Y271460D01*
X160060Y271506D01*
X159993Y271545D01*
X159931Y271591D01*
X159871Y271614D01*
X159815Y271645D01*
X159740Y271663D01*
X159667Y271691D01*
X159603Y271695D01*
X159541Y271710D01*
X159463Y271706D01*
X159386Y271712D01*
X159323Y271699D01*
X159259Y271696D01*
X159186Y271670D01*
X159110Y271655D01*
X159053Y271625D01*
X158992Y271603D01*
X158936Y271562D01*
X158861Y271522D01*
X158800Y271463D01*
X158743Y271422D01*
X156794Y269472D01*
X154397Y268479D01*
X151803Y268479D01*
X149406Y269472D01*
X147457Y271422D01*
X147405Y271460D01*
X147360Y271506D01*
X147293Y271545D01*
X147231Y271591D01*
X147171Y271614D01*
X147115Y271645D01*
X147040Y271663D01*
X146967Y271691D01*
X146903Y271695D01*
X146841Y271710D01*
X146763Y271706D01*
X146686Y271712D01*
X146623Y271699D01*
X146559Y271696D01*
X146486Y271670D01*
X146410Y271655D01*
X146353Y271625D01*
X146292Y271603D01*
X146236Y271562D01*
X146161Y271522D01*
X146100Y271463D01*
X146043Y271422D01*
X144094Y269472D01*
X141697Y268479D01*
X139103Y268479D01*
X136706Y269472D01*
X134757Y271422D01*
X134705Y271460D01*
X134660Y271506D01*
X134593Y271545D01*
X134531Y271591D01*
X134471Y271614D01*
X134415Y271645D01*
X134340Y271663D01*
X134267Y271691D01*
X134203Y271695D01*
X134141Y271710D01*
X134063Y271706D01*
X133986Y271712D01*
X133923Y271699D01*
X133859Y271696D01*
X133786Y271670D01*
X133710Y271655D01*
X133653Y271625D01*
X133592Y271603D01*
X133536Y271562D01*
X133461Y271522D01*
X133400Y271463D01*
X133343Y271422D01*
X131394Y269472D01*
X128997Y268479D01*
X126403Y268479D01*
X124006Y269472D01*
X122057Y271422D01*
X122005Y271460D01*
X121960Y271506D01*
X121893Y271545D01*
X121831Y271591D01*
X121771Y271614D01*
X121715Y271645D01*
X121640Y271663D01*
X121567Y271691D01*
X121503Y271695D01*
X121441Y271710D01*
X121363Y271706D01*
X121286Y271712D01*
X121223Y271699D01*
X121159Y271696D01*
X121086Y271670D01*
X121010Y271655D01*
X120953Y271625D01*
X120892Y271603D01*
X120836Y271562D01*
X120761Y271522D01*
X120700Y271463D01*
X120643Y271422D01*
X118694Y269472D01*
X116297Y268479D01*
X113703Y268479D01*
X111306Y269472D01*
X109357Y271422D01*
X109305Y271460D01*
X109260Y271506D01*
X109193Y271545D01*
X109131Y271591D01*
X109071Y271614D01*
X109015Y271645D01*
X108940Y271663D01*
X108867Y271691D01*
X108803Y271695D01*
X108741Y271710D01*
X108663Y271706D01*
X108586Y271712D01*
X108523Y271699D01*
X108459Y271696D01*
X108386Y271670D01*
X108310Y271655D01*
X108253Y271625D01*
X108192Y271603D01*
X108136Y271562D01*
X108061Y271522D01*
X108000Y271463D01*
X107943Y271422D01*
X105994Y269472D01*
X103597Y268479D01*
X101003Y268479D01*
X98606Y269472D01*
X97807Y270272D01*
X97781Y270291D01*
X97760Y270316D01*
X97668Y270376D01*
X97581Y270441D01*
X97551Y270452D01*
X97524Y270470D01*
X97419Y270502D01*
X97317Y270541D01*
X97285Y270543D01*
X97254Y270552D01*
X97145Y270554D01*
X97036Y270562D01*
X97004Y270556D01*
X96972Y270556D01*
X96867Y270527D01*
X96760Y270505D01*
X96731Y270490D01*
X96700Y270481D01*
X96607Y270424D01*
X96511Y270372D01*
X96488Y270350D01*
X96460Y270333D01*
X96387Y270252D01*
X96309Y270176D01*
X96293Y270147D01*
X96271Y270124D01*
X96224Y270025D01*
X96170Y269930D01*
X96162Y269899D01*
X96148Y269870D01*
X96134Y269780D01*
X96105Y269656D01*
X96107Y269607D01*
X96101Y269565D01*
X96101Y266230D01*
X94505Y263642D01*
X93272Y263023D01*
X93268Y263020D01*
X93263Y263018D01*
X93216Y262984D01*
X93041Y262862D01*
X93029Y262847D01*
X93014Y262837D01*
X92577Y262399D01*
X92269Y262399D01*
X92191Y262388D01*
X92113Y262387D01*
X92057Y262369D01*
X91989Y262359D01*
X91897Y262318D01*
X91820Y262293D01*
X91789Y262277D01*
X90430Y262395D01*
X90384Y262393D01*
X90344Y262399D01*
X8850Y262399D01*
X8786Y262390D01*
X8722Y262391D01*
X8647Y262370D01*
X8571Y262359D01*
X8512Y262333D01*
X8450Y262316D01*
X8384Y262275D01*
X8314Y262243D01*
X8265Y262201D01*
X8210Y262168D01*
X8158Y262110D01*
X8100Y262060D01*
X8064Y262006D01*
X8021Y261958D01*
X7988Y261889D01*
X7945Y261824D01*
X7926Y261762D01*
X7898Y261705D01*
X7887Y261635D01*
X7863Y261554D01*
X7862Y261469D01*
X7851Y261400D01*
X7851Y57000D01*
X7860Y56936D01*
X7859Y56872D01*
X7880Y56797D01*
X7891Y56721D01*
X7917Y56662D01*
X7934Y56600D01*
X7975Y56534D01*
X8007Y56464D01*
X8049Y56415D01*
X8082Y56360D01*
X8140Y56308D01*
X8190Y56250D01*
X8244Y56214D01*
X8292Y56171D01*
X8361Y56138D01*
X8426Y56095D01*
X8488Y56076D01*
X8545Y56048D01*
X8615Y56037D01*
X8696Y56013D01*
X8781Y56012D01*
X8850Y56001D01*
X50714Y56001D01*
X50778Y56010D01*
X50842Y56009D01*
X50917Y56030D01*
X50993Y56041D01*
X51052Y56067D01*
X51114Y56084D01*
X51180Y56125D01*
X51250Y56157D01*
X51299Y56199D01*
X51354Y56232D01*
X51406Y56290D01*
X51464Y56340D01*
X51500Y56394D01*
X51543Y56442D01*
X51576Y56511D01*
X51619Y56576D01*
X51638Y56638D01*
X51666Y56695D01*
X51677Y56765D01*
X51701Y56846D01*
X51702Y56931D01*
X51713Y57000D01*
X51713Y223947D01*
X62053Y234287D01*
X72871Y234287D01*
X72966Y234300D01*
X73062Y234305D01*
X73105Y234320D01*
X73150Y234327D01*
X73238Y234366D01*
X73329Y234398D01*
X73363Y234423D01*
X73407Y234443D01*
X73505Y234526D01*
X73578Y234579D01*
X74535Y235537D01*
X77465Y235537D01*
X79537Y233465D01*
X79537Y230535D01*
X77465Y228463D01*
X74535Y228463D01*
X73578Y229421D01*
X73501Y229478D01*
X73429Y229543D01*
X73389Y229563D01*
X73352Y229590D01*
X73262Y229624D01*
X73176Y229666D01*
X73134Y229672D01*
X73088Y229689D01*
X72961Y229699D01*
X72871Y229713D01*
X64361Y229713D01*
X64266Y229700D01*
X64170Y229695D01*
X64127Y229680D01*
X64082Y229673D01*
X63994Y229634D01*
X63904Y229602D01*
X63869Y229577D01*
X63825Y229557D01*
X63728Y229474D01*
X63655Y229421D01*
X56579Y222345D01*
X56522Y222269D01*
X56457Y222197D01*
X56437Y222156D01*
X56410Y222120D01*
X56376Y222030D01*
X56334Y221943D01*
X56328Y221901D01*
X56311Y221856D01*
X56301Y221728D01*
X56287Y221639D01*
X56287Y44361D01*
X56300Y44266D01*
X56305Y44170D01*
X56320Y44127D01*
X56327Y44082D01*
X56366Y43994D01*
X56398Y43904D01*
X56423Y43869D01*
X56443Y43825D01*
X56526Y43728D01*
X56579Y43655D01*
X58757Y41476D01*
X58783Y41457D01*
X58804Y41433D01*
X58896Y41373D01*
X58983Y41307D01*
X59013Y41296D01*
X59040Y41278D01*
X59145Y41246D01*
X59247Y41208D01*
X59279Y41205D01*
X59310Y41196D01*
X59419Y41194D01*
X59528Y41186D01*
X59560Y41192D01*
X59592Y41192D01*
X59697Y41221D01*
X59804Y41243D01*
X59833Y41259D01*
X59864Y41267D01*
X59957Y41325D01*
X60053Y41376D01*
X60076Y41398D01*
X60104Y41415D01*
X60177Y41496D01*
X60255Y41573D01*
X60271Y41601D01*
X60293Y41625D01*
X60340Y41723D01*
X60394Y41818D01*
X60402Y41849D01*
X60416Y41878D01*
X60430Y41968D01*
X60459Y42093D01*
X60457Y42141D01*
X60463Y42183D01*
X60463Y43965D01*
X62535Y46037D01*
X65465Y46037D01*
X67537Y43965D01*
X67537Y42970D01*
X67550Y42875D01*
X67555Y42779D01*
X67570Y42736D01*
X67577Y42691D01*
X67616Y42604D01*
X67648Y42513D01*
X67673Y42478D01*
X67693Y42434D01*
X67776Y42337D01*
X67829Y42264D01*
X71510Y38583D01*
X71586Y38526D01*
X71658Y38461D01*
X71699Y38441D01*
X71735Y38414D01*
X71825Y38380D01*
X71912Y38338D01*
X71954Y38332D01*
X71999Y38315D01*
X72127Y38305D01*
X72216Y38291D01*
X222682Y38291D01*
X222746Y38300D01*
G37*
%LPC*%
G36*
X264824Y211699D02*
X264824Y211699D01*
X259881Y213747D01*
X256097Y217531D01*
X254049Y222474D01*
X254049Y227826D01*
X256097Y232769D01*
X259881Y236553D01*
X264824Y238601D01*
X270176Y238601D01*
X275119Y236553D01*
X278903Y232769D01*
X280951Y227826D01*
X280951Y222474D01*
X278903Y217531D01*
X275119Y213747D01*
X270176Y211699D01*
X264824Y211699D01*
G37*
%LPD*%
%LPC*%
G36*
X191535Y64463D02*
X191535Y64463D01*
X189463Y66535D01*
X189463Y69465D01*
X190437Y70438D01*
X190494Y70515D01*
X190559Y70587D01*
X190579Y70627D01*
X190606Y70664D01*
X190640Y70754D01*
X190682Y70840D01*
X190688Y70882D01*
X190705Y70928D01*
X190715Y71055D01*
X190729Y71145D01*
X190729Y79941D01*
X199171Y88382D01*
X199228Y88459D01*
X199293Y88530D01*
X199313Y88571D01*
X199340Y88607D01*
X199374Y88698D01*
X199416Y88784D01*
X199422Y88826D01*
X199439Y88871D01*
X199449Y88999D01*
X199463Y89088D01*
X199463Y90465D01*
X201535Y92537D01*
X204465Y92537D01*
X206537Y90465D01*
X206537Y87535D01*
X204465Y85463D01*
X203088Y85463D01*
X202994Y85450D01*
X202897Y85445D01*
X202854Y85430D01*
X202809Y85423D01*
X202722Y85384D01*
X202631Y85352D01*
X202596Y85327D01*
X202552Y85307D01*
X202455Y85224D01*
X202382Y85171D01*
X195563Y78352D01*
X195506Y78275D01*
X195441Y78204D01*
X195421Y78163D01*
X195394Y78127D01*
X195360Y78036D01*
X195318Y77950D01*
X195312Y77908D01*
X195295Y77863D01*
X195285Y77735D01*
X195271Y77646D01*
X195271Y71145D01*
X195284Y71050D01*
X195289Y70954D01*
X195304Y70911D01*
X195311Y70866D01*
X195350Y70778D01*
X195382Y70687D01*
X195407Y70653D01*
X195427Y70609D01*
X195510Y70511D01*
X195563Y70438D01*
X196537Y69465D01*
X196537Y66535D01*
X194465Y64463D01*
X191535Y64463D01*
G37*
%LPD*%
D10*
X506000Y201000D03*
X506000Y74000D03*
D11*
X191200Y275000D03*
X203900Y275000D03*
X216600Y275000D03*
X229300Y275000D03*
X242000Y275000D03*
X178500Y275000D03*
X165800Y275000D03*
X153100Y275000D03*
X140400Y275000D03*
X127700Y275000D03*
X115000Y275000D03*
X102300Y275000D03*
D12*
X299000Y113750D03*
X314000Y113750D03*
X331500Y113750D03*
X349000Y113750D03*
X367750Y113750D03*
X382750Y113750D03*
X399000Y113750D03*
X415250Y113750D03*
X436500Y113750D03*
X282750Y115000D03*
X270250Y123750D03*
X265250Y138750D03*
X270250Y155000D03*
X282750Y163750D03*
X299000Y163750D03*
X314000Y163750D03*
X332750Y163750D03*
X349000Y163750D03*
X364000Y163750D03*
X384000Y163750D03*
X399000Y163750D03*
X416500Y163750D03*
X432750Y163750D03*
X449000Y163750D03*
X466500Y162500D03*
X480250Y152500D03*
X484000Y137500D03*
X475250Y120000D03*
X455250Y115000D03*
X282750Y183750D03*
X314000Y183750D03*
X332750Y183750D03*
X347750Y183750D03*
X364000Y183750D03*
X384000Y183750D03*
X399000Y183750D03*
X416500Y183750D03*
X431500Y183750D03*
X449000Y183750D03*
X12750Y63000D03*
X12750Y75750D03*
X12750Y88750D03*
X12750Y105000D03*
X12750Y121250D03*
X12750Y137500D03*
X12750Y153750D03*
X12750Y170000D03*
X12750Y186250D03*
X12750Y201250D03*
X12750Y217500D03*
X12750Y232500D03*
X251250Y40750D03*
X110750Y26750D03*
X61750Y49750D03*
X152750Y70750D03*
X127750Y70750D03*
X299000Y93750D03*
X314000Y93750D03*
X331500Y93750D03*
X349000Y93750D03*
X367750Y93750D03*
X382750Y93750D03*
X399000Y93750D03*
X415250Y93750D03*
X436500Y93750D03*
D13*
X514200Y22600D03*
D12*
X286000Y93750D03*
X270000Y93750D03*
X258000Y106750D03*
X247000Y116750D03*
X218000Y144750D03*
X208000Y155750D03*
X198000Y165750D03*
X185000Y177750D03*
X175000Y186750D03*
X161000Y186750D03*
X145000Y186750D03*
X129000Y186750D03*
X113000Y186750D03*
X78000Y204750D03*
X210000Y186750D03*
X198000Y198750D03*
X181000Y204750D03*
X151000Y204750D03*
X134000Y204750D03*
X115000Y204750D03*
X220000Y176750D03*
X240000Y154750D03*
X252000Y142750D03*
X239000Y124750D03*
X167000Y204750D03*
X99000Y204750D03*
X100000Y186750D03*
X88000Y194750D03*
X266750Y183750D03*
X468000Y183750D03*
X487000Y183750D03*
X501000Y173750D03*
X122000Y248750D03*
X122000Y238750D03*
X147000Y248750D03*
X147000Y238750D03*
X172000Y248750D03*
X197000Y248750D03*
X172000Y239750D03*
X197000Y239750D03*
X220000Y248750D03*
X197000Y230750D03*
X172000Y230750D03*
X147000Y230750D03*
X122000Y230750D03*
X94000Y248750D03*
X94000Y238750D03*
X94000Y230750D03*
X255000Y254750D03*
X269000Y254750D03*
X285000Y254750D03*
X111000Y16750D03*
X126000Y16750D03*
X145000Y16750D03*
X220000Y239750D03*
X125750Y26750D03*
X144750Y26750D03*
X165000Y16750D03*
X183000Y16750D03*
X203000Y16750D03*
X222000Y16750D03*
X241000Y16750D03*
X261000Y16750D03*
X284000Y16750D03*
X308000Y16750D03*
X332000Y16750D03*
X353000Y16750D03*
X373000Y16750D03*
X393000Y16750D03*
X414000Y16750D03*
X432000Y16750D03*
X228000Y35750D03*
D14*
X486250Y253750D02*
X506500Y233500D01*
D12*
X64000Y42500D03*
D15*
X70750Y35750D01*
X228000Y35750D01*
D16*
X499000Y34000D03*
D14*
X486250Y253750D02*
X304750Y253750D01*
X293000Y242000D02*
X293000Y209000D01*
X280000Y196000D01*
X293000Y242000D02*
X304750Y253750D01*
X229300Y275000D02*
X228000Y273700D01*
X228000Y197000D01*
X228000Y35750D01*
X229000Y196000D02*
X280000Y196000D01*
X229000Y196000D02*
X228000Y197000D01*
X228000Y35750D02*
X232750Y31000D01*
X496000Y31000D02*
X499000Y34000D01*
X496000Y31000D02*
X232750Y31000D01*
D13*
X499600Y22500D03*
D14*
X506500Y201500D02*
X506500Y233500D01*
X506500Y201500D02*
X506000Y201000D01*
D13*
X456600Y22400D03*
X442100Y22500D03*
X485300Y22300D03*
X471100Y22300D03*
D12*
X356000Y22000D03*
D17*
X355000Y22000D01*
X351334Y25666D01*
X230334Y25666D02*
X223806Y32194D01*
X64806Y32194D02*
X54000Y43000D01*
X54000Y223000D01*
X63000Y232000D01*
X76000Y232000D01*
X230334Y25666D02*
X351334Y25666D01*
X223806Y32194D02*
X64806Y32194D01*
D12*
X76000Y232000D03*
X313000Y227000D03*
D18*
X303318Y227000D01*
X298318Y222000D01*
X298318Y206797D01*
X240000Y190682D02*
X233318Y184000D01*
X282203Y190682D02*
X298318Y206797D01*
X282203Y190682D02*
X240000Y190682D01*
X233318Y96682D02*
X241000Y89000D01*
X233318Y96682D02*
X233318Y184000D01*
D12*
X241000Y89000D03*
X193000Y68000D03*
D18*
X193000Y79000D01*
X203000Y89000D01*
D12*
X203000Y89000D03*
M02*
