G04 EAGLE Gerber RS-274X export*
G75*
%MOMM*%
%FSLAX34Y34*%
%LPD*%
%INBottom Copper*%
%IPPOS*%
%AMOC8*
5,1,8,0,0,1.08239X$1,22.5*%
G01*
%ADD10C,1.905000*%
%ADD11C,1.050000*%
%ADD12R,2.286000X0.609600*%
%ADD13R,1.300000X1.600000*%
%ADD14R,1.300000X1.500000*%
%ADD15C,1.100000*%
%ADD16C,0.453200*%
%ADD17C,0.609600*%
%ADD18C,0.254000*%
%ADD19C,0.304800*%
%ADD20C,0.406400*%
%ADD21C,0.200000*%
%ADD22C,0.203200*%

G36*
X521714Y12610D02*
X521714Y12610D01*
X521778Y12609D01*
X521853Y12630D01*
X521929Y12641D01*
X521988Y12667D01*
X522050Y12684D01*
X522116Y12725D01*
X522186Y12757D01*
X522235Y12799D01*
X522290Y12832D01*
X522342Y12890D01*
X522400Y12940D01*
X522436Y12994D01*
X522479Y13042D01*
X522512Y13111D01*
X522555Y13176D01*
X522574Y13238D01*
X522602Y13295D01*
X522613Y13365D01*
X522637Y13446D01*
X522638Y13531D01*
X522649Y13600D01*
X522649Y31476D01*
X523950Y35480D01*
X523951Y35482D01*
X523952Y35484D01*
X523957Y35518D01*
X523999Y35758D01*
X523997Y35774D01*
X523999Y35789D01*
X523999Y110000D01*
X523990Y110064D01*
X523991Y110128D01*
X523970Y110203D01*
X523959Y110279D01*
X523933Y110338D01*
X523916Y110400D01*
X523875Y110466D01*
X523843Y110536D01*
X523801Y110585D01*
X523768Y110640D01*
X523710Y110692D01*
X523660Y110750D01*
X523606Y110786D01*
X523558Y110829D01*
X523489Y110862D01*
X523424Y110905D01*
X523362Y110924D01*
X523305Y110952D01*
X523235Y110963D01*
X523154Y110987D01*
X523069Y110988D01*
X523000Y110999D01*
X479999Y110999D01*
X479999Y159001D01*
X523000Y159001D01*
X523064Y159010D01*
X523128Y159009D01*
X523203Y159030D01*
X523279Y159041D01*
X523338Y159067D01*
X523400Y159084D01*
X523466Y159125D01*
X523536Y159157D01*
X523585Y159199D01*
X523640Y159232D01*
X523692Y159290D01*
X523750Y159340D01*
X523786Y159394D01*
X523829Y159442D01*
X523862Y159511D01*
X523905Y159576D01*
X523924Y159638D01*
X523952Y159695D01*
X523963Y159765D01*
X523987Y159846D01*
X523988Y159931D01*
X523999Y160000D01*
X523999Y239704D01*
X523999Y239707D01*
X523999Y239709D01*
X523994Y239744D01*
X523959Y239984D01*
X523953Y239999D01*
X523950Y240013D01*
X523899Y240170D01*
X523899Y261400D01*
X523890Y261464D01*
X523891Y261528D01*
X523870Y261603D01*
X523859Y261679D01*
X523833Y261738D01*
X523816Y261800D01*
X523775Y261866D01*
X523743Y261936D01*
X523701Y261985D01*
X523668Y262040D01*
X523610Y262092D01*
X523560Y262150D01*
X523506Y262186D01*
X523458Y262229D01*
X523389Y262262D01*
X523324Y262305D01*
X523262Y262324D01*
X523205Y262352D01*
X523135Y262363D01*
X523054Y262387D01*
X522969Y262388D01*
X522900Y262399D01*
X235035Y262399D01*
X235003Y262395D01*
X234971Y262397D01*
X234864Y262375D01*
X234756Y262359D01*
X234726Y262346D01*
X234695Y262340D01*
X234598Y262288D01*
X234499Y262243D01*
X234474Y262222D01*
X234446Y262207D01*
X234367Y262131D01*
X234284Y262060D01*
X234267Y262033D01*
X234244Y262010D01*
X234190Y261915D01*
X234130Y261824D01*
X234120Y261793D01*
X234105Y261765D01*
X234079Y261659D01*
X234048Y261554D01*
X234047Y261522D01*
X234040Y261490D01*
X234045Y261381D01*
X234044Y261272D01*
X234052Y261241D01*
X234054Y261209D01*
X234090Y261106D01*
X234119Y261000D01*
X234136Y260973D01*
X234147Y260942D01*
X234200Y260869D01*
X234267Y260760D01*
X234303Y260728D01*
X234328Y260694D01*
X235321Y258297D01*
X235321Y255703D01*
X234328Y253306D01*
X232611Y251590D01*
X232554Y251513D01*
X232489Y251441D01*
X232469Y251401D01*
X232442Y251364D01*
X232408Y251274D01*
X232366Y251188D01*
X232360Y251146D01*
X232343Y251100D01*
X232333Y250973D01*
X232319Y250883D01*
X232319Y201318D01*
X232328Y201254D01*
X232327Y201190D01*
X232348Y201115D01*
X232359Y201039D01*
X232385Y200980D01*
X232402Y200918D01*
X232443Y200852D01*
X232475Y200782D01*
X232517Y200733D01*
X232550Y200678D01*
X232608Y200626D01*
X232658Y200568D01*
X232712Y200532D01*
X232760Y200489D01*
X232829Y200456D01*
X232894Y200413D01*
X232956Y200394D01*
X233013Y200366D01*
X233083Y200355D01*
X233164Y200331D01*
X233249Y200330D01*
X233318Y200319D01*
X277797Y200319D01*
X277892Y200332D01*
X277988Y200337D01*
X278031Y200352D01*
X278076Y200359D01*
X278164Y200398D01*
X278255Y200430D01*
X278289Y200455D01*
X278333Y200475D01*
X278431Y200558D01*
X278504Y200611D01*
X288389Y210496D01*
X288446Y210573D01*
X288511Y210644D01*
X288531Y210685D01*
X288558Y210722D01*
X288592Y210812D01*
X288634Y210898D01*
X288640Y210940D01*
X288657Y210986D01*
X288667Y211113D01*
X288681Y211203D01*
X288681Y219310D01*
X309690Y240319D01*
X348789Y240319D01*
X351319Y237789D01*
X351319Y234211D01*
X348789Y231681D01*
X313682Y231681D01*
X313587Y231668D01*
X313491Y231663D01*
X313448Y231648D01*
X313403Y231641D01*
X313315Y231602D01*
X313224Y231570D01*
X313190Y231545D01*
X313146Y231525D01*
X313049Y231442D01*
X312975Y231389D01*
X309563Y227977D01*
X309544Y227951D01*
X309519Y227930D01*
X309460Y227838D01*
X309394Y227751D01*
X309383Y227721D01*
X309365Y227694D01*
X309333Y227589D01*
X309295Y227487D01*
X309292Y227455D01*
X309283Y227424D01*
X309281Y227315D01*
X309273Y227206D01*
X309279Y227174D01*
X309279Y227142D01*
X309308Y227037D01*
X309330Y226930D01*
X309345Y226901D01*
X309354Y226870D01*
X309412Y226777D01*
X309463Y226681D01*
X309485Y226658D01*
X309502Y226630D01*
X309583Y226557D01*
X309660Y226479D01*
X309688Y226463D01*
X309712Y226441D01*
X309810Y226394D01*
X309905Y226340D01*
X309936Y226332D01*
X309965Y226318D01*
X310055Y226304D01*
X310179Y226275D01*
X310228Y226277D01*
X310270Y226271D01*
X375646Y226271D01*
X375740Y226284D01*
X375837Y226289D01*
X375880Y226304D01*
X375925Y226311D01*
X376012Y226350D01*
X376103Y226382D01*
X376138Y226407D01*
X376182Y226427D01*
X376279Y226510D01*
X376352Y226563D01*
X388437Y238648D01*
X388494Y238725D01*
X388559Y238796D01*
X388579Y238837D01*
X388606Y238873D01*
X388640Y238964D01*
X388682Y239050D01*
X388688Y239092D01*
X388705Y239137D01*
X388715Y239265D01*
X388717Y239275D01*
X388717Y239276D01*
X388717Y239278D01*
X388729Y239354D01*
X388729Y241855D01*
X388716Y241950D01*
X388711Y242046D01*
X388696Y242089D01*
X388689Y242134D01*
X388650Y242222D01*
X388618Y242313D01*
X388593Y242347D01*
X388573Y242391D01*
X388490Y242489D01*
X388437Y242562D01*
X387463Y243535D01*
X387463Y246465D01*
X389535Y248537D01*
X392465Y248537D01*
X394537Y246465D01*
X394537Y243535D01*
X393563Y242562D01*
X393506Y242485D01*
X393441Y242413D01*
X393421Y242373D01*
X393394Y242336D01*
X393360Y242246D01*
X393318Y242160D01*
X393312Y242118D01*
X393295Y242072D01*
X393285Y241945D01*
X393271Y241855D01*
X393271Y237059D01*
X377941Y221729D01*
X308354Y221729D01*
X308260Y221716D01*
X308163Y221711D01*
X308120Y221696D01*
X308075Y221689D01*
X307988Y221650D01*
X307897Y221618D01*
X307862Y221593D01*
X307818Y221573D01*
X307721Y221490D01*
X307648Y221437D01*
X300881Y214670D01*
X300824Y214593D01*
X300759Y214522D01*
X300739Y214481D01*
X300712Y214445D01*
X300678Y214354D01*
X300636Y214268D01*
X300630Y214226D01*
X300613Y214181D01*
X300603Y214053D01*
X300589Y213964D01*
X300589Y205857D01*
X283143Y188411D01*
X241354Y188411D01*
X241260Y188398D01*
X241163Y188393D01*
X241120Y188378D01*
X241075Y188371D01*
X240988Y188332D01*
X240897Y188300D01*
X240862Y188275D01*
X240818Y188255D01*
X240721Y188172D01*
X240648Y188119D01*
X235881Y183352D01*
X235824Y183275D01*
X235759Y183204D01*
X235739Y183163D01*
X235712Y183127D01*
X235678Y183036D01*
X235636Y182950D01*
X235630Y182908D01*
X235613Y182863D01*
X235603Y182735D01*
X235589Y182646D01*
X235589Y95536D01*
X235598Y95473D01*
X235597Y95411D01*
X235597Y95410D01*
X235597Y95408D01*
X235618Y95333D01*
X235629Y95257D01*
X235655Y95198D01*
X235672Y95136D01*
X235713Y95070D01*
X235745Y95000D01*
X235787Y94951D01*
X235820Y94896D01*
X235878Y94844D01*
X235928Y94786D01*
X235982Y94750D01*
X236030Y94707D01*
X236099Y94674D01*
X236164Y94631D01*
X236226Y94612D01*
X236283Y94584D01*
X236353Y94573D01*
X236434Y94549D01*
X236519Y94548D01*
X236588Y94537D01*
X237465Y94537D01*
X239537Y92465D01*
X239537Y89535D01*
X237465Y87463D01*
X234535Y87463D01*
X234025Y87974D01*
X233999Y87993D01*
X233978Y88018D01*
X233886Y88078D01*
X233799Y88143D01*
X233769Y88154D01*
X233742Y88172D01*
X233637Y88204D01*
X233535Y88243D01*
X233503Y88245D01*
X233472Y88254D01*
X233363Y88256D01*
X233254Y88264D01*
X233222Y88258D01*
X233190Y88258D01*
X233085Y88229D01*
X232978Y88207D01*
X232949Y88192D01*
X232918Y88183D01*
X232825Y88126D01*
X232729Y88074D01*
X232706Y88052D01*
X232678Y88035D01*
X232605Y87954D01*
X232527Y87878D01*
X232511Y87849D01*
X232489Y87826D01*
X232442Y87727D01*
X232388Y87632D01*
X232380Y87601D01*
X232366Y87572D01*
X232352Y87482D01*
X232323Y87358D01*
X232325Y87309D01*
X232319Y87267D01*
X232319Y74318D01*
X232328Y74254D01*
X232327Y74190D01*
X232348Y74115D01*
X232359Y74039D01*
X232385Y73980D01*
X232402Y73918D01*
X232443Y73852D01*
X232475Y73782D01*
X232517Y73733D01*
X232550Y73678D01*
X232608Y73626D01*
X232658Y73568D01*
X232712Y73532D01*
X232760Y73489D01*
X232829Y73456D01*
X232894Y73413D01*
X232956Y73394D01*
X233013Y73366D01*
X233083Y73355D01*
X233164Y73331D01*
X233249Y73330D01*
X233318Y73319D01*
X465789Y73319D01*
X506619Y32489D01*
X506619Y24670D01*
X506632Y24576D01*
X506637Y24479D01*
X506652Y24436D01*
X506659Y24391D01*
X506698Y24304D01*
X506730Y24213D01*
X506755Y24178D01*
X506775Y24134D01*
X506858Y24037D01*
X506911Y23964D01*
X508040Y22835D01*
X509071Y20347D01*
X509071Y17653D01*
X508040Y15165D01*
X507182Y14307D01*
X507162Y14281D01*
X507138Y14260D01*
X507078Y14168D01*
X507013Y14081D01*
X507001Y14051D01*
X506983Y14024D01*
X506952Y13919D01*
X506913Y13817D01*
X506911Y13785D01*
X506901Y13754D01*
X506900Y13645D01*
X506891Y13536D01*
X506898Y13504D01*
X506897Y13472D01*
X506926Y13367D01*
X506949Y13260D01*
X506964Y13231D01*
X506973Y13200D01*
X507030Y13107D01*
X507081Y13011D01*
X507104Y12988D01*
X507121Y12960D01*
X507202Y12887D01*
X507278Y12809D01*
X507306Y12793D01*
X507330Y12771D01*
X507428Y12724D01*
X507523Y12670D01*
X507555Y12662D01*
X507584Y12648D01*
X507673Y12634D01*
X507798Y12605D01*
X507846Y12607D01*
X507888Y12601D01*
X521650Y12601D01*
X521714Y12610D01*
G37*
G36*
X276064Y12610D02*
X276064Y12610D01*
X276128Y12609D01*
X276203Y12630D01*
X276279Y12641D01*
X276338Y12667D01*
X276400Y12684D01*
X276466Y12725D01*
X276536Y12757D01*
X276585Y12799D01*
X276640Y12832D01*
X276692Y12890D01*
X276750Y12940D01*
X276786Y12994D01*
X276829Y13042D01*
X276862Y13111D01*
X276905Y13176D01*
X276924Y13238D01*
X276952Y13295D01*
X276963Y13365D01*
X276987Y13446D01*
X276988Y13531D01*
X276999Y13600D01*
X276999Y37915D01*
X276995Y37947D01*
X276997Y37979D01*
X276975Y38086D01*
X276959Y38194D01*
X276946Y38223D01*
X276940Y38255D01*
X276888Y38351D01*
X276843Y38451D01*
X276822Y38475D01*
X276807Y38504D01*
X276731Y38582D01*
X276660Y38665D01*
X276633Y38683D01*
X276610Y38706D01*
X276515Y38760D01*
X276424Y38820D01*
X276393Y38829D01*
X276365Y38845D01*
X276258Y38870D01*
X276154Y38902D01*
X276122Y38902D01*
X276091Y38910D01*
X275981Y38904D01*
X275872Y38906D01*
X275841Y38897D01*
X275809Y38895D01*
X275706Y38860D01*
X275600Y38830D01*
X275573Y38814D01*
X275542Y38803D01*
X275469Y38750D01*
X275360Y38682D01*
X275328Y38646D01*
X275293Y38621D01*
X275119Y38447D01*
X270176Y36399D01*
X264824Y36399D01*
X259881Y38447D01*
X256097Y42231D01*
X254049Y47174D01*
X254049Y52526D01*
X256097Y57469D01*
X259881Y61253D01*
X263516Y62759D01*
X263591Y62803D01*
X263670Y62839D01*
X263712Y62874D01*
X263759Y62902D01*
X263818Y62966D01*
X263884Y63022D01*
X263914Y63068D01*
X263952Y63108D01*
X263991Y63185D01*
X264039Y63258D01*
X264055Y63311D01*
X264080Y63360D01*
X264096Y63445D01*
X264121Y63528D01*
X264122Y63583D01*
X264132Y63637D01*
X264124Y63723D01*
X264125Y63810D01*
X264110Y63863D01*
X264105Y63917D01*
X264073Y63998D01*
X264050Y64082D01*
X264021Y64129D01*
X264001Y64179D01*
X263947Y64248D01*
X263902Y64322D01*
X263861Y64359D01*
X263827Y64402D01*
X263757Y64452D01*
X263692Y64511D01*
X263643Y64535D01*
X263598Y64567D01*
X263516Y64596D01*
X263438Y64634D01*
X263388Y64642D01*
X263333Y64661D01*
X263219Y64668D01*
X263134Y64681D01*
X233318Y64681D01*
X233254Y64672D01*
X233190Y64673D01*
X233115Y64652D01*
X233039Y64641D01*
X232980Y64615D01*
X232918Y64598D01*
X232852Y64557D01*
X232782Y64525D01*
X232733Y64483D01*
X232678Y64450D01*
X232626Y64392D01*
X232568Y64342D01*
X232532Y64288D01*
X232489Y64240D01*
X232456Y64171D01*
X232413Y64106D01*
X232394Y64044D01*
X232366Y63987D01*
X232355Y63917D01*
X232331Y63836D01*
X232330Y63751D01*
X232319Y63682D01*
X232319Y37953D01*
X232332Y37858D01*
X232337Y37762D01*
X232352Y37719D01*
X232359Y37674D01*
X232398Y37586D01*
X232430Y37495D01*
X232455Y37461D01*
X232475Y37417D01*
X232558Y37319D01*
X232611Y37246D01*
X234246Y35611D01*
X234323Y35554D01*
X234394Y35489D01*
X234435Y35469D01*
X234472Y35442D01*
X234562Y35408D01*
X234648Y35366D01*
X234690Y35360D01*
X234736Y35343D01*
X234768Y35340D01*
X237319Y32789D01*
X237319Y29211D01*
X234789Y26681D01*
X230961Y26681D01*
X228139Y29504D01*
X226504Y31139D01*
X225726Y31917D01*
X225649Y31974D01*
X225578Y32039D01*
X225537Y32059D01*
X225500Y32086D01*
X225410Y32120D01*
X225324Y32162D01*
X225282Y32168D01*
X225236Y32185D01*
X225109Y32195D01*
X225019Y32209D01*
X137437Y32209D01*
X137405Y32205D01*
X137373Y32207D01*
X137266Y32185D01*
X137158Y32169D01*
X137128Y32156D01*
X137097Y32150D01*
X137000Y32098D01*
X136901Y32053D01*
X136876Y32032D01*
X136848Y32017D01*
X136770Y31941D01*
X136687Y31870D01*
X136669Y31843D01*
X136646Y31820D01*
X136592Y31726D01*
X136532Y31634D01*
X136523Y31603D01*
X136507Y31575D01*
X136482Y31469D01*
X136450Y31364D01*
X136449Y31332D01*
X136442Y31301D01*
X136447Y31191D01*
X136446Y31082D01*
X136455Y31051D01*
X136456Y31019D01*
X136492Y30916D01*
X136521Y30810D01*
X136538Y30783D01*
X136549Y30752D01*
X136602Y30679D01*
X136669Y30570D01*
X136705Y30538D01*
X136730Y30503D01*
X137405Y29829D01*
X137481Y29772D01*
X137553Y29707D01*
X137594Y29687D01*
X137630Y29660D01*
X137720Y29626D01*
X137807Y29584D01*
X137849Y29578D01*
X137894Y29561D01*
X138022Y29551D01*
X138111Y29537D01*
X139465Y29537D01*
X141537Y27465D01*
X141537Y24535D01*
X139465Y22463D01*
X136535Y22463D01*
X134463Y24535D01*
X134463Y25889D01*
X134450Y25984D01*
X134445Y26080D01*
X134430Y26123D01*
X134423Y26168D01*
X134384Y26256D01*
X134352Y26346D01*
X134327Y26381D01*
X134307Y26425D01*
X134224Y26522D01*
X134171Y26595D01*
X132151Y28615D01*
X132075Y28672D01*
X132003Y28737D01*
X131962Y28757D01*
X131926Y28784D01*
X131836Y28818D01*
X131749Y28860D01*
X131707Y28866D01*
X131662Y28883D01*
X131534Y28893D01*
X131445Y28907D01*
X78859Y28907D01*
X77227Y30539D01*
X58345Y49421D01*
X56713Y51053D01*
X56713Y204947D01*
X73421Y221655D01*
X73478Y221731D01*
X73543Y221803D01*
X73563Y221844D01*
X73590Y221880D01*
X73624Y221970D01*
X73666Y222057D01*
X73672Y222099D01*
X73689Y222144D01*
X73699Y222272D01*
X73713Y222361D01*
X73713Y228871D01*
X73700Y228966D01*
X73695Y229062D01*
X73680Y229105D01*
X73673Y229150D01*
X73634Y229238D01*
X73602Y229329D01*
X73577Y229363D01*
X73557Y229407D01*
X73474Y229505D01*
X73421Y229578D01*
X72463Y230535D01*
X72463Y233465D01*
X74535Y235537D01*
X77465Y235537D01*
X79537Y233465D01*
X79537Y230535D01*
X78579Y229578D01*
X78522Y229501D01*
X78457Y229429D01*
X78437Y229389D01*
X78410Y229352D01*
X78376Y229262D01*
X78334Y229176D01*
X78328Y229134D01*
X78311Y229088D01*
X78301Y228961D01*
X78287Y228871D01*
X78287Y220053D01*
X61579Y203345D01*
X61522Y203269D01*
X61457Y203197D01*
X61437Y203156D01*
X61410Y203120D01*
X61376Y203030D01*
X61334Y202943D01*
X61328Y202901D01*
X61311Y202856D01*
X61301Y202728D01*
X61287Y202639D01*
X61287Y53361D01*
X61300Y53266D01*
X61305Y53170D01*
X61320Y53127D01*
X61327Y53082D01*
X61366Y52994D01*
X61398Y52904D01*
X61423Y52869D01*
X61443Y52825D01*
X61526Y52728D01*
X61579Y52655D01*
X70910Y43324D01*
X70961Y43286D01*
X71006Y43240D01*
X71073Y43202D01*
X71135Y43155D01*
X71195Y43132D01*
X71251Y43101D01*
X71327Y43083D01*
X71399Y43056D01*
X71463Y43051D01*
X71526Y43036D01*
X71603Y43040D01*
X71680Y43034D01*
X71743Y43047D01*
X71807Y43050D01*
X71880Y43076D01*
X71956Y43091D01*
X72013Y43122D01*
X72074Y43143D01*
X72130Y43184D01*
X72205Y43224D01*
X72266Y43283D01*
X72323Y43324D01*
X74535Y45537D01*
X77465Y45537D01*
X79545Y43457D01*
X79545Y43450D01*
X79552Y43425D01*
X79555Y43357D01*
X79570Y43314D01*
X79577Y43269D01*
X79616Y43181D01*
X79648Y43090D01*
X79673Y43056D01*
X79693Y43012D01*
X79776Y42914D01*
X79829Y42841D01*
X83563Y39107D01*
X83640Y39050D01*
X83712Y38985D01*
X83753Y38965D01*
X83789Y38938D01*
X83879Y38904D01*
X83965Y38862D01*
X84007Y38856D01*
X84053Y38839D01*
X84180Y38829D01*
X84270Y38815D01*
X215771Y38815D01*
X215803Y38819D01*
X215835Y38817D01*
X215942Y38839D01*
X216050Y38855D01*
X216080Y38868D01*
X216111Y38874D01*
X216208Y38926D01*
X216307Y38971D01*
X216332Y38992D01*
X216360Y39007D01*
X216439Y39083D01*
X216522Y39154D01*
X216539Y39181D01*
X216562Y39204D01*
X216616Y39299D01*
X216676Y39390D01*
X216686Y39421D01*
X216701Y39449D01*
X216727Y39555D01*
X216758Y39660D01*
X216759Y39692D01*
X216766Y39724D01*
X216761Y39833D01*
X216762Y39942D01*
X216754Y39973D01*
X216752Y40005D01*
X216716Y40108D01*
X216687Y40214D01*
X216670Y40241D01*
X216659Y40272D01*
X216606Y40345D01*
X216539Y40454D01*
X216503Y40486D01*
X216478Y40521D01*
X216463Y40535D01*
X216463Y43465D01*
X218535Y45537D01*
X219412Y45537D01*
X219476Y45546D01*
X219540Y45545D01*
X219615Y45566D01*
X219691Y45577D01*
X219750Y45603D01*
X219812Y45620D01*
X219878Y45661D01*
X219948Y45693D01*
X219997Y45735D01*
X220052Y45768D01*
X220104Y45826D01*
X220162Y45876D01*
X220198Y45930D01*
X220241Y45978D01*
X220274Y46047D01*
X220317Y46112D01*
X220336Y46174D01*
X220364Y46231D01*
X220375Y46301D01*
X220399Y46382D01*
X220400Y46467D01*
X220411Y46536D01*
X220411Y86997D01*
X220407Y87029D01*
X220409Y87061D01*
X220387Y87168D01*
X220371Y87276D01*
X220358Y87306D01*
X220352Y87337D01*
X220300Y87434D01*
X220255Y87533D01*
X220234Y87558D01*
X220219Y87586D01*
X220143Y87665D01*
X220072Y87748D01*
X220045Y87765D01*
X220022Y87788D01*
X219928Y87842D01*
X219836Y87902D01*
X219805Y87912D01*
X219777Y87927D01*
X219671Y87953D01*
X219566Y87984D01*
X219534Y87985D01*
X219503Y87992D01*
X219393Y87987D01*
X219284Y87988D01*
X219253Y87980D01*
X219221Y87978D01*
X219118Y87942D01*
X219012Y87913D01*
X218985Y87896D01*
X218954Y87885D01*
X218881Y87832D01*
X218772Y87765D01*
X218740Y87729D01*
X218705Y87704D01*
X218465Y87463D01*
X217088Y87463D01*
X216994Y87450D01*
X216897Y87445D01*
X216854Y87430D01*
X216809Y87423D01*
X216722Y87384D01*
X216631Y87352D01*
X216596Y87327D01*
X216552Y87307D01*
X216455Y87224D01*
X216382Y87171D01*
X201829Y72618D01*
X201772Y72541D01*
X201707Y72470D01*
X201687Y72429D01*
X201660Y72393D01*
X201626Y72302D01*
X201584Y72216D01*
X201578Y72174D01*
X201561Y72129D01*
X201551Y72001D01*
X201537Y71912D01*
X201537Y70535D01*
X199465Y68463D01*
X196535Y68463D01*
X194463Y70535D01*
X194463Y73465D01*
X196535Y75537D01*
X197912Y75537D01*
X198006Y75550D01*
X198103Y75555D01*
X198146Y75570D01*
X198191Y75577D01*
X198278Y75616D01*
X198369Y75648D01*
X198404Y75673D01*
X198448Y75693D01*
X198545Y75776D01*
X198618Y75829D01*
X213171Y90382D01*
X213228Y90459D01*
X213293Y90530D01*
X213313Y90571D01*
X213340Y90607D01*
X213374Y90698D01*
X213416Y90784D01*
X213422Y90826D01*
X213439Y90871D01*
X213449Y90999D01*
X213463Y91088D01*
X213463Y92465D01*
X215535Y94537D01*
X218465Y94537D01*
X218705Y94296D01*
X218731Y94277D01*
X218752Y94252D01*
X218844Y94192D01*
X218931Y94127D01*
X218961Y94116D01*
X218988Y94098D01*
X219093Y94066D01*
X219195Y94027D01*
X219227Y94025D01*
X219258Y94016D01*
X219367Y94014D01*
X219476Y94006D01*
X219508Y94012D01*
X219540Y94012D01*
X219645Y94041D01*
X219752Y94063D01*
X219781Y94078D01*
X219812Y94087D01*
X219905Y94144D01*
X220001Y94196D01*
X220024Y94218D01*
X220052Y94235D01*
X220125Y94316D01*
X220203Y94392D01*
X220219Y94420D01*
X220241Y94444D01*
X220288Y94543D01*
X220342Y94638D01*
X220350Y94669D01*
X220364Y94698D01*
X220378Y94788D01*
X220407Y94912D01*
X220405Y94961D01*
X220411Y95003D01*
X220411Y193964D01*
X220398Y194058D01*
X220393Y194155D01*
X220378Y194198D01*
X220371Y194243D01*
X220332Y194330D01*
X220300Y194421D01*
X220275Y194456D01*
X220255Y194500D01*
X220172Y194597D01*
X220119Y194670D01*
X210352Y204437D01*
X210275Y204494D01*
X210204Y204559D01*
X210163Y204579D01*
X210127Y204606D01*
X210036Y204640D01*
X209950Y204682D01*
X209908Y204688D01*
X209863Y204705D01*
X209735Y204715D01*
X209646Y204729D01*
X194145Y204729D01*
X194050Y204716D01*
X193954Y204711D01*
X193911Y204696D01*
X193866Y204689D01*
X193778Y204650D01*
X193687Y204618D01*
X193653Y204593D01*
X193609Y204573D01*
X193511Y204490D01*
X193438Y204437D01*
X192465Y203463D01*
X189535Y203463D01*
X187463Y205535D01*
X187463Y208465D01*
X189535Y210537D01*
X192465Y210537D01*
X193438Y209563D01*
X193515Y209506D01*
X193587Y209441D01*
X193627Y209421D01*
X193664Y209394D01*
X193754Y209360D01*
X193840Y209318D01*
X193882Y209312D01*
X193928Y209295D01*
X194055Y209285D01*
X194145Y209271D01*
X211941Y209271D01*
X221975Y199236D01*
X222001Y199217D01*
X222022Y199192D01*
X222114Y199132D01*
X222201Y199067D01*
X222231Y199055D01*
X222258Y199038D01*
X222363Y199006D01*
X222465Y198967D01*
X222497Y198965D01*
X222528Y198955D01*
X222637Y198954D01*
X222746Y198945D01*
X222778Y198952D01*
X222810Y198951D01*
X222915Y198981D01*
X223022Y199003D01*
X223051Y199018D01*
X223082Y199027D01*
X223175Y199084D01*
X223271Y199135D01*
X223294Y199158D01*
X223322Y199175D01*
X223395Y199256D01*
X223473Y199332D01*
X223489Y199360D01*
X223511Y199384D01*
X223558Y199482D01*
X223612Y199577D01*
X223620Y199609D01*
X223634Y199638D01*
X223648Y199727D01*
X223677Y199852D01*
X223675Y199900D01*
X223681Y199942D01*
X223681Y214206D01*
X223672Y214270D01*
X223673Y214334D01*
X223652Y214409D01*
X223641Y214485D01*
X223615Y214544D01*
X223598Y214606D01*
X223557Y214672D01*
X223525Y214742D01*
X223483Y214791D01*
X223450Y214846D01*
X223392Y214898D01*
X223342Y214956D01*
X223288Y214992D01*
X223240Y215035D01*
X223171Y215068D01*
X223106Y215111D01*
X223044Y215130D01*
X222987Y215158D01*
X222917Y215169D01*
X222836Y215193D01*
X222751Y215194D01*
X222682Y215205D01*
X149571Y215205D01*
X149477Y215192D01*
X149380Y215187D01*
X149337Y215172D01*
X149292Y215165D01*
X149205Y215126D01*
X149114Y215094D01*
X149079Y215069D01*
X149035Y215049D01*
X148938Y214966D01*
X148865Y214913D01*
X142147Y208195D01*
X142090Y208118D01*
X142025Y208047D01*
X142005Y208006D01*
X141978Y207970D01*
X141944Y207879D01*
X141902Y207793D01*
X141896Y207751D01*
X141879Y207706D01*
X141873Y207628D01*
X141867Y207609D01*
X141866Y207561D01*
X141855Y207489D01*
X141855Y185496D01*
X139925Y183567D01*
X134587Y178229D01*
X134530Y178152D01*
X134465Y178081D01*
X134445Y178040D01*
X134418Y178004D01*
X134384Y177914D01*
X134342Y177827D01*
X134336Y177785D01*
X134319Y177740D01*
X134311Y177646D01*
X134307Y177631D01*
X134306Y177596D01*
X134295Y177523D01*
X134295Y161270D01*
X134304Y161206D01*
X134303Y161142D01*
X134324Y161067D01*
X134335Y160991D01*
X134361Y160932D01*
X134378Y160870D01*
X134419Y160804D01*
X134451Y160734D01*
X134493Y160685D01*
X134526Y160630D01*
X134584Y160578D01*
X134634Y160520D01*
X134688Y160484D01*
X134736Y160441D01*
X134805Y160408D01*
X134870Y160365D01*
X134932Y160346D01*
X134989Y160318D01*
X135059Y160307D01*
X135140Y160283D01*
X135225Y160282D01*
X135294Y160271D01*
X138526Y160271D01*
X139271Y159526D01*
X139271Y142474D01*
X138526Y141729D01*
X124474Y141729D01*
X123729Y142474D01*
X123729Y147460D01*
X123720Y147524D01*
X123721Y147588D01*
X123700Y147663D01*
X123689Y147739D01*
X123663Y147798D01*
X123646Y147860D01*
X123605Y147926D01*
X123573Y147996D01*
X123531Y148045D01*
X123498Y148100D01*
X123440Y148152D01*
X123390Y148210D01*
X123336Y148246D01*
X123288Y148289D01*
X123219Y148322D01*
X123154Y148365D01*
X123092Y148384D01*
X123035Y148412D01*
X122965Y148423D01*
X122884Y148447D01*
X122799Y148448D01*
X122730Y148459D01*
X114270Y148459D01*
X114206Y148450D01*
X114142Y148451D01*
X114067Y148430D01*
X113991Y148419D01*
X113932Y148393D01*
X113870Y148376D01*
X113804Y148335D01*
X113734Y148303D01*
X113685Y148261D01*
X113630Y148228D01*
X113578Y148170D01*
X113520Y148120D01*
X113484Y148066D01*
X113441Y148018D01*
X113408Y147949D01*
X113365Y147884D01*
X113346Y147822D01*
X113318Y147765D01*
X113307Y147695D01*
X113283Y147614D01*
X113282Y147529D01*
X113271Y147460D01*
X113271Y142974D01*
X112526Y142229D01*
X109540Y142229D01*
X109476Y142220D01*
X109412Y142221D01*
X109337Y142200D01*
X109261Y142189D01*
X109202Y142163D01*
X109140Y142146D01*
X109074Y142105D01*
X109004Y142073D01*
X108955Y142031D01*
X108900Y141998D01*
X108848Y141940D01*
X108790Y141890D01*
X108754Y141836D01*
X108711Y141788D01*
X108678Y141719D01*
X108635Y141654D01*
X108616Y141592D01*
X108588Y141535D01*
X108577Y141465D01*
X108553Y141384D01*
X108552Y141299D01*
X108541Y141230D01*
X108541Y132948D01*
X103752Y128159D01*
X99918Y128159D01*
X99854Y128150D01*
X99790Y128151D01*
X99715Y128130D01*
X99639Y128119D01*
X99580Y128093D01*
X99518Y128076D01*
X99452Y128035D01*
X99382Y128003D01*
X99333Y127961D01*
X99278Y127928D01*
X99226Y127870D01*
X99168Y127820D01*
X99132Y127766D01*
X99089Y127718D01*
X99056Y127649D01*
X99013Y127584D01*
X98994Y127522D01*
X98966Y127465D01*
X98955Y127395D01*
X98931Y127314D01*
X98930Y127229D01*
X98919Y127160D01*
X98919Y127126D01*
X98174Y126381D01*
X74262Y126381D01*
X73517Y127126D01*
X73517Y134274D01*
X74262Y135019D01*
X98174Y135019D01*
X98919Y134274D01*
X98919Y134240D01*
X98928Y134176D01*
X98927Y134112D01*
X98948Y134037D01*
X98959Y133961D01*
X98985Y133902D01*
X99002Y133840D01*
X99043Y133774D01*
X99075Y133704D01*
X99117Y133655D01*
X99150Y133600D01*
X99208Y133548D01*
X99258Y133490D01*
X99312Y133454D01*
X99360Y133411D01*
X99429Y133378D01*
X99494Y133335D01*
X99556Y133316D01*
X99613Y133288D01*
X99683Y133277D01*
X99764Y133253D01*
X99849Y133252D01*
X99918Y133241D01*
X101234Y133241D01*
X101329Y133254D01*
X101425Y133259D01*
X101468Y133274D01*
X101513Y133281D01*
X101600Y133320D01*
X101691Y133352D01*
X101726Y133377D01*
X101770Y133397D01*
X101867Y133480D01*
X101940Y133533D01*
X103167Y134760D01*
X103224Y134837D01*
X103289Y134908D01*
X103309Y134949D01*
X103336Y134985D01*
X103370Y135075D01*
X103412Y135162D01*
X103418Y135204D01*
X103435Y135249D01*
X103442Y135338D01*
X103447Y135354D01*
X103448Y135393D01*
X103459Y135466D01*
X103459Y141230D01*
X103450Y141294D01*
X103451Y141358D01*
X103430Y141433D01*
X103419Y141509D01*
X103393Y141568D01*
X103376Y141630D01*
X103335Y141696D01*
X103303Y141766D01*
X103261Y141815D01*
X103228Y141870D01*
X103170Y141922D01*
X103120Y141980D01*
X103066Y142016D01*
X103018Y142059D01*
X102949Y142092D01*
X102884Y142135D01*
X102822Y142154D01*
X102765Y142182D01*
X102695Y142193D01*
X102614Y142217D01*
X102529Y142218D01*
X102460Y142229D01*
X98474Y142229D01*
X97729Y142974D01*
X97729Y159026D01*
X98474Y159771D01*
X112526Y159771D01*
X113271Y159026D01*
X113271Y154540D01*
X113280Y154476D01*
X113279Y154412D01*
X113300Y154337D01*
X113311Y154261D01*
X113337Y154202D01*
X113354Y154140D01*
X113395Y154074D01*
X113427Y154004D01*
X113469Y153955D01*
X113502Y153900D01*
X113560Y153848D01*
X113610Y153790D01*
X113664Y153754D01*
X113712Y153711D01*
X113781Y153678D01*
X113846Y153635D01*
X113908Y153616D01*
X113965Y153588D01*
X114035Y153577D01*
X114116Y153553D01*
X114201Y153552D01*
X114270Y153541D01*
X122730Y153541D01*
X122794Y153550D01*
X122858Y153549D01*
X122933Y153570D01*
X123009Y153581D01*
X123068Y153607D01*
X123130Y153624D01*
X123196Y153665D01*
X123266Y153697D01*
X123315Y153739D01*
X123370Y153772D01*
X123422Y153830D01*
X123480Y153880D01*
X123516Y153934D01*
X123559Y153982D01*
X123592Y154051D01*
X123635Y154116D01*
X123654Y154178D01*
X123682Y154235D01*
X123693Y154305D01*
X123717Y154386D01*
X123718Y154471D01*
X123729Y154540D01*
X123729Y159526D01*
X124474Y160271D01*
X127706Y160271D01*
X127770Y160280D01*
X127834Y160279D01*
X127909Y160300D01*
X127985Y160311D01*
X128044Y160337D01*
X128106Y160354D01*
X128172Y160395D01*
X128242Y160427D01*
X128291Y160469D01*
X128346Y160502D01*
X128398Y160560D01*
X128456Y160610D01*
X128492Y160664D01*
X128535Y160712D01*
X128568Y160781D01*
X128611Y160846D01*
X128630Y160908D01*
X128658Y160965D01*
X128669Y161035D01*
X128693Y161116D01*
X128694Y161201D01*
X128705Y161270D01*
X128705Y180252D01*
X130635Y182181D01*
X135973Y187519D01*
X136030Y187596D01*
X136095Y187667D01*
X136115Y187708D01*
X136142Y187745D01*
X136176Y187835D01*
X136218Y187921D01*
X136224Y187963D01*
X136241Y188008D01*
X136251Y188136D01*
X136265Y188226D01*
X136265Y210218D01*
X138195Y212147D01*
X144913Y218865D01*
X146842Y220795D01*
X222682Y220795D01*
X222746Y220804D01*
X222810Y220803D01*
X222885Y220824D01*
X222961Y220835D01*
X223020Y220861D01*
X223082Y220878D01*
X223148Y220919D01*
X223218Y220951D01*
X223267Y220993D01*
X223322Y221026D01*
X223374Y221084D01*
X223432Y221134D01*
X223468Y221188D01*
X223511Y221236D01*
X223544Y221305D01*
X223587Y221370D01*
X223606Y221432D01*
X223634Y221489D01*
X223645Y221559D01*
X223669Y221640D01*
X223670Y221725D01*
X223681Y221794D01*
X223681Y252483D01*
X223673Y252541D01*
X223673Y252549D01*
X223671Y252557D01*
X223668Y252578D01*
X223663Y252674D01*
X223648Y252717D01*
X223641Y252762D01*
X223602Y252850D01*
X223570Y252941D01*
X223545Y252975D01*
X223525Y253019D01*
X223442Y253117D01*
X223389Y253190D01*
X223157Y253422D01*
X223105Y253460D01*
X223060Y253506D01*
X222993Y253545D01*
X222931Y253591D01*
X222871Y253614D01*
X222815Y253645D01*
X222740Y253663D01*
X222667Y253691D01*
X222603Y253695D01*
X222540Y253710D01*
X222463Y253706D01*
X222386Y253712D01*
X222323Y253699D01*
X222259Y253696D01*
X222186Y253671D01*
X222110Y253655D01*
X222053Y253625D01*
X221992Y253603D01*
X221936Y253562D01*
X221861Y253522D01*
X221800Y253463D01*
X221743Y253422D01*
X219794Y251472D01*
X217397Y250479D01*
X214803Y250479D01*
X212406Y251472D01*
X210457Y253422D01*
X210405Y253460D01*
X210360Y253506D01*
X210293Y253545D01*
X210231Y253591D01*
X210171Y253614D01*
X210115Y253645D01*
X210040Y253663D01*
X209967Y253691D01*
X209903Y253695D01*
X209840Y253710D01*
X209763Y253706D01*
X209686Y253712D01*
X209623Y253699D01*
X209559Y253696D01*
X209486Y253671D01*
X209410Y253655D01*
X209353Y253625D01*
X209292Y253603D01*
X209236Y253562D01*
X209161Y253522D01*
X209100Y253463D01*
X209043Y253422D01*
X207094Y251472D01*
X204697Y250479D01*
X202103Y250479D01*
X199706Y251472D01*
X197757Y253422D01*
X197705Y253460D01*
X197660Y253506D01*
X197593Y253545D01*
X197531Y253591D01*
X197471Y253614D01*
X197415Y253645D01*
X197340Y253663D01*
X197267Y253691D01*
X197203Y253695D01*
X197140Y253710D01*
X197063Y253706D01*
X196986Y253712D01*
X196923Y253699D01*
X196859Y253696D01*
X196786Y253671D01*
X196710Y253655D01*
X196653Y253625D01*
X196592Y253603D01*
X196536Y253562D01*
X196461Y253522D01*
X196400Y253463D01*
X196343Y253422D01*
X194394Y251472D01*
X191997Y250479D01*
X189403Y250479D01*
X187006Y251472D01*
X185057Y253422D01*
X185005Y253460D01*
X184960Y253506D01*
X184893Y253545D01*
X184831Y253591D01*
X184771Y253614D01*
X184715Y253645D01*
X184640Y253663D01*
X184567Y253691D01*
X184503Y253695D01*
X184441Y253710D01*
X184363Y253706D01*
X184286Y253712D01*
X184223Y253699D01*
X184159Y253696D01*
X184086Y253670D01*
X184010Y253655D01*
X183953Y253625D01*
X183892Y253603D01*
X183836Y253562D01*
X183761Y253522D01*
X183700Y253463D01*
X183643Y253422D01*
X181694Y251472D01*
X179297Y250479D01*
X176703Y250479D01*
X174306Y251472D01*
X172357Y253422D01*
X172305Y253460D01*
X172260Y253506D01*
X172193Y253545D01*
X172131Y253591D01*
X172071Y253614D01*
X172015Y253645D01*
X171940Y253663D01*
X171867Y253691D01*
X171803Y253695D01*
X171741Y253710D01*
X171663Y253706D01*
X171586Y253712D01*
X171523Y253699D01*
X171459Y253696D01*
X171386Y253670D01*
X171310Y253655D01*
X171253Y253625D01*
X171192Y253603D01*
X171136Y253562D01*
X171061Y253522D01*
X171000Y253463D01*
X170943Y253422D01*
X168994Y251472D01*
X166597Y250479D01*
X164003Y250479D01*
X161606Y251472D01*
X159657Y253422D01*
X159605Y253460D01*
X159560Y253506D01*
X159493Y253545D01*
X159431Y253591D01*
X159371Y253614D01*
X159315Y253645D01*
X159240Y253663D01*
X159167Y253691D01*
X159103Y253695D01*
X159040Y253710D01*
X158963Y253706D01*
X158886Y253712D01*
X158823Y253699D01*
X158759Y253696D01*
X158686Y253671D01*
X158610Y253655D01*
X158553Y253625D01*
X158492Y253603D01*
X158436Y253562D01*
X158361Y253522D01*
X158300Y253463D01*
X158243Y253422D01*
X156294Y251472D01*
X153897Y250479D01*
X151303Y250479D01*
X148906Y251472D01*
X146957Y253422D01*
X146905Y253460D01*
X146860Y253506D01*
X146793Y253545D01*
X146731Y253591D01*
X146671Y253614D01*
X146615Y253645D01*
X146540Y253663D01*
X146467Y253691D01*
X146403Y253695D01*
X146341Y253710D01*
X146263Y253706D01*
X146186Y253712D01*
X146123Y253699D01*
X146059Y253696D01*
X145986Y253670D01*
X145910Y253655D01*
X145853Y253625D01*
X145792Y253603D01*
X145736Y253562D01*
X145661Y253522D01*
X145600Y253463D01*
X145543Y253422D01*
X143594Y251472D01*
X141197Y250479D01*
X138603Y250479D01*
X136206Y251472D01*
X134257Y253422D01*
X134205Y253460D01*
X134160Y253506D01*
X134093Y253545D01*
X134031Y253591D01*
X133971Y253614D01*
X133915Y253645D01*
X133840Y253663D01*
X133767Y253691D01*
X133703Y253695D01*
X133641Y253710D01*
X133563Y253706D01*
X133486Y253712D01*
X133423Y253699D01*
X133359Y253696D01*
X133286Y253670D01*
X133210Y253655D01*
X133153Y253625D01*
X133092Y253603D01*
X133036Y253562D01*
X132961Y253522D01*
X132900Y253463D01*
X132843Y253422D01*
X130894Y251472D01*
X128497Y250479D01*
X125903Y250479D01*
X123506Y251472D01*
X121557Y253422D01*
X121505Y253460D01*
X121460Y253506D01*
X121393Y253545D01*
X121331Y253591D01*
X121271Y253614D01*
X121215Y253645D01*
X121140Y253663D01*
X121067Y253691D01*
X121003Y253695D01*
X120941Y253710D01*
X120863Y253706D01*
X120786Y253712D01*
X120723Y253699D01*
X120659Y253696D01*
X120586Y253670D01*
X120510Y253655D01*
X120453Y253625D01*
X120392Y253603D01*
X120336Y253562D01*
X120261Y253522D01*
X120200Y253463D01*
X120143Y253422D01*
X118194Y251472D01*
X115797Y250479D01*
X113203Y250479D01*
X110806Y251472D01*
X108857Y253422D01*
X108805Y253460D01*
X108760Y253506D01*
X108693Y253545D01*
X108631Y253591D01*
X108571Y253614D01*
X108515Y253645D01*
X108440Y253663D01*
X108367Y253691D01*
X108303Y253695D01*
X108241Y253710D01*
X108163Y253706D01*
X108086Y253712D01*
X108023Y253699D01*
X107959Y253696D01*
X107886Y253670D01*
X107810Y253655D01*
X107753Y253625D01*
X107692Y253603D01*
X107636Y253562D01*
X107561Y253522D01*
X107500Y253463D01*
X107443Y253422D01*
X105494Y251472D01*
X103097Y250479D01*
X100503Y250479D01*
X98106Y251472D01*
X96272Y253306D01*
X95938Y254112D01*
X95933Y254121D01*
X95931Y254130D01*
X95861Y254242D01*
X95795Y254355D01*
X95788Y254362D01*
X95783Y254370D01*
X95685Y254458D01*
X95589Y254548D01*
X95580Y254552D01*
X95573Y254559D01*
X95454Y254616D01*
X95337Y254676D01*
X95328Y254678D01*
X95320Y254682D01*
X95243Y254694D01*
X95060Y254728D01*
X95036Y254726D01*
X95015Y254729D01*
X29354Y254729D01*
X29260Y254716D01*
X29163Y254711D01*
X29120Y254696D01*
X29075Y254689D01*
X28988Y254650D01*
X28897Y254618D01*
X28862Y254593D01*
X28818Y254573D01*
X28721Y254490D01*
X28648Y254437D01*
X21563Y247352D01*
X21506Y247275D01*
X21441Y247204D01*
X21421Y247163D01*
X21394Y247127D01*
X21360Y247036D01*
X21318Y246950D01*
X21312Y246908D01*
X21295Y246863D01*
X21285Y246735D01*
X21271Y246646D01*
X21271Y244145D01*
X21284Y244050D01*
X21289Y243954D01*
X21304Y243911D01*
X21311Y243866D01*
X21350Y243778D01*
X21382Y243687D01*
X21407Y243653D01*
X21427Y243609D01*
X21510Y243511D01*
X21563Y243438D01*
X22537Y242465D01*
X22537Y239535D01*
X20465Y237463D01*
X17535Y237463D01*
X15463Y239535D01*
X15463Y242465D01*
X16437Y243438D01*
X16494Y243515D01*
X16559Y243587D01*
X16579Y243627D01*
X16606Y243664D01*
X16640Y243754D01*
X16682Y243840D01*
X16688Y243882D01*
X16705Y243928D01*
X16715Y244055D01*
X16729Y244145D01*
X16729Y248941D01*
X27059Y259271D01*
X95015Y259271D01*
X95024Y259272D01*
X95034Y259271D01*
X95164Y259292D01*
X95294Y259311D01*
X95303Y259314D01*
X95312Y259316D01*
X95431Y259373D01*
X95551Y259427D01*
X95558Y259433D01*
X95567Y259437D01*
X95665Y259524D01*
X95765Y259610D01*
X95771Y259618D01*
X95778Y259624D01*
X95818Y259690D01*
X95920Y259846D01*
X95927Y259869D01*
X95938Y259888D01*
X96272Y260694D01*
X96291Y260719D01*
X96316Y260740D01*
X96376Y260832D01*
X96441Y260919D01*
X96452Y260949D01*
X96470Y260976D01*
X96502Y261081D01*
X96541Y261183D01*
X96543Y261215D01*
X96552Y261246D01*
X96554Y261355D01*
X96562Y261464D01*
X96556Y261496D01*
X96556Y261528D01*
X96527Y261633D01*
X96505Y261740D01*
X96490Y261769D01*
X96481Y261800D01*
X96424Y261893D01*
X96372Y261989D01*
X96350Y262012D01*
X96333Y262040D01*
X96252Y262113D01*
X96176Y262191D01*
X96147Y262207D01*
X96124Y262229D01*
X96025Y262276D01*
X95930Y262330D01*
X95899Y262338D01*
X95870Y262352D01*
X95780Y262366D01*
X95656Y262395D01*
X95607Y262393D01*
X95565Y262399D01*
X8850Y262399D01*
X8786Y262390D01*
X8722Y262391D01*
X8647Y262370D01*
X8571Y262359D01*
X8512Y262333D01*
X8450Y262316D01*
X8384Y262275D01*
X8314Y262243D01*
X8265Y262201D01*
X8210Y262168D01*
X8158Y262110D01*
X8100Y262060D01*
X8064Y262006D01*
X8021Y261958D01*
X7988Y261889D01*
X7945Y261824D01*
X7926Y261762D01*
X7898Y261705D01*
X7887Y261635D01*
X7863Y261554D01*
X7862Y261469D01*
X7851Y261400D01*
X7851Y55000D01*
X7860Y54936D01*
X7859Y54872D01*
X7880Y54797D01*
X7891Y54721D01*
X7917Y54662D01*
X7934Y54600D01*
X7975Y54534D01*
X8007Y54464D01*
X8049Y54415D01*
X8082Y54360D01*
X8140Y54308D01*
X8190Y54250D01*
X8244Y54214D01*
X8292Y54171D01*
X8361Y54138D01*
X8426Y54095D01*
X8488Y54076D01*
X8545Y54048D01*
X8615Y54037D01*
X8696Y54013D01*
X8781Y54012D01*
X8850Y54001D01*
X51937Y54001D01*
X51078Y13621D01*
X51087Y13547D01*
X51086Y13472D01*
X51103Y13408D01*
X51111Y13341D01*
X51141Y13272D01*
X51161Y13200D01*
X51196Y13143D01*
X51222Y13082D01*
X51270Y13024D01*
X51309Y12960D01*
X51359Y12915D01*
X51401Y12864D01*
X51463Y12821D01*
X51518Y12771D01*
X51578Y12742D01*
X51634Y12704D01*
X51705Y12681D01*
X51772Y12648D01*
X51833Y12639D01*
X51901Y12616D01*
X51999Y12613D01*
X52077Y12601D01*
X276000Y12601D01*
X276064Y12610D01*
G37*
G36*
X433244Y12605D02*
X433244Y12605D01*
X433276Y12603D01*
X433383Y12625D01*
X433491Y12641D01*
X433520Y12654D01*
X433552Y12660D01*
X433648Y12712D01*
X433748Y12757D01*
X433772Y12778D01*
X433801Y12793D01*
X433879Y12869D01*
X433962Y12940D01*
X433980Y12967D01*
X434003Y12990D01*
X434057Y13085D01*
X434117Y13176D01*
X434126Y13207D01*
X434142Y13235D01*
X434167Y13341D01*
X434199Y13446D01*
X434199Y13478D01*
X434207Y13509D01*
X434201Y13619D01*
X434203Y13728D01*
X434194Y13759D01*
X434192Y13791D01*
X434157Y13894D01*
X434127Y14000D01*
X434110Y14027D01*
X434100Y14058D01*
X434047Y14131D01*
X433979Y14240D01*
X433943Y14272D01*
X433918Y14307D01*
X433060Y15165D01*
X432029Y17653D01*
X432029Y20347D01*
X433060Y22835D01*
X434965Y24740D01*
X437453Y25771D01*
X440147Y25771D01*
X442635Y24740D01*
X444443Y22932D01*
X444495Y22893D01*
X444540Y22847D01*
X444607Y22809D01*
X444669Y22763D01*
X444729Y22740D01*
X444785Y22708D01*
X444860Y22690D01*
X444933Y22663D01*
X444997Y22658D01*
X445060Y22643D01*
X445137Y22647D01*
X445214Y22641D01*
X445277Y22654D01*
X445341Y22658D01*
X445414Y22683D01*
X445490Y22699D01*
X445547Y22729D01*
X445608Y22750D01*
X445664Y22791D01*
X445739Y22831D01*
X445800Y22890D01*
X445857Y22932D01*
X447665Y24740D01*
X450153Y25771D01*
X452847Y25771D01*
X455335Y24740D01*
X457143Y22932D01*
X457195Y22893D01*
X457240Y22847D01*
X457307Y22809D01*
X457369Y22763D01*
X457429Y22740D01*
X457485Y22708D01*
X457560Y22690D01*
X457633Y22663D01*
X457697Y22658D01*
X457760Y22643D01*
X457837Y22647D01*
X457914Y22641D01*
X457977Y22654D01*
X458041Y22658D01*
X458114Y22683D01*
X458190Y22699D01*
X458247Y22729D01*
X458308Y22750D01*
X458364Y22791D01*
X458439Y22831D01*
X458500Y22890D01*
X458557Y22932D01*
X460365Y24740D01*
X462853Y25771D01*
X465547Y25771D01*
X468035Y24740D01*
X469843Y22932D01*
X469895Y22893D01*
X469940Y22847D01*
X470007Y22809D01*
X470069Y22763D01*
X470129Y22740D01*
X470185Y22708D01*
X470260Y22690D01*
X470333Y22663D01*
X470397Y22658D01*
X470459Y22643D01*
X470537Y22647D01*
X470614Y22641D01*
X470677Y22654D01*
X470741Y22658D01*
X470814Y22683D01*
X470890Y22699D01*
X470947Y22729D01*
X471008Y22750D01*
X471064Y22791D01*
X471139Y22831D01*
X471200Y22891D01*
X471257Y22932D01*
X473065Y24740D01*
X475553Y25771D01*
X478247Y25771D01*
X480735Y24740D01*
X482543Y22932D01*
X482595Y22893D01*
X482640Y22847D01*
X482707Y22809D01*
X482769Y22763D01*
X482829Y22740D01*
X482885Y22708D01*
X482960Y22690D01*
X483033Y22663D01*
X483097Y22658D01*
X483159Y22643D01*
X483237Y22647D01*
X483314Y22641D01*
X483377Y22654D01*
X483441Y22658D01*
X483514Y22683D01*
X483590Y22699D01*
X483647Y22729D01*
X483708Y22750D01*
X483764Y22791D01*
X483839Y22831D01*
X483900Y22891D01*
X483957Y22932D01*
X485765Y24740D01*
X488253Y25771D01*
X490947Y25771D01*
X493435Y24740D01*
X495243Y22932D01*
X495295Y22893D01*
X495340Y22847D01*
X495407Y22809D01*
X495469Y22763D01*
X495529Y22740D01*
X495585Y22708D01*
X495660Y22690D01*
X495733Y22663D01*
X495797Y22658D01*
X495859Y22643D01*
X495937Y22647D01*
X496014Y22641D01*
X496077Y22654D01*
X496141Y22658D01*
X496214Y22683D01*
X496290Y22699D01*
X496347Y22729D01*
X496408Y22750D01*
X496464Y22791D01*
X496539Y22831D01*
X496600Y22891D01*
X496657Y22932D01*
X497689Y23964D01*
X497746Y24041D01*
X497811Y24112D01*
X497831Y24153D01*
X497858Y24189D01*
X497892Y24279D01*
X497934Y24366D01*
X497940Y24408D01*
X497957Y24453D01*
X497967Y24581D01*
X497981Y24670D01*
X497981Y28497D01*
X497968Y28592D01*
X497963Y28688D01*
X497948Y28731D01*
X497941Y28776D01*
X497902Y28864D01*
X497870Y28955D01*
X497845Y28989D01*
X497825Y29033D01*
X497742Y29131D01*
X497689Y29204D01*
X462504Y64389D01*
X462427Y64446D01*
X462356Y64511D01*
X462315Y64531D01*
X462278Y64558D01*
X462188Y64592D01*
X462102Y64634D01*
X462060Y64640D01*
X462014Y64657D01*
X461887Y64667D01*
X461797Y64681D01*
X271866Y64681D01*
X271780Y64669D01*
X271693Y64666D01*
X271641Y64649D01*
X271587Y64641D01*
X271508Y64606D01*
X271425Y64579D01*
X271380Y64548D01*
X271330Y64525D01*
X271264Y64469D01*
X271192Y64420D01*
X271157Y64378D01*
X271116Y64342D01*
X271068Y64269D01*
X271013Y64202D01*
X270991Y64152D01*
X270961Y64106D01*
X270936Y64023D01*
X270902Y63943D01*
X270895Y63889D01*
X270879Y63836D01*
X270878Y63749D01*
X270867Y63663D01*
X270876Y63609D01*
X270875Y63554D01*
X270898Y63470D01*
X270912Y63385D01*
X270936Y63335D01*
X270950Y63282D01*
X270996Y63208D01*
X271033Y63130D01*
X271070Y63089D01*
X271098Y63042D01*
X271163Y62984D01*
X271221Y62919D01*
X271264Y62893D01*
X271308Y62853D01*
X271410Y62804D01*
X271484Y62759D01*
X275119Y61253D01*
X278903Y57469D01*
X280951Y52526D01*
X280951Y49000D01*
X280960Y48936D01*
X280959Y48872D01*
X280980Y48797D01*
X280991Y48721D01*
X281017Y48662D01*
X281034Y48600D01*
X281075Y48534D01*
X281107Y48464D01*
X281149Y48415D01*
X281182Y48360D01*
X281240Y48308D01*
X281290Y48250D01*
X281344Y48214D01*
X281392Y48171D01*
X281461Y48138D01*
X281526Y48095D01*
X281588Y48076D01*
X281645Y48048D01*
X281715Y48037D01*
X281796Y48013D01*
X281881Y48012D01*
X281950Y48001D01*
X344001Y48001D01*
X344001Y13600D01*
X344010Y13536D01*
X344009Y13472D01*
X344030Y13397D01*
X344041Y13321D01*
X344067Y13262D01*
X344084Y13200D01*
X344125Y13134D01*
X344157Y13064D01*
X344199Y13015D01*
X344232Y12960D01*
X344290Y12908D01*
X344340Y12850D01*
X344394Y12814D01*
X344442Y12771D01*
X344511Y12738D01*
X344576Y12695D01*
X344638Y12676D01*
X344695Y12648D01*
X344765Y12637D01*
X344846Y12613D01*
X344931Y12612D01*
X345000Y12601D01*
X433212Y12601D01*
X433244Y12605D01*
G37*
%LPC*%
G36*
X112535Y63463D02*
X112535Y63463D01*
X110463Y65535D01*
X110463Y68730D01*
X110454Y68794D01*
X110455Y68858D01*
X110434Y68933D01*
X110423Y69009D01*
X110397Y69068D01*
X110380Y69130D01*
X110339Y69196D01*
X110307Y69266D01*
X110265Y69315D01*
X110232Y69370D01*
X110174Y69422D01*
X110124Y69480D01*
X110070Y69516D01*
X110022Y69559D01*
X109953Y69592D01*
X109888Y69635D01*
X109826Y69654D01*
X109769Y69682D01*
X109699Y69693D01*
X109618Y69717D01*
X109533Y69718D01*
X109464Y69729D01*
X106354Y69729D01*
X106260Y69716D01*
X106163Y69711D01*
X106120Y69696D01*
X106075Y69689D01*
X105988Y69650D01*
X105897Y69618D01*
X105862Y69593D01*
X105818Y69573D01*
X105721Y69490D01*
X105648Y69437D01*
X104829Y68618D01*
X104772Y68541D01*
X104707Y68470D01*
X104687Y68429D01*
X104660Y68393D01*
X104626Y68302D01*
X104584Y68216D01*
X104578Y68174D01*
X104561Y68129D01*
X104551Y68001D01*
X104537Y67912D01*
X104537Y66535D01*
X102465Y64463D01*
X99535Y64463D01*
X97463Y66535D01*
X97463Y69465D01*
X99535Y71537D01*
X100912Y71537D01*
X101006Y71550D01*
X101103Y71555D01*
X101146Y71570D01*
X101191Y71577D01*
X101278Y71616D01*
X101369Y71648D01*
X101404Y71673D01*
X101448Y71693D01*
X101545Y71776D01*
X101618Y71829D01*
X104059Y74271D01*
X121646Y74271D01*
X121740Y74284D01*
X121837Y74289D01*
X121880Y74304D01*
X121925Y74311D01*
X122012Y74350D01*
X122103Y74382D01*
X122138Y74407D01*
X122182Y74427D01*
X122279Y74510D01*
X122352Y74563D01*
X123437Y75648D01*
X123494Y75725D01*
X123559Y75796D01*
X123579Y75837D01*
X123606Y75873D01*
X123640Y75964D01*
X123682Y76050D01*
X123688Y76092D01*
X123705Y76137D01*
X123715Y76265D01*
X123729Y76354D01*
X123729Y119941D01*
X136059Y132271D01*
X140082Y132271D01*
X140146Y132280D01*
X140210Y132279D01*
X140285Y132300D01*
X140361Y132311D01*
X140420Y132337D01*
X140482Y132354D01*
X140548Y132395D01*
X140618Y132427D01*
X140667Y132469D01*
X140722Y132502D01*
X140774Y132560D01*
X140832Y132610D01*
X140868Y132664D01*
X140911Y132712D01*
X140944Y132781D01*
X140987Y132846D01*
X141006Y132908D01*
X141034Y132965D01*
X141045Y133035D01*
X141069Y133116D01*
X141070Y133201D01*
X141081Y133270D01*
X141081Y134274D01*
X141826Y135019D01*
X148730Y135019D01*
X148794Y135028D01*
X148858Y135027D01*
X148933Y135048D01*
X149009Y135059D01*
X149068Y135085D01*
X149130Y135102D01*
X149196Y135143D01*
X149266Y135175D01*
X149315Y135217D01*
X149370Y135250D01*
X149422Y135308D01*
X149480Y135358D01*
X149516Y135412D01*
X149559Y135460D01*
X149592Y135529D01*
X149635Y135594D01*
X149654Y135656D01*
X149682Y135713D01*
X149693Y135783D01*
X149717Y135864D01*
X149718Y135949D01*
X149729Y136018D01*
X149729Y140730D01*
X149720Y140794D01*
X149721Y140858D01*
X149700Y140933D01*
X149689Y141009D01*
X149663Y141068D01*
X149646Y141130D01*
X149605Y141196D01*
X149573Y141266D01*
X149531Y141315D01*
X149498Y141370D01*
X149440Y141422D01*
X149390Y141480D01*
X149336Y141516D01*
X149288Y141559D01*
X149219Y141592D01*
X149154Y141635D01*
X149092Y141654D01*
X149035Y141682D01*
X148965Y141693D01*
X148884Y141717D01*
X148799Y141718D01*
X148730Y141729D01*
X143474Y141729D01*
X142729Y142474D01*
X142729Y159526D01*
X143474Y160271D01*
X157526Y160271D01*
X158271Y159526D01*
X158271Y142474D01*
X157526Y141729D01*
X155270Y141729D01*
X155206Y141720D01*
X155142Y141721D01*
X155067Y141700D01*
X154991Y141689D01*
X154932Y141663D01*
X154870Y141646D01*
X154804Y141605D01*
X154734Y141573D01*
X154685Y141531D01*
X154630Y141498D01*
X154578Y141440D01*
X154520Y141390D01*
X154484Y141336D01*
X154441Y141288D01*
X154408Y141219D01*
X154365Y141154D01*
X154346Y141092D01*
X154318Y141035D01*
X154307Y140965D01*
X154283Y140884D01*
X154282Y140799D01*
X154271Y140730D01*
X154271Y136018D01*
X154280Y135954D01*
X154279Y135890D01*
X154300Y135815D01*
X154311Y135739D01*
X154337Y135680D01*
X154354Y135618D01*
X154395Y135552D01*
X154427Y135482D01*
X154469Y135433D01*
X154502Y135378D01*
X154560Y135326D01*
X154610Y135268D01*
X154664Y135232D01*
X154712Y135189D01*
X154781Y135156D01*
X154846Y135113D01*
X154908Y135094D01*
X154965Y135066D01*
X155035Y135055D01*
X155116Y135031D01*
X155201Y135030D01*
X155270Y135019D01*
X165738Y135019D01*
X166483Y134274D01*
X166483Y127126D01*
X165738Y126381D01*
X141826Y126381D01*
X140870Y127337D01*
X140850Y127370D01*
X140792Y127422D01*
X140742Y127480D01*
X140688Y127516D01*
X140640Y127559D01*
X140571Y127592D01*
X140506Y127635D01*
X140444Y127654D01*
X140387Y127682D01*
X140317Y127693D01*
X140236Y127717D01*
X140151Y127718D01*
X140082Y127729D01*
X138354Y127729D01*
X138260Y127716D01*
X138163Y127711D01*
X138120Y127696D01*
X138075Y127689D01*
X137988Y127650D01*
X137897Y127618D01*
X137862Y127593D01*
X137818Y127573D01*
X137721Y127490D01*
X137648Y127437D01*
X128563Y118352D01*
X128506Y118275D01*
X128441Y118204D01*
X128421Y118163D01*
X128394Y118127D01*
X128360Y118036D01*
X128318Y117950D01*
X128312Y117908D01*
X128295Y117863D01*
X128285Y117735D01*
X128271Y117646D01*
X128271Y116894D01*
X128275Y116862D01*
X128273Y116830D01*
X128295Y116723D01*
X128311Y116615D01*
X128324Y116586D01*
X128330Y116554D01*
X128382Y116458D01*
X128427Y116358D01*
X128448Y116334D01*
X128463Y116305D01*
X128539Y116227D01*
X128610Y116144D01*
X128637Y116126D01*
X128660Y116103D01*
X128755Y116049D01*
X128846Y115990D01*
X128877Y115980D01*
X128905Y115964D01*
X129011Y115939D01*
X129116Y115907D01*
X129148Y115907D01*
X129179Y115899D01*
X129289Y115905D01*
X129398Y115903D01*
X129429Y115912D01*
X129461Y115914D01*
X129564Y115949D01*
X129670Y115979D01*
X129697Y115996D01*
X129728Y116006D01*
X129801Y116059D01*
X129910Y116127D01*
X129942Y116163D01*
X129977Y116188D01*
X132437Y118648D01*
X134059Y120271D01*
X140082Y120271D01*
X140146Y120280D01*
X140210Y120279D01*
X140285Y120300D01*
X140361Y120311D01*
X140420Y120337D01*
X140482Y120354D01*
X140548Y120395D01*
X140618Y120427D01*
X140667Y120469D01*
X140722Y120502D01*
X140774Y120560D01*
X140832Y120610D01*
X140868Y120664D01*
X140911Y120712D01*
X140944Y120781D01*
X140987Y120846D01*
X141006Y120908D01*
X141034Y120965D01*
X141045Y121035D01*
X141069Y121116D01*
X141070Y121201D01*
X141081Y121270D01*
X141081Y121574D01*
X141826Y122319D01*
X165738Y122319D01*
X166483Y121574D01*
X166483Y114426D01*
X165738Y113681D01*
X141826Y113681D01*
X141081Y114426D01*
X141081Y114730D01*
X141072Y114794D01*
X141073Y114858D01*
X141052Y114933D01*
X141041Y115009D01*
X141015Y115068D01*
X140998Y115130D01*
X140957Y115196D01*
X140925Y115266D01*
X140883Y115315D01*
X140850Y115370D01*
X140792Y115422D01*
X140742Y115480D01*
X140688Y115516D01*
X140640Y115559D01*
X140571Y115592D01*
X140506Y115635D01*
X140444Y115654D01*
X140387Y115682D01*
X140317Y115693D01*
X140236Y115717D01*
X140151Y115718D01*
X140082Y115729D01*
X136354Y115729D01*
X136260Y115716D01*
X136163Y115711D01*
X136120Y115696D01*
X136075Y115689D01*
X135988Y115650D01*
X135897Y115618D01*
X135862Y115593D01*
X135818Y115573D01*
X135721Y115490D01*
X135648Y115437D01*
X131833Y111622D01*
X131776Y111545D01*
X131711Y111474D01*
X131691Y111433D01*
X131664Y111397D01*
X131630Y111306D01*
X131588Y111220D01*
X131582Y111178D01*
X131565Y111133D01*
X131555Y111005D01*
X131541Y110916D01*
X131541Y72705D01*
X123565Y64729D01*
X117145Y64729D01*
X117050Y64716D01*
X116954Y64711D01*
X116911Y64696D01*
X116866Y64689D01*
X116778Y64650D01*
X116687Y64618D01*
X116653Y64593D01*
X116609Y64573D01*
X116511Y64490D01*
X116438Y64437D01*
X115465Y63463D01*
X112535Y63463D01*
G37*
%LPD*%
%LPC*%
G36*
X264824Y211699D02*
X264824Y211699D01*
X259881Y213747D01*
X256097Y217531D01*
X254049Y222474D01*
X254049Y227826D01*
X256097Y232769D01*
X259881Y236553D01*
X264824Y238601D01*
X270176Y238601D01*
X275119Y236553D01*
X278903Y232769D01*
X280951Y227826D01*
X280951Y222474D01*
X278903Y217531D01*
X275119Y213747D01*
X270176Y211699D01*
X264824Y211699D01*
G37*
%LPD*%
%LPC*%
G36*
X503853Y190204D02*
X503853Y190204D01*
X499885Y191848D01*
X496848Y194885D01*
X495204Y198853D01*
X495204Y203147D01*
X496848Y207115D01*
X499885Y210152D01*
X503853Y211796D01*
X508147Y211796D01*
X512115Y210152D01*
X515152Y207115D01*
X516796Y203147D01*
X516796Y198853D01*
X515152Y194885D01*
X512115Y191848D01*
X508147Y190204D01*
X503853Y190204D01*
G37*
%LPD*%
%LPC*%
G36*
X102535Y99463D02*
X102535Y99463D01*
X100302Y101696D01*
X100251Y101735D01*
X100206Y101781D01*
X100139Y101819D01*
X100077Y101865D01*
X100017Y101888D01*
X99961Y101920D01*
X99885Y101938D01*
X99813Y101965D01*
X99749Y101970D01*
X99686Y101985D01*
X99609Y101981D01*
X99532Y101987D01*
X99469Y101974D01*
X99405Y101970D01*
X99331Y101945D01*
X99256Y101929D01*
X99199Y101899D01*
X99138Y101878D01*
X99081Y101836D01*
X99007Y101797D01*
X98946Y101737D01*
X98889Y101696D01*
X98174Y100981D01*
X74262Y100981D01*
X73517Y101726D01*
X73517Y108874D01*
X74262Y109619D01*
X98174Y109619D01*
X98919Y108874D01*
X98919Y108570D01*
X98928Y108506D01*
X98927Y108442D01*
X98948Y108367D01*
X98959Y108291D01*
X98985Y108232D01*
X99002Y108170D01*
X99043Y108104D01*
X99075Y108034D01*
X99117Y107985D01*
X99150Y107930D01*
X99208Y107878D01*
X99258Y107820D01*
X99312Y107784D01*
X99360Y107741D01*
X99429Y107708D01*
X99494Y107665D01*
X99556Y107646D01*
X99613Y107618D01*
X99683Y107607D01*
X99764Y107583D01*
X99849Y107582D01*
X99918Y107571D01*
X102641Y107571D01*
X103382Y106829D01*
X103459Y106772D01*
X103530Y106707D01*
X103571Y106687D01*
X103607Y106660D01*
X103698Y106626D01*
X103784Y106584D01*
X103826Y106578D01*
X103871Y106561D01*
X103999Y106551D01*
X104088Y106537D01*
X105465Y106537D01*
X107537Y104465D01*
X107537Y101535D01*
X105465Y99463D01*
X102535Y99463D01*
G37*
%LPD*%
%LPC*%
G36*
X85535Y81463D02*
X85535Y81463D01*
X83463Y83535D01*
X83463Y86465D01*
X83574Y86575D01*
X83593Y86601D01*
X83618Y86622D01*
X83678Y86714D01*
X83743Y86801D01*
X83754Y86831D01*
X83772Y86858D01*
X83804Y86963D01*
X83843Y87065D01*
X83845Y87097D01*
X83854Y87128D01*
X83856Y87237D01*
X83864Y87346D01*
X83858Y87378D01*
X83858Y87410D01*
X83829Y87515D01*
X83807Y87622D01*
X83792Y87651D01*
X83783Y87682D01*
X83726Y87775D01*
X83674Y87871D01*
X83652Y87894D01*
X83635Y87922D01*
X83554Y87995D01*
X83478Y88073D01*
X83450Y88089D01*
X83426Y88111D01*
X83327Y88158D01*
X83232Y88212D01*
X83201Y88220D01*
X83172Y88234D01*
X83082Y88248D01*
X82958Y88277D01*
X82909Y88275D01*
X82867Y88281D01*
X74262Y88281D01*
X73517Y89026D01*
X73517Y96174D01*
X74262Y96919D01*
X98174Y96919D01*
X98919Y96174D01*
X98919Y89026D01*
X98174Y88281D01*
X91133Y88281D01*
X91101Y88277D01*
X91069Y88279D01*
X90962Y88257D01*
X90854Y88241D01*
X90824Y88228D01*
X90793Y88222D01*
X90696Y88170D01*
X90597Y88125D01*
X90572Y88104D01*
X90544Y88089D01*
X90465Y88013D01*
X90382Y87942D01*
X90365Y87915D01*
X90342Y87892D01*
X90288Y87797D01*
X90228Y87706D01*
X90218Y87675D01*
X90203Y87647D01*
X90177Y87541D01*
X90146Y87436D01*
X90145Y87404D01*
X90138Y87372D01*
X90143Y87263D01*
X90142Y87154D01*
X90150Y87123D01*
X90152Y87091D01*
X90188Y86988D01*
X90217Y86882D01*
X90234Y86855D01*
X90245Y86824D01*
X90298Y86751D01*
X90365Y86642D01*
X90401Y86610D01*
X90426Y86575D01*
X90537Y86465D01*
X90537Y83535D01*
X88465Y81463D01*
X85535Y81463D01*
G37*
%LPD*%
%LPC*%
G36*
X74262Y113681D02*
X74262Y113681D01*
X73517Y114426D01*
X73517Y121574D01*
X74262Y122319D01*
X98174Y122319D01*
X98919Y121574D01*
X98919Y114426D01*
X98174Y113681D01*
X74262Y113681D01*
G37*
%LPD*%
%LPC*%
G36*
X141826Y100981D02*
X141826Y100981D01*
X141081Y101726D01*
X141081Y108874D01*
X141826Y109619D01*
X165738Y109619D01*
X166483Y108874D01*
X166483Y101726D01*
X165738Y100981D01*
X141826Y100981D01*
G37*
%LPD*%
D10*
X506000Y201000D03*
X506000Y74000D03*
D11*
X190700Y257000D03*
X203400Y257000D03*
X216100Y257000D03*
X228800Y257000D03*
X241500Y257000D03*
X178000Y257000D03*
X165300Y257000D03*
X152600Y257000D03*
X139900Y257000D03*
X127200Y257000D03*
X114500Y257000D03*
X101800Y257000D03*
D12*
X153782Y130700D03*
X86218Y130700D03*
X153782Y118000D03*
X153782Y105300D03*
X86218Y118000D03*
X86218Y105300D03*
X153782Y92600D03*
X86218Y92600D03*
D13*
X131500Y151000D03*
X150500Y151000D03*
D14*
X105500Y151000D03*
X88500Y151000D03*
D15*
X464200Y19000D03*
X476900Y19000D03*
X489600Y19000D03*
X502300Y19000D03*
X515000Y19000D03*
X451500Y19000D03*
X438800Y19000D03*
D16*
X299000Y113750D03*
X314000Y113750D03*
X331500Y113750D03*
X349000Y113750D03*
X367750Y113750D03*
X382750Y113750D03*
X399000Y113750D03*
X415250Y113750D03*
X439500Y114750D03*
X282750Y115000D03*
X270250Y123750D03*
X265250Y138750D03*
X270250Y155000D03*
X282750Y163750D03*
X299000Y163750D03*
X314000Y163750D03*
X332750Y163750D03*
X349000Y163750D03*
X364000Y163750D03*
X384000Y163750D03*
X399000Y163750D03*
X416500Y163750D03*
X432750Y163750D03*
X449000Y163750D03*
X466500Y162500D03*
X478250Y152500D03*
X476250Y124000D03*
X460250Y116000D03*
X282750Y183750D03*
X314000Y183750D03*
X332750Y183750D03*
X347750Y183750D03*
X364000Y183750D03*
X384000Y183750D03*
X399000Y183750D03*
X416500Y183750D03*
X431500Y183750D03*
X449000Y181750D03*
X12750Y63000D03*
X12750Y75750D03*
X12750Y88750D03*
X12750Y105000D03*
X12750Y121250D03*
X12750Y137500D03*
X12750Y153750D03*
X12750Y170000D03*
X12750Y186250D03*
X12750Y201250D03*
X12750Y217500D03*
X12750Y232500D03*
X299000Y93750D03*
X314000Y93750D03*
X331500Y93750D03*
X349000Y93750D03*
X367750Y93750D03*
X382750Y93750D03*
X399000Y93750D03*
X415250Y93750D03*
X436500Y93750D03*
X286000Y93750D03*
X270000Y93750D03*
X258000Y106750D03*
X247000Y116750D03*
X218000Y144750D03*
X208000Y155750D03*
X198000Y165750D03*
X185000Y177750D03*
X175000Y186750D03*
X161000Y186750D03*
X145000Y186750D03*
X129000Y186750D03*
X113000Y186750D03*
X78000Y204750D03*
X207000Y189750D03*
X198000Y198750D03*
X181000Y204750D03*
X151000Y204750D03*
X134000Y204750D03*
X115000Y204750D03*
X217000Y179750D03*
X240000Y154750D03*
X252000Y142750D03*
X239000Y124750D03*
X167000Y204750D03*
X100000Y186750D03*
X88000Y194750D03*
X266750Y183750D03*
X469000Y181750D03*
X487000Y181750D03*
X500000Y170750D03*
X122000Y248750D03*
X122000Y238750D03*
X147000Y248750D03*
X147000Y238750D03*
X172000Y248750D03*
X197000Y248750D03*
X172000Y239750D03*
X197000Y239750D03*
X220000Y248750D03*
X197000Y230750D03*
X172000Y230750D03*
X147000Y230750D03*
X122000Y230750D03*
X94000Y248750D03*
X94000Y230750D03*
X256000Y258750D03*
X270000Y258750D03*
X220000Y239750D03*
X414000Y15750D03*
X102000Y204750D03*
X94000Y239750D03*
X119750Y128750D03*
X119750Y110750D03*
X119750Y77750D03*
X100750Y77750D03*
X398000Y15750D03*
X382000Y15750D03*
X367000Y15750D03*
X349000Y15750D03*
X65000Y60750D03*
X226250Y15750D03*
X213250Y15750D03*
X199250Y15750D03*
X184250Y15750D03*
X349000Y29750D03*
X349000Y41750D03*
X349000Y52750D03*
X252250Y61750D03*
X104250Y25750D03*
X334000Y52750D03*
X429000Y15750D03*
D17*
X280000Y196000D02*
X293000Y209000D01*
X228800Y257000D02*
X228000Y256200D01*
X228000Y218000D01*
X228000Y197000D01*
X228000Y69000D02*
X228000Y35750D01*
X228000Y69000D02*
X228000Y197000D01*
X229000Y196000D02*
X280000Y196000D01*
X229000Y196000D02*
X228000Y197000D01*
X232750Y31000D02*
X233000Y31000D01*
D18*
X131500Y151000D02*
X105500Y151000D01*
X102700Y130700D02*
X86218Y130700D01*
X102700Y130700D02*
X106000Y134000D01*
X106000Y150500D01*
X105500Y151000D01*
D19*
X131500Y151000D02*
X131500Y179094D01*
X139060Y209060D02*
X148000Y218000D01*
X139060Y186654D02*
X131500Y179094D01*
X139060Y186654D02*
X139060Y209060D01*
X148000Y218000D02*
X228000Y218000D01*
D16*
X342000Y236000D03*
X347000Y236000D03*
D17*
X293000Y217521D02*
X293000Y209000D01*
X293000Y217521D02*
X311479Y236000D01*
X347000Y236000D01*
X228000Y35750D02*
X232750Y31000D01*
D16*
X233000Y31000D03*
X229000Y35000D03*
D20*
X228488Y35512D01*
X82488Y35512D01*
X76000Y42000D01*
D16*
X76000Y42000D03*
D17*
X228000Y69000D02*
X464000Y69000D01*
X502300Y30700D02*
X502300Y19000D01*
X502300Y30700D02*
X464000Y69000D01*
D16*
X101000Y68000D03*
D21*
X105000Y72000D01*
X123000Y72000D01*
X126000Y75000D02*
X126000Y119000D01*
X137000Y130000D01*
X153082Y130000D02*
X153782Y130700D01*
X126000Y75000D02*
X123000Y72000D01*
X137000Y130000D02*
X152000Y130000D01*
X153082Y130000D01*
X152000Y149500D02*
X150500Y151000D01*
X152000Y149500D02*
X152000Y130000D01*
D16*
X114000Y67000D03*
D21*
X122625Y67000D01*
X129270Y112270D02*
X135000Y118000D01*
X153782Y118000D01*
X129270Y73646D02*
X122625Y67000D01*
X129270Y73646D02*
X129270Y112270D01*
X86218Y92600D02*
X86218Y85782D01*
X87000Y85000D01*
D16*
X87000Y85000D03*
D22*
X59000Y52000D02*
X79806Y31194D01*
X59000Y52000D02*
X59000Y204000D01*
X76000Y221000D02*
X76000Y232000D01*
X76000Y221000D02*
X59000Y204000D01*
D16*
X76000Y232000D03*
X138000Y26000D03*
D22*
X132806Y31194D01*
X79806Y31194D01*
D16*
X19000Y241000D03*
D21*
X19000Y248000D01*
X28000Y257000D01*
X101800Y257000D01*
X191000Y207000D02*
X211000Y207000D01*
X222682Y195318D01*
D16*
X191000Y207000D03*
D21*
X222682Y44682D02*
X220000Y42000D01*
X222682Y44682D02*
X222682Y195318D01*
D16*
X220000Y42000D03*
D21*
X233318Y184000D02*
X240000Y190682D01*
X282203Y190682D01*
X233318Y93682D02*
X236000Y91000D01*
X233318Y93682D02*
X233318Y184000D01*
D16*
X236000Y91000D03*
D21*
X282203Y190682D02*
X298318Y206797D01*
X391000Y238000D02*
X391000Y245000D01*
X391000Y238000D02*
X377000Y224000D01*
X298318Y215318D02*
X298318Y206797D01*
X298318Y215318D02*
X307000Y224000D01*
X377000Y224000D01*
D16*
X391000Y245000D03*
X198000Y72000D03*
D21*
X217000Y91000D01*
D16*
X217000Y91000D03*
X104000Y103000D03*
D21*
X101700Y105300D02*
X86218Y105300D01*
X101700Y105300D02*
X104000Y103000D01*
M02*
