G04 EAGLE Gerber RS-274X export*
G75*
%MOMM*%
%FSLAX34Y34*%
%LPD*%
%INBottom Copper*%
%IPPOS*%
%AMOC8*
5,1,8,0,0,1.08239X$1,22.5*%
G01*
%ADD10C,1.905000*%
%ADD11C,1.050000*%
%ADD12R,2.286000X0.609600*%
%ADD13R,1.300000X1.600000*%
%ADD14R,1.300000X1.500000*%
%ADD15C,0.453200*%
%ADD16C,0.603200*%
%ADD17C,0.609600*%
%ADD18C,0.254000*%
%ADD19C,0.503200*%
%ADD20C,0.304800*%
%ADD21C,0.200000*%
%ADD22C,0.203200*%

G36*
X521714Y12610D02*
X521714Y12610D01*
X521778Y12609D01*
X521853Y12630D01*
X521929Y12641D01*
X521988Y12667D01*
X522050Y12684D01*
X522116Y12725D01*
X522186Y12757D01*
X522235Y12799D01*
X522290Y12832D01*
X522342Y12890D01*
X522400Y12940D01*
X522436Y12994D01*
X522479Y13042D01*
X522512Y13111D01*
X522555Y13176D01*
X522574Y13238D01*
X522602Y13295D01*
X522613Y13365D01*
X522637Y13446D01*
X522638Y13531D01*
X522649Y13600D01*
X522649Y31476D01*
X525106Y39038D01*
X526808Y41380D01*
X526817Y41396D01*
X526829Y41409D01*
X526883Y41520D01*
X526940Y41630D01*
X526944Y41647D01*
X526952Y41663D01*
X526966Y41752D01*
X526997Y41906D01*
X526995Y41939D01*
X526999Y41968D01*
X526999Y231815D01*
X526997Y231833D01*
X526999Y231851D01*
X526977Y231972D01*
X526959Y232094D01*
X526952Y232111D01*
X526949Y232128D01*
X526908Y232208D01*
X526843Y232351D01*
X526822Y232376D01*
X526808Y232402D01*
X526112Y233362D01*
X523899Y240170D01*
X523899Y261400D01*
X523890Y261464D01*
X523891Y261528D01*
X523870Y261603D01*
X523859Y261679D01*
X523833Y261738D01*
X523816Y261800D01*
X523775Y261866D01*
X523743Y261936D01*
X523701Y261985D01*
X523668Y262040D01*
X523610Y262092D01*
X523560Y262150D01*
X523506Y262186D01*
X523458Y262229D01*
X523389Y262262D01*
X523324Y262305D01*
X523262Y262324D01*
X523205Y262352D01*
X523135Y262363D01*
X523054Y262387D01*
X522969Y262388D01*
X522900Y262399D01*
X235035Y262399D01*
X235003Y262395D01*
X234971Y262397D01*
X234864Y262375D01*
X234756Y262359D01*
X234726Y262346D01*
X234695Y262340D01*
X234598Y262288D01*
X234499Y262243D01*
X234474Y262222D01*
X234446Y262207D01*
X234367Y262131D01*
X234284Y262060D01*
X234267Y262033D01*
X234244Y262010D01*
X234190Y261915D01*
X234130Y261824D01*
X234120Y261793D01*
X234105Y261765D01*
X234079Y261659D01*
X234048Y261554D01*
X234047Y261522D01*
X234040Y261490D01*
X234045Y261381D01*
X234044Y261272D01*
X234052Y261241D01*
X234054Y261209D01*
X234090Y261106D01*
X234119Y261000D01*
X234136Y260973D01*
X234147Y260942D01*
X234200Y260869D01*
X234267Y260760D01*
X234303Y260728D01*
X234328Y260694D01*
X235321Y258297D01*
X235321Y255703D01*
X234328Y253306D01*
X232611Y251590D01*
X232554Y251513D01*
X232489Y251441D01*
X232469Y251401D01*
X232442Y251364D01*
X232408Y251274D01*
X232366Y251188D01*
X232360Y251146D01*
X232343Y251100D01*
X232333Y250973D01*
X232319Y250883D01*
X232319Y201318D01*
X232328Y201254D01*
X232327Y201190D01*
X232348Y201115D01*
X232359Y201039D01*
X232385Y200980D01*
X232402Y200918D01*
X232443Y200852D01*
X232475Y200782D01*
X232517Y200733D01*
X232550Y200678D01*
X232608Y200626D01*
X232658Y200568D01*
X232712Y200532D01*
X232760Y200489D01*
X232829Y200456D01*
X232894Y200413D01*
X232956Y200394D01*
X233013Y200366D01*
X233083Y200355D01*
X233164Y200331D01*
X233249Y200330D01*
X233318Y200319D01*
X277797Y200319D01*
X277892Y200332D01*
X277988Y200337D01*
X278031Y200352D01*
X278076Y200359D01*
X278164Y200398D01*
X278255Y200430D01*
X278289Y200455D01*
X278333Y200475D01*
X278431Y200558D01*
X278504Y200611D01*
X288389Y210496D01*
X288446Y210573D01*
X288511Y210644D01*
X288531Y210685D01*
X288558Y210722D01*
X288592Y210812D01*
X288634Y210898D01*
X288640Y210940D01*
X288657Y210986D01*
X288667Y211113D01*
X288681Y211203D01*
X288681Y243789D01*
X302961Y258069D01*
X488039Y258069D01*
X490861Y255246D01*
X507996Y238111D01*
X510819Y235289D01*
X510819Y211357D01*
X510820Y211347D01*
X510819Y211338D01*
X510840Y211208D01*
X510859Y211078D01*
X510862Y211069D01*
X510864Y211060D01*
X510921Y210941D01*
X510975Y210821D01*
X510981Y210814D01*
X510985Y210805D01*
X511073Y210706D01*
X511158Y210606D01*
X511166Y210601D01*
X511172Y210594D01*
X511238Y210554D01*
X511394Y210452D01*
X511417Y210445D01*
X511436Y210434D01*
X512115Y210152D01*
X515152Y207115D01*
X516796Y203147D01*
X516796Y198853D01*
X515152Y194885D01*
X512115Y191848D01*
X508147Y190204D01*
X503853Y190204D01*
X499885Y191848D01*
X496848Y194885D01*
X495204Y198853D01*
X495204Y203147D01*
X496848Y207115D01*
X499885Y210152D01*
X501564Y210848D01*
X501573Y210853D01*
X501582Y210855D01*
X501694Y210925D01*
X501807Y210992D01*
X501814Y210998D01*
X501822Y211003D01*
X501910Y211102D01*
X502000Y211197D01*
X502004Y211206D01*
X502011Y211213D01*
X502068Y211331D01*
X502128Y211449D01*
X502130Y211458D01*
X502134Y211467D01*
X502146Y211542D01*
X502180Y211726D01*
X502178Y211750D01*
X502181Y211771D01*
X502181Y231297D01*
X502168Y231392D01*
X502163Y231488D01*
X502148Y231531D01*
X502141Y231576D01*
X502102Y231664D01*
X502070Y231755D01*
X502045Y231789D01*
X502025Y231833D01*
X501942Y231931D01*
X501889Y232004D01*
X484754Y249139D01*
X484677Y249196D01*
X484606Y249261D01*
X484565Y249281D01*
X484528Y249308D01*
X484438Y249342D01*
X484352Y249384D01*
X484310Y249390D01*
X484264Y249407D01*
X484137Y249417D01*
X484047Y249431D01*
X306953Y249431D01*
X306858Y249418D01*
X306762Y249413D01*
X306719Y249398D01*
X306674Y249391D01*
X306586Y249352D01*
X306495Y249320D01*
X306461Y249295D01*
X306417Y249275D01*
X306319Y249192D01*
X306246Y249139D01*
X297611Y240504D01*
X297554Y240427D01*
X297489Y240356D01*
X297469Y240315D01*
X297442Y240278D01*
X297408Y240188D01*
X297366Y240102D01*
X297360Y240060D01*
X297343Y240014D01*
X297333Y239887D01*
X297319Y239797D01*
X297319Y226624D01*
X297323Y226592D01*
X297321Y226560D01*
X297343Y226453D01*
X297359Y226345D01*
X297372Y226316D01*
X297378Y226284D01*
X297430Y226188D01*
X297475Y226088D01*
X297496Y226064D01*
X297511Y226035D01*
X297587Y225957D01*
X297658Y225874D01*
X297685Y225856D01*
X297708Y225833D01*
X297803Y225779D01*
X297894Y225720D01*
X297925Y225710D01*
X297953Y225694D01*
X298059Y225669D01*
X298164Y225637D01*
X298196Y225637D01*
X298227Y225629D01*
X298337Y225635D01*
X298446Y225633D01*
X298477Y225642D01*
X298509Y225644D01*
X298612Y225679D01*
X298718Y225709D01*
X298745Y225726D01*
X298776Y225736D01*
X298849Y225789D01*
X298958Y225857D01*
X298990Y225893D01*
X299025Y225918D01*
X302377Y229271D01*
X309855Y229271D01*
X309950Y229284D01*
X310046Y229289D01*
X310089Y229304D01*
X310134Y229311D01*
X310222Y229350D01*
X310313Y229382D01*
X310347Y229407D01*
X310391Y229427D01*
X310489Y229510D01*
X310562Y229563D01*
X311535Y230537D01*
X314465Y230537D01*
X316537Y228465D01*
X316537Y225535D01*
X314465Y223463D01*
X311535Y223463D01*
X310562Y224437D01*
X310485Y224494D01*
X310413Y224559D01*
X310373Y224579D01*
X310336Y224606D01*
X310246Y224640D01*
X310160Y224682D01*
X310118Y224688D01*
X310072Y224705D01*
X309945Y224715D01*
X309855Y224729D01*
X304672Y224729D01*
X304578Y224716D01*
X304481Y224711D01*
X304438Y224696D01*
X304393Y224689D01*
X304306Y224650D01*
X304215Y224618D01*
X304180Y224593D01*
X304136Y224573D01*
X304039Y224490D01*
X303966Y224437D01*
X300881Y221352D01*
X300824Y221275D01*
X300759Y221204D01*
X300739Y221163D01*
X300712Y221127D01*
X300678Y221036D01*
X300636Y220950D01*
X300630Y220908D01*
X300613Y220863D01*
X300603Y220735D01*
X300589Y220646D01*
X300589Y205857D01*
X283143Y188411D01*
X241354Y188411D01*
X241260Y188398D01*
X241163Y188393D01*
X241120Y188378D01*
X241075Y188371D01*
X240988Y188332D01*
X240897Y188300D01*
X240862Y188275D01*
X240818Y188255D01*
X240721Y188172D01*
X240648Y188119D01*
X235881Y183352D01*
X235824Y183275D01*
X235759Y183204D01*
X235739Y183163D01*
X235712Y183127D01*
X235678Y183036D01*
X235636Y182950D01*
X235630Y182908D01*
X235613Y182863D01*
X235603Y182735D01*
X235589Y182646D01*
X235589Y98036D01*
X235602Y97942D01*
X235607Y97845D01*
X235622Y97802D01*
X235629Y97757D01*
X235668Y97670D01*
X235700Y97579D01*
X235725Y97544D01*
X235745Y97500D01*
X235828Y97403D01*
X235881Y97330D01*
X240382Y92829D01*
X240459Y92772D01*
X240530Y92707D01*
X240571Y92687D01*
X240607Y92660D01*
X240698Y92626D01*
X240784Y92584D01*
X240826Y92578D01*
X240871Y92561D01*
X240999Y92551D01*
X241088Y92537D01*
X242465Y92537D01*
X244537Y90465D01*
X244537Y87535D01*
X242465Y85463D01*
X239535Y85463D01*
X237463Y87535D01*
X237463Y88912D01*
X237450Y89006D01*
X237445Y89103D01*
X237430Y89146D01*
X237423Y89191D01*
X237384Y89278D01*
X237352Y89369D01*
X237327Y89403D01*
X237307Y89448D01*
X237224Y89545D01*
X237171Y89618D01*
X234025Y92764D01*
X233999Y92784D01*
X233978Y92808D01*
X233886Y92868D01*
X233799Y92933D01*
X233769Y92945D01*
X233742Y92962D01*
X233637Y92994D01*
X233535Y93033D01*
X233503Y93035D01*
X233472Y93045D01*
X233363Y93046D01*
X233254Y93055D01*
X233222Y93048D01*
X233190Y93049D01*
X233085Y93019D01*
X232978Y92997D01*
X232949Y92982D01*
X232918Y92973D01*
X232825Y92916D01*
X232729Y92865D01*
X232706Y92842D01*
X232678Y92825D01*
X232605Y92744D01*
X232527Y92668D01*
X232511Y92640D01*
X232489Y92616D01*
X232442Y92518D01*
X232388Y92423D01*
X232380Y92391D01*
X232366Y92362D01*
X232352Y92273D01*
X232323Y92148D01*
X232325Y92100D01*
X232319Y92058D01*
X232319Y37953D01*
X232332Y37858D01*
X232337Y37762D01*
X232352Y37719D01*
X232359Y37674D01*
X232398Y37586D01*
X232430Y37495D01*
X232455Y37461D01*
X232475Y37417D01*
X232558Y37319D01*
X232611Y37246D01*
X234246Y35611D01*
X234323Y35554D01*
X234394Y35489D01*
X234435Y35469D01*
X234472Y35442D01*
X234562Y35408D01*
X234648Y35366D01*
X234690Y35360D01*
X234736Y35343D01*
X234863Y35333D01*
X234953Y35319D01*
X262410Y35319D01*
X262496Y35331D01*
X262582Y35334D01*
X262635Y35351D01*
X262689Y35359D01*
X262768Y35394D01*
X262850Y35421D01*
X262896Y35452D01*
X262946Y35475D01*
X263012Y35531D01*
X263083Y35580D01*
X263118Y35622D01*
X263160Y35658D01*
X263208Y35731D01*
X263263Y35798D01*
X263284Y35848D01*
X263314Y35894D01*
X263340Y35977D01*
X263374Y36057D01*
X263381Y36111D01*
X263397Y36164D01*
X263398Y36251D01*
X263409Y36337D01*
X263400Y36391D01*
X263401Y36446D01*
X263377Y36530D01*
X263364Y36615D01*
X263340Y36665D01*
X263325Y36718D01*
X263280Y36792D01*
X263243Y36870D01*
X263206Y36911D01*
X263177Y36958D01*
X263113Y37016D01*
X263055Y37081D01*
X263012Y37107D01*
X262968Y37147D01*
X262866Y37196D01*
X262792Y37241D01*
X259881Y38447D01*
X256097Y42231D01*
X254049Y47174D01*
X254049Y52526D01*
X256097Y57469D01*
X259881Y61253D01*
X264824Y63301D01*
X270176Y63301D01*
X275119Y61253D01*
X278903Y57469D01*
X280951Y52526D01*
X280951Y47174D01*
X278903Y42231D01*
X275119Y38447D01*
X272208Y37241D01*
X272133Y37197D01*
X272054Y37161D01*
X272013Y37126D01*
X271965Y37098D01*
X271906Y37034D01*
X271840Y36978D01*
X271810Y36932D01*
X271772Y36892D01*
X271733Y36815D01*
X271686Y36742D01*
X271669Y36689D01*
X271645Y36640D01*
X271628Y36555D01*
X271603Y36472D01*
X271602Y36417D01*
X271592Y36363D01*
X271601Y36277D01*
X271599Y36190D01*
X271614Y36137D01*
X271619Y36083D01*
X271651Y36002D01*
X271675Y35918D01*
X271703Y35871D01*
X271724Y35821D01*
X271777Y35752D01*
X271823Y35678D01*
X271864Y35641D01*
X271897Y35598D01*
X271968Y35548D01*
X272032Y35489D01*
X272081Y35465D01*
X272126Y35433D01*
X272208Y35404D01*
X272286Y35366D01*
X272336Y35358D01*
X272392Y35339D01*
X272505Y35332D01*
X272590Y35319D01*
X493797Y35319D01*
X493892Y35332D01*
X493988Y35337D01*
X494031Y35352D01*
X494076Y35359D01*
X494164Y35398D01*
X494255Y35430D01*
X494289Y35455D01*
X494333Y35475D01*
X494431Y35558D01*
X494504Y35611D01*
X497211Y38319D01*
X500789Y38319D01*
X503319Y35789D01*
X503319Y32211D01*
X500612Y29504D01*
X500611Y29504D01*
X499600Y28493D01*
X499581Y28467D01*
X499556Y28446D01*
X499496Y28354D01*
X499431Y28267D01*
X499420Y28237D01*
X499402Y28210D01*
X499370Y28105D01*
X499331Y28003D01*
X499329Y27971D01*
X499319Y27940D01*
X499318Y27831D01*
X499310Y27722D01*
X499316Y27690D01*
X499316Y27658D01*
X499345Y27553D01*
X499367Y27446D01*
X499382Y27417D01*
X499391Y27386D01*
X499448Y27293D01*
X499500Y27197D01*
X499522Y27174D01*
X499539Y27146D01*
X499620Y27073D01*
X499696Y26995D01*
X499724Y26979D01*
X499748Y26957D01*
X499846Y26910D01*
X499942Y26856D01*
X499973Y26848D01*
X500002Y26834D01*
X500092Y26820D01*
X500216Y26791D01*
X500265Y26793D01*
X500307Y26787D01*
X501376Y26787D01*
X503887Y24276D01*
X503887Y20724D01*
X501376Y18213D01*
X497824Y18213D01*
X495313Y20724D01*
X495313Y24276D01*
X496013Y24975D01*
X496032Y25001D01*
X496057Y25022D01*
X496117Y25114D01*
X496182Y25201D01*
X496194Y25231D01*
X496211Y25258D01*
X496243Y25363D01*
X496282Y25465D01*
X496284Y25497D01*
X496294Y25528D01*
X496295Y25637D01*
X496304Y25746D01*
X496297Y25778D01*
X496298Y25810D01*
X496268Y25915D01*
X496246Y26022D01*
X496231Y26051D01*
X496222Y26082D01*
X496165Y26175D01*
X496114Y26271D01*
X496091Y26294D01*
X496074Y26322D01*
X495993Y26395D01*
X495917Y26473D01*
X495889Y26489D01*
X495865Y26511D01*
X495767Y26558D01*
X495672Y26612D01*
X495640Y26620D01*
X495611Y26634D01*
X495522Y26648D01*
X495397Y26677D01*
X495349Y26675D01*
X495307Y26681D01*
X489393Y26681D01*
X489362Y26677D01*
X489329Y26679D01*
X489222Y26657D01*
X489114Y26641D01*
X489085Y26628D01*
X489053Y26622D01*
X488957Y26570D01*
X488857Y26525D01*
X488833Y26504D01*
X488804Y26489D01*
X488726Y26413D01*
X488643Y26342D01*
X488625Y26315D01*
X488602Y26292D01*
X488549Y26197D01*
X488489Y26106D01*
X488479Y26075D01*
X488463Y26047D01*
X488438Y25941D01*
X488406Y25836D01*
X488406Y25804D01*
X488398Y25773D01*
X488404Y25663D01*
X488402Y25554D01*
X488411Y25523D01*
X488413Y25491D01*
X488448Y25388D01*
X488478Y25282D01*
X488495Y25255D01*
X488505Y25224D01*
X488558Y25151D01*
X488626Y25042D01*
X488662Y25010D01*
X488687Y24975D01*
X489587Y24076D01*
X489587Y20524D01*
X487076Y18013D01*
X483524Y18013D01*
X481013Y20524D01*
X481013Y24076D01*
X481913Y24975D01*
X481932Y25001D01*
X481957Y25022D01*
X482017Y25114D01*
X482082Y25201D01*
X482094Y25231D01*
X482111Y25258D01*
X482143Y25363D01*
X482182Y25465D01*
X482184Y25497D01*
X482194Y25528D01*
X482195Y25637D01*
X482204Y25746D01*
X482197Y25778D01*
X482198Y25810D01*
X482168Y25915D01*
X482146Y26022D01*
X482131Y26051D01*
X482122Y26082D01*
X482065Y26175D01*
X482014Y26271D01*
X481991Y26294D01*
X481974Y26322D01*
X481893Y26395D01*
X481817Y26473D01*
X481789Y26489D01*
X481765Y26511D01*
X481667Y26558D01*
X481571Y26612D01*
X481540Y26620D01*
X481511Y26634D01*
X481422Y26648D01*
X481297Y26677D01*
X481249Y26675D01*
X481207Y26681D01*
X475193Y26681D01*
X475162Y26677D01*
X475129Y26679D01*
X475022Y26657D01*
X474914Y26641D01*
X474885Y26628D01*
X474853Y26622D01*
X474757Y26570D01*
X474657Y26525D01*
X474633Y26504D01*
X474604Y26489D01*
X474526Y26413D01*
X474443Y26342D01*
X474425Y26315D01*
X474402Y26292D01*
X474349Y26197D01*
X474289Y26106D01*
X474279Y26075D01*
X474263Y26047D01*
X474238Y25941D01*
X474206Y25836D01*
X474206Y25804D01*
X474198Y25773D01*
X474204Y25663D01*
X474202Y25554D01*
X474211Y25523D01*
X474213Y25491D01*
X474248Y25388D01*
X474278Y25282D01*
X474295Y25255D01*
X474305Y25224D01*
X474358Y25151D01*
X474426Y25042D01*
X474462Y25010D01*
X474487Y24975D01*
X475387Y24076D01*
X475387Y20524D01*
X472876Y18013D01*
X469324Y18013D01*
X466813Y20524D01*
X466813Y24076D01*
X467713Y24975D01*
X467732Y25001D01*
X467757Y25022D01*
X467817Y25114D01*
X467882Y25201D01*
X467894Y25231D01*
X467911Y25258D01*
X467943Y25363D01*
X467982Y25465D01*
X467984Y25497D01*
X467994Y25528D01*
X467995Y25637D01*
X468004Y25746D01*
X467997Y25778D01*
X467998Y25810D01*
X467968Y25915D01*
X467946Y26022D01*
X467931Y26051D01*
X467922Y26082D01*
X467865Y26175D01*
X467814Y26271D01*
X467791Y26294D01*
X467774Y26322D01*
X467693Y26395D01*
X467617Y26473D01*
X467589Y26489D01*
X467565Y26511D01*
X467467Y26558D01*
X467371Y26612D01*
X467340Y26620D01*
X467311Y26634D01*
X467222Y26648D01*
X467097Y26677D01*
X467049Y26675D01*
X467007Y26681D01*
X460793Y26681D01*
X460762Y26677D01*
X460729Y26679D01*
X460622Y26657D01*
X460514Y26641D01*
X460485Y26628D01*
X460453Y26622D01*
X460357Y26570D01*
X460257Y26525D01*
X460233Y26504D01*
X460204Y26489D01*
X460126Y26413D01*
X460043Y26342D01*
X460025Y26315D01*
X460002Y26292D01*
X459949Y26197D01*
X459889Y26106D01*
X459879Y26075D01*
X459863Y26047D01*
X459838Y25941D01*
X459806Y25836D01*
X459806Y25804D01*
X459798Y25773D01*
X459804Y25663D01*
X459802Y25554D01*
X459811Y25523D01*
X459813Y25491D01*
X459848Y25388D01*
X459878Y25282D01*
X459895Y25255D01*
X459905Y25224D01*
X459958Y25151D01*
X460026Y25042D01*
X460062Y25010D01*
X460087Y24975D01*
X460887Y24176D01*
X460887Y20624D01*
X458376Y18113D01*
X454824Y18113D01*
X452313Y20624D01*
X452313Y24176D01*
X453113Y24975D01*
X453132Y25001D01*
X453157Y25022D01*
X453217Y25114D01*
X453282Y25201D01*
X453294Y25231D01*
X453311Y25258D01*
X453343Y25363D01*
X453382Y25465D01*
X453384Y25497D01*
X453394Y25528D01*
X453395Y25637D01*
X453404Y25746D01*
X453397Y25778D01*
X453398Y25810D01*
X453368Y25915D01*
X453346Y26022D01*
X453331Y26051D01*
X453322Y26082D01*
X453265Y26175D01*
X453214Y26271D01*
X453191Y26294D01*
X453174Y26322D01*
X453093Y26395D01*
X453017Y26473D01*
X452989Y26489D01*
X452965Y26511D01*
X452867Y26558D01*
X452772Y26612D01*
X452740Y26620D01*
X452711Y26634D01*
X452622Y26648D01*
X452497Y26677D01*
X452449Y26675D01*
X452407Y26681D01*
X446393Y26681D01*
X446362Y26677D01*
X446329Y26679D01*
X446222Y26657D01*
X446114Y26641D01*
X446085Y26628D01*
X446053Y26622D01*
X445957Y26570D01*
X445857Y26525D01*
X445833Y26504D01*
X445804Y26489D01*
X445726Y26413D01*
X445643Y26342D01*
X445625Y26315D01*
X445602Y26292D01*
X445549Y26197D01*
X445489Y26106D01*
X445479Y26075D01*
X445463Y26047D01*
X445438Y25941D01*
X445406Y25836D01*
X445406Y25804D01*
X445398Y25773D01*
X445404Y25663D01*
X445402Y25554D01*
X445411Y25523D01*
X445413Y25491D01*
X445448Y25388D01*
X445478Y25282D01*
X445495Y25255D01*
X445505Y25224D01*
X445558Y25151D01*
X445626Y25042D01*
X445662Y25010D01*
X445687Y24975D01*
X446387Y24276D01*
X446387Y20724D01*
X443876Y18213D01*
X440324Y18213D01*
X437813Y20724D01*
X437813Y24276D01*
X438513Y24975D01*
X438532Y25001D01*
X438557Y25022D01*
X438617Y25114D01*
X438682Y25201D01*
X438694Y25231D01*
X438711Y25258D01*
X438743Y25363D01*
X438782Y25465D01*
X438784Y25497D01*
X438794Y25528D01*
X438795Y25637D01*
X438804Y25746D01*
X438797Y25778D01*
X438798Y25810D01*
X438768Y25915D01*
X438746Y26022D01*
X438731Y26051D01*
X438722Y26082D01*
X438665Y26175D01*
X438614Y26271D01*
X438591Y26294D01*
X438574Y26322D01*
X438493Y26395D01*
X438417Y26473D01*
X438389Y26489D01*
X438365Y26511D01*
X438267Y26558D01*
X438172Y26612D01*
X438140Y26620D01*
X438111Y26634D01*
X438022Y26648D01*
X437897Y26677D01*
X437849Y26675D01*
X437807Y26681D01*
X374942Y26681D01*
X374910Y26677D01*
X374878Y26679D01*
X374771Y26657D01*
X374663Y26641D01*
X374634Y26628D01*
X374602Y26622D01*
X374506Y26570D01*
X374406Y26525D01*
X374382Y26504D01*
X374353Y26489D01*
X374275Y26413D01*
X374192Y26342D01*
X374174Y26315D01*
X374151Y26292D01*
X374097Y26197D01*
X374038Y26106D01*
X374028Y26075D01*
X374012Y26047D01*
X373987Y25940D01*
X373955Y25836D01*
X373955Y25804D01*
X373947Y25773D01*
X373953Y25663D01*
X373951Y25554D01*
X373960Y25523D01*
X373962Y25491D01*
X373997Y25388D01*
X374027Y25282D01*
X374044Y25255D01*
X374054Y25224D01*
X374107Y25151D01*
X374175Y25042D01*
X374211Y25010D01*
X374236Y24975D01*
X379382Y19829D01*
X379459Y19772D01*
X379530Y19707D01*
X379571Y19687D01*
X379607Y19660D01*
X379698Y19626D01*
X379784Y19584D01*
X379826Y19578D01*
X379871Y19561D01*
X379999Y19551D01*
X380088Y19537D01*
X381465Y19537D01*
X383537Y17465D01*
X383537Y14535D01*
X383308Y14307D01*
X383289Y14281D01*
X383264Y14260D01*
X383204Y14168D01*
X383139Y14081D01*
X383128Y14051D01*
X383110Y14024D01*
X383078Y13919D01*
X383039Y13817D01*
X383037Y13785D01*
X383028Y13754D01*
X383026Y13645D01*
X383018Y13536D01*
X383024Y13504D01*
X383024Y13472D01*
X383053Y13367D01*
X383075Y13260D01*
X383090Y13231D01*
X383099Y13200D01*
X383156Y13107D01*
X383208Y13011D01*
X383230Y12988D01*
X383247Y12960D01*
X383328Y12887D01*
X383404Y12809D01*
X383432Y12793D01*
X383456Y12771D01*
X383555Y12724D01*
X383650Y12670D01*
X383681Y12662D01*
X383710Y12648D01*
X383800Y12634D01*
X383924Y12605D01*
X383973Y12607D01*
X384015Y12601D01*
X521650Y12601D01*
X521714Y12610D01*
G37*
G36*
X195327Y38295D02*
X195327Y38295D01*
X195359Y38293D01*
X195466Y38315D01*
X195574Y38331D01*
X195604Y38344D01*
X195635Y38350D01*
X195732Y38402D01*
X195831Y38447D01*
X195856Y38468D01*
X195884Y38483D01*
X195963Y38559D01*
X196046Y38630D01*
X196063Y38657D01*
X196086Y38680D01*
X196140Y38775D01*
X196200Y38866D01*
X196210Y38897D01*
X196225Y38925D01*
X196251Y39031D01*
X196282Y39136D01*
X196283Y39168D01*
X196290Y39199D01*
X196285Y39309D01*
X196286Y39418D01*
X196278Y39449D01*
X196276Y39481D01*
X196240Y39584D01*
X196211Y39690D01*
X196194Y39717D01*
X196183Y39748D01*
X196130Y39821D01*
X196063Y39930D01*
X196027Y39962D01*
X196002Y39997D01*
X195463Y40535D01*
X195463Y43465D01*
X197535Y45537D01*
X200465Y45537D01*
X201438Y44563D01*
X201515Y44506D01*
X201587Y44441D01*
X201627Y44421D01*
X201664Y44394D01*
X201754Y44360D01*
X201840Y44318D01*
X201882Y44312D01*
X201928Y44295D01*
X202055Y44285D01*
X202145Y44271D01*
X213328Y44271D01*
X213422Y44284D01*
X213519Y44289D01*
X213562Y44304D01*
X213607Y44311D01*
X213694Y44350D01*
X213785Y44382D01*
X213820Y44407D01*
X213864Y44427D01*
X213961Y44510D01*
X214034Y44563D01*
X220119Y50648D01*
X220176Y50725D01*
X220241Y50796D01*
X220261Y50837D01*
X220288Y50873D01*
X220322Y50964D01*
X220364Y51050D01*
X220370Y51092D01*
X220387Y51137D01*
X220397Y51265D01*
X220411Y51354D01*
X220411Y193964D01*
X220398Y194058D01*
X220393Y194155D01*
X220378Y194198D01*
X220371Y194243D01*
X220332Y194330D01*
X220300Y194421D01*
X220275Y194456D01*
X220255Y194500D01*
X220172Y194597D01*
X220119Y194670D01*
X210352Y204437D01*
X210275Y204494D01*
X210204Y204559D01*
X210163Y204579D01*
X210127Y204606D01*
X210036Y204640D01*
X209950Y204682D01*
X209908Y204688D01*
X209863Y204705D01*
X209735Y204715D01*
X209646Y204729D01*
X194145Y204729D01*
X194050Y204716D01*
X193954Y204711D01*
X193911Y204696D01*
X193866Y204689D01*
X193778Y204650D01*
X193687Y204618D01*
X193653Y204593D01*
X193609Y204573D01*
X193511Y204490D01*
X193438Y204437D01*
X192465Y203463D01*
X189535Y203463D01*
X187463Y205535D01*
X187463Y208465D01*
X189535Y210537D01*
X192465Y210537D01*
X193438Y209563D01*
X193515Y209506D01*
X193587Y209441D01*
X193627Y209421D01*
X193664Y209394D01*
X193754Y209360D01*
X193840Y209318D01*
X193882Y209312D01*
X193928Y209295D01*
X194055Y209285D01*
X194145Y209271D01*
X211941Y209271D01*
X221975Y199236D01*
X222001Y199217D01*
X222022Y199192D01*
X222114Y199132D01*
X222201Y199067D01*
X222231Y199055D01*
X222258Y199038D01*
X222363Y199006D01*
X222465Y198967D01*
X222497Y198965D01*
X222528Y198955D01*
X222637Y198954D01*
X222746Y198945D01*
X222778Y198952D01*
X222810Y198951D01*
X222915Y198981D01*
X223022Y199003D01*
X223051Y199018D01*
X223082Y199027D01*
X223175Y199084D01*
X223271Y199135D01*
X223294Y199158D01*
X223322Y199175D01*
X223395Y199256D01*
X223473Y199332D01*
X223489Y199360D01*
X223511Y199384D01*
X223558Y199482D01*
X223612Y199577D01*
X223620Y199609D01*
X223634Y199638D01*
X223648Y199727D01*
X223677Y199852D01*
X223675Y199900D01*
X223681Y199942D01*
X223681Y214206D01*
X223672Y214270D01*
X223673Y214334D01*
X223652Y214409D01*
X223641Y214485D01*
X223615Y214544D01*
X223598Y214606D01*
X223557Y214672D01*
X223525Y214742D01*
X223483Y214791D01*
X223450Y214846D01*
X223392Y214898D01*
X223342Y214956D01*
X223288Y214992D01*
X223240Y215035D01*
X223171Y215068D01*
X223106Y215111D01*
X223044Y215130D01*
X222987Y215158D01*
X222917Y215169D01*
X222836Y215193D01*
X222751Y215194D01*
X222682Y215205D01*
X149571Y215205D01*
X149477Y215192D01*
X149380Y215187D01*
X149337Y215172D01*
X149292Y215165D01*
X149205Y215126D01*
X149114Y215094D01*
X149079Y215069D01*
X149035Y215049D01*
X148938Y214966D01*
X148865Y214913D01*
X142147Y208195D01*
X142090Y208118D01*
X142025Y208047D01*
X142005Y208006D01*
X141978Y207969D01*
X141944Y207879D01*
X141902Y207793D01*
X141896Y207751D01*
X141879Y207706D01*
X141873Y207628D01*
X141867Y207609D01*
X141866Y207561D01*
X141855Y207488D01*
X141855Y185496D01*
X134587Y178229D01*
X134530Y178152D01*
X134465Y178081D01*
X134445Y178040D01*
X134418Y178004D01*
X134384Y177914D01*
X134342Y177827D01*
X134336Y177785D01*
X134319Y177740D01*
X134311Y177646D01*
X134307Y177631D01*
X134306Y177596D01*
X134295Y177523D01*
X134295Y161270D01*
X134304Y161206D01*
X134303Y161142D01*
X134324Y161067D01*
X134335Y160991D01*
X134361Y160932D01*
X134378Y160870D01*
X134419Y160804D01*
X134451Y160734D01*
X134493Y160685D01*
X134526Y160630D01*
X134584Y160578D01*
X134634Y160520D01*
X134688Y160484D01*
X134736Y160441D01*
X134805Y160408D01*
X134870Y160365D01*
X134932Y160346D01*
X134989Y160318D01*
X135059Y160307D01*
X135140Y160283D01*
X135225Y160282D01*
X135294Y160271D01*
X138526Y160271D01*
X139271Y159526D01*
X139271Y142474D01*
X138526Y141729D01*
X124474Y141729D01*
X123729Y142474D01*
X123729Y147460D01*
X123720Y147524D01*
X123721Y147588D01*
X123700Y147663D01*
X123689Y147739D01*
X123663Y147798D01*
X123646Y147860D01*
X123605Y147926D01*
X123573Y147996D01*
X123531Y148045D01*
X123498Y148100D01*
X123440Y148152D01*
X123390Y148210D01*
X123336Y148246D01*
X123288Y148289D01*
X123219Y148322D01*
X123154Y148365D01*
X123092Y148384D01*
X123035Y148412D01*
X122965Y148423D01*
X122884Y148447D01*
X122799Y148448D01*
X122730Y148459D01*
X114270Y148459D01*
X114206Y148450D01*
X114142Y148451D01*
X114067Y148430D01*
X113991Y148419D01*
X113932Y148393D01*
X113870Y148376D01*
X113804Y148335D01*
X113734Y148303D01*
X113685Y148261D01*
X113630Y148228D01*
X113578Y148170D01*
X113520Y148120D01*
X113484Y148066D01*
X113441Y148018D01*
X113408Y147949D01*
X113365Y147884D01*
X113346Y147822D01*
X113318Y147765D01*
X113307Y147695D01*
X113283Y147614D01*
X113282Y147529D01*
X113271Y147460D01*
X113271Y142974D01*
X112526Y142229D01*
X109540Y142229D01*
X109476Y142220D01*
X109412Y142221D01*
X109337Y142200D01*
X109261Y142189D01*
X109202Y142163D01*
X109140Y142146D01*
X109074Y142105D01*
X109004Y142073D01*
X108955Y142031D01*
X108900Y141998D01*
X108848Y141940D01*
X108790Y141890D01*
X108754Y141836D01*
X108711Y141788D01*
X108678Y141719D01*
X108635Y141654D01*
X108616Y141592D01*
X108588Y141535D01*
X108577Y141465D01*
X108553Y141384D01*
X108552Y141299D01*
X108541Y141230D01*
X108541Y132948D01*
X103752Y128159D01*
X99918Y128159D01*
X99854Y128150D01*
X99790Y128151D01*
X99715Y128130D01*
X99639Y128119D01*
X99580Y128093D01*
X99518Y128076D01*
X99452Y128035D01*
X99382Y128003D01*
X99333Y127961D01*
X99278Y127928D01*
X99226Y127870D01*
X99168Y127820D01*
X99132Y127766D01*
X99089Y127718D01*
X99056Y127649D01*
X99013Y127584D01*
X98994Y127522D01*
X98966Y127465D01*
X98955Y127395D01*
X98931Y127314D01*
X98930Y127229D01*
X98919Y127160D01*
X98919Y127126D01*
X98174Y126381D01*
X74262Y126381D01*
X73517Y127126D01*
X73517Y134274D01*
X74262Y135019D01*
X98174Y135019D01*
X98919Y134274D01*
X98919Y134240D01*
X98928Y134176D01*
X98927Y134112D01*
X98948Y134037D01*
X98959Y133961D01*
X98985Y133902D01*
X99002Y133840D01*
X99043Y133774D01*
X99075Y133704D01*
X99117Y133655D01*
X99150Y133600D01*
X99208Y133548D01*
X99258Y133490D01*
X99312Y133454D01*
X99360Y133411D01*
X99429Y133378D01*
X99494Y133335D01*
X99556Y133316D01*
X99613Y133288D01*
X99683Y133277D01*
X99764Y133253D01*
X99849Y133252D01*
X99918Y133241D01*
X101234Y133241D01*
X101329Y133254D01*
X101425Y133259D01*
X101468Y133274D01*
X101513Y133281D01*
X101600Y133320D01*
X101691Y133352D01*
X101726Y133377D01*
X101770Y133397D01*
X101867Y133480D01*
X101940Y133533D01*
X103167Y134760D01*
X103224Y134837D01*
X103289Y134908D01*
X103309Y134949D01*
X103336Y134985D01*
X103370Y135075D01*
X103412Y135162D01*
X103418Y135204D01*
X103435Y135249D01*
X103442Y135338D01*
X103447Y135354D01*
X103448Y135393D01*
X103459Y135466D01*
X103459Y141230D01*
X103450Y141294D01*
X103451Y141358D01*
X103430Y141433D01*
X103419Y141509D01*
X103393Y141568D01*
X103376Y141630D01*
X103335Y141696D01*
X103303Y141766D01*
X103261Y141815D01*
X103228Y141870D01*
X103170Y141922D01*
X103120Y141980D01*
X103066Y142016D01*
X103018Y142059D01*
X102949Y142092D01*
X102884Y142135D01*
X102822Y142154D01*
X102765Y142182D01*
X102695Y142193D01*
X102614Y142217D01*
X102529Y142218D01*
X102460Y142229D01*
X98474Y142229D01*
X97729Y142974D01*
X97729Y159026D01*
X98474Y159771D01*
X112526Y159771D01*
X113271Y159026D01*
X113271Y154540D01*
X113280Y154476D01*
X113279Y154412D01*
X113300Y154337D01*
X113311Y154261D01*
X113337Y154202D01*
X113354Y154140D01*
X113395Y154074D01*
X113427Y154004D01*
X113469Y153955D01*
X113502Y153900D01*
X113560Y153848D01*
X113610Y153790D01*
X113664Y153754D01*
X113712Y153711D01*
X113781Y153678D01*
X113846Y153635D01*
X113908Y153616D01*
X113965Y153588D01*
X114035Y153577D01*
X114116Y153553D01*
X114201Y153552D01*
X114270Y153541D01*
X122730Y153541D01*
X122794Y153550D01*
X122858Y153549D01*
X122933Y153570D01*
X123009Y153581D01*
X123068Y153607D01*
X123130Y153624D01*
X123196Y153665D01*
X123266Y153697D01*
X123315Y153739D01*
X123370Y153772D01*
X123422Y153830D01*
X123480Y153880D01*
X123516Y153934D01*
X123559Y153982D01*
X123592Y154051D01*
X123635Y154116D01*
X123654Y154178D01*
X123682Y154235D01*
X123693Y154305D01*
X123717Y154386D01*
X123718Y154471D01*
X123729Y154540D01*
X123729Y159526D01*
X124474Y160271D01*
X127706Y160271D01*
X127770Y160280D01*
X127834Y160279D01*
X127909Y160300D01*
X127985Y160311D01*
X128044Y160337D01*
X128106Y160354D01*
X128172Y160395D01*
X128242Y160427D01*
X128291Y160469D01*
X128346Y160502D01*
X128398Y160560D01*
X128456Y160610D01*
X128492Y160664D01*
X128535Y160712D01*
X128568Y160781D01*
X128611Y160846D01*
X128630Y160908D01*
X128658Y160965D01*
X128669Y161035D01*
X128693Y161116D01*
X128694Y161201D01*
X128705Y161270D01*
X128705Y180252D01*
X135973Y187519D01*
X136030Y187596D01*
X136095Y187667D01*
X136115Y187708D01*
X136142Y187745D01*
X136176Y187835D01*
X136218Y187921D01*
X136224Y187963D01*
X136241Y188008D01*
X136251Y188136D01*
X136265Y188226D01*
X136265Y210218D01*
X138195Y212147D01*
X144913Y218865D01*
X146842Y220795D01*
X222682Y220795D01*
X222746Y220804D01*
X222810Y220803D01*
X222885Y220824D01*
X222961Y220835D01*
X223020Y220861D01*
X223082Y220878D01*
X223148Y220919D01*
X223218Y220951D01*
X223267Y220993D01*
X223322Y221026D01*
X223374Y221084D01*
X223432Y221134D01*
X223468Y221188D01*
X223511Y221236D01*
X223544Y221305D01*
X223587Y221370D01*
X223606Y221432D01*
X223634Y221489D01*
X223645Y221559D01*
X223669Y221640D01*
X223670Y221725D01*
X223681Y221794D01*
X223681Y252483D01*
X223673Y252541D01*
X223673Y252549D01*
X223671Y252557D01*
X223668Y252578D01*
X223663Y252674D01*
X223648Y252717D01*
X223641Y252762D01*
X223602Y252850D01*
X223570Y252941D01*
X223545Y252975D01*
X223525Y253019D01*
X223442Y253117D01*
X223389Y253190D01*
X223157Y253422D01*
X223105Y253460D01*
X223060Y253506D01*
X222993Y253545D01*
X222931Y253591D01*
X222871Y253614D01*
X222815Y253645D01*
X222740Y253663D01*
X222667Y253691D01*
X222603Y253695D01*
X222540Y253710D01*
X222463Y253706D01*
X222386Y253712D01*
X222323Y253699D01*
X222259Y253696D01*
X222186Y253671D01*
X222110Y253655D01*
X222053Y253625D01*
X221992Y253603D01*
X221936Y253562D01*
X221861Y253522D01*
X221800Y253463D01*
X221743Y253422D01*
X219794Y251472D01*
X217397Y250479D01*
X214803Y250479D01*
X212406Y251472D01*
X210457Y253422D01*
X210405Y253460D01*
X210360Y253506D01*
X210293Y253545D01*
X210231Y253591D01*
X210171Y253614D01*
X210115Y253645D01*
X210040Y253663D01*
X209967Y253691D01*
X209903Y253695D01*
X209840Y253710D01*
X209763Y253706D01*
X209686Y253712D01*
X209623Y253699D01*
X209559Y253696D01*
X209486Y253671D01*
X209410Y253655D01*
X209353Y253625D01*
X209292Y253603D01*
X209236Y253562D01*
X209161Y253522D01*
X209100Y253463D01*
X209043Y253422D01*
X207094Y251472D01*
X204697Y250479D01*
X202103Y250479D01*
X199706Y251472D01*
X197757Y253422D01*
X197705Y253460D01*
X197660Y253506D01*
X197593Y253545D01*
X197531Y253591D01*
X197471Y253614D01*
X197415Y253645D01*
X197340Y253663D01*
X197267Y253691D01*
X197203Y253695D01*
X197140Y253710D01*
X197063Y253706D01*
X196986Y253712D01*
X196923Y253699D01*
X196859Y253696D01*
X196786Y253671D01*
X196710Y253655D01*
X196653Y253625D01*
X196592Y253603D01*
X196536Y253562D01*
X196461Y253522D01*
X196400Y253463D01*
X196343Y253422D01*
X194394Y251472D01*
X191997Y250479D01*
X189403Y250479D01*
X187006Y251472D01*
X185057Y253422D01*
X185005Y253460D01*
X184960Y253506D01*
X184893Y253545D01*
X184831Y253591D01*
X184771Y253614D01*
X184715Y253645D01*
X184640Y253663D01*
X184567Y253691D01*
X184503Y253695D01*
X184441Y253710D01*
X184363Y253706D01*
X184286Y253712D01*
X184223Y253699D01*
X184159Y253696D01*
X184086Y253670D01*
X184010Y253655D01*
X183953Y253625D01*
X183892Y253603D01*
X183836Y253562D01*
X183761Y253522D01*
X183700Y253463D01*
X183643Y253422D01*
X181694Y251472D01*
X179297Y250479D01*
X176703Y250479D01*
X174306Y251472D01*
X172357Y253422D01*
X172305Y253460D01*
X172260Y253506D01*
X172193Y253545D01*
X172131Y253591D01*
X172071Y253614D01*
X172015Y253645D01*
X171940Y253663D01*
X171867Y253691D01*
X171803Y253695D01*
X171741Y253710D01*
X171663Y253706D01*
X171586Y253712D01*
X171523Y253699D01*
X171459Y253696D01*
X171386Y253670D01*
X171310Y253655D01*
X171253Y253625D01*
X171192Y253603D01*
X171136Y253562D01*
X171061Y253522D01*
X171000Y253463D01*
X170943Y253422D01*
X168994Y251472D01*
X166597Y250479D01*
X164003Y250479D01*
X161606Y251472D01*
X159657Y253422D01*
X159605Y253460D01*
X159560Y253506D01*
X159493Y253545D01*
X159431Y253591D01*
X159371Y253614D01*
X159315Y253645D01*
X159240Y253663D01*
X159167Y253691D01*
X159103Y253695D01*
X159041Y253710D01*
X158963Y253706D01*
X158886Y253712D01*
X158823Y253699D01*
X158759Y253696D01*
X158686Y253670D01*
X158610Y253655D01*
X158553Y253625D01*
X158492Y253603D01*
X158436Y253562D01*
X158361Y253522D01*
X158300Y253463D01*
X158243Y253422D01*
X156294Y251472D01*
X153897Y250479D01*
X151303Y250479D01*
X148906Y251472D01*
X146957Y253422D01*
X146905Y253460D01*
X146860Y253506D01*
X146793Y253545D01*
X146731Y253591D01*
X146671Y253614D01*
X146615Y253645D01*
X146540Y253663D01*
X146467Y253691D01*
X146403Y253695D01*
X146340Y253710D01*
X146263Y253706D01*
X146186Y253712D01*
X146123Y253699D01*
X146059Y253696D01*
X145986Y253671D01*
X145910Y253655D01*
X145853Y253625D01*
X145792Y253603D01*
X145736Y253562D01*
X145661Y253522D01*
X145600Y253463D01*
X145543Y253422D01*
X143594Y251472D01*
X141197Y250479D01*
X138603Y250479D01*
X136206Y251472D01*
X134257Y253422D01*
X134205Y253460D01*
X134160Y253506D01*
X134093Y253545D01*
X134031Y253591D01*
X133971Y253614D01*
X133915Y253645D01*
X133840Y253663D01*
X133767Y253691D01*
X133703Y253695D01*
X133641Y253710D01*
X133563Y253706D01*
X133486Y253712D01*
X133423Y253699D01*
X133359Y253696D01*
X133286Y253670D01*
X133210Y253655D01*
X133153Y253625D01*
X133092Y253603D01*
X133036Y253562D01*
X132961Y253522D01*
X132900Y253463D01*
X132843Y253422D01*
X130894Y251472D01*
X128497Y250479D01*
X125903Y250479D01*
X123506Y251472D01*
X121557Y253422D01*
X121505Y253460D01*
X121460Y253506D01*
X121393Y253545D01*
X121331Y253591D01*
X121271Y253614D01*
X121215Y253645D01*
X121140Y253663D01*
X121067Y253691D01*
X121003Y253695D01*
X120941Y253710D01*
X120863Y253706D01*
X120786Y253712D01*
X120723Y253699D01*
X120659Y253696D01*
X120586Y253670D01*
X120510Y253655D01*
X120453Y253625D01*
X120392Y253603D01*
X120336Y253562D01*
X120261Y253522D01*
X120200Y253463D01*
X120143Y253422D01*
X118194Y251472D01*
X115797Y250479D01*
X113203Y250479D01*
X110806Y251472D01*
X108857Y253422D01*
X108805Y253460D01*
X108760Y253506D01*
X108693Y253545D01*
X108631Y253591D01*
X108571Y253614D01*
X108515Y253645D01*
X108440Y253663D01*
X108367Y253691D01*
X108303Y253695D01*
X108241Y253710D01*
X108163Y253706D01*
X108086Y253712D01*
X108023Y253699D01*
X107959Y253696D01*
X107886Y253670D01*
X107810Y253655D01*
X107753Y253625D01*
X107692Y253603D01*
X107636Y253562D01*
X107561Y253522D01*
X107500Y253463D01*
X107443Y253422D01*
X105494Y251472D01*
X103097Y250479D01*
X100503Y250479D01*
X98106Y251472D01*
X96272Y253306D01*
X95938Y254112D01*
X95933Y254121D01*
X95931Y254130D01*
X95861Y254242D01*
X95795Y254355D01*
X95788Y254362D01*
X95783Y254370D01*
X95685Y254458D01*
X95589Y254548D01*
X95580Y254552D01*
X95573Y254559D01*
X95454Y254616D01*
X95337Y254676D01*
X95328Y254678D01*
X95320Y254682D01*
X95243Y254694D01*
X95060Y254728D01*
X95036Y254726D01*
X95015Y254729D01*
X29354Y254729D01*
X29260Y254716D01*
X29163Y254711D01*
X29120Y254696D01*
X29075Y254689D01*
X28988Y254650D01*
X28897Y254618D01*
X28862Y254593D01*
X28818Y254573D01*
X28721Y254490D01*
X28648Y254437D01*
X21563Y247352D01*
X21506Y247275D01*
X21441Y247204D01*
X21421Y247163D01*
X21394Y247127D01*
X21360Y247036D01*
X21318Y246950D01*
X21312Y246908D01*
X21295Y246863D01*
X21285Y246735D01*
X21271Y246646D01*
X21271Y244145D01*
X21284Y244050D01*
X21289Y243954D01*
X21304Y243911D01*
X21311Y243866D01*
X21350Y243778D01*
X21382Y243687D01*
X21407Y243653D01*
X21427Y243609D01*
X21510Y243511D01*
X21563Y243438D01*
X22537Y242465D01*
X22537Y239535D01*
X20465Y237463D01*
X17535Y237463D01*
X15463Y239535D01*
X15463Y242465D01*
X16437Y243438D01*
X16494Y243515D01*
X16559Y243587D01*
X16579Y243627D01*
X16606Y243664D01*
X16640Y243754D01*
X16682Y243840D01*
X16688Y243882D01*
X16705Y243928D01*
X16715Y244055D01*
X16729Y244145D01*
X16729Y248941D01*
X27059Y259271D01*
X95015Y259271D01*
X95024Y259272D01*
X95034Y259271D01*
X95164Y259292D01*
X95294Y259311D01*
X95303Y259314D01*
X95312Y259316D01*
X95431Y259373D01*
X95551Y259427D01*
X95558Y259433D01*
X95567Y259437D01*
X95665Y259524D01*
X95765Y259610D01*
X95771Y259618D01*
X95778Y259624D01*
X95818Y259690D01*
X95920Y259846D01*
X95927Y259869D01*
X95938Y259888D01*
X96272Y260694D01*
X96291Y260719D01*
X96316Y260740D01*
X96376Y260832D01*
X96441Y260919D01*
X96452Y260949D01*
X96470Y260976D01*
X96502Y261081D01*
X96541Y261183D01*
X96543Y261215D01*
X96552Y261246D01*
X96554Y261355D01*
X96562Y261464D01*
X96556Y261496D01*
X96556Y261528D01*
X96527Y261633D01*
X96505Y261740D01*
X96490Y261769D01*
X96481Y261800D01*
X96424Y261893D01*
X96372Y261989D01*
X96350Y262012D01*
X96333Y262040D01*
X96252Y262113D01*
X96176Y262191D01*
X96147Y262207D01*
X96124Y262229D01*
X96025Y262276D01*
X95930Y262330D01*
X95899Y262338D01*
X95870Y262352D01*
X95780Y262366D01*
X95656Y262395D01*
X95607Y262393D01*
X95565Y262399D01*
X8850Y262399D01*
X8786Y262390D01*
X8722Y262391D01*
X8647Y262370D01*
X8571Y262359D01*
X8512Y262333D01*
X8450Y262316D01*
X8384Y262275D01*
X8314Y262243D01*
X8265Y262201D01*
X8210Y262168D01*
X8158Y262110D01*
X8100Y262060D01*
X8064Y262006D01*
X8021Y261958D01*
X7988Y261889D01*
X7945Y261824D01*
X7926Y261762D01*
X7898Y261705D01*
X7887Y261635D01*
X7863Y261554D01*
X7862Y261469D01*
X7851Y261400D01*
X7851Y57000D01*
X7860Y56936D01*
X7859Y56872D01*
X7880Y56797D01*
X7891Y56721D01*
X7917Y56662D01*
X7934Y56600D01*
X7975Y56534D01*
X8007Y56464D01*
X8049Y56415D01*
X8082Y56360D01*
X8140Y56308D01*
X8190Y56250D01*
X8244Y56214D01*
X8292Y56171D01*
X8361Y56138D01*
X8426Y56095D01*
X8488Y56076D01*
X8545Y56048D01*
X8615Y56037D01*
X8696Y56013D01*
X8781Y56012D01*
X8850Y56001D01*
X50714Y56001D01*
X50778Y56010D01*
X50842Y56009D01*
X50917Y56030D01*
X50993Y56041D01*
X51052Y56067D01*
X51114Y56084D01*
X51180Y56125D01*
X51250Y56157D01*
X51299Y56199D01*
X51354Y56232D01*
X51406Y56290D01*
X51464Y56340D01*
X51500Y56394D01*
X51543Y56442D01*
X51576Y56511D01*
X51619Y56576D01*
X51638Y56638D01*
X51666Y56695D01*
X51677Y56765D01*
X51701Y56846D01*
X51702Y56931D01*
X51713Y57000D01*
X51713Y223947D01*
X62053Y234287D01*
X72871Y234287D01*
X72966Y234300D01*
X73062Y234305D01*
X73105Y234320D01*
X73150Y234327D01*
X73238Y234366D01*
X73329Y234398D01*
X73363Y234423D01*
X73407Y234443D01*
X73505Y234526D01*
X73578Y234579D01*
X74535Y235537D01*
X77465Y235537D01*
X79537Y233465D01*
X79537Y230535D01*
X77465Y228463D01*
X74535Y228463D01*
X73578Y229421D01*
X73501Y229478D01*
X73429Y229543D01*
X73389Y229563D01*
X73352Y229590D01*
X73262Y229624D01*
X73176Y229666D01*
X73134Y229672D01*
X73088Y229689D01*
X72961Y229699D01*
X72871Y229713D01*
X64361Y229713D01*
X64266Y229700D01*
X64170Y229695D01*
X64127Y229680D01*
X64082Y229673D01*
X63994Y229634D01*
X63904Y229602D01*
X63869Y229577D01*
X63825Y229557D01*
X63728Y229474D01*
X63655Y229421D01*
X56579Y222345D01*
X56522Y222269D01*
X56457Y222197D01*
X56437Y222156D01*
X56410Y222120D01*
X56376Y222030D01*
X56334Y221943D01*
X56328Y221901D01*
X56311Y221856D01*
X56301Y221728D01*
X56287Y221639D01*
X56287Y44361D01*
X56300Y44266D01*
X56305Y44170D01*
X56320Y44127D01*
X56327Y44082D01*
X56366Y43994D01*
X56398Y43904D01*
X56423Y43869D01*
X56443Y43825D01*
X56526Y43728D01*
X56579Y43655D01*
X58757Y41476D01*
X58783Y41457D01*
X58804Y41433D01*
X58896Y41373D01*
X58983Y41307D01*
X59013Y41296D01*
X59040Y41278D01*
X59145Y41246D01*
X59247Y41208D01*
X59279Y41205D01*
X59310Y41196D01*
X59419Y41194D01*
X59528Y41186D01*
X59560Y41192D01*
X59592Y41192D01*
X59697Y41221D01*
X59804Y41243D01*
X59833Y41259D01*
X59864Y41267D01*
X59957Y41325D01*
X60053Y41376D01*
X60076Y41398D01*
X60104Y41415D01*
X60177Y41496D01*
X60255Y41573D01*
X60271Y41601D01*
X60293Y41625D01*
X60340Y41723D01*
X60394Y41818D01*
X60402Y41849D01*
X60416Y41878D01*
X60430Y41968D01*
X60459Y42093D01*
X60457Y42141D01*
X60463Y42183D01*
X60463Y43965D01*
X62535Y46037D01*
X65465Y46037D01*
X67537Y43965D01*
X67537Y42970D01*
X67550Y42875D01*
X67555Y42779D01*
X67570Y42736D01*
X67577Y42691D01*
X67616Y42604D01*
X67648Y42513D01*
X67673Y42478D01*
X67693Y42434D01*
X67776Y42337D01*
X67829Y42264D01*
X71510Y38583D01*
X71587Y38526D01*
X71658Y38461D01*
X71699Y38441D01*
X71735Y38414D01*
X71825Y38380D01*
X71912Y38338D01*
X71954Y38332D01*
X71999Y38315D01*
X72127Y38305D01*
X72216Y38291D01*
X195295Y38291D01*
X195327Y38295D01*
G37*
%LPC*%
G36*
X112535Y63463D02*
X112535Y63463D01*
X110463Y65535D01*
X110463Y68730D01*
X110454Y68794D01*
X110455Y68858D01*
X110434Y68933D01*
X110423Y69009D01*
X110397Y69068D01*
X110380Y69130D01*
X110339Y69196D01*
X110307Y69266D01*
X110265Y69315D01*
X110232Y69370D01*
X110174Y69422D01*
X110124Y69480D01*
X110070Y69516D01*
X110022Y69559D01*
X109953Y69592D01*
X109888Y69635D01*
X109826Y69654D01*
X109769Y69682D01*
X109699Y69693D01*
X109618Y69717D01*
X109533Y69718D01*
X109464Y69729D01*
X106354Y69729D01*
X106260Y69716D01*
X106163Y69711D01*
X106120Y69696D01*
X106075Y69689D01*
X105988Y69650D01*
X105897Y69618D01*
X105862Y69593D01*
X105818Y69573D01*
X105721Y69490D01*
X105648Y69437D01*
X104829Y68618D01*
X104772Y68541D01*
X104707Y68470D01*
X104687Y68429D01*
X104660Y68393D01*
X104626Y68302D01*
X104584Y68216D01*
X104578Y68174D01*
X104561Y68129D01*
X104551Y68001D01*
X104537Y67912D01*
X104537Y66535D01*
X102465Y64463D01*
X99535Y64463D01*
X97463Y66535D01*
X97463Y69465D01*
X99535Y71537D01*
X100912Y71537D01*
X101006Y71550D01*
X101103Y71555D01*
X101146Y71570D01*
X101191Y71577D01*
X101278Y71616D01*
X101369Y71648D01*
X101404Y71673D01*
X101448Y71693D01*
X101545Y71776D01*
X101618Y71829D01*
X104059Y74271D01*
X121646Y74271D01*
X121740Y74284D01*
X121837Y74289D01*
X121880Y74304D01*
X121925Y74311D01*
X122012Y74350D01*
X122103Y74382D01*
X122138Y74407D01*
X122182Y74427D01*
X122279Y74510D01*
X122352Y74563D01*
X123437Y75648D01*
X123494Y75725D01*
X123559Y75796D01*
X123579Y75837D01*
X123606Y75873D01*
X123640Y75964D01*
X123682Y76050D01*
X123688Y76092D01*
X123705Y76137D01*
X123715Y76265D01*
X123729Y76354D01*
X123729Y119941D01*
X136059Y132271D01*
X140082Y132271D01*
X140146Y132280D01*
X140210Y132279D01*
X140285Y132300D01*
X140361Y132311D01*
X140420Y132337D01*
X140482Y132354D01*
X140548Y132395D01*
X140618Y132427D01*
X140667Y132469D01*
X140722Y132502D01*
X140774Y132560D01*
X140832Y132610D01*
X140868Y132664D01*
X140911Y132712D01*
X140944Y132781D01*
X140987Y132846D01*
X141006Y132908D01*
X141034Y132965D01*
X141045Y133035D01*
X141069Y133116D01*
X141070Y133201D01*
X141081Y133270D01*
X141081Y134274D01*
X141826Y135019D01*
X148730Y135019D01*
X148794Y135028D01*
X148858Y135027D01*
X148933Y135048D01*
X149009Y135059D01*
X149068Y135085D01*
X149130Y135102D01*
X149196Y135143D01*
X149266Y135175D01*
X149315Y135217D01*
X149370Y135250D01*
X149422Y135308D01*
X149480Y135358D01*
X149516Y135412D01*
X149559Y135460D01*
X149592Y135529D01*
X149635Y135594D01*
X149654Y135656D01*
X149682Y135713D01*
X149693Y135783D01*
X149717Y135864D01*
X149718Y135949D01*
X149729Y136018D01*
X149729Y140730D01*
X149720Y140794D01*
X149721Y140858D01*
X149700Y140933D01*
X149689Y141009D01*
X149663Y141068D01*
X149646Y141130D01*
X149605Y141196D01*
X149573Y141266D01*
X149531Y141315D01*
X149498Y141370D01*
X149440Y141422D01*
X149390Y141480D01*
X149336Y141516D01*
X149288Y141559D01*
X149219Y141592D01*
X149154Y141635D01*
X149092Y141654D01*
X149035Y141682D01*
X148965Y141693D01*
X148884Y141717D01*
X148799Y141718D01*
X148730Y141729D01*
X143474Y141729D01*
X142729Y142474D01*
X142729Y159526D01*
X143474Y160271D01*
X157526Y160271D01*
X158271Y159526D01*
X158271Y142474D01*
X157526Y141729D01*
X155270Y141729D01*
X155206Y141720D01*
X155142Y141721D01*
X155067Y141700D01*
X154991Y141689D01*
X154932Y141663D01*
X154870Y141646D01*
X154804Y141605D01*
X154734Y141573D01*
X154685Y141531D01*
X154630Y141498D01*
X154578Y141440D01*
X154520Y141390D01*
X154484Y141336D01*
X154441Y141288D01*
X154408Y141219D01*
X154365Y141154D01*
X154346Y141092D01*
X154318Y141035D01*
X154307Y140965D01*
X154283Y140884D01*
X154282Y140799D01*
X154271Y140730D01*
X154271Y136018D01*
X154280Y135954D01*
X154279Y135890D01*
X154300Y135815D01*
X154311Y135739D01*
X154337Y135680D01*
X154354Y135618D01*
X154395Y135552D01*
X154427Y135482D01*
X154469Y135433D01*
X154502Y135378D01*
X154560Y135326D01*
X154610Y135268D01*
X154664Y135232D01*
X154712Y135189D01*
X154781Y135156D01*
X154846Y135113D01*
X154908Y135094D01*
X154965Y135066D01*
X155035Y135055D01*
X155116Y135031D01*
X155201Y135030D01*
X155270Y135019D01*
X165738Y135019D01*
X166483Y134274D01*
X166483Y127126D01*
X165738Y126381D01*
X141826Y126381D01*
X140870Y127337D01*
X140850Y127370D01*
X140792Y127422D01*
X140742Y127480D01*
X140688Y127516D01*
X140640Y127559D01*
X140571Y127592D01*
X140506Y127635D01*
X140444Y127654D01*
X140387Y127682D01*
X140317Y127693D01*
X140236Y127717D01*
X140151Y127718D01*
X140082Y127729D01*
X138354Y127729D01*
X138260Y127716D01*
X138163Y127711D01*
X138120Y127696D01*
X138075Y127689D01*
X137988Y127650D01*
X137897Y127618D01*
X137862Y127593D01*
X137818Y127573D01*
X137721Y127490D01*
X137648Y127437D01*
X128563Y118352D01*
X128506Y118275D01*
X128441Y118204D01*
X128421Y118163D01*
X128394Y118127D01*
X128360Y118036D01*
X128318Y117950D01*
X128312Y117908D01*
X128295Y117863D01*
X128285Y117735D01*
X128271Y117646D01*
X128271Y116894D01*
X128275Y116862D01*
X128273Y116830D01*
X128295Y116723D01*
X128311Y116615D01*
X128324Y116586D01*
X128330Y116554D01*
X128382Y116458D01*
X128427Y116358D01*
X128448Y116334D01*
X128463Y116305D01*
X128539Y116227D01*
X128610Y116144D01*
X128637Y116126D01*
X128660Y116103D01*
X128755Y116049D01*
X128846Y115990D01*
X128877Y115980D01*
X128905Y115964D01*
X129011Y115939D01*
X129116Y115907D01*
X129148Y115907D01*
X129179Y115899D01*
X129289Y115905D01*
X129398Y115903D01*
X129429Y115912D01*
X129461Y115914D01*
X129564Y115949D01*
X129670Y115979D01*
X129697Y115996D01*
X129728Y116006D01*
X129801Y116059D01*
X129910Y116127D01*
X129942Y116163D01*
X129977Y116188D01*
X132437Y118648D01*
X134059Y120271D01*
X140082Y120271D01*
X140146Y120280D01*
X140210Y120279D01*
X140285Y120300D01*
X140361Y120311D01*
X140420Y120337D01*
X140482Y120354D01*
X140548Y120395D01*
X140618Y120427D01*
X140667Y120469D01*
X140722Y120502D01*
X140774Y120560D01*
X140832Y120610D01*
X140868Y120664D01*
X140911Y120712D01*
X140944Y120781D01*
X140987Y120846D01*
X141006Y120908D01*
X141034Y120965D01*
X141045Y121035D01*
X141069Y121116D01*
X141070Y121201D01*
X141081Y121270D01*
X141081Y121574D01*
X141826Y122319D01*
X165738Y122319D01*
X166483Y121574D01*
X166483Y114426D01*
X165738Y113681D01*
X141826Y113681D01*
X141081Y114426D01*
X141081Y114730D01*
X141072Y114794D01*
X141073Y114858D01*
X141052Y114933D01*
X141041Y115009D01*
X141015Y115068D01*
X140998Y115130D01*
X140957Y115196D01*
X140925Y115266D01*
X140883Y115315D01*
X140850Y115370D01*
X140792Y115422D01*
X140742Y115480D01*
X140688Y115516D01*
X140640Y115559D01*
X140571Y115592D01*
X140506Y115635D01*
X140444Y115654D01*
X140387Y115682D01*
X140317Y115693D01*
X140236Y115717D01*
X140151Y115718D01*
X140082Y115729D01*
X136354Y115729D01*
X136260Y115716D01*
X136163Y115711D01*
X136120Y115696D01*
X136075Y115689D01*
X135988Y115650D01*
X135897Y115618D01*
X135862Y115593D01*
X135818Y115573D01*
X135721Y115490D01*
X135648Y115437D01*
X131833Y111622D01*
X131776Y111545D01*
X131711Y111474D01*
X131691Y111433D01*
X131664Y111397D01*
X131630Y111306D01*
X131588Y111220D01*
X131582Y111178D01*
X131565Y111133D01*
X131555Y111005D01*
X131541Y110916D01*
X131541Y72705D01*
X123565Y64729D01*
X117145Y64729D01*
X117050Y64716D01*
X116954Y64711D01*
X116911Y64696D01*
X116866Y64689D01*
X116778Y64650D01*
X116687Y64618D01*
X116653Y64593D01*
X116609Y64573D01*
X116511Y64490D01*
X116438Y64437D01*
X115465Y63463D01*
X112535Y63463D01*
G37*
%LPD*%
%LPC*%
G36*
X264824Y211699D02*
X264824Y211699D01*
X259881Y213747D01*
X256097Y217531D01*
X254049Y222474D01*
X254049Y227826D01*
X256097Y232769D01*
X259881Y236553D01*
X264824Y238601D01*
X270176Y238601D01*
X275119Y236553D01*
X278903Y232769D01*
X280951Y227826D01*
X280951Y222474D01*
X278903Y217531D01*
X275119Y213747D01*
X270176Y211699D01*
X264824Y211699D01*
G37*
%LPD*%
%LPC*%
G36*
X102535Y99463D02*
X102535Y99463D01*
X100302Y101696D01*
X100251Y101735D01*
X100206Y101781D01*
X100139Y101819D01*
X100077Y101865D01*
X100017Y101888D01*
X99961Y101920D01*
X99885Y101938D01*
X99813Y101965D01*
X99749Y101970D01*
X99686Y101985D01*
X99609Y101981D01*
X99532Y101987D01*
X99469Y101974D01*
X99405Y101970D01*
X99331Y101945D01*
X99256Y101929D01*
X99199Y101899D01*
X99138Y101878D01*
X99081Y101836D01*
X99007Y101797D01*
X98946Y101737D01*
X98889Y101696D01*
X98174Y100981D01*
X74262Y100981D01*
X73517Y101726D01*
X73517Y108874D01*
X74262Y109619D01*
X98174Y109619D01*
X98919Y108874D01*
X98919Y108570D01*
X98928Y108506D01*
X98927Y108442D01*
X98948Y108367D01*
X98959Y108291D01*
X98985Y108232D01*
X99002Y108170D01*
X99043Y108104D01*
X99075Y108034D01*
X99117Y107985D01*
X99150Y107930D01*
X99208Y107878D01*
X99258Y107820D01*
X99312Y107784D01*
X99360Y107741D01*
X99429Y107708D01*
X99494Y107665D01*
X99556Y107646D01*
X99613Y107618D01*
X99683Y107607D01*
X99764Y107583D01*
X99849Y107582D01*
X99918Y107571D01*
X102641Y107571D01*
X103382Y106829D01*
X103459Y106772D01*
X103530Y106707D01*
X103571Y106687D01*
X103607Y106660D01*
X103698Y106626D01*
X103784Y106584D01*
X103826Y106578D01*
X103871Y106561D01*
X103999Y106551D01*
X104088Y106537D01*
X105465Y106537D01*
X107537Y104465D01*
X107537Y101535D01*
X105465Y99463D01*
X102535Y99463D01*
G37*
%LPD*%
%LPC*%
G36*
X85535Y81463D02*
X85535Y81463D01*
X83463Y83535D01*
X83463Y86465D01*
X83574Y86575D01*
X83593Y86601D01*
X83618Y86622D01*
X83678Y86714D01*
X83743Y86801D01*
X83754Y86831D01*
X83772Y86858D01*
X83804Y86963D01*
X83843Y87065D01*
X83845Y87097D01*
X83854Y87128D01*
X83856Y87237D01*
X83864Y87346D01*
X83858Y87378D01*
X83858Y87410D01*
X83829Y87515D01*
X83807Y87622D01*
X83792Y87651D01*
X83783Y87682D01*
X83726Y87775D01*
X83674Y87871D01*
X83652Y87894D01*
X83635Y87922D01*
X83554Y87995D01*
X83478Y88073D01*
X83450Y88089D01*
X83426Y88111D01*
X83327Y88158D01*
X83232Y88212D01*
X83201Y88220D01*
X83172Y88234D01*
X83082Y88248D01*
X82958Y88277D01*
X82909Y88275D01*
X82867Y88281D01*
X74262Y88281D01*
X73517Y89026D01*
X73517Y96174D01*
X74262Y96919D01*
X98174Y96919D01*
X98919Y96174D01*
X98919Y89026D01*
X98174Y88281D01*
X91133Y88281D01*
X91101Y88277D01*
X91069Y88279D01*
X90962Y88257D01*
X90854Y88241D01*
X90824Y88228D01*
X90793Y88222D01*
X90696Y88170D01*
X90597Y88125D01*
X90572Y88104D01*
X90544Y88089D01*
X90465Y88013D01*
X90382Y87942D01*
X90365Y87915D01*
X90342Y87892D01*
X90288Y87797D01*
X90228Y87706D01*
X90218Y87675D01*
X90203Y87647D01*
X90177Y87541D01*
X90146Y87436D01*
X90145Y87404D01*
X90138Y87372D01*
X90143Y87263D01*
X90142Y87154D01*
X90150Y87123D01*
X90152Y87091D01*
X90188Y86988D01*
X90217Y86882D01*
X90234Y86855D01*
X90245Y86824D01*
X90298Y86751D01*
X90365Y86642D01*
X90401Y86610D01*
X90426Y86575D01*
X90537Y86465D01*
X90537Y83535D01*
X88465Y81463D01*
X85535Y81463D01*
G37*
%LPD*%
%LPC*%
G36*
X74262Y113681D02*
X74262Y113681D01*
X73517Y114426D01*
X73517Y121574D01*
X74262Y122319D01*
X98174Y122319D01*
X98919Y121574D01*
X98919Y114426D01*
X98174Y113681D01*
X74262Y113681D01*
G37*
%LPD*%
%LPC*%
G36*
X141826Y100981D02*
X141826Y100981D01*
X141081Y101726D01*
X141081Y108874D01*
X141826Y109619D01*
X165738Y109619D01*
X166483Y108874D01*
X166483Y101726D01*
X165738Y100981D01*
X141826Y100981D01*
G37*
%LPD*%
%LPC*%
G36*
X191535Y64463D02*
X191535Y64463D01*
X189463Y66535D01*
X189463Y69465D01*
X190437Y70438D01*
X190494Y70515D01*
X190559Y70587D01*
X190579Y70627D01*
X190606Y70664D01*
X190640Y70754D01*
X190682Y70840D01*
X190688Y70882D01*
X190705Y70928D01*
X190715Y71055D01*
X190729Y71145D01*
X190729Y79941D01*
X199171Y88382D01*
X199228Y88459D01*
X199293Y88530D01*
X199313Y88571D01*
X199340Y88607D01*
X199374Y88697D01*
X199416Y88784D01*
X199422Y88826D01*
X199439Y88871D01*
X199449Y88999D01*
X199463Y89088D01*
X199463Y90465D01*
X201535Y92537D01*
X204465Y92537D01*
X206537Y90465D01*
X206537Y87535D01*
X204465Y85463D01*
X203088Y85463D01*
X202994Y85450D01*
X202897Y85445D01*
X202854Y85430D01*
X202809Y85423D01*
X202722Y85384D01*
X202631Y85352D01*
X202596Y85327D01*
X202552Y85307D01*
X202455Y85224D01*
X202382Y85171D01*
X195563Y78352D01*
X195506Y78275D01*
X195441Y78204D01*
X195421Y78163D01*
X195394Y78127D01*
X195360Y78036D01*
X195318Y77950D01*
X195312Y77908D01*
X195295Y77863D01*
X195285Y77735D01*
X195271Y77646D01*
X195271Y71145D01*
X195284Y71050D01*
X195289Y70954D01*
X195304Y70911D01*
X195311Y70866D01*
X195350Y70778D01*
X195382Y70687D01*
X195407Y70653D01*
X195427Y70609D01*
X195510Y70511D01*
X195563Y70438D01*
X196537Y69465D01*
X196537Y66535D01*
X194465Y64463D01*
X191535Y64463D01*
G37*
%LPD*%
D10*
X506000Y201000D03*
X506000Y74000D03*
D11*
X190700Y257000D03*
X203400Y257000D03*
X216100Y257000D03*
X228800Y257000D03*
X241500Y257000D03*
X178000Y257000D03*
X165300Y257000D03*
X152600Y257000D03*
X139900Y257000D03*
X127200Y257000D03*
X114500Y257000D03*
X101800Y257000D03*
D12*
X153782Y130700D03*
X86218Y130700D03*
X153782Y118000D03*
X153782Y105300D03*
X86218Y118000D03*
X86218Y105300D03*
X153782Y92600D03*
X86218Y92600D03*
D13*
X131500Y151000D03*
X150500Y151000D03*
D14*
X105500Y151000D03*
X88500Y151000D03*
D15*
X299000Y113750D03*
X314000Y113750D03*
X331500Y113750D03*
X349000Y113750D03*
X367750Y113750D03*
X382750Y113750D03*
X399000Y113750D03*
X415250Y113750D03*
X436500Y113750D03*
X282750Y115000D03*
X270250Y123750D03*
X265250Y138750D03*
X270250Y155000D03*
X282750Y163750D03*
X299000Y163750D03*
X314000Y163750D03*
X332750Y163750D03*
X349000Y163750D03*
X364000Y163750D03*
X384000Y163750D03*
X399000Y163750D03*
X416500Y163750D03*
X432750Y163750D03*
X449000Y163750D03*
X466500Y162500D03*
X480250Y152500D03*
X484000Y137500D03*
X475250Y120000D03*
X455250Y115000D03*
X282750Y183750D03*
X314000Y183750D03*
X332750Y183750D03*
X347750Y183750D03*
X364000Y183750D03*
X384000Y183750D03*
X399000Y183750D03*
X416500Y183750D03*
X431500Y183750D03*
X449000Y183750D03*
X12750Y63000D03*
X12750Y75750D03*
X12750Y88750D03*
X12750Y105000D03*
X12750Y121250D03*
X12750Y137500D03*
X12750Y153750D03*
X12750Y170000D03*
X12750Y186250D03*
X12750Y201250D03*
X12750Y217500D03*
X12750Y232500D03*
X251250Y40750D03*
X61750Y49750D03*
X299000Y93750D03*
X314000Y93750D03*
X331500Y93750D03*
X349000Y93750D03*
X367750Y93750D03*
X382750Y93750D03*
X399000Y93750D03*
X415250Y93750D03*
X436500Y93750D03*
D16*
X514200Y22600D03*
D15*
X286000Y93750D03*
X270000Y93750D03*
X258000Y106750D03*
X247000Y116750D03*
X218000Y144750D03*
X208000Y155750D03*
X198000Y165750D03*
X185000Y177750D03*
X175000Y186750D03*
X161000Y186750D03*
X145000Y186750D03*
X129000Y186750D03*
X113000Y186750D03*
X78000Y204750D03*
X207000Y189750D03*
X198000Y198750D03*
X181000Y204750D03*
X151000Y204750D03*
X134000Y204750D03*
X115000Y204750D03*
X217000Y179750D03*
X240000Y154750D03*
X252000Y142750D03*
X239000Y124750D03*
X167000Y204750D03*
X100000Y186750D03*
X88000Y194750D03*
X266750Y183750D03*
X468000Y183750D03*
X487000Y183750D03*
X501000Y173750D03*
X122000Y248750D03*
X122000Y238750D03*
X147000Y248750D03*
X147000Y238750D03*
X172000Y248750D03*
X197000Y248750D03*
X172000Y239750D03*
X197000Y239750D03*
X220000Y248750D03*
X197000Y230750D03*
X172000Y230750D03*
X147000Y230750D03*
X122000Y230750D03*
X94000Y248750D03*
X94000Y230750D03*
X255000Y254750D03*
X269000Y254750D03*
X285000Y254750D03*
X220000Y239750D03*
X414000Y16750D03*
X432000Y16750D03*
X102000Y204750D03*
X94000Y239750D03*
X119750Y128750D03*
X119750Y110750D03*
X119750Y77750D03*
X100750Y77750D03*
X228000Y35750D03*
D17*
X486250Y253750D02*
X506500Y233500D01*
D15*
X64000Y42500D03*
D18*
X70750Y35750D01*
X228000Y35750D01*
D19*
X499000Y34000D03*
D17*
X486250Y253750D02*
X304750Y253750D01*
X293000Y242000D02*
X293000Y209000D01*
X280000Y196000D01*
X293000Y242000D02*
X304750Y253750D01*
X228800Y257000D02*
X228000Y256200D01*
X228000Y218000D01*
X228000Y197000D01*
X228000Y35750D01*
X229000Y196000D02*
X280000Y196000D01*
X229000Y196000D02*
X228000Y197000D01*
X228000Y35750D02*
X232750Y31000D01*
X496000Y31000D02*
X499000Y34000D01*
X496000Y31000D02*
X232750Y31000D01*
D16*
X499600Y22500D03*
D17*
X506500Y201500D02*
X506500Y233500D01*
X506500Y201500D02*
X506000Y201000D01*
D18*
X131500Y151000D02*
X105500Y151000D01*
X102700Y130700D02*
X86218Y130700D01*
X102700Y130700D02*
X106000Y134000D01*
X106000Y150500D01*
X105500Y151000D01*
D20*
X131500Y151000D02*
X131500Y179094D01*
X139060Y209060D02*
X148000Y218000D01*
X139060Y186654D02*
X131500Y179094D01*
X139060Y186654D02*
X139060Y209060D01*
X148000Y218000D02*
X228000Y218000D01*
D15*
X101000Y68000D03*
D21*
X105000Y72000D01*
X123000Y72000D01*
X126000Y75000D02*
X126000Y119000D01*
X137000Y130000D01*
X153082Y130000D02*
X153782Y130700D01*
X126000Y75000D02*
X123000Y72000D01*
X137000Y130000D02*
X152000Y130000D01*
X153082Y130000D01*
X152000Y149500D02*
X150500Y151000D01*
X152000Y149500D02*
X152000Y130000D01*
D15*
X157000Y26000D03*
X296000Y20000D03*
D18*
X216000Y26000D02*
X157000Y26000D01*
X222000Y20000D02*
X296000Y20000D01*
X222000Y20000D02*
X216000Y26000D01*
D16*
X456600Y22400D03*
D15*
X114000Y67000D03*
D21*
X122625Y67000D01*
X129270Y112270D02*
X135000Y118000D01*
X153782Y118000D01*
X129270Y73646D02*
X122625Y67000D01*
X129270Y73646D02*
X129270Y112270D01*
X86218Y92600D02*
X86218Y85782D01*
X87000Y85000D01*
D15*
X87000Y85000D03*
D16*
X442100Y22500D03*
X485300Y22300D03*
X471100Y22300D03*
D22*
X230334Y25666D02*
X223806Y32194D01*
X64806Y32194D02*
X54000Y43000D01*
X54000Y223000D01*
X63000Y232000D01*
X76000Y232000D01*
X230334Y25666D02*
X351334Y25666D01*
X223806Y32194D02*
X64806Y32194D01*
D15*
X76000Y232000D03*
D21*
X351334Y25666D02*
X370334Y25666D01*
X380000Y16000D01*
D15*
X380000Y16000D03*
X19000Y241000D03*
D21*
X19000Y248000D01*
X28000Y257000D01*
X101800Y257000D01*
D15*
X199000Y42000D03*
D21*
X214682Y42000D01*
X222682Y50000D01*
X222682Y195318D01*
X211000Y207000D02*
X191000Y207000D01*
X211000Y207000D02*
X222682Y195318D01*
D15*
X191000Y207000D03*
X313000Y227000D03*
D21*
X303318Y227000D01*
X298318Y222000D01*
X298318Y206797D01*
X240000Y190682D02*
X233318Y184000D01*
X282203Y190682D02*
X298318Y206797D01*
X282203Y190682D02*
X240000Y190682D01*
X233318Y96682D02*
X241000Y89000D01*
X233318Y96682D02*
X233318Y184000D01*
D15*
X241000Y89000D03*
X193000Y68000D03*
D21*
X193000Y79000D01*
X203000Y89000D01*
D15*
X203000Y89000D03*
X104000Y103000D03*
D21*
X101700Y105300D02*
X86218Y105300D01*
X101700Y105300D02*
X104000Y103000D01*
M02*
