G04 EAGLE Gerber RS-274X export*
G75*
%MOMM*%
%FSLAX34Y34*%
%LPD*%
%INTop Copper*%
%IPPOS*%
%AMOC8*
5,1,8,0,0,1.08239X$1,22.5*%
G01*
%ADD10R,0.940000X1.600000*%
%ADD11C,0.037600*%
%ADD12C,1.905000*%
%ADD13R,0.500000X0.500000*%
%ADD14R,1.450000X2.400000*%
%ADD15R,2.550000X2.700000*%
%ADD16R,1.000000X0.800000*%
%ADD17R,1.300000X1.600000*%
%ADD18R,1.600000X1.300000*%
%ADD19R,1.500000X1.300000*%
%ADD20R,0.508000X0.508000*%
%ADD21R,1.800000X1.700000*%
%ADD22R,1.200000X1.200000*%
%ADD23C,1.270000*%
%ADD24C,1.050000*%
%ADD25R,1.300000X1.500000*%
%ADD26R,0.800000X2.000000*%
%ADD27R,1.200000X0.450000*%
%ADD28R,1.400000X1.000000*%
%ADD29C,0.200000*%
%ADD30C,0.254000*%
%ADD31C,0.203200*%
%ADD32C,0.453200*%
%ADD33C,0.603200*%
%ADD34C,0.406400*%
%ADD35C,0.503200*%
%ADD36C,0.152400*%
%ADD37C,0.609600*%
%ADD38C,0.304800*%

G36*
X521714Y12610D02*
X521714Y12610D01*
X521778Y12609D01*
X521853Y12630D01*
X521929Y12641D01*
X521988Y12667D01*
X522050Y12684D01*
X522116Y12725D01*
X522186Y12757D01*
X522235Y12799D01*
X522290Y12832D01*
X522342Y12890D01*
X522400Y12940D01*
X522436Y12994D01*
X522479Y13042D01*
X522512Y13111D01*
X522555Y13176D01*
X522574Y13238D01*
X522602Y13295D01*
X522613Y13365D01*
X522637Y13446D01*
X522638Y13531D01*
X522649Y13600D01*
X522649Y31476D01*
X523950Y35480D01*
X523951Y35482D01*
X523952Y35484D01*
X523957Y35518D01*
X523999Y35758D01*
X523997Y35774D01*
X523999Y35789D01*
X523999Y110000D01*
X523990Y110064D01*
X523991Y110128D01*
X523970Y110203D01*
X523959Y110279D01*
X523933Y110338D01*
X523916Y110400D01*
X523875Y110466D01*
X523843Y110536D01*
X523801Y110585D01*
X523768Y110640D01*
X523710Y110692D01*
X523660Y110750D01*
X523606Y110786D01*
X523558Y110829D01*
X523489Y110862D01*
X523424Y110905D01*
X523362Y110924D01*
X523305Y110952D01*
X523235Y110963D01*
X523154Y110987D01*
X523069Y110988D01*
X523000Y110999D01*
X497020Y110999D01*
X496956Y110990D01*
X496892Y110991D01*
X496817Y110970D01*
X496741Y110959D01*
X496682Y110933D01*
X496620Y110916D01*
X496554Y110875D01*
X496484Y110843D01*
X496435Y110801D01*
X496380Y110768D01*
X496328Y110710D01*
X496270Y110660D01*
X496234Y110606D01*
X496191Y110558D01*
X496158Y110489D01*
X496115Y110424D01*
X496096Y110362D01*
X496068Y110305D01*
X496057Y110235D01*
X496033Y110154D01*
X496032Y110069D01*
X496021Y110000D01*
X496021Y90809D01*
X491682Y86471D01*
X491642Y86471D01*
X491567Y86450D01*
X491491Y86439D01*
X491432Y86413D01*
X491370Y86396D01*
X491304Y86355D01*
X491234Y86323D01*
X491185Y86281D01*
X491130Y86248D01*
X491078Y86190D01*
X491020Y86140D01*
X490984Y86086D01*
X490941Y86038D01*
X490908Y85969D01*
X490865Y85904D01*
X490846Y85842D01*
X490818Y85785D01*
X490807Y85715D01*
X490783Y85634D01*
X490782Y85549D01*
X490771Y85480D01*
X490771Y81724D01*
X490026Y80979D01*
X472974Y80979D01*
X472229Y81724D01*
X472229Y84480D01*
X472220Y84544D01*
X472221Y84608D01*
X472200Y84683D01*
X472189Y84759D01*
X472163Y84818D01*
X472146Y84880D01*
X472105Y84946D01*
X472073Y85016D01*
X472031Y85065D01*
X471998Y85120D01*
X471940Y85172D01*
X471890Y85230D01*
X471836Y85266D01*
X471788Y85309D01*
X471719Y85342D01*
X471654Y85385D01*
X471592Y85404D01*
X471535Y85432D01*
X471465Y85443D01*
X471384Y85467D01*
X471299Y85468D01*
X471230Y85479D01*
X468770Y85479D01*
X468706Y85470D01*
X468642Y85471D01*
X468567Y85450D01*
X468491Y85439D01*
X468432Y85413D01*
X468370Y85396D01*
X468304Y85355D01*
X468234Y85323D01*
X468185Y85281D01*
X468130Y85248D01*
X468078Y85190D01*
X468020Y85140D01*
X467984Y85086D01*
X467941Y85038D01*
X467908Y84969D01*
X467865Y84904D01*
X467846Y84842D01*
X467818Y84785D01*
X467807Y84715D01*
X467783Y84634D01*
X467782Y84549D01*
X467771Y84480D01*
X467771Y80724D01*
X467026Y79979D01*
X450974Y79979D01*
X450229Y80724D01*
X450229Y94776D01*
X450974Y95521D01*
X455730Y95521D01*
X455794Y95530D01*
X455858Y95529D01*
X455933Y95550D01*
X456009Y95561D01*
X456068Y95587D01*
X456130Y95604D01*
X456196Y95645D01*
X456266Y95677D01*
X456315Y95719D01*
X456370Y95752D01*
X456422Y95810D01*
X456480Y95860D01*
X456516Y95914D01*
X456559Y95962D01*
X456592Y96031D01*
X456635Y96096D01*
X456654Y96158D01*
X456682Y96215D01*
X456693Y96285D01*
X456717Y96366D01*
X456718Y96451D01*
X456729Y96520D01*
X456729Y97646D01*
X456716Y97740D01*
X456711Y97837D01*
X456696Y97880D01*
X456689Y97925D01*
X456650Y98012D01*
X456618Y98103D01*
X456593Y98138D01*
X456573Y98182D01*
X456490Y98279D01*
X456437Y98352D01*
X453352Y101437D01*
X453275Y101494D01*
X453204Y101559D01*
X453163Y101579D01*
X453127Y101606D01*
X453036Y101640D01*
X452950Y101682D01*
X452908Y101688D01*
X452863Y101705D01*
X452735Y101715D01*
X452646Y101729D01*
X275059Y101729D01*
X181352Y195437D01*
X181275Y195494D01*
X181204Y195559D01*
X181163Y195579D01*
X181127Y195606D01*
X181036Y195640D01*
X180950Y195682D01*
X180908Y195688D01*
X180863Y195705D01*
X180735Y195715D01*
X180646Y195729D01*
X97059Y195729D01*
X86729Y206059D01*
X86729Y208327D01*
X86720Y208391D01*
X86721Y208455D01*
X86700Y208530D01*
X86689Y208607D01*
X86663Y208665D01*
X86646Y208727D01*
X86605Y208793D01*
X86573Y208863D01*
X86531Y208912D01*
X86498Y208967D01*
X86440Y209019D01*
X86390Y209078D01*
X86336Y209113D01*
X86288Y209156D01*
X86219Y209190D01*
X86154Y209232D01*
X86092Y209251D01*
X86035Y209279D01*
X85965Y209290D01*
X85884Y209315D01*
X85799Y209316D01*
X85730Y209327D01*
X83539Y209327D01*
X83122Y209744D01*
X83071Y209782D01*
X83026Y209828D01*
X82959Y209866D01*
X82897Y209913D01*
X82837Y209936D01*
X82781Y209967D01*
X82705Y209985D01*
X82633Y210012D01*
X82569Y210017D01*
X82506Y210032D01*
X82429Y210028D01*
X82352Y210034D01*
X82289Y210021D01*
X82225Y210018D01*
X82151Y209992D01*
X82076Y209977D01*
X82019Y209946D01*
X81958Y209925D01*
X81901Y209884D01*
X81827Y209844D01*
X81766Y209785D01*
X81709Y209744D01*
X81292Y209327D01*
X70839Y209327D01*
X70095Y210071D01*
X70095Y227124D01*
X70839Y227868D01*
X72718Y227868D01*
X72750Y227873D01*
X72782Y227870D01*
X72889Y227892D01*
X72997Y227908D01*
X73026Y227921D01*
X73058Y227928D01*
X73154Y227979D01*
X73254Y228024D01*
X73279Y228045D01*
X73307Y228060D01*
X73385Y228136D01*
X73468Y228207D01*
X73486Y228234D01*
X73509Y228257D01*
X73563Y228352D01*
X73623Y228443D01*
X73632Y228474D01*
X73648Y228502D01*
X73673Y228609D01*
X73705Y228713D01*
X73706Y228745D01*
X73713Y228777D01*
X73707Y228886D01*
X73709Y228995D01*
X73700Y229026D01*
X73699Y229058D01*
X73663Y229161D01*
X73634Y229267D01*
X73617Y229294D01*
X73606Y229325D01*
X73553Y229398D01*
X73486Y229507D01*
X73450Y229539D01*
X73424Y229574D01*
X72463Y230535D01*
X72463Y233465D01*
X74535Y235537D01*
X77465Y235537D01*
X79537Y233465D01*
X79537Y230535D01*
X78576Y229574D01*
X78556Y229548D01*
X78532Y229527D01*
X78472Y229436D01*
X78406Y229348D01*
X78395Y229318D01*
X78377Y229291D01*
X78345Y229187D01*
X78307Y229084D01*
X78304Y229052D01*
X78295Y229021D01*
X78293Y228912D01*
X78285Y228803D01*
X78292Y228772D01*
X78291Y228739D01*
X78320Y228634D01*
X78343Y228527D01*
X78358Y228499D01*
X78366Y228468D01*
X78424Y228375D01*
X78475Y228278D01*
X78498Y228255D01*
X78514Y228228D01*
X78595Y228155D01*
X78672Y228076D01*
X78700Y228060D01*
X78724Y228039D01*
X78822Y227991D01*
X78917Y227937D01*
X78949Y227930D01*
X78978Y227916D01*
X79067Y227902D01*
X79192Y227872D01*
X79240Y227875D01*
X79282Y227868D01*
X81292Y227868D01*
X81709Y227451D01*
X81760Y227412D01*
X81805Y227366D01*
X81873Y227328D01*
X81935Y227282D01*
X81995Y227259D01*
X82051Y227227D01*
X82126Y227209D01*
X82199Y227182D01*
X82263Y227177D01*
X82325Y227162D01*
X82403Y227166D01*
X82480Y227160D01*
X82543Y227173D01*
X82607Y227177D01*
X82680Y227202D01*
X82756Y227218D01*
X82813Y227248D01*
X82873Y227269D01*
X82930Y227311D01*
X83005Y227350D01*
X83066Y227410D01*
X83122Y227451D01*
X83539Y227868D01*
X93992Y227868D01*
X94409Y227451D01*
X94460Y227412D01*
X94505Y227366D01*
X94573Y227328D01*
X94635Y227282D01*
X94695Y227259D01*
X94751Y227227D01*
X94826Y227209D01*
X94899Y227182D01*
X94963Y227177D01*
X95025Y227162D01*
X95103Y227166D01*
X95180Y227160D01*
X95243Y227173D01*
X95307Y227177D01*
X95380Y227202D01*
X95456Y227218D01*
X95513Y227248D01*
X95573Y227269D01*
X95630Y227311D01*
X95705Y227350D01*
X95766Y227410D01*
X95822Y227451D01*
X96239Y227868D01*
X98196Y227868D01*
X98259Y227877D01*
X98324Y227876D01*
X98398Y227897D01*
X98475Y227908D01*
X98533Y227934D01*
X98595Y227951D01*
X98661Y227992D01*
X98732Y228024D01*
X98781Y228066D01*
X98835Y228100D01*
X98887Y228157D01*
X98946Y228207D01*
X98981Y228261D01*
X99024Y228309D01*
X99058Y228379D01*
X99101Y228443D01*
X99119Y228505D01*
X99147Y228563D01*
X99158Y228632D01*
X99183Y228713D01*
X99184Y228798D01*
X99195Y228867D01*
X99195Y235406D01*
X103737Y239948D01*
X103794Y240025D01*
X103859Y240096D01*
X103879Y240137D01*
X103906Y240173D01*
X103940Y240264D01*
X103982Y240350D01*
X103988Y240392D01*
X104005Y240437D01*
X104015Y240565D01*
X104029Y240654D01*
X104029Y249480D01*
X104021Y249539D01*
X104021Y249551D01*
X104020Y249553D01*
X104021Y249608D01*
X104000Y249683D01*
X103989Y249759D01*
X103963Y249818D01*
X103946Y249880D01*
X103905Y249946D01*
X103873Y250016D01*
X103831Y250065D01*
X103798Y250120D01*
X103740Y250172D01*
X103690Y250230D01*
X103636Y250266D01*
X103588Y250309D01*
X103519Y250342D01*
X103454Y250385D01*
X103392Y250404D01*
X103335Y250432D01*
X103265Y250443D01*
X103184Y250467D01*
X103099Y250468D01*
X103030Y250479D01*
X100503Y250479D01*
X98106Y251472D01*
X96272Y253306D01*
X95279Y255703D01*
X95279Y258297D01*
X96272Y260694D01*
X96291Y260719D01*
X96316Y260740D01*
X96376Y260832D01*
X96441Y260919D01*
X96452Y260949D01*
X96470Y260976D01*
X96502Y261081D01*
X96541Y261183D01*
X96543Y261215D01*
X96552Y261246D01*
X96554Y261355D01*
X96562Y261464D01*
X96556Y261496D01*
X96556Y261528D01*
X96527Y261633D01*
X96505Y261740D01*
X96490Y261769D01*
X96481Y261800D01*
X96424Y261893D01*
X96372Y261989D01*
X96350Y262012D01*
X96333Y262040D01*
X96252Y262113D01*
X96176Y262191D01*
X96147Y262207D01*
X96124Y262229D01*
X96025Y262276D01*
X95930Y262330D01*
X95899Y262338D01*
X95870Y262352D01*
X95780Y262366D01*
X95656Y262395D01*
X95607Y262393D01*
X95565Y262399D01*
X65810Y262399D01*
X65778Y262395D01*
X65746Y262397D01*
X65639Y262375D01*
X65531Y262359D01*
X65502Y262346D01*
X65470Y262340D01*
X65374Y262288D01*
X65274Y262243D01*
X65250Y262222D01*
X65221Y262207D01*
X65143Y262131D01*
X65060Y262060D01*
X65042Y262033D01*
X65019Y262010D01*
X64965Y261915D01*
X64905Y261824D01*
X64896Y261793D01*
X64880Y261765D01*
X64855Y261659D01*
X64823Y261554D01*
X64822Y261522D01*
X64815Y261491D01*
X64821Y261381D01*
X64819Y261272D01*
X64828Y261241D01*
X64829Y261209D01*
X64865Y261106D01*
X64894Y261000D01*
X64911Y260973D01*
X64922Y260942D01*
X64975Y260869D01*
X65043Y260760D01*
X65079Y260728D01*
X65104Y260693D01*
X66021Y259776D01*
X66021Y242724D01*
X65276Y241979D01*
X51224Y241979D01*
X50479Y242724D01*
X50479Y247710D01*
X50470Y247774D01*
X50471Y247838D01*
X50450Y247913D01*
X50439Y247989D01*
X50413Y248048D01*
X50396Y248110D01*
X50355Y248176D01*
X50323Y248246D01*
X50281Y248295D01*
X50248Y248350D01*
X50190Y248402D01*
X50140Y248460D01*
X50086Y248496D01*
X50038Y248539D01*
X49969Y248572D01*
X49904Y248615D01*
X49842Y248634D01*
X49785Y248662D01*
X49715Y248673D01*
X49634Y248697D01*
X49549Y248698D01*
X49480Y248709D01*
X47770Y248709D01*
X47706Y248700D01*
X47642Y248701D01*
X47567Y248680D01*
X47491Y248669D01*
X47432Y248643D01*
X47370Y248626D01*
X47304Y248585D01*
X47234Y248553D01*
X47185Y248511D01*
X47130Y248478D01*
X47078Y248420D01*
X47020Y248370D01*
X46984Y248316D01*
X46941Y248268D01*
X46908Y248199D01*
X46865Y248134D01*
X46846Y248072D01*
X46818Y248015D01*
X46807Y247945D01*
X46783Y247864D01*
X46782Y247779D01*
X46771Y247710D01*
X46771Y244724D01*
X46026Y243979D01*
X32974Y243979D01*
X32229Y244724D01*
X32229Y257776D01*
X32974Y258521D01*
X46026Y258521D01*
X46771Y257776D01*
X46771Y254790D01*
X46780Y254726D01*
X46779Y254662D01*
X46800Y254587D01*
X46811Y254511D01*
X46837Y254452D01*
X46854Y254390D01*
X46895Y254324D01*
X46927Y254254D01*
X46969Y254205D01*
X47002Y254150D01*
X47060Y254098D01*
X47110Y254040D01*
X47164Y254004D01*
X47212Y253961D01*
X47281Y253928D01*
X47346Y253885D01*
X47408Y253866D01*
X47465Y253838D01*
X47535Y253827D01*
X47616Y253803D01*
X47701Y253802D01*
X47770Y253791D01*
X49480Y253791D01*
X49544Y253800D01*
X49608Y253799D01*
X49683Y253820D01*
X49759Y253831D01*
X49818Y253857D01*
X49880Y253874D01*
X49946Y253915D01*
X50016Y253947D01*
X50065Y253989D01*
X50120Y254022D01*
X50172Y254080D01*
X50230Y254130D01*
X50266Y254184D01*
X50309Y254232D01*
X50342Y254301D01*
X50385Y254366D01*
X50404Y254428D01*
X50432Y254485D01*
X50443Y254555D01*
X50467Y254636D01*
X50468Y254721D01*
X50479Y254790D01*
X50479Y259776D01*
X51396Y260693D01*
X51416Y260719D01*
X51440Y260740D01*
X51500Y260832D01*
X51566Y260919D01*
X51577Y260949D01*
X51595Y260976D01*
X51627Y261081D01*
X51665Y261183D01*
X51668Y261215D01*
X51677Y261246D01*
X51679Y261355D01*
X51687Y261464D01*
X51680Y261496D01*
X51681Y261528D01*
X51652Y261633D01*
X51629Y261740D01*
X51614Y261769D01*
X51606Y261800D01*
X51548Y261893D01*
X51497Y261989D01*
X51474Y262012D01*
X51457Y262040D01*
X51377Y262113D01*
X51300Y262191D01*
X51272Y262207D01*
X51248Y262229D01*
X51150Y262276D01*
X51055Y262330D01*
X51023Y262338D01*
X50994Y262352D01*
X50905Y262366D01*
X50780Y262395D01*
X50732Y262393D01*
X50690Y262399D01*
X8850Y262399D01*
X8786Y262390D01*
X8722Y262391D01*
X8647Y262370D01*
X8571Y262359D01*
X8512Y262333D01*
X8450Y262316D01*
X8384Y262275D01*
X8314Y262243D01*
X8265Y262201D01*
X8210Y262168D01*
X8158Y262110D01*
X8100Y262060D01*
X8064Y262006D01*
X8021Y261958D01*
X7988Y261889D01*
X7945Y261824D01*
X7926Y261762D01*
X7898Y261705D01*
X7887Y261635D01*
X7863Y261554D01*
X7862Y261469D01*
X7851Y261400D01*
X7851Y55000D01*
X7860Y54936D01*
X7859Y54872D01*
X7880Y54797D01*
X7891Y54721D01*
X7917Y54662D01*
X7934Y54600D01*
X7975Y54534D01*
X8007Y54464D01*
X8049Y54415D01*
X8082Y54360D01*
X8140Y54308D01*
X8190Y54250D01*
X8244Y54214D01*
X8292Y54171D01*
X8361Y54138D01*
X8426Y54095D01*
X8488Y54076D01*
X8545Y54048D01*
X8615Y54037D01*
X8696Y54013D01*
X8781Y54012D01*
X8850Y54001D01*
X41376Y54001D01*
X41470Y54014D01*
X41567Y54019D01*
X41610Y54034D01*
X41655Y54041D01*
X41742Y54080D01*
X41833Y54112D01*
X41868Y54137D01*
X41912Y54157D01*
X42009Y54240D01*
X42082Y54293D01*
X56437Y68648D01*
X58059Y70271D01*
X85941Y70271D01*
X91036Y65175D01*
X91036Y64677D01*
X91045Y64614D01*
X91045Y64549D01*
X91065Y64475D01*
X91076Y64398D01*
X91103Y64340D01*
X91120Y64278D01*
X91161Y64212D01*
X91192Y64141D01*
X91234Y64092D01*
X91268Y64038D01*
X91325Y63986D01*
X91376Y63927D01*
X91430Y63892D01*
X91477Y63849D01*
X91547Y63815D01*
X91612Y63772D01*
X91673Y63754D01*
X91731Y63726D01*
X91800Y63715D01*
X91882Y63690D01*
X91966Y63689D01*
X92036Y63678D01*
X93992Y63678D01*
X94409Y63261D01*
X94460Y63222D01*
X94505Y63176D01*
X94573Y63138D01*
X94635Y63092D01*
X94695Y63069D01*
X94751Y63037D01*
X94826Y63019D01*
X94899Y62992D01*
X94963Y62987D01*
X95025Y62972D01*
X95103Y62976D01*
X95180Y62970D01*
X95243Y62983D01*
X95307Y62987D01*
X95380Y63012D01*
X95456Y63028D01*
X95513Y63058D01*
X95573Y63079D01*
X95630Y63121D01*
X95705Y63160D01*
X95766Y63220D01*
X95822Y63261D01*
X96239Y63678D01*
X97730Y63678D01*
X97794Y63687D01*
X97858Y63686D01*
X97933Y63707D01*
X98009Y63718D01*
X98068Y63744D01*
X98130Y63761D01*
X98196Y63802D01*
X98266Y63834D01*
X98315Y63876D01*
X98370Y63910D01*
X98422Y63967D01*
X98480Y64017D01*
X98516Y64071D01*
X98559Y64119D01*
X98592Y64189D01*
X98635Y64253D01*
X98654Y64315D01*
X98682Y64373D01*
X98693Y64442D01*
X98717Y64523D01*
X98718Y64608D01*
X98729Y64677D01*
X98729Y64855D01*
X98716Y64950D01*
X98711Y65046D01*
X98696Y65089D01*
X98689Y65134D01*
X98650Y65222D01*
X98618Y65313D01*
X98593Y65347D01*
X98573Y65391D01*
X98490Y65489D01*
X98437Y65562D01*
X97463Y66535D01*
X97463Y69465D01*
X99535Y71537D01*
X102465Y71537D01*
X104537Y69465D01*
X104537Y66535D01*
X103563Y65562D01*
X103506Y65485D01*
X103441Y65413D01*
X103421Y65373D01*
X103394Y65336D01*
X103360Y65246D01*
X103318Y65160D01*
X103312Y65118D01*
X103295Y65072D01*
X103285Y64945D01*
X103271Y64855D01*
X103271Y64677D01*
X103280Y64614D01*
X103279Y64549D01*
X103300Y64475D01*
X103311Y64398D01*
X103337Y64340D01*
X103354Y64278D01*
X103395Y64212D01*
X103427Y64141D01*
X103469Y64092D01*
X103502Y64038D01*
X103560Y63986D01*
X103610Y63927D01*
X103664Y63892D01*
X103712Y63849D01*
X103781Y63815D01*
X103846Y63772D01*
X103908Y63754D01*
X103965Y63726D01*
X104035Y63715D01*
X104116Y63690D01*
X104201Y63689D01*
X104270Y63678D01*
X106692Y63678D01*
X107109Y63261D01*
X107160Y63222D01*
X107205Y63176D01*
X107273Y63138D01*
X107335Y63092D01*
X107395Y63069D01*
X107451Y63037D01*
X107526Y63019D01*
X107599Y62992D01*
X107663Y62987D01*
X107725Y62972D01*
X107803Y62976D01*
X107880Y62970D01*
X107943Y62983D01*
X108007Y62987D01*
X108080Y63012D01*
X108156Y63028D01*
X108213Y63058D01*
X108273Y63079D01*
X108330Y63121D01*
X108405Y63160D01*
X108466Y63220D01*
X108522Y63261D01*
X108939Y63678D01*
X109908Y63678D01*
X109940Y63683D01*
X109972Y63680D01*
X110079Y63702D01*
X110187Y63718D01*
X110216Y63731D01*
X110248Y63738D01*
X110345Y63789D01*
X110444Y63834D01*
X110469Y63855D01*
X110497Y63870D01*
X110575Y63946D01*
X110658Y64017D01*
X110676Y64044D01*
X110699Y64067D01*
X110753Y64162D01*
X110813Y64253D01*
X110822Y64284D01*
X110838Y64312D01*
X110863Y64419D01*
X110895Y64523D01*
X110896Y64555D01*
X110903Y64587D01*
X110897Y64696D01*
X110899Y64805D01*
X110890Y64836D01*
X110889Y64868D01*
X110853Y64972D01*
X110824Y65077D01*
X110807Y65104D01*
X110796Y65135D01*
X110743Y65208D01*
X110676Y65317D01*
X110640Y65349D01*
X110614Y65384D01*
X110463Y65535D01*
X110463Y68465D01*
X112535Y70537D01*
X115465Y70537D01*
X117537Y68465D01*
X117537Y65535D01*
X117386Y65384D01*
X117366Y65358D01*
X117342Y65337D01*
X117282Y65246D01*
X117216Y65158D01*
X117205Y65128D01*
X117187Y65101D01*
X117155Y64997D01*
X117117Y64894D01*
X117114Y64862D01*
X117105Y64831D01*
X117103Y64722D01*
X117095Y64613D01*
X117102Y64582D01*
X117101Y64549D01*
X117130Y64444D01*
X117153Y64337D01*
X117168Y64309D01*
X117176Y64278D01*
X117234Y64185D01*
X117285Y64088D01*
X117307Y64065D01*
X117324Y64038D01*
X117406Y63964D01*
X117482Y63886D01*
X117510Y63870D01*
X117534Y63849D01*
X117632Y63801D01*
X117727Y63747D01*
X117758Y63740D01*
X117788Y63726D01*
X117877Y63712D01*
X118002Y63682D01*
X118050Y63685D01*
X118092Y63678D01*
X119392Y63678D01*
X119809Y63261D01*
X119860Y63222D01*
X119905Y63176D01*
X119973Y63138D01*
X120035Y63092D01*
X120095Y63069D01*
X120151Y63037D01*
X120226Y63019D01*
X120299Y62992D01*
X120363Y62987D01*
X120425Y62972D01*
X120503Y62976D01*
X120580Y62970D01*
X120642Y62983D01*
X120707Y62987D01*
X120780Y63012D01*
X120856Y63028D01*
X120913Y63058D01*
X120973Y63079D01*
X121030Y63121D01*
X121105Y63160D01*
X121166Y63220D01*
X121222Y63261D01*
X121639Y63678D01*
X123596Y63678D01*
X123659Y63687D01*
X123724Y63686D01*
X123798Y63707D01*
X123875Y63718D01*
X123933Y63744D01*
X123995Y63761D01*
X124061Y63802D01*
X124132Y63834D01*
X124181Y63876D01*
X124235Y63910D01*
X124287Y63967D01*
X124346Y64017D01*
X124381Y64071D01*
X124424Y64119D01*
X124458Y64189D01*
X124501Y64253D01*
X124519Y64315D01*
X124547Y64373D01*
X124558Y64442D01*
X124583Y64523D01*
X124584Y64608D01*
X124595Y64677D01*
X124595Y88780D01*
X124581Y88875D01*
X124577Y88971D01*
X124562Y89014D01*
X124555Y89059D01*
X124516Y89147D01*
X124484Y89237D01*
X124459Y89272D01*
X124439Y89316D01*
X124356Y89413D01*
X124302Y89486D01*
X113352Y100437D01*
X113275Y100494D01*
X113204Y100559D01*
X113163Y100579D01*
X113127Y100606D01*
X113036Y100640D01*
X112950Y100682D01*
X112908Y100688D01*
X112863Y100705D01*
X112735Y100715D01*
X112646Y100729D01*
X107145Y100729D01*
X107050Y100716D01*
X106954Y100711D01*
X106911Y100696D01*
X106866Y100689D01*
X106778Y100650D01*
X106687Y100618D01*
X106653Y100593D01*
X106609Y100573D01*
X106511Y100490D01*
X106438Y100437D01*
X105465Y99463D01*
X102535Y99463D01*
X100463Y101535D01*
X100463Y104525D01*
X100472Y104549D01*
X100490Y104576D01*
X100522Y104681D01*
X100561Y104783D01*
X100563Y104815D01*
X100572Y104846D01*
X100574Y104955D01*
X100582Y105064D01*
X100576Y105096D01*
X100576Y105128D01*
X100547Y105233D01*
X100525Y105340D01*
X100510Y105369D01*
X100501Y105400D01*
X100444Y105493D01*
X100392Y105589D01*
X100370Y105612D01*
X100353Y105640D01*
X100272Y105713D01*
X100196Y105791D01*
X100168Y105807D01*
X100144Y105829D01*
X100045Y105876D01*
X99950Y105930D01*
X99919Y105938D01*
X99890Y105952D01*
X99800Y105966D01*
X99676Y105995D01*
X99627Y105993D01*
X99585Y105999D01*
X97624Y105999D01*
X97530Y105986D01*
X97433Y105981D01*
X97390Y105966D01*
X97345Y105959D01*
X97258Y105920D01*
X97167Y105888D01*
X97132Y105863D01*
X97088Y105843D01*
X96991Y105760D01*
X96918Y105707D01*
X89563Y98352D01*
X89506Y98275D01*
X89441Y98204D01*
X89421Y98163D01*
X89394Y98127D01*
X89360Y98036D01*
X89318Y97950D01*
X89312Y97908D01*
X89295Y97863D01*
X89285Y97735D01*
X89271Y97646D01*
X89271Y88145D01*
X89284Y88050D01*
X89289Y87954D01*
X89304Y87911D01*
X89311Y87866D01*
X89350Y87778D01*
X89382Y87687D01*
X89407Y87653D01*
X89427Y87609D01*
X89510Y87511D01*
X89563Y87438D01*
X90537Y86465D01*
X90537Y83535D01*
X88465Y81463D01*
X85535Y81463D01*
X83463Y83535D01*
X83463Y86465D01*
X84437Y87438D01*
X84494Y87515D01*
X84559Y87587D01*
X84579Y87627D01*
X84606Y87664D01*
X84640Y87754D01*
X84682Y87840D01*
X84688Y87882D01*
X84705Y87928D01*
X84715Y88055D01*
X84729Y88145D01*
X84729Y99941D01*
X95329Y110541D01*
X114295Y110541D01*
X132406Y92429D01*
X132406Y77219D01*
X132420Y77124D01*
X132425Y77028D01*
X132440Y76985D01*
X132446Y76940D01*
X132486Y76852D01*
X132517Y76761D01*
X132542Y76727D01*
X132562Y76683D01*
X132646Y76585D01*
X132699Y76512D01*
X141836Y67375D01*
X141836Y64677D01*
X141845Y64614D01*
X141845Y64549D01*
X141865Y64475D01*
X141876Y64398D01*
X141903Y64340D01*
X141920Y64278D01*
X141961Y64212D01*
X141992Y64141D01*
X142034Y64092D01*
X142068Y64038D01*
X142125Y63986D01*
X142176Y63927D01*
X142230Y63892D01*
X142277Y63849D01*
X142347Y63815D01*
X142412Y63772D01*
X142473Y63754D01*
X142531Y63726D01*
X142600Y63715D01*
X142682Y63690D01*
X142766Y63689D01*
X142836Y63678D01*
X144792Y63678D01*
X145209Y63261D01*
X145260Y63222D01*
X145305Y63176D01*
X145373Y63138D01*
X145435Y63092D01*
X145495Y63069D01*
X145551Y63037D01*
X145626Y63019D01*
X145699Y62992D01*
X145763Y62987D01*
X145825Y62972D01*
X145903Y62976D01*
X145980Y62970D01*
X146043Y62983D01*
X146107Y62987D01*
X146180Y63012D01*
X146256Y63028D01*
X146313Y63058D01*
X146373Y63079D01*
X146430Y63121D01*
X146505Y63160D01*
X146566Y63220D01*
X146622Y63261D01*
X147039Y63678D01*
X157492Y63678D01*
X157909Y63261D01*
X157960Y63222D01*
X158005Y63176D01*
X158073Y63138D01*
X158135Y63092D01*
X158195Y63069D01*
X158251Y63037D01*
X158326Y63019D01*
X158399Y62992D01*
X158463Y62987D01*
X158525Y62972D01*
X158603Y62976D01*
X158680Y62970D01*
X158743Y62983D01*
X158807Y62987D01*
X158880Y63012D01*
X158956Y63028D01*
X159013Y63058D01*
X159073Y63079D01*
X159130Y63121D01*
X159205Y63160D01*
X159266Y63220D01*
X159322Y63261D01*
X159739Y63678D01*
X161680Y63678D01*
X161743Y63687D01*
X161808Y63686D01*
X161882Y63707D01*
X161959Y63718D01*
X162017Y63744D01*
X162079Y63761D01*
X162145Y63802D01*
X162216Y63834D01*
X162265Y63876D01*
X162319Y63910D01*
X162371Y63967D01*
X162430Y64017D01*
X162465Y64071D01*
X162508Y64119D01*
X162542Y64189D01*
X162585Y64253D01*
X162603Y64315D01*
X162631Y64373D01*
X162642Y64442D01*
X162667Y64523D01*
X162668Y64608D01*
X162679Y64677D01*
X162679Y66913D01*
X177053Y81287D01*
X415005Y81287D01*
X453157Y43135D01*
X453233Y43078D01*
X453305Y43013D01*
X453346Y42993D01*
X453382Y42966D01*
X453472Y42932D01*
X453559Y42890D01*
X453601Y42884D01*
X453646Y42867D01*
X453774Y42857D01*
X453863Y42843D01*
X475391Y42843D01*
X487637Y30597D01*
X487637Y30269D01*
X487638Y30260D01*
X487637Y30250D01*
X487658Y30120D01*
X487677Y29990D01*
X487680Y29981D01*
X487682Y29972D01*
X487739Y29853D01*
X487793Y29733D01*
X487799Y29726D01*
X487803Y29717D01*
X487891Y29619D01*
X487976Y29519D01*
X487984Y29513D01*
X487990Y29506D01*
X488056Y29466D01*
X488212Y29364D01*
X488235Y29357D01*
X488254Y29346D01*
X489667Y28761D01*
X491693Y26734D01*
X491745Y26695D01*
X491790Y26649D01*
X491857Y26611D01*
X491919Y26565D01*
X491979Y26542D01*
X492035Y26510D01*
X492110Y26492D01*
X492183Y26465D01*
X492247Y26460D01*
X492309Y26445D01*
X492387Y26449D01*
X492464Y26443D01*
X492527Y26456D01*
X492591Y26460D01*
X492664Y26485D01*
X492740Y26501D01*
X492797Y26531D01*
X492858Y26552D01*
X492914Y26594D01*
X492989Y26633D01*
X493050Y26693D01*
X493107Y26734D01*
X495283Y28911D01*
X495680Y29075D01*
X495689Y29080D01*
X495698Y29082D01*
X495810Y29152D01*
X495923Y29219D01*
X495930Y29226D01*
X495938Y29231D01*
X496026Y29329D01*
X496116Y29424D01*
X496120Y29433D01*
X496127Y29440D01*
X496184Y29559D01*
X496244Y29676D01*
X496246Y29685D01*
X496250Y29694D01*
X496262Y29770D01*
X496296Y29953D01*
X496294Y29977D01*
X496297Y29998D01*
X496297Y30934D01*
X496284Y31029D01*
X496279Y31125D01*
X496264Y31168D01*
X496257Y31213D01*
X496218Y31300D01*
X496186Y31391D01*
X496161Y31426D01*
X496141Y31470D01*
X496058Y31567D01*
X496005Y31640D01*
X495213Y32431D01*
X495213Y35569D01*
X497431Y37787D01*
X500569Y37787D01*
X502787Y35569D01*
X502787Y35298D01*
X502800Y35203D01*
X502805Y35107D01*
X502820Y35064D01*
X502827Y35019D01*
X502866Y34931D01*
X502898Y34840D01*
X502903Y34833D01*
X502903Y29998D01*
X502904Y29989D01*
X502903Y29979D01*
X502924Y29848D01*
X502943Y29719D01*
X502946Y29710D01*
X502948Y29701D01*
X503005Y29582D01*
X503059Y29462D01*
X503065Y29455D01*
X503069Y29446D01*
X503157Y29348D01*
X503242Y29248D01*
X503250Y29243D01*
X503256Y29236D01*
X503322Y29196D01*
X503478Y29093D01*
X503501Y29086D01*
X503520Y29075D01*
X503917Y28911D01*
X506061Y26767D01*
X507221Y23966D01*
X507221Y20934D01*
X506061Y18133D01*
X503917Y15989D01*
X501116Y14829D01*
X498084Y14829D01*
X495283Y15989D01*
X493257Y18016D01*
X493205Y18055D01*
X493160Y18101D01*
X493093Y18139D01*
X493031Y18185D01*
X492971Y18208D01*
X492915Y18240D01*
X492840Y18258D01*
X492767Y18285D01*
X492703Y18290D01*
X492640Y18305D01*
X492563Y18301D01*
X492486Y18307D01*
X492423Y18294D01*
X492359Y18290D01*
X492286Y18265D01*
X492210Y18249D01*
X492153Y18219D01*
X492092Y18198D01*
X492036Y18156D01*
X491961Y18117D01*
X491900Y18057D01*
X491843Y18016D01*
X489667Y15839D01*
X486866Y14679D01*
X483834Y14679D01*
X481033Y15839D01*
X478832Y18041D01*
X478780Y18080D01*
X478735Y18126D01*
X478668Y18164D01*
X478606Y18210D01*
X478546Y18233D01*
X478490Y18265D01*
X478415Y18283D01*
X478342Y18310D01*
X478278Y18315D01*
X478215Y18330D01*
X478138Y18326D01*
X478061Y18332D01*
X477998Y18319D01*
X477934Y18315D01*
X477861Y18290D01*
X477785Y18274D01*
X477728Y18244D01*
X477667Y18223D01*
X477611Y18181D01*
X477536Y18142D01*
X477475Y18082D01*
X477418Y18041D01*
X475367Y15989D01*
X472566Y14829D01*
X469534Y14829D01*
X466733Y15989D01*
X464607Y18116D01*
X464555Y18155D01*
X464510Y18201D01*
X464443Y18239D01*
X464381Y18285D01*
X464321Y18308D01*
X464265Y18340D01*
X464190Y18358D01*
X464117Y18385D01*
X464053Y18390D01*
X463990Y18405D01*
X463913Y18401D01*
X463836Y18407D01*
X463773Y18394D01*
X463709Y18390D01*
X463636Y18365D01*
X463560Y18349D01*
X463503Y18319D01*
X463442Y18298D01*
X463386Y18256D01*
X463311Y18217D01*
X463250Y18157D01*
X463193Y18116D01*
X461017Y15939D01*
X458216Y14779D01*
X455184Y14779D01*
X452383Y15939D01*
X450170Y18152D01*
X450162Y18167D01*
X450075Y18248D01*
X449993Y18333D01*
X449973Y18344D01*
X449956Y18360D01*
X449850Y18413D01*
X449747Y18472D01*
X449725Y18477D01*
X449705Y18487D01*
X449588Y18510D01*
X449473Y18537D01*
X449450Y18536D01*
X449428Y18540D01*
X449309Y18529D01*
X449191Y18522D01*
X449170Y18515D01*
X449147Y18513D01*
X449037Y18469D01*
X448925Y18430D01*
X448907Y18417D01*
X448885Y18408D01*
X448738Y18294D01*
X448676Y18248D01*
X446467Y16039D01*
X443666Y14879D01*
X440634Y14879D01*
X437833Y16039D01*
X435689Y18183D01*
X434529Y20984D01*
X434529Y24016D01*
X435689Y26817D01*
X437833Y28961D01*
X439246Y29546D01*
X439255Y29551D01*
X439264Y29553D01*
X439376Y29623D01*
X439489Y29690D01*
X439496Y29696D01*
X439504Y29701D01*
X439592Y29800D01*
X439682Y29895D01*
X439686Y29904D01*
X439693Y29911D01*
X439750Y30030D01*
X439810Y30147D01*
X439812Y30156D01*
X439816Y30165D01*
X439828Y30241D01*
X439862Y30424D01*
X439860Y30448D01*
X439863Y30469D01*
X439863Y34139D01*
X439850Y34234D01*
X439845Y34330D01*
X439830Y34373D01*
X439823Y34418D01*
X439784Y34506D01*
X439752Y34596D01*
X439727Y34631D01*
X439707Y34675D01*
X439624Y34772D01*
X439571Y34845D01*
X408995Y65421D01*
X408919Y65478D01*
X408847Y65543D01*
X408806Y65563D01*
X408770Y65590D01*
X408680Y65624D01*
X408593Y65666D01*
X408551Y65672D01*
X408506Y65689D01*
X408378Y65699D01*
X408289Y65713D01*
X310996Y65713D01*
X310964Y65709D01*
X310932Y65711D01*
X310825Y65689D01*
X310717Y65673D01*
X310688Y65660D01*
X310656Y65654D01*
X310559Y65602D01*
X310460Y65557D01*
X310436Y65536D01*
X310407Y65521D01*
X310329Y65445D01*
X310246Y65374D01*
X310228Y65347D01*
X310205Y65324D01*
X310151Y65229D01*
X310091Y65138D01*
X310082Y65107D01*
X310066Y65079D01*
X310041Y64973D01*
X310009Y64868D01*
X310008Y64836D01*
X310001Y64804D01*
X310007Y64695D01*
X310005Y64586D01*
X310014Y64555D01*
X310015Y64523D01*
X310051Y64420D01*
X310080Y64314D01*
X310097Y64287D01*
X310108Y64256D01*
X310161Y64183D01*
X310229Y64074D01*
X310265Y64042D01*
X310271Y64033D01*
X310271Y49000D01*
X310280Y48936D01*
X310279Y48872D01*
X310300Y48797D01*
X310311Y48721D01*
X310337Y48662D01*
X310354Y48600D01*
X310395Y48534D01*
X310427Y48464D01*
X310469Y48415D01*
X310502Y48360D01*
X310560Y48308D01*
X310610Y48250D01*
X310664Y48214D01*
X310712Y48171D01*
X310781Y48138D01*
X310846Y48095D01*
X310908Y48076D01*
X310965Y48048D01*
X311035Y48037D01*
X311116Y48013D01*
X311201Y48012D01*
X311270Y48001D01*
X344001Y48001D01*
X344001Y13600D01*
X344010Y13536D01*
X344009Y13472D01*
X344030Y13397D01*
X344041Y13321D01*
X344067Y13262D01*
X344084Y13200D01*
X344125Y13134D01*
X344157Y13064D01*
X344199Y13015D01*
X344232Y12960D01*
X344290Y12908D01*
X344340Y12850D01*
X344394Y12814D01*
X344442Y12771D01*
X344511Y12738D01*
X344576Y12695D01*
X344638Y12676D01*
X344695Y12648D01*
X344765Y12637D01*
X344846Y12613D01*
X344931Y12612D01*
X345000Y12601D01*
X521650Y12601D01*
X521714Y12610D01*
G37*
G36*
X537795Y58103D02*
X537795Y58103D01*
X537803Y58102D01*
X1163278Y101366D01*
X1163298Y101371D01*
X1163331Y101372D01*
X1167817Y101998D01*
X1167848Y102008D01*
X1167921Y102020D01*
X1172276Y103264D01*
X1172305Y103277D01*
X1172376Y103300D01*
X1176516Y105136D01*
X1176543Y105154D01*
X1176610Y105186D01*
X1180455Y107579D01*
X1180480Y107601D01*
X1180541Y107641D01*
X1184017Y110546D01*
X1184038Y110570D01*
X1184093Y110619D01*
X1187132Y113978D01*
X1187149Y114006D01*
X1187197Y114062D01*
X1187675Y114766D01*
X1188191Y115527D01*
X1188707Y116289D01*
X1188708Y116289D01*
X1189740Y117810D01*
X1189753Y117840D01*
X1189793Y117902D01*
X1191790Y121967D01*
X1191799Y121998D01*
X1191830Y122066D01*
X1193243Y126369D01*
X1193247Y126392D01*
X1193254Y126408D01*
X1193257Y126429D01*
X1193269Y126472D01*
X1194071Y130930D01*
X1194071Y130962D01*
X1194082Y131035D01*
X1194257Y135561D01*
X1194253Y135593D01*
X1194254Y135667D01*
X1193798Y140174D01*
X1193790Y140205D01*
X1193780Y140278D01*
X1192703Y144678D01*
X1192691Y144707D01*
X1192671Y144778D01*
X1190993Y148986D01*
X1190976Y149014D01*
X1190947Y149081D01*
X1188701Y153015D01*
X1188681Y153040D01*
X1188643Y153103D01*
X1185872Y156686D01*
X1185848Y156708D01*
X1185802Y156765D01*
X1182560Y159929D01*
X1182534Y159948D01*
X1182479Y159998D01*
X1178830Y162681D01*
X1178801Y162696D01*
X1178741Y162738D01*
X1174754Y164888D01*
X1174723Y164898D01*
X1174657Y164931D01*
X1170411Y166507D01*
X1170389Y166511D01*
X1170369Y166521D01*
X1170204Y166552D01*
X539058Y214816D01*
X539009Y214812D01*
X538961Y214818D01*
X538887Y214802D01*
X538813Y214795D01*
X538768Y214776D01*
X538720Y214765D01*
X538656Y214727D01*
X538587Y214697D01*
X538551Y214664D01*
X538509Y214639D01*
X538461Y214582D01*
X538405Y214532D01*
X538381Y214489D01*
X538349Y214452D01*
X538321Y214383D01*
X538285Y214318D01*
X538276Y214270D01*
X538257Y214224D01*
X538243Y214100D01*
X538239Y214076D01*
X538240Y214069D01*
X538239Y214057D01*
X538239Y178750D01*
X538239Y178749D01*
X538239Y178748D01*
X538260Y178623D01*
X538279Y178507D01*
X538279Y178506D01*
X538340Y178391D01*
X538394Y178290D01*
X538394Y178289D01*
X538486Y178202D01*
X538572Y178121D01*
X538573Y178120D01*
X538682Y178069D01*
X538795Y178017D01*
X538796Y178017D01*
X538796Y178016D01*
X538962Y177990D01*
X1165179Y146741D01*
X1167456Y146428D01*
X1169612Y145737D01*
X1171617Y144683D01*
X1173410Y143300D01*
X1174936Y141627D01*
X1176151Y139715D01*
X1177018Y137623D01*
X1177510Y135412D01*
X1177613Y133150D01*
X1177323Y130904D01*
X1176650Y128741D01*
X1175614Y126728D01*
X1174245Y124924D01*
X1172585Y123383D01*
X1170684Y122152D01*
X1168599Y121267D01*
X1166397Y120757D01*
X537717Y93261D01*
X537714Y93260D01*
X537711Y93260D01*
X537594Y93235D01*
X537476Y93210D01*
X537473Y93209D01*
X537470Y93208D01*
X537366Y93146D01*
X537264Y93086D01*
X537262Y93083D01*
X537259Y93082D01*
X537180Y92990D01*
X537102Y92900D01*
X537101Y92897D01*
X537099Y92895D01*
X537054Y92782D01*
X537009Y92673D01*
X537008Y92670D01*
X537007Y92667D01*
X536989Y92500D01*
X536989Y58862D01*
X536996Y58816D01*
X536994Y58770D01*
X537016Y58695D01*
X537029Y58619D01*
X537050Y58578D01*
X537063Y58534D01*
X537107Y58470D01*
X537144Y58402D01*
X537177Y58370D01*
X537204Y58332D01*
X537266Y58286D01*
X537322Y58232D01*
X537364Y58213D01*
X537401Y58185D01*
X537475Y58161D01*
X537545Y58129D01*
X537591Y58123D01*
X537635Y58109D01*
X537770Y58104D01*
X537789Y58101D01*
X537795Y58103D01*
G37*
G36*
X1162965Y125611D02*
X1162965Y125611D01*
X1162992Y125617D01*
X1163044Y125618D01*
X1164549Y125832D01*
X1164563Y125836D01*
X1164675Y125863D01*
X1164691Y125866D01*
X1164695Y125868D01*
X1164703Y125870D01*
X1166131Y126391D01*
X1166143Y126398D01*
X1166273Y126461D01*
X1167562Y127267D01*
X1167573Y127276D01*
X1167687Y127365D01*
X1168780Y128420D01*
X1168789Y128432D01*
X1168882Y128542D01*
X1169732Y129801D01*
X1169739Y129815D01*
X1169807Y129942D01*
X1170378Y131350D01*
X1170381Y131364D01*
X1170421Y131503D01*
X1170687Y132999D01*
X1170687Y133013D01*
X1170699Y133157D01*
X1170648Y134676D01*
X1170645Y134691D01*
X1170626Y134834D01*
X1170262Y136309D01*
X1170256Y136322D01*
X1170208Y136458D01*
X1169545Y137826D01*
X1169537Y137838D01*
X1169461Y137961D01*
X1168529Y139161D01*
X1168519Y139171D01*
X1168419Y139276D01*
X1167259Y140257D01*
X1167246Y140264D01*
X1167127Y140346D01*
X1165788Y141064D01*
X1165774Y141069D01*
X1165641Y141124D01*
X1164182Y141550D01*
X1164175Y141550D01*
X1164169Y141553D01*
X1164003Y141579D01*
X541534Y169511D01*
X541497Y169506D01*
X541461Y169510D01*
X541376Y169492D01*
X541290Y169482D01*
X541256Y169466D01*
X541220Y169458D01*
X541146Y169413D01*
X541068Y169376D01*
X541041Y169351D01*
X541009Y169332D01*
X540953Y169266D01*
X540890Y169206D01*
X540873Y169173D01*
X540849Y169145D01*
X540817Y169064D01*
X540777Y168988D01*
X540771Y168951D01*
X540757Y168917D01*
X540739Y168750D01*
X540739Y103750D01*
X540744Y103717D01*
X540742Y103683D01*
X540764Y103596D01*
X540779Y103507D01*
X540794Y103477D01*
X540803Y103445D01*
X540852Y103369D01*
X540894Y103290D01*
X540918Y103267D01*
X540936Y103238D01*
X541007Y103182D01*
X541072Y103121D01*
X541103Y103106D01*
X541129Y103085D01*
X541214Y103055D01*
X541295Y103017D01*
X541329Y103013D01*
X541360Y103002D01*
X541528Y102989D01*
X1162965Y125611D01*
G37*
G36*
X523064Y159010D02*
X523064Y159010D01*
X523128Y159009D01*
X523203Y159030D01*
X523279Y159041D01*
X523338Y159067D01*
X523400Y159084D01*
X523466Y159125D01*
X523536Y159157D01*
X523585Y159199D01*
X523640Y159232D01*
X523692Y159290D01*
X523750Y159340D01*
X523786Y159394D01*
X523829Y159442D01*
X523862Y159511D01*
X523905Y159576D01*
X523924Y159638D01*
X523952Y159695D01*
X523963Y159765D01*
X523987Y159846D01*
X523988Y159931D01*
X523999Y160000D01*
X523999Y239704D01*
X523999Y239707D01*
X523999Y239709D01*
X523994Y239744D01*
X523959Y239984D01*
X523953Y239999D01*
X523950Y240013D01*
X523899Y240170D01*
X523899Y261400D01*
X523890Y261464D01*
X523891Y261528D01*
X523870Y261603D01*
X523859Y261679D01*
X523833Y261738D01*
X523816Y261800D01*
X523775Y261866D01*
X523743Y261936D01*
X523701Y261985D01*
X523668Y262040D01*
X523610Y262092D01*
X523560Y262150D01*
X523506Y262186D01*
X523458Y262229D01*
X523389Y262262D01*
X523324Y262305D01*
X523262Y262324D01*
X523205Y262352D01*
X523135Y262363D01*
X523054Y262387D01*
X522969Y262388D01*
X522900Y262399D01*
X475224Y262399D01*
X475192Y262395D01*
X475160Y262397D01*
X475053Y262375D01*
X474945Y262359D01*
X474916Y262346D01*
X474884Y262340D01*
X474788Y262288D01*
X474688Y262243D01*
X474664Y262222D01*
X474635Y262207D01*
X474557Y262131D01*
X474474Y262060D01*
X474456Y262033D01*
X474433Y262010D01*
X474379Y261915D01*
X474320Y261824D01*
X474310Y261793D01*
X474294Y261765D01*
X474269Y261659D01*
X474237Y261554D01*
X474237Y261522D01*
X474229Y261491D01*
X474235Y261381D01*
X474233Y261272D01*
X474242Y261241D01*
X474244Y261209D01*
X474279Y261106D01*
X474309Y261000D01*
X474326Y260973D01*
X474336Y260942D01*
X474389Y260869D01*
X474457Y260760D01*
X474493Y260728D01*
X474518Y260693D01*
X477271Y257941D01*
X477271Y257270D01*
X477280Y257206D01*
X477279Y257142D01*
X477300Y257067D01*
X477311Y256991D01*
X477337Y256932D01*
X477354Y256870D01*
X477395Y256804D01*
X477427Y256734D01*
X477469Y256685D01*
X477502Y256630D01*
X477560Y256578D01*
X477610Y256520D01*
X477664Y256484D01*
X477712Y256441D01*
X477781Y256408D01*
X477846Y256365D01*
X477908Y256346D01*
X477965Y256318D01*
X478035Y256307D01*
X478116Y256283D01*
X478201Y256282D01*
X478270Y256271D01*
X479526Y256271D01*
X480271Y255526D01*
X480271Y234474D01*
X479526Y233729D01*
X470474Y233729D01*
X469729Y234474D01*
X469729Y255526D01*
X470226Y256023D01*
X470246Y256049D01*
X470270Y256070D01*
X470330Y256162D01*
X470396Y256249D01*
X470407Y256279D01*
X470425Y256306D01*
X470457Y256411D01*
X470495Y256513D01*
X470498Y256545D01*
X470507Y256576D01*
X470509Y256685D01*
X470517Y256794D01*
X470510Y256826D01*
X470511Y256858D01*
X470482Y256963D01*
X470459Y257070D01*
X470444Y257099D01*
X470436Y257130D01*
X470378Y257223D01*
X470327Y257319D01*
X470304Y257342D01*
X470287Y257370D01*
X470206Y257443D01*
X470130Y257521D01*
X470102Y257537D01*
X470078Y257559D01*
X469980Y257606D01*
X469885Y257660D01*
X469853Y257668D01*
X469824Y257682D01*
X469735Y257696D01*
X469610Y257725D01*
X469562Y257723D01*
X469520Y257729D01*
X410480Y257729D01*
X410448Y257725D01*
X410416Y257727D01*
X410309Y257705D01*
X410201Y257689D01*
X410172Y257676D01*
X410140Y257670D01*
X410044Y257618D01*
X409944Y257573D01*
X409920Y257552D01*
X409891Y257537D01*
X409813Y257461D01*
X409730Y257390D01*
X409712Y257363D01*
X409689Y257340D01*
X409635Y257245D01*
X409575Y257154D01*
X409566Y257123D01*
X409550Y257095D01*
X409525Y256989D01*
X409493Y256884D01*
X409492Y256852D01*
X409485Y256821D01*
X409491Y256711D01*
X409489Y256602D01*
X409498Y256571D01*
X409499Y256539D01*
X409535Y256436D01*
X409564Y256330D01*
X409581Y256303D01*
X409592Y256272D01*
X409645Y256199D01*
X409713Y256090D01*
X409749Y256058D01*
X409774Y256023D01*
X410271Y255526D01*
X410271Y234474D01*
X409526Y233729D01*
X400474Y233729D01*
X399729Y234474D01*
X399729Y241730D01*
X399720Y241794D01*
X399721Y241858D01*
X399700Y241933D01*
X399689Y242009D01*
X399663Y242068D01*
X399646Y242130D01*
X399605Y242196D01*
X399573Y242266D01*
X399531Y242315D01*
X399498Y242370D01*
X399440Y242422D01*
X399390Y242480D01*
X399336Y242516D01*
X399288Y242559D01*
X399219Y242592D01*
X399154Y242635D01*
X399092Y242654D01*
X399035Y242682D01*
X398965Y242693D01*
X398884Y242717D01*
X398799Y242718D01*
X398730Y242729D01*
X394145Y242729D01*
X394050Y242716D01*
X393954Y242711D01*
X393911Y242696D01*
X393866Y242689D01*
X393778Y242650D01*
X393687Y242618D01*
X393653Y242593D01*
X393609Y242573D01*
X393511Y242490D01*
X393438Y242437D01*
X392465Y241463D01*
X389535Y241463D01*
X387463Y243535D01*
X387463Y246465D01*
X389535Y248537D01*
X392465Y248537D01*
X393438Y247563D01*
X393515Y247506D01*
X393587Y247441D01*
X393627Y247421D01*
X393664Y247394D01*
X393754Y247360D01*
X393840Y247318D01*
X393882Y247312D01*
X393928Y247295D01*
X394055Y247285D01*
X394145Y247271D01*
X398730Y247271D01*
X398794Y247280D01*
X398858Y247279D01*
X398933Y247300D01*
X399009Y247311D01*
X399068Y247337D01*
X399130Y247354D01*
X399196Y247395D01*
X399266Y247427D01*
X399315Y247469D01*
X399370Y247502D01*
X399422Y247560D01*
X399480Y247610D01*
X399516Y247664D01*
X399559Y247712D01*
X399592Y247781D01*
X399635Y247846D01*
X399654Y247908D01*
X399682Y247965D01*
X399693Y248035D01*
X399717Y248116D01*
X399718Y248201D01*
X399729Y248270D01*
X399729Y255526D01*
X400226Y256023D01*
X400246Y256049D01*
X400270Y256070D01*
X400330Y256162D01*
X400396Y256249D01*
X400407Y256279D01*
X400425Y256306D01*
X400457Y256411D01*
X400495Y256513D01*
X400498Y256545D01*
X400507Y256576D01*
X400509Y256685D01*
X400517Y256794D01*
X400510Y256826D01*
X400511Y256858D01*
X400482Y256963D01*
X400459Y257070D01*
X400444Y257099D01*
X400436Y257130D01*
X400378Y257223D01*
X400327Y257319D01*
X400304Y257342D01*
X400287Y257370D01*
X400206Y257443D01*
X400130Y257521D01*
X400102Y257537D01*
X400078Y257559D01*
X399980Y257606D01*
X399885Y257660D01*
X399853Y257668D01*
X399824Y257682D01*
X399735Y257696D01*
X399610Y257725D01*
X399562Y257723D01*
X399520Y257729D01*
X286354Y257729D01*
X286260Y257716D01*
X286163Y257711D01*
X286120Y257696D01*
X286075Y257689D01*
X285988Y257650D01*
X285897Y257618D01*
X285862Y257593D01*
X285818Y257573D01*
X285721Y257490D01*
X285648Y257437D01*
X273941Y245729D01*
X243354Y245729D01*
X243260Y245716D01*
X243163Y245711D01*
X243120Y245696D01*
X243075Y245689D01*
X242988Y245650D01*
X242897Y245618D01*
X242862Y245593D01*
X242818Y245573D01*
X242721Y245490D01*
X242648Y245437D01*
X231029Y233818D01*
X230971Y233741D01*
X230907Y233670D01*
X230887Y233629D01*
X230860Y233592D01*
X230826Y233502D01*
X230784Y233416D01*
X230777Y233374D01*
X230760Y233328D01*
X230750Y233201D01*
X230736Y233111D01*
X230736Y228867D01*
X230745Y228804D01*
X230745Y228739D01*
X230765Y228665D01*
X230776Y228588D01*
X230803Y228530D01*
X230820Y228468D01*
X230861Y228402D01*
X230892Y228331D01*
X230934Y228282D01*
X230968Y228228D01*
X231025Y228176D01*
X231076Y228117D01*
X231130Y228082D01*
X231177Y228039D01*
X231247Y228005D01*
X231312Y227962D01*
X231373Y227944D01*
X231431Y227916D01*
X231500Y227905D01*
X231582Y227880D01*
X231666Y227879D01*
X231736Y227868D01*
X233692Y227868D01*
X234164Y227396D01*
X234216Y227357D01*
X234260Y227311D01*
X234328Y227273D01*
X234390Y227227D01*
X234450Y227204D01*
X234506Y227172D01*
X234581Y227154D01*
X234654Y227127D01*
X234718Y227122D01*
X234780Y227107D01*
X234858Y227111D01*
X234935Y227105D01*
X234998Y227118D01*
X235062Y227122D01*
X235135Y227147D01*
X235211Y227163D01*
X235268Y227193D01*
X235328Y227214D01*
X235385Y227256D01*
X235460Y227295D01*
X235521Y227354D01*
X235577Y227396D01*
X236049Y227868D01*
X246282Y227868D01*
X247136Y227014D01*
X247136Y210181D01*
X246282Y209327D01*
X244436Y209327D01*
X244372Y209317D01*
X244308Y209318D01*
X244233Y209298D01*
X244156Y209287D01*
X244098Y209260D01*
X244036Y209243D01*
X243970Y209202D01*
X243900Y209171D01*
X243851Y209129D01*
X243796Y209095D01*
X243744Y209037D01*
X243685Y208987D01*
X243650Y208933D01*
X243607Y208886D01*
X243573Y208816D01*
X243531Y208751D01*
X243512Y208690D01*
X243484Y208632D01*
X243473Y208562D01*
X243448Y208481D01*
X243447Y208397D01*
X243436Y208327D01*
X243436Y196689D01*
X243450Y196594D01*
X243455Y196498D01*
X243470Y196455D01*
X243476Y196410D01*
X243516Y196322D01*
X243547Y196231D01*
X243572Y196197D01*
X243592Y196153D01*
X243676Y196055D01*
X243729Y195982D01*
X263398Y176313D01*
X263475Y176256D01*
X263546Y176191D01*
X263587Y176171D01*
X263623Y176144D01*
X263714Y176110D01*
X263800Y176068D01*
X263842Y176062D01*
X263887Y176045D01*
X264015Y176035D01*
X264104Y176021D01*
X484941Y176021D01*
X500021Y160941D01*
X500021Y160000D01*
X500030Y159936D01*
X500029Y159872D01*
X500050Y159797D01*
X500061Y159721D01*
X500087Y159662D01*
X500104Y159600D01*
X500145Y159534D01*
X500177Y159464D01*
X500219Y159415D01*
X500252Y159360D01*
X500310Y159308D01*
X500360Y159250D01*
X500414Y159214D01*
X500462Y159171D01*
X500531Y159138D01*
X500596Y159095D01*
X500658Y159076D01*
X500715Y159048D01*
X500785Y159037D01*
X500866Y159013D01*
X500951Y159012D01*
X501020Y159001D01*
X523000Y159001D01*
X523064Y159010D01*
G37*
G36*
X471294Y90030D02*
X471294Y90030D01*
X471358Y90029D01*
X471433Y90050D01*
X471509Y90061D01*
X471568Y90087D01*
X471630Y90104D01*
X471696Y90145D01*
X471766Y90177D01*
X471815Y90219D01*
X471870Y90252D01*
X471922Y90310D01*
X471980Y90360D01*
X472016Y90414D01*
X472059Y90462D01*
X472092Y90531D01*
X472135Y90596D01*
X472154Y90658D01*
X472182Y90715D01*
X472193Y90785D01*
X472217Y90866D01*
X472218Y90951D01*
X472229Y91020D01*
X472229Y95776D01*
X472974Y96521D01*
X490221Y96521D01*
X490263Y96505D01*
X490295Y96502D01*
X490326Y96493D01*
X490435Y96491D01*
X490544Y96483D01*
X490575Y96490D01*
X490608Y96489D01*
X490713Y96518D01*
X490820Y96540D01*
X490848Y96556D01*
X490880Y96564D01*
X490973Y96622D01*
X491069Y96673D01*
X491092Y96695D01*
X491120Y96713D01*
X491193Y96794D01*
X491271Y96870D01*
X491287Y96898D01*
X491309Y96922D01*
X491356Y97020D01*
X491410Y97115D01*
X491418Y97146D01*
X491432Y97176D01*
X491446Y97265D01*
X491475Y97389D01*
X491473Y97438D01*
X491479Y97480D01*
X491479Y110000D01*
X491470Y110064D01*
X491471Y110128D01*
X491450Y110203D01*
X491439Y110279D01*
X491413Y110338D01*
X491396Y110400D01*
X491355Y110466D01*
X491323Y110536D01*
X491281Y110585D01*
X491248Y110640D01*
X491190Y110692D01*
X491140Y110750D01*
X491086Y110786D01*
X491038Y110829D01*
X490969Y110862D01*
X490904Y110905D01*
X490842Y110924D01*
X490785Y110952D01*
X490715Y110963D01*
X490634Y110987D01*
X490549Y110988D01*
X490480Y110999D01*
X479999Y110999D01*
X479999Y159001D01*
X493126Y159001D01*
X493157Y159005D01*
X493190Y159003D01*
X493297Y159025D01*
X493405Y159041D01*
X493434Y159054D01*
X493466Y159060D01*
X493562Y159112D01*
X493662Y159157D01*
X493686Y159178D01*
X493715Y159193D01*
X493793Y159269D01*
X493876Y159340D01*
X493894Y159367D01*
X493917Y159390D01*
X493971Y159485D01*
X494030Y159576D01*
X494040Y159607D01*
X494056Y159635D01*
X494081Y159742D01*
X494113Y159846D01*
X494113Y159878D01*
X494121Y159909D01*
X494115Y160019D01*
X494117Y160128D01*
X494108Y160159D01*
X494106Y160191D01*
X494071Y160294D01*
X494041Y160400D01*
X494024Y160427D01*
X494014Y160458D01*
X493961Y160531D01*
X493893Y160640D01*
X493857Y160672D01*
X493832Y160707D01*
X483352Y171187D01*
X483275Y171244D01*
X483204Y171309D01*
X483163Y171329D01*
X483127Y171356D01*
X483036Y171390D01*
X482950Y171432D01*
X482908Y171438D01*
X482863Y171455D01*
X482735Y171465D01*
X482646Y171479D01*
X261809Y171479D01*
X238895Y194394D01*
X238895Y208327D01*
X238886Y208391D01*
X238887Y208455D01*
X238866Y208530D01*
X238855Y208607D01*
X238829Y208665D01*
X238812Y208727D01*
X238771Y208793D01*
X238739Y208863D01*
X238697Y208912D01*
X238663Y208967D01*
X238606Y209019D01*
X238556Y209078D01*
X238502Y209113D01*
X238454Y209156D01*
X238384Y209190D01*
X238320Y209232D01*
X238258Y209251D01*
X238200Y209279D01*
X238131Y209290D01*
X238050Y209315D01*
X237965Y209316D01*
X237896Y209327D01*
X236049Y209327D01*
X235577Y209799D01*
X235526Y209837D01*
X235481Y209883D01*
X235414Y209921D01*
X235352Y209968D01*
X235292Y209991D01*
X235236Y210022D01*
X235160Y210040D01*
X235088Y210067D01*
X235024Y210072D01*
X234961Y210087D01*
X234884Y210083D01*
X234807Y210089D01*
X234744Y210076D01*
X234680Y210073D01*
X234606Y210048D01*
X234531Y210032D01*
X234474Y210001D01*
X234413Y209980D01*
X234357Y209939D01*
X234282Y209899D01*
X234221Y209840D01*
X234164Y209799D01*
X233692Y209327D01*
X223239Y209327D01*
X222822Y209744D01*
X222771Y209782D01*
X222726Y209828D01*
X222659Y209866D01*
X222597Y209913D01*
X222537Y209936D01*
X222481Y209967D01*
X222405Y209985D01*
X222333Y210012D01*
X222269Y210017D01*
X222206Y210032D01*
X222129Y210028D01*
X222052Y210034D01*
X221989Y210021D01*
X221925Y210018D01*
X221851Y209992D01*
X221776Y209977D01*
X221719Y209946D01*
X221658Y209925D01*
X221601Y209884D01*
X221527Y209844D01*
X221466Y209785D01*
X221409Y209744D01*
X220992Y209327D01*
X210539Y209327D01*
X210122Y209744D01*
X210071Y209782D01*
X210026Y209828D01*
X209959Y209866D01*
X209897Y209913D01*
X209837Y209936D01*
X209781Y209967D01*
X209705Y209985D01*
X209633Y210012D01*
X209569Y210017D01*
X209506Y210032D01*
X209429Y210028D01*
X209352Y210034D01*
X209289Y210021D01*
X209225Y210018D01*
X209151Y209992D01*
X209076Y209977D01*
X209019Y209946D01*
X208958Y209925D01*
X208901Y209884D01*
X208827Y209844D01*
X208766Y209785D01*
X208709Y209744D01*
X208292Y209327D01*
X197839Y209327D01*
X197422Y209744D01*
X197371Y209782D01*
X197326Y209828D01*
X197259Y209866D01*
X197197Y209913D01*
X197137Y209936D01*
X197081Y209967D01*
X197005Y209985D01*
X196933Y210012D01*
X196869Y210017D01*
X196806Y210032D01*
X196729Y210028D01*
X196652Y210034D01*
X196589Y210021D01*
X196525Y210018D01*
X196451Y209992D01*
X196376Y209977D01*
X196319Y209946D01*
X196258Y209925D01*
X196201Y209884D01*
X196127Y209844D01*
X196066Y209785D01*
X196009Y209744D01*
X195592Y209327D01*
X195536Y209327D01*
X195472Y209317D01*
X195408Y209318D01*
X195333Y209298D01*
X195257Y209287D01*
X195198Y209260D01*
X195136Y209243D01*
X195070Y209202D01*
X195000Y209171D01*
X194951Y209129D01*
X194896Y209095D01*
X194844Y209037D01*
X194786Y208987D01*
X194750Y208933D01*
X194707Y208886D01*
X194674Y208816D01*
X194631Y208751D01*
X194612Y208690D01*
X194584Y208632D01*
X194573Y208562D01*
X194549Y208481D01*
X194548Y208397D01*
X194537Y208327D01*
X194537Y205535D01*
X192465Y203463D01*
X189535Y203463D01*
X187463Y205535D01*
X187463Y208327D01*
X187454Y208391D01*
X187455Y208455D01*
X187434Y208530D01*
X187423Y208607D01*
X187397Y208665D01*
X187380Y208727D01*
X187339Y208793D01*
X187307Y208863D01*
X187265Y208912D01*
X187232Y208967D01*
X187174Y209019D01*
X187124Y209078D01*
X187070Y209113D01*
X187022Y209156D01*
X186953Y209190D01*
X186888Y209232D01*
X186826Y209251D01*
X186769Y209279D01*
X186699Y209290D01*
X186618Y209315D01*
X186533Y209316D01*
X186464Y209327D01*
X185139Y209327D01*
X184722Y209744D01*
X184671Y209782D01*
X184626Y209828D01*
X184559Y209866D01*
X184497Y209913D01*
X184437Y209936D01*
X184381Y209967D01*
X184305Y209985D01*
X184233Y210012D01*
X184169Y210017D01*
X184106Y210032D01*
X184029Y210028D01*
X183952Y210034D01*
X183889Y210021D01*
X183825Y210018D01*
X183751Y209992D01*
X183676Y209977D01*
X183619Y209946D01*
X183558Y209925D01*
X183501Y209884D01*
X183427Y209844D01*
X183366Y209785D01*
X183309Y209744D01*
X182892Y209327D01*
X172439Y209327D01*
X172022Y209744D01*
X171971Y209782D01*
X171926Y209828D01*
X171859Y209866D01*
X171797Y209913D01*
X171737Y209936D01*
X171681Y209967D01*
X171605Y209985D01*
X171533Y210012D01*
X171469Y210017D01*
X171406Y210032D01*
X171329Y210028D01*
X171252Y210034D01*
X171189Y210021D01*
X171125Y210018D01*
X171051Y209992D01*
X170976Y209977D01*
X170919Y209946D01*
X170858Y209925D01*
X170801Y209884D01*
X170727Y209844D01*
X170666Y209785D01*
X170609Y209744D01*
X170192Y209327D01*
X159739Y209327D01*
X159322Y209744D01*
X159271Y209782D01*
X159226Y209828D01*
X159159Y209866D01*
X159097Y209913D01*
X159037Y209936D01*
X158981Y209967D01*
X158905Y209985D01*
X158833Y210012D01*
X158769Y210017D01*
X158706Y210032D01*
X158629Y210028D01*
X158552Y210034D01*
X158489Y210021D01*
X158425Y210018D01*
X158351Y209992D01*
X158276Y209977D01*
X158219Y209946D01*
X158158Y209925D01*
X158101Y209884D01*
X158027Y209844D01*
X157966Y209785D01*
X157909Y209744D01*
X157492Y209327D01*
X147039Y209327D01*
X146622Y209744D01*
X146571Y209782D01*
X146526Y209828D01*
X146459Y209866D01*
X146397Y209913D01*
X146337Y209936D01*
X146281Y209967D01*
X146205Y209985D01*
X146133Y210012D01*
X146069Y210017D01*
X146006Y210032D01*
X145929Y210028D01*
X145852Y210034D01*
X145789Y210021D01*
X145725Y210018D01*
X145651Y209992D01*
X145576Y209977D01*
X145519Y209946D01*
X145458Y209925D01*
X145401Y209884D01*
X145327Y209844D01*
X145266Y209785D01*
X145209Y209744D01*
X144792Y209327D01*
X134339Y209327D01*
X133922Y209744D01*
X133871Y209782D01*
X133826Y209828D01*
X133759Y209866D01*
X133697Y209913D01*
X133637Y209936D01*
X133581Y209967D01*
X133505Y209985D01*
X133433Y210012D01*
X133369Y210017D01*
X133306Y210032D01*
X133229Y210028D01*
X133152Y210034D01*
X133089Y210021D01*
X133025Y210018D01*
X132951Y209992D01*
X132876Y209977D01*
X132819Y209946D01*
X132758Y209925D01*
X132701Y209884D01*
X132627Y209844D01*
X132566Y209785D01*
X132509Y209744D01*
X132092Y209327D01*
X121639Y209327D01*
X121222Y209744D01*
X121171Y209782D01*
X121126Y209828D01*
X121059Y209866D01*
X120997Y209913D01*
X120937Y209936D01*
X120881Y209967D01*
X120805Y209985D01*
X120733Y210012D01*
X120669Y210017D01*
X120606Y210032D01*
X120529Y210028D01*
X120452Y210034D01*
X120389Y210021D01*
X120325Y210018D01*
X120251Y209992D01*
X120176Y209977D01*
X120119Y209946D01*
X120058Y209925D01*
X120001Y209884D01*
X119927Y209844D01*
X119866Y209785D01*
X119809Y209744D01*
X119392Y209327D01*
X108939Y209327D01*
X108522Y209744D01*
X108471Y209782D01*
X108426Y209828D01*
X108359Y209866D01*
X108297Y209913D01*
X108237Y209936D01*
X108181Y209967D01*
X108105Y209985D01*
X108033Y210012D01*
X107969Y210017D01*
X107906Y210032D01*
X107829Y210028D01*
X107752Y210034D01*
X107689Y210021D01*
X107625Y210018D01*
X107551Y209992D01*
X107476Y209977D01*
X107419Y209946D01*
X107358Y209925D01*
X107301Y209884D01*
X107227Y209844D01*
X107166Y209785D01*
X107109Y209744D01*
X106692Y209327D01*
X96239Y209327D01*
X95822Y209744D01*
X95771Y209782D01*
X95726Y209828D01*
X95659Y209866D01*
X95597Y209913D01*
X95537Y209936D01*
X95481Y209967D01*
X95405Y209985D01*
X95333Y210012D01*
X95269Y210017D01*
X95206Y210032D01*
X95129Y210028D01*
X95052Y210034D01*
X94989Y210021D01*
X94925Y210018D01*
X94851Y209992D01*
X94776Y209977D01*
X94719Y209946D01*
X94658Y209925D01*
X94601Y209884D01*
X94527Y209844D01*
X94466Y209785D01*
X94409Y209744D01*
X93992Y209327D01*
X92297Y209327D01*
X92265Y209322D01*
X92233Y209324D01*
X92126Y209302D01*
X92018Y209287D01*
X91989Y209273D01*
X91957Y209267D01*
X91861Y209216D01*
X91761Y209171D01*
X91736Y209150D01*
X91708Y209134D01*
X91630Y209058D01*
X91547Y208987D01*
X91529Y208960D01*
X91506Y208938D01*
X91452Y208843D01*
X91392Y208751D01*
X91383Y208720D01*
X91367Y208692D01*
X91342Y208586D01*
X91310Y208481D01*
X91309Y208449D01*
X91302Y208418D01*
X91308Y208308D01*
X91306Y208199D01*
X91315Y208168D01*
X91316Y208136D01*
X91352Y208033D01*
X91381Y207928D01*
X91398Y207900D01*
X91409Y207870D01*
X91462Y207797D01*
X91529Y207688D01*
X91566Y207655D01*
X91591Y207621D01*
X98648Y200563D01*
X98725Y200506D01*
X98796Y200441D01*
X98837Y200421D01*
X98873Y200394D01*
X98964Y200360D01*
X99050Y200318D01*
X99092Y200312D01*
X99137Y200295D01*
X99265Y200285D01*
X99354Y200271D01*
X182941Y200271D01*
X276648Y106563D01*
X276725Y106506D01*
X276796Y106441D01*
X276837Y106421D01*
X276873Y106394D01*
X276964Y106360D01*
X277050Y106318D01*
X277092Y106312D01*
X277137Y106295D01*
X277265Y106285D01*
X277354Y106271D01*
X454941Y106271D01*
X461271Y99941D01*
X461271Y96520D01*
X461280Y96458D01*
X461279Y96410D01*
X461279Y96409D01*
X461279Y96392D01*
X461300Y96317D01*
X461311Y96241D01*
X461337Y96182D01*
X461354Y96120D01*
X461395Y96054D01*
X461427Y95984D01*
X461469Y95935D01*
X461502Y95880D01*
X461560Y95828D01*
X461610Y95770D01*
X461664Y95734D01*
X461712Y95691D01*
X461781Y95658D01*
X461846Y95615D01*
X461908Y95596D01*
X461965Y95568D01*
X462035Y95557D01*
X462116Y95533D01*
X462201Y95532D01*
X462270Y95521D01*
X467026Y95521D01*
X467771Y94776D01*
X467771Y91020D01*
X467780Y90956D01*
X467779Y90892D01*
X467800Y90817D01*
X467811Y90741D01*
X467837Y90682D01*
X467854Y90620D01*
X467895Y90554D01*
X467927Y90484D01*
X467969Y90435D01*
X468002Y90380D01*
X468060Y90328D01*
X468110Y90270D01*
X468164Y90234D01*
X468212Y90191D01*
X468281Y90158D01*
X468346Y90115D01*
X468408Y90096D01*
X468465Y90068D01*
X468535Y90057D01*
X468616Y90033D01*
X468701Y90032D01*
X468770Y90021D01*
X471230Y90021D01*
X471294Y90030D01*
G37*
G36*
X236808Y12605D02*
X236808Y12605D01*
X236840Y12603D01*
X236947Y12625D01*
X237055Y12641D01*
X237084Y12654D01*
X237116Y12661D01*
X237213Y12712D01*
X237312Y12757D01*
X237336Y12778D01*
X237365Y12793D01*
X237443Y12869D01*
X237526Y12940D01*
X237544Y12967D01*
X237567Y12990D01*
X237621Y13085D01*
X237680Y13176D01*
X237690Y13207D01*
X237706Y13235D01*
X237731Y13342D01*
X237763Y13446D01*
X237763Y13478D01*
X237771Y13510D01*
X237765Y13619D01*
X237767Y13728D01*
X237758Y13759D01*
X237756Y13791D01*
X237721Y13894D01*
X237691Y14000D01*
X237674Y14027D01*
X237664Y14058D01*
X237610Y14131D01*
X237543Y14240D01*
X237507Y14272D01*
X237482Y14307D01*
X237436Y14352D01*
X220729Y31059D01*
X220729Y37464D01*
X220720Y37528D01*
X220721Y37592D01*
X220700Y37667D01*
X220689Y37743D01*
X220663Y37802D01*
X220646Y37864D01*
X220605Y37930D01*
X220573Y38000D01*
X220531Y38049D01*
X220498Y38104D01*
X220440Y38156D01*
X220390Y38214D01*
X220336Y38250D01*
X220288Y38293D01*
X220219Y38326D01*
X220154Y38369D01*
X220092Y38388D01*
X220035Y38416D01*
X219965Y38427D01*
X219884Y38451D01*
X219799Y38452D01*
X219730Y38463D01*
X218535Y38463D01*
X216463Y40535D01*
X216463Y43469D01*
X216473Y43477D01*
X216533Y43569D01*
X216598Y43656D01*
X216610Y43686D01*
X216627Y43713D01*
X216659Y43818D01*
X216698Y43920D01*
X216700Y43952D01*
X216710Y43983D01*
X216711Y44092D01*
X216720Y44201D01*
X216713Y44233D01*
X216713Y44265D01*
X216684Y44371D01*
X216662Y44477D01*
X216647Y44506D01*
X216638Y44537D01*
X216581Y44630D01*
X216530Y44726D01*
X216507Y44750D01*
X216490Y44777D01*
X216409Y44850D01*
X216333Y44928D01*
X216305Y44944D01*
X216281Y44966D01*
X216183Y45014D01*
X216087Y45067D01*
X216056Y45075D01*
X216027Y45089D01*
X215938Y45103D01*
X215813Y45132D01*
X215765Y45130D01*
X215722Y45137D01*
X210539Y45137D01*
X210122Y45554D01*
X210071Y45592D01*
X210026Y45638D01*
X209959Y45676D01*
X209897Y45723D01*
X209837Y45746D01*
X209781Y45777D01*
X209705Y45795D01*
X209633Y45822D01*
X209569Y45827D01*
X209506Y45842D01*
X209429Y45838D01*
X209352Y45844D01*
X209289Y45831D01*
X209225Y45828D01*
X209151Y45802D01*
X209076Y45787D01*
X209019Y45756D01*
X208958Y45735D01*
X208901Y45694D01*
X208827Y45654D01*
X208766Y45595D01*
X208709Y45554D01*
X208292Y45137D01*
X197839Y45137D01*
X197422Y45554D01*
X197371Y45592D01*
X197326Y45638D01*
X197259Y45676D01*
X197197Y45723D01*
X197137Y45746D01*
X197081Y45777D01*
X197005Y45795D01*
X196933Y45822D01*
X196869Y45827D01*
X196806Y45842D01*
X196729Y45838D01*
X196652Y45844D01*
X196589Y45831D01*
X196525Y45828D01*
X196451Y45802D01*
X196376Y45787D01*
X196319Y45756D01*
X196258Y45735D01*
X196201Y45694D01*
X196127Y45654D01*
X196066Y45595D01*
X196009Y45554D01*
X195592Y45137D01*
X185139Y45137D01*
X184722Y45554D01*
X184671Y45592D01*
X184626Y45638D01*
X184559Y45676D01*
X184497Y45723D01*
X184437Y45746D01*
X184381Y45777D01*
X184305Y45795D01*
X184233Y45822D01*
X184169Y45827D01*
X184106Y45842D01*
X184029Y45838D01*
X183952Y45844D01*
X183889Y45831D01*
X183825Y45828D01*
X183751Y45802D01*
X183676Y45787D01*
X183619Y45756D01*
X183558Y45735D01*
X183501Y45694D01*
X183427Y45654D01*
X183366Y45595D01*
X183309Y45554D01*
X182892Y45137D01*
X172439Y45137D01*
X172022Y45554D01*
X171971Y45592D01*
X171926Y45638D01*
X171859Y45676D01*
X171797Y45723D01*
X171737Y45746D01*
X171681Y45777D01*
X171605Y45795D01*
X171533Y45822D01*
X171469Y45827D01*
X171406Y45842D01*
X171329Y45838D01*
X171252Y45844D01*
X171189Y45831D01*
X171125Y45828D01*
X171051Y45802D01*
X170976Y45787D01*
X170919Y45756D01*
X170858Y45735D01*
X170801Y45694D01*
X170727Y45654D01*
X170666Y45595D01*
X170609Y45554D01*
X170192Y45137D01*
X159739Y45137D01*
X159322Y45554D01*
X159271Y45592D01*
X159226Y45638D01*
X159159Y45676D01*
X159097Y45723D01*
X159037Y45746D01*
X158981Y45777D01*
X158905Y45795D01*
X158833Y45822D01*
X158769Y45827D01*
X158706Y45842D01*
X158629Y45838D01*
X158552Y45844D01*
X158489Y45831D01*
X158425Y45828D01*
X158351Y45802D01*
X158276Y45787D01*
X158219Y45756D01*
X158158Y45735D01*
X158101Y45694D01*
X158027Y45654D01*
X157966Y45595D01*
X157909Y45554D01*
X157492Y45137D01*
X155552Y45137D01*
X155488Y45127D01*
X155424Y45128D01*
X155349Y45108D01*
X155272Y45097D01*
X155214Y45070D01*
X155152Y45053D01*
X155086Y45012D01*
X155016Y44981D01*
X154967Y44939D01*
X154912Y44905D01*
X154860Y44847D01*
X154801Y44797D01*
X154766Y44743D01*
X154723Y44696D01*
X154689Y44626D01*
X154647Y44561D01*
X154628Y44500D01*
X154600Y44442D01*
X154589Y44372D01*
X154564Y44291D01*
X154563Y44207D01*
X154552Y44137D01*
X154552Y43318D01*
X149947Y38713D01*
X90361Y38713D01*
X90266Y38700D01*
X90170Y38695D01*
X90127Y38680D01*
X90082Y38673D01*
X89995Y38634D01*
X89904Y38602D01*
X89869Y38577D01*
X89825Y38557D01*
X89728Y38474D01*
X89655Y38421D01*
X88710Y37477D01*
X88691Y37451D01*
X88667Y37430D01*
X88607Y37338D01*
X88541Y37251D01*
X88530Y37221D01*
X88512Y37194D01*
X88480Y37089D01*
X88442Y36987D01*
X88439Y36955D01*
X88430Y36924D01*
X88428Y36815D01*
X88420Y36706D01*
X88426Y36674D01*
X88426Y36642D01*
X88455Y36537D01*
X88477Y36430D01*
X88493Y36401D01*
X88501Y36370D01*
X88559Y36277D01*
X88610Y36181D01*
X88632Y36158D01*
X88649Y36130D01*
X88730Y36057D01*
X88807Y35979D01*
X88835Y35963D01*
X88859Y35941D01*
X88957Y35894D01*
X89052Y35840D01*
X89084Y35832D01*
X89112Y35818D01*
X89202Y35804D01*
X89327Y35775D01*
X89375Y35777D01*
X89417Y35771D01*
X93276Y35771D01*
X94021Y35026D01*
X94021Y16974D01*
X93276Y16229D01*
X74224Y16229D01*
X73479Y16974D01*
X73479Y32698D01*
X73470Y32762D01*
X73471Y32826D01*
X73450Y32901D01*
X73439Y32977D01*
X73413Y33036D01*
X73396Y33098D01*
X73355Y33164D01*
X73323Y33234D01*
X73281Y33283D01*
X73248Y33338D01*
X73190Y33390D01*
X73140Y33448D01*
X73086Y33484D01*
X73038Y33527D01*
X72969Y33560D01*
X72904Y33603D01*
X72842Y33622D01*
X72785Y33650D01*
X72715Y33661D01*
X72634Y33685D01*
X72549Y33686D01*
X72480Y33697D01*
X71520Y33697D01*
X71456Y33688D01*
X71392Y33689D01*
X71317Y33668D01*
X71241Y33657D01*
X71182Y33631D01*
X71120Y33614D01*
X71054Y33573D01*
X70984Y33541D01*
X70935Y33499D01*
X70880Y33466D01*
X70828Y33408D01*
X70770Y33358D01*
X70734Y33304D01*
X70691Y33256D01*
X70658Y33187D01*
X70615Y33122D01*
X70596Y33060D01*
X70568Y33003D01*
X70557Y32933D01*
X70533Y32852D01*
X70532Y32767D01*
X70521Y32698D01*
X70521Y29974D01*
X69776Y29229D01*
X53724Y29229D01*
X53176Y29777D01*
X53159Y29790D01*
X53145Y29806D01*
X53046Y29874D01*
X52951Y29946D01*
X52930Y29954D01*
X52913Y29966D01*
X52799Y30003D01*
X52687Y30046D01*
X52665Y30047D01*
X52645Y30054D01*
X52525Y30058D01*
X52406Y30067D01*
X52384Y30063D01*
X52363Y30064D01*
X52247Y30034D01*
X52129Y30010D01*
X52110Y30000D01*
X52089Y29994D01*
X51986Y29934D01*
X51880Y29877D01*
X51865Y29862D01*
X51846Y29851D01*
X51764Y29764D01*
X51678Y29681D01*
X51668Y29662D01*
X51653Y29646D01*
X51599Y29540D01*
X51539Y29435D01*
X51534Y29414D01*
X51525Y29395D01*
X51509Y29305D01*
X51474Y29161D01*
X51476Y29124D01*
X51471Y29091D01*
X51141Y13621D01*
X51150Y13547D01*
X51149Y13472D01*
X51167Y13408D01*
X51175Y13341D01*
X51205Y13272D01*
X51225Y13200D01*
X51260Y13143D01*
X51286Y13082D01*
X51333Y13024D01*
X51373Y12960D01*
X51422Y12915D01*
X51465Y12864D01*
X51526Y12821D01*
X51582Y12771D01*
X51642Y12742D01*
X51697Y12704D01*
X51769Y12681D01*
X51836Y12648D01*
X51897Y12639D01*
X51965Y12616D01*
X52063Y12613D01*
X52140Y12601D01*
X236776Y12601D01*
X236808Y12605D01*
G37*
%LPC*%
G36*
X442474Y185229D02*
X442474Y185229D01*
X441655Y186048D01*
X441646Y186082D01*
X441605Y186148D01*
X441573Y186218D01*
X441531Y186267D01*
X441498Y186322D01*
X441440Y186374D01*
X441390Y186432D01*
X441336Y186468D01*
X441288Y186511D01*
X441219Y186544D01*
X441154Y186587D01*
X441092Y186606D01*
X441035Y186634D01*
X440965Y186645D01*
X440884Y186669D01*
X440799Y186670D01*
X440730Y186681D01*
X395211Y186681D01*
X388504Y193389D01*
X388427Y193446D01*
X388356Y193511D01*
X388315Y193531D01*
X388278Y193558D01*
X388188Y193592D01*
X388102Y193634D01*
X388060Y193640D01*
X388014Y193657D01*
X387887Y193667D01*
X387797Y193681D01*
X375270Y193681D01*
X375206Y193672D01*
X375142Y193673D01*
X375067Y193652D01*
X374991Y193641D01*
X374932Y193615D01*
X374870Y193598D01*
X374804Y193557D01*
X374734Y193525D01*
X374685Y193483D01*
X374630Y193450D01*
X374578Y193392D01*
X374520Y193342D01*
X374484Y193288D01*
X374441Y193240D01*
X374408Y193171D01*
X374365Y193106D01*
X374346Y193044D01*
X374318Y192987D01*
X374307Y192917D01*
X374283Y192836D01*
X374282Y192751D01*
X374271Y192682D01*
X374271Y189974D01*
X373526Y189229D01*
X359474Y189229D01*
X358729Y189974D01*
X358729Y206026D01*
X359474Y206771D01*
X361182Y206771D01*
X361246Y206780D01*
X361310Y206779D01*
X361385Y206800D01*
X361461Y206811D01*
X361520Y206837D01*
X361582Y206854D01*
X361648Y206895D01*
X361718Y206927D01*
X361767Y206969D01*
X361822Y207002D01*
X361874Y207060D01*
X361932Y207110D01*
X361968Y207164D01*
X362011Y207212D01*
X362044Y207281D01*
X362087Y207346D01*
X362106Y207408D01*
X362134Y207465D01*
X362145Y207535D01*
X362169Y207616D01*
X362170Y207701D01*
X362181Y207770D01*
X362181Y220230D01*
X362172Y220294D01*
X362173Y220358D01*
X362152Y220433D01*
X362141Y220509D01*
X362115Y220568D01*
X362098Y220630D01*
X362057Y220696D01*
X362025Y220766D01*
X361983Y220815D01*
X361950Y220870D01*
X361892Y220922D01*
X361842Y220980D01*
X361788Y221016D01*
X361740Y221059D01*
X361671Y221092D01*
X361606Y221135D01*
X361544Y221154D01*
X361487Y221182D01*
X361417Y221193D01*
X361336Y221217D01*
X361251Y221218D01*
X361182Y221229D01*
X350724Y221229D01*
X349979Y221974D01*
X349979Y230682D01*
X349970Y230746D01*
X349971Y230810D01*
X349950Y230885D01*
X349939Y230961D01*
X349913Y231020D01*
X349896Y231082D01*
X349855Y231148D01*
X349823Y231218D01*
X349781Y231267D01*
X349748Y231322D01*
X349690Y231374D01*
X349640Y231432D01*
X349586Y231468D01*
X349538Y231511D01*
X349469Y231544D01*
X349404Y231587D01*
X349342Y231606D01*
X349285Y231634D01*
X349215Y231645D01*
X349134Y231669D01*
X349049Y231670D01*
X348980Y231681D01*
X340211Y231681D01*
X337681Y234211D01*
X337681Y237789D01*
X340211Y240319D01*
X348980Y240319D01*
X349044Y240328D01*
X349108Y240327D01*
X349183Y240348D01*
X349259Y240359D01*
X349318Y240385D01*
X349380Y240402D01*
X349446Y240443D01*
X349516Y240475D01*
X349565Y240517D01*
X349620Y240550D01*
X349672Y240608D01*
X349730Y240658D01*
X349766Y240712D01*
X349809Y240760D01*
X349842Y240829D01*
X349885Y240894D01*
X349904Y240956D01*
X349932Y241013D01*
X349943Y241083D01*
X349967Y241164D01*
X349968Y241249D01*
X349979Y241318D01*
X349979Y250026D01*
X350724Y250771D01*
X377276Y250771D01*
X378021Y250026D01*
X378021Y221974D01*
X377276Y221229D01*
X371818Y221229D01*
X371754Y221220D01*
X371690Y221221D01*
X371615Y221200D01*
X371539Y221189D01*
X371480Y221163D01*
X371418Y221146D01*
X371352Y221105D01*
X371282Y221073D01*
X371233Y221031D01*
X371178Y220998D01*
X371126Y220940D01*
X371068Y220890D01*
X371032Y220836D01*
X370989Y220788D01*
X370956Y220719D01*
X370913Y220654D01*
X370894Y220592D01*
X370866Y220535D01*
X370855Y220465D01*
X370831Y220384D01*
X370830Y220299D01*
X370819Y220230D01*
X370819Y207770D01*
X370828Y207706D01*
X370827Y207642D01*
X370848Y207567D01*
X370859Y207491D01*
X370885Y207432D01*
X370902Y207370D01*
X370943Y207304D01*
X370975Y207234D01*
X371017Y207185D01*
X371050Y207130D01*
X371108Y207078D01*
X371158Y207020D01*
X371212Y206984D01*
X371260Y206941D01*
X371329Y206908D01*
X371394Y206865D01*
X371456Y206846D01*
X371513Y206818D01*
X371583Y206807D01*
X371664Y206783D01*
X371749Y206782D01*
X371818Y206771D01*
X373526Y206771D01*
X374271Y206026D01*
X374271Y203318D01*
X374280Y203254D01*
X374279Y203190D01*
X374300Y203115D01*
X374311Y203039D01*
X374337Y202980D01*
X374354Y202918D01*
X374395Y202852D01*
X374427Y202782D01*
X374469Y202733D01*
X374502Y202678D01*
X374560Y202626D01*
X374610Y202568D01*
X374664Y202532D01*
X374712Y202489D01*
X374781Y202456D01*
X374846Y202413D01*
X374908Y202394D01*
X374965Y202366D01*
X375035Y202355D01*
X375116Y202331D01*
X375201Y202330D01*
X375270Y202319D01*
X391789Y202319D01*
X398496Y195611D01*
X398573Y195554D01*
X398644Y195489D01*
X398685Y195469D01*
X398722Y195442D01*
X398812Y195408D01*
X398898Y195366D01*
X398940Y195360D01*
X398986Y195343D01*
X399113Y195333D01*
X399203Y195319D01*
X440730Y195319D01*
X440794Y195328D01*
X440858Y195327D01*
X440933Y195348D01*
X441009Y195359D01*
X441068Y195385D01*
X441130Y195402D01*
X441196Y195443D01*
X441266Y195475D01*
X441315Y195517D01*
X441370Y195550D01*
X441422Y195608D01*
X441480Y195658D01*
X441516Y195712D01*
X441559Y195760D01*
X441592Y195829D01*
X441635Y195894D01*
X441654Y195956D01*
X441682Y196013D01*
X441693Y196083D01*
X441717Y196164D01*
X441718Y196249D01*
X441729Y196318D01*
X441729Y197026D01*
X442474Y197771D01*
X457526Y197771D01*
X458271Y197026D01*
X458271Y185974D01*
X457526Y185229D01*
X442474Y185229D01*
G37*
%LPD*%
G36*
X276064Y24054D02*
X276064Y24054D01*
X276128Y24053D01*
X276203Y24074D01*
X276279Y24085D01*
X276338Y24111D01*
X276400Y24128D01*
X276466Y24169D01*
X276536Y24201D01*
X276585Y24243D01*
X276640Y24276D01*
X276692Y24334D01*
X276750Y24384D01*
X276786Y24438D01*
X276829Y24486D01*
X276862Y24555D01*
X276905Y24620D01*
X276924Y24682D01*
X276952Y24739D01*
X276963Y24809D01*
X276987Y24890D01*
X276988Y24975D01*
X276999Y25044D01*
X276999Y37915D01*
X276995Y37947D01*
X276997Y37979D01*
X276975Y38086D01*
X276959Y38194D01*
X276946Y38223D01*
X276940Y38255D01*
X276888Y38351D01*
X276843Y38451D01*
X276822Y38475D01*
X276807Y38504D01*
X276731Y38582D01*
X276660Y38665D01*
X276633Y38683D01*
X276610Y38706D01*
X276515Y38760D01*
X276424Y38820D01*
X276393Y38829D01*
X276365Y38845D01*
X276258Y38870D01*
X276154Y38902D01*
X276122Y38902D01*
X276091Y38910D01*
X275981Y38904D01*
X275872Y38906D01*
X275841Y38897D01*
X275809Y38895D01*
X275706Y38860D01*
X275600Y38830D01*
X275573Y38814D01*
X275542Y38803D01*
X275469Y38750D01*
X275360Y38682D01*
X275328Y38646D01*
X275293Y38621D01*
X275119Y38447D01*
X270176Y36399D01*
X264824Y36399D01*
X259881Y38447D01*
X256097Y42231D01*
X254049Y47174D01*
X254049Y52526D01*
X256097Y57469D01*
X259881Y61253D01*
X264824Y63301D01*
X270176Y63301D01*
X275119Y61253D01*
X278903Y57469D01*
X280951Y52526D01*
X280951Y49000D01*
X280960Y48936D01*
X280959Y48872D01*
X280980Y48797D01*
X280991Y48721D01*
X281017Y48662D01*
X281034Y48600D01*
X281075Y48534D01*
X281107Y48464D01*
X281149Y48415D01*
X281182Y48360D01*
X281240Y48308D01*
X281290Y48250D01*
X281344Y48214D01*
X281392Y48171D01*
X281461Y48138D01*
X281526Y48095D01*
X281588Y48076D01*
X281645Y48048D01*
X281715Y48037D01*
X281796Y48013D01*
X281881Y48012D01*
X281950Y48001D01*
X293730Y48001D01*
X293794Y48010D01*
X293858Y48009D01*
X293933Y48030D01*
X294009Y48041D01*
X294068Y48067D01*
X294130Y48084D01*
X294196Y48125D01*
X294266Y48157D01*
X294315Y48199D01*
X294370Y48232D01*
X294422Y48290D01*
X294480Y48340D01*
X294516Y48394D01*
X294559Y48442D01*
X294592Y48511D01*
X294635Y48576D01*
X294654Y48638D01*
X294682Y48695D01*
X294693Y48765D01*
X294717Y48846D01*
X294718Y48931D01*
X294729Y49000D01*
X294729Y64033D01*
X294730Y64033D01*
X294754Y64054D01*
X294814Y64146D01*
X294880Y64233D01*
X294891Y64263D01*
X294909Y64290D01*
X294941Y64394D01*
X294979Y64497D01*
X294982Y64529D01*
X294991Y64560D01*
X294993Y64669D01*
X295001Y64778D01*
X294994Y64810D01*
X294995Y64842D01*
X294966Y64947D01*
X294943Y65054D01*
X294928Y65083D01*
X294920Y65114D01*
X294862Y65207D01*
X294811Y65303D01*
X294788Y65326D01*
X294771Y65354D01*
X294691Y65427D01*
X294614Y65505D01*
X294586Y65521D01*
X294562Y65543D01*
X294464Y65590D01*
X294369Y65644D01*
X294337Y65652D01*
X294308Y65666D01*
X294219Y65680D01*
X294094Y65709D01*
X294046Y65707D01*
X294004Y65713D01*
X221361Y65713D01*
X221266Y65700D01*
X221170Y65695D01*
X221127Y65680D01*
X221082Y65673D01*
X220995Y65634D01*
X220904Y65603D01*
X220869Y65577D01*
X220825Y65557D01*
X220728Y65474D01*
X220655Y65421D01*
X220618Y65384D01*
X220599Y65358D01*
X220574Y65337D01*
X220514Y65246D01*
X220449Y65159D01*
X220437Y65128D01*
X220419Y65101D01*
X220388Y64997D01*
X220349Y64895D01*
X220347Y64862D01*
X220337Y64831D01*
X220336Y64722D01*
X220327Y64614D01*
X220334Y64582D01*
X220333Y64549D01*
X220362Y64444D01*
X220385Y64338D01*
X220400Y64309D01*
X220408Y64278D01*
X220466Y64185D01*
X220517Y64088D01*
X220540Y64065D01*
X220557Y64038D01*
X220638Y63965D01*
X220714Y63886D01*
X220742Y63870D01*
X220766Y63849D01*
X220864Y63801D01*
X220876Y63794D01*
X221409Y63261D01*
X221460Y63222D01*
X221505Y63176D01*
X221573Y63138D01*
X221635Y63092D01*
X221695Y63069D01*
X221751Y63037D01*
X221826Y63019D01*
X221899Y62992D01*
X221963Y62987D01*
X222025Y62972D01*
X222103Y62976D01*
X222180Y62970D01*
X222243Y62983D01*
X222307Y62987D01*
X222380Y63012D01*
X222456Y63028D01*
X222513Y63058D01*
X222573Y63079D01*
X222630Y63121D01*
X222705Y63160D01*
X222766Y63220D01*
X222822Y63261D01*
X223239Y63678D01*
X233692Y63678D01*
X234436Y62934D01*
X234436Y45881D01*
X233683Y45128D01*
X233656Y45128D01*
X233581Y45108D01*
X233504Y45097D01*
X233446Y45070D01*
X233384Y45053D01*
X233318Y45012D01*
X233248Y44981D01*
X233199Y44939D01*
X233144Y44905D01*
X233092Y44847D01*
X233033Y44797D01*
X232998Y44743D01*
X232955Y44696D01*
X232921Y44626D01*
X232879Y44561D01*
X232860Y44500D01*
X232832Y44442D01*
X232821Y44372D01*
X232796Y44291D01*
X232795Y44207D01*
X232784Y44137D01*
X232784Y37737D01*
X232798Y37642D01*
X232803Y37546D01*
X232818Y37503D01*
X232824Y37458D01*
X232864Y37370D01*
X232895Y37280D01*
X232920Y37245D01*
X232940Y37201D01*
X233024Y37104D01*
X233077Y37031D01*
X237319Y32789D01*
X237319Y31048D01*
X237332Y30953D01*
X237337Y30856D01*
X237352Y30813D01*
X237359Y30768D01*
X237398Y30681D01*
X237430Y30590D01*
X237455Y30556D01*
X237475Y30511D01*
X237558Y30414D01*
X237611Y30341D01*
X243615Y24337D01*
X243692Y24280D01*
X243763Y24215D01*
X243804Y24195D01*
X243841Y24168D01*
X243931Y24134D01*
X244017Y24092D01*
X244059Y24086D01*
X244104Y24069D01*
X244232Y24059D01*
X244322Y24045D01*
X276000Y24045D01*
X276064Y24054D01*
G37*
G36*
X222243Y227173D02*
X222243Y227173D01*
X222307Y227177D01*
X222380Y227202D01*
X222456Y227218D01*
X222513Y227248D01*
X222573Y227269D01*
X222630Y227311D01*
X222705Y227350D01*
X222766Y227410D01*
X222822Y227451D01*
X223239Y227868D01*
X225196Y227868D01*
X225259Y227877D01*
X225324Y227876D01*
X225398Y227897D01*
X225475Y227908D01*
X225533Y227934D01*
X225595Y227951D01*
X225661Y227992D01*
X225732Y228024D01*
X225781Y228066D01*
X225835Y228100D01*
X225887Y228157D01*
X225946Y228207D01*
X225981Y228261D01*
X226024Y228309D01*
X226058Y228379D01*
X226101Y228443D01*
X226119Y228505D01*
X226147Y228563D01*
X226158Y228632D01*
X226183Y228713D01*
X226184Y228798D01*
X226195Y228867D01*
X226195Y235406D01*
X241059Y250271D01*
X271646Y250271D01*
X271740Y250284D01*
X271837Y250289D01*
X271880Y250304D01*
X271925Y250311D01*
X272012Y250350D01*
X272103Y250382D01*
X272138Y250407D01*
X272182Y250427D01*
X272279Y250510D01*
X272352Y250563D01*
X282436Y260648D01*
X282482Y260693D01*
X282501Y260719D01*
X282526Y260740D01*
X282586Y260832D01*
X282651Y260919D01*
X282663Y260949D01*
X282680Y260976D01*
X282712Y261081D01*
X282751Y261183D01*
X282753Y261215D01*
X282763Y261246D01*
X282764Y261355D01*
X282773Y261464D01*
X282766Y261495D01*
X282767Y261528D01*
X282738Y261633D01*
X282715Y261740D01*
X282700Y261768D01*
X282691Y261800D01*
X282634Y261893D01*
X282583Y261989D01*
X282560Y262012D01*
X282543Y262040D01*
X282462Y262113D01*
X282386Y262191D01*
X282358Y262207D01*
X282334Y262229D01*
X282236Y262276D01*
X282141Y262330D01*
X282109Y262338D01*
X282080Y262352D01*
X281991Y262366D01*
X281866Y262395D01*
X281818Y262393D01*
X281776Y262399D01*
X235035Y262399D01*
X235003Y262395D01*
X234971Y262397D01*
X234864Y262375D01*
X234756Y262359D01*
X234726Y262346D01*
X234695Y262340D01*
X234598Y262288D01*
X234499Y262243D01*
X234474Y262222D01*
X234446Y262207D01*
X234367Y262131D01*
X234284Y262060D01*
X234267Y262033D01*
X234244Y262010D01*
X234190Y261915D01*
X234130Y261824D01*
X234120Y261793D01*
X234105Y261765D01*
X234079Y261659D01*
X234048Y261554D01*
X234047Y261522D01*
X234040Y261490D01*
X234045Y261381D01*
X234044Y261272D01*
X234052Y261241D01*
X234054Y261209D01*
X234090Y261106D01*
X234119Y261000D01*
X234136Y260973D01*
X234147Y260942D01*
X234200Y260869D01*
X234267Y260760D01*
X234303Y260728D01*
X234328Y260694D01*
X235321Y258297D01*
X235321Y255703D01*
X234328Y253306D01*
X232494Y251472D01*
X230097Y250479D01*
X227503Y250479D01*
X225106Y251472D01*
X223157Y253422D01*
X223105Y253460D01*
X223060Y253506D01*
X222993Y253545D01*
X222931Y253591D01*
X222871Y253614D01*
X222815Y253645D01*
X222740Y253663D01*
X222667Y253691D01*
X222603Y253695D01*
X222540Y253710D01*
X222463Y253706D01*
X222386Y253712D01*
X222323Y253699D01*
X222259Y253696D01*
X222186Y253671D01*
X222110Y253655D01*
X222053Y253625D01*
X221992Y253603D01*
X221936Y253562D01*
X221861Y253522D01*
X221800Y253463D01*
X221743Y253422D01*
X219794Y251472D01*
X217397Y250479D01*
X215020Y250479D01*
X214956Y250470D01*
X214892Y250471D01*
X214817Y250450D01*
X214741Y250439D01*
X214682Y250413D01*
X214620Y250396D01*
X214554Y250355D01*
X214484Y250323D01*
X214435Y250281D01*
X214380Y250248D01*
X214328Y250190D01*
X214270Y250140D01*
X214234Y250086D01*
X214191Y250038D01*
X214158Y249969D01*
X214115Y249904D01*
X214096Y249842D01*
X214068Y249785D01*
X214057Y249715D01*
X214033Y249634D01*
X214032Y249549D01*
X214021Y249480D01*
X214021Y240604D01*
X214034Y240510D01*
X214039Y240413D01*
X214054Y240370D01*
X214061Y240325D01*
X214100Y240238D01*
X214132Y240147D01*
X214157Y240112D01*
X214177Y240068D01*
X214260Y239971D01*
X214313Y239898D01*
X218036Y236175D01*
X218036Y228867D01*
X218045Y228804D01*
X218045Y228739D01*
X218065Y228665D01*
X218076Y228588D01*
X218103Y228530D01*
X218120Y228468D01*
X218161Y228402D01*
X218192Y228331D01*
X218234Y228282D01*
X218268Y228228D01*
X218325Y228176D01*
X218376Y228117D01*
X218430Y228082D01*
X218477Y228039D01*
X218547Y228005D01*
X218612Y227962D01*
X218673Y227944D01*
X218731Y227916D01*
X218800Y227905D01*
X218882Y227880D01*
X218966Y227879D01*
X219036Y227868D01*
X220992Y227868D01*
X221409Y227451D01*
X221460Y227412D01*
X221505Y227366D01*
X221573Y227328D01*
X221635Y227282D01*
X221695Y227259D01*
X221751Y227227D01*
X221826Y227209D01*
X221899Y227182D01*
X221963Y227177D01*
X222025Y227162D01*
X222103Y227166D01*
X222180Y227160D01*
X222243Y227173D01*
G37*
%LPC*%
G36*
X115224Y16229D02*
X115224Y16229D01*
X114479Y16974D01*
X114479Y35026D01*
X115224Y35771D01*
X134276Y35771D01*
X135021Y35026D01*
X135021Y30435D01*
X135025Y30403D01*
X135023Y30371D01*
X135045Y30264D01*
X135061Y30156D01*
X135074Y30126D01*
X135080Y30095D01*
X135132Y29998D01*
X135177Y29899D01*
X135198Y29874D01*
X135213Y29846D01*
X135289Y29767D01*
X135360Y29684D01*
X135387Y29667D01*
X135410Y29644D01*
X135505Y29590D01*
X135596Y29530D01*
X135627Y29520D01*
X135655Y29505D01*
X135762Y29479D01*
X135866Y29448D01*
X135898Y29447D01*
X135930Y29440D01*
X136039Y29445D01*
X136148Y29444D01*
X136179Y29452D01*
X136211Y29454D01*
X136314Y29490D01*
X136420Y29519D01*
X136447Y29536D01*
X136449Y29537D01*
X139480Y29537D01*
X139544Y29546D01*
X139608Y29545D01*
X139683Y29566D01*
X139759Y29577D01*
X139818Y29603D01*
X139880Y29620D01*
X139946Y29661D01*
X140016Y29693D01*
X140065Y29735D01*
X140120Y29768D01*
X140172Y29826D01*
X140230Y29876D01*
X140266Y29930D01*
X140309Y29978D01*
X140342Y30047D01*
X140385Y30112D01*
X140404Y30174D01*
X140432Y30231D01*
X140443Y30301D01*
X140467Y30382D01*
X140468Y30467D01*
X140479Y30536D01*
X140479Y34526D01*
X141224Y35271D01*
X155276Y35271D01*
X156021Y34526D01*
X156021Y17474D01*
X155276Y16729D01*
X141224Y16729D01*
X140479Y17474D01*
X140479Y21464D01*
X140470Y21528D01*
X140471Y21592D01*
X140450Y21667D01*
X140439Y21743D01*
X140413Y21802D01*
X140396Y21864D01*
X140355Y21930D01*
X140323Y22000D01*
X140281Y22049D01*
X140248Y22104D01*
X140190Y22156D01*
X140140Y22214D01*
X140086Y22250D01*
X140038Y22293D01*
X139969Y22326D01*
X139904Y22369D01*
X139842Y22388D01*
X139785Y22416D01*
X139715Y22427D01*
X139634Y22451D01*
X139549Y22452D01*
X139480Y22463D01*
X136454Y22463D01*
X136444Y22470D01*
X136339Y22502D01*
X136237Y22541D01*
X136205Y22543D01*
X136174Y22552D01*
X136065Y22554D01*
X135956Y22562D01*
X135924Y22556D01*
X135892Y22556D01*
X135787Y22527D01*
X135680Y22505D01*
X135652Y22490D01*
X135620Y22481D01*
X135527Y22424D01*
X135431Y22372D01*
X135408Y22350D01*
X135380Y22333D01*
X135307Y22252D01*
X135229Y22176D01*
X135213Y22148D01*
X135191Y22124D01*
X135144Y22025D01*
X135090Y21930D01*
X135082Y21899D01*
X135068Y21870D01*
X135054Y21780D01*
X135025Y21656D01*
X135027Y21607D01*
X135021Y21565D01*
X135021Y16974D01*
X134276Y16229D01*
X115224Y16229D01*
G37*
%LPD*%
%LPC*%
G36*
X503853Y190204D02*
X503853Y190204D01*
X499885Y191848D01*
X496848Y194885D01*
X496359Y196064D01*
X496354Y196073D01*
X496352Y196082D01*
X496282Y196194D01*
X496216Y196307D01*
X496209Y196314D01*
X496204Y196322D01*
X496106Y196410D01*
X496010Y196500D01*
X496001Y196504D01*
X495994Y196511D01*
X495876Y196568D01*
X495758Y196628D01*
X495749Y196630D01*
X495741Y196634D01*
X495665Y196646D01*
X495481Y196680D01*
X495457Y196678D01*
X495436Y196681D01*
X481270Y196681D01*
X481206Y196672D01*
X481142Y196673D01*
X481067Y196652D01*
X480991Y196641D01*
X480932Y196615D01*
X480870Y196598D01*
X480804Y196557D01*
X480734Y196525D01*
X480685Y196483D01*
X480630Y196450D01*
X480578Y196392D01*
X480520Y196342D01*
X480484Y196288D01*
X480441Y196240D01*
X480408Y196171D01*
X480365Y196106D01*
X480346Y196044D01*
X480318Y195987D01*
X480307Y195917D01*
X480283Y195836D01*
X480282Y195751D01*
X480271Y195682D01*
X480271Y195474D01*
X479526Y194729D01*
X464474Y194729D01*
X463729Y195474D01*
X463729Y206526D01*
X464474Y207271D01*
X479526Y207271D01*
X480271Y206526D01*
X480271Y206318D01*
X480280Y206254D01*
X480279Y206190D01*
X480300Y206115D01*
X480311Y206039D01*
X480337Y205980D01*
X480354Y205918D01*
X480395Y205852D01*
X480427Y205782D01*
X480469Y205733D01*
X480502Y205678D01*
X480560Y205626D01*
X480610Y205568D01*
X480664Y205532D01*
X480712Y205489D01*
X480781Y205456D01*
X480846Y205413D01*
X480908Y205394D01*
X480965Y205366D01*
X481035Y205355D01*
X481116Y205331D01*
X481201Y205330D01*
X481270Y205319D01*
X495436Y205319D01*
X495445Y205320D01*
X495455Y205319D01*
X495585Y205340D01*
X495715Y205359D01*
X495724Y205362D01*
X495733Y205364D01*
X495853Y205421D01*
X495972Y205475D01*
X495979Y205481D01*
X495988Y205485D01*
X496087Y205573D01*
X496186Y205658D01*
X496192Y205666D01*
X496199Y205672D01*
X496239Y205738D01*
X496341Y205894D01*
X496348Y205917D01*
X496359Y205936D01*
X496848Y207115D01*
X499885Y210152D01*
X503853Y211796D01*
X508147Y211796D01*
X512115Y210152D01*
X515152Y207115D01*
X516796Y203147D01*
X516796Y198853D01*
X515152Y194885D01*
X512115Y191848D01*
X508147Y190204D01*
X503853Y190204D01*
G37*
%LPD*%
%LPC*%
G36*
X264824Y211699D02*
X264824Y211699D01*
X259881Y213747D01*
X256097Y217531D01*
X254049Y222474D01*
X254049Y227826D01*
X256097Y232769D01*
X259881Y236553D01*
X264824Y238601D01*
X270176Y238601D01*
X275119Y236553D01*
X278903Y232769D01*
X280951Y227826D01*
X280951Y222474D01*
X278903Y217531D01*
X275119Y213747D01*
X270176Y211699D01*
X264824Y211699D01*
G37*
%LPD*%
%LPC*%
G36*
X17239Y209327D02*
X17239Y209327D01*
X16495Y210071D01*
X16495Y227124D01*
X17239Y227868D01*
X27692Y227868D01*
X28109Y227451D01*
X28160Y227412D01*
X28205Y227366D01*
X28273Y227328D01*
X28335Y227282D01*
X28395Y227259D01*
X28451Y227227D01*
X28526Y227209D01*
X28599Y227182D01*
X28663Y227177D01*
X28725Y227162D01*
X28803Y227166D01*
X28880Y227160D01*
X28943Y227173D01*
X29007Y227177D01*
X29080Y227202D01*
X29156Y227218D01*
X29213Y227248D01*
X29273Y227269D01*
X29330Y227311D01*
X29405Y227350D01*
X29466Y227410D01*
X29522Y227451D01*
X29939Y227868D01*
X40392Y227868D01*
X41136Y227124D01*
X41136Y210071D01*
X40392Y209327D01*
X29939Y209327D01*
X29522Y209744D01*
X29471Y209782D01*
X29426Y209828D01*
X29359Y209866D01*
X29297Y209913D01*
X29237Y209936D01*
X29181Y209967D01*
X29105Y209985D01*
X29033Y210012D01*
X28969Y210017D01*
X28906Y210032D01*
X28829Y210028D01*
X28752Y210034D01*
X28689Y210021D01*
X28625Y210018D01*
X28551Y209992D01*
X28476Y209977D01*
X28419Y209946D01*
X28358Y209925D01*
X28301Y209884D01*
X28227Y209844D01*
X28166Y209785D01*
X28109Y209744D01*
X27692Y209327D01*
X17239Y209327D01*
G37*
%LPD*%
G36*
X36505Y15249D02*
X36505Y15249D01*
X36505Y15250D01*
X36505Y39250D01*
X36501Y39255D01*
X36500Y39255D01*
X24000Y39255D01*
X23998Y39253D01*
X23996Y39253D01*
X21877Y36753D01*
X21877Y36751D01*
X21876Y36750D01*
X21876Y15250D01*
X21880Y15245D01*
X21881Y15245D01*
X36500Y15245D01*
X36505Y15249D01*
G37*
G36*
X120643Y227173D02*
X120643Y227173D01*
X120707Y227177D01*
X120780Y227202D01*
X120856Y227218D01*
X120913Y227248D01*
X120973Y227269D01*
X121030Y227311D01*
X121105Y227350D01*
X121166Y227410D01*
X121222Y227451D01*
X121639Y227868D01*
X123580Y227868D01*
X123643Y227877D01*
X123708Y227876D01*
X123782Y227897D01*
X123859Y227908D01*
X123917Y227934D01*
X123979Y227951D01*
X124045Y227992D01*
X124116Y228024D01*
X124165Y228066D01*
X124219Y228100D01*
X124271Y228157D01*
X124330Y228207D01*
X124365Y228261D01*
X124408Y228309D01*
X124442Y228379D01*
X124485Y228443D01*
X124503Y228505D01*
X124531Y228563D01*
X124542Y228632D01*
X124567Y228713D01*
X124568Y228798D01*
X124579Y228867D01*
X124579Y231813D01*
X129437Y236671D01*
X129494Y236747D01*
X129559Y236819D01*
X129579Y236860D01*
X129606Y236896D01*
X129640Y236986D01*
X129682Y237073D01*
X129688Y237115D01*
X129705Y237160D01*
X129714Y237266D01*
X129717Y237278D01*
X129718Y237303D01*
X129729Y237377D01*
X129729Y249494D01*
X129712Y249612D01*
X129701Y249730D01*
X129693Y249751D01*
X129689Y249773D01*
X129641Y249881D01*
X129596Y249992D01*
X129582Y250010D01*
X129573Y250030D01*
X129496Y250121D01*
X129423Y250214D01*
X129404Y250228D01*
X129390Y250245D01*
X129290Y250310D01*
X129194Y250379D01*
X129173Y250387D01*
X129154Y250399D01*
X129040Y250434D01*
X128928Y250474D01*
X128906Y250475D01*
X128884Y250481D01*
X128765Y250483D01*
X128647Y250490D01*
X128626Y250485D01*
X128602Y250485D01*
X128581Y250479D01*
X125903Y250479D01*
X123506Y251472D01*
X121557Y253422D01*
X121505Y253460D01*
X121460Y253506D01*
X121393Y253545D01*
X121331Y253591D01*
X121271Y253614D01*
X121215Y253645D01*
X121140Y253663D01*
X121067Y253691D01*
X121003Y253695D01*
X120941Y253710D01*
X120863Y253706D01*
X120786Y253712D01*
X120723Y253699D01*
X120659Y253696D01*
X120586Y253670D01*
X120510Y253655D01*
X120453Y253625D01*
X120392Y253603D01*
X120336Y253562D01*
X120261Y253522D01*
X120200Y253463D01*
X120143Y253422D01*
X118194Y251472D01*
X115797Y250479D01*
X113270Y250479D01*
X113206Y250470D01*
X113142Y250471D01*
X113067Y250450D01*
X112991Y250439D01*
X112932Y250413D01*
X112870Y250396D01*
X112804Y250355D01*
X112734Y250323D01*
X112685Y250281D01*
X112630Y250248D01*
X112578Y250190D01*
X112520Y250140D01*
X112484Y250086D01*
X112441Y250038D01*
X112408Y249969D01*
X112365Y249904D01*
X112346Y249842D01*
X112318Y249785D01*
X112307Y249715D01*
X112283Y249634D01*
X112282Y249549D01*
X112271Y249480D01*
X112271Y240377D01*
X112279Y240318D01*
X112279Y240302D01*
X112284Y240283D01*
X112284Y240282D01*
X112289Y240186D01*
X112304Y240143D01*
X112311Y240098D01*
X112350Y240010D01*
X112382Y239920D01*
X112407Y239885D01*
X112427Y239841D01*
X112510Y239744D01*
X112563Y239671D01*
X116452Y235782D01*
X116452Y228867D01*
X116461Y228804D01*
X116461Y228739D01*
X116481Y228665D01*
X116492Y228588D01*
X116519Y228530D01*
X116536Y228468D01*
X116577Y228402D01*
X116608Y228331D01*
X116650Y228282D01*
X116684Y228228D01*
X116741Y228176D01*
X116792Y228117D01*
X116846Y228082D01*
X116893Y228039D01*
X116963Y228005D01*
X117028Y227962D01*
X117089Y227944D01*
X117147Y227916D01*
X117216Y227905D01*
X117298Y227880D01*
X117382Y227879D01*
X117452Y227868D01*
X119392Y227868D01*
X119809Y227451D01*
X119860Y227412D01*
X119905Y227366D01*
X119973Y227328D01*
X120035Y227282D01*
X120095Y227259D01*
X120151Y227227D01*
X120226Y227209D01*
X120299Y227182D01*
X120363Y227177D01*
X120425Y227162D01*
X120503Y227166D01*
X120580Y227160D01*
X120643Y227173D01*
G37*
G36*
X146043Y227173D02*
X146043Y227173D01*
X146107Y227177D01*
X146180Y227202D01*
X146256Y227218D01*
X146313Y227248D01*
X146373Y227269D01*
X146430Y227311D01*
X146505Y227350D01*
X146566Y227410D01*
X146622Y227451D01*
X147039Y227868D01*
X148996Y227868D01*
X149059Y227877D01*
X149124Y227876D01*
X149198Y227897D01*
X149275Y227908D01*
X149333Y227934D01*
X149395Y227951D01*
X149461Y227992D01*
X149532Y228024D01*
X149581Y228066D01*
X149635Y228100D01*
X149687Y228157D01*
X149746Y228207D01*
X149781Y228261D01*
X149824Y228309D01*
X149858Y228379D01*
X149901Y228443D01*
X149919Y228505D01*
X149947Y228563D01*
X149958Y228632D01*
X149983Y228713D01*
X149984Y228798D01*
X149995Y228867D01*
X149995Y233956D01*
X154937Y238898D01*
X154994Y238975D01*
X155059Y239046D01*
X155079Y239087D01*
X155106Y239123D01*
X155140Y239214D01*
X155182Y239300D01*
X155188Y239342D01*
X155205Y239387D01*
X155215Y239515D01*
X155229Y239604D01*
X155229Y249536D01*
X155213Y249653D01*
X155201Y249771D01*
X155193Y249792D01*
X155189Y249815D01*
X155141Y249923D01*
X155097Y250033D01*
X155083Y250051D01*
X155073Y250072D01*
X154996Y250162D01*
X154923Y250255D01*
X154905Y250269D01*
X154890Y250286D01*
X154790Y250351D01*
X154694Y250420D01*
X154673Y250428D01*
X154654Y250441D01*
X154540Y250475D01*
X154429Y250515D01*
X154406Y250516D01*
X154384Y250523D01*
X154266Y250524D01*
X154147Y250531D01*
X154126Y250526D01*
X154102Y250527D01*
X153931Y250479D01*
X151303Y250479D01*
X148906Y251472D01*
X146957Y253422D01*
X146905Y253460D01*
X146860Y253506D01*
X146793Y253545D01*
X146731Y253591D01*
X146671Y253614D01*
X146615Y253645D01*
X146540Y253663D01*
X146467Y253691D01*
X146403Y253695D01*
X146341Y253710D01*
X146263Y253706D01*
X146186Y253712D01*
X146123Y253699D01*
X146059Y253696D01*
X145986Y253670D01*
X145910Y253655D01*
X145853Y253625D01*
X145792Y253603D01*
X145736Y253562D01*
X145661Y253522D01*
X145600Y253463D01*
X145543Y253422D01*
X143594Y251472D01*
X141197Y250479D01*
X139270Y250479D01*
X139206Y250470D01*
X139142Y250471D01*
X139067Y250450D01*
X138991Y250439D01*
X138932Y250413D01*
X138870Y250396D01*
X138804Y250355D01*
X138734Y250323D01*
X138685Y250281D01*
X138630Y250248D01*
X138578Y250190D01*
X138520Y250140D01*
X138484Y250086D01*
X138441Y250038D01*
X138408Y249969D01*
X138365Y249904D01*
X138346Y249842D01*
X138318Y249785D01*
X138307Y249715D01*
X138283Y249634D01*
X138282Y249549D01*
X138271Y249480D01*
X138271Y237377D01*
X138279Y237318D01*
X138279Y237304D01*
X138283Y237288D01*
X138284Y237282D01*
X138289Y237186D01*
X138304Y237143D01*
X138311Y237098D01*
X138350Y237010D01*
X138382Y236920D01*
X138407Y236885D01*
X138427Y236841D01*
X138510Y236744D01*
X138563Y236671D01*
X141852Y233382D01*
X141852Y228867D01*
X141861Y228804D01*
X141861Y228739D01*
X141881Y228665D01*
X141892Y228588D01*
X141919Y228530D01*
X141936Y228468D01*
X141977Y228402D01*
X142008Y228331D01*
X142050Y228282D01*
X142084Y228228D01*
X142141Y228176D01*
X142192Y228117D01*
X142246Y228082D01*
X142293Y228039D01*
X142363Y228005D01*
X142428Y227962D01*
X142489Y227944D01*
X142547Y227916D01*
X142616Y227905D01*
X142698Y227880D01*
X142782Y227879D01*
X142852Y227868D01*
X144792Y227868D01*
X145209Y227451D01*
X145260Y227412D01*
X145305Y227366D01*
X145373Y227328D01*
X145435Y227282D01*
X145495Y227259D01*
X145551Y227227D01*
X145626Y227209D01*
X145699Y227182D01*
X145763Y227177D01*
X145825Y227162D01*
X145903Y227166D01*
X145980Y227160D01*
X146043Y227173D01*
G37*
G36*
X196843Y227173D02*
X196843Y227173D01*
X196907Y227177D01*
X196980Y227202D01*
X197056Y227218D01*
X197113Y227248D01*
X197173Y227269D01*
X197230Y227311D01*
X197305Y227350D01*
X197366Y227410D01*
X197422Y227451D01*
X197839Y227868D01*
X199796Y227868D01*
X199859Y227877D01*
X199924Y227876D01*
X199998Y227897D01*
X200075Y227908D01*
X200133Y227934D01*
X200195Y227951D01*
X200261Y227992D01*
X200332Y228024D01*
X200381Y228066D01*
X200435Y228100D01*
X200487Y228157D01*
X200546Y228207D01*
X200581Y228261D01*
X200624Y228309D01*
X200658Y228379D01*
X200701Y228443D01*
X200719Y228505D01*
X200747Y228563D01*
X200758Y228632D01*
X200783Y228713D01*
X200784Y228798D01*
X200795Y228867D01*
X200795Y234506D01*
X202418Y236129D01*
X205687Y239398D01*
X205744Y239475D01*
X205809Y239546D01*
X205829Y239587D01*
X205856Y239623D01*
X205890Y239713D01*
X205932Y239800D01*
X205938Y239842D01*
X205955Y239887D01*
X205965Y240015D01*
X205979Y240104D01*
X205979Y249515D01*
X205963Y249632D01*
X205951Y249751D01*
X205943Y249772D01*
X205939Y249794D01*
X205891Y249902D01*
X205847Y250013D01*
X205833Y250031D01*
X205823Y250051D01*
X205746Y250141D01*
X205673Y250235D01*
X205655Y250248D01*
X205640Y250265D01*
X205540Y250331D01*
X205444Y250400D01*
X205423Y250407D01*
X205404Y250420D01*
X205290Y250455D01*
X205178Y250494D01*
X205156Y250496D01*
X205134Y250502D01*
X205015Y250504D01*
X204897Y250511D01*
X204876Y250506D01*
X204852Y250506D01*
X204756Y250479D01*
X202103Y250479D01*
X199706Y251472D01*
X197757Y253422D01*
X197705Y253460D01*
X197660Y253506D01*
X197593Y253545D01*
X197531Y253591D01*
X197471Y253614D01*
X197415Y253645D01*
X197340Y253663D01*
X197267Y253691D01*
X197203Y253695D01*
X197140Y253710D01*
X197063Y253706D01*
X196986Y253712D01*
X196923Y253699D01*
X196859Y253696D01*
X196786Y253671D01*
X196710Y253655D01*
X196653Y253625D01*
X196592Y253603D01*
X196536Y253562D01*
X196461Y253522D01*
X196400Y253463D01*
X196343Y253422D01*
X194394Y251472D01*
X191997Y250479D01*
X189290Y250479D01*
X189226Y250470D01*
X189162Y250471D01*
X189087Y250450D01*
X189011Y250439D01*
X188952Y250413D01*
X188890Y250396D01*
X188824Y250355D01*
X188754Y250323D01*
X188705Y250281D01*
X188650Y250248D01*
X188598Y250190D01*
X188540Y250140D01*
X188504Y250086D01*
X188461Y250038D01*
X188428Y249969D01*
X188385Y249904D01*
X188366Y249842D01*
X188338Y249785D01*
X188327Y249715D01*
X188303Y249634D01*
X188302Y249549D01*
X188291Y249480D01*
X188291Y240334D01*
X188304Y240240D01*
X188309Y240143D01*
X188324Y240100D01*
X188331Y240055D01*
X188370Y239968D01*
X188402Y239877D01*
X188427Y239842D01*
X188447Y239798D01*
X188530Y239701D01*
X188583Y239628D01*
X192636Y235575D01*
X192636Y228867D01*
X192645Y228804D01*
X192645Y228739D01*
X192665Y228665D01*
X192676Y228588D01*
X192703Y228530D01*
X192720Y228468D01*
X192761Y228402D01*
X192792Y228331D01*
X192834Y228282D01*
X192868Y228228D01*
X192925Y228176D01*
X192976Y228117D01*
X193030Y228082D01*
X193077Y228039D01*
X193147Y228005D01*
X193212Y227962D01*
X193273Y227944D01*
X193331Y227916D01*
X193400Y227905D01*
X193482Y227880D01*
X193566Y227879D01*
X193636Y227868D01*
X195592Y227868D01*
X196009Y227451D01*
X196060Y227412D01*
X196105Y227366D01*
X196173Y227328D01*
X196235Y227282D01*
X196295Y227259D01*
X196351Y227227D01*
X196426Y227209D01*
X196499Y227182D01*
X196563Y227177D01*
X196625Y227162D01*
X196703Y227166D01*
X196780Y227160D01*
X196843Y227173D01*
G37*
G36*
X171443Y227173D02*
X171443Y227173D01*
X171507Y227177D01*
X171580Y227202D01*
X171656Y227218D01*
X171713Y227248D01*
X171773Y227269D01*
X171830Y227311D01*
X171905Y227350D01*
X171966Y227410D01*
X172022Y227451D01*
X172439Y227868D01*
X174396Y227868D01*
X174459Y227877D01*
X174524Y227876D01*
X174598Y227897D01*
X174675Y227908D01*
X174733Y227934D01*
X174795Y227951D01*
X174861Y227992D01*
X174932Y228024D01*
X174981Y228066D01*
X175035Y228100D01*
X175087Y228157D01*
X175146Y228207D01*
X175181Y228261D01*
X175224Y228309D01*
X175258Y228379D01*
X175301Y228443D01*
X175319Y228505D01*
X175347Y228563D01*
X175358Y228632D01*
X175383Y228713D01*
X175384Y228798D01*
X175395Y228867D01*
X175395Y234856D01*
X180187Y239648D01*
X180244Y239725D01*
X180309Y239796D01*
X180329Y239837D01*
X180356Y239873D01*
X180390Y239964D01*
X180432Y240050D01*
X180438Y240092D01*
X180455Y240137D01*
X180465Y240265D01*
X180467Y240273D01*
X180467Y240276D01*
X180467Y240278D01*
X180479Y240354D01*
X180479Y249480D01*
X180471Y249539D01*
X180471Y249551D01*
X180470Y249553D01*
X180471Y249608D01*
X180450Y249683D01*
X180439Y249759D01*
X180413Y249818D01*
X180396Y249880D01*
X180355Y249946D01*
X180323Y250016D01*
X180281Y250065D01*
X180248Y250120D01*
X180190Y250172D01*
X180140Y250230D01*
X180086Y250266D01*
X180038Y250309D01*
X179969Y250342D01*
X179904Y250385D01*
X179842Y250404D01*
X179785Y250432D01*
X179715Y250443D01*
X179634Y250467D01*
X179549Y250468D01*
X179480Y250479D01*
X176703Y250479D01*
X174306Y251472D01*
X172357Y253422D01*
X172305Y253460D01*
X172260Y253506D01*
X172193Y253545D01*
X172131Y253591D01*
X172071Y253614D01*
X172015Y253645D01*
X171940Y253663D01*
X171867Y253691D01*
X171803Y253695D01*
X171741Y253710D01*
X171663Y253706D01*
X171586Y253712D01*
X171523Y253699D01*
X171459Y253696D01*
X171386Y253670D01*
X171310Y253655D01*
X171253Y253625D01*
X171192Y253603D01*
X171136Y253562D01*
X171061Y253522D01*
X171000Y253463D01*
X170943Y253422D01*
X168994Y251472D01*
X166597Y250479D01*
X164290Y250479D01*
X164226Y250470D01*
X164162Y250471D01*
X164087Y250450D01*
X164011Y250439D01*
X163952Y250413D01*
X163890Y250396D01*
X163824Y250355D01*
X163754Y250323D01*
X163705Y250281D01*
X163650Y250248D01*
X163598Y250190D01*
X163540Y250140D01*
X163504Y250086D01*
X163461Y250038D01*
X163428Y249969D01*
X163385Y249904D01*
X163366Y249842D01*
X163338Y249785D01*
X163327Y249715D01*
X163303Y249634D01*
X163302Y249549D01*
X163291Y249480D01*
X163291Y239334D01*
X163304Y239240D01*
X163309Y239143D01*
X163324Y239100D01*
X163331Y239055D01*
X163370Y238968D01*
X163402Y238877D01*
X163427Y238842D01*
X163447Y238798D01*
X163530Y238701D01*
X163583Y238628D01*
X167236Y234975D01*
X167236Y228867D01*
X167245Y228804D01*
X167245Y228739D01*
X167265Y228665D01*
X167276Y228588D01*
X167303Y228530D01*
X167320Y228468D01*
X167361Y228402D01*
X167392Y228331D01*
X167434Y228282D01*
X167468Y228228D01*
X167525Y228176D01*
X167576Y228117D01*
X167630Y228082D01*
X167677Y228039D01*
X167747Y228005D01*
X167812Y227962D01*
X167873Y227944D01*
X167931Y227916D01*
X168000Y227905D01*
X168082Y227880D01*
X168166Y227879D01*
X168236Y227868D01*
X170192Y227868D01*
X170609Y227451D01*
X170660Y227412D01*
X170705Y227366D01*
X170773Y227328D01*
X170835Y227282D01*
X170895Y227259D01*
X170951Y227227D01*
X171026Y227209D01*
X171099Y227182D01*
X171163Y227177D01*
X171225Y227162D01*
X171303Y227166D01*
X171380Y227160D01*
X171443Y227173D01*
G37*
%LPC*%
G36*
X17535Y237463D02*
X17535Y237463D01*
X15463Y239535D01*
X15463Y242546D01*
X15470Y242556D01*
X15502Y242661D01*
X15541Y242763D01*
X15543Y242795D01*
X15552Y242826D01*
X15554Y242935D01*
X15562Y243044D01*
X15556Y243076D01*
X15556Y243108D01*
X15527Y243213D01*
X15505Y243320D01*
X15490Y243348D01*
X15481Y243380D01*
X15424Y243473D01*
X15372Y243569D01*
X15350Y243592D01*
X15333Y243620D01*
X15252Y243693D01*
X15176Y243771D01*
X15148Y243787D01*
X15124Y243809D01*
X15025Y243856D01*
X14930Y243910D01*
X14899Y243918D01*
X14870Y243932D01*
X14780Y243946D01*
X14656Y243975D01*
X14607Y243973D01*
X14565Y243979D01*
X11974Y243979D01*
X11229Y244724D01*
X11229Y257776D01*
X11974Y258521D01*
X25026Y258521D01*
X25771Y257776D01*
X25771Y244724D01*
X25026Y243979D01*
X23435Y243979D01*
X23403Y243975D01*
X23371Y243977D01*
X23264Y243955D01*
X23156Y243939D01*
X23126Y243926D01*
X23095Y243920D01*
X22998Y243868D01*
X22899Y243823D01*
X22874Y243802D01*
X22846Y243787D01*
X22767Y243711D01*
X22684Y243640D01*
X22667Y243613D01*
X22644Y243590D01*
X22590Y243495D01*
X22530Y243404D01*
X22520Y243373D01*
X22505Y243345D01*
X22479Y243238D01*
X22448Y243134D01*
X22447Y243102D01*
X22440Y243070D01*
X22445Y242961D01*
X22444Y242852D01*
X22452Y242821D01*
X22454Y242789D01*
X22490Y242686D01*
X22519Y242580D01*
X22536Y242553D01*
X22537Y242551D01*
X22537Y239535D01*
X20465Y237463D01*
X17535Y237463D01*
G37*
%LPD*%
%LPC*%
G36*
X201535Y85463D02*
X201535Y85463D01*
X199463Y87535D01*
X199463Y90465D01*
X201535Y92537D01*
X204465Y92537D01*
X205438Y91563D01*
X205515Y91506D01*
X205587Y91441D01*
X205627Y91421D01*
X205664Y91394D01*
X205754Y91360D01*
X205840Y91318D01*
X205882Y91312D01*
X205928Y91295D01*
X206055Y91285D01*
X206145Y91271D01*
X237855Y91271D01*
X237950Y91284D01*
X238046Y91289D01*
X238089Y91304D01*
X238134Y91311D01*
X238222Y91350D01*
X238313Y91382D01*
X238347Y91407D01*
X238391Y91427D01*
X238489Y91510D01*
X238562Y91563D01*
X239535Y92537D01*
X242465Y92537D01*
X244537Y90465D01*
X244537Y87535D01*
X242465Y85463D01*
X239535Y85463D01*
X238562Y86437D01*
X238485Y86494D01*
X238414Y86559D01*
X238373Y86579D01*
X238336Y86606D01*
X238246Y86640D01*
X238160Y86682D01*
X238118Y86688D01*
X238072Y86705D01*
X237945Y86715D01*
X237855Y86729D01*
X206145Y86729D01*
X206050Y86716D01*
X205954Y86711D01*
X205911Y86696D01*
X205866Y86689D01*
X205778Y86650D01*
X205687Y86618D01*
X205653Y86593D01*
X205609Y86573D01*
X205511Y86490D01*
X205438Y86437D01*
X204465Y85463D01*
X201535Y85463D01*
G37*
%LPD*%
G36*
X69159Y56687D02*
X69159Y56687D01*
X69224Y56686D01*
X69298Y56707D01*
X69375Y56718D01*
X69433Y56744D01*
X69495Y56761D01*
X69561Y56802D01*
X69632Y56834D01*
X69681Y56876D01*
X69735Y56910D01*
X69787Y56967D01*
X69846Y57017D01*
X69881Y57071D01*
X69924Y57119D01*
X69958Y57189D01*
X70001Y57253D01*
X70019Y57315D01*
X70047Y57373D01*
X70058Y57442D01*
X70083Y57523D01*
X70084Y57608D01*
X70095Y57677D01*
X70095Y62934D01*
X70839Y63678D01*
X81292Y63678D01*
X81709Y63261D01*
X81760Y63222D01*
X81805Y63176D01*
X81873Y63138D01*
X81935Y63092D01*
X81995Y63069D01*
X82051Y63037D01*
X82126Y63019D01*
X82199Y62992D01*
X82263Y62987D01*
X82325Y62972D01*
X82403Y62976D01*
X82480Y62970D01*
X82543Y62983D01*
X82607Y62987D01*
X82680Y63012D01*
X82756Y63028D01*
X82813Y63058D01*
X82873Y63079D01*
X82930Y63121D01*
X83005Y63160D01*
X83066Y63220D01*
X83122Y63261D01*
X83539Y63678D01*
X83698Y63678D01*
X83730Y63683D01*
X83763Y63680D01*
X83870Y63702D01*
X83978Y63718D01*
X84007Y63731D01*
X84039Y63738D01*
X84135Y63789D01*
X84234Y63834D01*
X84259Y63855D01*
X84288Y63870D01*
X84366Y63947D01*
X84449Y64017D01*
X84466Y64045D01*
X84490Y64067D01*
X84543Y64162D01*
X84603Y64253D01*
X84613Y64284D01*
X84629Y64313D01*
X84654Y64419D01*
X84686Y64523D01*
X84686Y64556D01*
X84693Y64587D01*
X84688Y64696D01*
X84689Y64805D01*
X84681Y64836D01*
X84679Y64869D01*
X84643Y64972D01*
X84614Y65077D01*
X84597Y65105D01*
X84586Y65135D01*
X84533Y65208D01*
X84466Y65317D01*
X84430Y65350D01*
X84405Y65384D01*
X84352Y65437D01*
X84275Y65494D01*
X84204Y65559D01*
X84163Y65579D01*
X84126Y65606D01*
X84036Y65640D01*
X83950Y65682D01*
X83908Y65688D01*
X83862Y65705D01*
X83735Y65715D01*
X83646Y65729D01*
X60354Y65729D01*
X60260Y65716D01*
X60163Y65711D01*
X60120Y65696D01*
X60075Y65689D01*
X59988Y65650D01*
X59897Y65618D01*
X59862Y65593D01*
X59818Y65573D01*
X59721Y65490D01*
X59648Y65437D01*
X52595Y58384D01*
X52576Y58358D01*
X52551Y58337D01*
X52491Y58246D01*
X52426Y58158D01*
X52414Y58128D01*
X52397Y58101D01*
X52365Y57997D01*
X52326Y57894D01*
X52324Y57862D01*
X52314Y57831D01*
X52313Y57722D01*
X52305Y57613D01*
X52311Y57582D01*
X52311Y57549D01*
X52340Y57444D01*
X52362Y57337D01*
X52377Y57309D01*
X52386Y57278D01*
X52443Y57185D01*
X52495Y57088D01*
X52517Y57065D01*
X52534Y57038D01*
X52615Y56964D01*
X52691Y56886D01*
X52719Y56870D01*
X52743Y56849D01*
X52842Y56801D01*
X52937Y56747D01*
X52968Y56740D01*
X52997Y56726D01*
X53086Y56712D01*
X53211Y56682D01*
X53260Y56685D01*
X53302Y56678D01*
X69096Y56678D01*
X69159Y56687D01*
G37*
D10*
X241166Y54407D03*
X228466Y54407D03*
X215766Y54407D03*
X203066Y54407D03*
X190366Y54407D03*
X177666Y54407D03*
X164966Y54407D03*
X152266Y54407D03*
X139566Y54407D03*
X126866Y54407D03*
X114166Y54407D03*
X101466Y54407D03*
X88766Y54407D03*
D11*
X245678Y210785D02*
X245678Y226409D01*
X245678Y210785D02*
X236654Y210785D01*
X236654Y226409D01*
X245678Y226409D01*
X245678Y211142D02*
X236654Y211142D01*
X236654Y211499D02*
X245678Y211499D01*
X245678Y211856D02*
X236654Y211856D01*
X236654Y212213D02*
X245678Y212213D01*
X245678Y212570D02*
X236654Y212570D01*
X236654Y212927D02*
X245678Y212927D01*
X245678Y213284D02*
X236654Y213284D01*
X236654Y213641D02*
X245678Y213641D01*
X245678Y213998D02*
X236654Y213998D01*
X236654Y214355D02*
X245678Y214355D01*
X245678Y214712D02*
X236654Y214712D01*
X236654Y215069D02*
X245678Y215069D01*
X245678Y215426D02*
X236654Y215426D01*
X236654Y215783D02*
X245678Y215783D01*
X245678Y216140D02*
X236654Y216140D01*
X236654Y216497D02*
X245678Y216497D01*
X245678Y216854D02*
X236654Y216854D01*
X236654Y217211D02*
X245678Y217211D01*
X245678Y217568D02*
X236654Y217568D01*
X236654Y217925D02*
X245678Y217925D01*
X245678Y218282D02*
X236654Y218282D01*
X236654Y218639D02*
X245678Y218639D01*
X245678Y218996D02*
X236654Y218996D01*
X236654Y219353D02*
X245678Y219353D01*
X245678Y219710D02*
X236654Y219710D01*
X236654Y220067D02*
X245678Y220067D01*
X245678Y220424D02*
X236654Y220424D01*
X236654Y220781D02*
X245678Y220781D01*
X245678Y221138D02*
X236654Y221138D01*
X236654Y221495D02*
X245678Y221495D01*
X245678Y221852D02*
X236654Y221852D01*
X236654Y222209D02*
X245678Y222209D01*
X245678Y222566D02*
X236654Y222566D01*
X236654Y222923D02*
X245678Y222923D01*
X245678Y223280D02*
X236654Y223280D01*
X236654Y223637D02*
X245678Y223637D01*
X245678Y223994D02*
X236654Y223994D01*
X236654Y224351D02*
X245678Y224351D01*
X245678Y224708D02*
X236654Y224708D01*
X236654Y225065D02*
X245678Y225065D01*
X245678Y225422D02*
X236654Y225422D01*
X236654Y225779D02*
X245678Y225779D01*
X245678Y226136D02*
X236654Y226136D01*
D10*
X228466Y218597D03*
X215766Y218597D03*
X203066Y218597D03*
X190366Y218597D03*
X177666Y218597D03*
X164966Y218597D03*
X152266Y218597D03*
X139566Y218597D03*
X126866Y218597D03*
X114166Y218597D03*
X101466Y218597D03*
X88766Y218597D03*
X35166Y218597D03*
X22466Y218597D03*
X76066Y54407D03*
X76066Y218597D03*
D12*
X506000Y201000D03*
X506000Y74000D03*
D13*
X16500Y37250D03*
X16500Y27250D03*
X16500Y17250D03*
X41500Y37250D03*
X41500Y27250D03*
X41500Y17250D03*
D14*
X29127Y27266D03*
D15*
X300600Y236000D03*
X364000Y236000D03*
D16*
X516750Y123750D03*
X493750Y123750D03*
D17*
X497000Y143750D03*
X516000Y143750D03*
D18*
X481500Y69750D03*
X481500Y88750D03*
D19*
X459000Y87750D03*
X459000Y70750D03*
D20*
X517750Y143750D03*
X520500Y191250D03*
D21*
X83750Y26000D03*
X124750Y26000D03*
D17*
X167250Y26000D03*
X148250Y26000D03*
X77250Y251250D03*
X58250Y251250D03*
D22*
X39500Y251250D03*
X18500Y251250D03*
D19*
X61750Y37000D03*
X61750Y20000D03*
D23*
X456700Y22400D03*
X471050Y22450D03*
X485350Y22300D03*
X499600Y22450D03*
X514000Y22500D03*
X442150Y22500D03*
D24*
X190700Y257000D03*
X203400Y257000D03*
X216100Y257000D03*
X228800Y257000D03*
X241500Y257000D03*
X178000Y257000D03*
X165300Y257000D03*
X152600Y257000D03*
X139900Y257000D03*
X127200Y257000D03*
X114500Y257000D03*
X101800Y257000D03*
D25*
X366500Y198000D03*
X349500Y198000D03*
D26*
X475000Y245000D03*
X517000Y245000D03*
X405000Y245000D03*
X447000Y245000D03*
D27*
X332750Y21250D03*
X332750Y27750D03*
X332750Y34250D03*
X332750Y40750D03*
X289250Y40750D03*
X289250Y34250D03*
X289250Y27750D03*
X289250Y21250D03*
D25*
X302500Y56000D03*
X319500Y56000D03*
D28*
X472000Y201000D03*
X450000Y191500D03*
X450000Y210500D03*
D29*
X518500Y125500D02*
X516750Y123750D01*
D30*
X516750Y143000D02*
X516000Y143750D01*
X517750Y143750D01*
D31*
X516000Y143750D02*
X542750Y143750D01*
X542750Y123750D01*
X516750Y123750D01*
D32*
X299000Y113750D03*
X314000Y113750D03*
X331500Y113750D03*
X349000Y113750D03*
X367750Y113750D03*
X382750Y113750D03*
X399000Y113750D03*
X415250Y113750D03*
X439500Y114750D03*
X282750Y115000D03*
X270250Y123750D03*
X265250Y138750D03*
X270250Y155000D03*
X282750Y163750D03*
X299000Y163750D03*
X314000Y163750D03*
X332750Y163750D03*
X349000Y163750D03*
X364000Y163750D03*
X384000Y163750D03*
X399000Y163750D03*
X416500Y163750D03*
X432750Y163750D03*
X449000Y163750D03*
X466500Y162500D03*
X478250Y152500D03*
X476250Y124000D03*
X460250Y116000D03*
X282750Y183750D03*
X314000Y183750D03*
X332750Y183750D03*
X347750Y183750D03*
X364000Y183750D03*
X384000Y183750D03*
X399000Y183750D03*
X416500Y183750D03*
X431500Y183750D03*
X449000Y181750D03*
X12750Y63000D03*
X12750Y75750D03*
X12750Y88750D03*
X12750Y105000D03*
X12750Y121250D03*
X12750Y137500D03*
X12750Y153750D03*
X12750Y170000D03*
X12750Y186250D03*
X12750Y201250D03*
X12750Y217500D03*
X12750Y232500D03*
X299000Y93750D03*
X314000Y93750D03*
X331500Y93750D03*
X349000Y93750D03*
X367750Y93750D03*
X382750Y93750D03*
X399000Y93750D03*
X415250Y93750D03*
X436500Y93750D03*
D33*
X514200Y22600D03*
D32*
X286000Y93750D03*
X270000Y93750D03*
X258000Y106750D03*
X247000Y116750D03*
X218000Y144750D03*
X208000Y155750D03*
X198000Y165750D03*
X185000Y177750D03*
X175000Y186750D03*
X161000Y186750D03*
X145000Y186750D03*
X129000Y186750D03*
X113000Y186750D03*
X78000Y204750D03*
X207000Y189750D03*
X198000Y198750D03*
X181000Y204750D03*
X151000Y204750D03*
X134000Y204750D03*
X115000Y204750D03*
X217000Y179750D03*
X240000Y154750D03*
X252000Y142750D03*
X239000Y124750D03*
X167000Y204750D03*
X100000Y186750D03*
X88000Y194750D03*
X266750Y183750D03*
X469000Y181750D03*
X487000Y181750D03*
X500000Y170750D03*
X122000Y248750D03*
X122000Y238750D03*
X147000Y248750D03*
X147000Y238750D03*
X172000Y248750D03*
X197000Y248750D03*
X172000Y239750D03*
X197000Y239750D03*
X220000Y248750D03*
X197000Y230750D03*
X172000Y230750D03*
X147000Y230750D03*
X122000Y230750D03*
X94000Y248750D03*
X94000Y230750D03*
X256000Y258750D03*
X270000Y258750D03*
X220000Y239750D03*
X414000Y15750D03*
X432000Y15750D03*
X102000Y204750D03*
X94000Y239750D03*
X119750Y128750D03*
X119750Y110750D03*
X119750Y77750D03*
X100750Y77750D03*
D29*
X16516Y27266D02*
X16500Y27250D01*
D30*
X542750Y191250D02*
X543000Y191000D01*
X542750Y191250D02*
X520500Y191250D01*
X510000Y78000D02*
X506000Y74000D01*
X510000Y78000D02*
X540000Y78000D01*
D32*
X398000Y15750D03*
X382000Y15750D03*
X367000Y15750D03*
X349000Y15750D03*
X65000Y60750D03*
D29*
X323250Y40750D02*
X332750Y40750D01*
X319500Y44500D02*
X319500Y56000D01*
X319500Y44500D02*
X323250Y40750D01*
D32*
X226250Y15750D03*
X213250Y15750D03*
X199250Y15750D03*
X184250Y15750D03*
X349000Y29750D03*
X349000Y41750D03*
X349000Y52750D03*
X252250Y61750D03*
D29*
X29127Y27266D02*
X29111Y27250D01*
X16500Y27250D01*
X11750Y27250D01*
X9000Y30000D01*
X9000Y59250D01*
X12750Y63000D01*
D32*
X104250Y25750D03*
X334000Y52750D03*
D29*
X497000Y143750D02*
X497750Y144500D01*
X497750Y160000D01*
X484000Y173750D01*
X241166Y195334D02*
X241166Y218597D01*
X262750Y173750D02*
X484000Y173750D01*
X262750Y173750D02*
X241166Y195334D01*
D34*
X499600Y33400D02*
X499600Y22450D01*
X499600Y33400D02*
X499000Y34000D01*
D35*
X499000Y34000D03*
D33*
X499600Y22500D03*
D36*
X499600Y22450D01*
D37*
X449500Y191000D02*
X450000Y191500D01*
X367000Y233000D02*
X364000Y236000D01*
X347000Y236000D01*
D32*
X342000Y236000D03*
D37*
X347000Y236000D01*
D32*
X347000Y236000D03*
D37*
X228466Y54407D02*
X228466Y35534D01*
X229000Y35000D01*
D32*
X233000Y31000D03*
D37*
X229000Y35000D01*
D32*
X229000Y35000D03*
D38*
X242750Y21250D02*
X289250Y21250D01*
X242750Y21250D02*
X233000Y31000D01*
X302500Y24500D02*
X302500Y56000D01*
X302500Y24500D02*
X299000Y21000D01*
X289500Y21000D01*
X289250Y21250D01*
D37*
X397000Y191000D02*
X390000Y198000D01*
X366500Y198000D01*
X397000Y191000D02*
X449500Y191000D01*
X366500Y233500D02*
X364000Y236000D01*
X366500Y233500D02*
X366500Y198000D01*
D30*
X61750Y37000D02*
X54158Y37000D01*
X44408Y27250D01*
X41500Y27250D01*
D32*
X76000Y42000D03*
D34*
X71000Y37000D02*
X61750Y37000D01*
X71000Y37000D02*
X76000Y42000D01*
D29*
X101000Y54873D02*
X101466Y54407D01*
X101000Y54873D02*
X101000Y68000D01*
D32*
X101000Y68000D03*
D31*
X83750Y35750D02*
X83750Y26000D01*
X83750Y35750D02*
X89000Y41000D01*
X152266Y44266D02*
X152266Y54407D01*
X149000Y41000D02*
X89000Y41000D01*
X149000Y41000D02*
X152266Y44266D01*
X456700Y26300D02*
X456700Y22400D01*
X210556Y71556D02*
X203000Y64000D01*
X203000Y54473D01*
X203066Y54407D01*
X411444Y71556D02*
X456700Y26300D01*
X411444Y71556D02*
X210556Y71556D01*
D33*
X456600Y22400D03*
D36*
X456700Y22400D01*
D29*
X215766Y218597D02*
X215766Y235234D01*
X211750Y239250D01*
X211750Y252650D01*
X216100Y257000D01*
X76066Y54407D02*
X50407Y54407D01*
X41500Y45500D02*
X41500Y37250D01*
X41500Y45500D02*
X50407Y54407D01*
D30*
X88766Y54407D02*
X89000Y54642D01*
D29*
X16500Y42500D02*
X16500Y37250D01*
X16500Y42500D02*
X21000Y47000D01*
X38000Y47000D01*
X88766Y54407D02*
X88766Y64234D01*
X59000Y68000D02*
X38000Y47000D01*
X59000Y68000D02*
X85000Y68000D01*
X88766Y64234D01*
D30*
X58250Y251250D02*
X39500Y251250D01*
D29*
X114166Y66834D02*
X114166Y54407D01*
X114166Y66834D02*
X114000Y67000D01*
D32*
X114000Y67000D03*
D29*
X139566Y66434D02*
X139566Y54407D01*
X130136Y75864D02*
X130136Y91489D01*
X113355Y108270D02*
X96270Y108270D01*
X87000Y99000D01*
X87000Y85000D01*
X130136Y75864D02*
X139566Y66434D01*
X130136Y91489D02*
X113355Y108270D01*
D32*
X87000Y85000D03*
D31*
X442150Y35500D02*
X442150Y22500D01*
X442150Y35500D02*
X409650Y68000D01*
X215766Y63766D02*
X215766Y54407D01*
X220000Y68000D02*
X409650Y68000D01*
X220000Y68000D02*
X215766Y63766D01*
D33*
X442100Y22500D03*
D30*
X442150Y22500D01*
D31*
X485350Y22300D02*
X485350Y29650D01*
X474444Y40556D02*
X452502Y40556D01*
X414058Y79000D01*
X164966Y65966D02*
X164966Y54407D01*
X474444Y40556D02*
X485350Y29650D01*
X414058Y79000D02*
X178000Y79000D01*
X164966Y65966D01*
D33*
X485300Y22300D03*
D36*
X485350Y22300D01*
D31*
X471050Y22450D02*
X471050Y27950D01*
X462000Y37000D02*
X451029Y37000D01*
X177666Y54407D02*
X177666Y64666D01*
X462000Y37000D02*
X471050Y27950D01*
X451029Y37000D02*
X412917Y75112D01*
X188112Y75112D01*
X177666Y64666D01*
D33*
X471100Y22300D03*
D36*
X471050Y22350D01*
X471050Y22450D01*
D29*
X76066Y218597D02*
X76000Y218663D01*
X76000Y232000D01*
D32*
X76000Y232000D03*
X138000Y26000D03*
D31*
X148250Y26000D01*
X138000Y26000D02*
X124750Y26000D01*
D29*
X480500Y87750D02*
X481500Y88750D01*
X480500Y87750D02*
X459000Y87750D01*
X493750Y123750D02*
X493500Y124000D01*
X459000Y99000D02*
X459000Y87750D01*
X459000Y99000D02*
X454000Y104000D01*
X182000Y198000D02*
X98000Y198000D01*
X89000Y207000D01*
X89000Y218363D02*
X88766Y218597D01*
X276000Y104000D02*
X454000Y104000D01*
X276000Y104000D02*
X182000Y198000D01*
X89000Y207000D02*
X89000Y218363D01*
X493750Y123750D02*
X493750Y91750D01*
X490750Y88750D02*
X481500Y88750D01*
X490750Y88750D02*
X493750Y91750D01*
X101466Y218597D02*
X101466Y234466D01*
X106300Y239300D01*
X18500Y241500D02*
X18500Y251250D01*
X18500Y241500D02*
X19000Y241000D01*
D32*
X19000Y241000D03*
D29*
X106300Y239300D02*
X106300Y252500D01*
X101800Y257000D01*
D31*
X114166Y234834D02*
X114166Y218597D01*
X114166Y234834D02*
X110000Y239000D01*
D29*
X110000Y252500D01*
X114500Y257000D01*
D31*
X126866Y230866D02*
X126866Y218597D01*
X126866Y230866D02*
X132000Y236000D01*
D29*
X132000Y252200D01*
X127200Y257000D01*
D31*
X139566Y232434D02*
X139566Y218597D01*
X139566Y232434D02*
X136000Y236000D01*
D29*
X136000Y253100D01*
X139900Y257000D01*
X152266Y233016D02*
X152266Y218597D01*
X152266Y233016D02*
X157500Y238250D01*
X157500Y252100D01*
X152600Y257000D01*
X164966Y234034D02*
X164966Y218597D01*
X164966Y234034D02*
X161020Y237980D01*
X161020Y252720D01*
X165300Y257000D01*
X177666Y233916D02*
X177666Y218597D01*
X177666Y233916D02*
X182750Y239000D01*
X182750Y252250D01*
X178000Y257000D01*
X190366Y234634D02*
X190366Y218597D01*
X190366Y234634D02*
X186020Y238980D01*
X186020Y252320D01*
X190700Y257000D01*
X190366Y218597D02*
X191000Y217963D01*
X191000Y207000D01*
D32*
X191000Y207000D03*
X220000Y42000D03*
D29*
X223000Y39000D01*
X223000Y32000D01*
X319250Y21250D02*
X332750Y21250D01*
X240000Y15000D02*
X223000Y32000D01*
X240000Y15000D02*
X313000Y15000D01*
X319250Y21250D01*
X203066Y218597D02*
X203066Y233566D01*
X208250Y238750D01*
X208250Y252150D01*
X203400Y257000D01*
X228466Y234466D02*
X228466Y218597D01*
X228466Y234466D02*
X242000Y248000D01*
X475000Y245000D02*
X475000Y257000D01*
X273000Y248000D02*
X242000Y248000D01*
X273000Y248000D02*
X285000Y260000D01*
X472000Y260000D01*
X475000Y257000D01*
D32*
X241000Y89000D03*
D29*
X190366Y65366D02*
X190366Y54407D01*
X190366Y65366D02*
X193000Y68000D01*
D32*
X193000Y68000D03*
X203000Y89000D03*
D29*
X241000Y89000D01*
D32*
X391000Y245000D03*
D29*
X405000Y245000D01*
X126866Y90134D02*
X126866Y54407D01*
X126866Y90134D02*
X114000Y103000D01*
X104000Y103000D01*
D32*
X104000Y103000D03*
D37*
X472000Y201000D02*
X506000Y201000D01*
M02*
