G04 EAGLE Gerber RS-274X export*
G75*
%MOMM*%
%FSLAX34Y34*%
%LPD*%
%INTop Copper*%
%IPPOS*%
%AMOC8*
5,1,8,0,0,1.08239X$1,22.5*%
G01*
%ADD10R,0.940000X1.600000*%
%ADD11C,0.037600*%
%ADD12C,1.905000*%
%ADD13R,0.500000X0.500000*%
%ADD14R,1.450000X2.400000*%
%ADD15R,2.550000X2.700000*%
%ADD16R,1.000000X0.800000*%
%ADD17R,1.300000X1.600000*%
%ADD18R,1.600000X1.300000*%
%ADD19R,1.500000X1.300000*%
%ADD20R,0.508000X0.508000*%
%ADD21R,1.800000X1.700000*%
%ADD22R,1.200000X1.200000*%
%ADD23R,1.300000X1.500000*%
%ADD24C,1.270000*%
%ADD25C,1.050000*%
%ADD26R,2.000000X0.800000*%
%ADD27R,1.200000X0.450000*%
%ADD28C,0.200000*%
%ADD29C,0.254000*%
%ADD30C,0.203200*%
%ADD31C,0.453200*%
%ADD32C,0.603200*%
%ADD33C,0.609600*%
%ADD34C,0.406400*%
%ADD35C,0.503200*%
%ADD36C,0.152400*%
%ADD37C,0.304800*%

G36*
X376017Y12605D02*
X376017Y12605D01*
X376049Y12603D01*
X376156Y12625D01*
X376264Y12641D01*
X376294Y12654D01*
X376325Y12660D01*
X376422Y12712D01*
X376521Y12757D01*
X376546Y12778D01*
X376574Y12793D01*
X376653Y12869D01*
X376736Y12940D01*
X376753Y12967D01*
X376776Y12990D01*
X376830Y13084D01*
X376890Y13176D01*
X376900Y13207D01*
X376915Y13235D01*
X376941Y13341D01*
X376972Y13446D01*
X376973Y13478D01*
X376980Y13509D01*
X376975Y13619D01*
X376976Y13728D01*
X376968Y13759D01*
X376966Y13791D01*
X376930Y13894D01*
X376901Y14000D01*
X376884Y14027D01*
X376873Y14058D01*
X376820Y14131D01*
X376753Y14240D01*
X376717Y14272D01*
X376692Y14307D01*
X376463Y14535D01*
X376463Y17730D01*
X376454Y17794D01*
X376455Y17858D01*
X376434Y17933D01*
X376423Y18009D01*
X376397Y18068D01*
X376380Y18130D01*
X376339Y18196D01*
X376307Y18266D01*
X376265Y18315D01*
X376232Y18370D01*
X376174Y18422D01*
X376124Y18480D01*
X376070Y18516D01*
X376022Y18559D01*
X375953Y18592D01*
X375888Y18635D01*
X375826Y18654D01*
X375769Y18682D01*
X375699Y18693D01*
X375618Y18717D01*
X375533Y18718D01*
X375464Y18729D01*
X373224Y18729D01*
X372479Y19474D01*
X372479Y23714D01*
X372470Y23778D01*
X372471Y23842D01*
X372450Y23917D01*
X372439Y23993D01*
X372413Y24052D01*
X372396Y24114D01*
X372355Y24180D01*
X372323Y24250D01*
X372281Y24299D01*
X372248Y24354D01*
X372190Y24406D01*
X372140Y24464D01*
X372086Y24500D01*
X372038Y24543D01*
X371969Y24576D01*
X371904Y24619D01*
X371842Y24638D01*
X371785Y24666D01*
X371715Y24677D01*
X371634Y24701D01*
X371549Y24702D01*
X371480Y24713D01*
X368020Y24713D01*
X367956Y24704D01*
X367892Y24705D01*
X367817Y24684D01*
X367741Y24673D01*
X367682Y24647D01*
X367620Y24630D01*
X367554Y24589D01*
X367484Y24557D01*
X367435Y24515D01*
X367380Y24482D01*
X367328Y24424D01*
X367270Y24374D01*
X367234Y24320D01*
X367191Y24272D01*
X367158Y24203D01*
X367115Y24138D01*
X367096Y24076D01*
X367068Y24019D01*
X367057Y23949D01*
X367033Y23868D01*
X367032Y23783D01*
X367021Y23714D01*
X367021Y17974D01*
X366276Y17229D01*
X347224Y17229D01*
X346479Y17974D01*
X346479Y36026D01*
X347224Y36771D01*
X366276Y36771D01*
X367021Y36026D01*
X367021Y30286D01*
X367030Y30222D01*
X367029Y30158D01*
X367050Y30083D01*
X367061Y30007D01*
X367087Y29948D01*
X367104Y29886D01*
X367145Y29820D01*
X367177Y29750D01*
X367219Y29701D01*
X367252Y29646D01*
X367310Y29594D01*
X367360Y29536D01*
X367414Y29500D01*
X367462Y29457D01*
X367531Y29424D01*
X367596Y29381D01*
X367658Y29362D01*
X367715Y29334D01*
X367785Y29323D01*
X367866Y29299D01*
X367951Y29298D01*
X368020Y29287D01*
X371480Y29287D01*
X371544Y29296D01*
X371608Y29295D01*
X371683Y29316D01*
X371759Y29327D01*
X371818Y29353D01*
X371880Y29370D01*
X371946Y29411D01*
X372016Y29443D01*
X372065Y29485D01*
X372120Y29518D01*
X372172Y29576D01*
X372230Y29626D01*
X372266Y29680D01*
X372309Y29728D01*
X372342Y29797D01*
X372385Y29862D01*
X372404Y29924D01*
X372432Y29981D01*
X372443Y30051D01*
X372467Y30132D01*
X372468Y30217D01*
X372479Y30286D01*
X372479Y36526D01*
X373224Y37271D01*
X387276Y37271D01*
X388021Y36526D01*
X388021Y19474D01*
X387276Y18729D01*
X384536Y18729D01*
X384472Y18720D01*
X384408Y18721D01*
X384333Y18700D01*
X384257Y18689D01*
X384198Y18663D01*
X384136Y18646D01*
X384070Y18605D01*
X384000Y18573D01*
X383951Y18531D01*
X383896Y18498D01*
X383844Y18440D01*
X383786Y18390D01*
X383750Y18336D01*
X383707Y18288D01*
X383674Y18219D01*
X383631Y18154D01*
X383612Y18092D01*
X383584Y18035D01*
X383573Y17965D01*
X383549Y17884D01*
X383548Y17799D01*
X383537Y17730D01*
X383537Y14535D01*
X383308Y14307D01*
X383289Y14281D01*
X383264Y14260D01*
X383204Y14168D01*
X383139Y14081D01*
X383128Y14051D01*
X383110Y14024D01*
X383078Y13919D01*
X383039Y13817D01*
X383037Y13785D01*
X383028Y13754D01*
X383026Y13645D01*
X383018Y13536D01*
X383024Y13504D01*
X383024Y13472D01*
X383053Y13367D01*
X383075Y13260D01*
X383090Y13231D01*
X383099Y13200D01*
X383156Y13107D01*
X383208Y13011D01*
X383230Y12988D01*
X383247Y12960D01*
X383328Y12887D01*
X383404Y12809D01*
X383432Y12793D01*
X383456Y12771D01*
X383555Y12724D01*
X383650Y12670D01*
X383681Y12662D01*
X383710Y12648D01*
X383800Y12634D01*
X383924Y12605D01*
X383973Y12607D01*
X384015Y12601D01*
X521650Y12601D01*
X521714Y12610D01*
X521778Y12609D01*
X521853Y12630D01*
X521929Y12641D01*
X521988Y12667D01*
X522050Y12684D01*
X522116Y12725D01*
X522186Y12757D01*
X522235Y12799D01*
X522290Y12832D01*
X522342Y12890D01*
X522400Y12940D01*
X522436Y12994D01*
X522479Y13042D01*
X522512Y13111D01*
X522555Y13176D01*
X522574Y13238D01*
X522602Y13295D01*
X522613Y13365D01*
X522637Y13446D01*
X522638Y13531D01*
X522649Y13600D01*
X522649Y31476D01*
X525106Y39038D01*
X526808Y41380D01*
X526817Y41396D01*
X526829Y41409D01*
X526883Y41520D01*
X526940Y41630D01*
X526944Y41647D01*
X526952Y41663D01*
X526966Y41752D01*
X526997Y41906D01*
X526995Y41939D01*
X526999Y41968D01*
X526999Y120464D01*
X526990Y120528D01*
X526991Y120592D01*
X526970Y120667D01*
X526959Y120743D01*
X526933Y120802D01*
X526916Y120864D01*
X526875Y120930D01*
X526843Y121000D01*
X526801Y121049D01*
X526768Y121104D01*
X526710Y121156D01*
X526660Y121214D01*
X526606Y121250D01*
X526558Y121293D01*
X526489Y121326D01*
X526424Y121369D01*
X526362Y121388D01*
X526305Y121416D01*
X526235Y121427D01*
X526154Y121451D01*
X526069Y121452D01*
X526000Y121463D01*
X524020Y121463D01*
X523956Y121454D01*
X523892Y121455D01*
X523817Y121434D01*
X523741Y121423D01*
X523682Y121397D01*
X523620Y121380D01*
X523554Y121339D01*
X523484Y121307D01*
X523435Y121265D01*
X523380Y121232D01*
X523328Y121174D01*
X523270Y121124D01*
X523234Y121070D01*
X523191Y121022D01*
X523158Y120953D01*
X523115Y120888D01*
X523096Y120826D01*
X523068Y120769D01*
X523057Y120699D01*
X523033Y120618D01*
X523032Y120533D01*
X523021Y120464D01*
X523021Y119224D01*
X522276Y118479D01*
X511224Y118479D01*
X510479Y119224D01*
X510479Y128276D01*
X511224Y129021D01*
X522276Y129021D01*
X523021Y128276D01*
X523021Y127036D01*
X523030Y126972D01*
X523029Y126908D01*
X523050Y126833D01*
X523061Y126757D01*
X523087Y126698D01*
X523104Y126636D01*
X523145Y126570D01*
X523177Y126500D01*
X523219Y126451D01*
X523252Y126396D01*
X523310Y126344D01*
X523360Y126286D01*
X523414Y126250D01*
X523462Y126207D01*
X523531Y126174D01*
X523596Y126131D01*
X523658Y126112D01*
X523715Y126084D01*
X523785Y126073D01*
X523866Y126049D01*
X523951Y126048D01*
X524020Y126037D01*
X526000Y126037D01*
X526064Y126046D01*
X526128Y126045D01*
X526203Y126066D01*
X526279Y126077D01*
X526338Y126103D01*
X526400Y126120D01*
X526466Y126161D01*
X526536Y126193D01*
X526585Y126235D01*
X526640Y126268D01*
X526692Y126326D01*
X526750Y126376D01*
X526786Y126430D01*
X526829Y126478D01*
X526862Y126547D01*
X526905Y126612D01*
X526924Y126674D01*
X526952Y126731D01*
X526963Y126801D01*
X526987Y126882D01*
X526988Y126967D01*
X526999Y127036D01*
X526999Y140464D01*
X526990Y140528D01*
X526991Y140592D01*
X526970Y140667D01*
X526959Y140743D01*
X526933Y140802D01*
X526916Y140864D01*
X526875Y140930D01*
X526843Y141000D01*
X526801Y141049D01*
X526768Y141104D01*
X526710Y141156D01*
X526660Y141214D01*
X526606Y141250D01*
X526558Y141293D01*
X526489Y141326D01*
X526424Y141369D01*
X526362Y141388D01*
X526305Y141416D01*
X526235Y141427D01*
X526154Y141451D01*
X526069Y141452D01*
X526000Y141463D01*
X524770Y141463D01*
X524706Y141454D01*
X524642Y141455D01*
X524567Y141434D01*
X524491Y141423D01*
X524432Y141397D01*
X524370Y141380D01*
X524304Y141339D01*
X524234Y141307D01*
X524185Y141265D01*
X524130Y141232D01*
X524078Y141174D01*
X524020Y141124D01*
X523984Y141070D01*
X523941Y141022D01*
X523908Y140953D01*
X523865Y140888D01*
X523846Y140826D01*
X523818Y140769D01*
X523807Y140699D01*
X523783Y140618D01*
X523782Y140533D01*
X523771Y140464D01*
X523771Y135224D01*
X523026Y134479D01*
X508974Y134479D01*
X508229Y135224D01*
X508229Y152276D01*
X508974Y153021D01*
X523026Y153021D01*
X523771Y152276D01*
X523771Y147036D01*
X523780Y146972D01*
X523779Y146908D01*
X523800Y146833D01*
X523811Y146757D01*
X523837Y146698D01*
X523854Y146636D01*
X523895Y146570D01*
X523927Y146500D01*
X523969Y146451D01*
X524002Y146396D01*
X524060Y146344D01*
X524110Y146286D01*
X524164Y146250D01*
X524212Y146207D01*
X524281Y146174D01*
X524346Y146131D01*
X524408Y146112D01*
X524465Y146084D01*
X524535Y146073D01*
X524616Y146049D01*
X524701Y146048D01*
X524770Y146037D01*
X526000Y146037D01*
X526064Y146046D01*
X526128Y146045D01*
X526203Y146066D01*
X526279Y146077D01*
X526338Y146103D01*
X526400Y146120D01*
X526466Y146161D01*
X526536Y146193D01*
X526585Y146235D01*
X526640Y146268D01*
X526692Y146326D01*
X526750Y146376D01*
X526786Y146430D01*
X526829Y146478D01*
X526862Y146547D01*
X526905Y146612D01*
X526924Y146674D01*
X526952Y146731D01*
X526963Y146801D01*
X526987Y146882D01*
X526988Y146967D01*
X526999Y147036D01*
X526999Y231815D01*
X526997Y231833D01*
X526999Y231851D01*
X526977Y231972D01*
X526959Y232094D01*
X526952Y232111D01*
X526949Y232128D01*
X526908Y232208D01*
X526843Y232351D01*
X526822Y232376D01*
X526808Y232402D01*
X526112Y233362D01*
X523899Y240170D01*
X523899Y261400D01*
X523890Y261464D01*
X523891Y261528D01*
X523870Y261603D01*
X523859Y261679D01*
X523833Y261738D01*
X523816Y261800D01*
X523775Y261866D01*
X523743Y261936D01*
X523701Y261985D01*
X523668Y262040D01*
X523610Y262092D01*
X523560Y262150D01*
X523506Y262186D01*
X523458Y262229D01*
X523389Y262262D01*
X523324Y262305D01*
X523262Y262324D01*
X523205Y262352D01*
X523135Y262363D01*
X523054Y262387D01*
X522969Y262388D01*
X522900Y262399D01*
X235035Y262399D01*
X235003Y262395D01*
X234971Y262397D01*
X234864Y262375D01*
X234756Y262359D01*
X234726Y262346D01*
X234695Y262340D01*
X234598Y262288D01*
X234499Y262243D01*
X234474Y262222D01*
X234446Y262207D01*
X234367Y262131D01*
X234284Y262060D01*
X234267Y262033D01*
X234244Y262010D01*
X234190Y261915D01*
X234130Y261824D01*
X234120Y261793D01*
X234105Y261765D01*
X234079Y261659D01*
X234048Y261554D01*
X234047Y261522D01*
X234040Y261490D01*
X234045Y261381D01*
X234044Y261272D01*
X234052Y261241D01*
X234054Y261209D01*
X234090Y261106D01*
X234119Y261000D01*
X234136Y260973D01*
X234147Y260942D01*
X234200Y260869D01*
X234267Y260760D01*
X234303Y260728D01*
X234328Y260694D01*
X235321Y258297D01*
X235321Y255703D01*
X234328Y253306D01*
X232494Y251472D01*
X230097Y250479D01*
X227503Y250479D01*
X225106Y251472D01*
X223157Y253422D01*
X223105Y253460D01*
X223060Y253506D01*
X222993Y253545D01*
X222931Y253591D01*
X222871Y253614D01*
X222815Y253645D01*
X222740Y253663D01*
X222667Y253691D01*
X222603Y253695D01*
X222540Y253710D01*
X222463Y253706D01*
X222386Y253712D01*
X222323Y253699D01*
X222259Y253696D01*
X222186Y253671D01*
X222110Y253655D01*
X222053Y253625D01*
X221992Y253603D01*
X221936Y253562D01*
X221861Y253522D01*
X221800Y253463D01*
X221743Y253422D01*
X219794Y251472D01*
X217397Y250479D01*
X215020Y250479D01*
X214956Y250470D01*
X214892Y250471D01*
X214817Y250450D01*
X214741Y250439D01*
X214682Y250413D01*
X214620Y250396D01*
X214554Y250355D01*
X214484Y250323D01*
X214435Y250281D01*
X214380Y250248D01*
X214328Y250190D01*
X214270Y250140D01*
X214234Y250086D01*
X214191Y250038D01*
X214158Y249969D01*
X214115Y249904D01*
X214096Y249842D01*
X214068Y249785D01*
X214057Y249715D01*
X214033Y249634D01*
X214032Y249549D01*
X214021Y249480D01*
X214021Y240604D01*
X214034Y240510D01*
X214039Y240413D01*
X214054Y240370D01*
X214061Y240325D01*
X214100Y240238D01*
X214132Y240147D01*
X214157Y240112D01*
X214177Y240068D01*
X214260Y239971D01*
X214313Y239898D01*
X218036Y236175D01*
X218036Y228867D01*
X218045Y228804D01*
X218045Y228739D01*
X218065Y228665D01*
X218076Y228588D01*
X218103Y228530D01*
X218120Y228468D01*
X218161Y228402D01*
X218192Y228331D01*
X218234Y228282D01*
X218268Y228228D01*
X218325Y228176D01*
X218376Y228117D01*
X218430Y228082D01*
X218477Y228039D01*
X218547Y228005D01*
X218612Y227962D01*
X218673Y227944D01*
X218731Y227916D01*
X218800Y227905D01*
X218882Y227880D01*
X218966Y227879D01*
X219036Y227868D01*
X220992Y227868D01*
X221409Y227451D01*
X221460Y227412D01*
X221505Y227366D01*
X221573Y227328D01*
X221635Y227282D01*
X221695Y227259D01*
X221751Y227227D01*
X221826Y227209D01*
X221899Y227182D01*
X221963Y227177D01*
X222025Y227162D01*
X222103Y227166D01*
X222180Y227160D01*
X222243Y227173D01*
X222307Y227177D01*
X222380Y227202D01*
X222456Y227218D01*
X222513Y227248D01*
X222573Y227269D01*
X222630Y227311D01*
X222705Y227350D01*
X222766Y227410D01*
X222822Y227451D01*
X223239Y227868D01*
X225196Y227868D01*
X225259Y227877D01*
X225324Y227876D01*
X225398Y227897D01*
X225475Y227908D01*
X225533Y227934D01*
X225595Y227951D01*
X225661Y227992D01*
X225732Y228024D01*
X225781Y228066D01*
X225835Y228100D01*
X225887Y228157D01*
X225946Y228207D01*
X225981Y228261D01*
X226024Y228309D01*
X226058Y228379D01*
X226101Y228443D01*
X226119Y228505D01*
X226147Y228563D01*
X226158Y228632D01*
X226183Y228713D01*
X226184Y228798D01*
X226195Y228867D01*
X226195Y235406D01*
X238059Y247271D01*
X374941Y247271D01*
X388271Y233941D01*
X388271Y222270D01*
X388280Y222206D01*
X388279Y222142D01*
X388300Y222067D01*
X388311Y221991D01*
X388337Y221932D01*
X388354Y221870D01*
X388395Y221804D01*
X388427Y221734D01*
X388469Y221685D01*
X388502Y221630D01*
X388560Y221578D01*
X388610Y221520D01*
X388664Y221484D01*
X388712Y221441D01*
X388781Y221408D01*
X388846Y221365D01*
X388908Y221346D01*
X388965Y221318D01*
X389035Y221307D01*
X389116Y221283D01*
X389201Y221282D01*
X389270Y221271D01*
X396526Y221271D01*
X397271Y220526D01*
X397271Y211474D01*
X396526Y210729D01*
X375474Y210729D01*
X374729Y211474D01*
X374729Y220526D01*
X375474Y221271D01*
X382730Y221271D01*
X382794Y221280D01*
X382858Y221279D01*
X382933Y221300D01*
X383009Y221311D01*
X383068Y221337D01*
X383130Y221354D01*
X383196Y221395D01*
X383266Y221427D01*
X383315Y221469D01*
X383370Y221502D01*
X383422Y221560D01*
X383480Y221610D01*
X383516Y221664D01*
X383559Y221712D01*
X383592Y221781D01*
X383635Y221846D01*
X383654Y221908D01*
X383682Y221965D01*
X383693Y222035D01*
X383717Y222116D01*
X383718Y222201D01*
X383729Y222270D01*
X383729Y231646D01*
X383716Y231740D01*
X383711Y231837D01*
X383696Y231880D01*
X383689Y231925D01*
X383650Y232012D01*
X383618Y232103D01*
X383593Y232138D01*
X383573Y232182D01*
X383490Y232279D01*
X383437Y232352D01*
X373352Y242437D01*
X373275Y242494D01*
X373204Y242559D01*
X373163Y242579D01*
X373127Y242606D01*
X373036Y242640D01*
X372950Y242682D01*
X372908Y242688D01*
X372863Y242705D01*
X372735Y242715D01*
X372646Y242729D01*
X240354Y242729D01*
X240260Y242716D01*
X240163Y242711D01*
X240120Y242696D01*
X240075Y242689D01*
X239988Y242650D01*
X239897Y242618D01*
X239862Y242593D01*
X239818Y242573D01*
X239721Y242490D01*
X239648Y242437D01*
X231029Y233818D01*
X230971Y233741D01*
X230907Y233670D01*
X230887Y233629D01*
X230860Y233592D01*
X230826Y233502D01*
X230784Y233416D01*
X230777Y233374D01*
X230760Y233328D01*
X230750Y233201D01*
X230736Y233111D01*
X230736Y228867D01*
X230745Y228804D01*
X230745Y228739D01*
X230765Y228665D01*
X230776Y228588D01*
X230803Y228530D01*
X230820Y228468D01*
X230861Y228402D01*
X230892Y228331D01*
X230934Y228282D01*
X230968Y228228D01*
X231025Y228176D01*
X231076Y228117D01*
X231130Y228082D01*
X231177Y228039D01*
X231247Y228005D01*
X231312Y227962D01*
X231373Y227944D01*
X231431Y227916D01*
X231500Y227905D01*
X231582Y227880D01*
X231666Y227879D01*
X231736Y227868D01*
X233692Y227868D01*
X234164Y227396D01*
X234216Y227357D01*
X234260Y227311D01*
X234328Y227273D01*
X234390Y227227D01*
X234450Y227204D01*
X234506Y227172D01*
X234581Y227154D01*
X234654Y227127D01*
X234718Y227122D01*
X234780Y227107D01*
X234858Y227111D01*
X234935Y227105D01*
X234998Y227118D01*
X235062Y227122D01*
X235135Y227147D01*
X235211Y227163D01*
X235268Y227193D01*
X235328Y227214D01*
X235385Y227256D01*
X235460Y227295D01*
X235521Y227354D01*
X235577Y227396D01*
X236049Y227868D01*
X246282Y227868D01*
X247136Y227014D01*
X247136Y210181D01*
X246282Y209327D01*
X244436Y209327D01*
X244372Y209317D01*
X244308Y209318D01*
X244233Y209298D01*
X244156Y209287D01*
X244098Y209260D01*
X244036Y209243D01*
X243970Y209202D01*
X243900Y209171D01*
X243851Y209129D01*
X243796Y209095D01*
X243744Y209037D01*
X243685Y208987D01*
X243650Y208933D01*
X243607Y208886D01*
X243573Y208816D01*
X243531Y208751D01*
X243512Y208690D01*
X243484Y208632D01*
X243473Y208562D01*
X243448Y208481D01*
X243447Y208397D01*
X243436Y208327D01*
X243436Y196689D01*
X243450Y196594D01*
X243455Y196498D01*
X243470Y196455D01*
X243476Y196410D01*
X243516Y196322D01*
X243547Y196231D01*
X243572Y196197D01*
X243592Y196153D01*
X243676Y196055D01*
X243729Y195982D01*
X263398Y176313D01*
X263475Y176256D01*
X263546Y176191D01*
X263587Y176171D01*
X263623Y176144D01*
X263714Y176110D01*
X263800Y176068D01*
X263842Y176062D01*
X263887Y176045D01*
X264015Y176035D01*
X264104Y176021D01*
X484941Y176021D01*
X500021Y160941D01*
X500021Y154020D01*
X500030Y153956D01*
X500029Y153892D01*
X500050Y153817D01*
X500061Y153741D01*
X500087Y153682D01*
X500104Y153620D01*
X500145Y153554D01*
X500177Y153484D01*
X500219Y153435D01*
X500252Y153380D01*
X500310Y153328D01*
X500360Y153270D01*
X500414Y153234D01*
X500462Y153191D01*
X500531Y153158D01*
X500596Y153115D01*
X500658Y153096D01*
X500715Y153068D01*
X500785Y153057D01*
X500866Y153033D01*
X500951Y153032D01*
X501020Y153021D01*
X504026Y153021D01*
X504771Y152276D01*
X504771Y135224D01*
X504026Y134479D01*
X489974Y134479D01*
X489229Y135224D01*
X489229Y152276D01*
X489974Y153021D01*
X494480Y153021D01*
X494544Y153030D01*
X494608Y153029D01*
X494683Y153050D01*
X494759Y153061D01*
X494818Y153087D01*
X494880Y153104D01*
X494946Y153145D01*
X495016Y153177D01*
X495065Y153219D01*
X495120Y153252D01*
X495172Y153310D01*
X495230Y153360D01*
X495266Y153414D01*
X495309Y153462D01*
X495342Y153531D01*
X495385Y153596D01*
X495404Y153658D01*
X495432Y153715D01*
X495443Y153785D01*
X495467Y153866D01*
X495468Y153951D01*
X495479Y154020D01*
X495479Y158646D01*
X495466Y158740D01*
X495461Y158837D01*
X495446Y158880D01*
X495439Y158925D01*
X495400Y159012D01*
X495368Y159103D01*
X495343Y159138D01*
X495323Y159182D01*
X495240Y159279D01*
X495187Y159352D01*
X483352Y171187D01*
X483275Y171244D01*
X483204Y171309D01*
X483163Y171329D01*
X483127Y171356D01*
X483036Y171390D01*
X482950Y171432D01*
X482908Y171438D01*
X482863Y171455D01*
X482735Y171465D01*
X482646Y171479D01*
X261809Y171479D01*
X238895Y194394D01*
X238895Y208327D01*
X238886Y208391D01*
X238887Y208455D01*
X238866Y208530D01*
X238855Y208607D01*
X238829Y208665D01*
X238812Y208727D01*
X238771Y208793D01*
X238739Y208863D01*
X238697Y208912D01*
X238663Y208967D01*
X238606Y209019D01*
X238556Y209078D01*
X238502Y209113D01*
X238454Y209156D01*
X238384Y209190D01*
X238320Y209232D01*
X238258Y209251D01*
X238200Y209279D01*
X238131Y209290D01*
X238050Y209315D01*
X237965Y209316D01*
X237896Y209327D01*
X236049Y209327D01*
X235577Y209799D01*
X235526Y209837D01*
X235481Y209883D01*
X235414Y209921D01*
X235352Y209968D01*
X235292Y209991D01*
X235236Y210022D01*
X235160Y210040D01*
X235088Y210067D01*
X235024Y210072D01*
X234961Y210087D01*
X234884Y210083D01*
X234807Y210089D01*
X234744Y210076D01*
X234680Y210073D01*
X234606Y210048D01*
X234531Y210032D01*
X234474Y210001D01*
X234413Y209980D01*
X234357Y209939D01*
X234282Y209899D01*
X234221Y209840D01*
X234164Y209799D01*
X233692Y209327D01*
X223239Y209327D01*
X222822Y209744D01*
X222771Y209782D01*
X222726Y209828D01*
X222659Y209866D01*
X222597Y209913D01*
X222537Y209936D01*
X222481Y209967D01*
X222405Y209985D01*
X222333Y210012D01*
X222269Y210017D01*
X222206Y210032D01*
X222129Y210028D01*
X222052Y210034D01*
X221989Y210021D01*
X221925Y210018D01*
X221851Y209992D01*
X221776Y209977D01*
X221719Y209946D01*
X221658Y209925D01*
X221601Y209884D01*
X221527Y209844D01*
X221466Y209785D01*
X221409Y209744D01*
X220992Y209327D01*
X210539Y209327D01*
X210122Y209744D01*
X210071Y209782D01*
X210026Y209828D01*
X209959Y209866D01*
X209897Y209913D01*
X209837Y209936D01*
X209781Y209967D01*
X209705Y209985D01*
X209633Y210012D01*
X209569Y210017D01*
X209506Y210032D01*
X209429Y210028D01*
X209352Y210034D01*
X209289Y210021D01*
X209225Y210018D01*
X209151Y209992D01*
X209076Y209977D01*
X209019Y209946D01*
X208958Y209925D01*
X208901Y209884D01*
X208827Y209844D01*
X208766Y209785D01*
X208709Y209744D01*
X208292Y209327D01*
X197839Y209327D01*
X197422Y209744D01*
X197371Y209782D01*
X197326Y209828D01*
X197259Y209866D01*
X197197Y209913D01*
X197137Y209936D01*
X197081Y209967D01*
X197005Y209985D01*
X196933Y210012D01*
X196869Y210017D01*
X196806Y210032D01*
X196729Y210028D01*
X196652Y210034D01*
X196589Y210021D01*
X196525Y210018D01*
X196451Y209992D01*
X196376Y209977D01*
X196319Y209946D01*
X196258Y209925D01*
X196201Y209884D01*
X196127Y209844D01*
X196066Y209785D01*
X196009Y209744D01*
X195592Y209327D01*
X195536Y209327D01*
X195472Y209317D01*
X195408Y209318D01*
X195333Y209298D01*
X195257Y209287D01*
X195198Y209260D01*
X195136Y209243D01*
X195070Y209202D01*
X195000Y209171D01*
X194951Y209129D01*
X194896Y209095D01*
X194844Y209037D01*
X194786Y208987D01*
X194750Y208933D01*
X194707Y208886D01*
X194674Y208816D01*
X194631Y208751D01*
X194612Y208690D01*
X194584Y208632D01*
X194573Y208562D01*
X194549Y208481D01*
X194548Y208397D01*
X194537Y208327D01*
X194537Y205535D01*
X192465Y203463D01*
X189535Y203463D01*
X187463Y205535D01*
X187463Y208327D01*
X187454Y208391D01*
X187455Y208455D01*
X187434Y208530D01*
X187423Y208607D01*
X187397Y208665D01*
X187380Y208727D01*
X187339Y208793D01*
X187307Y208863D01*
X187265Y208912D01*
X187232Y208967D01*
X187174Y209019D01*
X187124Y209078D01*
X187070Y209113D01*
X187022Y209156D01*
X186953Y209190D01*
X186888Y209232D01*
X186826Y209251D01*
X186769Y209279D01*
X186699Y209290D01*
X186618Y209315D01*
X186533Y209316D01*
X186464Y209327D01*
X185139Y209327D01*
X184722Y209744D01*
X184671Y209782D01*
X184626Y209828D01*
X184559Y209866D01*
X184497Y209913D01*
X184437Y209936D01*
X184381Y209967D01*
X184305Y209985D01*
X184233Y210012D01*
X184169Y210017D01*
X184106Y210032D01*
X184029Y210028D01*
X183952Y210034D01*
X183889Y210021D01*
X183825Y210018D01*
X183751Y209992D01*
X183676Y209977D01*
X183619Y209946D01*
X183558Y209925D01*
X183501Y209884D01*
X183427Y209844D01*
X183366Y209785D01*
X183309Y209744D01*
X182892Y209327D01*
X172439Y209327D01*
X172022Y209744D01*
X171971Y209782D01*
X171926Y209828D01*
X171859Y209866D01*
X171797Y209913D01*
X171737Y209936D01*
X171681Y209967D01*
X171605Y209985D01*
X171533Y210012D01*
X171469Y210017D01*
X171406Y210032D01*
X171329Y210028D01*
X171252Y210034D01*
X171189Y210021D01*
X171125Y210018D01*
X171051Y209992D01*
X170976Y209977D01*
X170919Y209946D01*
X170858Y209925D01*
X170801Y209884D01*
X170727Y209844D01*
X170666Y209785D01*
X170609Y209744D01*
X170192Y209327D01*
X159739Y209327D01*
X159322Y209744D01*
X159271Y209782D01*
X159226Y209828D01*
X159159Y209866D01*
X159097Y209913D01*
X159037Y209936D01*
X158981Y209967D01*
X158905Y209985D01*
X158833Y210012D01*
X158769Y210017D01*
X158706Y210032D01*
X158629Y210028D01*
X158552Y210034D01*
X158489Y210021D01*
X158425Y210018D01*
X158351Y209992D01*
X158276Y209977D01*
X158219Y209946D01*
X158158Y209925D01*
X158101Y209884D01*
X158027Y209844D01*
X157966Y209785D01*
X157909Y209744D01*
X157492Y209327D01*
X147039Y209327D01*
X146622Y209744D01*
X146571Y209782D01*
X146526Y209828D01*
X146459Y209866D01*
X146397Y209913D01*
X146337Y209936D01*
X146281Y209967D01*
X146205Y209985D01*
X146133Y210012D01*
X146069Y210017D01*
X146006Y210032D01*
X145929Y210028D01*
X145852Y210034D01*
X145789Y210021D01*
X145725Y210018D01*
X145651Y209992D01*
X145576Y209977D01*
X145519Y209946D01*
X145458Y209925D01*
X145401Y209884D01*
X145327Y209844D01*
X145266Y209785D01*
X145209Y209744D01*
X144792Y209327D01*
X134339Y209327D01*
X133922Y209744D01*
X133871Y209782D01*
X133826Y209828D01*
X133759Y209866D01*
X133697Y209913D01*
X133637Y209936D01*
X133581Y209967D01*
X133505Y209985D01*
X133433Y210012D01*
X133369Y210017D01*
X133306Y210032D01*
X133229Y210028D01*
X133152Y210034D01*
X133089Y210021D01*
X133025Y210018D01*
X132951Y209992D01*
X132876Y209977D01*
X132819Y209946D01*
X132758Y209925D01*
X132701Y209884D01*
X132627Y209844D01*
X132566Y209785D01*
X132509Y209744D01*
X132092Y209327D01*
X121639Y209327D01*
X121222Y209744D01*
X121171Y209782D01*
X121126Y209828D01*
X121059Y209866D01*
X120997Y209913D01*
X120937Y209936D01*
X120881Y209967D01*
X120805Y209985D01*
X120733Y210012D01*
X120669Y210017D01*
X120606Y210032D01*
X120529Y210028D01*
X120452Y210034D01*
X120389Y210021D01*
X120325Y210018D01*
X120251Y209992D01*
X120176Y209977D01*
X120119Y209946D01*
X120058Y209925D01*
X120001Y209884D01*
X119927Y209844D01*
X119866Y209785D01*
X119809Y209744D01*
X119392Y209327D01*
X108939Y209327D01*
X108522Y209744D01*
X108471Y209782D01*
X108426Y209828D01*
X108359Y209866D01*
X108297Y209913D01*
X108237Y209936D01*
X108181Y209967D01*
X108105Y209985D01*
X108033Y210012D01*
X107969Y210017D01*
X107906Y210032D01*
X107829Y210028D01*
X107752Y210034D01*
X107689Y210021D01*
X107625Y210018D01*
X107551Y209992D01*
X107476Y209977D01*
X107419Y209946D01*
X107358Y209925D01*
X107301Y209884D01*
X107227Y209844D01*
X107166Y209785D01*
X107109Y209744D01*
X106692Y209327D01*
X96239Y209327D01*
X95822Y209744D01*
X95771Y209782D01*
X95726Y209828D01*
X95659Y209866D01*
X95597Y209913D01*
X95537Y209936D01*
X95481Y209967D01*
X95405Y209985D01*
X95333Y210012D01*
X95269Y210017D01*
X95206Y210032D01*
X95129Y210028D01*
X95052Y210034D01*
X94989Y210021D01*
X94925Y210018D01*
X94851Y209992D01*
X94776Y209977D01*
X94719Y209946D01*
X94658Y209925D01*
X94601Y209884D01*
X94527Y209844D01*
X94466Y209785D01*
X94409Y209744D01*
X93992Y209327D01*
X92297Y209327D01*
X92265Y209322D01*
X92233Y209324D01*
X92126Y209302D01*
X92018Y209287D01*
X91989Y209273D01*
X91957Y209267D01*
X91861Y209216D01*
X91761Y209171D01*
X91736Y209150D01*
X91708Y209134D01*
X91630Y209058D01*
X91547Y208987D01*
X91529Y208960D01*
X91506Y208938D01*
X91452Y208843D01*
X91392Y208751D01*
X91383Y208720D01*
X91367Y208692D01*
X91342Y208586D01*
X91310Y208481D01*
X91309Y208449D01*
X91302Y208418D01*
X91308Y208308D01*
X91306Y208199D01*
X91315Y208168D01*
X91316Y208136D01*
X91352Y208033D01*
X91381Y207928D01*
X91398Y207900D01*
X91409Y207870D01*
X91462Y207797D01*
X91529Y207688D01*
X91566Y207655D01*
X91591Y207621D01*
X98648Y200563D01*
X98725Y200506D01*
X98796Y200441D01*
X98837Y200421D01*
X98873Y200394D01*
X98964Y200360D01*
X99050Y200318D01*
X99092Y200312D01*
X99137Y200295D01*
X99265Y200285D01*
X99354Y200271D01*
X182941Y200271D01*
X276648Y106563D01*
X276725Y106506D01*
X276796Y106441D01*
X276837Y106421D01*
X276873Y106394D01*
X276964Y106360D01*
X277050Y106318D01*
X277092Y106312D01*
X277137Y106295D01*
X277265Y106285D01*
X277354Y106271D01*
X454941Y106271D01*
X456563Y104648D01*
X461271Y99941D01*
X461271Y96520D01*
X461280Y96458D01*
X461279Y96410D01*
X461279Y96409D01*
X461279Y96392D01*
X461300Y96317D01*
X461311Y96241D01*
X461337Y96182D01*
X461354Y96120D01*
X461395Y96054D01*
X461427Y95984D01*
X461469Y95935D01*
X461502Y95880D01*
X461560Y95828D01*
X461610Y95770D01*
X461664Y95734D01*
X461712Y95691D01*
X461781Y95658D01*
X461846Y95615D01*
X461908Y95596D01*
X461965Y95568D01*
X462035Y95557D01*
X462116Y95533D01*
X462201Y95532D01*
X462270Y95521D01*
X467026Y95521D01*
X467771Y94776D01*
X467771Y91020D01*
X467780Y90956D01*
X467779Y90892D01*
X467800Y90817D01*
X467811Y90741D01*
X467837Y90682D01*
X467854Y90620D01*
X467895Y90554D01*
X467927Y90484D01*
X467969Y90435D01*
X468002Y90380D01*
X468060Y90328D01*
X468110Y90270D01*
X468164Y90234D01*
X468212Y90191D01*
X468281Y90158D01*
X468346Y90115D01*
X468408Y90096D01*
X468465Y90068D01*
X468535Y90057D01*
X468616Y90033D01*
X468701Y90032D01*
X468770Y90021D01*
X471230Y90021D01*
X471294Y90030D01*
X471358Y90029D01*
X471433Y90050D01*
X471509Y90061D01*
X471568Y90087D01*
X471630Y90104D01*
X471696Y90145D01*
X471766Y90177D01*
X471815Y90219D01*
X471870Y90252D01*
X471922Y90310D01*
X471980Y90360D01*
X472016Y90414D01*
X472059Y90462D01*
X472092Y90531D01*
X472135Y90596D01*
X472154Y90658D01*
X472182Y90715D01*
X472193Y90785D01*
X472217Y90866D01*
X472218Y90951D01*
X472229Y91020D01*
X472229Y95776D01*
X472974Y96521D01*
X478230Y96521D01*
X478294Y96530D01*
X478358Y96529D01*
X478433Y96550D01*
X478509Y96561D01*
X478568Y96587D01*
X478630Y96604D01*
X478696Y96645D01*
X478766Y96677D01*
X478815Y96719D01*
X478870Y96752D01*
X478922Y96810D01*
X478980Y96860D01*
X479016Y96914D01*
X479059Y96962D01*
X479092Y97031D01*
X479135Y97096D01*
X479154Y97158D01*
X479182Y97215D01*
X479193Y97285D01*
X479217Y97366D01*
X479218Y97451D01*
X479229Y97520D01*
X479229Y122441D01*
X483059Y126271D01*
X486480Y126271D01*
X486544Y126280D01*
X486608Y126279D01*
X486683Y126300D01*
X486759Y126311D01*
X486818Y126337D01*
X486880Y126354D01*
X486946Y126395D01*
X487016Y126427D01*
X487065Y126469D01*
X487120Y126502D01*
X487172Y126560D01*
X487230Y126610D01*
X487266Y126664D01*
X487309Y126712D01*
X487342Y126781D01*
X487385Y126846D01*
X487404Y126908D01*
X487432Y126965D01*
X487443Y127035D01*
X487467Y127116D01*
X487468Y127201D01*
X487479Y127270D01*
X487479Y128276D01*
X488224Y129021D01*
X499276Y129021D01*
X500021Y128276D01*
X500021Y119224D01*
X499276Y118479D01*
X488224Y118479D01*
X487479Y119224D01*
X487479Y120730D01*
X487470Y120794D01*
X487471Y120858D01*
X487450Y120933D01*
X487439Y121009D01*
X487413Y121068D01*
X487396Y121130D01*
X487355Y121196D01*
X487323Y121266D01*
X487281Y121315D01*
X487248Y121370D01*
X487190Y121422D01*
X487140Y121480D01*
X487086Y121516D01*
X487038Y121559D01*
X486969Y121592D01*
X486904Y121635D01*
X486842Y121654D01*
X486785Y121682D01*
X486715Y121693D01*
X486634Y121717D01*
X486549Y121718D01*
X486480Y121729D01*
X485354Y121729D01*
X485260Y121716D01*
X485163Y121711D01*
X485120Y121696D01*
X485075Y121689D01*
X484988Y121650D01*
X484897Y121618D01*
X484862Y121593D01*
X484818Y121573D01*
X484721Y121490D01*
X484648Y121437D01*
X484063Y120852D01*
X484006Y120775D01*
X483941Y120704D01*
X483921Y120663D01*
X483894Y120627D01*
X483860Y120536D01*
X483818Y120450D01*
X483812Y120408D01*
X483795Y120363D01*
X483785Y120235D01*
X483771Y120146D01*
X483771Y97520D01*
X483780Y97458D01*
X483779Y97409D01*
X483779Y97408D01*
X483779Y97392D01*
X483800Y97317D01*
X483811Y97241D01*
X483837Y97182D01*
X483854Y97120D01*
X483895Y97054D01*
X483927Y96984D01*
X483969Y96935D01*
X484002Y96880D01*
X484060Y96828D01*
X484110Y96770D01*
X484164Y96734D01*
X484212Y96691D01*
X484281Y96658D01*
X484346Y96615D01*
X484408Y96596D01*
X484465Y96568D01*
X484535Y96557D01*
X484616Y96533D01*
X484701Y96532D01*
X484770Y96521D01*
X490026Y96521D01*
X490771Y95776D01*
X490771Y81724D01*
X490026Y80979D01*
X472974Y80979D01*
X472229Y81724D01*
X472229Y84480D01*
X472220Y84544D01*
X472221Y84608D01*
X472200Y84683D01*
X472189Y84759D01*
X472163Y84818D01*
X472146Y84880D01*
X472105Y84946D01*
X472073Y85016D01*
X472031Y85065D01*
X471998Y85120D01*
X471940Y85172D01*
X471890Y85230D01*
X471836Y85266D01*
X471788Y85309D01*
X471719Y85342D01*
X471654Y85385D01*
X471592Y85404D01*
X471535Y85432D01*
X471465Y85443D01*
X471384Y85467D01*
X471299Y85468D01*
X471230Y85479D01*
X468770Y85479D01*
X468706Y85470D01*
X468642Y85471D01*
X468567Y85450D01*
X468491Y85439D01*
X468432Y85413D01*
X468370Y85396D01*
X468304Y85355D01*
X468234Y85323D01*
X468185Y85281D01*
X468130Y85248D01*
X468078Y85190D01*
X468020Y85140D01*
X467984Y85086D01*
X467941Y85038D01*
X467908Y84969D01*
X467865Y84904D01*
X467846Y84842D01*
X467818Y84785D01*
X467807Y84715D01*
X467783Y84634D01*
X467782Y84549D01*
X467771Y84480D01*
X467771Y80724D01*
X467026Y79979D01*
X450974Y79979D01*
X450229Y80724D01*
X450229Y94776D01*
X450974Y95521D01*
X455730Y95521D01*
X455794Y95530D01*
X455858Y95529D01*
X455933Y95550D01*
X456009Y95561D01*
X456068Y95587D01*
X456130Y95604D01*
X456196Y95645D01*
X456266Y95677D01*
X456315Y95719D01*
X456370Y95752D01*
X456422Y95810D01*
X456480Y95860D01*
X456516Y95914D01*
X456559Y95962D01*
X456592Y96031D01*
X456635Y96096D01*
X456654Y96158D01*
X456682Y96215D01*
X456693Y96285D01*
X456717Y96366D01*
X456718Y96451D01*
X456729Y96520D01*
X456729Y97646D01*
X456716Y97740D01*
X456711Y97837D01*
X456696Y97880D01*
X456689Y97925D01*
X456650Y98012D01*
X456618Y98103D01*
X456593Y98137D01*
X456573Y98182D01*
X456490Y98279D01*
X456437Y98352D01*
X453352Y101437D01*
X453275Y101494D01*
X453204Y101559D01*
X453163Y101579D01*
X453127Y101606D01*
X453037Y101640D01*
X452950Y101682D01*
X452908Y101688D01*
X452863Y101705D01*
X452735Y101715D01*
X452646Y101729D01*
X275059Y101729D01*
X181352Y195437D01*
X181275Y195494D01*
X181204Y195559D01*
X181163Y195579D01*
X181127Y195606D01*
X181036Y195640D01*
X180950Y195682D01*
X180908Y195688D01*
X180863Y195705D01*
X180735Y195715D01*
X180646Y195729D01*
X97059Y195729D01*
X88352Y204437D01*
X86729Y206059D01*
X86729Y208327D01*
X86720Y208391D01*
X86721Y208455D01*
X86700Y208530D01*
X86689Y208607D01*
X86663Y208665D01*
X86646Y208727D01*
X86605Y208793D01*
X86573Y208863D01*
X86531Y208912D01*
X86498Y208967D01*
X86440Y209019D01*
X86390Y209078D01*
X86336Y209113D01*
X86288Y209156D01*
X86219Y209190D01*
X86154Y209232D01*
X86092Y209251D01*
X86035Y209279D01*
X85965Y209290D01*
X85884Y209315D01*
X85799Y209316D01*
X85730Y209327D01*
X83539Y209327D01*
X83122Y209744D01*
X83071Y209782D01*
X83026Y209828D01*
X82959Y209866D01*
X82897Y209913D01*
X82837Y209936D01*
X82781Y209967D01*
X82705Y209985D01*
X82633Y210012D01*
X82569Y210017D01*
X82506Y210032D01*
X82429Y210028D01*
X82352Y210034D01*
X82289Y210021D01*
X82225Y210018D01*
X82151Y209992D01*
X82076Y209977D01*
X82019Y209946D01*
X81958Y209925D01*
X81901Y209884D01*
X81827Y209844D01*
X81766Y209785D01*
X81709Y209744D01*
X81292Y209327D01*
X70839Y209327D01*
X70095Y210071D01*
X70095Y227124D01*
X70839Y227868D01*
X72718Y227868D01*
X72750Y227873D01*
X72782Y227870D01*
X72889Y227892D01*
X72997Y227908D01*
X73026Y227921D01*
X73058Y227928D01*
X73154Y227979D01*
X73254Y228024D01*
X73279Y228045D01*
X73307Y228060D01*
X73385Y228136D01*
X73468Y228207D01*
X73486Y228234D01*
X73509Y228257D01*
X73563Y228352D01*
X73623Y228443D01*
X73632Y228474D01*
X73648Y228502D01*
X73673Y228609D01*
X73705Y228713D01*
X73706Y228745D01*
X73713Y228777D01*
X73707Y228886D01*
X73709Y228995D01*
X73700Y229026D01*
X73699Y229058D01*
X73663Y229161D01*
X73634Y229267D01*
X73617Y229294D01*
X73606Y229325D01*
X73553Y229398D01*
X73486Y229507D01*
X73450Y229539D01*
X73424Y229574D01*
X72463Y230535D01*
X72463Y233465D01*
X74535Y235537D01*
X77465Y235537D01*
X79537Y233465D01*
X79537Y230535D01*
X78576Y229574D01*
X78556Y229548D01*
X78532Y229527D01*
X78472Y229436D01*
X78406Y229348D01*
X78395Y229318D01*
X78377Y229291D01*
X78345Y229187D01*
X78307Y229084D01*
X78304Y229052D01*
X78295Y229021D01*
X78293Y228912D01*
X78285Y228803D01*
X78292Y228772D01*
X78291Y228739D01*
X78320Y228634D01*
X78343Y228527D01*
X78358Y228499D01*
X78366Y228468D01*
X78424Y228375D01*
X78475Y228278D01*
X78498Y228255D01*
X78514Y228228D01*
X78595Y228155D01*
X78672Y228076D01*
X78700Y228060D01*
X78724Y228039D01*
X78822Y227991D01*
X78917Y227937D01*
X78949Y227930D01*
X78978Y227916D01*
X79067Y227902D01*
X79192Y227872D01*
X79240Y227875D01*
X79282Y227868D01*
X81292Y227868D01*
X81709Y227451D01*
X81760Y227412D01*
X81805Y227366D01*
X81873Y227328D01*
X81935Y227282D01*
X81995Y227259D01*
X82051Y227227D01*
X82126Y227209D01*
X82199Y227182D01*
X82263Y227177D01*
X82325Y227162D01*
X82403Y227166D01*
X82480Y227160D01*
X82543Y227173D01*
X82607Y227177D01*
X82680Y227202D01*
X82756Y227218D01*
X82813Y227248D01*
X82873Y227269D01*
X82930Y227311D01*
X83005Y227350D01*
X83066Y227410D01*
X83122Y227451D01*
X83539Y227868D01*
X93992Y227868D01*
X94409Y227451D01*
X94460Y227412D01*
X94505Y227366D01*
X94573Y227328D01*
X94635Y227282D01*
X94695Y227259D01*
X94751Y227227D01*
X94826Y227209D01*
X94899Y227182D01*
X94963Y227177D01*
X95025Y227162D01*
X95103Y227166D01*
X95180Y227160D01*
X95243Y227173D01*
X95307Y227177D01*
X95380Y227202D01*
X95456Y227218D01*
X95513Y227248D01*
X95573Y227269D01*
X95630Y227311D01*
X95705Y227350D01*
X95766Y227410D01*
X95822Y227451D01*
X96239Y227868D01*
X98196Y227868D01*
X98259Y227877D01*
X98324Y227876D01*
X98398Y227897D01*
X98475Y227908D01*
X98533Y227934D01*
X98595Y227951D01*
X98661Y227992D01*
X98732Y228024D01*
X98781Y228066D01*
X98835Y228100D01*
X98887Y228157D01*
X98946Y228207D01*
X98981Y228261D01*
X99024Y228309D01*
X99058Y228379D01*
X99101Y228443D01*
X99119Y228505D01*
X99147Y228563D01*
X99158Y228632D01*
X99183Y228713D01*
X99184Y228798D01*
X99195Y228867D01*
X99195Y235406D01*
X103737Y239948D01*
X103794Y240025D01*
X103859Y240096D01*
X103879Y240137D01*
X103906Y240173D01*
X103940Y240264D01*
X103982Y240350D01*
X103988Y240392D01*
X104005Y240437D01*
X104015Y240565D01*
X104029Y240654D01*
X104029Y249480D01*
X104021Y249539D01*
X104021Y249551D01*
X104020Y249553D01*
X104021Y249608D01*
X104000Y249683D01*
X103989Y249759D01*
X103963Y249818D01*
X103946Y249880D01*
X103905Y249946D01*
X103873Y250016D01*
X103831Y250065D01*
X103798Y250120D01*
X103740Y250172D01*
X103690Y250230D01*
X103636Y250266D01*
X103588Y250309D01*
X103519Y250342D01*
X103454Y250385D01*
X103392Y250404D01*
X103335Y250432D01*
X103265Y250443D01*
X103184Y250467D01*
X103099Y250468D01*
X103030Y250479D01*
X100503Y250479D01*
X98106Y251472D01*
X96272Y253306D01*
X95279Y255703D01*
X95279Y258297D01*
X96272Y260694D01*
X96291Y260719D01*
X96316Y260740D01*
X96376Y260832D01*
X96441Y260919D01*
X96452Y260949D01*
X96470Y260976D01*
X96502Y261081D01*
X96541Y261183D01*
X96543Y261215D01*
X96552Y261246D01*
X96554Y261355D01*
X96562Y261464D01*
X96556Y261496D01*
X96556Y261528D01*
X96527Y261633D01*
X96505Y261740D01*
X96490Y261769D01*
X96481Y261800D01*
X96424Y261893D01*
X96372Y261989D01*
X96350Y262012D01*
X96333Y262040D01*
X96252Y262113D01*
X96176Y262191D01*
X96147Y262207D01*
X96124Y262229D01*
X96025Y262276D01*
X95930Y262330D01*
X95899Y262338D01*
X95870Y262352D01*
X95780Y262366D01*
X95656Y262395D01*
X95607Y262393D01*
X95565Y262399D01*
X65810Y262399D01*
X65778Y262395D01*
X65746Y262397D01*
X65639Y262375D01*
X65531Y262359D01*
X65502Y262346D01*
X65470Y262340D01*
X65374Y262288D01*
X65274Y262243D01*
X65250Y262222D01*
X65221Y262207D01*
X65143Y262131D01*
X65060Y262060D01*
X65042Y262033D01*
X65019Y262010D01*
X64965Y261915D01*
X64905Y261824D01*
X64896Y261793D01*
X64880Y261765D01*
X64855Y261659D01*
X64823Y261554D01*
X64822Y261522D01*
X64815Y261491D01*
X64821Y261381D01*
X64819Y261272D01*
X64828Y261241D01*
X64829Y261209D01*
X64865Y261106D01*
X64894Y261000D01*
X64911Y260973D01*
X64922Y260942D01*
X64975Y260869D01*
X65043Y260760D01*
X65079Y260728D01*
X65104Y260693D01*
X66021Y259776D01*
X66021Y242724D01*
X65276Y241979D01*
X51224Y241979D01*
X50479Y242724D01*
X50479Y247710D01*
X50470Y247774D01*
X50471Y247838D01*
X50450Y247913D01*
X50439Y247989D01*
X50413Y248048D01*
X50396Y248110D01*
X50355Y248176D01*
X50323Y248246D01*
X50281Y248295D01*
X50248Y248350D01*
X50190Y248402D01*
X50140Y248460D01*
X50086Y248496D01*
X50038Y248539D01*
X49969Y248572D01*
X49904Y248615D01*
X49842Y248634D01*
X49785Y248662D01*
X49715Y248673D01*
X49634Y248697D01*
X49549Y248698D01*
X49480Y248709D01*
X47770Y248709D01*
X47706Y248700D01*
X47642Y248701D01*
X47567Y248680D01*
X47491Y248669D01*
X47432Y248643D01*
X47370Y248626D01*
X47304Y248585D01*
X47234Y248553D01*
X47185Y248511D01*
X47130Y248478D01*
X47078Y248420D01*
X47020Y248370D01*
X46984Y248316D01*
X46941Y248268D01*
X46908Y248199D01*
X46865Y248134D01*
X46846Y248072D01*
X46818Y248015D01*
X46807Y247945D01*
X46783Y247864D01*
X46782Y247779D01*
X46771Y247710D01*
X46771Y244724D01*
X46026Y243979D01*
X32974Y243979D01*
X32229Y244724D01*
X32229Y257776D01*
X32974Y258521D01*
X46026Y258521D01*
X46771Y257776D01*
X46771Y254790D01*
X46780Y254726D01*
X46779Y254662D01*
X46800Y254587D01*
X46811Y254511D01*
X46837Y254452D01*
X46854Y254390D01*
X46895Y254324D01*
X46927Y254254D01*
X46969Y254205D01*
X47002Y254150D01*
X47060Y254098D01*
X47110Y254040D01*
X47164Y254004D01*
X47212Y253961D01*
X47281Y253928D01*
X47346Y253885D01*
X47408Y253866D01*
X47465Y253838D01*
X47535Y253827D01*
X47616Y253803D01*
X47701Y253802D01*
X47770Y253791D01*
X49480Y253791D01*
X49544Y253800D01*
X49608Y253799D01*
X49683Y253820D01*
X49759Y253831D01*
X49818Y253857D01*
X49880Y253874D01*
X49946Y253915D01*
X50016Y253947D01*
X50065Y253989D01*
X50120Y254022D01*
X50172Y254080D01*
X50230Y254130D01*
X50266Y254184D01*
X50309Y254232D01*
X50342Y254301D01*
X50385Y254366D01*
X50404Y254428D01*
X50432Y254485D01*
X50443Y254555D01*
X50467Y254636D01*
X50468Y254721D01*
X50479Y254790D01*
X50479Y259776D01*
X51396Y260693D01*
X51416Y260719D01*
X51440Y260740D01*
X51500Y260832D01*
X51566Y260919D01*
X51577Y260949D01*
X51595Y260976D01*
X51627Y261081D01*
X51665Y261183D01*
X51668Y261215D01*
X51677Y261246D01*
X51679Y261355D01*
X51687Y261464D01*
X51680Y261496D01*
X51681Y261528D01*
X51652Y261633D01*
X51629Y261740D01*
X51614Y261769D01*
X51606Y261800D01*
X51548Y261893D01*
X51497Y261989D01*
X51474Y262012D01*
X51457Y262040D01*
X51377Y262113D01*
X51300Y262191D01*
X51272Y262207D01*
X51248Y262229D01*
X51150Y262276D01*
X51055Y262330D01*
X51023Y262338D01*
X50994Y262352D01*
X50905Y262366D01*
X50780Y262395D01*
X50732Y262393D01*
X50690Y262399D01*
X8850Y262399D01*
X8786Y262390D01*
X8722Y262391D01*
X8647Y262370D01*
X8571Y262359D01*
X8512Y262333D01*
X8450Y262316D01*
X8384Y262275D01*
X8314Y262243D01*
X8265Y262201D01*
X8210Y262168D01*
X8158Y262110D01*
X8100Y262060D01*
X8064Y262006D01*
X8021Y261958D01*
X7988Y261889D01*
X7945Y261824D01*
X7926Y261762D01*
X7898Y261705D01*
X7887Y261635D01*
X7863Y261554D01*
X7862Y261469D01*
X7851Y261400D01*
X7851Y57000D01*
X7860Y56936D01*
X7859Y56872D01*
X7880Y56797D01*
X7891Y56721D01*
X7917Y56662D01*
X7934Y56600D01*
X7975Y56534D01*
X8007Y56464D01*
X8049Y56415D01*
X8082Y56360D01*
X8140Y56308D01*
X8190Y56250D01*
X8244Y56214D01*
X8292Y56171D01*
X8361Y56138D01*
X8426Y56095D01*
X8488Y56076D01*
X8545Y56048D01*
X8615Y56037D01*
X8696Y56013D01*
X8781Y56012D01*
X8850Y56001D01*
X43376Y56001D01*
X43470Y56014D01*
X43567Y56019D01*
X43610Y56034D01*
X43655Y56041D01*
X43742Y56080D01*
X43833Y56112D01*
X43868Y56137D01*
X43912Y56157D01*
X44009Y56240D01*
X44082Y56293D01*
X58059Y70271D01*
X85941Y70271D01*
X91036Y65175D01*
X91036Y64677D01*
X91045Y64614D01*
X91045Y64549D01*
X91065Y64475D01*
X91076Y64398D01*
X91103Y64340D01*
X91120Y64278D01*
X91161Y64212D01*
X91192Y64141D01*
X91234Y64092D01*
X91268Y64038D01*
X91325Y63986D01*
X91376Y63927D01*
X91430Y63892D01*
X91477Y63849D01*
X91547Y63815D01*
X91612Y63772D01*
X91673Y63754D01*
X91731Y63726D01*
X91800Y63715D01*
X91882Y63690D01*
X91966Y63689D01*
X92036Y63678D01*
X93992Y63678D01*
X94409Y63261D01*
X94460Y63222D01*
X94505Y63176D01*
X94573Y63138D01*
X94635Y63092D01*
X94695Y63069D01*
X94751Y63037D01*
X94826Y63019D01*
X94899Y62992D01*
X94963Y62987D01*
X95025Y62972D01*
X95103Y62976D01*
X95180Y62970D01*
X95243Y62983D01*
X95307Y62987D01*
X95380Y63012D01*
X95456Y63028D01*
X95513Y63058D01*
X95573Y63079D01*
X95630Y63121D01*
X95705Y63160D01*
X95766Y63220D01*
X95822Y63261D01*
X96239Y63678D01*
X97730Y63678D01*
X97794Y63687D01*
X97858Y63686D01*
X97933Y63707D01*
X98009Y63718D01*
X98068Y63744D01*
X98130Y63761D01*
X98196Y63802D01*
X98266Y63834D01*
X98315Y63876D01*
X98370Y63910D01*
X98422Y63967D01*
X98480Y64017D01*
X98516Y64071D01*
X98559Y64119D01*
X98592Y64189D01*
X98635Y64253D01*
X98654Y64315D01*
X98682Y64373D01*
X98693Y64442D01*
X98717Y64523D01*
X98718Y64608D01*
X98729Y64677D01*
X98729Y64855D01*
X98716Y64950D01*
X98711Y65046D01*
X98696Y65089D01*
X98689Y65134D01*
X98650Y65222D01*
X98618Y65313D01*
X98593Y65347D01*
X98573Y65391D01*
X98490Y65489D01*
X98437Y65562D01*
X97463Y66535D01*
X97463Y69465D01*
X99535Y71537D01*
X102465Y71537D01*
X104537Y69465D01*
X104537Y66535D01*
X103563Y65562D01*
X103506Y65485D01*
X103441Y65413D01*
X103421Y65373D01*
X103394Y65336D01*
X103360Y65246D01*
X103318Y65160D01*
X103312Y65118D01*
X103295Y65072D01*
X103285Y64945D01*
X103271Y64855D01*
X103271Y64677D01*
X103280Y64614D01*
X103279Y64549D01*
X103300Y64475D01*
X103311Y64398D01*
X103337Y64340D01*
X103354Y64278D01*
X103395Y64212D01*
X103427Y64141D01*
X103469Y64092D01*
X103502Y64038D01*
X103560Y63986D01*
X103610Y63927D01*
X103664Y63892D01*
X103712Y63849D01*
X103781Y63815D01*
X103846Y63772D01*
X103908Y63754D01*
X103965Y63726D01*
X104035Y63715D01*
X104116Y63690D01*
X104201Y63689D01*
X104270Y63678D01*
X106692Y63678D01*
X107109Y63261D01*
X107160Y63222D01*
X107205Y63176D01*
X107273Y63138D01*
X107335Y63092D01*
X107395Y63069D01*
X107451Y63037D01*
X107526Y63019D01*
X107599Y62992D01*
X107663Y62987D01*
X107725Y62972D01*
X107803Y62976D01*
X107880Y62970D01*
X107942Y62983D01*
X108007Y62987D01*
X108080Y63012D01*
X108156Y63028D01*
X108213Y63058D01*
X108273Y63079D01*
X108330Y63121D01*
X108405Y63160D01*
X108466Y63220D01*
X108522Y63261D01*
X108939Y63678D01*
X109908Y63678D01*
X109940Y63683D01*
X109972Y63680D01*
X110079Y63702D01*
X110187Y63718D01*
X110216Y63731D01*
X110248Y63738D01*
X110345Y63789D01*
X110444Y63834D01*
X110469Y63855D01*
X110497Y63870D01*
X110575Y63946D01*
X110658Y64017D01*
X110676Y64044D01*
X110699Y64067D01*
X110753Y64162D01*
X110813Y64253D01*
X110822Y64284D01*
X110838Y64312D01*
X110863Y64419D01*
X110895Y64523D01*
X110896Y64555D01*
X110903Y64587D01*
X110897Y64696D01*
X110899Y64805D01*
X110890Y64836D01*
X110889Y64868D01*
X110853Y64972D01*
X110824Y65077D01*
X110807Y65104D01*
X110796Y65135D01*
X110743Y65208D01*
X110676Y65317D01*
X110640Y65349D01*
X110614Y65384D01*
X110463Y65535D01*
X110463Y68465D01*
X112535Y70537D01*
X115465Y70537D01*
X117537Y68465D01*
X117537Y65535D01*
X117386Y65384D01*
X117366Y65358D01*
X117342Y65337D01*
X117282Y65246D01*
X117216Y65158D01*
X117205Y65128D01*
X117187Y65101D01*
X117155Y64997D01*
X117117Y64894D01*
X117114Y64862D01*
X117105Y64831D01*
X117103Y64722D01*
X117095Y64613D01*
X117102Y64582D01*
X117101Y64549D01*
X117130Y64444D01*
X117153Y64337D01*
X117168Y64309D01*
X117176Y64278D01*
X117234Y64185D01*
X117285Y64088D01*
X117307Y64065D01*
X117324Y64038D01*
X117406Y63964D01*
X117482Y63886D01*
X117510Y63870D01*
X117534Y63849D01*
X117632Y63801D01*
X117727Y63747D01*
X117758Y63740D01*
X117788Y63726D01*
X117877Y63712D01*
X118002Y63682D01*
X118050Y63685D01*
X118092Y63678D01*
X119392Y63678D01*
X119809Y63261D01*
X119860Y63222D01*
X119905Y63176D01*
X119973Y63138D01*
X120035Y63092D01*
X120095Y63069D01*
X120151Y63037D01*
X120226Y63019D01*
X120299Y62992D01*
X120363Y62987D01*
X120425Y62972D01*
X120503Y62976D01*
X120580Y62970D01*
X120643Y62983D01*
X120707Y62987D01*
X120780Y63012D01*
X120856Y63028D01*
X120913Y63058D01*
X120973Y63079D01*
X121030Y63121D01*
X121105Y63160D01*
X121166Y63220D01*
X121222Y63261D01*
X121639Y63678D01*
X123596Y63678D01*
X123659Y63687D01*
X123724Y63686D01*
X123798Y63707D01*
X123875Y63718D01*
X123933Y63744D01*
X123995Y63761D01*
X124061Y63802D01*
X124132Y63834D01*
X124181Y63876D01*
X124235Y63910D01*
X124287Y63967D01*
X124346Y64017D01*
X124381Y64071D01*
X124424Y64119D01*
X124458Y64189D01*
X124501Y64253D01*
X124519Y64315D01*
X124547Y64373D01*
X124558Y64442D01*
X124583Y64523D01*
X124584Y64608D01*
X124595Y64677D01*
X124595Y88780D01*
X124581Y88875D01*
X124577Y88971D01*
X124562Y89014D01*
X124555Y89059D01*
X124516Y89147D01*
X124484Y89237D01*
X124459Y89272D01*
X124439Y89316D01*
X124356Y89413D01*
X124302Y89486D01*
X113352Y100437D01*
X113275Y100494D01*
X113204Y100559D01*
X113163Y100579D01*
X113127Y100606D01*
X113037Y100640D01*
X112950Y100682D01*
X112908Y100688D01*
X112863Y100705D01*
X112735Y100715D01*
X112646Y100729D01*
X107145Y100729D01*
X107050Y100716D01*
X106954Y100711D01*
X106911Y100696D01*
X106866Y100689D01*
X106778Y100650D01*
X106687Y100618D01*
X106653Y100593D01*
X106609Y100573D01*
X106511Y100490D01*
X106438Y100437D01*
X105465Y99463D01*
X102535Y99463D01*
X100463Y101535D01*
X100463Y104525D01*
X100472Y104549D01*
X100490Y104576D01*
X100522Y104681D01*
X100561Y104783D01*
X100563Y104815D01*
X100572Y104846D01*
X100574Y104955D01*
X100582Y105064D01*
X100576Y105096D01*
X100576Y105128D01*
X100547Y105233D01*
X100525Y105340D01*
X100510Y105369D01*
X100501Y105400D01*
X100444Y105493D01*
X100392Y105589D01*
X100370Y105612D01*
X100353Y105640D01*
X100272Y105713D01*
X100196Y105791D01*
X100168Y105807D01*
X100144Y105829D01*
X100045Y105876D01*
X99950Y105930D01*
X99919Y105938D01*
X99890Y105952D01*
X99800Y105966D01*
X99676Y105995D01*
X99627Y105993D01*
X99585Y105999D01*
X97624Y105999D01*
X97530Y105986D01*
X97433Y105981D01*
X97390Y105966D01*
X97345Y105959D01*
X97258Y105920D01*
X97167Y105888D01*
X97132Y105863D01*
X97088Y105843D01*
X96991Y105760D01*
X96918Y105707D01*
X89563Y98352D01*
X89506Y98275D01*
X89441Y98204D01*
X89421Y98163D01*
X89394Y98127D01*
X89360Y98036D01*
X89318Y97950D01*
X89312Y97908D01*
X89295Y97863D01*
X89285Y97735D01*
X89271Y97646D01*
X89271Y88145D01*
X89284Y88050D01*
X89289Y87954D01*
X89304Y87911D01*
X89311Y87866D01*
X89350Y87778D01*
X89382Y87687D01*
X89407Y87653D01*
X89427Y87609D01*
X89510Y87511D01*
X89563Y87438D01*
X90537Y86465D01*
X90537Y83535D01*
X88465Y81463D01*
X85535Y81463D01*
X83463Y83535D01*
X83463Y86465D01*
X84437Y87438D01*
X84494Y87515D01*
X84559Y87586D01*
X84579Y87627D01*
X84606Y87664D01*
X84640Y87754D01*
X84682Y87840D01*
X84688Y87882D01*
X84705Y87928D01*
X84715Y88055D01*
X84729Y88145D01*
X84729Y99941D01*
X95329Y110541D01*
X114295Y110541D01*
X132406Y92429D01*
X132406Y77219D01*
X132420Y77124D01*
X132425Y77028D01*
X132440Y76985D01*
X132446Y76940D01*
X132486Y76852D01*
X132517Y76761D01*
X132542Y76727D01*
X132562Y76683D01*
X132646Y76585D01*
X132699Y76512D01*
X141836Y67375D01*
X141836Y64677D01*
X141845Y64614D01*
X141845Y64549D01*
X141865Y64475D01*
X141876Y64398D01*
X141903Y64340D01*
X141920Y64278D01*
X141961Y64212D01*
X141992Y64141D01*
X142034Y64092D01*
X142068Y64038D01*
X142125Y63986D01*
X142176Y63927D01*
X142230Y63892D01*
X142277Y63849D01*
X142347Y63815D01*
X142412Y63772D01*
X142473Y63754D01*
X142531Y63726D01*
X142600Y63715D01*
X142682Y63690D01*
X142766Y63689D01*
X142836Y63678D01*
X144792Y63678D01*
X145209Y63261D01*
X145260Y63222D01*
X145305Y63176D01*
X145373Y63138D01*
X145435Y63092D01*
X145495Y63069D01*
X145551Y63037D01*
X145626Y63019D01*
X145699Y62992D01*
X145763Y62987D01*
X145825Y62972D01*
X145903Y62976D01*
X145980Y62970D01*
X146043Y62983D01*
X146107Y62987D01*
X146180Y63012D01*
X146256Y63028D01*
X146313Y63058D01*
X146373Y63079D01*
X146430Y63121D01*
X146505Y63160D01*
X146566Y63220D01*
X146622Y63261D01*
X147039Y63678D01*
X157492Y63678D01*
X157909Y63261D01*
X157960Y63222D01*
X158005Y63176D01*
X158073Y63138D01*
X158135Y63092D01*
X158195Y63069D01*
X158251Y63037D01*
X158326Y63019D01*
X158399Y62992D01*
X158463Y62987D01*
X158525Y62972D01*
X158603Y62976D01*
X158680Y62970D01*
X158743Y62983D01*
X158807Y62987D01*
X158880Y63012D01*
X158956Y63028D01*
X159013Y63058D01*
X159073Y63079D01*
X159130Y63121D01*
X159205Y63160D01*
X159266Y63220D01*
X159322Y63261D01*
X159739Y63678D01*
X161680Y63678D01*
X161743Y63687D01*
X161808Y63686D01*
X161882Y63707D01*
X161959Y63718D01*
X162017Y63744D01*
X162079Y63761D01*
X162145Y63802D01*
X162216Y63834D01*
X162265Y63876D01*
X162319Y63910D01*
X162371Y63967D01*
X162430Y64017D01*
X162465Y64071D01*
X162508Y64119D01*
X162542Y64189D01*
X162585Y64253D01*
X162603Y64315D01*
X162631Y64373D01*
X162642Y64442D01*
X162667Y64523D01*
X162668Y64608D01*
X162679Y64677D01*
X162679Y66913D01*
X177053Y81287D01*
X415005Y81287D01*
X453157Y43135D01*
X453233Y43078D01*
X453305Y43013D01*
X453346Y42993D01*
X453382Y42966D01*
X453472Y42932D01*
X453559Y42890D01*
X453601Y42884D01*
X453646Y42867D01*
X453774Y42857D01*
X453863Y42843D01*
X475391Y42843D01*
X487637Y30597D01*
X487637Y30269D01*
X487638Y30260D01*
X487637Y30250D01*
X487658Y30120D01*
X487677Y29990D01*
X487680Y29981D01*
X487682Y29972D01*
X487739Y29852D01*
X487793Y29733D01*
X487799Y29726D01*
X487803Y29717D01*
X487891Y29618D01*
X487976Y29519D01*
X487984Y29513D01*
X487990Y29506D01*
X488056Y29466D01*
X488212Y29364D01*
X488235Y29357D01*
X488254Y29346D01*
X489667Y28761D01*
X491693Y26734D01*
X491745Y26695D01*
X491790Y26649D01*
X491857Y26611D01*
X491919Y26565D01*
X491979Y26542D01*
X492035Y26510D01*
X492110Y26492D01*
X492183Y26465D01*
X492247Y26460D01*
X492309Y26445D01*
X492387Y26449D01*
X492464Y26443D01*
X492527Y26456D01*
X492591Y26460D01*
X492664Y26485D01*
X492740Y26501D01*
X492797Y26531D01*
X492858Y26552D01*
X492914Y26594D01*
X492989Y26633D01*
X493050Y26693D01*
X493107Y26734D01*
X495283Y28911D01*
X495680Y29075D01*
X495689Y29080D01*
X495698Y29082D01*
X495810Y29152D01*
X495923Y29219D01*
X495930Y29226D01*
X495938Y29231D01*
X496026Y29329D01*
X496116Y29424D01*
X496120Y29433D01*
X496127Y29440D01*
X496184Y29559D01*
X496244Y29676D01*
X496246Y29685D01*
X496250Y29694D01*
X496262Y29770D01*
X496296Y29953D01*
X496294Y29977D01*
X496297Y29998D01*
X496297Y30934D01*
X496284Y31029D01*
X496279Y31125D01*
X496264Y31168D01*
X496257Y31213D01*
X496218Y31300D01*
X496186Y31391D01*
X496161Y31426D01*
X496141Y31470D01*
X496058Y31567D01*
X496005Y31640D01*
X495213Y32431D01*
X495213Y35569D01*
X497431Y37787D01*
X500569Y37787D01*
X502787Y35569D01*
X502787Y35298D01*
X502800Y35203D01*
X502805Y35107D01*
X502820Y35064D01*
X502827Y35019D01*
X502866Y34931D01*
X502898Y34840D01*
X502903Y34833D01*
X502903Y29998D01*
X502904Y29989D01*
X502903Y29979D01*
X502924Y29848D01*
X502943Y29719D01*
X502946Y29710D01*
X502948Y29701D01*
X503005Y29582D01*
X503059Y29462D01*
X503065Y29455D01*
X503069Y29446D01*
X503157Y29348D01*
X503242Y29248D01*
X503250Y29243D01*
X503256Y29236D01*
X503322Y29196D01*
X503478Y29093D01*
X503501Y29086D01*
X503520Y29075D01*
X503917Y28911D01*
X506061Y26767D01*
X507221Y23966D01*
X507221Y20934D01*
X506061Y18133D01*
X503917Y15989D01*
X501116Y14829D01*
X498084Y14829D01*
X495283Y15989D01*
X493257Y18016D01*
X493205Y18055D01*
X493160Y18101D01*
X493093Y18139D01*
X493031Y18185D01*
X492971Y18208D01*
X492915Y18240D01*
X492840Y18258D01*
X492767Y18285D01*
X492703Y18290D01*
X492640Y18305D01*
X492563Y18301D01*
X492486Y18307D01*
X492423Y18294D01*
X492359Y18290D01*
X492286Y18265D01*
X492210Y18249D01*
X492153Y18219D01*
X492092Y18198D01*
X492036Y18156D01*
X491961Y18117D01*
X491900Y18057D01*
X491843Y18016D01*
X489667Y15839D01*
X486866Y14679D01*
X483834Y14679D01*
X481033Y15839D01*
X478832Y18041D01*
X478780Y18080D01*
X478735Y18126D01*
X478668Y18164D01*
X478606Y18210D01*
X478546Y18233D01*
X478490Y18265D01*
X478415Y18283D01*
X478342Y18310D01*
X478278Y18315D01*
X478215Y18330D01*
X478138Y18326D01*
X478061Y18332D01*
X477998Y18319D01*
X477934Y18315D01*
X477861Y18290D01*
X477785Y18274D01*
X477728Y18244D01*
X477667Y18223D01*
X477611Y18181D01*
X477536Y18142D01*
X477475Y18082D01*
X477418Y18041D01*
X475367Y15989D01*
X472566Y14829D01*
X469534Y14829D01*
X466733Y15989D01*
X464607Y18116D01*
X464555Y18155D01*
X464510Y18201D01*
X464443Y18239D01*
X464381Y18285D01*
X464321Y18308D01*
X464265Y18340D01*
X464190Y18358D01*
X464117Y18385D01*
X464053Y18390D01*
X463990Y18405D01*
X463913Y18401D01*
X463836Y18407D01*
X463773Y18394D01*
X463709Y18390D01*
X463636Y18365D01*
X463560Y18349D01*
X463503Y18319D01*
X463442Y18298D01*
X463386Y18256D01*
X463311Y18217D01*
X463250Y18157D01*
X463193Y18116D01*
X461017Y15939D01*
X458216Y14779D01*
X455184Y14779D01*
X452383Y15939D01*
X450170Y18152D01*
X450162Y18167D01*
X450075Y18248D01*
X449993Y18333D01*
X449973Y18344D01*
X449956Y18360D01*
X449850Y18413D01*
X449747Y18472D01*
X449725Y18477D01*
X449705Y18487D01*
X449588Y18510D01*
X449473Y18537D01*
X449450Y18536D01*
X449428Y18540D01*
X449309Y18529D01*
X449191Y18522D01*
X449170Y18515D01*
X449147Y18513D01*
X449037Y18469D01*
X448925Y18430D01*
X448907Y18417D01*
X448885Y18408D01*
X448738Y18294D01*
X448676Y18248D01*
X446467Y16039D01*
X443666Y14879D01*
X440634Y14879D01*
X437833Y16039D01*
X435689Y18183D01*
X434529Y20984D01*
X434529Y24016D01*
X435689Y26817D01*
X437833Y28961D01*
X439246Y29546D01*
X439255Y29551D01*
X439264Y29553D01*
X439376Y29623D01*
X439489Y29690D01*
X439496Y29696D01*
X439504Y29701D01*
X439592Y29800D01*
X439682Y29895D01*
X439686Y29904D01*
X439693Y29911D01*
X439750Y30030D01*
X439810Y30147D01*
X439812Y30156D01*
X439816Y30165D01*
X439828Y30241D01*
X439862Y30424D01*
X439860Y30448D01*
X439863Y30469D01*
X439863Y34139D01*
X439850Y34234D01*
X439845Y34330D01*
X439830Y34373D01*
X439823Y34418D01*
X439784Y34506D01*
X439752Y34596D01*
X439727Y34631D01*
X439707Y34675D01*
X439624Y34772D01*
X439571Y34845D01*
X408995Y65421D01*
X408919Y65478D01*
X408847Y65543D01*
X408806Y65563D01*
X408770Y65590D01*
X408680Y65624D01*
X408594Y65666D01*
X408551Y65672D01*
X408506Y65689D01*
X408378Y65699D01*
X408289Y65713D01*
X221361Y65713D01*
X221266Y65700D01*
X221170Y65695D01*
X221127Y65680D01*
X221082Y65673D01*
X220995Y65634D01*
X220904Y65603D01*
X220869Y65577D01*
X220825Y65557D01*
X220728Y65474D01*
X220655Y65421D01*
X220618Y65384D01*
X220599Y65358D01*
X220574Y65337D01*
X220514Y65246D01*
X220449Y65159D01*
X220437Y65128D01*
X220419Y65101D01*
X220388Y64997D01*
X220349Y64895D01*
X220347Y64862D01*
X220337Y64831D01*
X220336Y64722D01*
X220327Y64614D01*
X220334Y64582D01*
X220333Y64549D01*
X220362Y64444D01*
X220385Y64338D01*
X220400Y64309D01*
X220408Y64278D01*
X220466Y64185D01*
X220517Y64088D01*
X220540Y64065D01*
X220557Y64038D01*
X220638Y63965D01*
X220714Y63886D01*
X220742Y63870D01*
X220766Y63849D01*
X220864Y63801D01*
X220876Y63794D01*
X221409Y63261D01*
X221460Y63222D01*
X221505Y63176D01*
X221573Y63138D01*
X221635Y63092D01*
X221695Y63069D01*
X221751Y63037D01*
X221826Y63019D01*
X221899Y62992D01*
X221963Y62987D01*
X222025Y62972D01*
X222103Y62976D01*
X222180Y62970D01*
X222243Y62983D01*
X222307Y62987D01*
X222380Y63012D01*
X222456Y63028D01*
X222513Y63058D01*
X222573Y63079D01*
X222630Y63121D01*
X222705Y63160D01*
X222766Y63220D01*
X222822Y63261D01*
X223239Y63678D01*
X233692Y63678D01*
X234436Y62934D01*
X234436Y45881D01*
X233683Y45128D01*
X233656Y45128D01*
X233581Y45108D01*
X233504Y45097D01*
X233446Y45070D01*
X233384Y45053D01*
X233318Y45012D01*
X233248Y44981D01*
X233199Y44939D01*
X233144Y44905D01*
X233092Y44847D01*
X233033Y44797D01*
X232998Y44743D01*
X232955Y44696D01*
X232921Y44626D01*
X232879Y44561D01*
X232860Y44500D01*
X232832Y44442D01*
X232821Y44372D01*
X232796Y44291D01*
X232795Y44207D01*
X232784Y44137D01*
X232784Y39544D01*
X232793Y39483D01*
X232793Y39453D01*
X232793Y39451D01*
X232793Y39416D01*
X232813Y39341D01*
X232824Y39265D01*
X232851Y39206D01*
X232868Y39144D01*
X232909Y39078D01*
X232940Y39008D01*
X232982Y38959D01*
X233016Y38904D01*
X233073Y38852D01*
X233124Y38794D01*
X233178Y38758D01*
X233225Y38715D01*
X233295Y38682D01*
X233360Y38639D01*
X233421Y38620D01*
X233479Y38592D01*
X233548Y38581D01*
X233630Y38557D01*
X233714Y38556D01*
X233784Y38545D01*
X234084Y38545D01*
X234179Y38558D01*
X234275Y38563D01*
X234318Y38578D01*
X234363Y38585D01*
X234450Y38624D01*
X234541Y38656D01*
X234576Y38681D01*
X234620Y38701D01*
X234717Y38784D01*
X234790Y38837D01*
X235224Y39271D01*
X248276Y39271D01*
X248964Y38583D01*
X249040Y38526D01*
X249112Y38461D01*
X249153Y38441D01*
X249189Y38414D01*
X249279Y38380D01*
X249366Y38338D01*
X249408Y38332D01*
X249453Y38315D01*
X249581Y38305D01*
X249670Y38291D01*
X253802Y38291D01*
X257030Y35063D01*
X257107Y35006D01*
X257178Y34941D01*
X257219Y34921D01*
X257255Y34894D01*
X257345Y34860D01*
X257432Y34818D01*
X257474Y34812D01*
X257519Y34795D01*
X257647Y34785D01*
X257736Y34771D01*
X263733Y34771D01*
X263819Y34783D01*
X263905Y34786D01*
X263958Y34803D01*
X264012Y34811D01*
X264091Y34846D01*
X264173Y34873D01*
X264219Y34904D01*
X264269Y34927D01*
X264335Y34983D01*
X264406Y35032D01*
X264441Y35074D01*
X264483Y35110D01*
X264531Y35183D01*
X264586Y35250D01*
X264607Y35300D01*
X264637Y35346D01*
X264663Y35429D01*
X264697Y35509D01*
X264704Y35563D01*
X264720Y35616D01*
X264721Y35703D01*
X264732Y35789D01*
X264723Y35843D01*
X264724Y35898D01*
X264700Y35982D01*
X264687Y36067D01*
X264663Y36117D01*
X264648Y36170D01*
X264603Y36244D01*
X264566Y36322D01*
X264529Y36363D01*
X264500Y36410D01*
X264436Y36468D01*
X264378Y36533D01*
X264335Y36559D01*
X264291Y36599D01*
X264189Y36648D01*
X264115Y36693D01*
X259881Y38447D01*
X256097Y42231D01*
X254049Y47174D01*
X254049Y52526D01*
X256097Y57469D01*
X259881Y61253D01*
X264824Y63301D01*
X270176Y63301D01*
X275119Y61253D01*
X278903Y57469D01*
X280951Y52526D01*
X280951Y47174D01*
X278903Y42231D01*
X275119Y38447D01*
X270105Y36370D01*
X270031Y36359D01*
X270002Y36346D01*
X269970Y36340D01*
X269874Y36288D01*
X269774Y36243D01*
X269750Y36222D01*
X269721Y36207D01*
X269643Y36131D01*
X269560Y36060D01*
X269542Y36033D01*
X269519Y36010D01*
X269465Y35915D01*
X269405Y35824D01*
X269396Y35793D01*
X269380Y35765D01*
X269355Y35659D01*
X269323Y35554D01*
X269322Y35522D01*
X269315Y35491D01*
X269321Y35381D01*
X269319Y35272D01*
X269328Y35241D01*
X269329Y35209D01*
X269365Y35106D01*
X269394Y35000D01*
X269411Y34973D01*
X269422Y34942D01*
X269475Y34869D01*
X269543Y34760D01*
X269579Y34728D01*
X269604Y34693D01*
X270271Y34026D01*
X270271Y17974D01*
X269526Y17229D01*
X255474Y17229D01*
X254729Y17974D01*
X254729Y29764D01*
X254716Y29859D01*
X254711Y29955D01*
X254696Y29998D01*
X254689Y30043D01*
X254650Y30130D01*
X254618Y30221D01*
X254593Y30256D01*
X254573Y30300D01*
X254490Y30397D01*
X254437Y30470D01*
X251990Y32917D01*
X251913Y32974D01*
X251842Y33039D01*
X251801Y33059D01*
X251765Y33086D01*
X251675Y33120D01*
X251588Y33162D01*
X251546Y33168D01*
X251501Y33185D01*
X251373Y33195D01*
X251284Y33209D01*
X250020Y33209D01*
X249956Y33200D01*
X249892Y33201D01*
X249817Y33180D01*
X249741Y33169D01*
X249682Y33143D01*
X249620Y33126D01*
X249554Y33085D01*
X249484Y33053D01*
X249435Y33011D01*
X249380Y32978D01*
X249328Y32920D01*
X249270Y32870D01*
X249234Y32816D01*
X249191Y32768D01*
X249158Y32699D01*
X249115Y32634D01*
X249096Y32572D01*
X249068Y32515D01*
X249057Y32445D01*
X249033Y32364D01*
X249032Y32279D01*
X249021Y32210D01*
X249021Y26326D01*
X249012Y26289D01*
X248985Y26217D01*
X248980Y26153D01*
X248965Y26090D01*
X248969Y26013D01*
X248963Y25936D01*
X248976Y25873D01*
X248979Y25809D01*
X249005Y25735D01*
X249021Y25660D01*
X249021Y19826D01*
X249012Y19789D01*
X248985Y19717D01*
X248980Y19653D01*
X248965Y19590D01*
X248969Y19513D01*
X248963Y19436D01*
X248976Y19373D01*
X248979Y19309D01*
X249005Y19235D01*
X249021Y19160D01*
X249021Y13600D01*
X249030Y13536D01*
X249029Y13472D01*
X249050Y13397D01*
X249061Y13321D01*
X249087Y13262D01*
X249104Y13200D01*
X249145Y13134D01*
X249177Y13064D01*
X249219Y13015D01*
X249252Y12960D01*
X249310Y12908D01*
X249360Y12850D01*
X249414Y12814D01*
X249462Y12771D01*
X249531Y12738D01*
X249596Y12695D01*
X249658Y12676D01*
X249715Y12648D01*
X249785Y12637D01*
X249866Y12613D01*
X249951Y12612D01*
X250020Y12601D01*
X375985Y12601D01*
X376017Y12605D01*
G37*
G36*
X537795Y58103D02*
X537795Y58103D01*
X537803Y58102D01*
X1163278Y101366D01*
X1163298Y101371D01*
X1163331Y101372D01*
X1167817Y101998D01*
X1167848Y102008D01*
X1167921Y102020D01*
X1172276Y103264D01*
X1172305Y103277D01*
X1172376Y103300D01*
X1176516Y105136D01*
X1176543Y105154D01*
X1176610Y105186D01*
X1180455Y107579D01*
X1180480Y107601D01*
X1180541Y107641D01*
X1184017Y110546D01*
X1184038Y110570D01*
X1184093Y110619D01*
X1187132Y113978D01*
X1187149Y114006D01*
X1187197Y114062D01*
X1187675Y114766D01*
X1188191Y115527D01*
X1188707Y116289D01*
X1188708Y116289D01*
X1189740Y117810D01*
X1189753Y117840D01*
X1189793Y117902D01*
X1191790Y121967D01*
X1191799Y121998D01*
X1191830Y122066D01*
X1193243Y126369D01*
X1193247Y126392D01*
X1193254Y126408D01*
X1193257Y126429D01*
X1193269Y126472D01*
X1194071Y130930D01*
X1194071Y130962D01*
X1194082Y131035D01*
X1194257Y135561D01*
X1194253Y135593D01*
X1194254Y135667D01*
X1193798Y140174D01*
X1193790Y140205D01*
X1193780Y140278D01*
X1192703Y144678D01*
X1192691Y144707D01*
X1192671Y144778D01*
X1190993Y148986D01*
X1190976Y149014D01*
X1190947Y149081D01*
X1188701Y153015D01*
X1188681Y153040D01*
X1188643Y153103D01*
X1185872Y156686D01*
X1185848Y156708D01*
X1185802Y156765D01*
X1182560Y159929D01*
X1182534Y159948D01*
X1182479Y159998D01*
X1178830Y162681D01*
X1178801Y162696D01*
X1178741Y162738D01*
X1174754Y164888D01*
X1174723Y164898D01*
X1174657Y164931D01*
X1170411Y166507D01*
X1170389Y166511D01*
X1170369Y166521D01*
X1170204Y166552D01*
X539058Y214816D01*
X539009Y214812D01*
X538961Y214818D01*
X538887Y214802D01*
X538813Y214795D01*
X538768Y214776D01*
X538720Y214765D01*
X538656Y214727D01*
X538587Y214697D01*
X538551Y214664D01*
X538509Y214639D01*
X538461Y214582D01*
X538405Y214532D01*
X538381Y214489D01*
X538349Y214452D01*
X538321Y214383D01*
X538285Y214318D01*
X538276Y214270D01*
X538257Y214224D01*
X538243Y214100D01*
X538239Y214076D01*
X538240Y214069D01*
X538239Y214057D01*
X538239Y178750D01*
X538239Y178749D01*
X538239Y178748D01*
X538260Y178623D01*
X538279Y178507D01*
X538279Y178506D01*
X538340Y178391D01*
X538394Y178290D01*
X538394Y178289D01*
X538486Y178202D01*
X538572Y178121D01*
X538573Y178120D01*
X538682Y178069D01*
X538795Y178017D01*
X538796Y178017D01*
X538796Y178016D01*
X538962Y177990D01*
X1165179Y146741D01*
X1167456Y146428D01*
X1169612Y145737D01*
X1171617Y144683D01*
X1173410Y143300D01*
X1174936Y141627D01*
X1176151Y139715D01*
X1177018Y137623D01*
X1177510Y135412D01*
X1177613Y133150D01*
X1177323Y130904D01*
X1176650Y128741D01*
X1175614Y126728D01*
X1174245Y124924D01*
X1172585Y123383D01*
X1170684Y122152D01*
X1168599Y121267D01*
X1166397Y120757D01*
X537717Y93261D01*
X537714Y93260D01*
X537711Y93260D01*
X537594Y93235D01*
X537476Y93210D01*
X537473Y93209D01*
X537470Y93208D01*
X537366Y93146D01*
X537264Y93086D01*
X537262Y93083D01*
X537259Y93082D01*
X537180Y92990D01*
X537102Y92900D01*
X537101Y92897D01*
X537099Y92895D01*
X537054Y92782D01*
X537009Y92673D01*
X537008Y92670D01*
X537007Y92667D01*
X536989Y92500D01*
X536989Y58862D01*
X536996Y58816D01*
X536994Y58770D01*
X537016Y58695D01*
X537029Y58619D01*
X537050Y58578D01*
X537063Y58534D01*
X537107Y58470D01*
X537144Y58402D01*
X537177Y58370D01*
X537204Y58332D01*
X537266Y58286D01*
X537322Y58232D01*
X537364Y58213D01*
X537401Y58185D01*
X537475Y58161D01*
X537545Y58129D01*
X537591Y58123D01*
X537635Y58109D01*
X537770Y58104D01*
X537789Y58101D01*
X537795Y58103D01*
G37*
G36*
X1162965Y125611D02*
X1162965Y125611D01*
X1162992Y125617D01*
X1163044Y125618D01*
X1164549Y125832D01*
X1164563Y125836D01*
X1164675Y125863D01*
X1164691Y125866D01*
X1164695Y125868D01*
X1164703Y125870D01*
X1166131Y126391D01*
X1166143Y126398D01*
X1166273Y126461D01*
X1167562Y127267D01*
X1167573Y127276D01*
X1167687Y127365D01*
X1168780Y128420D01*
X1168789Y128432D01*
X1168882Y128542D01*
X1169732Y129801D01*
X1169739Y129815D01*
X1169807Y129942D01*
X1170378Y131350D01*
X1170381Y131364D01*
X1170421Y131503D01*
X1170687Y132999D01*
X1170687Y133013D01*
X1170699Y133157D01*
X1170648Y134676D01*
X1170645Y134691D01*
X1170626Y134834D01*
X1170262Y136309D01*
X1170256Y136322D01*
X1170208Y136458D01*
X1169545Y137826D01*
X1169537Y137838D01*
X1169461Y137961D01*
X1168529Y139161D01*
X1168519Y139171D01*
X1168419Y139276D01*
X1167259Y140257D01*
X1167246Y140264D01*
X1167127Y140346D01*
X1165788Y141064D01*
X1165774Y141069D01*
X1165641Y141124D01*
X1164182Y141550D01*
X1164175Y141550D01*
X1164169Y141553D01*
X1164003Y141579D01*
X541534Y169511D01*
X541497Y169506D01*
X541461Y169510D01*
X541376Y169492D01*
X541290Y169482D01*
X541256Y169466D01*
X541220Y169458D01*
X541146Y169413D01*
X541068Y169376D01*
X541041Y169351D01*
X541009Y169332D01*
X540953Y169266D01*
X540890Y169206D01*
X540873Y169173D01*
X540849Y169145D01*
X540817Y169064D01*
X540777Y168988D01*
X540771Y168951D01*
X540757Y168917D01*
X540739Y168750D01*
X540739Y103750D01*
X540744Y103717D01*
X540742Y103683D01*
X540764Y103596D01*
X540779Y103507D01*
X540794Y103477D01*
X540803Y103445D01*
X540852Y103369D01*
X540894Y103290D01*
X540918Y103267D01*
X540936Y103238D01*
X541007Y103182D01*
X541072Y103121D01*
X541103Y103106D01*
X541129Y103085D01*
X541214Y103055D01*
X541295Y103017D01*
X541329Y103013D01*
X541360Y103002D01*
X541528Y102989D01*
X1162965Y125611D01*
G37*
G36*
X233544Y12610D02*
X233544Y12610D01*
X233608Y12609D01*
X233683Y12630D01*
X233759Y12641D01*
X233818Y12667D01*
X233880Y12684D01*
X233946Y12725D01*
X234016Y12757D01*
X234065Y12799D01*
X234120Y12832D01*
X234172Y12890D01*
X234230Y12940D01*
X234266Y12994D01*
X234309Y13042D01*
X234342Y13111D01*
X234385Y13176D01*
X234404Y13238D01*
X234432Y13295D01*
X234443Y13365D01*
X234467Y13446D01*
X234468Y13531D01*
X234479Y13600D01*
X234479Y19174D01*
X234488Y19210D01*
X234515Y19283D01*
X234520Y19347D01*
X234535Y19409D01*
X234531Y19487D01*
X234537Y19564D01*
X234524Y19627D01*
X234521Y19691D01*
X234495Y19764D01*
X234479Y19840D01*
X234479Y25674D01*
X234488Y25710D01*
X234515Y25783D01*
X234520Y25847D01*
X234535Y25909D01*
X234531Y25987D01*
X234537Y26064D01*
X234524Y26127D01*
X234521Y26191D01*
X234495Y26264D01*
X234479Y26340D01*
X234479Y31956D01*
X234470Y32020D01*
X234471Y32084D01*
X234450Y32159D01*
X234439Y32235D01*
X234413Y32294D01*
X234396Y32356D01*
X234355Y32422D01*
X234323Y32492D01*
X234281Y32541D01*
X234248Y32596D01*
X234190Y32648D01*
X234140Y32706D01*
X234086Y32742D01*
X234038Y32785D01*
X233969Y32818D01*
X233904Y32861D01*
X233842Y32880D01*
X233785Y32908D01*
X233715Y32919D01*
X233634Y32943D01*
X233549Y32944D01*
X233480Y32955D01*
X231727Y32955D01*
X231632Y32942D01*
X231536Y32937D01*
X231493Y32922D01*
X231448Y32915D01*
X231360Y32876D01*
X231269Y32844D01*
X231235Y32819D01*
X231191Y32799D01*
X231093Y32716D01*
X231020Y32663D01*
X229789Y31431D01*
X226211Y31431D01*
X223681Y33961D01*
X223681Y37539D01*
X223854Y37712D01*
X223912Y37789D01*
X223976Y37860D01*
X223996Y37901D01*
X224024Y37937D01*
X224058Y38028D01*
X224099Y38114D01*
X224106Y38156D01*
X224123Y38201D01*
X224133Y38329D01*
X224147Y38418D01*
X224147Y44137D01*
X224138Y44201D01*
X224139Y44265D01*
X224118Y44340D01*
X224107Y44417D01*
X224081Y44475D01*
X224064Y44537D01*
X224023Y44603D01*
X223991Y44673D01*
X223949Y44722D01*
X223915Y44777D01*
X223858Y44829D01*
X223808Y44888D01*
X223754Y44923D01*
X223706Y44966D01*
X223636Y45000D01*
X223572Y45042D01*
X223510Y45061D01*
X223452Y45089D01*
X223383Y45100D01*
X223302Y45125D01*
X223251Y45125D01*
X222822Y45554D01*
X222771Y45592D01*
X222726Y45638D01*
X222659Y45676D01*
X222597Y45723D01*
X222537Y45746D01*
X222481Y45777D01*
X222405Y45795D01*
X222333Y45822D01*
X222269Y45827D01*
X222206Y45842D01*
X222129Y45838D01*
X222052Y45844D01*
X221989Y45831D01*
X221925Y45828D01*
X221851Y45802D01*
X221776Y45787D01*
X221719Y45756D01*
X221658Y45735D01*
X221601Y45694D01*
X221527Y45654D01*
X221466Y45595D01*
X221409Y45554D01*
X220992Y45137D01*
X210539Y45137D01*
X210122Y45554D01*
X210071Y45592D01*
X210026Y45638D01*
X209959Y45676D01*
X209897Y45723D01*
X209837Y45746D01*
X209781Y45777D01*
X209705Y45795D01*
X209633Y45822D01*
X209569Y45827D01*
X209506Y45842D01*
X209429Y45838D01*
X209352Y45844D01*
X209289Y45831D01*
X209225Y45828D01*
X209151Y45802D01*
X209076Y45787D01*
X209019Y45756D01*
X208958Y45735D01*
X208901Y45694D01*
X208827Y45654D01*
X208766Y45595D01*
X208709Y45554D01*
X208292Y45137D01*
X203278Y45137D01*
X203246Y45132D01*
X203213Y45134D01*
X203106Y45112D01*
X202998Y45097D01*
X202969Y45083D01*
X202937Y45077D01*
X202841Y45026D01*
X202741Y44981D01*
X202717Y44960D01*
X202688Y44944D01*
X202610Y44868D01*
X202527Y44797D01*
X202509Y44770D01*
X202486Y44748D01*
X202433Y44653D01*
X202373Y44561D01*
X202363Y44530D01*
X202347Y44502D01*
X202322Y44396D01*
X202290Y44291D01*
X202290Y44259D01*
X202282Y44228D01*
X202288Y44119D01*
X202287Y44009D01*
X202295Y43978D01*
X202297Y43946D01*
X202333Y43843D01*
X202362Y43738D01*
X202379Y43710D01*
X202389Y43680D01*
X202443Y43607D01*
X202510Y43498D01*
X202537Y43473D01*
X202537Y40270D01*
X202546Y40206D01*
X202545Y40142D01*
X202566Y40067D01*
X202577Y39991D01*
X202603Y39932D01*
X202620Y39870D01*
X202661Y39804D01*
X202693Y39734D01*
X202735Y39685D01*
X202768Y39630D01*
X202826Y39578D01*
X202876Y39520D01*
X202930Y39484D01*
X202978Y39441D01*
X203047Y39408D01*
X203112Y39365D01*
X203174Y39346D01*
X203231Y39318D01*
X203301Y39307D01*
X203382Y39283D01*
X203467Y39282D01*
X203536Y39271D01*
X204776Y39271D01*
X205521Y38526D01*
X205521Y32826D01*
X205512Y32790D01*
X205485Y32717D01*
X205480Y32653D01*
X205465Y32591D01*
X205469Y32513D01*
X205463Y32436D01*
X205476Y32373D01*
X205479Y32309D01*
X205505Y32236D01*
X205521Y32160D01*
X205521Y26326D01*
X205512Y26290D01*
X205485Y26217D01*
X205480Y26153D01*
X205465Y26091D01*
X205469Y26013D01*
X205463Y25936D01*
X205476Y25873D01*
X205479Y25809D01*
X205505Y25736D01*
X205521Y25660D01*
X205521Y19974D01*
X204776Y19229D01*
X191724Y19229D01*
X190979Y19974D01*
X190979Y25674D01*
X190988Y25711D01*
X191015Y25783D01*
X191020Y25847D01*
X191035Y25910D01*
X191031Y25987D01*
X191037Y26064D01*
X191024Y26127D01*
X191021Y26191D01*
X190995Y26265D01*
X190979Y26340D01*
X190979Y32174D01*
X190988Y32211D01*
X191015Y32283D01*
X191020Y32347D01*
X191035Y32410D01*
X191031Y32487D01*
X191037Y32564D01*
X191024Y32627D01*
X191021Y32691D01*
X190995Y32765D01*
X190979Y32840D01*
X190979Y38526D01*
X191724Y39271D01*
X194464Y39271D01*
X194528Y39280D01*
X194592Y39279D01*
X194667Y39300D01*
X194743Y39311D01*
X194802Y39337D01*
X194864Y39354D01*
X194930Y39395D01*
X195000Y39427D01*
X195049Y39469D01*
X195104Y39502D01*
X195156Y39560D01*
X195214Y39610D01*
X195250Y39664D01*
X195293Y39712D01*
X195326Y39781D01*
X195369Y39846D01*
X195388Y39908D01*
X195416Y39965D01*
X195427Y40035D01*
X195451Y40116D01*
X195452Y40201D01*
X195463Y40270D01*
X195463Y43469D01*
X195473Y43477D01*
X195533Y43569D01*
X195598Y43656D01*
X195610Y43686D01*
X195627Y43713D01*
X195659Y43818D01*
X195698Y43920D01*
X195700Y43952D01*
X195710Y43983D01*
X195711Y44092D01*
X195720Y44201D01*
X195713Y44233D01*
X195713Y44265D01*
X195684Y44371D01*
X195662Y44477D01*
X195647Y44506D01*
X195638Y44537D01*
X195581Y44630D01*
X195530Y44726D01*
X195507Y44750D01*
X195490Y44777D01*
X195409Y44850D01*
X195333Y44928D01*
X195305Y44944D01*
X195281Y44966D01*
X195183Y45014D01*
X195087Y45067D01*
X195056Y45075D01*
X195027Y45089D01*
X194938Y45103D01*
X194813Y45132D01*
X194765Y45130D01*
X194722Y45137D01*
X185139Y45137D01*
X184722Y45554D01*
X184671Y45592D01*
X184626Y45638D01*
X184559Y45676D01*
X184497Y45723D01*
X184437Y45746D01*
X184381Y45777D01*
X184305Y45795D01*
X184233Y45822D01*
X184169Y45827D01*
X184106Y45842D01*
X184029Y45838D01*
X183952Y45844D01*
X183889Y45831D01*
X183825Y45828D01*
X183751Y45802D01*
X183676Y45787D01*
X183619Y45756D01*
X183558Y45735D01*
X183501Y45694D01*
X183427Y45654D01*
X183366Y45595D01*
X183309Y45554D01*
X182892Y45137D01*
X172439Y45137D01*
X172022Y45554D01*
X171971Y45592D01*
X171926Y45638D01*
X171859Y45676D01*
X171797Y45723D01*
X171737Y45746D01*
X171681Y45777D01*
X171605Y45795D01*
X171533Y45822D01*
X171469Y45827D01*
X171406Y45842D01*
X171329Y45838D01*
X171252Y45844D01*
X171189Y45831D01*
X171125Y45828D01*
X171051Y45802D01*
X170976Y45787D01*
X170919Y45756D01*
X170858Y45735D01*
X170801Y45694D01*
X170727Y45654D01*
X170666Y45595D01*
X170609Y45554D01*
X170192Y45137D01*
X159739Y45137D01*
X159322Y45554D01*
X159271Y45592D01*
X159226Y45638D01*
X159159Y45676D01*
X159097Y45723D01*
X159037Y45746D01*
X158981Y45777D01*
X158905Y45795D01*
X158833Y45822D01*
X158769Y45827D01*
X158706Y45842D01*
X158629Y45838D01*
X158552Y45844D01*
X158489Y45831D01*
X158425Y45828D01*
X158351Y45802D01*
X158276Y45787D01*
X158219Y45756D01*
X158158Y45735D01*
X158101Y45694D01*
X158027Y45654D01*
X157966Y45595D01*
X157909Y45554D01*
X157492Y45137D01*
X155806Y45137D01*
X155742Y45127D01*
X155678Y45128D01*
X155603Y45108D01*
X155526Y45097D01*
X155468Y45070D01*
X155406Y45053D01*
X155340Y45012D01*
X155270Y44981D01*
X155221Y44939D01*
X155166Y44905D01*
X155114Y44847D01*
X155055Y44797D01*
X155020Y44743D01*
X154977Y44696D01*
X154943Y44626D01*
X154901Y44561D01*
X154882Y44500D01*
X154854Y44442D01*
X154843Y44372D01*
X154818Y44291D01*
X154817Y44207D01*
X154806Y44137D01*
X154806Y32201D01*
X154820Y32106D01*
X154825Y32010D01*
X154840Y31966D01*
X154846Y31921D01*
X154886Y31834D01*
X154917Y31743D01*
X154943Y31709D01*
X154962Y31664D01*
X155046Y31567D01*
X155099Y31494D01*
X156764Y29829D01*
X156841Y29772D01*
X156912Y29707D01*
X156953Y29687D01*
X156989Y29660D01*
X157079Y29626D01*
X157166Y29584D01*
X157208Y29578D01*
X157253Y29561D01*
X157381Y29551D01*
X157470Y29537D01*
X158465Y29537D01*
X160537Y27465D01*
X160537Y24535D01*
X158465Y22463D01*
X155535Y22463D01*
X153463Y24535D01*
X153463Y25530D01*
X153450Y25625D01*
X153445Y25721D01*
X153430Y25764D01*
X153423Y25809D01*
X153384Y25896D01*
X153352Y25987D01*
X153327Y26022D01*
X153307Y26066D01*
X153224Y26163D01*
X153171Y26236D01*
X149725Y29682D01*
X149725Y44137D01*
X149716Y44201D01*
X149717Y44265D01*
X149696Y44340D01*
X149685Y44417D01*
X149659Y44475D01*
X149642Y44537D01*
X149601Y44603D01*
X149569Y44673D01*
X149527Y44722D01*
X149493Y44777D01*
X149436Y44829D01*
X149386Y44888D01*
X149332Y44923D01*
X149284Y44966D01*
X149214Y45000D01*
X149150Y45042D01*
X149088Y45061D01*
X149030Y45089D01*
X148961Y45100D01*
X148880Y45125D01*
X148795Y45126D01*
X148726Y45137D01*
X147039Y45137D01*
X146622Y45554D01*
X146571Y45592D01*
X146526Y45638D01*
X146459Y45676D01*
X146397Y45723D01*
X146337Y45746D01*
X146281Y45777D01*
X146205Y45795D01*
X146133Y45822D01*
X146069Y45827D01*
X146006Y45842D01*
X145929Y45838D01*
X145852Y45844D01*
X145789Y45831D01*
X145725Y45828D01*
X145651Y45802D01*
X145576Y45787D01*
X145519Y45756D01*
X145458Y45735D01*
X145401Y45694D01*
X145327Y45654D01*
X145266Y45595D01*
X145209Y45554D01*
X144792Y45137D01*
X134339Y45137D01*
X133922Y45554D01*
X133871Y45592D01*
X133826Y45638D01*
X133759Y45676D01*
X133697Y45723D01*
X133637Y45746D01*
X133581Y45777D01*
X133505Y45795D01*
X133433Y45822D01*
X133369Y45827D01*
X133306Y45842D01*
X133229Y45838D01*
X133152Y45844D01*
X133089Y45831D01*
X133025Y45828D01*
X132951Y45802D01*
X132876Y45787D01*
X132819Y45756D01*
X132758Y45735D01*
X132701Y45694D01*
X132627Y45654D01*
X132566Y45595D01*
X132509Y45554D01*
X132092Y45137D01*
X121639Y45137D01*
X121222Y45554D01*
X121171Y45592D01*
X121126Y45638D01*
X121059Y45676D01*
X120997Y45723D01*
X120937Y45746D01*
X120881Y45777D01*
X120805Y45795D01*
X120733Y45822D01*
X120669Y45827D01*
X120606Y45842D01*
X120529Y45838D01*
X120452Y45844D01*
X120389Y45831D01*
X120325Y45828D01*
X120251Y45802D01*
X120176Y45787D01*
X120119Y45756D01*
X120058Y45735D01*
X120001Y45694D01*
X119927Y45654D01*
X119866Y45595D01*
X119809Y45554D01*
X119392Y45137D01*
X108939Y45137D01*
X108522Y45554D01*
X108471Y45592D01*
X108426Y45638D01*
X108359Y45676D01*
X108297Y45723D01*
X108236Y45746D01*
X108181Y45777D01*
X108105Y45795D01*
X108033Y45822D01*
X107969Y45827D01*
X107906Y45842D01*
X107829Y45838D01*
X107752Y45844D01*
X107689Y45831D01*
X107625Y45828D01*
X107551Y45802D01*
X107476Y45787D01*
X107419Y45756D01*
X107358Y45735D01*
X107301Y45694D01*
X107227Y45654D01*
X107166Y45595D01*
X107109Y45554D01*
X106692Y45137D01*
X96239Y45137D01*
X95822Y45554D01*
X95771Y45592D01*
X95726Y45638D01*
X95659Y45676D01*
X95597Y45723D01*
X95537Y45746D01*
X95481Y45777D01*
X95405Y45795D01*
X95333Y45822D01*
X95269Y45827D01*
X95206Y45842D01*
X95129Y45838D01*
X95052Y45844D01*
X94989Y45831D01*
X94925Y45828D01*
X94851Y45802D01*
X94776Y45787D01*
X94719Y45756D01*
X94658Y45735D01*
X94601Y45694D01*
X94527Y45654D01*
X94466Y45595D01*
X94409Y45554D01*
X93992Y45137D01*
X83539Y45137D01*
X83122Y45554D01*
X83071Y45592D01*
X83026Y45638D01*
X82959Y45676D01*
X82897Y45723D01*
X82837Y45746D01*
X82781Y45777D01*
X82705Y45795D01*
X82633Y45822D01*
X82569Y45827D01*
X82506Y45842D01*
X82429Y45838D01*
X82352Y45844D01*
X82289Y45831D01*
X82225Y45828D01*
X82151Y45802D01*
X82076Y45787D01*
X82019Y45756D01*
X81958Y45735D01*
X81901Y45694D01*
X81827Y45654D01*
X81766Y45595D01*
X81709Y45554D01*
X81292Y45137D01*
X70839Y45137D01*
X70095Y45881D01*
X70095Y51137D01*
X70086Y51201D01*
X70087Y51265D01*
X70066Y51340D01*
X70055Y51417D01*
X70029Y51475D01*
X70012Y51537D01*
X69971Y51603D01*
X69939Y51673D01*
X69897Y51722D01*
X69863Y51777D01*
X69806Y51829D01*
X69756Y51888D01*
X69702Y51923D01*
X69654Y51966D01*
X69584Y52000D01*
X69520Y52042D01*
X69458Y52061D01*
X69400Y52089D01*
X69331Y52100D01*
X69250Y52125D01*
X69165Y52126D01*
X69096Y52137D01*
X55000Y52137D01*
X54936Y52127D01*
X54872Y52128D01*
X54797Y52108D01*
X54721Y52097D01*
X54662Y52070D01*
X54600Y52053D01*
X54534Y52012D01*
X54464Y51981D01*
X54415Y51939D01*
X54360Y51905D01*
X54308Y51847D01*
X54250Y51797D01*
X54214Y51743D01*
X54171Y51696D01*
X54138Y51626D01*
X54095Y51561D01*
X54076Y51500D01*
X54048Y51442D01*
X54037Y51372D01*
X54013Y51291D01*
X54012Y51207D01*
X54001Y51137D01*
X54001Y30790D01*
X54010Y30726D01*
X54009Y30662D01*
X54030Y30587D01*
X54041Y30511D01*
X54067Y30452D01*
X54084Y30390D01*
X54125Y30324D01*
X54157Y30254D01*
X54199Y30205D01*
X54232Y30150D01*
X54290Y30098D01*
X54340Y30040D01*
X54394Y30004D01*
X54442Y29961D01*
X54511Y29928D01*
X54576Y29885D01*
X54638Y29866D01*
X54695Y29838D01*
X54765Y29827D01*
X54846Y29803D01*
X54931Y29802D01*
X55000Y29791D01*
X55480Y29791D01*
X55544Y29800D01*
X55608Y29799D01*
X55683Y29820D01*
X55759Y29831D01*
X55818Y29857D01*
X55880Y29874D01*
X55946Y29915D01*
X56016Y29947D01*
X56065Y29989D01*
X56120Y30022D01*
X56172Y30080D01*
X56230Y30130D01*
X56266Y30184D01*
X56309Y30232D01*
X56342Y30301D01*
X56385Y30366D01*
X56404Y30428D01*
X56432Y30485D01*
X56443Y30555D01*
X56467Y30636D01*
X56468Y30721D01*
X56479Y30790D01*
X56479Y35526D01*
X57224Y36271D01*
X60460Y36271D01*
X60524Y36280D01*
X60588Y36279D01*
X60663Y36300D01*
X60739Y36311D01*
X60798Y36337D01*
X60860Y36354D01*
X60926Y36395D01*
X60996Y36427D01*
X61045Y36469D01*
X61100Y36502D01*
X61152Y36560D01*
X61210Y36610D01*
X61246Y36664D01*
X61289Y36712D01*
X61322Y36781D01*
X61365Y36846D01*
X61384Y36908D01*
X61412Y36965D01*
X61423Y37035D01*
X61447Y37116D01*
X61448Y37201D01*
X61459Y37270D01*
X61459Y39625D01*
X61451Y39685D01*
X61451Y39708D01*
X61445Y39729D01*
X61441Y39816D01*
X61426Y39859D01*
X61419Y39904D01*
X61380Y39992D01*
X61348Y40083D01*
X61323Y40117D01*
X61303Y40161D01*
X61220Y40259D01*
X61167Y40332D01*
X60463Y41035D01*
X60463Y43965D01*
X62535Y46037D01*
X65465Y46037D01*
X67537Y43965D01*
X67537Y41035D01*
X66833Y40332D01*
X66776Y40255D01*
X66711Y40183D01*
X66691Y40143D01*
X66664Y40106D01*
X66630Y40016D01*
X66588Y39930D01*
X66582Y39888D01*
X66565Y39842D01*
X66557Y39750D01*
X66553Y39735D01*
X66552Y39699D01*
X66541Y39625D01*
X66541Y37270D01*
X66550Y37206D01*
X66549Y37142D01*
X66570Y37067D01*
X66581Y36991D01*
X66607Y36932D01*
X66624Y36870D01*
X66665Y36804D01*
X66697Y36734D01*
X66739Y36685D01*
X66772Y36630D01*
X66830Y36578D01*
X66880Y36520D01*
X66934Y36484D01*
X66982Y36441D01*
X67051Y36408D01*
X67116Y36365D01*
X67178Y36346D01*
X67235Y36318D01*
X67305Y36307D01*
X67386Y36283D01*
X67471Y36282D01*
X67540Y36271D01*
X71276Y36271D01*
X72021Y35526D01*
X72021Y19474D01*
X71276Y18729D01*
X57224Y18729D01*
X56479Y19474D01*
X56479Y23710D01*
X56470Y23774D01*
X56471Y23838D01*
X56450Y23913D01*
X56439Y23989D01*
X56413Y24048D01*
X56396Y24110D01*
X56355Y24176D01*
X56323Y24246D01*
X56281Y24295D01*
X56248Y24350D01*
X56190Y24402D01*
X56140Y24460D01*
X56086Y24496D01*
X56038Y24539D01*
X55969Y24572D01*
X55904Y24615D01*
X55842Y24634D01*
X55785Y24662D01*
X55715Y24673D01*
X55634Y24697D01*
X55549Y24698D01*
X55480Y24709D01*
X55000Y24709D01*
X54936Y24700D01*
X54872Y24701D01*
X54797Y24680D01*
X54721Y24669D01*
X54662Y24643D01*
X54600Y24626D01*
X54534Y24585D01*
X54464Y24553D01*
X54415Y24511D01*
X54360Y24478D01*
X54308Y24420D01*
X54250Y24370D01*
X54214Y24316D01*
X54171Y24268D01*
X54138Y24199D01*
X54095Y24134D01*
X54076Y24072D01*
X54048Y24015D01*
X54037Y23945D01*
X54013Y23864D01*
X54012Y23779D01*
X54001Y23710D01*
X54001Y13600D01*
X54010Y13536D01*
X54009Y13472D01*
X54030Y13397D01*
X54041Y13321D01*
X54067Y13262D01*
X54084Y13200D01*
X54125Y13134D01*
X54157Y13064D01*
X54199Y13015D01*
X54232Y12960D01*
X54290Y12908D01*
X54340Y12850D01*
X54394Y12814D01*
X54442Y12771D01*
X54511Y12738D01*
X54576Y12695D01*
X54638Y12676D01*
X54695Y12648D01*
X54765Y12637D01*
X54846Y12613D01*
X54931Y12612D01*
X55000Y12601D01*
X233480Y12601D01*
X233544Y12610D01*
G37*
%LPC*%
G36*
X503853Y190204D02*
X503853Y190204D01*
X499885Y191848D01*
X496848Y194885D01*
X496359Y196064D01*
X496354Y196073D01*
X496352Y196082D01*
X496282Y196194D01*
X496216Y196307D01*
X496209Y196314D01*
X496204Y196322D01*
X496106Y196410D01*
X496010Y196500D01*
X496001Y196504D01*
X495994Y196511D01*
X495876Y196568D01*
X495758Y196628D01*
X495749Y196630D01*
X495741Y196634D01*
X495665Y196646D01*
X495481Y196680D01*
X495457Y196678D01*
X495436Y196681D01*
X487270Y196681D01*
X487206Y196672D01*
X487142Y196673D01*
X487067Y196652D01*
X486991Y196641D01*
X486932Y196615D01*
X486870Y196598D01*
X486804Y196557D01*
X486734Y196525D01*
X486685Y196483D01*
X486630Y196450D01*
X486578Y196392D01*
X486520Y196342D01*
X486484Y196288D01*
X486441Y196240D01*
X486408Y196171D01*
X486365Y196106D01*
X486346Y196044D01*
X486318Y195987D01*
X486307Y195917D01*
X486283Y195836D01*
X486282Y195751D01*
X486271Y195682D01*
X486271Y192974D01*
X485526Y192229D01*
X471474Y192229D01*
X470729Y192974D01*
X470729Y209026D01*
X471474Y209771D01*
X485526Y209771D01*
X486271Y209026D01*
X486271Y206318D01*
X486280Y206254D01*
X486279Y206190D01*
X486300Y206115D01*
X486311Y206039D01*
X486337Y205980D01*
X486354Y205918D01*
X486395Y205852D01*
X486427Y205782D01*
X486469Y205733D01*
X486502Y205678D01*
X486560Y205626D01*
X486610Y205568D01*
X486664Y205532D01*
X486712Y205489D01*
X486781Y205456D01*
X486846Y205413D01*
X486908Y205394D01*
X486965Y205366D01*
X487035Y205355D01*
X487116Y205331D01*
X487201Y205330D01*
X487270Y205319D01*
X495436Y205319D01*
X495445Y205320D01*
X495455Y205319D01*
X495585Y205340D01*
X495715Y205359D01*
X495724Y205362D01*
X495733Y205364D01*
X495853Y205421D01*
X495972Y205475D01*
X495979Y205481D01*
X495988Y205485D01*
X496087Y205573D01*
X496186Y205658D01*
X496192Y205666D01*
X496199Y205672D01*
X496239Y205738D01*
X496341Y205894D01*
X496348Y205917D01*
X496359Y205936D01*
X496848Y207115D01*
X498389Y208656D01*
X498446Y208733D01*
X498511Y208804D01*
X498531Y208845D01*
X498558Y208882D01*
X498592Y208972D01*
X498634Y209058D01*
X498640Y209100D01*
X498657Y209146D01*
X498667Y209273D01*
X498681Y209363D01*
X498681Y222230D01*
X498672Y222294D01*
X498673Y222358D01*
X498652Y222433D01*
X498641Y222509D01*
X498615Y222568D01*
X498598Y222630D01*
X498557Y222696D01*
X498525Y222766D01*
X498483Y222815D01*
X498450Y222870D01*
X498392Y222922D01*
X498342Y222980D01*
X498288Y223016D01*
X498240Y223059D01*
X498171Y223092D01*
X498106Y223135D01*
X498044Y223154D01*
X497987Y223182D01*
X497917Y223193D01*
X497836Y223217D01*
X497751Y223218D01*
X497682Y223229D01*
X489724Y223229D01*
X488979Y223974D01*
X488979Y252026D01*
X489724Y252771D01*
X516276Y252771D01*
X517021Y252026D01*
X517021Y223974D01*
X516276Y223229D01*
X508318Y223229D01*
X508254Y223220D01*
X508190Y223221D01*
X508115Y223200D01*
X508039Y223189D01*
X507980Y223163D01*
X507918Y223146D01*
X507852Y223105D01*
X507782Y223073D01*
X507733Y223031D01*
X507678Y222998D01*
X507626Y222940D01*
X507568Y222890D01*
X507532Y222836D01*
X507489Y222788D01*
X507456Y222719D01*
X507413Y222654D01*
X507394Y222592D01*
X507366Y222535D01*
X507355Y222465D01*
X507331Y222384D01*
X507330Y222299D01*
X507319Y222230D01*
X507319Y212795D01*
X507328Y212731D01*
X507327Y212667D01*
X507348Y212592D01*
X507359Y212516D01*
X507385Y212457D01*
X507402Y212395D01*
X507443Y212329D01*
X507475Y212259D01*
X507517Y212210D01*
X507550Y212155D01*
X507608Y212103D01*
X507658Y212045D01*
X507712Y212009D01*
X507760Y211966D01*
X507829Y211933D01*
X507894Y211890D01*
X507956Y211871D01*
X508013Y211843D01*
X508044Y211838D01*
X512115Y210152D01*
X515152Y207115D01*
X516796Y203147D01*
X516796Y198853D01*
X515152Y194885D01*
X512115Y191848D01*
X508147Y190204D01*
X503853Y190204D01*
G37*
%LPD*%
%LPC*%
G36*
X264824Y211699D02*
X264824Y211699D01*
X259881Y213747D01*
X256097Y217531D01*
X254049Y222474D01*
X254049Y227826D01*
X256097Y232769D01*
X259881Y236553D01*
X264824Y238601D01*
X270176Y238601D01*
X275119Y236553D01*
X278903Y232769D01*
X280951Y227826D01*
X280951Y222474D01*
X278903Y217531D01*
X275119Y213747D01*
X270176Y211699D01*
X264824Y211699D01*
G37*
%LPD*%
%LPC*%
G36*
X294535Y16463D02*
X294535Y16463D01*
X292463Y18535D01*
X292463Y21465D01*
X294535Y23537D01*
X295912Y23537D01*
X296006Y23550D01*
X296103Y23555D01*
X296146Y23570D01*
X296191Y23577D01*
X296278Y23616D01*
X296369Y23648D01*
X296404Y23673D01*
X296448Y23693D01*
X296545Y23776D01*
X296618Y23829D01*
X302059Y29271D01*
X304480Y29271D01*
X304544Y29280D01*
X304608Y29279D01*
X304683Y29300D01*
X304759Y29311D01*
X304818Y29337D01*
X304880Y29354D01*
X304946Y29395D01*
X305016Y29427D01*
X305065Y29469D01*
X305120Y29502D01*
X305172Y29560D01*
X305230Y29610D01*
X305266Y29664D01*
X305309Y29712D01*
X305342Y29781D01*
X305385Y29846D01*
X305404Y29908D01*
X305432Y29965D01*
X305443Y30035D01*
X305467Y30116D01*
X305468Y30201D01*
X305479Y30270D01*
X305479Y36026D01*
X306224Y36771D01*
X325276Y36771D01*
X326021Y36026D01*
X326021Y17974D01*
X325276Y17229D01*
X306224Y17229D01*
X305479Y17974D01*
X305479Y23730D01*
X305470Y23794D01*
X305471Y23858D01*
X305450Y23933D01*
X305439Y24009D01*
X305413Y24068D01*
X305396Y24130D01*
X305355Y24196D01*
X305323Y24266D01*
X305281Y24315D01*
X305248Y24370D01*
X305190Y24422D01*
X305140Y24480D01*
X305086Y24516D01*
X305038Y24559D01*
X304969Y24592D01*
X304904Y24635D01*
X304842Y24654D01*
X304785Y24682D01*
X304715Y24693D01*
X304634Y24717D01*
X304549Y24718D01*
X304480Y24729D01*
X304354Y24729D01*
X304260Y24716D01*
X304163Y24711D01*
X304120Y24696D01*
X304075Y24689D01*
X303988Y24650D01*
X303897Y24618D01*
X303862Y24593D01*
X303818Y24573D01*
X303721Y24490D01*
X303648Y24437D01*
X299829Y20618D01*
X299772Y20541D01*
X299707Y20470D01*
X299687Y20429D01*
X299660Y20393D01*
X299626Y20302D01*
X299584Y20216D01*
X299578Y20174D01*
X299561Y20129D01*
X299551Y20001D01*
X299537Y19912D01*
X299537Y18535D01*
X297465Y16463D01*
X294535Y16463D01*
G37*
%LPD*%
%LPC*%
G36*
X17239Y209327D02*
X17239Y209327D01*
X16495Y210071D01*
X16495Y227124D01*
X17239Y227868D01*
X27692Y227868D01*
X28109Y227451D01*
X28160Y227412D01*
X28205Y227366D01*
X28273Y227328D01*
X28335Y227282D01*
X28395Y227259D01*
X28451Y227227D01*
X28526Y227209D01*
X28599Y227182D01*
X28663Y227177D01*
X28725Y227162D01*
X28803Y227166D01*
X28880Y227160D01*
X28943Y227173D01*
X29007Y227177D01*
X29080Y227202D01*
X29156Y227218D01*
X29213Y227248D01*
X29273Y227269D01*
X29330Y227311D01*
X29405Y227350D01*
X29466Y227410D01*
X29522Y227451D01*
X29939Y227868D01*
X40392Y227868D01*
X41136Y227124D01*
X41136Y210071D01*
X40392Y209327D01*
X29939Y209327D01*
X29522Y209744D01*
X29471Y209782D01*
X29426Y209828D01*
X29359Y209866D01*
X29297Y209913D01*
X29237Y209936D01*
X29181Y209967D01*
X29105Y209985D01*
X29033Y210012D01*
X28969Y210017D01*
X28906Y210032D01*
X28829Y210028D01*
X28752Y210034D01*
X28689Y210021D01*
X28625Y210018D01*
X28551Y209992D01*
X28476Y209977D01*
X28419Y209946D01*
X28358Y209925D01*
X28301Y209884D01*
X28227Y209844D01*
X28166Y209785D01*
X28109Y209744D01*
X27692Y209327D01*
X17239Y209327D01*
G37*
%LPD*%
G36*
X36505Y15249D02*
X36505Y15249D01*
X36505Y15250D01*
X36505Y39250D01*
X36501Y39255D01*
X36500Y39255D01*
X24000Y39255D01*
X23998Y39253D01*
X23996Y39253D01*
X21877Y36753D01*
X21877Y36751D01*
X21876Y36750D01*
X21876Y15250D01*
X21880Y15245D01*
X21881Y15245D01*
X36500Y15245D01*
X36505Y15249D01*
G37*
G36*
X120643Y227173D02*
X120643Y227173D01*
X120707Y227177D01*
X120780Y227202D01*
X120856Y227218D01*
X120913Y227248D01*
X120973Y227269D01*
X121030Y227311D01*
X121105Y227350D01*
X121166Y227410D01*
X121222Y227451D01*
X121639Y227868D01*
X123580Y227868D01*
X123643Y227877D01*
X123708Y227876D01*
X123782Y227897D01*
X123859Y227908D01*
X123917Y227934D01*
X123979Y227951D01*
X124045Y227992D01*
X124116Y228024D01*
X124165Y228066D01*
X124219Y228100D01*
X124271Y228157D01*
X124330Y228207D01*
X124365Y228261D01*
X124408Y228309D01*
X124442Y228379D01*
X124485Y228443D01*
X124503Y228505D01*
X124531Y228563D01*
X124542Y228632D01*
X124567Y228713D01*
X124568Y228798D01*
X124579Y228867D01*
X124579Y231813D01*
X129437Y236671D01*
X129494Y236747D01*
X129559Y236819D01*
X129579Y236860D01*
X129606Y236896D01*
X129640Y236986D01*
X129682Y237073D01*
X129688Y237115D01*
X129705Y237160D01*
X129714Y237266D01*
X129717Y237278D01*
X129718Y237303D01*
X129729Y237377D01*
X129729Y249494D01*
X129712Y249612D01*
X129701Y249730D01*
X129693Y249751D01*
X129689Y249773D01*
X129641Y249881D01*
X129596Y249992D01*
X129582Y250010D01*
X129573Y250030D01*
X129496Y250121D01*
X129423Y250214D01*
X129404Y250228D01*
X129390Y250245D01*
X129290Y250310D01*
X129194Y250379D01*
X129173Y250387D01*
X129154Y250399D01*
X129040Y250434D01*
X128928Y250474D01*
X128906Y250475D01*
X128884Y250481D01*
X128765Y250483D01*
X128647Y250490D01*
X128626Y250485D01*
X128602Y250485D01*
X128581Y250479D01*
X125903Y250479D01*
X123506Y251472D01*
X121557Y253422D01*
X121505Y253460D01*
X121460Y253506D01*
X121393Y253545D01*
X121331Y253591D01*
X121271Y253614D01*
X121215Y253645D01*
X121140Y253663D01*
X121067Y253691D01*
X121003Y253695D01*
X120941Y253710D01*
X120863Y253706D01*
X120786Y253712D01*
X120723Y253699D01*
X120659Y253696D01*
X120586Y253670D01*
X120510Y253655D01*
X120453Y253625D01*
X120392Y253603D01*
X120336Y253562D01*
X120261Y253522D01*
X120200Y253463D01*
X120143Y253422D01*
X118194Y251472D01*
X115797Y250479D01*
X113270Y250479D01*
X113206Y250470D01*
X113142Y250471D01*
X113067Y250450D01*
X112991Y250439D01*
X112932Y250413D01*
X112870Y250396D01*
X112804Y250355D01*
X112734Y250323D01*
X112685Y250281D01*
X112630Y250248D01*
X112578Y250190D01*
X112520Y250140D01*
X112484Y250086D01*
X112441Y250038D01*
X112408Y249969D01*
X112365Y249904D01*
X112346Y249842D01*
X112318Y249785D01*
X112307Y249715D01*
X112283Y249634D01*
X112282Y249549D01*
X112271Y249480D01*
X112271Y240377D01*
X112279Y240318D01*
X112279Y240302D01*
X112284Y240283D01*
X112284Y240282D01*
X112289Y240186D01*
X112304Y240143D01*
X112311Y240098D01*
X112350Y240010D01*
X112382Y239920D01*
X112407Y239885D01*
X112427Y239841D01*
X112510Y239744D01*
X112563Y239671D01*
X116452Y235782D01*
X116452Y228867D01*
X116461Y228804D01*
X116461Y228739D01*
X116481Y228665D01*
X116492Y228588D01*
X116519Y228530D01*
X116536Y228468D01*
X116577Y228402D01*
X116608Y228331D01*
X116650Y228282D01*
X116684Y228228D01*
X116741Y228176D01*
X116792Y228117D01*
X116846Y228082D01*
X116893Y228039D01*
X116963Y228005D01*
X117028Y227962D01*
X117089Y227944D01*
X117147Y227916D01*
X117216Y227905D01*
X117298Y227880D01*
X117382Y227879D01*
X117452Y227868D01*
X119392Y227868D01*
X119809Y227451D01*
X119860Y227412D01*
X119905Y227366D01*
X119973Y227328D01*
X120035Y227282D01*
X120095Y227259D01*
X120151Y227227D01*
X120226Y227209D01*
X120299Y227182D01*
X120363Y227177D01*
X120425Y227162D01*
X120503Y227166D01*
X120580Y227160D01*
X120643Y227173D01*
G37*
G36*
X146043Y227173D02*
X146043Y227173D01*
X146107Y227177D01*
X146180Y227202D01*
X146256Y227218D01*
X146313Y227248D01*
X146373Y227269D01*
X146430Y227311D01*
X146505Y227350D01*
X146566Y227410D01*
X146622Y227451D01*
X147039Y227868D01*
X148996Y227868D01*
X149059Y227877D01*
X149124Y227876D01*
X149198Y227897D01*
X149275Y227908D01*
X149333Y227934D01*
X149395Y227951D01*
X149461Y227992D01*
X149532Y228024D01*
X149581Y228066D01*
X149635Y228100D01*
X149687Y228157D01*
X149746Y228207D01*
X149781Y228261D01*
X149824Y228309D01*
X149858Y228379D01*
X149901Y228443D01*
X149919Y228505D01*
X149947Y228563D01*
X149958Y228632D01*
X149983Y228713D01*
X149984Y228798D01*
X149995Y228867D01*
X149995Y233956D01*
X154937Y238898D01*
X154994Y238975D01*
X155059Y239046D01*
X155079Y239087D01*
X155106Y239123D01*
X155140Y239214D01*
X155182Y239300D01*
X155188Y239342D01*
X155205Y239387D01*
X155215Y239515D01*
X155229Y239604D01*
X155229Y249536D01*
X155213Y249653D01*
X155201Y249771D01*
X155193Y249792D01*
X155189Y249815D01*
X155141Y249923D01*
X155097Y250033D01*
X155083Y250051D01*
X155073Y250072D01*
X154996Y250162D01*
X154923Y250255D01*
X154905Y250269D01*
X154890Y250286D01*
X154790Y250351D01*
X154694Y250420D01*
X154673Y250428D01*
X154654Y250441D01*
X154540Y250475D01*
X154429Y250515D01*
X154406Y250516D01*
X154384Y250523D01*
X154266Y250524D01*
X154147Y250531D01*
X154126Y250526D01*
X154102Y250527D01*
X153931Y250479D01*
X151303Y250479D01*
X148906Y251472D01*
X146957Y253422D01*
X146905Y253460D01*
X146860Y253506D01*
X146793Y253545D01*
X146731Y253591D01*
X146671Y253614D01*
X146615Y253645D01*
X146540Y253663D01*
X146467Y253691D01*
X146403Y253695D01*
X146341Y253710D01*
X146263Y253706D01*
X146186Y253712D01*
X146123Y253699D01*
X146059Y253696D01*
X145986Y253670D01*
X145910Y253655D01*
X145853Y253625D01*
X145792Y253603D01*
X145736Y253562D01*
X145661Y253522D01*
X145600Y253463D01*
X145543Y253422D01*
X143594Y251472D01*
X141197Y250479D01*
X139270Y250479D01*
X139206Y250470D01*
X139142Y250471D01*
X139067Y250450D01*
X138991Y250439D01*
X138932Y250413D01*
X138870Y250396D01*
X138804Y250355D01*
X138734Y250323D01*
X138685Y250281D01*
X138630Y250248D01*
X138578Y250190D01*
X138520Y250140D01*
X138484Y250086D01*
X138441Y250038D01*
X138408Y249969D01*
X138365Y249904D01*
X138346Y249842D01*
X138318Y249785D01*
X138307Y249715D01*
X138283Y249634D01*
X138282Y249549D01*
X138271Y249480D01*
X138271Y237377D01*
X138279Y237318D01*
X138279Y237304D01*
X138283Y237288D01*
X138284Y237282D01*
X138289Y237186D01*
X138304Y237143D01*
X138311Y237098D01*
X138350Y237010D01*
X138382Y236920D01*
X138407Y236885D01*
X138427Y236841D01*
X138510Y236744D01*
X138563Y236671D01*
X141852Y233382D01*
X141852Y228867D01*
X141861Y228804D01*
X141861Y228739D01*
X141881Y228665D01*
X141892Y228588D01*
X141919Y228530D01*
X141936Y228468D01*
X141977Y228402D01*
X142008Y228331D01*
X142050Y228282D01*
X142084Y228228D01*
X142141Y228176D01*
X142192Y228117D01*
X142246Y228082D01*
X142293Y228039D01*
X142363Y228005D01*
X142428Y227962D01*
X142489Y227944D01*
X142547Y227916D01*
X142616Y227905D01*
X142698Y227880D01*
X142782Y227879D01*
X142852Y227868D01*
X144792Y227868D01*
X145209Y227451D01*
X145260Y227412D01*
X145305Y227366D01*
X145373Y227328D01*
X145435Y227282D01*
X145495Y227259D01*
X145551Y227227D01*
X145626Y227209D01*
X145699Y227182D01*
X145763Y227177D01*
X145825Y227162D01*
X145903Y227166D01*
X145980Y227160D01*
X146043Y227173D01*
G37*
G36*
X196843Y227173D02*
X196843Y227173D01*
X196907Y227177D01*
X196980Y227202D01*
X197056Y227218D01*
X197113Y227248D01*
X197173Y227269D01*
X197230Y227311D01*
X197305Y227350D01*
X197366Y227410D01*
X197422Y227451D01*
X197839Y227868D01*
X199796Y227868D01*
X199859Y227877D01*
X199924Y227876D01*
X199998Y227897D01*
X200075Y227908D01*
X200133Y227934D01*
X200195Y227951D01*
X200261Y227992D01*
X200332Y228024D01*
X200381Y228066D01*
X200435Y228100D01*
X200487Y228157D01*
X200546Y228207D01*
X200581Y228261D01*
X200624Y228309D01*
X200658Y228379D01*
X200701Y228443D01*
X200719Y228505D01*
X200747Y228563D01*
X200758Y228632D01*
X200783Y228713D01*
X200784Y228798D01*
X200795Y228867D01*
X200795Y234506D01*
X205687Y239398D01*
X205744Y239475D01*
X205809Y239546D01*
X205829Y239587D01*
X205856Y239623D01*
X205890Y239714D01*
X205932Y239800D01*
X205938Y239842D01*
X205955Y239887D01*
X205965Y240015D01*
X205979Y240104D01*
X205979Y249515D01*
X205963Y249632D01*
X205951Y249751D01*
X205943Y249772D01*
X205939Y249794D01*
X205891Y249902D01*
X205847Y250013D01*
X205833Y250031D01*
X205823Y250051D01*
X205746Y250141D01*
X205673Y250235D01*
X205655Y250248D01*
X205640Y250265D01*
X205540Y250331D01*
X205444Y250400D01*
X205423Y250407D01*
X205404Y250420D01*
X205290Y250455D01*
X205178Y250494D01*
X205156Y250496D01*
X205134Y250502D01*
X205015Y250504D01*
X204897Y250511D01*
X204876Y250506D01*
X204852Y250506D01*
X204756Y250479D01*
X202103Y250479D01*
X199706Y251472D01*
X197757Y253422D01*
X197705Y253460D01*
X197660Y253506D01*
X197593Y253545D01*
X197531Y253591D01*
X197471Y253614D01*
X197415Y253645D01*
X197340Y253663D01*
X197267Y253691D01*
X197203Y253695D01*
X197140Y253710D01*
X197063Y253706D01*
X196986Y253712D01*
X196923Y253699D01*
X196859Y253696D01*
X196786Y253671D01*
X196710Y253655D01*
X196653Y253625D01*
X196592Y253603D01*
X196536Y253562D01*
X196461Y253522D01*
X196400Y253463D01*
X196343Y253422D01*
X194394Y251472D01*
X191997Y250479D01*
X189290Y250479D01*
X189226Y250470D01*
X189162Y250471D01*
X189087Y250450D01*
X189011Y250439D01*
X188952Y250413D01*
X188890Y250396D01*
X188824Y250355D01*
X188754Y250323D01*
X188705Y250281D01*
X188650Y250248D01*
X188598Y250190D01*
X188540Y250140D01*
X188504Y250086D01*
X188461Y250038D01*
X188428Y249969D01*
X188385Y249904D01*
X188366Y249842D01*
X188338Y249785D01*
X188327Y249715D01*
X188303Y249634D01*
X188302Y249549D01*
X188291Y249480D01*
X188291Y240334D01*
X188304Y240240D01*
X188309Y240143D01*
X188324Y240100D01*
X188331Y240055D01*
X188370Y239968D01*
X188402Y239877D01*
X188427Y239842D01*
X188447Y239798D01*
X188530Y239701D01*
X188583Y239628D01*
X192636Y235575D01*
X192636Y228867D01*
X192645Y228804D01*
X192645Y228739D01*
X192665Y228665D01*
X192676Y228588D01*
X192703Y228530D01*
X192720Y228468D01*
X192761Y228402D01*
X192792Y228331D01*
X192834Y228282D01*
X192868Y228228D01*
X192925Y228176D01*
X192976Y228117D01*
X193030Y228082D01*
X193077Y228039D01*
X193147Y228005D01*
X193212Y227962D01*
X193273Y227944D01*
X193331Y227916D01*
X193400Y227905D01*
X193482Y227880D01*
X193566Y227879D01*
X193636Y227868D01*
X195592Y227868D01*
X196009Y227451D01*
X196060Y227412D01*
X196105Y227366D01*
X196173Y227328D01*
X196235Y227282D01*
X196295Y227259D01*
X196351Y227227D01*
X196426Y227209D01*
X196499Y227182D01*
X196563Y227177D01*
X196625Y227162D01*
X196703Y227166D01*
X196780Y227160D01*
X196843Y227173D01*
G37*
G36*
X171443Y227173D02*
X171443Y227173D01*
X171507Y227177D01*
X171580Y227202D01*
X171656Y227218D01*
X171713Y227248D01*
X171773Y227269D01*
X171830Y227311D01*
X171905Y227350D01*
X171966Y227410D01*
X172022Y227451D01*
X172439Y227868D01*
X174396Y227868D01*
X174459Y227877D01*
X174524Y227876D01*
X174598Y227897D01*
X174675Y227908D01*
X174733Y227934D01*
X174795Y227951D01*
X174861Y227992D01*
X174932Y228024D01*
X174981Y228066D01*
X175035Y228100D01*
X175087Y228157D01*
X175146Y228207D01*
X175181Y228261D01*
X175224Y228309D01*
X175258Y228379D01*
X175301Y228443D01*
X175319Y228505D01*
X175347Y228563D01*
X175358Y228632D01*
X175383Y228713D01*
X175384Y228798D01*
X175395Y228867D01*
X175395Y234856D01*
X180187Y239648D01*
X180244Y239725D01*
X180309Y239796D01*
X180329Y239837D01*
X180356Y239873D01*
X180390Y239964D01*
X180432Y240050D01*
X180438Y240092D01*
X180455Y240137D01*
X180465Y240265D01*
X180467Y240273D01*
X180467Y240276D01*
X180467Y240278D01*
X180479Y240354D01*
X180479Y249480D01*
X180471Y249539D01*
X180471Y249551D01*
X180470Y249553D01*
X180471Y249608D01*
X180450Y249683D01*
X180439Y249759D01*
X180413Y249818D01*
X180396Y249880D01*
X180355Y249946D01*
X180323Y250016D01*
X180281Y250065D01*
X180248Y250120D01*
X180190Y250172D01*
X180140Y250230D01*
X180086Y250266D01*
X180038Y250309D01*
X179969Y250342D01*
X179904Y250385D01*
X179842Y250404D01*
X179785Y250432D01*
X179715Y250443D01*
X179634Y250467D01*
X179549Y250468D01*
X179480Y250479D01*
X176703Y250479D01*
X174306Y251472D01*
X172357Y253422D01*
X172305Y253460D01*
X172260Y253506D01*
X172193Y253545D01*
X172131Y253591D01*
X172071Y253614D01*
X172015Y253645D01*
X171940Y253663D01*
X171867Y253691D01*
X171803Y253695D01*
X171741Y253710D01*
X171663Y253706D01*
X171586Y253712D01*
X171523Y253699D01*
X171459Y253696D01*
X171386Y253670D01*
X171310Y253655D01*
X171253Y253625D01*
X171192Y253603D01*
X171136Y253562D01*
X171061Y253522D01*
X171000Y253463D01*
X170943Y253422D01*
X168994Y251472D01*
X166597Y250479D01*
X164290Y250479D01*
X164226Y250470D01*
X164162Y250471D01*
X164087Y250450D01*
X164011Y250439D01*
X163952Y250413D01*
X163890Y250396D01*
X163824Y250355D01*
X163754Y250323D01*
X163705Y250281D01*
X163650Y250248D01*
X163598Y250190D01*
X163540Y250140D01*
X163504Y250086D01*
X163461Y250038D01*
X163428Y249969D01*
X163385Y249904D01*
X163366Y249842D01*
X163338Y249785D01*
X163327Y249715D01*
X163303Y249634D01*
X163302Y249549D01*
X163291Y249480D01*
X163291Y239334D01*
X163304Y239240D01*
X163309Y239143D01*
X163324Y239100D01*
X163331Y239055D01*
X163370Y238968D01*
X163402Y238877D01*
X163427Y238842D01*
X163447Y238798D01*
X163530Y238701D01*
X163583Y238628D01*
X167236Y234975D01*
X167236Y228867D01*
X167245Y228804D01*
X167245Y228739D01*
X167265Y228665D01*
X167276Y228588D01*
X167303Y228530D01*
X167320Y228468D01*
X167361Y228402D01*
X167392Y228331D01*
X167434Y228282D01*
X167468Y228228D01*
X167525Y228176D01*
X167576Y228117D01*
X167630Y228082D01*
X167677Y228039D01*
X167747Y228005D01*
X167812Y227962D01*
X167873Y227944D01*
X167931Y227916D01*
X168000Y227905D01*
X168082Y227880D01*
X168166Y227879D01*
X168236Y227868D01*
X170192Y227868D01*
X170609Y227451D01*
X170660Y227412D01*
X170705Y227366D01*
X170773Y227328D01*
X170835Y227282D01*
X170895Y227259D01*
X170951Y227227D01*
X171026Y227209D01*
X171099Y227182D01*
X171163Y227177D01*
X171225Y227162D01*
X171303Y227166D01*
X171380Y227160D01*
X171443Y227173D01*
G37*
%LPC*%
G36*
X302474Y210729D02*
X302474Y210729D01*
X301729Y211474D01*
X301729Y220526D01*
X302474Y221271D01*
X309730Y221271D01*
X309794Y221280D01*
X309858Y221279D01*
X309933Y221300D01*
X310009Y221311D01*
X310068Y221337D01*
X310130Y221354D01*
X310196Y221395D01*
X310266Y221427D01*
X310315Y221469D01*
X310370Y221502D01*
X310422Y221560D01*
X310480Y221610D01*
X310516Y221664D01*
X310559Y221712D01*
X310592Y221781D01*
X310635Y221846D01*
X310654Y221908D01*
X310682Y221965D01*
X310693Y222035D01*
X310717Y222116D01*
X310718Y222201D01*
X310729Y222270D01*
X310729Y223855D01*
X310716Y223950D01*
X310711Y224046D01*
X310696Y224089D01*
X310689Y224134D01*
X310650Y224222D01*
X310618Y224313D01*
X310593Y224347D01*
X310573Y224391D01*
X310490Y224489D01*
X310437Y224562D01*
X309463Y225535D01*
X309463Y228465D01*
X311535Y230537D01*
X314465Y230537D01*
X316537Y228465D01*
X316537Y225535D01*
X315563Y224562D01*
X315506Y224485D01*
X315441Y224413D01*
X315421Y224373D01*
X315394Y224336D01*
X315360Y224246D01*
X315318Y224160D01*
X315312Y224118D01*
X315295Y224072D01*
X315285Y223945D01*
X315271Y223855D01*
X315271Y222270D01*
X315280Y222206D01*
X315279Y222142D01*
X315300Y222067D01*
X315311Y221991D01*
X315337Y221932D01*
X315354Y221870D01*
X315395Y221804D01*
X315427Y221734D01*
X315469Y221685D01*
X315502Y221630D01*
X315560Y221578D01*
X315610Y221520D01*
X315664Y221484D01*
X315712Y221441D01*
X315781Y221408D01*
X315846Y221365D01*
X315908Y221346D01*
X315965Y221318D01*
X316035Y221307D01*
X316116Y221283D01*
X316201Y221282D01*
X316270Y221271D01*
X323526Y221271D01*
X324271Y220526D01*
X324271Y211474D01*
X323526Y210729D01*
X302474Y210729D01*
G37*
%LPD*%
%LPC*%
G36*
X17535Y237463D02*
X17535Y237463D01*
X15463Y239535D01*
X15463Y242546D01*
X15470Y242556D01*
X15502Y242661D01*
X15541Y242763D01*
X15543Y242795D01*
X15552Y242826D01*
X15554Y242935D01*
X15562Y243044D01*
X15556Y243076D01*
X15556Y243108D01*
X15527Y243213D01*
X15505Y243320D01*
X15490Y243348D01*
X15481Y243380D01*
X15424Y243473D01*
X15372Y243569D01*
X15350Y243592D01*
X15333Y243620D01*
X15252Y243693D01*
X15176Y243771D01*
X15148Y243787D01*
X15124Y243809D01*
X15025Y243856D01*
X14930Y243910D01*
X14899Y243918D01*
X14870Y243932D01*
X14780Y243946D01*
X14656Y243975D01*
X14607Y243973D01*
X14565Y243979D01*
X11974Y243979D01*
X11229Y244724D01*
X11229Y257776D01*
X11974Y258521D01*
X25026Y258521D01*
X25771Y257776D01*
X25771Y244724D01*
X25026Y243979D01*
X23435Y243979D01*
X23403Y243975D01*
X23371Y243977D01*
X23264Y243955D01*
X23156Y243939D01*
X23126Y243926D01*
X23095Y243920D01*
X22998Y243868D01*
X22899Y243823D01*
X22874Y243802D01*
X22846Y243787D01*
X22767Y243711D01*
X22684Y243640D01*
X22667Y243613D01*
X22644Y243590D01*
X22590Y243495D01*
X22530Y243404D01*
X22520Y243373D01*
X22505Y243345D01*
X22479Y243238D01*
X22448Y243134D01*
X22447Y243102D01*
X22440Y243070D01*
X22445Y242961D01*
X22444Y242852D01*
X22452Y242821D01*
X22454Y242789D01*
X22490Y242686D01*
X22519Y242580D01*
X22536Y242553D01*
X22537Y242551D01*
X22537Y239535D01*
X20465Y237463D01*
X17535Y237463D01*
G37*
%LPD*%
%LPC*%
G36*
X201535Y85463D02*
X201535Y85463D01*
X199463Y87535D01*
X199463Y90465D01*
X201535Y92537D01*
X204465Y92537D01*
X205438Y91563D01*
X205515Y91506D01*
X205587Y91441D01*
X205627Y91421D01*
X205664Y91394D01*
X205754Y91360D01*
X205840Y91318D01*
X205882Y91312D01*
X205928Y91295D01*
X206055Y91285D01*
X206145Y91271D01*
X237855Y91271D01*
X237950Y91284D01*
X238046Y91289D01*
X238089Y91304D01*
X238134Y91311D01*
X238222Y91350D01*
X238313Y91382D01*
X238347Y91407D01*
X238391Y91427D01*
X238489Y91510D01*
X238562Y91563D01*
X239535Y92537D01*
X242465Y92537D01*
X244537Y90465D01*
X244537Y87535D01*
X242465Y85463D01*
X239535Y85463D01*
X238562Y86437D01*
X238485Y86494D01*
X238413Y86559D01*
X238373Y86579D01*
X238336Y86606D01*
X238246Y86640D01*
X238160Y86682D01*
X238118Y86688D01*
X238072Y86705D01*
X237945Y86715D01*
X237855Y86729D01*
X206145Y86729D01*
X206050Y86716D01*
X205954Y86711D01*
X205911Y86696D01*
X205866Y86689D01*
X205778Y86650D01*
X205687Y86618D01*
X205653Y86593D01*
X205609Y86573D01*
X205511Y86490D01*
X205438Y86437D01*
X204465Y85463D01*
X201535Y85463D01*
G37*
%LPD*%
D10*
X241166Y54407D03*
X228466Y54407D03*
X215766Y54407D03*
X203066Y54407D03*
X190366Y54407D03*
X177666Y54407D03*
X164966Y54407D03*
X152266Y54407D03*
X139566Y54407D03*
X126866Y54407D03*
X114166Y54407D03*
X101466Y54407D03*
X88766Y54407D03*
D11*
X245678Y210785D02*
X245678Y226409D01*
X245678Y210785D02*
X236654Y210785D01*
X236654Y226409D01*
X245678Y226409D01*
X245678Y211142D02*
X236654Y211142D01*
X236654Y211499D02*
X245678Y211499D01*
X245678Y211856D02*
X236654Y211856D01*
X236654Y212213D02*
X245678Y212213D01*
X245678Y212570D02*
X236654Y212570D01*
X236654Y212927D02*
X245678Y212927D01*
X245678Y213284D02*
X236654Y213284D01*
X236654Y213641D02*
X245678Y213641D01*
X245678Y213998D02*
X236654Y213998D01*
X236654Y214355D02*
X245678Y214355D01*
X245678Y214712D02*
X236654Y214712D01*
X236654Y215069D02*
X245678Y215069D01*
X245678Y215426D02*
X236654Y215426D01*
X236654Y215783D02*
X245678Y215783D01*
X245678Y216140D02*
X236654Y216140D01*
X236654Y216497D02*
X245678Y216497D01*
X245678Y216854D02*
X236654Y216854D01*
X236654Y217211D02*
X245678Y217211D01*
X245678Y217568D02*
X236654Y217568D01*
X236654Y217925D02*
X245678Y217925D01*
X245678Y218282D02*
X236654Y218282D01*
X236654Y218639D02*
X245678Y218639D01*
X245678Y218996D02*
X236654Y218996D01*
X236654Y219353D02*
X245678Y219353D01*
X245678Y219710D02*
X236654Y219710D01*
X236654Y220067D02*
X245678Y220067D01*
X245678Y220424D02*
X236654Y220424D01*
X236654Y220781D02*
X245678Y220781D01*
X245678Y221138D02*
X236654Y221138D01*
X236654Y221495D02*
X245678Y221495D01*
X245678Y221852D02*
X236654Y221852D01*
X236654Y222209D02*
X245678Y222209D01*
X245678Y222566D02*
X236654Y222566D01*
X236654Y222923D02*
X245678Y222923D01*
X245678Y223280D02*
X236654Y223280D01*
X236654Y223637D02*
X245678Y223637D01*
X245678Y223994D02*
X236654Y223994D01*
X236654Y224351D02*
X245678Y224351D01*
X245678Y224708D02*
X236654Y224708D01*
X236654Y225065D02*
X245678Y225065D01*
X245678Y225422D02*
X236654Y225422D01*
X236654Y225779D02*
X245678Y225779D01*
X245678Y226136D02*
X236654Y226136D01*
D10*
X228466Y218597D03*
X215766Y218597D03*
X203066Y218597D03*
X190366Y218597D03*
X177666Y218597D03*
X164966Y218597D03*
X152266Y218597D03*
X139566Y218597D03*
X126866Y218597D03*
X114166Y218597D03*
X101466Y218597D03*
X88766Y218597D03*
X35166Y218597D03*
X22466Y218597D03*
X76066Y54407D03*
X76066Y218597D03*
D12*
X506000Y201000D03*
X506000Y74000D03*
D13*
X16500Y37250D03*
X16500Y27250D03*
X16500Y17250D03*
X41500Y37250D03*
X41500Y27250D03*
X41500Y17250D03*
D14*
X29127Y27266D03*
D15*
X439600Y238000D03*
X503000Y238000D03*
D16*
X516750Y123750D03*
X493750Y123750D03*
D17*
X497000Y143750D03*
X516000Y143750D03*
D18*
X481500Y69750D03*
X481500Y88750D03*
D19*
X459000Y87750D03*
X459000Y70750D03*
D20*
X517750Y143750D03*
X521500Y191250D03*
D21*
X315750Y27000D03*
X356750Y27000D03*
D17*
X399250Y28000D03*
X380250Y28000D03*
X77250Y251250D03*
X58250Y251250D03*
D22*
X39500Y251250D03*
X18500Y251250D03*
D23*
X64250Y27500D03*
X81250Y27500D03*
D24*
X456700Y22400D03*
X471050Y22450D03*
X485350Y22300D03*
X499600Y22450D03*
X514000Y22500D03*
X442150Y22500D03*
D25*
X190700Y257000D03*
X203400Y257000D03*
X216100Y257000D03*
X228800Y257000D03*
X241500Y257000D03*
X178000Y257000D03*
X165300Y257000D03*
X152600Y257000D03*
X139900Y257000D03*
X127200Y257000D03*
X114500Y257000D03*
X101800Y257000D03*
D23*
X478500Y201000D03*
X461500Y201000D03*
D26*
X386000Y216000D03*
X386000Y258000D03*
X313000Y216000D03*
X313000Y258000D03*
D27*
X198250Y35750D03*
X198250Y29250D03*
X198250Y22750D03*
X198250Y16250D03*
X241750Y16250D03*
X241750Y22750D03*
X241750Y29250D03*
X241750Y35750D03*
D23*
X262500Y26000D03*
X279500Y26000D03*
D28*
X516750Y123750D02*
X518500Y125500D01*
D29*
X516750Y143000D02*
X516000Y143750D01*
X517750Y143750D01*
D30*
X516000Y143750D02*
X542750Y143750D01*
X542750Y123750D01*
X516750Y123750D01*
D29*
X521500Y191250D02*
X537750Y191250D01*
D31*
X299000Y113750D03*
X314000Y113750D03*
X331500Y113750D03*
X349000Y113750D03*
X367750Y113750D03*
X382750Y113750D03*
X399000Y113750D03*
X415250Y113750D03*
X436500Y113750D03*
X282750Y115000D03*
X270250Y123750D03*
X265250Y138750D03*
X270250Y155000D03*
X282750Y163750D03*
X299000Y163750D03*
X314000Y163750D03*
X332750Y163750D03*
X349000Y163750D03*
X364000Y163750D03*
X384000Y163750D03*
X399000Y163750D03*
X416500Y163750D03*
X432750Y163750D03*
X449000Y163750D03*
X466500Y162500D03*
X480250Y152500D03*
X484000Y137500D03*
X475250Y120000D03*
X455250Y115000D03*
X282750Y183750D03*
X314000Y183750D03*
X332750Y183750D03*
X347750Y183750D03*
X364000Y183750D03*
X384000Y183750D03*
X399000Y183750D03*
X416500Y183750D03*
X431500Y183750D03*
X449000Y183750D03*
X12750Y63000D03*
X12750Y75750D03*
X12750Y88750D03*
X12750Y105000D03*
X12750Y121250D03*
X12750Y137500D03*
X12750Y153750D03*
X12750Y170000D03*
X12750Y186250D03*
X12750Y201250D03*
X12750Y217500D03*
X12750Y232500D03*
X251250Y40750D03*
X61750Y49750D03*
X299000Y93750D03*
X314000Y93750D03*
X331500Y93750D03*
X349000Y93750D03*
X367750Y93750D03*
X382750Y93750D03*
X399000Y93750D03*
X415250Y93750D03*
X436500Y93750D03*
D32*
X514200Y22600D03*
D31*
X286000Y93750D03*
X270000Y93750D03*
X258000Y106750D03*
X247000Y116750D03*
X218000Y144750D03*
X208000Y155750D03*
X198000Y165750D03*
X185000Y177750D03*
X175000Y186750D03*
X161000Y186750D03*
X145000Y186750D03*
X129000Y186750D03*
X113000Y186750D03*
X78000Y204750D03*
X207000Y189750D03*
X198000Y198750D03*
X181000Y204750D03*
X151000Y204750D03*
X134000Y204750D03*
X115000Y204750D03*
X217000Y179750D03*
X240000Y154750D03*
X252000Y142750D03*
X239000Y124750D03*
X167000Y204750D03*
X100000Y186750D03*
X88000Y194750D03*
X266750Y183750D03*
X468000Y183750D03*
X487000Y183750D03*
X501000Y173750D03*
D29*
X510000Y78000D02*
X506000Y74000D01*
X510000Y78000D02*
X539000Y78000D01*
D31*
X122000Y248750D03*
X122000Y238750D03*
X147000Y248750D03*
X147000Y238750D03*
X172000Y248750D03*
X197000Y248750D03*
X172000Y239750D03*
X197000Y239750D03*
X220000Y248750D03*
X197000Y230750D03*
X172000Y230750D03*
X147000Y230750D03*
X122000Y230750D03*
X94000Y248750D03*
X94000Y230750D03*
X255000Y254750D03*
X269000Y254750D03*
X285000Y254750D03*
X220000Y239750D03*
X414000Y16750D03*
X432000Y16750D03*
X102000Y204750D03*
X94000Y239750D03*
X119750Y128750D03*
X119750Y110750D03*
X119750Y77750D03*
X100750Y77750D03*
D28*
X16516Y27266D02*
X16500Y27250D01*
X16516Y27266D02*
X29127Y27266D01*
X16500Y27250D02*
X10750Y27250D01*
X9000Y29000D01*
X9000Y59250D01*
X12750Y63000D01*
X497000Y143750D02*
X497750Y144500D01*
X497750Y160000D01*
X484000Y173750D01*
X241166Y195334D02*
X241166Y218597D01*
X262750Y173750D02*
X484000Y173750D01*
X262750Y173750D02*
X241166Y195334D01*
D31*
X228000Y35750D03*
D33*
X228466Y36216D02*
X228466Y54407D01*
X228466Y36216D02*
X228000Y35750D01*
D29*
X64250Y27500D02*
X64000Y27750D01*
X64000Y42500D01*
D31*
X64000Y42500D03*
D34*
X499600Y33400D02*
X499600Y22450D01*
X499600Y33400D02*
X499000Y34000D01*
D35*
X499000Y34000D03*
D32*
X499600Y22500D03*
D36*
X499600Y22450D01*
D33*
X504000Y237000D02*
X503000Y238000D01*
X503000Y204000D01*
X506000Y201000D01*
X478500Y201000D01*
D37*
X241750Y35750D02*
X228000Y35750D01*
D29*
X241750Y35750D02*
X252750Y35750D01*
X262500Y26000D01*
X64000Y27250D02*
X41500Y27250D01*
X64000Y27250D02*
X64250Y27500D01*
D28*
X101000Y54873D02*
X101466Y54407D01*
X101000Y54873D02*
X101000Y68000D01*
D31*
X101000Y68000D03*
X157000Y26000D03*
X296000Y20000D03*
D28*
X303000Y27000D02*
X315750Y27000D01*
X303000Y27000D02*
X296000Y20000D01*
D29*
X152266Y30734D02*
X152266Y54407D01*
X152266Y30734D02*
X157000Y26000D01*
D30*
X456700Y26300D02*
X456700Y22400D01*
X210556Y71556D02*
X203000Y64000D01*
X203000Y54473D01*
X203066Y54407D01*
X411444Y71556D02*
X456700Y26300D01*
X411444Y71556D02*
X210556Y71556D01*
D32*
X456600Y22400D03*
D36*
X456700Y22400D01*
D28*
X215766Y218597D02*
X215766Y235234D01*
X211750Y239250D01*
X211750Y252650D01*
X216100Y257000D01*
X76066Y54407D02*
X50407Y54407D01*
X41500Y45500D02*
X41500Y37250D01*
X41500Y45500D02*
X50407Y54407D01*
D29*
X88766Y54407D02*
X89000Y54642D01*
D28*
X16500Y42500D02*
X16500Y37250D01*
X16500Y42500D02*
X21000Y47000D01*
X38000Y47000D01*
X88766Y54407D02*
X88766Y64234D01*
X59000Y68000D02*
X38000Y47000D01*
X59000Y68000D02*
X85000Y68000D01*
X88766Y64234D01*
D29*
X58250Y251250D02*
X39500Y251250D01*
D28*
X114166Y66834D02*
X114166Y54407D01*
X114166Y66834D02*
X114000Y67000D01*
D31*
X114000Y67000D03*
D28*
X139566Y66434D02*
X139566Y54407D01*
X130136Y75864D02*
X130136Y91489D01*
X113355Y108270D02*
X96270Y108270D01*
X87000Y99000D01*
X87000Y85000D01*
X130136Y75864D02*
X139566Y66434D01*
X130136Y91489D02*
X113355Y108270D01*
D31*
X87000Y85000D03*
D30*
X442150Y35500D02*
X442150Y22500D01*
X442150Y35500D02*
X409650Y68000D01*
X215766Y63766D02*
X215766Y54407D01*
X220000Y68000D02*
X409650Y68000D01*
X220000Y68000D02*
X215766Y63766D01*
D32*
X442100Y22500D03*
D29*
X442150Y22500D01*
D30*
X485350Y22300D02*
X485350Y29650D01*
X474444Y40556D02*
X452502Y40556D01*
X414058Y79000D01*
X164966Y65966D02*
X164966Y54407D01*
X474444Y40556D02*
X485350Y29650D01*
X414058Y79000D02*
X178000Y79000D01*
X164966Y65966D01*
D32*
X485300Y22300D03*
D36*
X485350Y22300D01*
D30*
X471050Y22450D02*
X471050Y27950D01*
X462000Y37000D02*
X451029Y37000D01*
X177666Y54407D02*
X177666Y64666D01*
X462000Y37000D02*
X471050Y27950D01*
X451029Y37000D02*
X412917Y75112D01*
X188112Y75112D01*
X177666Y64666D01*
D32*
X471100Y22300D03*
D36*
X471050Y22350D01*
X471050Y22450D01*
D28*
X76066Y218597D02*
X76000Y218663D01*
X76000Y232000D01*
D30*
X379250Y27000D02*
X380250Y28000D01*
X379250Y27000D02*
X356750Y27000D01*
D31*
X76000Y232000D03*
X380000Y16000D03*
D28*
X380250Y16250D02*
X380250Y28000D01*
X380250Y16250D02*
X380000Y16000D01*
X480500Y87750D02*
X481500Y88750D01*
X480500Y87750D02*
X459000Y87750D01*
X481500Y88750D02*
X481500Y121500D01*
X484000Y124000D01*
X493500Y124000D01*
X493750Y123750D01*
X459000Y99000D02*
X459000Y87750D01*
X459000Y99000D02*
X454000Y104000D01*
X182000Y198000D02*
X98000Y198000D01*
X89000Y207000D01*
X89000Y218363D02*
X88766Y218597D01*
X276000Y104000D02*
X454000Y104000D01*
X276000Y104000D02*
X182000Y198000D01*
X89000Y207000D02*
X89000Y218363D01*
X101466Y218597D02*
X101466Y234466D01*
X106300Y239300D01*
X18500Y241500D02*
X18500Y251250D01*
X18500Y241500D02*
X19000Y241000D01*
D31*
X19000Y241000D03*
D28*
X106300Y239300D02*
X106300Y252500D01*
X101800Y257000D01*
D30*
X114166Y234834D02*
X114166Y218597D01*
X114166Y234834D02*
X110000Y239000D01*
D28*
X110000Y252500D01*
X114500Y257000D01*
D30*
X126866Y230866D02*
X126866Y218597D01*
X126866Y230866D02*
X132000Y236000D01*
D28*
X132000Y252200D01*
X127200Y257000D01*
D30*
X139566Y232434D02*
X139566Y218597D01*
X139566Y232434D02*
X136000Y236000D01*
D28*
X136000Y253100D01*
X139900Y257000D01*
X152266Y233016D02*
X152266Y218597D01*
X152266Y233016D02*
X157500Y238250D01*
X157500Y252100D01*
X152600Y257000D01*
X164966Y234034D02*
X164966Y218597D01*
X164966Y234034D02*
X161020Y237980D01*
X161020Y252720D01*
X165300Y257000D01*
X177666Y233916D02*
X177666Y218597D01*
X177666Y233916D02*
X182750Y239000D01*
X182750Y252250D01*
X178000Y257000D01*
X190366Y234634D02*
X190366Y218597D01*
X190366Y234634D02*
X186020Y238980D01*
X186020Y252320D01*
X190700Y257000D01*
X198250Y41250D02*
X198250Y35750D01*
X198250Y41250D02*
X199000Y42000D01*
D31*
X199000Y42000D03*
D28*
X191000Y217963D02*
X190366Y218597D01*
X191000Y217963D02*
X191000Y207000D01*
D31*
X191000Y207000D03*
D28*
X203066Y218597D02*
X203066Y233566D01*
X208250Y238750D01*
X208250Y252150D01*
X203400Y257000D01*
X228466Y234466D02*
X228466Y218597D01*
X228466Y234466D02*
X239000Y245000D01*
X374000Y245000D02*
X386000Y233000D01*
X386000Y216000D01*
X374000Y245000D02*
X239000Y245000D01*
X313000Y227000D02*
X313000Y216000D01*
D31*
X313000Y227000D03*
X241000Y89000D03*
D28*
X190366Y65366D02*
X190366Y54407D01*
X190366Y65366D02*
X193000Y68000D01*
D31*
X193000Y68000D03*
X203000Y89000D03*
D28*
X241000Y89000D01*
X126866Y90134D02*
X126866Y54407D01*
X126866Y90134D02*
X114000Y103000D01*
X104000Y103000D01*
D31*
X104000Y103000D03*
M02*
