G04 EAGLE Gerber RS-274X export*
G75*
%MOMM*%
%FSLAX34Y34*%
%LPD*%
%INSilkscreen Top*%
%IPPOS*%
%AMOC8*
5,1,8,0,0,1.08239X$1,22.5*%
G01*
%ADD10C,0.685800*%
%ADD11C,0.457200*%
%ADD12C,0.152400*%
%ADD13C,0.127000*%
%ADD14C,0.330200*%
%ADD15C,0.228600*%
%ADD16C,0.200000*%
%ADD17C,0.101600*%
%ADD18C,0.203200*%
%ADD19C,0.300000*%
%ADD20C,0.076200*%
%ADD21C,0.254000*%
%ADD22R,0.300000X2.100000*%
%ADD23R,0.300000X0.150000*%
%ADD24R,0.300000X0.300000*%


D10*
X571596Y86993D02*
X540354Y86993D01*
X540354Y95671D01*
X540357Y95882D01*
X540364Y96094D01*
X540377Y96304D01*
X540395Y96515D01*
X540418Y96725D01*
X540446Y96935D01*
X540480Y97143D01*
X540518Y97351D01*
X540562Y97558D01*
X540610Y97764D01*
X540664Y97968D01*
X540722Y98171D01*
X540785Y98373D01*
X540854Y98573D01*
X540927Y98771D01*
X541005Y98968D01*
X541087Y99162D01*
X541175Y99354D01*
X541267Y99545D01*
X541363Y99733D01*
X541464Y99918D01*
X541570Y100101D01*
X541680Y100282D01*
X541795Y100459D01*
X541913Y100634D01*
X542036Y100806D01*
X542163Y100975D01*
X542295Y101140D01*
X542430Y101303D01*
X542569Y101462D01*
X542712Y101618D01*
X542858Y101770D01*
X543009Y101918D01*
X543163Y102063D01*
X543320Y102204D01*
X543481Y102341D01*
X543645Y102475D01*
X543812Y102604D01*
X543983Y102729D01*
X544156Y102850D01*
X544332Y102966D01*
X544511Y103078D01*
X544693Y103186D01*
X544877Y103290D01*
X545064Y103389D01*
X545253Y103483D01*
X545445Y103573D01*
X545638Y103658D01*
X545833Y103738D01*
X546031Y103814D01*
X546230Y103884D01*
X546431Y103950D01*
X546633Y104011D01*
X546837Y104067D01*
X547042Y104118D01*
X547248Y104164D01*
X547456Y104205D01*
X547664Y104241D01*
X547873Y104271D01*
X548083Y104297D01*
X548293Y104317D01*
X548504Y104333D01*
X548715Y104343D01*
X548926Y104348D01*
X549138Y104348D01*
X549349Y104343D01*
X549560Y104333D01*
X549771Y104317D01*
X549981Y104297D01*
X550191Y104271D01*
X550400Y104241D01*
X550608Y104205D01*
X550816Y104164D01*
X551022Y104118D01*
X551227Y104067D01*
X551431Y104011D01*
X551633Y103950D01*
X551834Y103884D01*
X552033Y103814D01*
X552231Y103738D01*
X552426Y103658D01*
X552619Y103573D01*
X552811Y103483D01*
X553000Y103389D01*
X553187Y103290D01*
X553371Y103186D01*
X553553Y103078D01*
X553732Y102966D01*
X553908Y102850D01*
X554081Y102729D01*
X554252Y102604D01*
X554419Y102475D01*
X554583Y102341D01*
X554744Y102204D01*
X554901Y102063D01*
X555055Y101918D01*
X555206Y101770D01*
X555352Y101618D01*
X555495Y101462D01*
X555634Y101303D01*
X555769Y101140D01*
X555901Y100975D01*
X556028Y100806D01*
X556151Y100634D01*
X556269Y100459D01*
X556384Y100282D01*
X556494Y100101D01*
X556600Y99918D01*
X556701Y99733D01*
X556797Y99545D01*
X556889Y99354D01*
X556977Y99162D01*
X557059Y98968D01*
X557137Y98771D01*
X557210Y98573D01*
X557279Y98373D01*
X557342Y98171D01*
X557400Y97968D01*
X557454Y97764D01*
X557502Y97558D01*
X557546Y97351D01*
X557584Y97143D01*
X557618Y96935D01*
X557646Y96725D01*
X557669Y96515D01*
X557687Y96304D01*
X557700Y96094D01*
X557707Y95882D01*
X557710Y95671D01*
X557711Y95671D02*
X557711Y86993D01*
X571596Y121106D02*
X540354Y121106D01*
X540354Y112428D02*
X540354Y129784D01*
X540354Y137362D02*
X571596Y147776D01*
X540354Y158190D01*
X549032Y167673D02*
X562918Y167673D01*
X549032Y167673D02*
X548821Y167676D01*
X548609Y167683D01*
X548399Y167696D01*
X548188Y167714D01*
X547978Y167737D01*
X547768Y167765D01*
X547560Y167799D01*
X547352Y167837D01*
X547145Y167881D01*
X546939Y167929D01*
X546735Y167983D01*
X546532Y168041D01*
X546330Y168104D01*
X546130Y168173D01*
X545932Y168246D01*
X545735Y168324D01*
X545541Y168406D01*
X545349Y168494D01*
X545158Y168586D01*
X544970Y168682D01*
X544785Y168783D01*
X544602Y168889D01*
X544421Y168999D01*
X544244Y169114D01*
X544069Y169232D01*
X543897Y169355D01*
X543728Y169482D01*
X543563Y169614D01*
X543400Y169749D01*
X543241Y169888D01*
X543085Y170031D01*
X542933Y170177D01*
X542785Y170328D01*
X542640Y170482D01*
X542499Y170639D01*
X542362Y170800D01*
X542228Y170964D01*
X542099Y171131D01*
X541974Y171302D01*
X541853Y171475D01*
X541737Y171651D01*
X541625Y171830D01*
X541517Y172012D01*
X541413Y172196D01*
X541314Y172383D01*
X541220Y172572D01*
X541130Y172764D01*
X541045Y172957D01*
X540965Y173152D01*
X540889Y173350D01*
X540819Y173549D01*
X540753Y173750D01*
X540692Y173952D01*
X540636Y174156D01*
X540585Y174361D01*
X540539Y174567D01*
X540498Y174775D01*
X540462Y174983D01*
X540432Y175192D01*
X540406Y175402D01*
X540386Y175612D01*
X540370Y175823D01*
X540360Y176034D01*
X540355Y176245D01*
X540355Y176457D01*
X540360Y176668D01*
X540370Y176879D01*
X540386Y177090D01*
X540406Y177300D01*
X540432Y177510D01*
X540462Y177719D01*
X540498Y177927D01*
X540539Y178135D01*
X540585Y178341D01*
X540636Y178546D01*
X540692Y178750D01*
X540753Y178952D01*
X540819Y179153D01*
X540889Y179352D01*
X540965Y179550D01*
X541045Y179745D01*
X541130Y179938D01*
X541220Y180130D01*
X541314Y180319D01*
X541413Y180506D01*
X541517Y180690D01*
X541625Y180872D01*
X541737Y181051D01*
X541853Y181227D01*
X541974Y181400D01*
X542099Y181571D01*
X542228Y181738D01*
X542362Y181902D01*
X542499Y182063D01*
X542640Y182220D01*
X542785Y182374D01*
X542933Y182525D01*
X543085Y182671D01*
X543241Y182814D01*
X543400Y182953D01*
X543563Y183088D01*
X543728Y183220D01*
X543897Y183347D01*
X544069Y183470D01*
X544244Y183588D01*
X544421Y183703D01*
X544602Y183813D01*
X544785Y183919D01*
X544970Y184020D01*
X545158Y184116D01*
X545349Y184208D01*
X545541Y184296D01*
X545735Y184378D01*
X545932Y184456D01*
X546130Y184529D01*
X546330Y184598D01*
X546532Y184661D01*
X546735Y184719D01*
X546939Y184773D01*
X547145Y184821D01*
X547352Y184865D01*
X547560Y184903D01*
X547768Y184937D01*
X547978Y184965D01*
X548188Y184988D01*
X548399Y185006D01*
X548609Y185019D01*
X548821Y185026D01*
X549032Y185029D01*
X562918Y185029D01*
X563129Y185026D01*
X563341Y185019D01*
X563551Y185006D01*
X563762Y184988D01*
X563972Y184965D01*
X564182Y184937D01*
X564390Y184903D01*
X564598Y184865D01*
X564805Y184821D01*
X565011Y184773D01*
X565215Y184719D01*
X565418Y184661D01*
X565620Y184598D01*
X565820Y184529D01*
X566018Y184456D01*
X566215Y184378D01*
X566409Y184296D01*
X566601Y184208D01*
X566792Y184116D01*
X566980Y184020D01*
X567165Y183919D01*
X567348Y183813D01*
X567529Y183703D01*
X567706Y183588D01*
X567881Y183470D01*
X568053Y183347D01*
X568222Y183220D01*
X568387Y183088D01*
X568550Y182953D01*
X568709Y182814D01*
X568865Y182671D01*
X569017Y182525D01*
X569165Y182374D01*
X569310Y182220D01*
X569451Y182063D01*
X569588Y181902D01*
X569722Y181738D01*
X569851Y181571D01*
X569976Y181400D01*
X570097Y181227D01*
X570213Y181051D01*
X570325Y180872D01*
X570433Y180690D01*
X570537Y180506D01*
X570636Y180319D01*
X570730Y180130D01*
X570820Y179938D01*
X570905Y179745D01*
X570985Y179550D01*
X571061Y179352D01*
X571131Y179153D01*
X571197Y178952D01*
X571258Y178750D01*
X571314Y178546D01*
X571365Y178341D01*
X571411Y178135D01*
X571452Y177927D01*
X571488Y177719D01*
X571518Y177510D01*
X571544Y177300D01*
X571564Y177090D01*
X571580Y176879D01*
X571590Y176668D01*
X571595Y176457D01*
X571595Y176245D01*
X571590Y176034D01*
X571580Y175823D01*
X571564Y175612D01*
X571544Y175402D01*
X571518Y175192D01*
X571488Y174983D01*
X571452Y174775D01*
X571411Y174567D01*
X571365Y174361D01*
X571314Y174156D01*
X571258Y173952D01*
X571197Y173750D01*
X571131Y173549D01*
X571061Y173350D01*
X570985Y173152D01*
X570905Y172957D01*
X570820Y172764D01*
X570730Y172572D01*
X570636Y172383D01*
X570537Y172196D01*
X570433Y172012D01*
X570325Y171830D01*
X570213Y171651D01*
X570097Y171475D01*
X569976Y171302D01*
X569851Y171131D01*
X569722Y170964D01*
X569588Y170800D01*
X569451Y170639D01*
X569310Y170482D01*
X569165Y170328D01*
X569017Y170177D01*
X568865Y170031D01*
X568709Y169888D01*
X568550Y169749D01*
X568387Y169614D01*
X568222Y169482D01*
X568053Y169355D01*
X567881Y169232D01*
X567706Y169114D01*
X567529Y168999D01*
X567348Y168889D01*
X567165Y168783D01*
X566980Y168682D01*
X566792Y168586D01*
X566601Y168494D01*
X566409Y168406D01*
X566215Y168324D01*
X566018Y168246D01*
X565820Y168173D01*
X565620Y168104D01*
X565418Y168041D01*
X565215Y167983D01*
X565011Y167929D01*
X564805Y167881D01*
X564598Y167837D01*
X564390Y167799D01*
X564182Y167765D01*
X563972Y167737D01*
X563762Y167714D01*
X563551Y167696D01*
X563341Y167683D01*
X563129Y167676D01*
X562918Y167673D01*
D11*
X579411Y87100D02*
X600239Y87100D01*
X579411Y87100D02*
X579411Y96356D01*
X588668Y96356D02*
X588668Y87100D01*
X596768Y104423D02*
X579411Y104423D01*
X596768Y104423D02*
X596884Y104425D01*
X597000Y104431D01*
X597115Y104440D01*
X597231Y104454D01*
X597345Y104471D01*
X597459Y104493D01*
X597573Y104518D01*
X597685Y104546D01*
X597796Y104579D01*
X597907Y104615D01*
X598016Y104655D01*
X598123Y104698D01*
X598229Y104745D01*
X598333Y104796D01*
X598436Y104850D01*
X598537Y104908D01*
X598636Y104968D01*
X598732Y105032D01*
X598827Y105100D01*
X598919Y105170D01*
X599009Y105243D01*
X599096Y105320D01*
X599181Y105399D01*
X599263Y105481D01*
X599342Y105566D01*
X599419Y105653D01*
X599492Y105743D01*
X599562Y105835D01*
X599630Y105930D01*
X599694Y106026D01*
X599754Y106125D01*
X599812Y106226D01*
X599866Y106329D01*
X599917Y106433D01*
X599964Y106539D01*
X600007Y106646D01*
X600047Y106755D01*
X600083Y106866D01*
X600116Y106977D01*
X600144Y107089D01*
X600169Y107203D01*
X600191Y107317D01*
X600208Y107431D01*
X600222Y107547D01*
X600231Y107662D01*
X600237Y107778D01*
X600239Y107894D01*
X595611Y115338D02*
X590982Y115338D01*
X590982Y115339D02*
X590847Y115341D01*
X590713Y115347D01*
X590579Y115357D01*
X590445Y115370D01*
X590311Y115388D01*
X590178Y115409D01*
X590046Y115435D01*
X589915Y115464D01*
X589784Y115497D01*
X589655Y115533D01*
X589526Y115574D01*
X589399Y115618D01*
X589273Y115666D01*
X589149Y115717D01*
X589026Y115773D01*
X588905Y115831D01*
X588786Y115893D01*
X588668Y115959D01*
X588552Y116028D01*
X588439Y116100D01*
X588327Y116176D01*
X588218Y116255D01*
X588112Y116337D01*
X588007Y116422D01*
X587905Y116510D01*
X587806Y116601D01*
X587710Y116695D01*
X587616Y116791D01*
X587525Y116890D01*
X587437Y116992D01*
X587352Y117097D01*
X587270Y117203D01*
X587191Y117312D01*
X587115Y117424D01*
X587043Y117537D01*
X586974Y117653D01*
X586908Y117771D01*
X586846Y117890D01*
X586788Y118011D01*
X586732Y118134D01*
X586681Y118258D01*
X586633Y118384D01*
X586589Y118511D01*
X586548Y118640D01*
X586512Y118769D01*
X586479Y118900D01*
X586450Y119031D01*
X586424Y119163D01*
X586403Y119296D01*
X586385Y119430D01*
X586372Y119564D01*
X586362Y119698D01*
X586356Y119832D01*
X586354Y119967D01*
X586356Y120102D01*
X586362Y120236D01*
X586372Y120370D01*
X586385Y120504D01*
X586403Y120638D01*
X586424Y120771D01*
X586450Y120903D01*
X586479Y121034D01*
X586512Y121165D01*
X586548Y121294D01*
X586589Y121423D01*
X586633Y121550D01*
X586681Y121676D01*
X586732Y121800D01*
X586788Y121923D01*
X586846Y122044D01*
X586908Y122163D01*
X586974Y122281D01*
X587043Y122397D01*
X587115Y122510D01*
X587191Y122622D01*
X587270Y122731D01*
X587352Y122837D01*
X587437Y122942D01*
X587525Y123044D01*
X587616Y123143D01*
X587710Y123239D01*
X587806Y123333D01*
X587905Y123424D01*
X588007Y123512D01*
X588112Y123597D01*
X588218Y123679D01*
X588327Y123758D01*
X588439Y123834D01*
X588552Y123906D01*
X588668Y123975D01*
X588786Y124041D01*
X588905Y124103D01*
X589026Y124161D01*
X589149Y124217D01*
X589273Y124268D01*
X589399Y124316D01*
X589526Y124360D01*
X589655Y124401D01*
X589784Y124437D01*
X589915Y124470D01*
X590046Y124499D01*
X590178Y124525D01*
X590311Y124546D01*
X590445Y124564D01*
X590579Y124577D01*
X590713Y124587D01*
X590847Y124593D01*
X590982Y124595D01*
X595611Y124595D01*
X595746Y124593D01*
X595880Y124587D01*
X596014Y124577D01*
X596148Y124564D01*
X596282Y124546D01*
X596415Y124525D01*
X596547Y124499D01*
X596678Y124470D01*
X596809Y124437D01*
X596938Y124401D01*
X597067Y124360D01*
X597194Y124316D01*
X597320Y124268D01*
X597444Y124217D01*
X597567Y124161D01*
X597688Y124103D01*
X597807Y124041D01*
X597925Y123975D01*
X598041Y123906D01*
X598154Y123834D01*
X598266Y123758D01*
X598375Y123679D01*
X598481Y123597D01*
X598586Y123512D01*
X598688Y123424D01*
X598787Y123333D01*
X598883Y123239D01*
X598977Y123143D01*
X599068Y123044D01*
X599156Y122942D01*
X599241Y122837D01*
X599323Y122731D01*
X599402Y122622D01*
X599478Y122510D01*
X599550Y122397D01*
X599619Y122281D01*
X599685Y122163D01*
X599747Y122044D01*
X599805Y121923D01*
X599861Y121800D01*
X599912Y121676D01*
X599960Y121550D01*
X600004Y121423D01*
X600045Y121294D01*
X600081Y121165D01*
X600114Y121034D01*
X600143Y120903D01*
X600169Y120771D01*
X600190Y120638D01*
X600208Y120504D01*
X600221Y120370D01*
X600231Y120236D01*
X600237Y120102D01*
X600239Y119967D01*
X600237Y119832D01*
X600231Y119698D01*
X600221Y119564D01*
X600208Y119430D01*
X600190Y119296D01*
X600169Y119163D01*
X600143Y119031D01*
X600114Y118900D01*
X600081Y118769D01*
X600045Y118640D01*
X600004Y118511D01*
X599960Y118384D01*
X599912Y118258D01*
X599861Y118134D01*
X599805Y118011D01*
X599747Y117890D01*
X599685Y117771D01*
X599619Y117653D01*
X599550Y117537D01*
X599478Y117424D01*
X599402Y117312D01*
X599323Y117203D01*
X599241Y117097D01*
X599156Y116992D01*
X599068Y116890D01*
X598977Y116791D01*
X598883Y116695D01*
X598787Y116601D01*
X598688Y116510D01*
X598586Y116422D01*
X598481Y116337D01*
X598375Y116255D01*
X598266Y116176D01*
X598154Y116100D01*
X598041Y116028D01*
X597925Y115959D01*
X597807Y115893D01*
X597688Y115831D01*
X597567Y115773D01*
X597444Y115717D01*
X597320Y115666D01*
X597194Y115618D01*
X597067Y115574D01*
X596938Y115533D01*
X596809Y115497D01*
X596678Y115464D01*
X596547Y115435D01*
X596415Y115409D01*
X596282Y115388D01*
X596148Y115370D01*
X596014Y115357D01*
X595880Y115347D01*
X595746Y115341D01*
X595611Y115339D01*
X586354Y133207D02*
X600239Y136678D01*
X590982Y140149D01*
X600239Y143621D01*
X586354Y147092D01*
X600239Y159175D02*
X600239Y164961D01*
X600239Y159175D02*
X600237Y159059D01*
X600231Y158943D01*
X600222Y158828D01*
X600208Y158712D01*
X600191Y158598D01*
X600169Y158484D01*
X600144Y158370D01*
X600116Y158258D01*
X600083Y158147D01*
X600047Y158036D01*
X600007Y157927D01*
X599964Y157820D01*
X599917Y157714D01*
X599866Y157610D01*
X599812Y157507D01*
X599754Y157406D01*
X599694Y157307D01*
X599630Y157211D01*
X599562Y157116D01*
X599492Y157024D01*
X599419Y156934D01*
X599342Y156847D01*
X599263Y156762D01*
X599181Y156680D01*
X599096Y156601D01*
X599009Y156524D01*
X598919Y156451D01*
X598827Y156381D01*
X598732Y156313D01*
X598636Y156249D01*
X598537Y156189D01*
X598436Y156131D01*
X598333Y156077D01*
X598229Y156026D01*
X598123Y155979D01*
X598016Y155936D01*
X597907Y155896D01*
X597796Y155860D01*
X597685Y155827D01*
X597573Y155799D01*
X597459Y155774D01*
X597345Y155752D01*
X597231Y155735D01*
X597115Y155721D01*
X597000Y155712D01*
X596884Y155706D01*
X596768Y155704D01*
X590982Y155704D01*
X590847Y155706D01*
X590713Y155712D01*
X590579Y155722D01*
X590445Y155735D01*
X590311Y155753D01*
X590178Y155774D01*
X590046Y155800D01*
X589915Y155829D01*
X589784Y155862D01*
X589655Y155898D01*
X589526Y155939D01*
X589399Y155983D01*
X589273Y156031D01*
X589149Y156082D01*
X589026Y156138D01*
X588905Y156196D01*
X588786Y156258D01*
X588668Y156324D01*
X588552Y156393D01*
X588439Y156465D01*
X588327Y156541D01*
X588218Y156620D01*
X588112Y156702D01*
X588007Y156787D01*
X587905Y156875D01*
X587806Y156966D01*
X587710Y157060D01*
X587616Y157156D01*
X587525Y157255D01*
X587437Y157357D01*
X587352Y157462D01*
X587270Y157568D01*
X587191Y157677D01*
X587115Y157789D01*
X587043Y157902D01*
X586974Y158018D01*
X586908Y158136D01*
X586846Y158255D01*
X586788Y158376D01*
X586732Y158499D01*
X586681Y158623D01*
X586633Y158749D01*
X586589Y158876D01*
X586548Y159005D01*
X586512Y159134D01*
X586479Y159265D01*
X586450Y159396D01*
X586424Y159528D01*
X586403Y159661D01*
X586385Y159795D01*
X586372Y159929D01*
X586362Y160063D01*
X586356Y160197D01*
X586354Y160332D01*
X586356Y160467D01*
X586362Y160601D01*
X586372Y160735D01*
X586385Y160869D01*
X586403Y161003D01*
X586424Y161136D01*
X586450Y161268D01*
X586479Y161399D01*
X586512Y161530D01*
X586548Y161659D01*
X586589Y161788D01*
X586633Y161915D01*
X586681Y162041D01*
X586732Y162165D01*
X586788Y162288D01*
X586846Y162409D01*
X586908Y162528D01*
X586974Y162646D01*
X587043Y162762D01*
X587115Y162875D01*
X587191Y162987D01*
X587270Y163096D01*
X587352Y163202D01*
X587437Y163307D01*
X587525Y163409D01*
X587616Y163508D01*
X587710Y163604D01*
X587806Y163698D01*
X587905Y163789D01*
X588007Y163877D01*
X588112Y163962D01*
X588218Y164044D01*
X588327Y164123D01*
X588439Y164199D01*
X588552Y164271D01*
X588668Y164340D01*
X588786Y164406D01*
X588905Y164468D01*
X589026Y164526D01*
X589149Y164582D01*
X589273Y164633D01*
X589399Y164681D01*
X589526Y164725D01*
X589655Y164766D01*
X589784Y164802D01*
X589915Y164835D01*
X590046Y164864D01*
X590178Y164890D01*
X590311Y164911D01*
X590445Y164929D01*
X590579Y164942D01*
X590713Y164952D01*
X590847Y164958D01*
X590982Y164960D01*
X590982Y164961D02*
X593296Y164961D01*
X593296Y155704D01*
X600239Y174655D02*
X586354Y174655D01*
X586354Y181597D01*
X588668Y181597D01*
X623111Y93670D02*
X623246Y93668D01*
X623380Y93662D01*
X623514Y93652D01*
X623648Y93639D01*
X623782Y93621D01*
X623915Y93600D01*
X624047Y93574D01*
X624178Y93545D01*
X624309Y93512D01*
X624438Y93476D01*
X624567Y93435D01*
X624694Y93391D01*
X624820Y93343D01*
X624944Y93292D01*
X625067Y93236D01*
X625188Y93178D01*
X625307Y93116D01*
X625425Y93050D01*
X625541Y92981D01*
X625654Y92909D01*
X625766Y92833D01*
X625875Y92754D01*
X625981Y92672D01*
X626086Y92587D01*
X626188Y92499D01*
X626287Y92408D01*
X626383Y92314D01*
X626477Y92218D01*
X626568Y92119D01*
X626656Y92017D01*
X626741Y91912D01*
X626823Y91806D01*
X626902Y91697D01*
X626978Y91585D01*
X627050Y91472D01*
X627119Y91356D01*
X627185Y91238D01*
X627247Y91119D01*
X627305Y90998D01*
X627361Y90875D01*
X627412Y90751D01*
X627460Y90625D01*
X627504Y90498D01*
X627545Y90369D01*
X627581Y90240D01*
X627614Y90109D01*
X627643Y89978D01*
X627669Y89846D01*
X627690Y89713D01*
X627708Y89579D01*
X627721Y89445D01*
X627731Y89311D01*
X627737Y89177D01*
X627739Y89042D01*
X627736Y88808D01*
X627728Y88574D01*
X627714Y88341D01*
X627694Y88108D01*
X627669Y87875D01*
X627638Y87643D01*
X627602Y87412D01*
X627560Y87182D01*
X627513Y86953D01*
X627460Y86725D01*
X627402Y86498D01*
X627339Y86273D01*
X627270Y86049D01*
X627196Y85828D01*
X627116Y85608D01*
X627031Y85390D01*
X626941Y85174D01*
X626846Y84960D01*
X626746Y84748D01*
X626641Y84539D01*
X626530Y84333D01*
X626415Y84129D01*
X626295Y83929D01*
X626171Y83731D01*
X626041Y83536D01*
X625907Y83344D01*
X625769Y83156D01*
X625626Y82970D01*
X625478Y82789D01*
X625326Y82611D01*
X625170Y82436D01*
X625010Y82266D01*
X624846Y82099D01*
X611540Y82679D02*
X611405Y82681D01*
X611271Y82687D01*
X611137Y82697D01*
X611003Y82710D01*
X610869Y82728D01*
X610736Y82749D01*
X610604Y82775D01*
X610473Y82804D01*
X610342Y82837D01*
X610213Y82873D01*
X610084Y82914D01*
X609957Y82958D01*
X609831Y83006D01*
X609707Y83057D01*
X609584Y83113D01*
X609463Y83171D01*
X609344Y83233D01*
X609226Y83299D01*
X609110Y83368D01*
X608997Y83440D01*
X608885Y83516D01*
X608776Y83595D01*
X608670Y83677D01*
X608565Y83762D01*
X608463Y83850D01*
X608364Y83941D01*
X608268Y84035D01*
X608174Y84131D01*
X608083Y84230D01*
X607995Y84332D01*
X607910Y84437D01*
X607828Y84543D01*
X607749Y84652D01*
X607673Y84764D01*
X607601Y84877D01*
X607532Y84993D01*
X607466Y85111D01*
X607404Y85230D01*
X607346Y85351D01*
X607290Y85474D01*
X607239Y85598D01*
X607191Y85724D01*
X607147Y85851D01*
X607106Y85980D01*
X607070Y86109D01*
X607037Y86240D01*
X607008Y86371D01*
X606982Y86503D01*
X606961Y86636D01*
X606943Y86770D01*
X606930Y86904D01*
X606920Y87038D01*
X606914Y87172D01*
X606912Y87307D01*
X606911Y87307D02*
X606913Y87514D01*
X606921Y87721D01*
X606933Y87927D01*
X606950Y88133D01*
X606973Y88339D01*
X607000Y88544D01*
X607031Y88748D01*
X607068Y88952D01*
X607110Y89154D01*
X607156Y89356D01*
X607208Y89556D01*
X607264Y89755D01*
X607324Y89953D01*
X607390Y90149D01*
X607460Y90344D01*
X607534Y90537D01*
X607614Y90728D01*
X607697Y90917D01*
X607786Y91104D01*
X607878Y91289D01*
X607975Y91471D01*
X608077Y91652D01*
X608183Y91829D01*
X608292Y92005D01*
X608406Y92177D01*
X608525Y92347D01*
X608647Y92514D01*
X615590Y84992D02*
X615520Y84877D01*
X615446Y84763D01*
X615369Y84651D01*
X615288Y84542D01*
X615205Y84435D01*
X615119Y84331D01*
X615029Y84229D01*
X614937Y84129D01*
X614842Y84033D01*
X614744Y83939D01*
X614643Y83848D01*
X614540Y83760D01*
X614435Y83675D01*
X614327Y83593D01*
X614216Y83514D01*
X614104Y83439D01*
X613989Y83366D01*
X613872Y83297D01*
X613754Y83232D01*
X613633Y83170D01*
X613511Y83111D01*
X613387Y83056D01*
X613262Y83005D01*
X613135Y82957D01*
X613007Y82913D01*
X612877Y82872D01*
X612747Y82835D01*
X612615Y82803D01*
X612483Y82773D01*
X612349Y82748D01*
X612216Y82727D01*
X612081Y82709D01*
X611946Y82696D01*
X611811Y82686D01*
X611676Y82680D01*
X611540Y82678D01*
X619061Y91357D02*
X619131Y91472D01*
X619205Y91586D01*
X619282Y91698D01*
X619363Y91807D01*
X619446Y91914D01*
X619532Y92018D01*
X619622Y92120D01*
X619714Y92220D01*
X619809Y92316D01*
X619907Y92410D01*
X620008Y92501D01*
X620111Y92589D01*
X620216Y92674D01*
X620324Y92756D01*
X620435Y92835D01*
X620547Y92910D01*
X620662Y92983D01*
X620779Y93052D01*
X620897Y93117D01*
X621018Y93179D01*
X621140Y93238D01*
X621264Y93293D01*
X621389Y93344D01*
X621516Y93392D01*
X621644Y93436D01*
X621774Y93477D01*
X621904Y93514D01*
X622036Y93546D01*
X622168Y93576D01*
X622302Y93601D01*
X622435Y93622D01*
X622570Y93640D01*
X622705Y93653D01*
X622840Y93663D01*
X622975Y93669D01*
X623111Y93671D01*
X619061Y91356D02*
X615589Y84992D01*
X627739Y105519D02*
X627739Y111304D01*
X627739Y105519D02*
X627737Y105403D01*
X627731Y105287D01*
X627722Y105172D01*
X627708Y105056D01*
X627691Y104942D01*
X627669Y104828D01*
X627644Y104714D01*
X627616Y104602D01*
X627583Y104491D01*
X627547Y104380D01*
X627507Y104271D01*
X627464Y104164D01*
X627417Y104058D01*
X627366Y103954D01*
X627312Y103851D01*
X627254Y103750D01*
X627194Y103651D01*
X627130Y103555D01*
X627062Y103460D01*
X626992Y103368D01*
X626919Y103278D01*
X626842Y103191D01*
X626763Y103106D01*
X626681Y103024D01*
X626596Y102945D01*
X626509Y102868D01*
X626419Y102795D01*
X626327Y102725D01*
X626232Y102657D01*
X626136Y102593D01*
X626037Y102533D01*
X625936Y102475D01*
X625833Y102421D01*
X625729Y102370D01*
X625623Y102323D01*
X625516Y102280D01*
X625407Y102240D01*
X625296Y102204D01*
X625185Y102171D01*
X625073Y102143D01*
X624959Y102118D01*
X624845Y102096D01*
X624731Y102079D01*
X624615Y102065D01*
X624500Y102056D01*
X624384Y102050D01*
X624268Y102048D01*
X618482Y102048D01*
X618347Y102050D01*
X618213Y102056D01*
X618079Y102066D01*
X617945Y102079D01*
X617811Y102097D01*
X617678Y102118D01*
X617546Y102144D01*
X617415Y102173D01*
X617284Y102206D01*
X617155Y102242D01*
X617026Y102283D01*
X616899Y102327D01*
X616773Y102375D01*
X616649Y102426D01*
X616526Y102482D01*
X616405Y102540D01*
X616286Y102602D01*
X616168Y102668D01*
X616052Y102737D01*
X615939Y102809D01*
X615827Y102885D01*
X615718Y102964D01*
X615612Y103046D01*
X615507Y103131D01*
X615405Y103219D01*
X615306Y103310D01*
X615210Y103404D01*
X615116Y103500D01*
X615025Y103599D01*
X614937Y103701D01*
X614852Y103806D01*
X614770Y103912D01*
X614691Y104021D01*
X614615Y104133D01*
X614543Y104246D01*
X614474Y104362D01*
X614408Y104480D01*
X614346Y104599D01*
X614288Y104720D01*
X614232Y104843D01*
X614181Y104967D01*
X614133Y105093D01*
X614089Y105220D01*
X614048Y105349D01*
X614012Y105478D01*
X613979Y105609D01*
X613950Y105740D01*
X613924Y105872D01*
X613903Y106005D01*
X613885Y106139D01*
X613872Y106273D01*
X613862Y106407D01*
X613856Y106541D01*
X613854Y106676D01*
X613856Y106811D01*
X613862Y106945D01*
X613872Y107079D01*
X613885Y107213D01*
X613903Y107347D01*
X613924Y107480D01*
X613950Y107612D01*
X613979Y107743D01*
X614012Y107874D01*
X614048Y108003D01*
X614089Y108132D01*
X614133Y108259D01*
X614181Y108385D01*
X614232Y108509D01*
X614288Y108632D01*
X614346Y108753D01*
X614408Y108872D01*
X614474Y108990D01*
X614543Y109106D01*
X614615Y109219D01*
X614691Y109331D01*
X614770Y109440D01*
X614852Y109546D01*
X614937Y109651D01*
X615025Y109753D01*
X615116Y109852D01*
X615210Y109948D01*
X615306Y110042D01*
X615405Y110133D01*
X615507Y110221D01*
X615612Y110306D01*
X615718Y110388D01*
X615827Y110467D01*
X615939Y110543D01*
X616052Y110615D01*
X616168Y110684D01*
X616286Y110750D01*
X616405Y110812D01*
X616526Y110870D01*
X616649Y110926D01*
X616773Y110977D01*
X616899Y111025D01*
X617026Y111069D01*
X617155Y111110D01*
X617284Y111146D01*
X617415Y111179D01*
X617546Y111208D01*
X617678Y111234D01*
X617811Y111255D01*
X617945Y111273D01*
X618079Y111286D01*
X618213Y111296D01*
X618347Y111302D01*
X618482Y111304D01*
X620796Y111304D01*
X620796Y102048D01*
X627739Y120838D02*
X613854Y120838D01*
X613854Y126624D01*
X613856Y126740D01*
X613862Y126856D01*
X613871Y126971D01*
X613885Y127087D01*
X613902Y127201D01*
X613924Y127315D01*
X613949Y127429D01*
X613977Y127541D01*
X614010Y127652D01*
X614046Y127763D01*
X614086Y127871D01*
X614129Y127979D01*
X614176Y128085D01*
X614227Y128189D01*
X614281Y128292D01*
X614339Y128393D01*
X614399Y128492D01*
X614463Y128588D01*
X614531Y128683D01*
X614601Y128775D01*
X614674Y128865D01*
X614751Y128952D01*
X614830Y129037D01*
X614912Y129119D01*
X614997Y129198D01*
X615084Y129275D01*
X615174Y129348D01*
X615266Y129418D01*
X615361Y129486D01*
X615457Y129550D01*
X615556Y129610D01*
X615657Y129668D01*
X615760Y129722D01*
X615864Y129773D01*
X615970Y129820D01*
X616077Y129863D01*
X616186Y129903D01*
X616297Y129939D01*
X616408Y129972D01*
X616520Y130000D01*
X616634Y130025D01*
X616748Y130047D01*
X616862Y130064D01*
X616978Y130078D01*
X617093Y130087D01*
X617209Y130093D01*
X617325Y130095D01*
X627739Y130095D01*
X619639Y141365D02*
X621954Y147150D01*
X619639Y141365D02*
X619597Y141265D01*
X619552Y141167D01*
X619503Y141071D01*
X619450Y140976D01*
X619395Y140884D01*
X619335Y140793D01*
X619273Y140705D01*
X619208Y140619D01*
X619139Y140535D01*
X619067Y140454D01*
X618993Y140376D01*
X618916Y140300D01*
X618836Y140227D01*
X618754Y140157D01*
X618669Y140090D01*
X618581Y140026D01*
X618492Y139966D01*
X618400Y139908D01*
X618307Y139854D01*
X618211Y139804D01*
X618114Y139756D01*
X618015Y139713D01*
X617914Y139673D01*
X617813Y139636D01*
X617710Y139604D01*
X617605Y139575D01*
X617500Y139549D01*
X617394Y139528D01*
X617288Y139510D01*
X617180Y139497D01*
X617073Y139487D01*
X616965Y139481D01*
X616857Y139479D01*
X616748Y139481D01*
X616640Y139487D01*
X616533Y139496D01*
X616425Y139510D01*
X616319Y139527D01*
X616213Y139548D01*
X616108Y139573D01*
X616003Y139602D01*
X615900Y139635D01*
X615798Y139671D01*
X615698Y139711D01*
X615599Y139754D01*
X615501Y139801D01*
X615406Y139852D01*
X615312Y139906D01*
X615220Y139963D01*
X615131Y140023D01*
X615043Y140087D01*
X614958Y140154D01*
X614876Y140224D01*
X614796Y140296D01*
X614718Y140372D01*
X614644Y140450D01*
X614572Y140531D01*
X614504Y140615D01*
X614438Y140701D01*
X614375Y140789D01*
X614316Y140879D01*
X614260Y140972D01*
X614207Y141066D01*
X614158Y141163D01*
X614113Y141261D01*
X614070Y141360D01*
X614032Y141461D01*
X613997Y141564D01*
X613966Y141667D01*
X613939Y141772D01*
X613915Y141877D01*
X613895Y141983D01*
X613879Y142090D01*
X613867Y142198D01*
X613859Y142306D01*
X613855Y142414D01*
X613854Y142522D01*
X613863Y142837D01*
X613879Y143153D01*
X613902Y143468D01*
X613933Y143783D01*
X613972Y144096D01*
X614018Y144409D01*
X614071Y144720D01*
X614133Y145030D01*
X614201Y145338D01*
X614277Y145645D01*
X614360Y145950D01*
X614451Y146253D01*
X614549Y146553D01*
X614654Y146851D01*
X614766Y147146D01*
X614885Y147439D01*
X615011Y147729D01*
X621954Y147150D02*
X621996Y147250D01*
X622041Y147348D01*
X622090Y147444D01*
X622143Y147539D01*
X622198Y147631D01*
X622258Y147722D01*
X622320Y147810D01*
X622385Y147896D01*
X622454Y147980D01*
X622526Y148061D01*
X622600Y148139D01*
X622677Y148215D01*
X622757Y148288D01*
X622839Y148358D01*
X622924Y148425D01*
X623012Y148489D01*
X623101Y148549D01*
X623193Y148607D01*
X623286Y148661D01*
X623382Y148711D01*
X623479Y148759D01*
X623578Y148802D01*
X623679Y148842D01*
X623780Y148879D01*
X623883Y148911D01*
X623988Y148940D01*
X624093Y148966D01*
X624199Y148987D01*
X624305Y149005D01*
X624413Y149018D01*
X624520Y149028D01*
X624628Y149034D01*
X624736Y149036D01*
X624845Y149034D01*
X624953Y149028D01*
X625060Y149019D01*
X625168Y149005D01*
X625274Y148988D01*
X625380Y148967D01*
X625485Y148942D01*
X625590Y148913D01*
X625693Y148880D01*
X625795Y148844D01*
X625895Y148804D01*
X625994Y148761D01*
X626092Y148714D01*
X626187Y148663D01*
X626281Y148609D01*
X626373Y148552D01*
X626462Y148492D01*
X626550Y148428D01*
X626635Y148361D01*
X626717Y148291D01*
X626797Y148219D01*
X626875Y148143D01*
X626949Y148065D01*
X627021Y147984D01*
X627089Y147900D01*
X627155Y147814D01*
X627218Y147726D01*
X627277Y147636D01*
X627333Y147543D01*
X627386Y147449D01*
X627435Y147352D01*
X627480Y147254D01*
X627523Y147155D01*
X627561Y147054D01*
X627596Y146951D01*
X627627Y146848D01*
X627654Y146743D01*
X627678Y146638D01*
X627698Y146532D01*
X627714Y146425D01*
X627726Y146317D01*
X627734Y146209D01*
X627738Y146101D01*
X627739Y145993D01*
X627740Y145994D02*
X627728Y145530D01*
X627705Y145066D01*
X627671Y144603D01*
X627626Y144141D01*
X627570Y143681D01*
X627503Y143221D01*
X627425Y142764D01*
X627337Y142308D01*
X627238Y141855D01*
X627128Y141404D01*
X627008Y140955D01*
X626876Y140510D01*
X626735Y140068D01*
X626583Y139629D01*
X623111Y157724D02*
X618482Y157724D01*
X618482Y157725D02*
X618347Y157727D01*
X618213Y157733D01*
X618079Y157743D01*
X617945Y157756D01*
X617811Y157774D01*
X617678Y157795D01*
X617546Y157821D01*
X617415Y157850D01*
X617284Y157883D01*
X617155Y157919D01*
X617026Y157960D01*
X616899Y158004D01*
X616773Y158052D01*
X616649Y158103D01*
X616526Y158159D01*
X616405Y158217D01*
X616286Y158279D01*
X616168Y158345D01*
X616052Y158414D01*
X615939Y158486D01*
X615827Y158562D01*
X615718Y158641D01*
X615612Y158723D01*
X615507Y158808D01*
X615405Y158896D01*
X615306Y158987D01*
X615210Y159081D01*
X615116Y159177D01*
X615025Y159276D01*
X614937Y159378D01*
X614852Y159483D01*
X614770Y159589D01*
X614691Y159698D01*
X614615Y159810D01*
X614543Y159923D01*
X614474Y160039D01*
X614408Y160157D01*
X614346Y160276D01*
X614288Y160397D01*
X614232Y160520D01*
X614181Y160644D01*
X614133Y160770D01*
X614089Y160897D01*
X614048Y161026D01*
X614012Y161155D01*
X613979Y161286D01*
X613950Y161417D01*
X613924Y161549D01*
X613903Y161682D01*
X613885Y161816D01*
X613872Y161950D01*
X613862Y162084D01*
X613856Y162218D01*
X613854Y162353D01*
X613856Y162488D01*
X613862Y162622D01*
X613872Y162756D01*
X613885Y162890D01*
X613903Y163024D01*
X613924Y163157D01*
X613950Y163289D01*
X613979Y163420D01*
X614012Y163551D01*
X614048Y163680D01*
X614089Y163809D01*
X614133Y163936D01*
X614181Y164062D01*
X614232Y164186D01*
X614288Y164309D01*
X614346Y164430D01*
X614408Y164549D01*
X614474Y164667D01*
X614543Y164783D01*
X614615Y164896D01*
X614691Y165008D01*
X614770Y165117D01*
X614852Y165223D01*
X614937Y165328D01*
X615025Y165430D01*
X615116Y165529D01*
X615210Y165625D01*
X615306Y165719D01*
X615405Y165810D01*
X615507Y165898D01*
X615612Y165983D01*
X615718Y166065D01*
X615827Y166144D01*
X615939Y166220D01*
X616052Y166292D01*
X616168Y166361D01*
X616286Y166427D01*
X616405Y166489D01*
X616526Y166547D01*
X616649Y166603D01*
X616773Y166654D01*
X616899Y166702D01*
X617026Y166746D01*
X617155Y166787D01*
X617284Y166823D01*
X617415Y166856D01*
X617546Y166885D01*
X617678Y166911D01*
X617811Y166932D01*
X617945Y166950D01*
X618079Y166963D01*
X618213Y166973D01*
X618347Y166979D01*
X618482Y166981D01*
X623111Y166981D01*
X623246Y166979D01*
X623380Y166973D01*
X623514Y166963D01*
X623648Y166950D01*
X623782Y166932D01*
X623915Y166911D01*
X624047Y166885D01*
X624178Y166856D01*
X624309Y166823D01*
X624438Y166787D01*
X624567Y166746D01*
X624694Y166702D01*
X624820Y166654D01*
X624944Y166603D01*
X625067Y166547D01*
X625188Y166489D01*
X625307Y166427D01*
X625425Y166361D01*
X625541Y166292D01*
X625654Y166220D01*
X625766Y166144D01*
X625875Y166065D01*
X625981Y165983D01*
X626086Y165898D01*
X626188Y165810D01*
X626287Y165719D01*
X626383Y165625D01*
X626477Y165529D01*
X626568Y165430D01*
X626656Y165328D01*
X626741Y165223D01*
X626823Y165117D01*
X626902Y165008D01*
X626978Y164896D01*
X627050Y164783D01*
X627119Y164667D01*
X627185Y164549D01*
X627247Y164430D01*
X627305Y164309D01*
X627361Y164186D01*
X627412Y164062D01*
X627460Y163936D01*
X627504Y163809D01*
X627545Y163680D01*
X627581Y163551D01*
X627614Y163420D01*
X627643Y163289D01*
X627669Y163157D01*
X627690Y163024D01*
X627708Y162890D01*
X627721Y162756D01*
X627731Y162622D01*
X627737Y162488D01*
X627739Y162353D01*
X627737Y162218D01*
X627731Y162084D01*
X627721Y161950D01*
X627708Y161816D01*
X627690Y161682D01*
X627669Y161549D01*
X627643Y161417D01*
X627614Y161286D01*
X627581Y161155D01*
X627545Y161026D01*
X627504Y160897D01*
X627460Y160770D01*
X627412Y160644D01*
X627361Y160520D01*
X627305Y160397D01*
X627247Y160276D01*
X627185Y160157D01*
X627119Y160039D01*
X627050Y159923D01*
X626978Y159810D01*
X626902Y159698D01*
X626823Y159589D01*
X626741Y159483D01*
X626656Y159378D01*
X626568Y159276D01*
X626477Y159177D01*
X626383Y159081D01*
X626287Y158987D01*
X626188Y158896D01*
X626086Y158808D01*
X625981Y158723D01*
X625875Y158641D01*
X625766Y158562D01*
X625654Y158486D01*
X625541Y158414D01*
X625425Y158345D01*
X625307Y158279D01*
X625188Y158217D01*
X625067Y158159D01*
X624944Y158103D01*
X624820Y158052D01*
X624694Y158004D01*
X624567Y157960D01*
X624438Y157919D01*
X624309Y157883D01*
X624178Y157850D01*
X624047Y157821D01*
X623915Y157795D01*
X623782Y157774D01*
X623648Y157756D01*
X623514Y157743D01*
X623380Y157733D01*
X623246Y157727D01*
X623111Y157725D01*
X627739Y176675D02*
X613854Y176675D01*
X613854Y183618D01*
X616168Y183618D01*
D12*
X445263Y35160D02*
X438659Y35160D01*
X438659Y33326D02*
X438659Y36994D01*
X445263Y41585D02*
X445263Y43053D01*
X445264Y41585D02*
X445262Y41511D01*
X445256Y41436D01*
X445247Y41363D01*
X445234Y41289D01*
X445217Y41217D01*
X445197Y41146D01*
X445173Y41075D01*
X445145Y41006D01*
X445114Y40939D01*
X445080Y40873D01*
X445042Y40808D01*
X445001Y40746D01*
X444957Y40686D01*
X444910Y40629D01*
X444860Y40574D01*
X444807Y40521D01*
X444752Y40471D01*
X444695Y40424D01*
X444635Y40380D01*
X444573Y40339D01*
X444508Y40301D01*
X444443Y40267D01*
X444375Y40236D01*
X444306Y40208D01*
X444235Y40184D01*
X444164Y40164D01*
X444092Y40147D01*
X444018Y40134D01*
X443945Y40125D01*
X443870Y40119D01*
X443796Y40117D01*
X443796Y40118D02*
X440127Y40118D01*
X440127Y40117D02*
X440053Y40119D01*
X439978Y40125D01*
X439905Y40134D01*
X439831Y40147D01*
X439759Y40164D01*
X439688Y40184D01*
X439617Y40208D01*
X439548Y40236D01*
X439481Y40267D01*
X439415Y40301D01*
X439350Y40339D01*
X439288Y40380D01*
X439228Y40424D01*
X439171Y40471D01*
X439116Y40521D01*
X439063Y40574D01*
X439013Y40629D01*
X438966Y40686D01*
X438922Y40746D01*
X438881Y40808D01*
X438843Y40873D01*
X438809Y40938D01*
X438778Y41006D01*
X438750Y41075D01*
X438726Y41146D01*
X438706Y41217D01*
X438689Y41289D01*
X438676Y41363D01*
X438667Y41436D01*
X438661Y41511D01*
X438659Y41585D01*
X438659Y43053D01*
X438659Y46674D02*
X445263Y46674D01*
X442695Y46674D02*
X438659Y50343D01*
X441227Y48142D02*
X445263Y50343D01*
X452659Y35160D02*
X459263Y35160D01*
X452659Y33326D02*
X452659Y36994D01*
X452659Y40518D02*
X459263Y40518D01*
X456328Y42719D02*
X452659Y40518D01*
X456328Y42719D02*
X452659Y44920D01*
X459263Y44920D01*
X459264Y50889D02*
X459262Y50963D01*
X459256Y51037D01*
X459247Y51111D01*
X459234Y51184D01*
X459217Y51257D01*
X459197Y51328D01*
X459173Y51399D01*
X459145Y51468D01*
X459114Y51535D01*
X459080Y51601D01*
X459042Y51666D01*
X459001Y51728D01*
X458957Y51788D01*
X458910Y51845D01*
X458860Y51900D01*
X458807Y51953D01*
X458752Y52003D01*
X458695Y52050D01*
X458635Y52094D01*
X458573Y52135D01*
X458508Y52173D01*
X458443Y52207D01*
X458375Y52238D01*
X458306Y52266D01*
X458235Y52290D01*
X458164Y52310D01*
X458092Y52327D01*
X458018Y52340D01*
X457945Y52349D01*
X457870Y52355D01*
X457796Y52357D01*
X459263Y50889D02*
X459261Y50778D01*
X459255Y50667D01*
X459245Y50556D01*
X459231Y50445D01*
X459213Y50336D01*
X459191Y50227D01*
X459166Y50118D01*
X459136Y50011D01*
X459103Y49905D01*
X459065Y49800D01*
X459025Y49697D01*
X458980Y49595D01*
X458932Y49495D01*
X458880Y49396D01*
X458825Y49300D01*
X458766Y49205D01*
X458704Y49113D01*
X458638Y49023D01*
X458570Y48935D01*
X458498Y48850D01*
X458423Y48768D01*
X458346Y48688D01*
X454127Y48870D02*
X454053Y48872D01*
X453978Y48878D01*
X453905Y48887D01*
X453831Y48900D01*
X453759Y48917D01*
X453688Y48937D01*
X453617Y48961D01*
X453548Y48989D01*
X453481Y49020D01*
X453415Y49054D01*
X453350Y49092D01*
X453288Y49133D01*
X453228Y49177D01*
X453171Y49224D01*
X453116Y49274D01*
X453063Y49327D01*
X453013Y49382D01*
X452966Y49439D01*
X452922Y49499D01*
X452881Y49561D01*
X452843Y49626D01*
X452809Y49692D01*
X452778Y49759D01*
X452750Y49828D01*
X452726Y49899D01*
X452706Y49970D01*
X452689Y50042D01*
X452676Y50116D01*
X452667Y50189D01*
X452661Y50264D01*
X452659Y50338D01*
X452661Y50442D01*
X452667Y50546D01*
X452677Y50650D01*
X452690Y50753D01*
X452708Y50856D01*
X452730Y50958D01*
X452755Y51059D01*
X452784Y51159D01*
X452817Y51258D01*
X452854Y51355D01*
X452894Y51451D01*
X452938Y51546D01*
X452986Y51638D01*
X453036Y51729D01*
X453091Y51818D01*
X453149Y51905D01*
X453209Y51989D01*
X455412Y49604D02*
X455373Y49541D01*
X455331Y49481D01*
X455286Y49423D01*
X455238Y49366D01*
X455187Y49313D01*
X455134Y49262D01*
X455079Y49213D01*
X455021Y49168D01*
X454961Y49125D01*
X454899Y49085D01*
X454835Y49049D01*
X454769Y49015D01*
X454701Y48985D01*
X454633Y48958D01*
X454563Y48935D01*
X454492Y48915D01*
X454420Y48899D01*
X454347Y48886D01*
X454274Y48877D01*
X454201Y48872D01*
X454127Y48870D01*
X456511Y51623D02*
X456550Y51686D01*
X456592Y51746D01*
X456637Y51805D01*
X456685Y51861D01*
X456736Y51914D01*
X456789Y51965D01*
X456844Y52014D01*
X456902Y52059D01*
X456962Y52102D01*
X457024Y52142D01*
X457088Y52178D01*
X457154Y52212D01*
X457222Y52242D01*
X457290Y52269D01*
X457360Y52292D01*
X457431Y52312D01*
X457503Y52328D01*
X457576Y52341D01*
X457649Y52350D01*
X457722Y52355D01*
X457796Y52357D01*
X456511Y51623D02*
X455411Y49605D01*
X466659Y35160D02*
X473263Y35160D01*
X466659Y33326D02*
X466659Y36994D01*
X473263Y39786D02*
X466659Y44189D01*
X466659Y39786D02*
X473263Y44189D01*
X481659Y33326D02*
X488263Y33326D01*
X481659Y33326D02*
X481659Y35160D01*
X481660Y35160D02*
X481662Y35245D01*
X481668Y35329D01*
X481678Y35413D01*
X481691Y35497D01*
X481709Y35580D01*
X481730Y35662D01*
X481755Y35743D01*
X481784Y35823D01*
X481816Y35901D01*
X481852Y35977D01*
X481892Y36052D01*
X481935Y36125D01*
X481981Y36196D01*
X482030Y36265D01*
X482083Y36332D01*
X482139Y36396D01*
X482197Y36457D01*
X482258Y36515D01*
X482322Y36571D01*
X482389Y36624D01*
X482458Y36673D01*
X482529Y36719D01*
X482602Y36762D01*
X482677Y36802D01*
X482753Y36838D01*
X482831Y36870D01*
X482911Y36899D01*
X482992Y36924D01*
X483074Y36945D01*
X483157Y36963D01*
X483241Y36976D01*
X483325Y36986D01*
X483409Y36992D01*
X483494Y36994D01*
X483579Y36992D01*
X483663Y36986D01*
X483747Y36976D01*
X483831Y36963D01*
X483914Y36945D01*
X483996Y36924D01*
X484077Y36899D01*
X484157Y36870D01*
X484235Y36838D01*
X484311Y36802D01*
X484386Y36762D01*
X484459Y36719D01*
X484530Y36673D01*
X484599Y36624D01*
X484666Y36571D01*
X484730Y36515D01*
X484791Y36457D01*
X484849Y36396D01*
X484905Y36332D01*
X484958Y36265D01*
X485007Y36196D01*
X485053Y36125D01*
X485096Y36052D01*
X485136Y35977D01*
X485172Y35901D01*
X485204Y35823D01*
X485233Y35743D01*
X485258Y35662D01*
X485279Y35580D01*
X485297Y35497D01*
X485310Y35413D01*
X485320Y35329D01*
X485326Y35245D01*
X485328Y35160D01*
X485328Y33326D01*
X485328Y35527D02*
X488263Y36994D01*
X488263Y40195D02*
X481659Y44598D01*
X481659Y40195D02*
X488263Y44598D01*
X502263Y35160D02*
X502263Y33326D01*
X502263Y35160D02*
X502261Y35245D01*
X502255Y35329D01*
X502245Y35413D01*
X502232Y35497D01*
X502214Y35580D01*
X502193Y35662D01*
X502168Y35743D01*
X502139Y35823D01*
X502107Y35901D01*
X502071Y35977D01*
X502031Y36052D01*
X501988Y36125D01*
X501942Y36196D01*
X501893Y36265D01*
X501840Y36332D01*
X501784Y36396D01*
X501726Y36457D01*
X501665Y36515D01*
X501601Y36571D01*
X501534Y36624D01*
X501465Y36673D01*
X501394Y36719D01*
X501321Y36762D01*
X501246Y36802D01*
X501170Y36838D01*
X501092Y36870D01*
X501012Y36899D01*
X500931Y36924D01*
X500849Y36945D01*
X500766Y36963D01*
X500682Y36976D01*
X500598Y36986D01*
X500514Y36992D01*
X500429Y36994D01*
X500344Y36992D01*
X500260Y36986D01*
X500176Y36976D01*
X500092Y36963D01*
X500009Y36945D01*
X499927Y36924D01*
X499846Y36899D01*
X499766Y36870D01*
X499688Y36838D01*
X499612Y36802D01*
X499537Y36762D01*
X499464Y36719D01*
X499393Y36673D01*
X499324Y36624D01*
X499257Y36571D01*
X499193Y36515D01*
X499132Y36457D01*
X499074Y36396D01*
X499018Y36332D01*
X498965Y36265D01*
X498916Y36196D01*
X498870Y36125D01*
X498827Y36052D01*
X498787Y35977D01*
X498751Y35901D01*
X498719Y35823D01*
X498690Y35743D01*
X498665Y35662D01*
X498644Y35580D01*
X498626Y35497D01*
X498613Y35413D01*
X498603Y35329D01*
X498597Y35245D01*
X498595Y35160D01*
X495659Y35527D02*
X495659Y33326D01*
X495659Y35527D02*
X495661Y35603D01*
X495667Y35678D01*
X495676Y35753D01*
X495690Y35827D01*
X495707Y35901D01*
X495729Y35973D01*
X495753Y36045D01*
X495782Y36115D01*
X495814Y36183D01*
X495849Y36250D01*
X495888Y36315D01*
X495931Y36378D01*
X495976Y36438D01*
X496024Y36496D01*
X496076Y36552D01*
X496130Y36604D01*
X496187Y36654D01*
X496246Y36701D01*
X496307Y36745D01*
X496371Y36786D01*
X496437Y36823D01*
X496505Y36857D01*
X496574Y36887D01*
X496645Y36914D01*
X496717Y36937D01*
X496790Y36956D01*
X496864Y36971D01*
X496939Y36983D01*
X497014Y36991D01*
X497089Y36995D01*
X497165Y36995D01*
X497240Y36991D01*
X497315Y36983D01*
X497390Y36971D01*
X497464Y36956D01*
X497537Y36937D01*
X497609Y36914D01*
X497680Y36887D01*
X497749Y36857D01*
X497817Y36823D01*
X497883Y36786D01*
X497947Y36745D01*
X498008Y36701D01*
X498067Y36654D01*
X498124Y36604D01*
X498178Y36552D01*
X498230Y36496D01*
X498278Y36438D01*
X498323Y36378D01*
X498366Y36315D01*
X498405Y36250D01*
X498440Y36183D01*
X498472Y36115D01*
X498501Y36045D01*
X498525Y35973D01*
X498547Y35901D01*
X498564Y35827D01*
X498578Y35753D01*
X498587Y35678D01*
X498593Y35603D01*
X498595Y35527D01*
X498594Y35527D02*
X498594Y34059D01*
X495659Y40274D02*
X502263Y42475D01*
X495659Y44677D01*
X502263Y47956D02*
X502263Y49790D01*
X502261Y49875D01*
X502255Y49959D01*
X502245Y50043D01*
X502232Y50127D01*
X502214Y50210D01*
X502193Y50292D01*
X502168Y50373D01*
X502139Y50453D01*
X502107Y50531D01*
X502071Y50607D01*
X502031Y50682D01*
X501988Y50755D01*
X501942Y50826D01*
X501893Y50895D01*
X501840Y50962D01*
X501784Y51026D01*
X501726Y51087D01*
X501665Y51145D01*
X501601Y51201D01*
X501534Y51254D01*
X501465Y51303D01*
X501394Y51349D01*
X501321Y51392D01*
X501246Y51432D01*
X501170Y51468D01*
X501092Y51500D01*
X501012Y51529D01*
X500931Y51554D01*
X500849Y51575D01*
X500766Y51593D01*
X500682Y51606D01*
X500598Y51616D01*
X500514Y51622D01*
X500429Y51624D01*
X500344Y51622D01*
X500260Y51616D01*
X500176Y51606D01*
X500092Y51593D01*
X500009Y51575D01*
X499927Y51554D01*
X499846Y51529D01*
X499766Y51500D01*
X499688Y51468D01*
X499612Y51432D01*
X499537Y51392D01*
X499464Y51349D01*
X499393Y51303D01*
X499324Y51254D01*
X499257Y51201D01*
X499193Y51145D01*
X499132Y51087D01*
X499074Y51026D01*
X499018Y50962D01*
X498965Y50895D01*
X498916Y50826D01*
X498870Y50755D01*
X498827Y50682D01*
X498787Y50607D01*
X498751Y50531D01*
X498719Y50453D01*
X498690Y50373D01*
X498665Y50292D01*
X498644Y50210D01*
X498626Y50127D01*
X498613Y50043D01*
X498603Y49959D01*
X498597Y49875D01*
X498595Y49790D01*
X495659Y50157D02*
X495659Y47956D01*
X495659Y50157D02*
X495661Y50233D01*
X495667Y50308D01*
X495676Y50383D01*
X495690Y50457D01*
X495707Y50531D01*
X495729Y50603D01*
X495753Y50675D01*
X495782Y50745D01*
X495814Y50813D01*
X495849Y50880D01*
X495888Y50945D01*
X495931Y51008D01*
X495976Y51068D01*
X496024Y51126D01*
X496076Y51182D01*
X496130Y51234D01*
X496187Y51284D01*
X496246Y51331D01*
X496307Y51375D01*
X496371Y51416D01*
X496437Y51453D01*
X496505Y51487D01*
X496574Y51517D01*
X496645Y51544D01*
X496717Y51567D01*
X496790Y51586D01*
X496864Y51601D01*
X496939Y51613D01*
X497014Y51621D01*
X497089Y51625D01*
X497165Y51625D01*
X497240Y51621D01*
X497315Y51613D01*
X497390Y51601D01*
X497464Y51586D01*
X497537Y51567D01*
X497609Y51544D01*
X497680Y51517D01*
X497749Y51487D01*
X497817Y51453D01*
X497883Y51416D01*
X497947Y51375D01*
X498008Y51331D01*
X498067Y51284D01*
X498124Y51234D01*
X498178Y51182D01*
X498230Y51126D01*
X498278Y51068D01*
X498323Y51008D01*
X498366Y50945D01*
X498405Y50880D01*
X498440Y50813D01*
X498472Y50745D01*
X498501Y50675D01*
X498525Y50603D01*
X498547Y50531D01*
X498564Y50457D01*
X498578Y50383D01*
X498587Y50308D01*
X498593Y50233D01*
X498595Y50157D01*
X498594Y50157D02*
X498594Y48690D01*
X512594Y36994D02*
X512594Y35894D01*
X512594Y36994D02*
X516263Y36994D01*
X516263Y34793D01*
X516264Y34793D02*
X516262Y34719D01*
X516256Y34644D01*
X516247Y34571D01*
X516234Y34497D01*
X516217Y34425D01*
X516197Y34354D01*
X516173Y34283D01*
X516145Y34214D01*
X516114Y34147D01*
X516080Y34081D01*
X516042Y34016D01*
X516001Y33954D01*
X515957Y33894D01*
X515910Y33837D01*
X515860Y33782D01*
X515807Y33729D01*
X515752Y33679D01*
X515695Y33632D01*
X515635Y33588D01*
X515573Y33547D01*
X515508Y33509D01*
X515443Y33475D01*
X515375Y33444D01*
X515306Y33416D01*
X515235Y33392D01*
X515164Y33372D01*
X515092Y33355D01*
X515018Y33342D01*
X514945Y33333D01*
X514870Y33327D01*
X514796Y33325D01*
X514796Y33326D02*
X511127Y33326D01*
X511127Y33325D02*
X511053Y33327D01*
X510978Y33333D01*
X510905Y33342D01*
X510831Y33355D01*
X510759Y33372D01*
X510688Y33392D01*
X510617Y33416D01*
X510548Y33444D01*
X510481Y33475D01*
X510415Y33509D01*
X510350Y33547D01*
X510288Y33588D01*
X510228Y33632D01*
X510171Y33679D01*
X510116Y33729D01*
X510063Y33782D01*
X510013Y33837D01*
X509966Y33894D01*
X509922Y33954D01*
X509881Y34016D01*
X509843Y34081D01*
X509809Y34146D01*
X509778Y34214D01*
X509750Y34283D01*
X509726Y34354D01*
X509706Y34425D01*
X509689Y34497D01*
X509676Y34571D01*
X509667Y34644D01*
X509661Y34719D01*
X509659Y34793D01*
X509659Y36994D01*
X509659Y41128D02*
X516263Y41128D01*
X516263Y44797D02*
X509659Y41128D01*
X509659Y44797D02*
X516263Y44797D01*
X516263Y48931D02*
X509659Y48931D01*
X509659Y50766D01*
X509660Y50766D02*
X509662Y50851D01*
X509668Y50935D01*
X509678Y51019D01*
X509691Y51103D01*
X509709Y51186D01*
X509730Y51268D01*
X509755Y51349D01*
X509784Y51429D01*
X509816Y51507D01*
X509852Y51583D01*
X509892Y51658D01*
X509935Y51731D01*
X509981Y51802D01*
X510030Y51871D01*
X510083Y51938D01*
X510139Y52002D01*
X510197Y52063D01*
X510258Y52121D01*
X510322Y52177D01*
X510389Y52230D01*
X510458Y52279D01*
X510529Y52325D01*
X510602Y52368D01*
X510677Y52408D01*
X510753Y52444D01*
X510832Y52476D01*
X510911Y52505D01*
X510992Y52530D01*
X511074Y52551D01*
X511157Y52569D01*
X511241Y52582D01*
X511325Y52592D01*
X511409Y52598D01*
X511494Y52600D01*
X514429Y52600D01*
X514514Y52598D01*
X514598Y52592D01*
X514682Y52582D01*
X514766Y52569D01*
X514849Y52551D01*
X514931Y52530D01*
X515012Y52505D01*
X515092Y52476D01*
X515170Y52444D01*
X515246Y52408D01*
X515321Y52368D01*
X515394Y52325D01*
X515465Y52279D01*
X515534Y52230D01*
X515601Y52177D01*
X515665Y52121D01*
X515726Y52063D01*
X515784Y52002D01*
X515840Y51938D01*
X515893Y51871D01*
X515942Y51802D01*
X515988Y51731D01*
X516031Y51658D01*
X516071Y51583D01*
X516107Y51507D01*
X516139Y51429D01*
X516168Y51349D01*
X516193Y51268D01*
X516214Y51186D01*
X516232Y51103D01*
X516245Y51019D01*
X516255Y50935D01*
X516261Y50851D01*
X516263Y50766D01*
X516263Y48931D01*
D13*
X100247Y258259D02*
X100165Y258257D01*
X100084Y258251D01*
X100003Y258242D01*
X99922Y258228D01*
X99843Y258211D01*
X99764Y258190D01*
X99686Y258165D01*
X99610Y258136D01*
X99535Y258104D01*
X99461Y258068D01*
X99390Y258029D01*
X99320Y257987D01*
X99252Y257941D01*
X99187Y257892D01*
X99124Y257840D01*
X99064Y257785D01*
X99006Y257727D01*
X98951Y257667D01*
X98899Y257604D01*
X98850Y257539D01*
X98804Y257471D01*
X98762Y257402D01*
X98723Y257330D01*
X98687Y257256D01*
X98655Y257181D01*
X98626Y257105D01*
X98601Y257027D01*
X98580Y256948D01*
X98563Y256869D01*
X98549Y256788D01*
X98540Y256707D01*
X98534Y256626D01*
X98532Y256544D01*
X98534Y256452D01*
X98540Y256360D01*
X98549Y256268D01*
X98563Y256176D01*
X98580Y256086D01*
X98601Y255996D01*
X98626Y255907D01*
X98655Y255819D01*
X98687Y255732D01*
X98723Y255647D01*
X98762Y255564D01*
X98805Y255482D01*
X98851Y255402D01*
X98901Y255324D01*
X98953Y255248D01*
X99009Y255175D01*
X99068Y255104D01*
X99130Y255035D01*
X99195Y254969D01*
X99262Y254906D01*
X99332Y254846D01*
X99404Y254788D01*
X99479Y254734D01*
X99556Y254683D01*
X99635Y254635D01*
X99716Y254591D01*
X99799Y254550D01*
X99883Y254512D01*
X99969Y254478D01*
X100056Y254448D01*
X101581Y257687D02*
X101522Y257746D01*
X101461Y257802D01*
X101398Y257855D01*
X101332Y257906D01*
X101264Y257953D01*
X101194Y257997D01*
X101122Y258038D01*
X101048Y258076D01*
X100973Y258110D01*
X100896Y258141D01*
X100818Y258168D01*
X100738Y258192D01*
X100658Y258213D01*
X100577Y258229D01*
X100495Y258242D01*
X100413Y258252D01*
X100330Y258257D01*
X100247Y258259D01*
X101580Y257687D02*
X105390Y254449D01*
X105390Y258259D01*
X105390Y261764D02*
X105390Y264050D01*
X105388Y264127D01*
X105382Y264204D01*
X105372Y264281D01*
X105359Y264357D01*
X105341Y264432D01*
X105320Y264506D01*
X105295Y264579D01*
X105266Y264651D01*
X105234Y264721D01*
X105199Y264790D01*
X105159Y264856D01*
X105117Y264921D01*
X105071Y264983D01*
X105022Y265043D01*
X104971Y265100D01*
X104916Y265155D01*
X104859Y265206D01*
X104799Y265255D01*
X104737Y265301D01*
X104672Y265343D01*
X104606Y265383D01*
X104537Y265418D01*
X104467Y265450D01*
X104395Y265479D01*
X104322Y265504D01*
X104248Y265525D01*
X104173Y265543D01*
X104097Y265556D01*
X104020Y265566D01*
X103943Y265572D01*
X103866Y265574D01*
X103104Y265574D01*
X103027Y265572D01*
X102950Y265566D01*
X102873Y265556D01*
X102797Y265543D01*
X102722Y265525D01*
X102648Y265504D01*
X102575Y265479D01*
X102503Y265450D01*
X102433Y265418D01*
X102364Y265383D01*
X102298Y265343D01*
X102233Y265301D01*
X102171Y265255D01*
X102111Y265206D01*
X102054Y265155D01*
X101999Y265100D01*
X101948Y265043D01*
X101899Y264983D01*
X101853Y264921D01*
X101811Y264856D01*
X101771Y264790D01*
X101736Y264721D01*
X101704Y264651D01*
X101675Y264579D01*
X101650Y264506D01*
X101629Y264432D01*
X101611Y264357D01*
X101598Y264281D01*
X101588Y264204D01*
X101582Y264127D01*
X101580Y264050D01*
X101580Y261764D01*
X98532Y261764D01*
X98532Y265574D01*
X112532Y256544D02*
X112534Y256626D01*
X112540Y256707D01*
X112549Y256788D01*
X112563Y256869D01*
X112580Y256948D01*
X112601Y257027D01*
X112626Y257105D01*
X112655Y257181D01*
X112687Y257256D01*
X112723Y257330D01*
X112762Y257402D01*
X112804Y257471D01*
X112850Y257539D01*
X112899Y257604D01*
X112951Y257667D01*
X113006Y257727D01*
X113064Y257785D01*
X113124Y257840D01*
X113187Y257892D01*
X113252Y257941D01*
X113320Y257987D01*
X113390Y258029D01*
X113461Y258068D01*
X113535Y258104D01*
X113610Y258136D01*
X113686Y258165D01*
X113764Y258190D01*
X113843Y258211D01*
X113922Y258228D01*
X114003Y258242D01*
X114084Y258251D01*
X114165Y258257D01*
X114247Y258259D01*
X112532Y256544D02*
X112534Y256452D01*
X112540Y256360D01*
X112549Y256268D01*
X112563Y256176D01*
X112580Y256086D01*
X112601Y255996D01*
X112626Y255907D01*
X112655Y255819D01*
X112687Y255732D01*
X112723Y255647D01*
X112762Y255564D01*
X112805Y255482D01*
X112851Y255402D01*
X112901Y255324D01*
X112953Y255248D01*
X113009Y255175D01*
X113068Y255104D01*
X113130Y255035D01*
X113195Y254969D01*
X113262Y254906D01*
X113332Y254846D01*
X113404Y254788D01*
X113479Y254734D01*
X113556Y254683D01*
X113635Y254635D01*
X113716Y254591D01*
X113799Y254550D01*
X113883Y254512D01*
X113969Y254478D01*
X114056Y254448D01*
X115581Y257687D02*
X115522Y257746D01*
X115461Y257802D01*
X115398Y257855D01*
X115332Y257906D01*
X115264Y257953D01*
X115194Y257997D01*
X115122Y258038D01*
X115048Y258076D01*
X114973Y258110D01*
X114896Y258141D01*
X114818Y258168D01*
X114738Y258192D01*
X114658Y258213D01*
X114577Y258229D01*
X114495Y258242D01*
X114413Y258252D01*
X114330Y258257D01*
X114247Y258259D01*
X115580Y257687D02*
X119390Y254449D01*
X119390Y258259D01*
X117866Y261764D02*
X112532Y263288D01*
X117866Y261764D02*
X117866Y265574D01*
X116342Y264431D02*
X119390Y264431D01*
X126247Y258259D02*
X126165Y258257D01*
X126084Y258251D01*
X126003Y258242D01*
X125922Y258228D01*
X125843Y258211D01*
X125764Y258190D01*
X125686Y258165D01*
X125610Y258136D01*
X125535Y258104D01*
X125461Y258068D01*
X125390Y258029D01*
X125320Y257987D01*
X125252Y257941D01*
X125187Y257892D01*
X125124Y257840D01*
X125064Y257785D01*
X125006Y257727D01*
X124951Y257667D01*
X124899Y257604D01*
X124850Y257539D01*
X124804Y257471D01*
X124762Y257402D01*
X124723Y257330D01*
X124687Y257256D01*
X124655Y257181D01*
X124626Y257105D01*
X124601Y257027D01*
X124580Y256948D01*
X124563Y256869D01*
X124549Y256788D01*
X124540Y256707D01*
X124534Y256626D01*
X124532Y256544D01*
X124534Y256452D01*
X124540Y256360D01*
X124549Y256268D01*
X124563Y256176D01*
X124580Y256086D01*
X124601Y255996D01*
X124626Y255907D01*
X124655Y255819D01*
X124687Y255732D01*
X124723Y255647D01*
X124762Y255564D01*
X124805Y255482D01*
X124851Y255402D01*
X124901Y255324D01*
X124953Y255248D01*
X125009Y255175D01*
X125068Y255104D01*
X125130Y255035D01*
X125195Y254969D01*
X125262Y254906D01*
X125332Y254846D01*
X125404Y254788D01*
X125479Y254734D01*
X125556Y254683D01*
X125635Y254635D01*
X125716Y254591D01*
X125799Y254550D01*
X125883Y254512D01*
X125969Y254478D01*
X126056Y254448D01*
X127581Y257687D02*
X127522Y257746D01*
X127461Y257802D01*
X127398Y257855D01*
X127332Y257906D01*
X127264Y257953D01*
X127194Y257997D01*
X127122Y258038D01*
X127048Y258076D01*
X126973Y258110D01*
X126896Y258141D01*
X126818Y258168D01*
X126738Y258192D01*
X126658Y258213D01*
X126577Y258229D01*
X126495Y258242D01*
X126413Y258252D01*
X126330Y258257D01*
X126247Y258259D01*
X127580Y257687D02*
X131390Y254449D01*
X131390Y258259D01*
X131390Y261764D02*
X131390Y263669D01*
X131388Y263754D01*
X131382Y263840D01*
X131373Y263925D01*
X131359Y264009D01*
X131342Y264093D01*
X131321Y264176D01*
X131297Y264258D01*
X131269Y264338D01*
X131237Y264418D01*
X131201Y264496D01*
X131163Y264572D01*
X131120Y264646D01*
X131075Y264718D01*
X131026Y264789D01*
X130974Y264857D01*
X130920Y264922D01*
X130862Y264985D01*
X130801Y265046D01*
X130738Y265104D01*
X130673Y265158D01*
X130605Y265210D01*
X130534Y265259D01*
X130462Y265304D01*
X130388Y265347D01*
X130312Y265385D01*
X130234Y265421D01*
X130154Y265453D01*
X130074Y265481D01*
X129992Y265505D01*
X129909Y265526D01*
X129825Y265543D01*
X129741Y265557D01*
X129656Y265566D01*
X129570Y265572D01*
X129485Y265574D01*
X129400Y265572D01*
X129314Y265566D01*
X129229Y265557D01*
X129145Y265543D01*
X129061Y265526D01*
X128978Y265505D01*
X128896Y265481D01*
X128816Y265453D01*
X128736Y265421D01*
X128658Y265385D01*
X128582Y265347D01*
X128508Y265304D01*
X128436Y265259D01*
X128365Y265210D01*
X128297Y265158D01*
X128232Y265104D01*
X128169Y265046D01*
X128108Y264985D01*
X128050Y264922D01*
X127996Y264857D01*
X127944Y264789D01*
X127895Y264718D01*
X127850Y264646D01*
X127807Y264572D01*
X127769Y264496D01*
X127733Y264418D01*
X127701Y264338D01*
X127673Y264258D01*
X127649Y264176D01*
X127628Y264093D01*
X127611Y264009D01*
X127597Y263925D01*
X127588Y263840D01*
X127582Y263754D01*
X127580Y263669D01*
X124532Y264050D02*
X124532Y261764D01*
X124532Y264050D02*
X124534Y264127D01*
X124540Y264204D01*
X124550Y264281D01*
X124563Y264357D01*
X124581Y264432D01*
X124602Y264506D01*
X124627Y264579D01*
X124656Y264651D01*
X124688Y264721D01*
X124723Y264790D01*
X124763Y264856D01*
X124805Y264921D01*
X124851Y264983D01*
X124900Y265043D01*
X124951Y265100D01*
X125006Y265155D01*
X125063Y265206D01*
X125123Y265255D01*
X125185Y265301D01*
X125250Y265343D01*
X125316Y265383D01*
X125385Y265418D01*
X125455Y265450D01*
X125527Y265479D01*
X125600Y265504D01*
X125674Y265525D01*
X125749Y265543D01*
X125825Y265556D01*
X125902Y265566D01*
X125979Y265572D01*
X126056Y265574D01*
X126133Y265572D01*
X126210Y265566D01*
X126287Y265556D01*
X126363Y265543D01*
X126438Y265525D01*
X126512Y265504D01*
X126585Y265479D01*
X126657Y265450D01*
X126727Y265418D01*
X126796Y265383D01*
X126862Y265343D01*
X126927Y265301D01*
X126989Y265255D01*
X127049Y265206D01*
X127106Y265155D01*
X127161Y265100D01*
X127212Y265043D01*
X127261Y264983D01*
X127307Y264921D01*
X127349Y264856D01*
X127389Y264790D01*
X127424Y264721D01*
X127456Y264651D01*
X127485Y264579D01*
X127510Y264506D01*
X127531Y264432D01*
X127549Y264357D01*
X127562Y264281D01*
X127572Y264204D01*
X127578Y264127D01*
X127580Y264050D01*
X127580Y262526D01*
X136532Y256544D02*
X136534Y256626D01*
X136540Y256707D01*
X136549Y256788D01*
X136563Y256869D01*
X136580Y256948D01*
X136601Y257027D01*
X136626Y257105D01*
X136655Y257181D01*
X136687Y257256D01*
X136723Y257330D01*
X136762Y257402D01*
X136804Y257471D01*
X136850Y257539D01*
X136899Y257604D01*
X136951Y257667D01*
X137006Y257727D01*
X137064Y257785D01*
X137124Y257840D01*
X137187Y257892D01*
X137252Y257941D01*
X137320Y257987D01*
X137390Y258029D01*
X137461Y258068D01*
X137535Y258104D01*
X137610Y258136D01*
X137686Y258165D01*
X137764Y258190D01*
X137843Y258211D01*
X137922Y258228D01*
X138003Y258242D01*
X138084Y258251D01*
X138165Y258257D01*
X138247Y258259D01*
X136532Y256544D02*
X136534Y256452D01*
X136540Y256360D01*
X136549Y256268D01*
X136563Y256176D01*
X136580Y256086D01*
X136601Y255996D01*
X136626Y255907D01*
X136655Y255819D01*
X136687Y255732D01*
X136723Y255647D01*
X136762Y255564D01*
X136805Y255482D01*
X136851Y255402D01*
X136901Y255324D01*
X136953Y255248D01*
X137009Y255175D01*
X137068Y255104D01*
X137130Y255035D01*
X137195Y254969D01*
X137262Y254906D01*
X137332Y254846D01*
X137404Y254788D01*
X137479Y254734D01*
X137556Y254683D01*
X137635Y254635D01*
X137716Y254591D01*
X137799Y254550D01*
X137883Y254512D01*
X137969Y254478D01*
X138056Y254448D01*
X139581Y257687D02*
X139522Y257746D01*
X139461Y257802D01*
X139398Y257855D01*
X139332Y257906D01*
X139264Y257953D01*
X139194Y257997D01*
X139122Y258038D01*
X139048Y258076D01*
X138973Y258110D01*
X138896Y258141D01*
X138818Y258168D01*
X138738Y258192D01*
X138658Y258213D01*
X138577Y258229D01*
X138495Y258242D01*
X138413Y258252D01*
X138330Y258257D01*
X138247Y258259D01*
X139580Y257687D02*
X143390Y254449D01*
X143390Y258259D01*
X136532Y263859D02*
X136534Y263941D01*
X136540Y264022D01*
X136549Y264103D01*
X136563Y264184D01*
X136580Y264263D01*
X136601Y264342D01*
X136626Y264420D01*
X136655Y264496D01*
X136687Y264571D01*
X136723Y264645D01*
X136762Y264717D01*
X136804Y264786D01*
X136850Y264854D01*
X136899Y264919D01*
X136951Y264982D01*
X137006Y265042D01*
X137064Y265100D01*
X137124Y265155D01*
X137187Y265207D01*
X137252Y265256D01*
X137320Y265302D01*
X137390Y265344D01*
X137461Y265383D01*
X137535Y265419D01*
X137610Y265451D01*
X137686Y265480D01*
X137764Y265505D01*
X137843Y265526D01*
X137922Y265543D01*
X138003Y265557D01*
X138084Y265566D01*
X138165Y265572D01*
X138247Y265574D01*
X136532Y263859D02*
X136534Y263767D01*
X136540Y263675D01*
X136549Y263583D01*
X136563Y263491D01*
X136580Y263401D01*
X136601Y263311D01*
X136626Y263222D01*
X136655Y263134D01*
X136687Y263047D01*
X136723Y262962D01*
X136762Y262879D01*
X136805Y262797D01*
X136851Y262717D01*
X136901Y262639D01*
X136953Y262563D01*
X137009Y262490D01*
X137068Y262419D01*
X137130Y262350D01*
X137195Y262284D01*
X137262Y262221D01*
X137332Y262161D01*
X137404Y262103D01*
X137479Y262049D01*
X137556Y261998D01*
X137635Y261950D01*
X137716Y261906D01*
X137799Y261865D01*
X137883Y261827D01*
X137969Y261793D01*
X138056Y261763D01*
X139581Y265002D02*
X139522Y265061D01*
X139461Y265117D01*
X139398Y265170D01*
X139332Y265221D01*
X139264Y265268D01*
X139194Y265312D01*
X139122Y265353D01*
X139048Y265391D01*
X138973Y265425D01*
X138896Y265456D01*
X138818Y265483D01*
X138738Y265507D01*
X138658Y265528D01*
X138577Y265544D01*
X138495Y265557D01*
X138413Y265567D01*
X138330Y265572D01*
X138247Y265574D01*
X139580Y265002D02*
X143390Y261764D01*
X143390Y265574D01*
X151247Y258259D02*
X151165Y258257D01*
X151084Y258251D01*
X151003Y258242D01*
X150922Y258228D01*
X150843Y258211D01*
X150764Y258190D01*
X150686Y258165D01*
X150610Y258136D01*
X150535Y258104D01*
X150461Y258068D01*
X150390Y258029D01*
X150320Y257987D01*
X150252Y257941D01*
X150187Y257892D01*
X150124Y257840D01*
X150064Y257785D01*
X150006Y257727D01*
X149951Y257667D01*
X149899Y257604D01*
X149850Y257539D01*
X149804Y257471D01*
X149762Y257402D01*
X149723Y257330D01*
X149687Y257256D01*
X149655Y257181D01*
X149626Y257105D01*
X149601Y257027D01*
X149580Y256948D01*
X149563Y256869D01*
X149549Y256788D01*
X149540Y256707D01*
X149534Y256626D01*
X149532Y256544D01*
X149534Y256452D01*
X149540Y256360D01*
X149549Y256268D01*
X149563Y256176D01*
X149580Y256086D01*
X149601Y255996D01*
X149626Y255907D01*
X149655Y255819D01*
X149687Y255732D01*
X149723Y255647D01*
X149762Y255564D01*
X149805Y255482D01*
X149851Y255402D01*
X149901Y255324D01*
X149953Y255248D01*
X150009Y255175D01*
X150068Y255104D01*
X150130Y255035D01*
X150195Y254969D01*
X150262Y254906D01*
X150332Y254846D01*
X150404Y254788D01*
X150479Y254734D01*
X150556Y254683D01*
X150635Y254635D01*
X150716Y254591D01*
X150799Y254550D01*
X150883Y254512D01*
X150969Y254478D01*
X151056Y254448D01*
X152581Y257687D02*
X152522Y257746D01*
X152461Y257802D01*
X152398Y257855D01*
X152332Y257906D01*
X152264Y257953D01*
X152194Y257997D01*
X152122Y258038D01*
X152048Y258076D01*
X151973Y258110D01*
X151896Y258141D01*
X151818Y258168D01*
X151738Y258192D01*
X151658Y258213D01*
X151577Y258229D01*
X151495Y258242D01*
X151413Y258252D01*
X151330Y258257D01*
X151247Y258259D01*
X152580Y257687D02*
X156390Y254449D01*
X156390Y258259D01*
X151056Y261764D02*
X149532Y263669D01*
X156390Y263669D01*
X156390Y261764D02*
X156390Y265574D01*
X164247Y258259D02*
X164165Y258257D01*
X164084Y258251D01*
X164003Y258242D01*
X163922Y258228D01*
X163843Y258211D01*
X163764Y258190D01*
X163686Y258165D01*
X163610Y258136D01*
X163535Y258104D01*
X163461Y258068D01*
X163390Y258029D01*
X163320Y257987D01*
X163252Y257941D01*
X163187Y257892D01*
X163124Y257840D01*
X163064Y257785D01*
X163006Y257727D01*
X162951Y257667D01*
X162899Y257604D01*
X162850Y257539D01*
X162804Y257471D01*
X162762Y257402D01*
X162723Y257330D01*
X162687Y257256D01*
X162655Y257181D01*
X162626Y257105D01*
X162601Y257027D01*
X162580Y256948D01*
X162563Y256869D01*
X162549Y256788D01*
X162540Y256707D01*
X162534Y256626D01*
X162532Y256544D01*
X162534Y256452D01*
X162540Y256360D01*
X162549Y256268D01*
X162563Y256176D01*
X162580Y256086D01*
X162601Y255996D01*
X162626Y255907D01*
X162655Y255819D01*
X162687Y255732D01*
X162723Y255647D01*
X162762Y255564D01*
X162805Y255482D01*
X162851Y255402D01*
X162901Y255324D01*
X162953Y255248D01*
X163009Y255175D01*
X163068Y255104D01*
X163130Y255035D01*
X163195Y254969D01*
X163262Y254906D01*
X163332Y254846D01*
X163404Y254788D01*
X163479Y254734D01*
X163556Y254683D01*
X163635Y254635D01*
X163716Y254591D01*
X163799Y254550D01*
X163883Y254512D01*
X163969Y254478D01*
X164056Y254448D01*
X165581Y257687D02*
X165522Y257746D01*
X165461Y257802D01*
X165398Y257855D01*
X165332Y257906D01*
X165264Y257953D01*
X165194Y257997D01*
X165122Y258038D01*
X165048Y258076D01*
X164973Y258110D01*
X164896Y258141D01*
X164818Y258168D01*
X164738Y258192D01*
X164658Y258213D01*
X164577Y258229D01*
X164495Y258242D01*
X164413Y258252D01*
X164330Y258257D01*
X164247Y258259D01*
X165580Y257687D02*
X169390Y254449D01*
X169390Y258259D01*
X165961Y261763D02*
X165819Y261765D01*
X165676Y261770D01*
X165534Y261779D01*
X165392Y261792D01*
X165251Y261808D01*
X165110Y261827D01*
X164969Y261851D01*
X164829Y261877D01*
X164690Y261908D01*
X164552Y261942D01*
X164414Y261979D01*
X164278Y262019D01*
X164142Y262064D01*
X164008Y262111D01*
X163875Y262162D01*
X163743Y262216D01*
X163613Y262274D01*
X163484Y262335D01*
X163485Y262335D02*
X163416Y262361D01*
X163350Y262390D01*
X163284Y262422D01*
X163221Y262457D01*
X163159Y262496D01*
X163099Y262538D01*
X163042Y262583D01*
X162987Y262631D01*
X162935Y262682D01*
X162885Y262735D01*
X162839Y262791D01*
X162795Y262849D01*
X162754Y262910D01*
X162716Y262972D01*
X162682Y263036D01*
X162651Y263102D01*
X162623Y263170D01*
X162599Y263239D01*
X162579Y263309D01*
X162562Y263380D01*
X162549Y263451D01*
X162540Y263523D01*
X162534Y263596D01*
X162532Y263669D01*
X162534Y263742D01*
X162540Y263815D01*
X162549Y263887D01*
X162562Y263958D01*
X162579Y264029D01*
X162599Y264099D01*
X162623Y264168D01*
X162651Y264236D01*
X162682Y264302D01*
X162716Y264366D01*
X162754Y264428D01*
X162795Y264489D01*
X162839Y264547D01*
X162885Y264603D01*
X162935Y264656D01*
X162987Y264707D01*
X163042Y264755D01*
X163099Y264800D01*
X163159Y264842D01*
X163221Y264881D01*
X163284Y264916D01*
X163350Y264948D01*
X163416Y264977D01*
X163485Y265003D01*
X163484Y265002D02*
X163613Y265063D01*
X163743Y265121D01*
X163875Y265175D01*
X164008Y265226D01*
X164142Y265273D01*
X164278Y265318D01*
X164414Y265358D01*
X164552Y265395D01*
X164690Y265429D01*
X164829Y265460D01*
X164969Y265486D01*
X165110Y265510D01*
X165251Y265529D01*
X165392Y265545D01*
X165534Y265558D01*
X165676Y265567D01*
X165819Y265572D01*
X165961Y265574D01*
X165961Y261763D02*
X166103Y261765D01*
X166246Y261770D01*
X166388Y261779D01*
X166530Y261792D01*
X166671Y261808D01*
X166812Y261827D01*
X166953Y261851D01*
X167093Y261877D01*
X167232Y261908D01*
X167370Y261942D01*
X167508Y261979D01*
X167644Y262019D01*
X167780Y262064D01*
X167914Y262111D01*
X168047Y262162D01*
X168179Y262216D01*
X168309Y262274D01*
X168438Y262335D01*
X168437Y262335D02*
X168506Y262361D01*
X168572Y262390D01*
X168638Y262422D01*
X168701Y262457D01*
X168763Y262496D01*
X168823Y262538D01*
X168880Y262583D01*
X168935Y262631D01*
X168987Y262682D01*
X169037Y262735D01*
X169083Y262791D01*
X169127Y262849D01*
X169168Y262910D01*
X169206Y262972D01*
X169240Y263036D01*
X169271Y263102D01*
X169299Y263170D01*
X169323Y263239D01*
X169343Y263309D01*
X169360Y263380D01*
X169373Y263451D01*
X169382Y263523D01*
X169388Y263596D01*
X169390Y263669D01*
X168438Y265002D02*
X168309Y265063D01*
X168179Y265121D01*
X168047Y265175D01*
X167914Y265226D01*
X167780Y265273D01*
X167644Y265318D01*
X167508Y265358D01*
X167370Y265395D01*
X167232Y265429D01*
X167093Y265460D01*
X166953Y265486D01*
X166812Y265510D01*
X166671Y265529D01*
X166530Y265545D01*
X166388Y265558D01*
X166246Y265567D01*
X166103Y265572D01*
X165961Y265574D01*
X168437Y265003D02*
X168506Y264977D01*
X168572Y264948D01*
X168638Y264916D01*
X168701Y264881D01*
X168763Y264842D01*
X168823Y264800D01*
X168880Y264755D01*
X168935Y264707D01*
X168987Y264656D01*
X169037Y264603D01*
X169083Y264547D01*
X169127Y264489D01*
X169168Y264428D01*
X169206Y264366D01*
X169240Y264302D01*
X169271Y264236D01*
X169299Y264168D01*
X169323Y264099D01*
X169343Y264029D01*
X169360Y263958D01*
X169373Y263887D01*
X169382Y263815D01*
X169388Y263742D01*
X169390Y263669D01*
X167866Y262145D02*
X164056Y265193D01*
X175532Y256354D02*
X177056Y254449D01*
X175532Y256354D02*
X182390Y256354D01*
X182390Y254449D02*
X182390Y258259D01*
X179342Y263288D02*
X179342Y265574D01*
X179342Y263288D02*
X179340Y263211D01*
X179334Y263134D01*
X179324Y263057D01*
X179311Y262981D01*
X179293Y262906D01*
X179272Y262832D01*
X179247Y262759D01*
X179218Y262687D01*
X179186Y262617D01*
X179151Y262548D01*
X179111Y262482D01*
X179069Y262417D01*
X179023Y262355D01*
X178974Y262295D01*
X178923Y262238D01*
X178868Y262183D01*
X178811Y262132D01*
X178751Y262083D01*
X178689Y262037D01*
X178624Y261995D01*
X178558Y261955D01*
X178489Y261920D01*
X178419Y261888D01*
X178347Y261859D01*
X178274Y261834D01*
X178200Y261813D01*
X178125Y261795D01*
X178049Y261782D01*
X177972Y261772D01*
X177895Y261766D01*
X177818Y261764D01*
X177437Y261764D01*
X177352Y261766D01*
X177266Y261772D01*
X177181Y261781D01*
X177097Y261795D01*
X177013Y261812D01*
X176930Y261833D01*
X176848Y261857D01*
X176768Y261885D01*
X176688Y261917D01*
X176610Y261953D01*
X176534Y261991D01*
X176460Y262034D01*
X176388Y262079D01*
X176317Y262128D01*
X176249Y262180D01*
X176184Y262234D01*
X176121Y262292D01*
X176060Y262353D01*
X176002Y262416D01*
X175948Y262481D01*
X175896Y262549D01*
X175847Y262620D01*
X175802Y262692D01*
X175759Y262766D01*
X175721Y262842D01*
X175685Y262920D01*
X175653Y263000D01*
X175625Y263080D01*
X175601Y263162D01*
X175580Y263245D01*
X175563Y263329D01*
X175549Y263413D01*
X175540Y263498D01*
X175534Y263584D01*
X175532Y263669D01*
X175534Y263754D01*
X175540Y263840D01*
X175549Y263925D01*
X175563Y264009D01*
X175580Y264093D01*
X175601Y264176D01*
X175625Y264258D01*
X175653Y264338D01*
X175685Y264418D01*
X175721Y264496D01*
X175759Y264572D01*
X175802Y264646D01*
X175847Y264718D01*
X175896Y264789D01*
X175948Y264857D01*
X176002Y264922D01*
X176060Y264985D01*
X176121Y265046D01*
X176184Y265104D01*
X176249Y265158D01*
X176317Y265210D01*
X176388Y265259D01*
X176460Y265304D01*
X176534Y265347D01*
X176610Y265385D01*
X176688Y265421D01*
X176768Y265453D01*
X176848Y265481D01*
X176930Y265505D01*
X177013Y265526D01*
X177097Y265543D01*
X177181Y265557D01*
X177266Y265566D01*
X177352Y265572D01*
X177437Y265574D01*
X179342Y265574D01*
X179451Y265572D01*
X179559Y265566D01*
X179668Y265557D01*
X179776Y265543D01*
X179883Y265526D01*
X179990Y265504D01*
X180096Y265479D01*
X180201Y265451D01*
X180305Y265418D01*
X180407Y265382D01*
X180508Y265342D01*
X180608Y265299D01*
X180706Y265252D01*
X180803Y265201D01*
X180897Y265147D01*
X180990Y265090D01*
X181080Y265030D01*
X181169Y264966D01*
X181255Y264899D01*
X181338Y264830D01*
X181419Y264757D01*
X181497Y264681D01*
X181573Y264603D01*
X181646Y264522D01*
X181715Y264439D01*
X181782Y264353D01*
X181846Y264264D01*
X181906Y264174D01*
X181963Y264081D01*
X182017Y263987D01*
X182068Y263890D01*
X182115Y263792D01*
X182158Y263692D01*
X182198Y263591D01*
X182234Y263489D01*
X182267Y263385D01*
X182295Y263280D01*
X182320Y263174D01*
X182342Y263067D01*
X182359Y262960D01*
X182373Y262852D01*
X182382Y262743D01*
X182388Y262635D01*
X182390Y262526D01*
X187532Y256354D02*
X189056Y254449D01*
X187532Y256354D02*
X194390Y256354D01*
X194390Y254449D02*
X194390Y258259D01*
X192485Y261764D02*
X192400Y261766D01*
X192314Y261772D01*
X192229Y261781D01*
X192145Y261795D01*
X192061Y261812D01*
X191978Y261833D01*
X191896Y261857D01*
X191816Y261885D01*
X191736Y261917D01*
X191658Y261953D01*
X191582Y261991D01*
X191508Y262034D01*
X191436Y262079D01*
X191365Y262128D01*
X191297Y262180D01*
X191232Y262234D01*
X191169Y262292D01*
X191108Y262353D01*
X191050Y262416D01*
X190996Y262481D01*
X190944Y262549D01*
X190895Y262620D01*
X190850Y262692D01*
X190807Y262766D01*
X190769Y262842D01*
X190733Y262920D01*
X190701Y263000D01*
X190673Y263080D01*
X190649Y263162D01*
X190628Y263245D01*
X190611Y263329D01*
X190597Y263413D01*
X190588Y263498D01*
X190582Y263584D01*
X190580Y263669D01*
X190582Y263754D01*
X190588Y263840D01*
X190597Y263925D01*
X190611Y264009D01*
X190628Y264093D01*
X190649Y264176D01*
X190673Y264258D01*
X190701Y264338D01*
X190733Y264418D01*
X190769Y264496D01*
X190807Y264572D01*
X190850Y264646D01*
X190895Y264718D01*
X190944Y264789D01*
X190996Y264857D01*
X191050Y264922D01*
X191108Y264985D01*
X191169Y265046D01*
X191232Y265104D01*
X191297Y265158D01*
X191365Y265210D01*
X191436Y265259D01*
X191508Y265304D01*
X191582Y265347D01*
X191658Y265385D01*
X191736Y265421D01*
X191816Y265453D01*
X191896Y265481D01*
X191978Y265505D01*
X192061Y265526D01*
X192145Y265543D01*
X192229Y265557D01*
X192314Y265566D01*
X192400Y265572D01*
X192485Y265574D01*
X192570Y265572D01*
X192656Y265566D01*
X192741Y265557D01*
X192825Y265543D01*
X192909Y265526D01*
X192992Y265505D01*
X193074Y265481D01*
X193154Y265453D01*
X193234Y265421D01*
X193312Y265385D01*
X193388Y265347D01*
X193462Y265304D01*
X193534Y265259D01*
X193605Y265210D01*
X193673Y265158D01*
X193738Y265104D01*
X193801Y265046D01*
X193862Y264985D01*
X193920Y264922D01*
X193974Y264857D01*
X194026Y264789D01*
X194075Y264718D01*
X194120Y264646D01*
X194163Y264572D01*
X194201Y264496D01*
X194237Y264418D01*
X194269Y264338D01*
X194297Y264258D01*
X194321Y264176D01*
X194342Y264093D01*
X194359Y264009D01*
X194373Y263925D01*
X194382Y263840D01*
X194388Y263754D01*
X194390Y263669D01*
X194388Y263584D01*
X194382Y263498D01*
X194373Y263413D01*
X194359Y263329D01*
X194342Y263245D01*
X194321Y263162D01*
X194297Y263080D01*
X194269Y263000D01*
X194237Y262920D01*
X194201Y262842D01*
X194163Y262766D01*
X194120Y262692D01*
X194075Y262620D01*
X194026Y262549D01*
X193974Y262481D01*
X193920Y262416D01*
X193862Y262353D01*
X193801Y262292D01*
X193738Y262234D01*
X193673Y262180D01*
X193605Y262128D01*
X193534Y262079D01*
X193462Y262034D01*
X193388Y261991D01*
X193312Y261953D01*
X193234Y261917D01*
X193154Y261885D01*
X193074Y261857D01*
X192992Y261833D01*
X192909Y261812D01*
X192825Y261795D01*
X192741Y261781D01*
X192656Y261772D01*
X192570Y261766D01*
X192485Y261764D01*
X189056Y262145D02*
X188979Y262147D01*
X188902Y262153D01*
X188825Y262163D01*
X188749Y262176D01*
X188674Y262194D01*
X188600Y262215D01*
X188527Y262240D01*
X188455Y262269D01*
X188385Y262301D01*
X188316Y262336D01*
X188250Y262376D01*
X188185Y262418D01*
X188123Y262464D01*
X188063Y262513D01*
X188006Y262564D01*
X187951Y262619D01*
X187900Y262676D01*
X187851Y262736D01*
X187805Y262798D01*
X187763Y262863D01*
X187723Y262929D01*
X187688Y262998D01*
X187656Y263068D01*
X187627Y263140D01*
X187602Y263213D01*
X187581Y263287D01*
X187563Y263362D01*
X187550Y263438D01*
X187540Y263515D01*
X187534Y263592D01*
X187532Y263669D01*
X187534Y263746D01*
X187540Y263823D01*
X187550Y263900D01*
X187563Y263976D01*
X187581Y264051D01*
X187602Y264125D01*
X187627Y264198D01*
X187656Y264270D01*
X187688Y264340D01*
X187723Y264409D01*
X187763Y264475D01*
X187805Y264540D01*
X187851Y264602D01*
X187900Y264662D01*
X187951Y264719D01*
X188006Y264774D01*
X188063Y264825D01*
X188123Y264874D01*
X188185Y264920D01*
X188250Y264962D01*
X188316Y265002D01*
X188385Y265037D01*
X188455Y265069D01*
X188527Y265098D01*
X188600Y265123D01*
X188674Y265144D01*
X188749Y265162D01*
X188825Y265175D01*
X188902Y265185D01*
X188979Y265191D01*
X189056Y265193D01*
X189133Y265191D01*
X189210Y265185D01*
X189287Y265175D01*
X189363Y265162D01*
X189438Y265144D01*
X189512Y265123D01*
X189585Y265098D01*
X189657Y265069D01*
X189727Y265037D01*
X189796Y265002D01*
X189862Y264962D01*
X189927Y264920D01*
X189989Y264874D01*
X190049Y264825D01*
X190106Y264774D01*
X190161Y264719D01*
X190212Y264662D01*
X190261Y264602D01*
X190307Y264540D01*
X190349Y264475D01*
X190389Y264409D01*
X190424Y264340D01*
X190456Y264270D01*
X190485Y264198D01*
X190510Y264125D01*
X190531Y264051D01*
X190549Y263976D01*
X190562Y263900D01*
X190572Y263823D01*
X190578Y263746D01*
X190580Y263669D01*
X190578Y263592D01*
X190572Y263515D01*
X190562Y263438D01*
X190549Y263362D01*
X190531Y263287D01*
X190510Y263213D01*
X190485Y263140D01*
X190456Y263068D01*
X190424Y262998D01*
X190389Y262929D01*
X190349Y262863D01*
X190307Y262798D01*
X190261Y262736D01*
X190212Y262676D01*
X190161Y262619D01*
X190106Y262564D01*
X190049Y262513D01*
X189989Y262464D01*
X189927Y262418D01*
X189862Y262376D01*
X189796Y262336D01*
X189727Y262301D01*
X189657Y262269D01*
X189585Y262240D01*
X189512Y262215D01*
X189438Y262194D01*
X189363Y262176D01*
X189287Y262163D01*
X189210Y262153D01*
X189133Y262147D01*
X189056Y262145D01*
X200532Y256354D02*
X202056Y254449D01*
X200532Y256354D02*
X207390Y256354D01*
X207390Y254449D02*
X207390Y258259D01*
X201294Y261764D02*
X200532Y261764D01*
X200532Y265574D01*
X207390Y263669D01*
X213532Y256354D02*
X215056Y254449D01*
X213532Y256354D02*
X220390Y256354D01*
X220390Y254449D02*
X220390Y258259D01*
X216580Y261764D02*
X216580Y264050D01*
X216582Y264127D01*
X216588Y264204D01*
X216598Y264281D01*
X216611Y264357D01*
X216629Y264432D01*
X216650Y264506D01*
X216675Y264579D01*
X216704Y264651D01*
X216736Y264721D01*
X216771Y264790D01*
X216811Y264856D01*
X216853Y264921D01*
X216899Y264983D01*
X216948Y265043D01*
X216999Y265100D01*
X217054Y265155D01*
X217111Y265206D01*
X217171Y265255D01*
X217233Y265301D01*
X217298Y265343D01*
X217364Y265383D01*
X217433Y265418D01*
X217503Y265450D01*
X217575Y265479D01*
X217648Y265504D01*
X217722Y265525D01*
X217797Y265543D01*
X217873Y265556D01*
X217950Y265566D01*
X218027Y265572D01*
X218104Y265574D01*
X218485Y265574D01*
X218570Y265572D01*
X218656Y265566D01*
X218741Y265557D01*
X218825Y265543D01*
X218909Y265526D01*
X218992Y265505D01*
X219074Y265481D01*
X219154Y265453D01*
X219234Y265421D01*
X219312Y265385D01*
X219388Y265347D01*
X219462Y265304D01*
X219534Y265259D01*
X219605Y265210D01*
X219673Y265158D01*
X219738Y265104D01*
X219801Y265046D01*
X219862Y264985D01*
X219920Y264922D01*
X219974Y264857D01*
X220026Y264789D01*
X220075Y264718D01*
X220120Y264646D01*
X220163Y264572D01*
X220201Y264496D01*
X220237Y264418D01*
X220269Y264338D01*
X220297Y264258D01*
X220321Y264176D01*
X220342Y264093D01*
X220359Y264009D01*
X220373Y263925D01*
X220382Y263840D01*
X220388Y263754D01*
X220390Y263669D01*
X220388Y263584D01*
X220382Y263498D01*
X220373Y263413D01*
X220359Y263329D01*
X220342Y263245D01*
X220321Y263162D01*
X220297Y263080D01*
X220269Y263000D01*
X220237Y262920D01*
X220201Y262842D01*
X220163Y262766D01*
X220120Y262692D01*
X220075Y262620D01*
X220026Y262549D01*
X219974Y262481D01*
X219920Y262416D01*
X219862Y262353D01*
X219801Y262292D01*
X219738Y262234D01*
X219673Y262180D01*
X219605Y262128D01*
X219534Y262079D01*
X219462Y262034D01*
X219388Y261991D01*
X219312Y261953D01*
X219234Y261917D01*
X219154Y261885D01*
X219074Y261857D01*
X218992Y261833D01*
X218909Y261812D01*
X218825Y261795D01*
X218741Y261781D01*
X218656Y261772D01*
X218570Y261766D01*
X218485Y261764D01*
X216580Y261764D01*
X216471Y261766D01*
X216363Y261772D01*
X216254Y261781D01*
X216146Y261795D01*
X216039Y261812D01*
X215932Y261834D01*
X215826Y261859D01*
X215721Y261887D01*
X215617Y261920D01*
X215515Y261956D01*
X215414Y261996D01*
X215314Y262039D01*
X215216Y262086D01*
X215119Y262137D01*
X215025Y262191D01*
X214932Y262248D01*
X214842Y262308D01*
X214753Y262372D01*
X214667Y262439D01*
X214584Y262508D01*
X214503Y262581D01*
X214425Y262657D01*
X214349Y262735D01*
X214276Y262816D01*
X214207Y262899D01*
X214140Y262985D01*
X214076Y263074D01*
X214016Y263164D01*
X213959Y263257D01*
X213905Y263351D01*
X213854Y263448D01*
X213807Y263546D01*
X213764Y263646D01*
X213724Y263747D01*
X213688Y263849D01*
X213655Y263953D01*
X213627Y264058D01*
X213602Y264164D01*
X213580Y264271D01*
X213563Y264378D01*
X213549Y264486D01*
X213540Y264595D01*
X213534Y264703D01*
X213532Y264812D01*
X233390Y248354D02*
X233390Y246449D01*
X233390Y248354D02*
X233388Y248439D01*
X233382Y248525D01*
X233373Y248610D01*
X233359Y248694D01*
X233342Y248778D01*
X233321Y248861D01*
X233297Y248943D01*
X233269Y249023D01*
X233237Y249103D01*
X233201Y249181D01*
X233163Y249257D01*
X233120Y249331D01*
X233075Y249403D01*
X233026Y249474D01*
X232974Y249542D01*
X232920Y249607D01*
X232862Y249670D01*
X232801Y249731D01*
X232738Y249789D01*
X232673Y249843D01*
X232605Y249895D01*
X232534Y249944D01*
X232462Y249989D01*
X232388Y250032D01*
X232312Y250070D01*
X232234Y250106D01*
X232154Y250138D01*
X232074Y250166D01*
X231992Y250190D01*
X231909Y250211D01*
X231825Y250228D01*
X231741Y250242D01*
X231656Y250251D01*
X231570Y250257D01*
X231485Y250259D01*
X231400Y250257D01*
X231314Y250251D01*
X231229Y250242D01*
X231145Y250228D01*
X231061Y250211D01*
X230978Y250190D01*
X230896Y250166D01*
X230816Y250138D01*
X230736Y250106D01*
X230658Y250070D01*
X230582Y250032D01*
X230508Y249989D01*
X230436Y249944D01*
X230365Y249895D01*
X230297Y249843D01*
X230232Y249789D01*
X230169Y249731D01*
X230108Y249670D01*
X230050Y249607D01*
X229996Y249542D01*
X229944Y249474D01*
X229895Y249403D01*
X229850Y249331D01*
X229807Y249257D01*
X229769Y249181D01*
X229733Y249103D01*
X229701Y249023D01*
X229673Y248943D01*
X229649Y248861D01*
X229628Y248778D01*
X229611Y248694D01*
X229597Y248610D01*
X229588Y248525D01*
X229582Y248439D01*
X229580Y248354D01*
X226532Y248735D02*
X226532Y246449D01*
X226532Y248735D02*
X226534Y248812D01*
X226540Y248889D01*
X226550Y248966D01*
X226563Y249042D01*
X226581Y249117D01*
X226602Y249191D01*
X226627Y249264D01*
X226656Y249336D01*
X226688Y249406D01*
X226723Y249475D01*
X226763Y249541D01*
X226805Y249606D01*
X226851Y249668D01*
X226900Y249728D01*
X226951Y249785D01*
X227006Y249840D01*
X227063Y249891D01*
X227123Y249940D01*
X227185Y249986D01*
X227250Y250028D01*
X227316Y250068D01*
X227385Y250103D01*
X227455Y250135D01*
X227527Y250164D01*
X227600Y250189D01*
X227674Y250210D01*
X227749Y250228D01*
X227825Y250241D01*
X227902Y250251D01*
X227979Y250257D01*
X228056Y250259D01*
X228133Y250257D01*
X228210Y250251D01*
X228287Y250241D01*
X228363Y250228D01*
X228438Y250210D01*
X228512Y250189D01*
X228585Y250164D01*
X228657Y250135D01*
X228727Y250103D01*
X228796Y250068D01*
X228862Y250028D01*
X228927Y249986D01*
X228989Y249940D01*
X229049Y249891D01*
X229106Y249840D01*
X229161Y249785D01*
X229212Y249728D01*
X229261Y249668D01*
X229307Y249606D01*
X229349Y249541D01*
X229389Y249475D01*
X229424Y249406D01*
X229456Y249336D01*
X229485Y249264D01*
X229510Y249191D01*
X229531Y249117D01*
X229549Y249042D01*
X229562Y248966D01*
X229572Y248889D01*
X229578Y248812D01*
X229580Y248735D01*
X229580Y247211D01*
X226532Y253383D02*
X233390Y255669D01*
X226532Y257955D01*
X233390Y261079D02*
X233390Y262984D01*
X233388Y263069D01*
X233382Y263155D01*
X233373Y263240D01*
X233359Y263324D01*
X233342Y263408D01*
X233321Y263491D01*
X233297Y263573D01*
X233269Y263653D01*
X233237Y263733D01*
X233201Y263811D01*
X233163Y263887D01*
X233120Y263961D01*
X233075Y264033D01*
X233026Y264104D01*
X232974Y264172D01*
X232920Y264237D01*
X232862Y264300D01*
X232801Y264361D01*
X232738Y264419D01*
X232673Y264473D01*
X232605Y264525D01*
X232534Y264574D01*
X232462Y264619D01*
X232388Y264662D01*
X232312Y264700D01*
X232234Y264736D01*
X232154Y264768D01*
X232074Y264796D01*
X231992Y264820D01*
X231909Y264841D01*
X231825Y264858D01*
X231741Y264872D01*
X231656Y264881D01*
X231570Y264887D01*
X231485Y264889D01*
X231400Y264887D01*
X231314Y264881D01*
X231229Y264872D01*
X231145Y264858D01*
X231061Y264841D01*
X230978Y264820D01*
X230896Y264796D01*
X230816Y264768D01*
X230736Y264736D01*
X230658Y264700D01*
X230582Y264662D01*
X230508Y264619D01*
X230436Y264574D01*
X230365Y264525D01*
X230297Y264473D01*
X230232Y264419D01*
X230169Y264361D01*
X230108Y264300D01*
X230050Y264237D01*
X229996Y264172D01*
X229944Y264104D01*
X229895Y264033D01*
X229850Y263961D01*
X229807Y263887D01*
X229769Y263811D01*
X229733Y263733D01*
X229701Y263653D01*
X229673Y263573D01*
X229649Y263491D01*
X229628Y263408D01*
X229611Y263324D01*
X229597Y263240D01*
X229588Y263155D01*
X229582Y263069D01*
X229580Y262984D01*
X226532Y263365D02*
X226532Y261079D01*
X226532Y263365D02*
X226534Y263442D01*
X226540Y263519D01*
X226550Y263596D01*
X226563Y263672D01*
X226581Y263747D01*
X226602Y263821D01*
X226627Y263894D01*
X226656Y263966D01*
X226688Y264036D01*
X226723Y264105D01*
X226763Y264171D01*
X226805Y264236D01*
X226851Y264298D01*
X226900Y264358D01*
X226951Y264415D01*
X227006Y264470D01*
X227063Y264521D01*
X227123Y264570D01*
X227185Y264616D01*
X227250Y264658D01*
X227316Y264698D01*
X227385Y264733D01*
X227455Y264765D01*
X227527Y264794D01*
X227600Y264819D01*
X227674Y264840D01*
X227749Y264858D01*
X227825Y264871D01*
X227902Y264881D01*
X227979Y264887D01*
X228056Y264889D01*
X228133Y264887D01*
X228210Y264881D01*
X228287Y264871D01*
X228363Y264858D01*
X228438Y264840D01*
X228512Y264819D01*
X228585Y264794D01*
X228657Y264765D01*
X228727Y264733D01*
X228796Y264698D01*
X228862Y264658D01*
X228927Y264616D01*
X228989Y264570D01*
X229049Y264521D01*
X229106Y264470D01*
X229161Y264415D01*
X229212Y264358D01*
X229261Y264298D01*
X229307Y264236D01*
X229349Y264171D01*
X229389Y264105D01*
X229424Y264036D01*
X229456Y263966D01*
X229485Y263894D01*
X229510Y263821D01*
X229531Y263747D01*
X229549Y263672D01*
X229562Y263596D01*
X229572Y263519D01*
X229578Y263442D01*
X229580Y263365D01*
X229580Y261841D01*
X242580Y249259D02*
X242580Y248116D01*
X242580Y249259D02*
X246390Y249259D01*
X246390Y246973D01*
X246388Y246896D01*
X246382Y246819D01*
X246372Y246742D01*
X246359Y246666D01*
X246341Y246591D01*
X246320Y246517D01*
X246295Y246444D01*
X246266Y246372D01*
X246234Y246302D01*
X246199Y246233D01*
X246159Y246167D01*
X246117Y246102D01*
X246071Y246040D01*
X246022Y245980D01*
X245971Y245923D01*
X245916Y245868D01*
X245859Y245817D01*
X245799Y245768D01*
X245737Y245722D01*
X245672Y245680D01*
X245606Y245640D01*
X245537Y245605D01*
X245467Y245573D01*
X245395Y245544D01*
X245322Y245519D01*
X245248Y245498D01*
X245173Y245480D01*
X245097Y245467D01*
X245020Y245457D01*
X244943Y245451D01*
X244866Y245449D01*
X241056Y245449D01*
X240979Y245451D01*
X240902Y245457D01*
X240825Y245467D01*
X240749Y245480D01*
X240674Y245498D01*
X240600Y245519D01*
X240527Y245544D01*
X240455Y245573D01*
X240385Y245605D01*
X240316Y245640D01*
X240250Y245680D01*
X240185Y245722D01*
X240123Y245768D01*
X240063Y245817D01*
X240006Y245868D01*
X239951Y245923D01*
X239900Y245980D01*
X239851Y246040D01*
X239805Y246102D01*
X239763Y246167D01*
X239723Y246233D01*
X239688Y246302D01*
X239656Y246372D01*
X239627Y246444D01*
X239602Y246517D01*
X239581Y246591D01*
X239563Y246666D01*
X239550Y246742D01*
X239540Y246819D01*
X239534Y246896D01*
X239532Y246973D01*
X239532Y249259D01*
X239532Y253251D02*
X246390Y253251D01*
X246390Y257061D02*
X239532Y253251D01*
X239532Y257061D02*
X246390Y257061D01*
X246390Y261054D02*
X239532Y261054D01*
X239532Y262959D01*
X239534Y263044D01*
X239540Y263130D01*
X239549Y263215D01*
X239563Y263299D01*
X239580Y263383D01*
X239601Y263466D01*
X239625Y263548D01*
X239653Y263628D01*
X239685Y263708D01*
X239721Y263786D01*
X239759Y263862D01*
X239802Y263936D01*
X239847Y264008D01*
X239896Y264079D01*
X239948Y264147D01*
X240002Y264212D01*
X240060Y264275D01*
X240121Y264336D01*
X240184Y264394D01*
X240249Y264448D01*
X240317Y264500D01*
X240388Y264549D01*
X240460Y264594D01*
X240534Y264637D01*
X240610Y264675D01*
X240688Y264711D01*
X240768Y264743D01*
X240848Y264771D01*
X240930Y264795D01*
X241013Y264816D01*
X241097Y264833D01*
X241181Y264847D01*
X241266Y264856D01*
X241352Y264862D01*
X241437Y264864D01*
X244485Y264864D01*
X244570Y264862D01*
X244656Y264856D01*
X244741Y264847D01*
X244825Y264833D01*
X244909Y264816D01*
X244992Y264795D01*
X245074Y264771D01*
X245154Y264743D01*
X245234Y264711D01*
X245312Y264675D01*
X245388Y264637D01*
X245462Y264594D01*
X245534Y264549D01*
X245605Y264500D01*
X245673Y264448D01*
X245738Y264394D01*
X245801Y264336D01*
X245862Y264275D01*
X245920Y264212D01*
X245974Y264147D01*
X246026Y264079D01*
X246075Y264008D01*
X246120Y263936D01*
X246163Y263862D01*
X246201Y263786D01*
X246237Y263708D01*
X246269Y263628D01*
X246297Y263548D01*
X246321Y263466D01*
X246342Y263383D01*
X246359Y263299D01*
X246373Y263215D01*
X246382Y263130D01*
X246388Y263044D01*
X246390Y262959D01*
X246390Y261054D01*
D14*
X50374Y47465D02*
X49570Y47465D01*
X49570Y48269D01*
X50374Y48269D01*
X50374Y47465D01*
D13*
X286532Y223449D02*
X293390Y223449D01*
X286532Y223449D02*
X286532Y225354D01*
X286534Y225439D01*
X286540Y225525D01*
X286549Y225610D01*
X286563Y225694D01*
X286580Y225778D01*
X286601Y225861D01*
X286625Y225943D01*
X286653Y226023D01*
X286685Y226103D01*
X286721Y226181D01*
X286759Y226257D01*
X286802Y226331D01*
X286847Y226403D01*
X286896Y226474D01*
X286948Y226542D01*
X287002Y226607D01*
X287060Y226670D01*
X287121Y226731D01*
X287184Y226789D01*
X287249Y226843D01*
X287317Y226895D01*
X287388Y226944D01*
X287460Y226989D01*
X287534Y227032D01*
X287610Y227070D01*
X287688Y227106D01*
X287768Y227138D01*
X287848Y227166D01*
X287930Y227190D01*
X288013Y227211D01*
X288097Y227228D01*
X288181Y227242D01*
X288266Y227251D01*
X288352Y227257D01*
X288437Y227259D01*
X288522Y227257D01*
X288608Y227251D01*
X288693Y227242D01*
X288777Y227228D01*
X288861Y227211D01*
X288944Y227190D01*
X289026Y227166D01*
X289106Y227138D01*
X289186Y227106D01*
X289264Y227070D01*
X289340Y227032D01*
X289414Y226989D01*
X289486Y226944D01*
X289557Y226895D01*
X289625Y226843D01*
X289690Y226789D01*
X289753Y226731D01*
X289814Y226670D01*
X289872Y226607D01*
X289926Y226542D01*
X289978Y226474D01*
X290027Y226403D01*
X290072Y226331D01*
X290115Y226257D01*
X290153Y226181D01*
X290189Y226103D01*
X290221Y226023D01*
X290249Y225943D01*
X290273Y225861D01*
X290294Y225778D01*
X290311Y225694D01*
X290325Y225610D01*
X290334Y225525D01*
X290340Y225439D01*
X290342Y225354D01*
X290342Y223449D01*
X290342Y225735D02*
X293390Y227259D01*
X293390Y230959D02*
X293390Y234007D01*
X293390Y230959D02*
X286532Y230959D01*
X286532Y234007D01*
X289580Y233245D02*
X289580Y230959D01*
X293390Y239076D02*
X293388Y239153D01*
X293382Y239230D01*
X293372Y239307D01*
X293359Y239383D01*
X293341Y239458D01*
X293320Y239532D01*
X293295Y239605D01*
X293266Y239677D01*
X293234Y239747D01*
X293199Y239816D01*
X293159Y239882D01*
X293117Y239947D01*
X293071Y240009D01*
X293022Y240069D01*
X292971Y240126D01*
X292916Y240181D01*
X292859Y240232D01*
X292799Y240281D01*
X292737Y240327D01*
X292672Y240369D01*
X292606Y240409D01*
X292537Y240444D01*
X292467Y240476D01*
X292395Y240505D01*
X292322Y240530D01*
X292248Y240551D01*
X292173Y240569D01*
X292097Y240582D01*
X292020Y240592D01*
X291943Y240598D01*
X291866Y240600D01*
X293390Y239076D02*
X293388Y238966D01*
X293382Y238855D01*
X293373Y238745D01*
X293360Y238635D01*
X293343Y238526D01*
X293322Y238418D01*
X293298Y238310D01*
X293269Y238203D01*
X293238Y238097D01*
X293202Y237993D01*
X293163Y237889D01*
X293121Y237787D01*
X293075Y237687D01*
X293025Y237588D01*
X292973Y237491D01*
X292916Y237395D01*
X292857Y237302D01*
X292795Y237211D01*
X292729Y237122D01*
X292661Y237035D01*
X292589Y236951D01*
X292515Y236869D01*
X292438Y236790D01*
X288056Y236981D02*
X287979Y236983D01*
X287902Y236989D01*
X287825Y236999D01*
X287749Y237012D01*
X287674Y237030D01*
X287600Y237051D01*
X287527Y237076D01*
X287455Y237105D01*
X287385Y237137D01*
X287316Y237172D01*
X287250Y237212D01*
X287185Y237254D01*
X287123Y237300D01*
X287063Y237349D01*
X287006Y237400D01*
X286951Y237455D01*
X286900Y237512D01*
X286851Y237572D01*
X286805Y237634D01*
X286763Y237699D01*
X286723Y237765D01*
X286688Y237834D01*
X286656Y237904D01*
X286627Y237976D01*
X286602Y238049D01*
X286581Y238123D01*
X286563Y238198D01*
X286550Y238274D01*
X286540Y238351D01*
X286534Y238428D01*
X286532Y238505D01*
X286534Y238607D01*
X286539Y238709D01*
X286548Y238811D01*
X286561Y238912D01*
X286578Y239013D01*
X286597Y239113D01*
X286621Y239213D01*
X286648Y239311D01*
X286679Y239409D01*
X286713Y239505D01*
X286750Y239600D01*
X286791Y239694D01*
X286835Y239786D01*
X286883Y239876D01*
X286933Y239965D01*
X286987Y240052D01*
X287044Y240137D01*
X287104Y240220D01*
X289390Y237742D02*
X289349Y237677D01*
X289306Y237614D01*
X289259Y237554D01*
X289209Y237495D01*
X289157Y237440D01*
X289102Y237387D01*
X289044Y237336D01*
X288984Y237289D01*
X288921Y237245D01*
X288857Y237203D01*
X288791Y237165D01*
X288722Y237131D01*
X288652Y237100D01*
X288581Y237072D01*
X288509Y237048D01*
X288435Y237027D01*
X288360Y237010D01*
X288285Y236997D01*
X288209Y236988D01*
X288133Y236982D01*
X288056Y236980D01*
X290532Y239838D02*
X290573Y239903D01*
X290616Y239966D01*
X290663Y240026D01*
X290713Y240085D01*
X290765Y240140D01*
X290820Y240193D01*
X290878Y240244D01*
X290938Y240291D01*
X291001Y240335D01*
X291065Y240377D01*
X291131Y240415D01*
X291200Y240449D01*
X291270Y240480D01*
X291341Y240508D01*
X291413Y240532D01*
X291487Y240553D01*
X291562Y240570D01*
X291637Y240583D01*
X291713Y240592D01*
X291789Y240598D01*
X291866Y240600D01*
X290533Y239838D02*
X289390Y237743D01*
X293390Y244127D02*
X293390Y247175D01*
X293390Y244127D02*
X286532Y244127D01*
X286532Y247175D01*
X289580Y246413D02*
X289580Y244127D01*
X286532Y251619D02*
X293390Y251619D01*
X286532Y249714D02*
X286532Y253524D01*
X468184Y234449D02*
X469708Y234449D01*
X468184Y234449D02*
X468107Y234451D01*
X468030Y234457D01*
X467953Y234467D01*
X467877Y234480D01*
X467802Y234498D01*
X467728Y234519D01*
X467655Y234544D01*
X467583Y234573D01*
X467513Y234605D01*
X467444Y234640D01*
X467378Y234680D01*
X467313Y234722D01*
X467251Y234768D01*
X467191Y234817D01*
X467134Y234868D01*
X467079Y234923D01*
X467028Y234980D01*
X466979Y235040D01*
X466933Y235102D01*
X466891Y235167D01*
X466851Y235233D01*
X466816Y235302D01*
X466784Y235372D01*
X466755Y235444D01*
X466730Y235517D01*
X466709Y235591D01*
X466691Y235666D01*
X466678Y235742D01*
X466668Y235819D01*
X466662Y235896D01*
X466660Y235973D01*
X466660Y239783D01*
X466662Y239860D01*
X466668Y239937D01*
X466678Y240014D01*
X466691Y240090D01*
X466709Y240165D01*
X466730Y240239D01*
X466755Y240312D01*
X466784Y240384D01*
X466816Y240454D01*
X466851Y240523D01*
X466891Y240589D01*
X466933Y240654D01*
X466979Y240716D01*
X467028Y240776D01*
X467079Y240833D01*
X467134Y240888D01*
X467191Y240939D01*
X467251Y240988D01*
X467313Y241034D01*
X467378Y241076D01*
X467444Y241116D01*
X467513Y241151D01*
X467583Y241183D01*
X467655Y241212D01*
X467728Y241237D01*
X467802Y241258D01*
X467877Y241276D01*
X467953Y241289D01*
X468030Y241299D01*
X468107Y241305D01*
X468184Y241307D01*
X469708Y241307D01*
X472787Y239783D02*
X474692Y241307D01*
X474692Y234449D01*
X472787Y234449D02*
X476597Y234449D01*
X366390Y214449D02*
X359532Y214449D01*
X359532Y216354D01*
X359534Y216439D01*
X359540Y216525D01*
X359549Y216610D01*
X359563Y216694D01*
X359580Y216778D01*
X359601Y216861D01*
X359625Y216943D01*
X359653Y217023D01*
X359685Y217103D01*
X359721Y217181D01*
X359759Y217257D01*
X359802Y217331D01*
X359847Y217403D01*
X359896Y217474D01*
X359948Y217542D01*
X360002Y217607D01*
X360060Y217670D01*
X360121Y217731D01*
X360184Y217789D01*
X360249Y217843D01*
X360317Y217895D01*
X360388Y217944D01*
X360460Y217989D01*
X360534Y218032D01*
X360610Y218070D01*
X360688Y218106D01*
X360768Y218138D01*
X360848Y218166D01*
X360930Y218190D01*
X361013Y218211D01*
X361097Y218228D01*
X361181Y218242D01*
X361266Y218251D01*
X361352Y218257D01*
X361437Y218259D01*
X364485Y218259D01*
X364570Y218257D01*
X364656Y218251D01*
X364741Y218242D01*
X364825Y218228D01*
X364909Y218211D01*
X364992Y218190D01*
X365074Y218166D01*
X365154Y218138D01*
X365234Y218106D01*
X365312Y218070D01*
X365388Y218032D01*
X365462Y217989D01*
X365534Y217944D01*
X365605Y217895D01*
X365673Y217843D01*
X365738Y217789D01*
X365801Y217731D01*
X365862Y217670D01*
X365920Y217607D01*
X365974Y217542D01*
X366026Y217474D01*
X366075Y217403D01*
X366120Y217331D01*
X366163Y217257D01*
X366201Y217181D01*
X366237Y217103D01*
X366269Y217023D01*
X366297Y216943D01*
X366321Y216861D01*
X366342Y216778D01*
X366359Y216694D01*
X366373Y216610D01*
X366382Y216525D01*
X366388Y216439D01*
X366390Y216354D01*
X366390Y214449D01*
X361056Y222008D02*
X359532Y223913D01*
X366390Y223913D01*
X366390Y222008D02*
X366390Y225818D01*
X366390Y229323D02*
X366390Y231609D01*
X366388Y231686D01*
X366382Y231763D01*
X366372Y231840D01*
X366359Y231916D01*
X366341Y231991D01*
X366320Y232065D01*
X366295Y232138D01*
X366266Y232210D01*
X366234Y232280D01*
X366199Y232349D01*
X366159Y232415D01*
X366117Y232480D01*
X366071Y232542D01*
X366022Y232602D01*
X365971Y232659D01*
X365916Y232714D01*
X365859Y232765D01*
X365799Y232814D01*
X365737Y232860D01*
X365672Y232902D01*
X365606Y232942D01*
X365537Y232977D01*
X365467Y233009D01*
X365395Y233038D01*
X365322Y233063D01*
X365248Y233084D01*
X365173Y233102D01*
X365097Y233115D01*
X365020Y233125D01*
X364943Y233131D01*
X364866Y233133D01*
X364104Y233133D01*
X364027Y233131D01*
X363950Y233125D01*
X363873Y233115D01*
X363797Y233102D01*
X363722Y233084D01*
X363648Y233063D01*
X363575Y233038D01*
X363503Y233009D01*
X363433Y232977D01*
X363364Y232942D01*
X363298Y232902D01*
X363233Y232860D01*
X363171Y232814D01*
X363111Y232765D01*
X363054Y232714D01*
X362999Y232659D01*
X362948Y232602D01*
X362899Y232542D01*
X362853Y232480D01*
X362811Y232415D01*
X362771Y232349D01*
X362736Y232280D01*
X362704Y232210D01*
X362675Y232138D01*
X362650Y232065D01*
X362629Y231991D01*
X362611Y231916D01*
X362598Y231840D01*
X362588Y231763D01*
X362582Y231686D01*
X362580Y231609D01*
X362580Y229323D01*
X359532Y229323D01*
X359532Y233133D01*
X358770Y239335D02*
X367152Y236287D01*
X366390Y244532D02*
X366388Y244609D01*
X366382Y244686D01*
X366372Y244763D01*
X366359Y244839D01*
X366341Y244914D01*
X366320Y244988D01*
X366295Y245061D01*
X366266Y245133D01*
X366234Y245203D01*
X366199Y245272D01*
X366159Y245338D01*
X366117Y245403D01*
X366071Y245465D01*
X366022Y245525D01*
X365971Y245582D01*
X365916Y245637D01*
X365859Y245688D01*
X365799Y245737D01*
X365737Y245783D01*
X365672Y245825D01*
X365606Y245865D01*
X365537Y245900D01*
X365467Y245932D01*
X365395Y245961D01*
X365322Y245986D01*
X365248Y246007D01*
X365173Y246025D01*
X365097Y246038D01*
X365020Y246048D01*
X364943Y246054D01*
X364866Y246056D01*
X366390Y244532D02*
X366388Y244422D01*
X366382Y244311D01*
X366373Y244201D01*
X366360Y244091D01*
X366343Y243982D01*
X366322Y243874D01*
X366298Y243766D01*
X366269Y243659D01*
X366238Y243553D01*
X366202Y243449D01*
X366163Y243345D01*
X366121Y243243D01*
X366075Y243143D01*
X366025Y243044D01*
X365973Y242947D01*
X365916Y242851D01*
X365857Y242758D01*
X365795Y242667D01*
X365729Y242578D01*
X365661Y242491D01*
X365589Y242407D01*
X365515Y242325D01*
X365438Y242246D01*
X361056Y242437D02*
X360979Y242439D01*
X360902Y242445D01*
X360825Y242455D01*
X360749Y242468D01*
X360674Y242486D01*
X360600Y242507D01*
X360527Y242532D01*
X360455Y242561D01*
X360385Y242593D01*
X360316Y242628D01*
X360250Y242668D01*
X360185Y242710D01*
X360123Y242756D01*
X360063Y242805D01*
X360006Y242856D01*
X359951Y242911D01*
X359900Y242968D01*
X359851Y243028D01*
X359805Y243090D01*
X359763Y243155D01*
X359723Y243221D01*
X359688Y243290D01*
X359656Y243360D01*
X359627Y243432D01*
X359602Y243505D01*
X359581Y243579D01*
X359563Y243654D01*
X359550Y243730D01*
X359540Y243807D01*
X359534Y243884D01*
X359532Y243961D01*
X359534Y244063D01*
X359539Y244165D01*
X359548Y244267D01*
X359561Y244368D01*
X359578Y244469D01*
X359597Y244569D01*
X359621Y244669D01*
X359648Y244767D01*
X359679Y244865D01*
X359713Y244961D01*
X359750Y245056D01*
X359791Y245150D01*
X359835Y245242D01*
X359883Y245332D01*
X359933Y245421D01*
X359987Y245508D01*
X360044Y245593D01*
X360104Y245676D01*
X362390Y243199D02*
X362349Y243134D01*
X362306Y243071D01*
X362259Y243011D01*
X362209Y242952D01*
X362157Y242897D01*
X362102Y242844D01*
X362044Y242793D01*
X361984Y242746D01*
X361921Y242702D01*
X361857Y242660D01*
X361791Y242622D01*
X361722Y242588D01*
X361652Y242557D01*
X361581Y242529D01*
X361509Y242505D01*
X361435Y242484D01*
X361360Y242467D01*
X361285Y242454D01*
X361209Y242445D01*
X361133Y242439D01*
X361056Y242437D01*
X363532Y245294D02*
X363573Y245359D01*
X363616Y245422D01*
X363663Y245482D01*
X363713Y245541D01*
X363765Y245596D01*
X363820Y245649D01*
X363878Y245700D01*
X363938Y245747D01*
X364001Y245791D01*
X364065Y245833D01*
X364131Y245871D01*
X364200Y245905D01*
X364270Y245936D01*
X364341Y245964D01*
X364413Y245988D01*
X364487Y246009D01*
X364562Y246026D01*
X364637Y246039D01*
X364713Y246048D01*
X364789Y246054D01*
X364866Y246056D01*
X363533Y245294D02*
X362390Y243199D01*
X362580Y249721D02*
X362580Y251626D01*
X362582Y251711D01*
X362588Y251797D01*
X362597Y251882D01*
X362611Y251966D01*
X362628Y252050D01*
X362649Y252133D01*
X362673Y252215D01*
X362701Y252295D01*
X362733Y252375D01*
X362769Y252453D01*
X362807Y252529D01*
X362850Y252603D01*
X362895Y252675D01*
X362944Y252746D01*
X362996Y252814D01*
X363050Y252879D01*
X363108Y252942D01*
X363169Y253003D01*
X363232Y253061D01*
X363297Y253115D01*
X363365Y253167D01*
X363436Y253216D01*
X363508Y253261D01*
X363582Y253304D01*
X363658Y253342D01*
X363736Y253378D01*
X363816Y253410D01*
X363896Y253438D01*
X363978Y253462D01*
X364061Y253483D01*
X364145Y253500D01*
X364229Y253514D01*
X364314Y253523D01*
X364400Y253529D01*
X364485Y253531D01*
X364570Y253529D01*
X364656Y253523D01*
X364741Y253514D01*
X364825Y253500D01*
X364909Y253483D01*
X364992Y253462D01*
X365074Y253438D01*
X365154Y253410D01*
X365234Y253378D01*
X365312Y253342D01*
X365388Y253304D01*
X365462Y253261D01*
X365534Y253216D01*
X365605Y253167D01*
X365673Y253115D01*
X365738Y253061D01*
X365801Y253003D01*
X365862Y252942D01*
X365920Y252879D01*
X365974Y252814D01*
X366026Y252746D01*
X366075Y252675D01*
X366120Y252603D01*
X366163Y252529D01*
X366201Y252453D01*
X366237Y252375D01*
X366269Y252295D01*
X366297Y252215D01*
X366321Y252133D01*
X366342Y252050D01*
X366359Y251966D01*
X366373Y251882D01*
X366382Y251797D01*
X366388Y251711D01*
X366390Y251626D01*
X366390Y249721D01*
X359532Y249721D01*
X359532Y251626D01*
X359534Y251703D01*
X359540Y251780D01*
X359550Y251857D01*
X359563Y251933D01*
X359581Y252008D01*
X359602Y252082D01*
X359627Y252155D01*
X359656Y252227D01*
X359688Y252297D01*
X359723Y252366D01*
X359763Y252432D01*
X359805Y252497D01*
X359851Y252559D01*
X359900Y252619D01*
X359951Y252676D01*
X360006Y252731D01*
X360063Y252782D01*
X360123Y252831D01*
X360185Y252877D01*
X360250Y252919D01*
X360316Y252959D01*
X360385Y252994D01*
X360455Y253026D01*
X360527Y253055D01*
X360600Y253080D01*
X360674Y253101D01*
X360749Y253119D01*
X360825Y253132D01*
X360902Y253142D01*
X360979Y253148D01*
X361056Y253150D01*
X361133Y253148D01*
X361210Y253142D01*
X361287Y253132D01*
X361363Y253119D01*
X361438Y253101D01*
X361512Y253080D01*
X361585Y253055D01*
X361657Y253026D01*
X361727Y252994D01*
X361796Y252959D01*
X361862Y252919D01*
X361927Y252877D01*
X361989Y252831D01*
X362049Y252782D01*
X362106Y252731D01*
X362161Y252676D01*
X362212Y252619D01*
X362261Y252559D01*
X362307Y252497D01*
X362349Y252432D01*
X362389Y252366D01*
X362424Y252297D01*
X362456Y252227D01*
X362485Y252155D01*
X362510Y252082D01*
X362531Y252008D01*
X362549Y251933D01*
X362562Y251857D01*
X362572Y251780D01*
X362578Y251703D01*
X362580Y251626D01*
X359532Y256898D02*
X366390Y256898D01*
X366390Y259946D01*
D15*
X75168Y85121D02*
X75168Y74707D01*
X75168Y85121D02*
X78061Y85121D01*
X78168Y85119D01*
X78275Y85113D01*
X78381Y85103D01*
X78487Y85089D01*
X78593Y85072D01*
X78697Y85050D01*
X78801Y85025D01*
X78904Y84995D01*
X79006Y84962D01*
X79106Y84926D01*
X79205Y84885D01*
X79302Y84841D01*
X79398Y84793D01*
X79492Y84742D01*
X79584Y84688D01*
X79674Y84630D01*
X79761Y84568D01*
X79847Y84504D01*
X79930Y84437D01*
X80010Y84366D01*
X80088Y84292D01*
X80163Y84216D01*
X80235Y84137D01*
X80304Y84056D01*
X80370Y83971D01*
X80433Y83885D01*
X80492Y83796D01*
X80548Y83705D01*
X80601Y83612D01*
X80651Y83518D01*
X80697Y83421D01*
X80739Y83323D01*
X80777Y83223D01*
X80812Y83122D01*
X80844Y83020D01*
X80871Y82916D01*
X80894Y82812D01*
X80914Y82707D01*
X80930Y82601D01*
X80942Y82495D01*
X80950Y82388D01*
X80954Y82281D01*
X80954Y82175D01*
X80950Y82068D01*
X80942Y81961D01*
X80930Y81855D01*
X80914Y81749D01*
X80894Y81644D01*
X80871Y81540D01*
X80844Y81436D01*
X80812Y81334D01*
X80777Y81233D01*
X80739Y81133D01*
X80697Y81035D01*
X80651Y80938D01*
X80601Y80844D01*
X80548Y80751D01*
X80492Y80660D01*
X80433Y80571D01*
X80370Y80485D01*
X80304Y80400D01*
X80235Y80319D01*
X80163Y80240D01*
X80088Y80164D01*
X80010Y80090D01*
X79930Y80019D01*
X79847Y79952D01*
X79761Y79888D01*
X79674Y79826D01*
X79584Y79768D01*
X79492Y79714D01*
X79398Y79663D01*
X79302Y79615D01*
X79205Y79571D01*
X79106Y79530D01*
X79006Y79494D01*
X78904Y79461D01*
X78801Y79431D01*
X78697Y79406D01*
X78593Y79384D01*
X78487Y79367D01*
X78381Y79353D01*
X78275Y79343D01*
X78168Y79337D01*
X78061Y79335D01*
X75168Y79335D01*
X78639Y79335D02*
X80954Y74707D01*
X86896Y74707D02*
X86896Y85121D01*
X91525Y85121D01*
X91525Y80492D02*
X86896Y80492D01*
X96568Y78756D02*
X103511Y78756D01*
X109995Y80492D02*
X112887Y80492D01*
X112994Y80490D01*
X113101Y80484D01*
X113207Y80474D01*
X113313Y80460D01*
X113419Y80443D01*
X113523Y80421D01*
X113627Y80396D01*
X113730Y80366D01*
X113832Y80333D01*
X113932Y80297D01*
X114031Y80256D01*
X114128Y80212D01*
X114224Y80164D01*
X114318Y80113D01*
X114410Y80059D01*
X114500Y80001D01*
X114587Y79939D01*
X114673Y79875D01*
X114756Y79808D01*
X114836Y79737D01*
X114914Y79663D01*
X114989Y79587D01*
X115061Y79508D01*
X115130Y79427D01*
X115196Y79342D01*
X115259Y79256D01*
X115318Y79167D01*
X115374Y79076D01*
X115427Y78983D01*
X115477Y78889D01*
X115523Y78792D01*
X115565Y78694D01*
X115603Y78594D01*
X115638Y78493D01*
X115670Y78391D01*
X115697Y78287D01*
X115720Y78183D01*
X115740Y78078D01*
X115756Y77972D01*
X115768Y77866D01*
X115776Y77759D01*
X115780Y77652D01*
X115780Y77546D01*
X115776Y77439D01*
X115768Y77332D01*
X115756Y77226D01*
X115740Y77120D01*
X115720Y77015D01*
X115697Y76911D01*
X115670Y76807D01*
X115638Y76705D01*
X115603Y76604D01*
X115565Y76504D01*
X115523Y76406D01*
X115477Y76309D01*
X115427Y76215D01*
X115374Y76122D01*
X115318Y76031D01*
X115259Y75942D01*
X115196Y75856D01*
X115130Y75771D01*
X115061Y75690D01*
X114989Y75611D01*
X114914Y75535D01*
X114836Y75461D01*
X114756Y75390D01*
X114673Y75323D01*
X114587Y75259D01*
X114500Y75197D01*
X114410Y75139D01*
X114318Y75085D01*
X114224Y75034D01*
X114128Y74986D01*
X114031Y74942D01*
X113932Y74901D01*
X113832Y74865D01*
X113730Y74832D01*
X113627Y74802D01*
X113523Y74777D01*
X113419Y74755D01*
X113313Y74738D01*
X113207Y74724D01*
X113101Y74714D01*
X112994Y74708D01*
X112887Y74706D01*
X112887Y74707D02*
X109995Y74707D01*
X109995Y85121D01*
X112887Y85121D01*
X112887Y85120D02*
X112981Y85118D01*
X113076Y85112D01*
X113170Y85103D01*
X113263Y85089D01*
X113356Y85072D01*
X113448Y85051D01*
X113539Y85026D01*
X113629Y84998D01*
X113718Y84966D01*
X113805Y84930D01*
X113891Y84891D01*
X113975Y84848D01*
X114058Y84802D01*
X114138Y84753D01*
X114216Y84700D01*
X114293Y84644D01*
X114366Y84585D01*
X114438Y84524D01*
X114506Y84459D01*
X114573Y84391D01*
X114636Y84321D01*
X114696Y84249D01*
X114754Y84174D01*
X114808Y84096D01*
X114859Y84017D01*
X114907Y83936D01*
X114951Y83852D01*
X114992Y83767D01*
X115029Y83681D01*
X115063Y83593D01*
X115094Y83503D01*
X115120Y83413D01*
X115143Y83321D01*
X115162Y83228D01*
X115177Y83135D01*
X115189Y83042D01*
X115197Y82948D01*
X115201Y82853D01*
X115201Y82759D01*
X115197Y82664D01*
X115189Y82570D01*
X115177Y82477D01*
X115162Y82384D01*
X115143Y82291D01*
X115120Y82199D01*
X115094Y82109D01*
X115063Y82019D01*
X115029Y81931D01*
X114992Y81845D01*
X114951Y81760D01*
X114907Y81676D01*
X114859Y81595D01*
X114808Y81516D01*
X114754Y81438D01*
X114696Y81363D01*
X114636Y81291D01*
X114573Y81221D01*
X114506Y81153D01*
X114438Y81088D01*
X114366Y81027D01*
X114293Y80968D01*
X114216Y80912D01*
X114138Y80859D01*
X114058Y80810D01*
X113975Y80764D01*
X113891Y80721D01*
X113805Y80682D01*
X113718Y80646D01*
X113629Y80614D01*
X113539Y80586D01*
X113448Y80561D01*
X113356Y80540D01*
X113263Y80523D01*
X113170Y80509D01*
X113076Y80500D01*
X112981Y80494D01*
X112887Y80492D01*
X121333Y85121D02*
X121333Y74707D01*
X124804Y79335D02*
X121333Y85121D01*
X124804Y79335D02*
X128275Y85121D01*
X128275Y74707D01*
X134668Y78756D02*
X141610Y78756D01*
X150620Y85121D02*
X150720Y85119D01*
X150819Y85113D01*
X150919Y85104D01*
X151017Y85090D01*
X151116Y85073D01*
X151213Y85053D01*
X151310Y85028D01*
X151406Y85000D01*
X151500Y84968D01*
X151593Y84932D01*
X151685Y84893D01*
X151775Y84851D01*
X151864Y84805D01*
X151951Y84755D01*
X152035Y84703D01*
X152118Y84647D01*
X152199Y84588D01*
X152277Y84526D01*
X152353Y84461D01*
X152426Y84393D01*
X152496Y84323D01*
X152564Y84250D01*
X152629Y84174D01*
X152691Y84096D01*
X152750Y84015D01*
X152806Y83932D01*
X152858Y83848D01*
X152908Y83761D01*
X152954Y83672D01*
X152996Y83582D01*
X153035Y83490D01*
X153071Y83397D01*
X153103Y83303D01*
X153131Y83207D01*
X153156Y83110D01*
X153176Y83013D01*
X153193Y82914D01*
X153207Y82816D01*
X153216Y82716D01*
X153222Y82617D01*
X153224Y82517D01*
X150620Y85121D02*
X150506Y85119D01*
X150393Y85113D01*
X150280Y85104D01*
X150167Y85090D01*
X150054Y85073D01*
X149943Y85052D01*
X149832Y85027D01*
X149722Y84998D01*
X149613Y84966D01*
X149505Y84930D01*
X149398Y84890D01*
X149293Y84847D01*
X149190Y84800D01*
X149088Y84749D01*
X148988Y84696D01*
X148889Y84638D01*
X148793Y84578D01*
X148699Y84514D01*
X148607Y84447D01*
X148517Y84377D01*
X148430Y84304D01*
X148345Y84229D01*
X148263Y84150D01*
X148184Y84068D01*
X148108Y83984D01*
X148034Y83898D01*
X147963Y83809D01*
X147896Y83717D01*
X147831Y83623D01*
X147770Y83528D01*
X147712Y83430D01*
X147658Y83330D01*
X147607Y83228D01*
X147559Y83125D01*
X147515Y83020D01*
X147475Y82914D01*
X147438Y82807D01*
X152356Y80492D02*
X152429Y80564D01*
X152500Y80639D01*
X152567Y80717D01*
X152632Y80797D01*
X152694Y80879D01*
X152753Y80963D01*
X152808Y81050D01*
X152861Y81139D01*
X152910Y81229D01*
X152956Y81321D01*
X152998Y81415D01*
X153037Y81511D01*
X153072Y81607D01*
X153104Y81705D01*
X153132Y81804D01*
X153156Y81904D01*
X153177Y82005D01*
X153194Y82107D01*
X153207Y82209D01*
X153216Y82311D01*
X153222Y82414D01*
X153224Y82517D01*
X152356Y80492D02*
X147438Y74707D01*
X153224Y74707D01*
X158868Y80492D02*
X162340Y80492D01*
X162433Y80490D01*
X162526Y80484D01*
X162619Y80475D01*
X162711Y80462D01*
X162803Y80445D01*
X162894Y80425D01*
X162984Y80401D01*
X163073Y80373D01*
X163161Y80342D01*
X163247Y80307D01*
X163332Y80269D01*
X163415Y80227D01*
X163497Y80182D01*
X163577Y80134D01*
X163655Y80082D01*
X163730Y80028D01*
X163803Y79970D01*
X163874Y79910D01*
X163943Y79847D01*
X164009Y79781D01*
X164072Y79712D01*
X164132Y79641D01*
X164190Y79568D01*
X164244Y79493D01*
X164296Y79415D01*
X164344Y79335D01*
X164389Y79253D01*
X164431Y79170D01*
X164469Y79085D01*
X164504Y78999D01*
X164535Y78911D01*
X164563Y78822D01*
X164587Y78732D01*
X164607Y78641D01*
X164624Y78549D01*
X164637Y78457D01*
X164646Y78364D01*
X164652Y78271D01*
X164654Y78178D01*
X164654Y77599D01*
X164652Y77492D01*
X164646Y77385D01*
X164636Y77279D01*
X164622Y77173D01*
X164605Y77067D01*
X164583Y76963D01*
X164558Y76859D01*
X164528Y76756D01*
X164495Y76654D01*
X164459Y76554D01*
X164418Y76455D01*
X164374Y76358D01*
X164326Y76262D01*
X164275Y76168D01*
X164221Y76076D01*
X164163Y75986D01*
X164101Y75899D01*
X164037Y75813D01*
X163970Y75730D01*
X163899Y75650D01*
X163825Y75572D01*
X163749Y75497D01*
X163670Y75425D01*
X163589Y75356D01*
X163504Y75290D01*
X163418Y75227D01*
X163329Y75168D01*
X163238Y75112D01*
X163145Y75059D01*
X163051Y75009D01*
X162954Y74963D01*
X162856Y74921D01*
X162756Y74883D01*
X162655Y74848D01*
X162553Y74816D01*
X162449Y74789D01*
X162345Y74766D01*
X162240Y74746D01*
X162134Y74730D01*
X162028Y74718D01*
X161921Y74710D01*
X161814Y74706D01*
X161708Y74706D01*
X161601Y74710D01*
X161494Y74718D01*
X161388Y74730D01*
X161282Y74746D01*
X161177Y74766D01*
X161073Y74789D01*
X160969Y74816D01*
X160867Y74848D01*
X160766Y74883D01*
X160666Y74921D01*
X160568Y74963D01*
X160471Y75009D01*
X160377Y75059D01*
X160284Y75112D01*
X160193Y75168D01*
X160104Y75227D01*
X160018Y75290D01*
X159933Y75356D01*
X159852Y75425D01*
X159773Y75497D01*
X159697Y75572D01*
X159623Y75650D01*
X159552Y75730D01*
X159485Y75813D01*
X159421Y75899D01*
X159359Y75986D01*
X159301Y76076D01*
X159247Y76168D01*
X159196Y76262D01*
X159148Y76358D01*
X159104Y76455D01*
X159063Y76554D01*
X159027Y76654D01*
X158994Y76756D01*
X158964Y76859D01*
X158939Y76963D01*
X158917Y77067D01*
X158900Y77173D01*
X158886Y77279D01*
X158876Y77385D01*
X158870Y77492D01*
X158868Y77599D01*
X158868Y80492D01*
X158869Y80492D02*
X158871Y80627D01*
X158877Y80761D01*
X158887Y80895D01*
X158900Y81029D01*
X158918Y81163D01*
X158939Y81296D01*
X158965Y81428D01*
X158994Y81559D01*
X159027Y81690D01*
X159063Y81819D01*
X159104Y81948D01*
X159148Y82075D01*
X159196Y82201D01*
X159247Y82325D01*
X159303Y82448D01*
X159361Y82569D01*
X159423Y82688D01*
X159489Y82806D01*
X159558Y82922D01*
X159630Y83035D01*
X159706Y83147D01*
X159785Y83256D01*
X159867Y83362D01*
X159952Y83467D01*
X160040Y83569D01*
X160131Y83668D01*
X160224Y83764D01*
X160321Y83858D01*
X160420Y83949D01*
X160522Y84037D01*
X160627Y84122D01*
X160733Y84204D01*
X160842Y84283D01*
X160954Y84359D01*
X161067Y84431D01*
X161183Y84500D01*
X161301Y84566D01*
X161420Y84628D01*
X161541Y84686D01*
X161664Y84741D01*
X161788Y84793D01*
X161914Y84841D01*
X162041Y84885D01*
X162170Y84926D01*
X162299Y84962D01*
X162430Y84995D01*
X162561Y85024D01*
X162693Y85050D01*
X162826Y85071D01*
X162960Y85089D01*
X163094Y85102D01*
X163228Y85112D01*
X163362Y85118D01*
X163497Y85120D01*
X170298Y74707D02*
X173770Y74707D01*
X173863Y74709D01*
X173956Y74715D01*
X174049Y74724D01*
X174141Y74737D01*
X174233Y74754D01*
X174324Y74774D01*
X174414Y74798D01*
X174503Y74826D01*
X174591Y74857D01*
X174677Y74892D01*
X174762Y74930D01*
X174845Y74972D01*
X174927Y75017D01*
X175007Y75065D01*
X175085Y75117D01*
X175160Y75171D01*
X175233Y75229D01*
X175304Y75289D01*
X175373Y75352D01*
X175439Y75418D01*
X175502Y75487D01*
X175562Y75558D01*
X175620Y75631D01*
X175674Y75707D01*
X175726Y75784D01*
X175774Y75864D01*
X175819Y75946D01*
X175861Y76029D01*
X175899Y76114D01*
X175934Y76200D01*
X175965Y76288D01*
X175993Y76377D01*
X176017Y76467D01*
X176037Y76558D01*
X176054Y76650D01*
X176067Y76742D01*
X176076Y76835D01*
X176082Y76928D01*
X176084Y77021D01*
X176084Y78178D01*
X176082Y78271D01*
X176076Y78364D01*
X176067Y78457D01*
X176054Y78549D01*
X176037Y78641D01*
X176017Y78732D01*
X175993Y78822D01*
X175965Y78911D01*
X175934Y78999D01*
X175899Y79085D01*
X175861Y79170D01*
X175819Y79253D01*
X175774Y79335D01*
X175726Y79415D01*
X175674Y79493D01*
X175620Y79568D01*
X175562Y79641D01*
X175502Y79712D01*
X175439Y79781D01*
X175373Y79847D01*
X175304Y79910D01*
X175233Y79970D01*
X175160Y80028D01*
X175085Y80082D01*
X175007Y80134D01*
X174927Y80182D01*
X174845Y80227D01*
X174762Y80269D01*
X174677Y80307D01*
X174591Y80342D01*
X174503Y80373D01*
X174414Y80401D01*
X174324Y80425D01*
X174233Y80445D01*
X174141Y80462D01*
X174049Y80475D01*
X173956Y80484D01*
X173863Y80490D01*
X173770Y80492D01*
X170298Y80492D01*
X170298Y85121D01*
X176084Y85121D01*
X184910Y85121D02*
X185010Y85119D01*
X185109Y85113D01*
X185209Y85104D01*
X185307Y85090D01*
X185406Y85073D01*
X185503Y85053D01*
X185600Y85028D01*
X185696Y85000D01*
X185790Y84968D01*
X185883Y84932D01*
X185975Y84893D01*
X186065Y84851D01*
X186154Y84805D01*
X186241Y84755D01*
X186325Y84703D01*
X186408Y84647D01*
X186489Y84588D01*
X186567Y84526D01*
X186643Y84461D01*
X186716Y84393D01*
X186786Y84323D01*
X186854Y84250D01*
X186919Y84174D01*
X186981Y84096D01*
X187040Y84015D01*
X187096Y83932D01*
X187148Y83848D01*
X187198Y83761D01*
X187244Y83672D01*
X187286Y83582D01*
X187325Y83490D01*
X187361Y83397D01*
X187393Y83303D01*
X187421Y83207D01*
X187446Y83110D01*
X187466Y83013D01*
X187483Y82914D01*
X187497Y82816D01*
X187506Y82716D01*
X187512Y82617D01*
X187514Y82517D01*
X184910Y85121D02*
X184796Y85119D01*
X184683Y85113D01*
X184570Y85104D01*
X184457Y85090D01*
X184344Y85073D01*
X184233Y85052D01*
X184122Y85027D01*
X184012Y84998D01*
X183903Y84966D01*
X183795Y84930D01*
X183688Y84890D01*
X183583Y84847D01*
X183480Y84800D01*
X183378Y84749D01*
X183278Y84696D01*
X183179Y84638D01*
X183083Y84578D01*
X182989Y84514D01*
X182897Y84447D01*
X182807Y84377D01*
X182720Y84304D01*
X182635Y84229D01*
X182553Y84150D01*
X182474Y84068D01*
X182398Y83984D01*
X182324Y83898D01*
X182253Y83809D01*
X182186Y83717D01*
X182121Y83623D01*
X182060Y83528D01*
X182002Y83430D01*
X181948Y83330D01*
X181897Y83228D01*
X181849Y83125D01*
X181805Y83020D01*
X181765Y82914D01*
X181728Y82807D01*
X186646Y80492D02*
X186719Y80564D01*
X186790Y80639D01*
X186857Y80717D01*
X186922Y80797D01*
X186984Y80879D01*
X187043Y80963D01*
X187098Y81050D01*
X187151Y81139D01*
X187200Y81229D01*
X187246Y81321D01*
X187288Y81415D01*
X187327Y81511D01*
X187362Y81607D01*
X187394Y81705D01*
X187422Y81804D01*
X187446Y81904D01*
X187467Y82005D01*
X187484Y82107D01*
X187497Y82209D01*
X187506Y82311D01*
X187512Y82414D01*
X187514Y82517D01*
X186646Y80492D02*
X181728Y74707D01*
X187514Y74707D01*
X193814Y74707D02*
X193814Y85121D01*
X196707Y85121D01*
X196814Y85119D01*
X196921Y85113D01*
X197027Y85103D01*
X197133Y85089D01*
X197239Y85072D01*
X197343Y85050D01*
X197447Y85025D01*
X197550Y84995D01*
X197652Y84962D01*
X197752Y84926D01*
X197851Y84885D01*
X197948Y84841D01*
X198044Y84793D01*
X198138Y84742D01*
X198230Y84688D01*
X198320Y84630D01*
X198407Y84568D01*
X198493Y84504D01*
X198576Y84437D01*
X198656Y84366D01*
X198734Y84292D01*
X198809Y84216D01*
X198881Y84137D01*
X198950Y84056D01*
X199016Y83971D01*
X199079Y83885D01*
X199138Y83796D01*
X199194Y83705D01*
X199247Y83612D01*
X199297Y83518D01*
X199343Y83421D01*
X199385Y83323D01*
X199423Y83223D01*
X199458Y83122D01*
X199490Y83020D01*
X199517Y82916D01*
X199540Y82812D01*
X199560Y82707D01*
X199576Y82601D01*
X199588Y82495D01*
X199596Y82388D01*
X199600Y82281D01*
X199600Y82175D01*
X199596Y82068D01*
X199588Y81961D01*
X199576Y81855D01*
X199560Y81749D01*
X199540Y81644D01*
X199517Y81540D01*
X199490Y81436D01*
X199458Y81334D01*
X199423Y81233D01*
X199385Y81133D01*
X199343Y81035D01*
X199297Y80938D01*
X199247Y80844D01*
X199194Y80751D01*
X199138Y80660D01*
X199079Y80571D01*
X199016Y80485D01*
X198950Y80400D01*
X198881Y80319D01*
X198809Y80240D01*
X198734Y80164D01*
X198656Y80090D01*
X198576Y80019D01*
X198493Y79952D01*
X198407Y79888D01*
X198320Y79826D01*
X198230Y79768D01*
X198138Y79714D01*
X198044Y79663D01*
X197948Y79615D01*
X197851Y79571D01*
X197752Y79530D01*
X197652Y79494D01*
X197550Y79461D01*
X197447Y79431D01*
X197343Y79406D01*
X197239Y79384D01*
X197133Y79367D01*
X197027Y79353D01*
X196921Y79343D01*
X196814Y79337D01*
X196707Y79335D01*
X193814Y79335D01*
X207770Y85121D02*
X207870Y85119D01*
X207969Y85113D01*
X208069Y85104D01*
X208167Y85090D01*
X208266Y85073D01*
X208363Y85053D01*
X208460Y85028D01*
X208556Y85000D01*
X208650Y84968D01*
X208743Y84932D01*
X208835Y84893D01*
X208925Y84851D01*
X209014Y84805D01*
X209101Y84755D01*
X209185Y84703D01*
X209268Y84647D01*
X209349Y84588D01*
X209427Y84526D01*
X209503Y84461D01*
X209576Y84393D01*
X209646Y84323D01*
X209714Y84250D01*
X209779Y84174D01*
X209841Y84096D01*
X209900Y84015D01*
X209956Y83932D01*
X210008Y83848D01*
X210058Y83761D01*
X210104Y83672D01*
X210146Y83582D01*
X210185Y83490D01*
X210221Y83397D01*
X210253Y83303D01*
X210281Y83207D01*
X210306Y83110D01*
X210326Y83013D01*
X210343Y82914D01*
X210357Y82816D01*
X210366Y82716D01*
X210372Y82617D01*
X210374Y82517D01*
X207770Y85121D02*
X207656Y85119D01*
X207543Y85113D01*
X207430Y85104D01*
X207317Y85090D01*
X207204Y85073D01*
X207093Y85052D01*
X206982Y85027D01*
X206872Y84998D01*
X206763Y84966D01*
X206655Y84930D01*
X206548Y84890D01*
X206443Y84847D01*
X206340Y84800D01*
X206238Y84749D01*
X206138Y84696D01*
X206039Y84638D01*
X205943Y84578D01*
X205849Y84514D01*
X205757Y84447D01*
X205667Y84377D01*
X205580Y84304D01*
X205495Y84229D01*
X205413Y84150D01*
X205334Y84068D01*
X205258Y83984D01*
X205184Y83898D01*
X205113Y83809D01*
X205046Y83717D01*
X204981Y83623D01*
X204920Y83528D01*
X204862Y83430D01*
X204808Y83330D01*
X204757Y83228D01*
X204709Y83125D01*
X204665Y83020D01*
X204625Y82914D01*
X204588Y82807D01*
X209506Y80492D02*
X209579Y80564D01*
X209650Y80639D01*
X209717Y80717D01*
X209782Y80797D01*
X209844Y80879D01*
X209903Y80963D01*
X209958Y81050D01*
X210011Y81139D01*
X210060Y81229D01*
X210106Y81321D01*
X210148Y81415D01*
X210187Y81511D01*
X210222Y81607D01*
X210254Y81705D01*
X210282Y81804D01*
X210306Y81904D01*
X210327Y82005D01*
X210344Y82107D01*
X210357Y82209D01*
X210366Y82311D01*
X210372Y82414D01*
X210374Y82517D01*
X209506Y80492D02*
X204588Y74707D01*
X210374Y74707D01*
X215454Y73549D02*
X220082Y86278D01*
X225818Y85121D02*
X225818Y74707D01*
X225818Y85121D02*
X228711Y85121D01*
X228818Y85119D01*
X228925Y85113D01*
X229031Y85103D01*
X229137Y85089D01*
X229243Y85072D01*
X229347Y85050D01*
X229451Y85025D01*
X229554Y84995D01*
X229656Y84962D01*
X229756Y84926D01*
X229855Y84885D01*
X229952Y84841D01*
X230048Y84793D01*
X230142Y84742D01*
X230234Y84688D01*
X230324Y84630D01*
X230411Y84568D01*
X230497Y84504D01*
X230580Y84437D01*
X230660Y84366D01*
X230738Y84292D01*
X230813Y84216D01*
X230885Y84137D01*
X230954Y84056D01*
X231020Y83971D01*
X231083Y83885D01*
X231142Y83796D01*
X231198Y83705D01*
X231251Y83612D01*
X231301Y83518D01*
X231347Y83421D01*
X231389Y83323D01*
X231427Y83223D01*
X231462Y83122D01*
X231494Y83020D01*
X231521Y82916D01*
X231544Y82812D01*
X231564Y82707D01*
X231580Y82601D01*
X231592Y82495D01*
X231600Y82388D01*
X231604Y82281D01*
X231604Y82175D01*
X231600Y82068D01*
X231592Y81961D01*
X231580Y81855D01*
X231564Y81749D01*
X231544Y81644D01*
X231521Y81540D01*
X231494Y81436D01*
X231462Y81334D01*
X231427Y81233D01*
X231389Y81133D01*
X231347Y81035D01*
X231301Y80938D01*
X231251Y80844D01*
X231198Y80751D01*
X231142Y80660D01*
X231083Y80571D01*
X231020Y80485D01*
X230954Y80400D01*
X230885Y80319D01*
X230813Y80240D01*
X230738Y80164D01*
X230660Y80090D01*
X230580Y80019D01*
X230497Y79952D01*
X230411Y79888D01*
X230324Y79826D01*
X230234Y79768D01*
X230142Y79714D01*
X230048Y79663D01*
X229952Y79615D01*
X229855Y79571D01*
X229756Y79530D01*
X229656Y79494D01*
X229554Y79461D01*
X229451Y79431D01*
X229347Y79406D01*
X229243Y79384D01*
X229137Y79367D01*
X229031Y79353D01*
X228925Y79343D01*
X228818Y79337D01*
X228711Y79335D01*
X225818Y79335D01*
X236592Y77021D02*
X238906Y85121D01*
X236592Y77021D02*
X242378Y77021D01*
X240642Y79335D02*
X240642Y74707D01*
D16*
X531000Y214444D02*
X531000Y225000D01*
X531000Y204444D02*
X531000Y193889D01*
X531000Y183889D02*
X531000Y173333D01*
X531000Y163333D02*
X531000Y152778D01*
X531000Y142778D02*
X531000Y132222D01*
X531000Y122222D02*
X531000Y111667D01*
X531000Y101667D02*
X531000Y91111D01*
X531000Y81111D02*
X531000Y70556D01*
X531000Y60556D02*
X531000Y50000D01*
X636000Y202250D02*
X636000Y213000D01*
X636000Y192250D02*
X636000Y181500D01*
X636000Y171500D02*
X636000Y160750D01*
X636000Y150750D02*
X636000Y140000D01*
X636000Y130000D02*
X636000Y119250D01*
X636000Y109250D02*
X636000Y98500D01*
X636000Y88500D02*
X636000Y77750D01*
X636000Y67750D02*
X636000Y57000D01*
D17*
X80143Y192154D02*
X80143Y201242D01*
X80142Y192154D02*
X80140Y192055D01*
X80134Y191955D01*
X80125Y191856D01*
X80112Y191758D01*
X80095Y191660D01*
X80074Y191562D01*
X80049Y191466D01*
X80021Y191371D01*
X79989Y191277D01*
X79954Y191184D01*
X79915Y191092D01*
X79872Y191002D01*
X79827Y190914D01*
X79777Y190827D01*
X79725Y190743D01*
X79669Y190660D01*
X79611Y190580D01*
X79549Y190502D01*
X79484Y190427D01*
X79416Y190354D01*
X79346Y190284D01*
X79273Y190216D01*
X79198Y190151D01*
X79120Y190089D01*
X79040Y190031D01*
X78957Y189975D01*
X78873Y189923D01*
X78786Y189873D01*
X78698Y189828D01*
X78608Y189785D01*
X78516Y189746D01*
X78423Y189711D01*
X78329Y189679D01*
X78234Y189651D01*
X78138Y189626D01*
X78040Y189605D01*
X77942Y189588D01*
X77844Y189575D01*
X77745Y189566D01*
X77645Y189560D01*
X77546Y189558D01*
X76248Y189558D01*
X85820Y189558D02*
X85820Y201242D01*
X85820Y189558D02*
X91013Y189558D01*
X97885Y189558D02*
X100482Y189558D01*
X97885Y189558D02*
X97786Y189560D01*
X97686Y189566D01*
X97587Y189575D01*
X97489Y189588D01*
X97391Y189605D01*
X97293Y189626D01*
X97197Y189651D01*
X97102Y189679D01*
X97008Y189711D01*
X96915Y189746D01*
X96823Y189785D01*
X96733Y189828D01*
X96645Y189873D01*
X96558Y189923D01*
X96474Y189975D01*
X96391Y190031D01*
X96311Y190089D01*
X96233Y190151D01*
X96158Y190216D01*
X96085Y190284D01*
X96015Y190354D01*
X95947Y190427D01*
X95882Y190502D01*
X95820Y190580D01*
X95762Y190660D01*
X95706Y190743D01*
X95654Y190827D01*
X95604Y190914D01*
X95559Y191002D01*
X95516Y191092D01*
X95477Y191184D01*
X95442Y191277D01*
X95410Y191371D01*
X95382Y191466D01*
X95357Y191562D01*
X95336Y191660D01*
X95319Y191758D01*
X95306Y191856D01*
X95297Y191955D01*
X95291Y192055D01*
X95289Y192154D01*
X95289Y198646D01*
X95291Y198745D01*
X95297Y198845D01*
X95306Y198944D01*
X95319Y199042D01*
X95336Y199140D01*
X95357Y199238D01*
X95382Y199334D01*
X95410Y199429D01*
X95442Y199523D01*
X95477Y199616D01*
X95516Y199708D01*
X95559Y199798D01*
X95604Y199886D01*
X95654Y199973D01*
X95706Y200057D01*
X95762Y200140D01*
X95820Y200220D01*
X95882Y200298D01*
X95947Y200373D01*
X96015Y200446D01*
X96085Y200516D01*
X96158Y200584D01*
X96233Y200649D01*
X96311Y200711D01*
X96391Y200769D01*
X96474Y200825D01*
X96558Y200877D01*
X96645Y200927D01*
X96733Y200972D01*
X96823Y201015D01*
X96915Y201054D01*
X97007Y201089D01*
X97102Y201121D01*
X97197Y201149D01*
X97293Y201174D01*
X97391Y201195D01*
X97489Y201212D01*
X97587Y201225D01*
X97686Y201234D01*
X97786Y201240D01*
X97885Y201242D01*
X100482Y201242D01*
X107575Y201242D02*
X107575Y192154D01*
X107574Y192154D02*
X107572Y192055D01*
X107566Y191955D01*
X107557Y191856D01*
X107544Y191758D01*
X107527Y191660D01*
X107506Y191562D01*
X107481Y191466D01*
X107453Y191371D01*
X107421Y191277D01*
X107386Y191184D01*
X107347Y191092D01*
X107304Y191002D01*
X107259Y190914D01*
X107209Y190827D01*
X107157Y190743D01*
X107101Y190660D01*
X107043Y190580D01*
X106981Y190502D01*
X106916Y190427D01*
X106848Y190354D01*
X106778Y190284D01*
X106705Y190216D01*
X106630Y190151D01*
X106552Y190089D01*
X106472Y190031D01*
X106389Y189975D01*
X106305Y189923D01*
X106218Y189873D01*
X106130Y189828D01*
X106040Y189785D01*
X105948Y189746D01*
X105855Y189711D01*
X105761Y189679D01*
X105666Y189651D01*
X105570Y189626D01*
X105472Y189605D01*
X105374Y189588D01*
X105276Y189575D01*
X105177Y189566D01*
X105077Y189560D01*
X104978Y189558D01*
X103680Y189558D01*
X113252Y189558D02*
X113252Y201242D01*
X113252Y189558D02*
X118445Y189558D01*
X125317Y189558D02*
X127914Y189558D01*
X125317Y189558D02*
X125218Y189560D01*
X125118Y189566D01*
X125019Y189575D01*
X124921Y189588D01*
X124823Y189605D01*
X124725Y189626D01*
X124629Y189651D01*
X124534Y189679D01*
X124440Y189711D01*
X124347Y189746D01*
X124255Y189785D01*
X124165Y189828D01*
X124077Y189873D01*
X123990Y189923D01*
X123906Y189975D01*
X123823Y190031D01*
X123743Y190089D01*
X123665Y190151D01*
X123590Y190216D01*
X123517Y190284D01*
X123447Y190354D01*
X123379Y190427D01*
X123314Y190502D01*
X123252Y190580D01*
X123194Y190660D01*
X123138Y190743D01*
X123086Y190827D01*
X123036Y190914D01*
X122991Y191002D01*
X122948Y191092D01*
X122909Y191184D01*
X122874Y191277D01*
X122842Y191371D01*
X122814Y191466D01*
X122789Y191562D01*
X122768Y191660D01*
X122751Y191758D01*
X122738Y191856D01*
X122729Y191955D01*
X122723Y192055D01*
X122721Y192154D01*
X122721Y198646D01*
X122723Y198745D01*
X122729Y198845D01*
X122738Y198944D01*
X122751Y199042D01*
X122768Y199140D01*
X122789Y199238D01*
X122814Y199334D01*
X122842Y199429D01*
X122874Y199523D01*
X122909Y199616D01*
X122948Y199708D01*
X122991Y199798D01*
X123036Y199886D01*
X123086Y199973D01*
X123138Y200057D01*
X123194Y200140D01*
X123252Y200220D01*
X123314Y200298D01*
X123379Y200373D01*
X123447Y200446D01*
X123517Y200516D01*
X123590Y200584D01*
X123665Y200649D01*
X123743Y200711D01*
X123823Y200769D01*
X123906Y200825D01*
X123990Y200877D01*
X124077Y200927D01*
X124165Y200972D01*
X124255Y201015D01*
X124347Y201054D01*
X124439Y201089D01*
X124534Y201121D01*
X124629Y201149D01*
X124725Y201174D01*
X124823Y201195D01*
X124921Y201212D01*
X125019Y201225D01*
X125118Y201234D01*
X125218Y201240D01*
X125317Y201242D01*
X127914Y201242D01*
X135007Y201242D02*
X135007Y192154D01*
X135006Y192154D02*
X135004Y192055D01*
X134998Y191955D01*
X134989Y191856D01*
X134976Y191758D01*
X134959Y191660D01*
X134938Y191562D01*
X134913Y191466D01*
X134885Y191371D01*
X134853Y191277D01*
X134818Y191184D01*
X134779Y191092D01*
X134736Y191002D01*
X134691Y190914D01*
X134641Y190827D01*
X134589Y190743D01*
X134533Y190660D01*
X134475Y190580D01*
X134413Y190502D01*
X134348Y190427D01*
X134280Y190354D01*
X134210Y190284D01*
X134137Y190216D01*
X134062Y190151D01*
X133984Y190089D01*
X133904Y190031D01*
X133821Y189975D01*
X133737Y189923D01*
X133650Y189873D01*
X133562Y189828D01*
X133472Y189785D01*
X133380Y189746D01*
X133287Y189711D01*
X133193Y189679D01*
X133098Y189651D01*
X133002Y189626D01*
X132904Y189605D01*
X132806Y189588D01*
X132708Y189575D01*
X132609Y189566D01*
X132509Y189560D01*
X132410Y189558D01*
X131112Y189558D01*
X140684Y189558D02*
X140684Y201242D01*
X140684Y189558D02*
X145877Y189558D01*
X152749Y189558D02*
X155346Y189558D01*
X152749Y189558D02*
X152650Y189560D01*
X152550Y189566D01*
X152451Y189575D01*
X152353Y189588D01*
X152255Y189605D01*
X152157Y189626D01*
X152061Y189651D01*
X151966Y189679D01*
X151872Y189711D01*
X151779Y189746D01*
X151687Y189785D01*
X151597Y189828D01*
X151509Y189873D01*
X151422Y189923D01*
X151338Y189975D01*
X151255Y190031D01*
X151175Y190089D01*
X151097Y190151D01*
X151022Y190216D01*
X150949Y190284D01*
X150879Y190354D01*
X150811Y190427D01*
X150746Y190502D01*
X150684Y190580D01*
X150626Y190660D01*
X150570Y190743D01*
X150518Y190827D01*
X150468Y190914D01*
X150423Y191002D01*
X150380Y191092D01*
X150341Y191184D01*
X150306Y191277D01*
X150274Y191371D01*
X150246Y191466D01*
X150221Y191562D01*
X150200Y191660D01*
X150183Y191758D01*
X150170Y191856D01*
X150161Y191955D01*
X150155Y192055D01*
X150153Y192154D01*
X150153Y198646D01*
X150155Y198745D01*
X150161Y198845D01*
X150170Y198944D01*
X150183Y199042D01*
X150200Y199140D01*
X150221Y199238D01*
X150246Y199334D01*
X150274Y199429D01*
X150306Y199523D01*
X150341Y199616D01*
X150380Y199708D01*
X150423Y199798D01*
X150468Y199886D01*
X150518Y199973D01*
X150570Y200057D01*
X150626Y200140D01*
X150684Y200220D01*
X150746Y200298D01*
X150811Y200373D01*
X150879Y200446D01*
X150949Y200516D01*
X151022Y200584D01*
X151097Y200649D01*
X151175Y200711D01*
X151255Y200769D01*
X151338Y200825D01*
X151422Y200877D01*
X151509Y200927D01*
X151597Y200972D01*
X151687Y201015D01*
X151779Y201054D01*
X151871Y201089D01*
X151966Y201121D01*
X152061Y201149D01*
X152157Y201174D01*
X152255Y201195D01*
X152353Y201212D01*
X152451Y201225D01*
X152550Y201234D01*
X152650Y201240D01*
X152749Y201242D01*
X155346Y201242D01*
X162439Y201242D02*
X162439Y192154D01*
X162438Y192154D02*
X162436Y192055D01*
X162430Y191955D01*
X162421Y191856D01*
X162408Y191758D01*
X162391Y191660D01*
X162370Y191562D01*
X162345Y191466D01*
X162317Y191371D01*
X162285Y191277D01*
X162250Y191184D01*
X162211Y191092D01*
X162168Y191002D01*
X162123Y190914D01*
X162073Y190827D01*
X162021Y190743D01*
X161965Y190660D01*
X161907Y190580D01*
X161845Y190502D01*
X161780Y190427D01*
X161712Y190354D01*
X161642Y190284D01*
X161569Y190216D01*
X161494Y190151D01*
X161416Y190089D01*
X161336Y190031D01*
X161253Y189975D01*
X161169Y189923D01*
X161082Y189873D01*
X160994Y189828D01*
X160904Y189785D01*
X160812Y189746D01*
X160719Y189711D01*
X160625Y189679D01*
X160530Y189651D01*
X160434Y189626D01*
X160336Y189605D01*
X160238Y189588D01*
X160140Y189575D01*
X160041Y189566D01*
X159941Y189560D01*
X159842Y189558D01*
X158544Y189558D01*
X168116Y189558D02*
X168116Y201242D01*
X168116Y189558D02*
X173309Y189558D01*
X180181Y189558D02*
X182778Y189558D01*
X180181Y189558D02*
X180082Y189560D01*
X179982Y189566D01*
X179883Y189575D01*
X179785Y189588D01*
X179687Y189605D01*
X179589Y189626D01*
X179493Y189651D01*
X179398Y189679D01*
X179304Y189711D01*
X179211Y189746D01*
X179119Y189785D01*
X179029Y189828D01*
X178941Y189873D01*
X178854Y189923D01*
X178770Y189975D01*
X178687Y190031D01*
X178607Y190089D01*
X178529Y190151D01*
X178454Y190216D01*
X178381Y190284D01*
X178311Y190354D01*
X178243Y190427D01*
X178178Y190502D01*
X178116Y190580D01*
X178058Y190660D01*
X178002Y190743D01*
X177950Y190827D01*
X177900Y190914D01*
X177855Y191002D01*
X177812Y191092D01*
X177773Y191184D01*
X177738Y191277D01*
X177706Y191371D01*
X177678Y191466D01*
X177653Y191562D01*
X177632Y191660D01*
X177615Y191758D01*
X177602Y191856D01*
X177593Y191955D01*
X177587Y192055D01*
X177585Y192154D01*
X177585Y198646D01*
X177587Y198745D01*
X177593Y198845D01*
X177602Y198944D01*
X177615Y199042D01*
X177632Y199140D01*
X177653Y199238D01*
X177678Y199334D01*
X177706Y199429D01*
X177738Y199523D01*
X177773Y199616D01*
X177812Y199708D01*
X177855Y199798D01*
X177900Y199886D01*
X177950Y199973D01*
X178002Y200057D01*
X178058Y200140D01*
X178116Y200220D01*
X178178Y200298D01*
X178243Y200373D01*
X178311Y200446D01*
X178381Y200516D01*
X178454Y200584D01*
X178529Y200649D01*
X178607Y200711D01*
X178687Y200769D01*
X178770Y200825D01*
X178854Y200877D01*
X178941Y200927D01*
X179029Y200972D01*
X179119Y201015D01*
X179211Y201054D01*
X179303Y201089D01*
X179398Y201121D01*
X179493Y201149D01*
X179589Y201174D01*
X179687Y201195D01*
X179785Y201212D01*
X179883Y201225D01*
X179982Y201234D01*
X180082Y201240D01*
X180181Y201242D01*
X182778Y201242D01*
D13*
X255166Y55137D02*
X-44834Y55137D01*
X-44834Y219137D01*
X255166Y219137D01*
X255166Y55137D01*
X5166Y80137D02*
X-34834Y80137D01*
X-34834Y100137D01*
X-4834Y100137D01*
X-4834Y120137D01*
X-34834Y120137D01*
X-34834Y140137D01*
X-4834Y140137D01*
X-4834Y160137D01*
X-34834Y160137D01*
X-34834Y180137D01*
X-34834Y200137D01*
X15166Y200137D01*
X15166Y180137D02*
X-34834Y180137D01*
X25166Y175137D02*
X65166Y175137D01*
X65166Y205137D01*
X25166Y205137D01*
X25166Y175137D01*
X34267Y190137D02*
X34270Y190380D01*
X34279Y190623D01*
X34294Y190865D01*
X34315Y191107D01*
X34341Y191349D01*
X34374Y191589D01*
X34413Y191829D01*
X34457Y192068D01*
X34508Y192306D01*
X34564Y192542D01*
X34626Y192777D01*
X34693Y193011D01*
X34767Y193242D01*
X34846Y193472D01*
X34930Y193700D01*
X35021Y193925D01*
X35116Y194148D01*
X35217Y194369D01*
X35324Y194588D01*
X35436Y194803D01*
X35553Y195016D01*
X35675Y195226D01*
X35803Y195433D01*
X35935Y195637D01*
X36073Y195837D01*
X36215Y196034D01*
X36362Y196227D01*
X36514Y196417D01*
X36670Y196603D01*
X36831Y196785D01*
X36997Y196963D01*
X37166Y197137D01*
X37340Y197306D01*
X37518Y197472D01*
X37700Y197633D01*
X37886Y197789D01*
X38076Y197941D01*
X38269Y198088D01*
X38466Y198230D01*
X38666Y198368D01*
X38870Y198500D01*
X39077Y198628D01*
X39287Y198750D01*
X39500Y198867D01*
X39715Y198979D01*
X39934Y199086D01*
X40155Y199187D01*
X40378Y199282D01*
X40603Y199373D01*
X40831Y199457D01*
X41061Y199536D01*
X41292Y199610D01*
X41526Y199677D01*
X41761Y199739D01*
X41997Y199795D01*
X42235Y199846D01*
X42474Y199890D01*
X42714Y199929D01*
X42954Y199962D01*
X43196Y199988D01*
X43438Y200009D01*
X43680Y200024D01*
X43923Y200033D01*
X44166Y200036D01*
X44409Y200033D01*
X44652Y200024D01*
X44894Y200009D01*
X45136Y199988D01*
X45378Y199962D01*
X45618Y199929D01*
X45858Y199890D01*
X46097Y199846D01*
X46335Y199795D01*
X46571Y199739D01*
X46806Y199677D01*
X47040Y199610D01*
X47271Y199536D01*
X47501Y199457D01*
X47729Y199373D01*
X47954Y199282D01*
X48177Y199187D01*
X48398Y199086D01*
X48617Y198979D01*
X48832Y198867D01*
X49045Y198750D01*
X49255Y198628D01*
X49462Y198500D01*
X49666Y198368D01*
X49866Y198230D01*
X50063Y198088D01*
X50256Y197941D01*
X50446Y197789D01*
X50632Y197633D01*
X50814Y197472D01*
X50992Y197306D01*
X51166Y197137D01*
X51335Y196963D01*
X51501Y196785D01*
X51662Y196603D01*
X51818Y196417D01*
X51970Y196227D01*
X52117Y196034D01*
X52259Y195837D01*
X52397Y195637D01*
X52529Y195433D01*
X52657Y195226D01*
X52779Y195016D01*
X52896Y194803D01*
X53008Y194588D01*
X53115Y194369D01*
X53216Y194148D01*
X53311Y193925D01*
X53402Y193700D01*
X53486Y193472D01*
X53565Y193242D01*
X53639Y193011D01*
X53706Y192777D01*
X53768Y192542D01*
X53824Y192306D01*
X53875Y192068D01*
X53919Y191829D01*
X53958Y191589D01*
X53991Y191349D01*
X54017Y191107D01*
X54038Y190865D01*
X54053Y190623D01*
X54062Y190380D01*
X54065Y190137D01*
X54062Y189894D01*
X54053Y189651D01*
X54038Y189409D01*
X54017Y189167D01*
X53991Y188925D01*
X53958Y188685D01*
X53919Y188445D01*
X53875Y188206D01*
X53824Y187968D01*
X53768Y187732D01*
X53706Y187497D01*
X53639Y187263D01*
X53565Y187032D01*
X53486Y186802D01*
X53402Y186574D01*
X53311Y186349D01*
X53216Y186126D01*
X53115Y185905D01*
X53008Y185686D01*
X52896Y185471D01*
X52779Y185258D01*
X52657Y185048D01*
X52529Y184841D01*
X52397Y184637D01*
X52259Y184437D01*
X52117Y184240D01*
X51970Y184047D01*
X51818Y183857D01*
X51662Y183671D01*
X51501Y183489D01*
X51335Y183311D01*
X51166Y183137D01*
X50992Y182968D01*
X50814Y182802D01*
X50632Y182641D01*
X50446Y182485D01*
X50256Y182333D01*
X50063Y182186D01*
X49866Y182044D01*
X49666Y181906D01*
X49462Y181774D01*
X49255Y181646D01*
X49045Y181524D01*
X48832Y181407D01*
X48617Y181295D01*
X48398Y181188D01*
X48177Y181087D01*
X47954Y180992D01*
X47729Y180901D01*
X47501Y180817D01*
X47271Y180738D01*
X47040Y180664D01*
X46806Y180597D01*
X46571Y180535D01*
X46335Y180479D01*
X46097Y180428D01*
X45858Y180384D01*
X45618Y180345D01*
X45378Y180312D01*
X45136Y180286D01*
X44894Y180265D01*
X44652Y180250D01*
X44409Y180241D01*
X44166Y180238D01*
X43923Y180241D01*
X43680Y180250D01*
X43438Y180265D01*
X43196Y180286D01*
X42954Y180312D01*
X42714Y180345D01*
X42474Y180384D01*
X42235Y180428D01*
X41997Y180479D01*
X41761Y180535D01*
X41526Y180597D01*
X41292Y180664D01*
X41061Y180738D01*
X40831Y180817D01*
X40603Y180901D01*
X40378Y180992D01*
X40155Y181087D01*
X39934Y181188D01*
X39715Y181295D01*
X39500Y181407D01*
X39287Y181524D01*
X39077Y181646D01*
X38870Y181774D01*
X38666Y181906D01*
X38466Y182044D01*
X38269Y182186D01*
X38076Y182333D01*
X37886Y182485D01*
X37700Y182641D01*
X37518Y182802D01*
X37340Y182968D01*
X37166Y183137D01*
X36997Y183311D01*
X36831Y183489D01*
X36670Y183671D01*
X36514Y183857D01*
X36362Y184047D01*
X36215Y184240D01*
X36073Y184437D01*
X35935Y184637D01*
X35803Y184841D01*
X35675Y185048D01*
X35553Y185258D01*
X35436Y185471D01*
X35324Y185686D01*
X35217Y185905D01*
X35116Y186126D01*
X35021Y186349D01*
X34930Y186574D01*
X34846Y186802D01*
X34767Y187032D01*
X34693Y187263D01*
X34626Y187497D01*
X34564Y187732D01*
X34508Y187968D01*
X34457Y188206D01*
X34413Y188445D01*
X34374Y188685D01*
X34341Y188925D01*
X34315Y189167D01*
X34294Y189409D01*
X34279Y189651D01*
X34270Y189894D01*
X34267Y190137D01*
D18*
X421300Y263000D02*
X451300Y263000D01*
X421300Y263000D02*
X421300Y213000D01*
X451300Y213000D01*
X491300Y263000D02*
X511300Y263000D01*
X521300Y253000D01*
X521300Y223000D01*
X511300Y213000D01*
X491300Y213000D01*
D12*
X441788Y234847D02*
X441788Y236315D01*
X441788Y234847D02*
X441786Y234773D01*
X441780Y234698D01*
X441771Y234625D01*
X441758Y234551D01*
X441741Y234479D01*
X441721Y234408D01*
X441697Y234337D01*
X441669Y234268D01*
X441638Y234201D01*
X441604Y234135D01*
X441566Y234070D01*
X441525Y234008D01*
X441481Y233948D01*
X441434Y233891D01*
X441384Y233836D01*
X441331Y233783D01*
X441276Y233733D01*
X441219Y233686D01*
X441159Y233642D01*
X441097Y233601D01*
X441032Y233563D01*
X440967Y233529D01*
X440899Y233498D01*
X440830Y233470D01*
X440759Y233446D01*
X440688Y233426D01*
X440616Y233409D01*
X440542Y233396D01*
X440469Y233387D01*
X440394Y233381D01*
X440320Y233379D01*
X440320Y233380D02*
X436652Y233380D01*
X436652Y233379D02*
X436578Y233381D01*
X436503Y233387D01*
X436430Y233396D01*
X436356Y233409D01*
X436284Y233426D01*
X436213Y233446D01*
X436142Y233470D01*
X436073Y233498D01*
X436006Y233529D01*
X435940Y233563D01*
X435875Y233601D01*
X435813Y233642D01*
X435753Y233686D01*
X435696Y233733D01*
X435641Y233783D01*
X435588Y233836D01*
X435538Y233891D01*
X435491Y233948D01*
X435447Y234008D01*
X435406Y234070D01*
X435368Y234135D01*
X435334Y234200D01*
X435303Y234268D01*
X435275Y234337D01*
X435251Y234408D01*
X435231Y234479D01*
X435214Y234551D01*
X435201Y234625D01*
X435192Y234698D01*
X435186Y234773D01*
X435184Y234847D01*
X435184Y236315D01*
X436652Y239511D02*
X435184Y241346D01*
X441788Y241346D01*
X441788Y243180D02*
X441788Y239511D01*
D19*
X503250Y125750D02*
X503250Y121750D01*
D17*
X485992Y118115D02*
X478880Y118115D01*
X478880Y120090D01*
X478882Y120176D01*
X478888Y120262D01*
X478897Y120348D01*
X478910Y120433D01*
X478927Y120518D01*
X478947Y120601D01*
X478971Y120684D01*
X478999Y120766D01*
X479030Y120846D01*
X479065Y120925D01*
X479103Y121002D01*
X479145Y121078D01*
X479189Y121152D01*
X479237Y121223D01*
X479288Y121293D01*
X479342Y121360D01*
X479399Y121425D01*
X479459Y121487D01*
X479521Y121547D01*
X479586Y121604D01*
X479653Y121658D01*
X479723Y121709D01*
X479794Y121757D01*
X479868Y121801D01*
X479944Y121843D01*
X480021Y121881D01*
X480100Y121916D01*
X480180Y121947D01*
X480262Y121975D01*
X480345Y121999D01*
X480428Y122019D01*
X480513Y122036D01*
X480598Y122049D01*
X480684Y122058D01*
X480770Y122064D01*
X480856Y122066D01*
X484016Y122066D01*
X484016Y122067D02*
X484102Y122065D01*
X484188Y122059D01*
X484274Y122050D01*
X484359Y122037D01*
X484444Y122020D01*
X484527Y122000D01*
X484610Y121976D01*
X484692Y121948D01*
X484772Y121917D01*
X484851Y121882D01*
X484928Y121844D01*
X485004Y121802D01*
X485078Y121758D01*
X485149Y121710D01*
X485219Y121659D01*
X485286Y121605D01*
X485351Y121548D01*
X485413Y121488D01*
X485473Y121426D01*
X485530Y121361D01*
X485584Y121294D01*
X485635Y121224D01*
X485683Y121153D01*
X485727Y121079D01*
X485769Y121003D01*
X485807Y120926D01*
X485842Y120847D01*
X485873Y120767D01*
X485901Y120685D01*
X485925Y120602D01*
X485945Y120519D01*
X485962Y120434D01*
X485975Y120349D01*
X485984Y120263D01*
X485990Y120177D01*
X485992Y120091D01*
X485992Y120090D02*
X485992Y118115D01*
X485992Y125674D02*
X485992Y128045D01*
X485990Y128123D01*
X485984Y128200D01*
X485975Y128277D01*
X485962Y128353D01*
X485945Y128429D01*
X485924Y128504D01*
X485900Y128577D01*
X485872Y128650D01*
X485840Y128721D01*
X485805Y128790D01*
X485767Y128857D01*
X485726Y128923D01*
X485681Y128986D01*
X485633Y129047D01*
X485583Y129106D01*
X485529Y129162D01*
X485473Y129216D01*
X485414Y129266D01*
X485353Y129314D01*
X485290Y129359D01*
X485224Y129400D01*
X485157Y129438D01*
X485088Y129473D01*
X485017Y129505D01*
X484944Y129533D01*
X484871Y129557D01*
X484796Y129578D01*
X484720Y129595D01*
X484644Y129608D01*
X484567Y129617D01*
X484490Y129623D01*
X484412Y129625D01*
X483621Y129625D01*
X483543Y129623D01*
X483466Y129617D01*
X483389Y129608D01*
X483313Y129595D01*
X483237Y129578D01*
X483162Y129557D01*
X483089Y129533D01*
X483016Y129505D01*
X482945Y129473D01*
X482876Y129438D01*
X482809Y129400D01*
X482743Y129359D01*
X482680Y129314D01*
X482619Y129266D01*
X482560Y129216D01*
X482504Y129162D01*
X482450Y129106D01*
X482400Y129047D01*
X482352Y128986D01*
X482307Y128923D01*
X482266Y128857D01*
X482228Y128790D01*
X482193Y128721D01*
X482161Y128650D01*
X482133Y128577D01*
X482109Y128504D01*
X482088Y128429D01*
X482071Y128353D01*
X482058Y128277D01*
X482049Y128200D01*
X482043Y128123D01*
X482041Y128045D01*
X482041Y125674D01*
X478880Y125674D01*
X478880Y129625D01*
D20*
X478003Y136681D02*
X485369Y136681D01*
X478003Y136681D02*
X478003Y138727D01*
X478005Y138816D01*
X478011Y138905D01*
X478021Y138994D01*
X478034Y139082D01*
X478051Y139170D01*
X478073Y139257D01*
X478098Y139342D01*
X478126Y139427D01*
X478159Y139510D01*
X478195Y139592D01*
X478234Y139672D01*
X478277Y139750D01*
X478323Y139826D01*
X478373Y139901D01*
X478426Y139973D01*
X478482Y140042D01*
X478541Y140109D01*
X478602Y140174D01*
X478667Y140235D01*
X478734Y140294D01*
X478803Y140350D01*
X478875Y140403D01*
X478950Y140453D01*
X479026Y140499D01*
X479104Y140542D01*
X479184Y140581D01*
X479266Y140617D01*
X479349Y140650D01*
X479434Y140678D01*
X479519Y140703D01*
X479606Y140725D01*
X479694Y140742D01*
X479782Y140755D01*
X479871Y140765D01*
X479960Y140771D01*
X480049Y140773D01*
X480138Y140771D01*
X480227Y140765D01*
X480316Y140755D01*
X480404Y140742D01*
X480492Y140725D01*
X480579Y140703D01*
X480664Y140678D01*
X480749Y140650D01*
X480832Y140617D01*
X480914Y140581D01*
X480994Y140542D01*
X481072Y140499D01*
X481148Y140453D01*
X481223Y140403D01*
X481295Y140350D01*
X481364Y140294D01*
X481431Y140235D01*
X481496Y140174D01*
X481557Y140109D01*
X481616Y140042D01*
X481672Y139973D01*
X481725Y139901D01*
X481775Y139826D01*
X481821Y139750D01*
X481864Y139672D01*
X481903Y139592D01*
X481939Y139510D01*
X481972Y139427D01*
X482000Y139342D01*
X482025Y139257D01*
X482047Y139170D01*
X482064Y139082D01*
X482077Y138994D01*
X482087Y138905D01*
X482093Y138816D01*
X482095Y138727D01*
X482095Y136681D01*
X482095Y139136D02*
X485369Y140773D01*
X479640Y143945D02*
X478003Y145991D01*
X485369Y145991D01*
X485369Y143945D02*
X485369Y148037D01*
X474471Y108337D02*
X474471Y100971D01*
X474471Y108337D02*
X476517Y108337D01*
X476606Y108335D01*
X476695Y108329D01*
X476784Y108319D01*
X476872Y108306D01*
X476960Y108289D01*
X477047Y108267D01*
X477132Y108242D01*
X477217Y108214D01*
X477300Y108181D01*
X477382Y108145D01*
X477462Y108106D01*
X477540Y108063D01*
X477616Y108017D01*
X477691Y107967D01*
X477763Y107914D01*
X477832Y107858D01*
X477899Y107799D01*
X477964Y107738D01*
X478025Y107673D01*
X478084Y107606D01*
X478140Y107537D01*
X478193Y107465D01*
X478243Y107390D01*
X478289Y107314D01*
X478332Y107236D01*
X478371Y107156D01*
X478407Y107074D01*
X478440Y106991D01*
X478468Y106906D01*
X478493Y106821D01*
X478515Y106734D01*
X478532Y106646D01*
X478545Y106558D01*
X478555Y106469D01*
X478561Y106380D01*
X478563Y106291D01*
X478561Y106202D01*
X478555Y106113D01*
X478545Y106024D01*
X478532Y105936D01*
X478515Y105848D01*
X478493Y105761D01*
X478468Y105676D01*
X478440Y105591D01*
X478407Y105508D01*
X478371Y105426D01*
X478332Y105346D01*
X478289Y105268D01*
X478243Y105192D01*
X478193Y105117D01*
X478140Y105045D01*
X478084Y104976D01*
X478025Y104909D01*
X477964Y104844D01*
X477899Y104783D01*
X477832Y104724D01*
X477763Y104668D01*
X477691Y104615D01*
X477616Y104565D01*
X477540Y104519D01*
X477462Y104476D01*
X477382Y104437D01*
X477300Y104401D01*
X477217Y104368D01*
X477132Y104340D01*
X477047Y104315D01*
X476960Y104293D01*
X476872Y104276D01*
X476784Y104263D01*
X476695Y104253D01*
X476606Y104247D01*
X476517Y104245D01*
X474471Y104245D01*
X476926Y104245D02*
X478563Y100971D01*
X485828Y106496D02*
X485826Y106581D01*
X485820Y106666D01*
X485810Y106750D01*
X485797Y106834D01*
X485779Y106918D01*
X485758Y107000D01*
X485733Y107081D01*
X485704Y107161D01*
X485671Y107240D01*
X485635Y107317D01*
X485595Y107392D01*
X485552Y107466D01*
X485506Y107537D01*
X485456Y107606D01*
X485403Y107673D01*
X485347Y107737D01*
X485288Y107798D01*
X485227Y107857D01*
X485163Y107913D01*
X485096Y107966D01*
X485027Y108016D01*
X484956Y108062D01*
X484882Y108105D01*
X484807Y108145D01*
X484730Y108181D01*
X484651Y108214D01*
X484571Y108243D01*
X484490Y108268D01*
X484408Y108289D01*
X484324Y108307D01*
X484240Y108320D01*
X484156Y108330D01*
X484071Y108336D01*
X483986Y108338D01*
X483986Y108337D02*
X483890Y108335D01*
X483794Y108329D01*
X483699Y108319D01*
X483604Y108306D01*
X483509Y108288D01*
X483416Y108267D01*
X483323Y108242D01*
X483232Y108213D01*
X483141Y108181D01*
X483052Y108145D01*
X482965Y108105D01*
X482879Y108062D01*
X482795Y108016D01*
X482713Y107966D01*
X482633Y107912D01*
X482556Y107856D01*
X482481Y107796D01*
X482408Y107734D01*
X482338Y107668D01*
X482270Y107600D01*
X482205Y107529D01*
X482144Y107456D01*
X482085Y107380D01*
X482029Y107301D01*
X481977Y107221D01*
X481928Y107138D01*
X481882Y107054D01*
X481840Y106968D01*
X481802Y106880D01*
X481767Y106791D01*
X481735Y106700D01*
X485213Y105064D02*
X485273Y105123D01*
X485330Y105185D01*
X485385Y105249D01*
X485436Y105316D01*
X485485Y105385D01*
X485531Y105455D01*
X485574Y105528D01*
X485614Y105602D01*
X485650Y105678D01*
X485683Y105756D01*
X485713Y105835D01*
X485740Y105915D01*
X485763Y105996D01*
X485782Y106078D01*
X485798Y106160D01*
X485811Y106244D01*
X485820Y106328D01*
X485825Y106412D01*
X485827Y106496D01*
X485213Y105063D02*
X481735Y100971D01*
X485827Y100971D01*
X456315Y101021D02*
X454678Y101021D01*
X454600Y101023D01*
X454522Y101028D01*
X454445Y101038D01*
X454368Y101051D01*
X454292Y101067D01*
X454217Y101087D01*
X454143Y101111D01*
X454070Y101138D01*
X453998Y101169D01*
X453928Y101203D01*
X453860Y101240D01*
X453793Y101281D01*
X453728Y101325D01*
X453666Y101371D01*
X453606Y101421D01*
X453548Y101473D01*
X453493Y101528D01*
X453441Y101586D01*
X453391Y101646D01*
X453345Y101708D01*
X453301Y101773D01*
X453260Y101840D01*
X453223Y101908D01*
X453189Y101978D01*
X453158Y102050D01*
X453131Y102123D01*
X453107Y102197D01*
X453087Y102272D01*
X453071Y102348D01*
X453058Y102425D01*
X453048Y102502D01*
X453043Y102580D01*
X453041Y102658D01*
X453041Y106750D01*
X453043Y106830D01*
X453049Y106910D01*
X453059Y106990D01*
X453072Y107069D01*
X453090Y107148D01*
X453111Y107225D01*
X453137Y107301D01*
X453166Y107376D01*
X453198Y107450D01*
X453234Y107522D01*
X453274Y107592D01*
X453317Y107659D01*
X453363Y107725D01*
X453413Y107788D01*
X453465Y107849D01*
X453520Y107908D01*
X453579Y107963D01*
X453639Y108015D01*
X453703Y108065D01*
X453769Y108111D01*
X453836Y108154D01*
X453906Y108194D01*
X453978Y108230D01*
X454052Y108262D01*
X454126Y108291D01*
X454203Y108317D01*
X454280Y108338D01*
X454359Y108356D01*
X454438Y108369D01*
X454518Y108379D01*
X454598Y108385D01*
X454678Y108387D01*
X456315Y108387D01*
X461411Y108388D02*
X461496Y108386D01*
X461581Y108380D01*
X461665Y108370D01*
X461749Y108357D01*
X461833Y108339D01*
X461915Y108318D01*
X461996Y108293D01*
X462076Y108264D01*
X462155Y108231D01*
X462232Y108195D01*
X462307Y108155D01*
X462381Y108112D01*
X462452Y108066D01*
X462521Y108016D01*
X462588Y107963D01*
X462652Y107907D01*
X462713Y107848D01*
X462772Y107787D01*
X462828Y107723D01*
X462881Y107656D01*
X462931Y107587D01*
X462977Y107516D01*
X463020Y107442D01*
X463060Y107367D01*
X463096Y107290D01*
X463129Y107211D01*
X463158Y107131D01*
X463183Y107050D01*
X463204Y106968D01*
X463222Y106884D01*
X463235Y106800D01*
X463245Y106716D01*
X463251Y106631D01*
X463253Y106546D01*
X461411Y108387D02*
X461315Y108385D01*
X461219Y108379D01*
X461124Y108369D01*
X461029Y108356D01*
X460934Y108338D01*
X460841Y108317D01*
X460748Y108292D01*
X460657Y108263D01*
X460566Y108231D01*
X460477Y108195D01*
X460390Y108155D01*
X460304Y108112D01*
X460220Y108066D01*
X460138Y108016D01*
X460058Y107962D01*
X459981Y107906D01*
X459906Y107846D01*
X459833Y107784D01*
X459763Y107718D01*
X459695Y107650D01*
X459630Y107579D01*
X459569Y107506D01*
X459510Y107430D01*
X459454Y107351D01*
X459402Y107271D01*
X459353Y107188D01*
X459307Y107104D01*
X459265Y107018D01*
X459227Y106930D01*
X459192Y106841D01*
X459160Y106750D01*
X462638Y105114D02*
X462698Y105173D01*
X462755Y105235D01*
X462810Y105299D01*
X462861Y105366D01*
X462910Y105435D01*
X462956Y105505D01*
X462999Y105578D01*
X463039Y105652D01*
X463075Y105728D01*
X463108Y105806D01*
X463138Y105885D01*
X463165Y105965D01*
X463188Y106046D01*
X463207Y106128D01*
X463223Y106210D01*
X463236Y106294D01*
X463245Y106378D01*
X463250Y106462D01*
X463252Y106546D01*
X462638Y105113D02*
X459160Y101021D01*
X463252Y101021D01*
D21*
X341750Y44500D02*
X327250Y35000D01*
X341750Y44500D02*
X341750Y25500D01*
X327250Y35000D01*
D22*
X326750Y35000D03*
D20*
X302219Y28991D02*
X294853Y28991D01*
X294853Y31037D01*
X294855Y31126D01*
X294861Y31215D01*
X294871Y31304D01*
X294884Y31392D01*
X294901Y31480D01*
X294923Y31567D01*
X294948Y31652D01*
X294976Y31737D01*
X295009Y31820D01*
X295045Y31902D01*
X295084Y31982D01*
X295127Y32060D01*
X295173Y32136D01*
X295223Y32211D01*
X295276Y32283D01*
X295332Y32352D01*
X295391Y32419D01*
X295452Y32484D01*
X295517Y32545D01*
X295584Y32604D01*
X295653Y32660D01*
X295725Y32713D01*
X295800Y32763D01*
X295876Y32809D01*
X295954Y32852D01*
X296034Y32891D01*
X296116Y32927D01*
X296199Y32960D01*
X296284Y32988D01*
X296369Y33013D01*
X296456Y33035D01*
X296544Y33052D01*
X296632Y33065D01*
X296721Y33075D01*
X296810Y33081D01*
X296899Y33083D01*
X300173Y33083D01*
X300262Y33081D01*
X300351Y33075D01*
X300440Y33065D01*
X300528Y33052D01*
X300616Y33035D01*
X300703Y33013D01*
X300788Y32988D01*
X300873Y32960D01*
X300956Y32927D01*
X301038Y32891D01*
X301118Y32852D01*
X301196Y32809D01*
X301272Y32763D01*
X301347Y32713D01*
X301419Y32660D01*
X301488Y32604D01*
X301555Y32545D01*
X301620Y32484D01*
X301681Y32419D01*
X301740Y32352D01*
X301796Y32283D01*
X301849Y32211D01*
X301899Y32136D01*
X301945Y32060D01*
X301988Y31982D01*
X302027Y31902D01*
X302063Y31820D01*
X302096Y31737D01*
X302124Y31652D01*
X302149Y31567D01*
X302171Y31480D01*
X302188Y31392D01*
X302201Y31304D01*
X302211Y31215D01*
X302217Y31126D01*
X302219Y31037D01*
X302219Y28991D01*
X296490Y36550D02*
X294853Y38596D01*
X302219Y38596D01*
X302219Y36550D02*
X302219Y40642D01*
X409541Y29353D02*
X416907Y29353D01*
X409541Y29353D02*
X409541Y31399D01*
X409543Y31488D01*
X409549Y31577D01*
X409559Y31666D01*
X409572Y31754D01*
X409589Y31842D01*
X409611Y31929D01*
X409636Y32014D01*
X409664Y32099D01*
X409697Y32182D01*
X409733Y32264D01*
X409772Y32344D01*
X409815Y32422D01*
X409861Y32498D01*
X409911Y32573D01*
X409964Y32645D01*
X410020Y32714D01*
X410079Y32781D01*
X410140Y32846D01*
X410205Y32907D01*
X410272Y32966D01*
X410341Y33022D01*
X410413Y33075D01*
X410488Y33125D01*
X410564Y33171D01*
X410642Y33214D01*
X410722Y33253D01*
X410804Y33289D01*
X410887Y33322D01*
X410972Y33350D01*
X411057Y33375D01*
X411144Y33397D01*
X411232Y33414D01*
X411320Y33427D01*
X411409Y33437D01*
X411498Y33443D01*
X411587Y33445D01*
X411676Y33443D01*
X411765Y33437D01*
X411854Y33427D01*
X411942Y33414D01*
X412030Y33397D01*
X412117Y33375D01*
X412202Y33350D01*
X412287Y33322D01*
X412370Y33289D01*
X412452Y33253D01*
X412532Y33214D01*
X412610Y33171D01*
X412686Y33125D01*
X412761Y33075D01*
X412833Y33022D01*
X412902Y32966D01*
X412969Y32907D01*
X413034Y32846D01*
X413095Y32781D01*
X413154Y32714D01*
X413210Y32645D01*
X413263Y32573D01*
X413313Y32498D01*
X413359Y32422D01*
X413402Y32344D01*
X413441Y32264D01*
X413477Y32182D01*
X413510Y32099D01*
X413538Y32014D01*
X413563Y31929D01*
X413585Y31842D01*
X413602Y31754D01*
X413615Y31666D01*
X413625Y31577D01*
X413631Y31488D01*
X413633Y31399D01*
X413633Y29353D01*
X413633Y31808D02*
X416907Y33445D01*
X416907Y36617D02*
X416907Y38663D01*
X416905Y38752D01*
X416899Y38841D01*
X416889Y38930D01*
X416876Y39018D01*
X416859Y39106D01*
X416837Y39193D01*
X416812Y39278D01*
X416784Y39363D01*
X416751Y39446D01*
X416715Y39528D01*
X416676Y39608D01*
X416633Y39686D01*
X416587Y39762D01*
X416537Y39837D01*
X416484Y39909D01*
X416428Y39978D01*
X416369Y40045D01*
X416308Y40110D01*
X416243Y40171D01*
X416176Y40230D01*
X416107Y40286D01*
X416035Y40339D01*
X415960Y40389D01*
X415884Y40435D01*
X415806Y40478D01*
X415726Y40517D01*
X415644Y40553D01*
X415561Y40586D01*
X415476Y40614D01*
X415391Y40639D01*
X415304Y40661D01*
X415216Y40678D01*
X415128Y40691D01*
X415039Y40701D01*
X414950Y40707D01*
X414861Y40709D01*
X414772Y40707D01*
X414683Y40701D01*
X414594Y40691D01*
X414506Y40678D01*
X414418Y40661D01*
X414331Y40639D01*
X414246Y40614D01*
X414161Y40586D01*
X414078Y40553D01*
X413996Y40517D01*
X413916Y40478D01*
X413838Y40435D01*
X413762Y40389D01*
X413687Y40339D01*
X413615Y40286D01*
X413546Y40230D01*
X413479Y40171D01*
X413414Y40110D01*
X413353Y40045D01*
X413294Y39978D01*
X413238Y39909D01*
X413185Y39837D01*
X413135Y39762D01*
X413089Y39686D01*
X413046Y39608D01*
X413007Y39528D01*
X412971Y39446D01*
X412938Y39363D01*
X412910Y39278D01*
X412885Y39193D01*
X412863Y39106D01*
X412846Y39018D01*
X412833Y38930D01*
X412823Y38841D01*
X412817Y38752D01*
X412815Y38663D01*
X409541Y39072D02*
X409541Y36617D01*
X409541Y39072D02*
X409543Y39151D01*
X409549Y39230D01*
X409558Y39309D01*
X409571Y39387D01*
X409589Y39464D01*
X409609Y39540D01*
X409634Y39615D01*
X409662Y39689D01*
X409693Y39762D01*
X409729Y39833D01*
X409767Y39902D01*
X409809Y39969D01*
X409854Y40034D01*
X409902Y40097D01*
X409953Y40158D01*
X410007Y40215D01*
X410063Y40271D01*
X410122Y40323D01*
X410184Y40373D01*
X410248Y40419D01*
X410314Y40463D01*
X410382Y40503D01*
X410452Y40539D01*
X410524Y40573D01*
X410598Y40603D01*
X410672Y40629D01*
X410748Y40652D01*
X410825Y40670D01*
X410902Y40686D01*
X410981Y40697D01*
X411059Y40705D01*
X411138Y40709D01*
X411218Y40709D01*
X411297Y40705D01*
X411375Y40697D01*
X411454Y40686D01*
X411531Y40670D01*
X411608Y40652D01*
X411684Y40629D01*
X411758Y40603D01*
X411832Y40573D01*
X411904Y40539D01*
X411974Y40503D01*
X412042Y40463D01*
X412108Y40419D01*
X412172Y40373D01*
X412234Y40323D01*
X412293Y40271D01*
X412349Y40215D01*
X412403Y40158D01*
X412454Y40097D01*
X412502Y40034D01*
X412547Y39969D01*
X412589Y39902D01*
X412627Y39833D01*
X412663Y39762D01*
X412694Y39689D01*
X412722Y39615D01*
X412747Y39540D01*
X412767Y39464D01*
X412785Y39387D01*
X412798Y39309D01*
X412807Y39230D01*
X412813Y39151D01*
X412815Y39072D01*
X412815Y37435D01*
X62923Y233093D02*
X62923Y240459D01*
X64969Y240459D01*
X65058Y240457D01*
X65147Y240451D01*
X65236Y240441D01*
X65324Y240428D01*
X65412Y240411D01*
X65499Y240389D01*
X65584Y240364D01*
X65669Y240336D01*
X65752Y240303D01*
X65834Y240267D01*
X65914Y240228D01*
X65992Y240185D01*
X66068Y240139D01*
X66143Y240089D01*
X66215Y240036D01*
X66284Y239980D01*
X66351Y239921D01*
X66416Y239860D01*
X66477Y239795D01*
X66536Y239728D01*
X66592Y239659D01*
X66645Y239587D01*
X66695Y239512D01*
X66741Y239436D01*
X66784Y239358D01*
X66823Y239278D01*
X66859Y239196D01*
X66892Y239113D01*
X66920Y239028D01*
X66945Y238943D01*
X66967Y238856D01*
X66984Y238768D01*
X66997Y238680D01*
X67007Y238591D01*
X67013Y238502D01*
X67015Y238413D01*
X67013Y238324D01*
X67007Y238235D01*
X66997Y238146D01*
X66984Y238058D01*
X66967Y237970D01*
X66945Y237883D01*
X66920Y237798D01*
X66892Y237713D01*
X66859Y237630D01*
X66823Y237548D01*
X66784Y237468D01*
X66741Y237390D01*
X66695Y237314D01*
X66645Y237239D01*
X66592Y237167D01*
X66536Y237098D01*
X66477Y237031D01*
X66416Y236966D01*
X66351Y236905D01*
X66284Y236846D01*
X66215Y236790D01*
X66143Y236737D01*
X66068Y236687D01*
X65992Y236641D01*
X65914Y236598D01*
X65834Y236559D01*
X65752Y236523D01*
X65669Y236490D01*
X65584Y236462D01*
X65499Y236437D01*
X65412Y236415D01*
X65324Y236398D01*
X65236Y236385D01*
X65147Y236375D01*
X65058Y236369D01*
X64969Y236367D01*
X62923Y236367D01*
X65378Y236367D02*
X67015Y233093D01*
X70187Y234730D02*
X71824Y240459D01*
X70187Y234730D02*
X74279Y234730D01*
X73051Y236367D02*
X73051Y233093D01*
X9724Y257304D02*
X9724Y263569D01*
X12857Y260436D02*
X6592Y260436D01*
D23*
X30500Y257250D03*
X30500Y245250D03*
D24*
X30500Y251250D03*
D20*
X100979Y23815D02*
X100979Y22178D01*
X100977Y22100D01*
X100972Y22022D01*
X100962Y21945D01*
X100949Y21868D01*
X100933Y21792D01*
X100913Y21717D01*
X100889Y21643D01*
X100862Y21570D01*
X100831Y21498D01*
X100797Y21428D01*
X100760Y21360D01*
X100719Y21293D01*
X100675Y21228D01*
X100629Y21166D01*
X100579Y21106D01*
X100527Y21048D01*
X100472Y20993D01*
X100414Y20941D01*
X100354Y20891D01*
X100292Y20845D01*
X100227Y20801D01*
X100161Y20760D01*
X100092Y20723D01*
X100022Y20689D01*
X99950Y20658D01*
X99877Y20631D01*
X99803Y20607D01*
X99728Y20587D01*
X99652Y20571D01*
X99575Y20558D01*
X99498Y20548D01*
X99420Y20543D01*
X99342Y20541D01*
X95250Y20541D01*
X95170Y20543D01*
X95090Y20549D01*
X95010Y20559D01*
X94931Y20572D01*
X94852Y20590D01*
X94775Y20611D01*
X94699Y20637D01*
X94624Y20666D01*
X94550Y20698D01*
X94478Y20734D01*
X94408Y20774D01*
X94341Y20817D01*
X94275Y20863D01*
X94212Y20913D01*
X94151Y20965D01*
X94092Y21020D01*
X94037Y21079D01*
X93985Y21139D01*
X93935Y21203D01*
X93889Y21268D01*
X93846Y21336D01*
X93806Y21406D01*
X93770Y21478D01*
X93738Y21552D01*
X93709Y21626D01*
X93684Y21703D01*
X93662Y21780D01*
X93644Y21859D01*
X93631Y21938D01*
X93621Y22017D01*
X93615Y22098D01*
X93613Y22178D01*
X93613Y23815D01*
X100979Y26660D02*
X100979Y28706D01*
X100977Y28795D01*
X100971Y28884D01*
X100961Y28973D01*
X100948Y29061D01*
X100931Y29149D01*
X100909Y29236D01*
X100884Y29321D01*
X100856Y29406D01*
X100823Y29489D01*
X100787Y29571D01*
X100748Y29651D01*
X100705Y29729D01*
X100659Y29805D01*
X100609Y29880D01*
X100556Y29952D01*
X100500Y30021D01*
X100441Y30088D01*
X100380Y30153D01*
X100315Y30214D01*
X100248Y30273D01*
X100179Y30329D01*
X100107Y30382D01*
X100032Y30432D01*
X99956Y30478D01*
X99878Y30521D01*
X99798Y30560D01*
X99716Y30596D01*
X99633Y30629D01*
X99548Y30657D01*
X99463Y30682D01*
X99376Y30704D01*
X99288Y30721D01*
X99200Y30734D01*
X99111Y30744D01*
X99022Y30750D01*
X98933Y30752D01*
X98844Y30750D01*
X98755Y30744D01*
X98666Y30734D01*
X98578Y30721D01*
X98490Y30704D01*
X98403Y30682D01*
X98318Y30657D01*
X98233Y30629D01*
X98150Y30596D01*
X98068Y30560D01*
X97988Y30521D01*
X97910Y30478D01*
X97834Y30432D01*
X97759Y30382D01*
X97687Y30329D01*
X97618Y30273D01*
X97551Y30214D01*
X97486Y30153D01*
X97425Y30088D01*
X97366Y30021D01*
X97310Y29952D01*
X97257Y29880D01*
X97207Y29805D01*
X97161Y29729D01*
X97118Y29651D01*
X97079Y29571D01*
X97043Y29489D01*
X97010Y29406D01*
X96982Y29321D01*
X96957Y29236D01*
X96935Y29149D01*
X96918Y29061D01*
X96905Y28973D01*
X96895Y28884D01*
X96889Y28795D01*
X96887Y28706D01*
X93613Y29115D02*
X93613Y26660D01*
X93613Y29115D02*
X93615Y29194D01*
X93621Y29273D01*
X93630Y29352D01*
X93643Y29430D01*
X93661Y29507D01*
X93681Y29583D01*
X93706Y29658D01*
X93734Y29732D01*
X93765Y29805D01*
X93801Y29876D01*
X93839Y29945D01*
X93881Y30012D01*
X93926Y30077D01*
X93974Y30140D01*
X94025Y30201D01*
X94079Y30258D01*
X94135Y30314D01*
X94194Y30366D01*
X94256Y30416D01*
X94320Y30462D01*
X94386Y30506D01*
X94454Y30546D01*
X94524Y30582D01*
X94596Y30616D01*
X94670Y30646D01*
X94744Y30672D01*
X94820Y30695D01*
X94897Y30713D01*
X94974Y30729D01*
X95053Y30740D01*
X95131Y30748D01*
X95210Y30752D01*
X95290Y30752D01*
X95369Y30748D01*
X95447Y30740D01*
X95526Y30729D01*
X95603Y30713D01*
X95680Y30695D01*
X95756Y30672D01*
X95830Y30646D01*
X95904Y30616D01*
X95976Y30582D01*
X96046Y30546D01*
X96114Y30506D01*
X96180Y30462D01*
X96244Y30416D01*
X96306Y30366D01*
X96365Y30314D01*
X96421Y30258D01*
X96475Y30201D01*
X96526Y30140D01*
X96574Y30077D01*
X96619Y30012D01*
X96661Y29945D01*
X96699Y29876D01*
X96735Y29805D01*
X96766Y29732D01*
X96794Y29658D01*
X96819Y29583D01*
X96839Y29507D01*
X96857Y29430D01*
X96870Y29352D01*
X96879Y29273D01*
X96885Y29194D01*
X96887Y29115D01*
X96887Y27479D01*
X449637Y198885D02*
X449637Y200521D01*
X449637Y198885D02*
X449635Y198807D01*
X449630Y198729D01*
X449620Y198652D01*
X449607Y198575D01*
X449591Y198499D01*
X449571Y198424D01*
X449547Y198350D01*
X449520Y198277D01*
X449489Y198205D01*
X449455Y198135D01*
X449418Y198067D01*
X449377Y198000D01*
X449333Y197935D01*
X449287Y197873D01*
X449237Y197813D01*
X449185Y197755D01*
X449130Y197700D01*
X449072Y197648D01*
X449012Y197598D01*
X448950Y197552D01*
X448885Y197508D01*
X448819Y197467D01*
X448750Y197430D01*
X448680Y197396D01*
X448608Y197365D01*
X448535Y197338D01*
X448461Y197314D01*
X448386Y197294D01*
X448310Y197278D01*
X448233Y197265D01*
X448156Y197255D01*
X448078Y197250D01*
X448000Y197248D01*
X443908Y197248D01*
X443828Y197250D01*
X443748Y197256D01*
X443668Y197266D01*
X443589Y197279D01*
X443510Y197297D01*
X443433Y197318D01*
X443357Y197344D01*
X443282Y197373D01*
X443208Y197405D01*
X443136Y197441D01*
X443066Y197481D01*
X442999Y197524D01*
X442933Y197570D01*
X442870Y197620D01*
X442809Y197672D01*
X442750Y197727D01*
X442695Y197786D01*
X442643Y197846D01*
X442593Y197910D01*
X442547Y197975D01*
X442504Y198043D01*
X442464Y198113D01*
X442428Y198185D01*
X442396Y198259D01*
X442367Y198333D01*
X442342Y198410D01*
X442320Y198487D01*
X442302Y198566D01*
X442289Y198645D01*
X442279Y198724D01*
X442273Y198805D01*
X442271Y198885D01*
X442271Y200521D01*
X442271Y205004D02*
X448000Y203367D01*
X448000Y207459D01*
X446363Y206231D02*
X449637Y206231D01*
D21*
X371500Y217500D02*
X371500Y256500D01*
X400500Y256500D02*
X400500Y217500D01*
X385097Y208920D02*
X385099Y208975D01*
X385105Y209030D01*
X385115Y209084D01*
X385129Y209137D01*
X385146Y209190D01*
X385168Y209240D01*
X385192Y209290D01*
X385221Y209337D01*
X385253Y209382D01*
X385287Y209424D01*
X385325Y209464D01*
X385366Y209502D01*
X385409Y209536D01*
X385455Y209567D01*
X385503Y209594D01*
X385552Y209618D01*
X385603Y209639D01*
X385656Y209655D01*
X385709Y209668D01*
X385764Y209677D01*
X385819Y209682D01*
X385874Y209683D01*
X385929Y209680D01*
X385983Y209673D01*
X386037Y209662D01*
X386091Y209647D01*
X386142Y209629D01*
X386193Y209607D01*
X386241Y209581D01*
X386288Y209552D01*
X386333Y209519D01*
X386375Y209483D01*
X386414Y209445D01*
X386450Y209403D01*
X386484Y209360D01*
X386514Y209313D01*
X386540Y209265D01*
X386564Y209215D01*
X386583Y209164D01*
X386599Y209111D01*
X386611Y209057D01*
X386619Y209002D01*
X386623Y208948D01*
X386623Y208892D01*
X386619Y208838D01*
X386611Y208783D01*
X386599Y208729D01*
X386583Y208676D01*
X386564Y208625D01*
X386540Y208575D01*
X386514Y208527D01*
X386484Y208480D01*
X386450Y208437D01*
X386414Y208395D01*
X386375Y208357D01*
X386333Y208321D01*
X386288Y208288D01*
X386242Y208259D01*
X386193Y208233D01*
X386142Y208211D01*
X386091Y208193D01*
X386037Y208178D01*
X385983Y208167D01*
X385929Y208160D01*
X385874Y208157D01*
X385819Y208158D01*
X385764Y208163D01*
X385709Y208172D01*
X385656Y208185D01*
X385603Y208201D01*
X385552Y208222D01*
X385503Y208246D01*
X385455Y208273D01*
X385409Y208304D01*
X385366Y208338D01*
X385325Y208376D01*
X385287Y208416D01*
X385253Y208458D01*
X385221Y208503D01*
X385192Y208550D01*
X385168Y208600D01*
X385146Y208650D01*
X385129Y208703D01*
X385115Y208756D01*
X385105Y208810D01*
X385099Y208865D01*
X385097Y208920D01*
X298500Y217500D02*
X298500Y256500D01*
X327500Y256500D02*
X327500Y217500D01*
X312097Y208920D02*
X312099Y208975D01*
X312105Y209030D01*
X312115Y209084D01*
X312129Y209137D01*
X312146Y209190D01*
X312168Y209240D01*
X312192Y209290D01*
X312221Y209337D01*
X312253Y209382D01*
X312287Y209424D01*
X312325Y209464D01*
X312366Y209502D01*
X312409Y209536D01*
X312455Y209567D01*
X312503Y209594D01*
X312552Y209618D01*
X312603Y209639D01*
X312656Y209655D01*
X312709Y209668D01*
X312764Y209677D01*
X312819Y209682D01*
X312874Y209683D01*
X312929Y209680D01*
X312983Y209673D01*
X313037Y209662D01*
X313091Y209647D01*
X313142Y209629D01*
X313193Y209607D01*
X313241Y209581D01*
X313288Y209552D01*
X313333Y209519D01*
X313375Y209483D01*
X313414Y209445D01*
X313450Y209403D01*
X313484Y209360D01*
X313514Y209313D01*
X313540Y209265D01*
X313564Y209215D01*
X313583Y209164D01*
X313599Y209111D01*
X313611Y209057D01*
X313619Y209002D01*
X313623Y208948D01*
X313623Y208892D01*
X313619Y208838D01*
X313611Y208783D01*
X313599Y208729D01*
X313583Y208676D01*
X313564Y208625D01*
X313540Y208575D01*
X313514Y208527D01*
X313484Y208480D01*
X313450Y208437D01*
X313414Y208395D01*
X313375Y208357D01*
X313333Y208321D01*
X313288Y208288D01*
X313242Y208259D01*
X313193Y208233D01*
X313142Y208211D01*
X313091Y208193D01*
X313037Y208178D01*
X312983Y208167D01*
X312929Y208160D01*
X312874Y208157D01*
X312819Y208158D01*
X312764Y208163D01*
X312709Y208172D01*
X312656Y208185D01*
X312603Y208201D01*
X312552Y208222D01*
X312503Y208246D01*
X312455Y208273D01*
X312409Y208304D01*
X312366Y208338D01*
X312325Y208376D01*
X312287Y208416D01*
X312253Y208458D01*
X312221Y208503D01*
X312192Y208550D01*
X312168Y208600D01*
X312146Y208650D01*
X312129Y208703D01*
X312115Y208756D01*
X312105Y208810D01*
X312099Y208865D01*
X312097Y208920D01*
M02*
