G04 EAGLE Gerber RS-274X export*
G75*
%MOMM*%
%FSLAX34Y34*%
%LPD*%
%INSilkscreen Top*%
%IPPOS*%
%AMOC8*
5,1,8,0,0,1.08239X$1,22.5*%
G01*
%ADD10C,0.685800*%
%ADD11C,0.457200*%
%ADD12C,0.152400*%
%ADD13C,0.127000*%
%ADD14C,0.330200*%
%ADD15C,0.228600*%
%ADD16C,0.200000*%
%ADD17C,0.101600*%
%ADD18C,0.203200*%
%ADD19C,0.300000*%
%ADD20C,0.076200*%
%ADD21C,0.254000*%
%ADD22R,0.300000X2.100000*%
%ADD23R,0.300000X0.150000*%
%ADD24R,0.300000X0.300000*%

G36*
X636044Y51241D02*
X636044Y51241D01*
X636050Y51240D01*
X1221050Y89976D01*
X1221165Y90002D01*
X1221280Y90027D01*
X1221285Y90030D01*
X1221290Y90031D01*
X1221390Y90093D01*
X1221491Y90153D01*
X1221495Y90158D01*
X1221499Y90160D01*
X1221574Y90251D01*
X1221651Y90340D01*
X1221653Y90345D01*
X1221656Y90350D01*
X1221699Y90459D01*
X1221743Y90568D01*
X1221744Y90575D01*
X1221745Y90579D01*
X1221746Y90596D01*
X1221761Y90735D01*
X1221761Y175319D01*
X1221743Y175430D01*
X1221728Y175542D01*
X1221723Y175551D01*
X1221722Y175562D01*
X1221669Y175661D01*
X1221619Y175762D01*
X1221611Y175770D01*
X1221606Y175779D01*
X1221525Y175856D01*
X1221445Y175937D01*
X1221436Y175941D01*
X1221428Y175949D01*
X1221326Y175996D01*
X1221225Y176046D01*
X1221213Y176049D01*
X1221205Y176052D01*
X1221180Y176055D01*
X1221061Y176078D01*
X636061Y222759D01*
X636010Y222755D01*
X635961Y222760D01*
X635889Y222745D01*
X635815Y222739D01*
X635769Y222719D01*
X635720Y222708D01*
X635657Y222670D01*
X635590Y222641D01*
X635552Y222608D01*
X635509Y222582D01*
X635461Y222526D01*
X635407Y222477D01*
X635382Y222433D01*
X635349Y222395D01*
X635322Y222327D01*
X635286Y222263D01*
X635276Y222213D01*
X635257Y222167D01*
X635244Y222046D01*
X635239Y222021D01*
X635240Y222013D01*
X635239Y222000D01*
X635239Y52000D01*
X635246Y51956D01*
X635244Y51910D01*
X635266Y51835D01*
X635279Y51757D01*
X635300Y51717D01*
X635312Y51674D01*
X635357Y51609D01*
X635394Y51540D01*
X635426Y51509D01*
X635452Y51472D01*
X635515Y51425D01*
X635572Y51371D01*
X635613Y51351D01*
X635649Y51325D01*
X635724Y51300D01*
X635795Y51267D01*
X635840Y51262D01*
X635883Y51248D01*
X636023Y51242D01*
X636039Y51240D01*
X636044Y51241D01*
G37*
D10*
X571596Y86993D02*
X540354Y86993D01*
X540354Y95671D01*
X540357Y95882D01*
X540364Y96094D01*
X540377Y96304D01*
X540395Y96515D01*
X540418Y96725D01*
X540446Y96935D01*
X540480Y97143D01*
X540518Y97351D01*
X540562Y97558D01*
X540610Y97764D01*
X540664Y97968D01*
X540722Y98171D01*
X540785Y98373D01*
X540854Y98573D01*
X540927Y98771D01*
X541005Y98968D01*
X541087Y99162D01*
X541175Y99354D01*
X541267Y99545D01*
X541363Y99733D01*
X541464Y99918D01*
X541570Y100101D01*
X541680Y100282D01*
X541795Y100459D01*
X541913Y100634D01*
X542036Y100806D01*
X542163Y100975D01*
X542295Y101140D01*
X542430Y101303D01*
X542569Y101462D01*
X542712Y101618D01*
X542858Y101770D01*
X543009Y101918D01*
X543163Y102063D01*
X543320Y102204D01*
X543481Y102341D01*
X543645Y102475D01*
X543812Y102604D01*
X543983Y102729D01*
X544156Y102850D01*
X544332Y102966D01*
X544511Y103078D01*
X544693Y103186D01*
X544877Y103290D01*
X545064Y103389D01*
X545253Y103483D01*
X545445Y103573D01*
X545638Y103658D01*
X545833Y103738D01*
X546031Y103814D01*
X546230Y103884D01*
X546431Y103950D01*
X546633Y104011D01*
X546837Y104067D01*
X547042Y104118D01*
X547248Y104164D01*
X547456Y104205D01*
X547664Y104241D01*
X547873Y104271D01*
X548083Y104297D01*
X548293Y104317D01*
X548504Y104333D01*
X548715Y104343D01*
X548926Y104348D01*
X549138Y104348D01*
X549349Y104343D01*
X549560Y104333D01*
X549771Y104317D01*
X549981Y104297D01*
X550191Y104271D01*
X550400Y104241D01*
X550608Y104205D01*
X550816Y104164D01*
X551022Y104118D01*
X551227Y104067D01*
X551431Y104011D01*
X551633Y103950D01*
X551834Y103884D01*
X552033Y103814D01*
X552231Y103738D01*
X552426Y103658D01*
X552619Y103573D01*
X552811Y103483D01*
X553000Y103389D01*
X553187Y103290D01*
X553371Y103186D01*
X553553Y103078D01*
X553732Y102966D01*
X553908Y102850D01*
X554081Y102729D01*
X554252Y102604D01*
X554419Y102475D01*
X554583Y102341D01*
X554744Y102204D01*
X554901Y102063D01*
X555055Y101918D01*
X555206Y101770D01*
X555352Y101618D01*
X555495Y101462D01*
X555634Y101303D01*
X555769Y101140D01*
X555901Y100975D01*
X556028Y100806D01*
X556151Y100634D01*
X556269Y100459D01*
X556384Y100282D01*
X556494Y100101D01*
X556600Y99918D01*
X556701Y99733D01*
X556797Y99545D01*
X556889Y99354D01*
X556977Y99162D01*
X557059Y98968D01*
X557137Y98771D01*
X557210Y98573D01*
X557279Y98373D01*
X557342Y98171D01*
X557400Y97968D01*
X557454Y97764D01*
X557502Y97558D01*
X557546Y97351D01*
X557584Y97143D01*
X557618Y96935D01*
X557646Y96725D01*
X557669Y96515D01*
X557687Y96304D01*
X557700Y96094D01*
X557707Y95882D01*
X557710Y95671D01*
X557711Y95671D02*
X557711Y86993D01*
X571596Y121106D02*
X540354Y121106D01*
X540354Y112428D02*
X540354Y129784D01*
X540354Y137362D02*
X571596Y147776D01*
X540354Y158190D01*
X549032Y167673D02*
X562918Y167673D01*
X549032Y167673D02*
X548821Y167676D01*
X548609Y167683D01*
X548399Y167696D01*
X548188Y167714D01*
X547978Y167737D01*
X547768Y167765D01*
X547560Y167799D01*
X547352Y167837D01*
X547145Y167881D01*
X546939Y167929D01*
X546735Y167983D01*
X546532Y168041D01*
X546330Y168104D01*
X546130Y168173D01*
X545932Y168246D01*
X545735Y168324D01*
X545541Y168406D01*
X545349Y168494D01*
X545158Y168586D01*
X544970Y168682D01*
X544785Y168783D01*
X544602Y168889D01*
X544421Y168999D01*
X544244Y169114D01*
X544069Y169232D01*
X543897Y169355D01*
X543728Y169482D01*
X543563Y169614D01*
X543400Y169749D01*
X543241Y169888D01*
X543085Y170031D01*
X542933Y170177D01*
X542785Y170328D01*
X542640Y170482D01*
X542499Y170639D01*
X542362Y170800D01*
X542228Y170964D01*
X542099Y171131D01*
X541974Y171302D01*
X541853Y171475D01*
X541737Y171651D01*
X541625Y171830D01*
X541517Y172012D01*
X541413Y172196D01*
X541314Y172383D01*
X541220Y172572D01*
X541130Y172764D01*
X541045Y172957D01*
X540965Y173152D01*
X540889Y173350D01*
X540819Y173549D01*
X540753Y173750D01*
X540692Y173952D01*
X540636Y174156D01*
X540585Y174361D01*
X540539Y174567D01*
X540498Y174775D01*
X540462Y174983D01*
X540432Y175192D01*
X540406Y175402D01*
X540386Y175612D01*
X540370Y175823D01*
X540360Y176034D01*
X540355Y176245D01*
X540355Y176457D01*
X540360Y176668D01*
X540370Y176879D01*
X540386Y177090D01*
X540406Y177300D01*
X540432Y177510D01*
X540462Y177719D01*
X540498Y177927D01*
X540539Y178135D01*
X540585Y178341D01*
X540636Y178546D01*
X540692Y178750D01*
X540753Y178952D01*
X540819Y179153D01*
X540889Y179352D01*
X540965Y179550D01*
X541045Y179745D01*
X541130Y179938D01*
X541220Y180130D01*
X541314Y180319D01*
X541413Y180506D01*
X541517Y180690D01*
X541625Y180872D01*
X541737Y181051D01*
X541853Y181227D01*
X541974Y181400D01*
X542099Y181571D01*
X542228Y181738D01*
X542362Y181902D01*
X542499Y182063D01*
X542640Y182220D01*
X542785Y182374D01*
X542933Y182525D01*
X543085Y182671D01*
X543241Y182814D01*
X543400Y182953D01*
X543563Y183088D01*
X543728Y183220D01*
X543897Y183347D01*
X544069Y183470D01*
X544244Y183588D01*
X544421Y183703D01*
X544602Y183813D01*
X544785Y183919D01*
X544970Y184020D01*
X545158Y184116D01*
X545349Y184208D01*
X545541Y184296D01*
X545735Y184378D01*
X545932Y184456D01*
X546130Y184529D01*
X546330Y184598D01*
X546532Y184661D01*
X546735Y184719D01*
X546939Y184773D01*
X547145Y184821D01*
X547352Y184865D01*
X547560Y184903D01*
X547768Y184937D01*
X547978Y184965D01*
X548188Y184988D01*
X548399Y185006D01*
X548609Y185019D01*
X548821Y185026D01*
X549032Y185029D01*
X562918Y185029D01*
X563129Y185026D01*
X563341Y185019D01*
X563551Y185006D01*
X563762Y184988D01*
X563972Y184965D01*
X564182Y184937D01*
X564390Y184903D01*
X564598Y184865D01*
X564805Y184821D01*
X565011Y184773D01*
X565215Y184719D01*
X565418Y184661D01*
X565620Y184598D01*
X565820Y184529D01*
X566018Y184456D01*
X566215Y184378D01*
X566409Y184296D01*
X566601Y184208D01*
X566792Y184116D01*
X566980Y184020D01*
X567165Y183919D01*
X567348Y183813D01*
X567529Y183703D01*
X567706Y183588D01*
X567881Y183470D01*
X568053Y183347D01*
X568222Y183220D01*
X568387Y183088D01*
X568550Y182953D01*
X568709Y182814D01*
X568865Y182671D01*
X569017Y182525D01*
X569165Y182374D01*
X569310Y182220D01*
X569451Y182063D01*
X569588Y181902D01*
X569722Y181738D01*
X569851Y181571D01*
X569976Y181400D01*
X570097Y181227D01*
X570213Y181051D01*
X570325Y180872D01*
X570433Y180690D01*
X570537Y180506D01*
X570636Y180319D01*
X570730Y180130D01*
X570820Y179938D01*
X570905Y179745D01*
X570985Y179550D01*
X571061Y179352D01*
X571131Y179153D01*
X571197Y178952D01*
X571258Y178750D01*
X571314Y178546D01*
X571365Y178341D01*
X571411Y178135D01*
X571452Y177927D01*
X571488Y177719D01*
X571518Y177510D01*
X571544Y177300D01*
X571564Y177090D01*
X571580Y176879D01*
X571590Y176668D01*
X571595Y176457D01*
X571595Y176245D01*
X571590Y176034D01*
X571580Y175823D01*
X571564Y175612D01*
X571544Y175402D01*
X571518Y175192D01*
X571488Y174983D01*
X571452Y174775D01*
X571411Y174567D01*
X571365Y174361D01*
X571314Y174156D01*
X571258Y173952D01*
X571197Y173750D01*
X571131Y173549D01*
X571061Y173350D01*
X570985Y173152D01*
X570905Y172957D01*
X570820Y172764D01*
X570730Y172572D01*
X570636Y172383D01*
X570537Y172196D01*
X570433Y172012D01*
X570325Y171830D01*
X570213Y171651D01*
X570097Y171475D01*
X569976Y171302D01*
X569851Y171131D01*
X569722Y170964D01*
X569588Y170800D01*
X569451Y170639D01*
X569310Y170482D01*
X569165Y170328D01*
X569017Y170177D01*
X568865Y170031D01*
X568709Y169888D01*
X568550Y169749D01*
X568387Y169614D01*
X568222Y169482D01*
X568053Y169355D01*
X567881Y169232D01*
X567706Y169114D01*
X567529Y168999D01*
X567348Y168889D01*
X567165Y168783D01*
X566980Y168682D01*
X566792Y168586D01*
X566601Y168494D01*
X566409Y168406D01*
X566215Y168324D01*
X566018Y168246D01*
X565820Y168173D01*
X565620Y168104D01*
X565418Y168041D01*
X565215Y167983D01*
X565011Y167929D01*
X564805Y167881D01*
X564598Y167837D01*
X564390Y167799D01*
X564182Y167765D01*
X563972Y167737D01*
X563762Y167714D01*
X563551Y167696D01*
X563341Y167683D01*
X563129Y167676D01*
X562918Y167673D01*
D11*
X579411Y87100D02*
X600239Y87100D01*
X579411Y87100D02*
X579411Y96356D01*
X588668Y96356D02*
X588668Y87100D01*
X596768Y104423D02*
X579411Y104423D01*
X596768Y104423D02*
X596884Y104425D01*
X597000Y104431D01*
X597115Y104440D01*
X597231Y104454D01*
X597345Y104471D01*
X597459Y104493D01*
X597573Y104518D01*
X597685Y104546D01*
X597796Y104579D01*
X597907Y104615D01*
X598016Y104655D01*
X598123Y104698D01*
X598229Y104745D01*
X598333Y104796D01*
X598436Y104850D01*
X598537Y104908D01*
X598636Y104968D01*
X598732Y105032D01*
X598827Y105100D01*
X598919Y105170D01*
X599009Y105243D01*
X599096Y105320D01*
X599181Y105399D01*
X599263Y105481D01*
X599342Y105566D01*
X599419Y105653D01*
X599492Y105743D01*
X599562Y105835D01*
X599630Y105930D01*
X599694Y106026D01*
X599754Y106125D01*
X599812Y106226D01*
X599866Y106329D01*
X599917Y106433D01*
X599964Y106539D01*
X600007Y106646D01*
X600047Y106755D01*
X600083Y106866D01*
X600116Y106977D01*
X600144Y107089D01*
X600169Y107203D01*
X600191Y107317D01*
X600208Y107431D01*
X600222Y107547D01*
X600231Y107662D01*
X600237Y107778D01*
X600239Y107894D01*
X595611Y115338D02*
X590982Y115338D01*
X590982Y115339D02*
X590847Y115341D01*
X590713Y115347D01*
X590579Y115357D01*
X590445Y115370D01*
X590311Y115388D01*
X590178Y115409D01*
X590046Y115435D01*
X589915Y115464D01*
X589784Y115497D01*
X589655Y115533D01*
X589526Y115574D01*
X589399Y115618D01*
X589273Y115666D01*
X589149Y115717D01*
X589026Y115773D01*
X588905Y115831D01*
X588786Y115893D01*
X588668Y115959D01*
X588552Y116028D01*
X588439Y116100D01*
X588327Y116176D01*
X588218Y116255D01*
X588112Y116337D01*
X588007Y116422D01*
X587905Y116510D01*
X587806Y116601D01*
X587710Y116695D01*
X587616Y116791D01*
X587525Y116890D01*
X587437Y116992D01*
X587352Y117097D01*
X587270Y117203D01*
X587191Y117312D01*
X587115Y117424D01*
X587043Y117537D01*
X586974Y117653D01*
X586908Y117771D01*
X586846Y117890D01*
X586788Y118011D01*
X586732Y118134D01*
X586681Y118258D01*
X586633Y118384D01*
X586589Y118511D01*
X586548Y118640D01*
X586512Y118769D01*
X586479Y118900D01*
X586450Y119031D01*
X586424Y119163D01*
X586403Y119296D01*
X586385Y119430D01*
X586372Y119564D01*
X586362Y119698D01*
X586356Y119832D01*
X586354Y119967D01*
X586356Y120102D01*
X586362Y120236D01*
X586372Y120370D01*
X586385Y120504D01*
X586403Y120638D01*
X586424Y120771D01*
X586450Y120903D01*
X586479Y121034D01*
X586512Y121165D01*
X586548Y121294D01*
X586589Y121423D01*
X586633Y121550D01*
X586681Y121676D01*
X586732Y121800D01*
X586788Y121923D01*
X586846Y122044D01*
X586908Y122163D01*
X586974Y122281D01*
X587043Y122397D01*
X587115Y122510D01*
X587191Y122622D01*
X587270Y122731D01*
X587352Y122837D01*
X587437Y122942D01*
X587525Y123044D01*
X587616Y123143D01*
X587710Y123239D01*
X587806Y123333D01*
X587905Y123424D01*
X588007Y123512D01*
X588112Y123597D01*
X588218Y123679D01*
X588327Y123758D01*
X588439Y123834D01*
X588552Y123906D01*
X588668Y123975D01*
X588786Y124041D01*
X588905Y124103D01*
X589026Y124161D01*
X589149Y124217D01*
X589273Y124268D01*
X589399Y124316D01*
X589526Y124360D01*
X589655Y124401D01*
X589784Y124437D01*
X589915Y124470D01*
X590046Y124499D01*
X590178Y124525D01*
X590311Y124546D01*
X590445Y124564D01*
X590579Y124577D01*
X590713Y124587D01*
X590847Y124593D01*
X590982Y124595D01*
X595611Y124595D01*
X595746Y124593D01*
X595880Y124587D01*
X596014Y124577D01*
X596148Y124564D01*
X596282Y124546D01*
X596415Y124525D01*
X596547Y124499D01*
X596678Y124470D01*
X596809Y124437D01*
X596938Y124401D01*
X597067Y124360D01*
X597194Y124316D01*
X597320Y124268D01*
X597444Y124217D01*
X597567Y124161D01*
X597688Y124103D01*
X597807Y124041D01*
X597925Y123975D01*
X598041Y123906D01*
X598154Y123834D01*
X598266Y123758D01*
X598375Y123679D01*
X598481Y123597D01*
X598586Y123512D01*
X598688Y123424D01*
X598787Y123333D01*
X598883Y123239D01*
X598977Y123143D01*
X599068Y123044D01*
X599156Y122942D01*
X599241Y122837D01*
X599323Y122731D01*
X599402Y122622D01*
X599478Y122510D01*
X599550Y122397D01*
X599619Y122281D01*
X599685Y122163D01*
X599747Y122044D01*
X599805Y121923D01*
X599861Y121800D01*
X599912Y121676D01*
X599960Y121550D01*
X600004Y121423D01*
X600045Y121294D01*
X600081Y121165D01*
X600114Y121034D01*
X600143Y120903D01*
X600169Y120771D01*
X600190Y120638D01*
X600208Y120504D01*
X600221Y120370D01*
X600231Y120236D01*
X600237Y120102D01*
X600239Y119967D01*
X600237Y119832D01*
X600231Y119698D01*
X600221Y119564D01*
X600208Y119430D01*
X600190Y119296D01*
X600169Y119163D01*
X600143Y119031D01*
X600114Y118900D01*
X600081Y118769D01*
X600045Y118640D01*
X600004Y118511D01*
X599960Y118384D01*
X599912Y118258D01*
X599861Y118134D01*
X599805Y118011D01*
X599747Y117890D01*
X599685Y117771D01*
X599619Y117653D01*
X599550Y117537D01*
X599478Y117424D01*
X599402Y117312D01*
X599323Y117203D01*
X599241Y117097D01*
X599156Y116992D01*
X599068Y116890D01*
X598977Y116791D01*
X598883Y116695D01*
X598787Y116601D01*
X598688Y116510D01*
X598586Y116422D01*
X598481Y116337D01*
X598375Y116255D01*
X598266Y116176D01*
X598154Y116100D01*
X598041Y116028D01*
X597925Y115959D01*
X597807Y115893D01*
X597688Y115831D01*
X597567Y115773D01*
X597444Y115717D01*
X597320Y115666D01*
X597194Y115618D01*
X597067Y115574D01*
X596938Y115533D01*
X596809Y115497D01*
X596678Y115464D01*
X596547Y115435D01*
X596415Y115409D01*
X596282Y115388D01*
X596148Y115370D01*
X596014Y115357D01*
X595880Y115347D01*
X595746Y115341D01*
X595611Y115339D01*
X586354Y133207D02*
X600239Y136678D01*
X590982Y140149D01*
X600239Y143621D01*
X586354Y147092D01*
X600239Y159175D02*
X600239Y164961D01*
X600239Y159175D02*
X600237Y159059D01*
X600231Y158943D01*
X600222Y158828D01*
X600208Y158712D01*
X600191Y158598D01*
X600169Y158484D01*
X600144Y158370D01*
X600116Y158258D01*
X600083Y158147D01*
X600047Y158036D01*
X600007Y157927D01*
X599964Y157820D01*
X599917Y157714D01*
X599866Y157610D01*
X599812Y157507D01*
X599754Y157406D01*
X599694Y157307D01*
X599630Y157211D01*
X599562Y157116D01*
X599492Y157024D01*
X599419Y156934D01*
X599342Y156847D01*
X599263Y156762D01*
X599181Y156680D01*
X599096Y156601D01*
X599009Y156524D01*
X598919Y156451D01*
X598827Y156381D01*
X598732Y156313D01*
X598636Y156249D01*
X598537Y156189D01*
X598436Y156131D01*
X598333Y156077D01*
X598229Y156026D01*
X598123Y155979D01*
X598016Y155936D01*
X597907Y155896D01*
X597796Y155860D01*
X597685Y155827D01*
X597573Y155799D01*
X597459Y155774D01*
X597345Y155752D01*
X597231Y155735D01*
X597115Y155721D01*
X597000Y155712D01*
X596884Y155706D01*
X596768Y155704D01*
X590982Y155704D01*
X590847Y155706D01*
X590713Y155712D01*
X590579Y155722D01*
X590445Y155735D01*
X590311Y155753D01*
X590178Y155774D01*
X590046Y155800D01*
X589915Y155829D01*
X589784Y155862D01*
X589655Y155898D01*
X589526Y155939D01*
X589399Y155983D01*
X589273Y156031D01*
X589149Y156082D01*
X589026Y156138D01*
X588905Y156196D01*
X588786Y156258D01*
X588668Y156324D01*
X588552Y156393D01*
X588439Y156465D01*
X588327Y156541D01*
X588218Y156620D01*
X588112Y156702D01*
X588007Y156787D01*
X587905Y156875D01*
X587806Y156966D01*
X587710Y157060D01*
X587616Y157156D01*
X587525Y157255D01*
X587437Y157357D01*
X587352Y157462D01*
X587270Y157568D01*
X587191Y157677D01*
X587115Y157789D01*
X587043Y157902D01*
X586974Y158018D01*
X586908Y158136D01*
X586846Y158255D01*
X586788Y158376D01*
X586732Y158499D01*
X586681Y158623D01*
X586633Y158749D01*
X586589Y158876D01*
X586548Y159005D01*
X586512Y159134D01*
X586479Y159265D01*
X586450Y159396D01*
X586424Y159528D01*
X586403Y159661D01*
X586385Y159795D01*
X586372Y159929D01*
X586362Y160063D01*
X586356Y160197D01*
X586354Y160332D01*
X586356Y160467D01*
X586362Y160601D01*
X586372Y160735D01*
X586385Y160869D01*
X586403Y161003D01*
X586424Y161136D01*
X586450Y161268D01*
X586479Y161399D01*
X586512Y161530D01*
X586548Y161659D01*
X586589Y161788D01*
X586633Y161915D01*
X586681Y162041D01*
X586732Y162165D01*
X586788Y162288D01*
X586846Y162409D01*
X586908Y162528D01*
X586974Y162646D01*
X587043Y162762D01*
X587115Y162875D01*
X587191Y162987D01*
X587270Y163096D01*
X587352Y163202D01*
X587437Y163307D01*
X587525Y163409D01*
X587616Y163508D01*
X587710Y163604D01*
X587806Y163698D01*
X587905Y163789D01*
X588007Y163877D01*
X588112Y163962D01*
X588218Y164044D01*
X588327Y164123D01*
X588439Y164199D01*
X588552Y164271D01*
X588668Y164340D01*
X588786Y164406D01*
X588905Y164468D01*
X589026Y164526D01*
X589149Y164582D01*
X589273Y164633D01*
X589399Y164681D01*
X589526Y164725D01*
X589655Y164766D01*
X589784Y164802D01*
X589915Y164835D01*
X590046Y164864D01*
X590178Y164890D01*
X590311Y164911D01*
X590445Y164929D01*
X590579Y164942D01*
X590713Y164952D01*
X590847Y164958D01*
X590982Y164960D01*
X590982Y164961D02*
X593296Y164961D01*
X593296Y155704D01*
X600239Y174655D02*
X586354Y174655D01*
X586354Y181597D01*
X588668Y181597D01*
X623111Y93670D02*
X623246Y93668D01*
X623380Y93662D01*
X623514Y93652D01*
X623648Y93639D01*
X623782Y93621D01*
X623915Y93600D01*
X624047Y93574D01*
X624178Y93545D01*
X624309Y93512D01*
X624438Y93476D01*
X624567Y93435D01*
X624694Y93391D01*
X624820Y93343D01*
X624944Y93292D01*
X625067Y93236D01*
X625188Y93178D01*
X625307Y93116D01*
X625425Y93050D01*
X625541Y92981D01*
X625654Y92909D01*
X625766Y92833D01*
X625875Y92754D01*
X625981Y92672D01*
X626086Y92587D01*
X626188Y92499D01*
X626287Y92408D01*
X626383Y92314D01*
X626477Y92218D01*
X626568Y92119D01*
X626656Y92017D01*
X626741Y91912D01*
X626823Y91806D01*
X626902Y91697D01*
X626978Y91585D01*
X627050Y91472D01*
X627119Y91356D01*
X627185Y91238D01*
X627247Y91119D01*
X627305Y90998D01*
X627361Y90875D01*
X627412Y90751D01*
X627460Y90625D01*
X627504Y90498D01*
X627545Y90369D01*
X627581Y90240D01*
X627614Y90109D01*
X627643Y89978D01*
X627669Y89846D01*
X627690Y89713D01*
X627708Y89579D01*
X627721Y89445D01*
X627731Y89311D01*
X627737Y89177D01*
X627739Y89042D01*
X627736Y88808D01*
X627728Y88574D01*
X627714Y88341D01*
X627694Y88108D01*
X627669Y87875D01*
X627638Y87643D01*
X627602Y87412D01*
X627560Y87182D01*
X627513Y86953D01*
X627460Y86725D01*
X627402Y86498D01*
X627339Y86273D01*
X627270Y86049D01*
X627196Y85828D01*
X627116Y85608D01*
X627031Y85390D01*
X626941Y85174D01*
X626846Y84960D01*
X626746Y84748D01*
X626641Y84539D01*
X626530Y84333D01*
X626415Y84129D01*
X626295Y83929D01*
X626171Y83731D01*
X626041Y83536D01*
X625907Y83344D01*
X625769Y83156D01*
X625626Y82970D01*
X625478Y82789D01*
X625326Y82611D01*
X625170Y82436D01*
X625010Y82266D01*
X624846Y82099D01*
X611540Y82679D02*
X611405Y82681D01*
X611271Y82687D01*
X611137Y82697D01*
X611003Y82710D01*
X610869Y82728D01*
X610736Y82749D01*
X610604Y82775D01*
X610473Y82804D01*
X610342Y82837D01*
X610213Y82873D01*
X610084Y82914D01*
X609957Y82958D01*
X609831Y83006D01*
X609707Y83057D01*
X609584Y83113D01*
X609463Y83171D01*
X609344Y83233D01*
X609226Y83299D01*
X609110Y83368D01*
X608997Y83440D01*
X608885Y83516D01*
X608776Y83595D01*
X608670Y83677D01*
X608565Y83762D01*
X608463Y83850D01*
X608364Y83941D01*
X608268Y84035D01*
X608174Y84131D01*
X608083Y84230D01*
X607995Y84332D01*
X607910Y84437D01*
X607828Y84543D01*
X607749Y84652D01*
X607673Y84764D01*
X607601Y84877D01*
X607532Y84993D01*
X607466Y85111D01*
X607404Y85230D01*
X607346Y85351D01*
X607290Y85474D01*
X607239Y85598D01*
X607191Y85724D01*
X607147Y85851D01*
X607106Y85980D01*
X607070Y86109D01*
X607037Y86240D01*
X607008Y86371D01*
X606982Y86503D01*
X606961Y86636D01*
X606943Y86770D01*
X606930Y86904D01*
X606920Y87038D01*
X606914Y87172D01*
X606912Y87307D01*
X606911Y87307D02*
X606913Y87514D01*
X606921Y87721D01*
X606933Y87927D01*
X606950Y88133D01*
X606973Y88339D01*
X607000Y88544D01*
X607031Y88748D01*
X607068Y88952D01*
X607110Y89154D01*
X607156Y89356D01*
X607208Y89556D01*
X607264Y89755D01*
X607324Y89953D01*
X607390Y90149D01*
X607460Y90344D01*
X607534Y90537D01*
X607614Y90728D01*
X607697Y90917D01*
X607786Y91104D01*
X607878Y91289D01*
X607975Y91471D01*
X608077Y91652D01*
X608183Y91829D01*
X608292Y92005D01*
X608406Y92177D01*
X608525Y92347D01*
X608647Y92514D01*
X615590Y84992D02*
X615520Y84877D01*
X615446Y84763D01*
X615369Y84651D01*
X615288Y84542D01*
X615205Y84435D01*
X615119Y84331D01*
X615029Y84229D01*
X614937Y84129D01*
X614842Y84033D01*
X614744Y83939D01*
X614643Y83848D01*
X614540Y83760D01*
X614435Y83675D01*
X614327Y83593D01*
X614216Y83514D01*
X614104Y83439D01*
X613989Y83366D01*
X613872Y83297D01*
X613754Y83232D01*
X613633Y83170D01*
X613511Y83111D01*
X613387Y83056D01*
X613262Y83005D01*
X613135Y82957D01*
X613007Y82913D01*
X612877Y82872D01*
X612747Y82835D01*
X612615Y82803D01*
X612483Y82773D01*
X612349Y82748D01*
X612216Y82727D01*
X612081Y82709D01*
X611946Y82696D01*
X611811Y82686D01*
X611676Y82680D01*
X611540Y82678D01*
X619061Y91357D02*
X619131Y91472D01*
X619205Y91586D01*
X619282Y91698D01*
X619363Y91807D01*
X619446Y91914D01*
X619532Y92018D01*
X619622Y92120D01*
X619714Y92220D01*
X619809Y92316D01*
X619907Y92410D01*
X620008Y92501D01*
X620111Y92589D01*
X620216Y92674D01*
X620324Y92756D01*
X620435Y92835D01*
X620547Y92910D01*
X620662Y92983D01*
X620779Y93052D01*
X620897Y93117D01*
X621018Y93179D01*
X621140Y93238D01*
X621264Y93293D01*
X621389Y93344D01*
X621516Y93392D01*
X621644Y93436D01*
X621774Y93477D01*
X621904Y93514D01*
X622036Y93546D01*
X622168Y93576D01*
X622302Y93601D01*
X622435Y93622D01*
X622570Y93640D01*
X622705Y93653D01*
X622840Y93663D01*
X622975Y93669D01*
X623111Y93671D01*
X619061Y91356D02*
X615589Y84992D01*
X627739Y105519D02*
X627739Y111304D01*
X627739Y105519D02*
X627737Y105403D01*
X627731Y105287D01*
X627722Y105172D01*
X627708Y105056D01*
X627691Y104942D01*
X627669Y104828D01*
X627644Y104714D01*
X627616Y104602D01*
X627583Y104491D01*
X627547Y104380D01*
X627507Y104271D01*
X627464Y104164D01*
X627417Y104058D01*
X627366Y103954D01*
X627312Y103851D01*
X627254Y103750D01*
X627194Y103651D01*
X627130Y103555D01*
X627062Y103460D01*
X626992Y103368D01*
X626919Y103278D01*
X626842Y103191D01*
X626763Y103106D01*
X626681Y103024D01*
X626596Y102945D01*
X626509Y102868D01*
X626419Y102795D01*
X626327Y102725D01*
X626232Y102657D01*
X626136Y102593D01*
X626037Y102533D01*
X625936Y102475D01*
X625833Y102421D01*
X625729Y102370D01*
X625623Y102323D01*
X625516Y102280D01*
X625407Y102240D01*
X625296Y102204D01*
X625185Y102171D01*
X625073Y102143D01*
X624959Y102118D01*
X624845Y102096D01*
X624731Y102079D01*
X624615Y102065D01*
X624500Y102056D01*
X624384Y102050D01*
X624268Y102048D01*
X618482Y102048D01*
X618347Y102050D01*
X618213Y102056D01*
X618079Y102066D01*
X617945Y102079D01*
X617811Y102097D01*
X617678Y102118D01*
X617546Y102144D01*
X617415Y102173D01*
X617284Y102206D01*
X617155Y102242D01*
X617026Y102283D01*
X616899Y102327D01*
X616773Y102375D01*
X616649Y102426D01*
X616526Y102482D01*
X616405Y102540D01*
X616286Y102602D01*
X616168Y102668D01*
X616052Y102737D01*
X615939Y102809D01*
X615827Y102885D01*
X615718Y102964D01*
X615612Y103046D01*
X615507Y103131D01*
X615405Y103219D01*
X615306Y103310D01*
X615210Y103404D01*
X615116Y103500D01*
X615025Y103599D01*
X614937Y103701D01*
X614852Y103806D01*
X614770Y103912D01*
X614691Y104021D01*
X614615Y104133D01*
X614543Y104246D01*
X614474Y104362D01*
X614408Y104480D01*
X614346Y104599D01*
X614288Y104720D01*
X614232Y104843D01*
X614181Y104967D01*
X614133Y105093D01*
X614089Y105220D01*
X614048Y105349D01*
X614012Y105478D01*
X613979Y105609D01*
X613950Y105740D01*
X613924Y105872D01*
X613903Y106005D01*
X613885Y106139D01*
X613872Y106273D01*
X613862Y106407D01*
X613856Y106541D01*
X613854Y106676D01*
X613856Y106811D01*
X613862Y106945D01*
X613872Y107079D01*
X613885Y107213D01*
X613903Y107347D01*
X613924Y107480D01*
X613950Y107612D01*
X613979Y107743D01*
X614012Y107874D01*
X614048Y108003D01*
X614089Y108132D01*
X614133Y108259D01*
X614181Y108385D01*
X614232Y108509D01*
X614288Y108632D01*
X614346Y108753D01*
X614408Y108872D01*
X614474Y108990D01*
X614543Y109106D01*
X614615Y109219D01*
X614691Y109331D01*
X614770Y109440D01*
X614852Y109546D01*
X614937Y109651D01*
X615025Y109753D01*
X615116Y109852D01*
X615210Y109948D01*
X615306Y110042D01*
X615405Y110133D01*
X615507Y110221D01*
X615612Y110306D01*
X615718Y110388D01*
X615827Y110467D01*
X615939Y110543D01*
X616052Y110615D01*
X616168Y110684D01*
X616286Y110750D01*
X616405Y110812D01*
X616526Y110870D01*
X616649Y110926D01*
X616773Y110977D01*
X616899Y111025D01*
X617026Y111069D01*
X617155Y111110D01*
X617284Y111146D01*
X617415Y111179D01*
X617546Y111208D01*
X617678Y111234D01*
X617811Y111255D01*
X617945Y111273D01*
X618079Y111286D01*
X618213Y111296D01*
X618347Y111302D01*
X618482Y111304D01*
X620796Y111304D01*
X620796Y102048D01*
X627739Y120838D02*
X613854Y120838D01*
X613854Y126624D01*
X613856Y126740D01*
X613862Y126856D01*
X613871Y126971D01*
X613885Y127087D01*
X613902Y127201D01*
X613924Y127315D01*
X613949Y127429D01*
X613977Y127541D01*
X614010Y127652D01*
X614046Y127763D01*
X614086Y127871D01*
X614129Y127979D01*
X614176Y128085D01*
X614227Y128189D01*
X614281Y128292D01*
X614339Y128393D01*
X614399Y128492D01*
X614463Y128588D01*
X614531Y128683D01*
X614601Y128775D01*
X614674Y128865D01*
X614751Y128952D01*
X614830Y129037D01*
X614912Y129119D01*
X614997Y129198D01*
X615084Y129275D01*
X615174Y129348D01*
X615266Y129418D01*
X615361Y129486D01*
X615457Y129550D01*
X615556Y129610D01*
X615657Y129668D01*
X615760Y129722D01*
X615864Y129773D01*
X615970Y129820D01*
X616077Y129863D01*
X616186Y129903D01*
X616297Y129939D01*
X616408Y129972D01*
X616520Y130000D01*
X616634Y130025D01*
X616748Y130047D01*
X616862Y130064D01*
X616978Y130078D01*
X617093Y130087D01*
X617209Y130093D01*
X617325Y130095D01*
X627739Y130095D01*
X619639Y141365D02*
X621954Y147150D01*
X619639Y141365D02*
X619597Y141265D01*
X619552Y141167D01*
X619503Y141071D01*
X619450Y140976D01*
X619395Y140884D01*
X619335Y140793D01*
X619273Y140705D01*
X619208Y140619D01*
X619139Y140535D01*
X619067Y140454D01*
X618993Y140376D01*
X618916Y140300D01*
X618836Y140227D01*
X618754Y140157D01*
X618669Y140090D01*
X618581Y140026D01*
X618492Y139966D01*
X618400Y139908D01*
X618307Y139854D01*
X618211Y139804D01*
X618114Y139756D01*
X618015Y139713D01*
X617914Y139673D01*
X617813Y139636D01*
X617710Y139604D01*
X617605Y139575D01*
X617500Y139549D01*
X617394Y139528D01*
X617288Y139510D01*
X617180Y139497D01*
X617073Y139487D01*
X616965Y139481D01*
X616857Y139479D01*
X616748Y139481D01*
X616640Y139487D01*
X616533Y139496D01*
X616425Y139510D01*
X616319Y139527D01*
X616213Y139548D01*
X616108Y139573D01*
X616003Y139602D01*
X615900Y139635D01*
X615798Y139671D01*
X615698Y139711D01*
X615599Y139754D01*
X615501Y139801D01*
X615406Y139852D01*
X615312Y139906D01*
X615220Y139963D01*
X615131Y140023D01*
X615043Y140087D01*
X614958Y140154D01*
X614876Y140224D01*
X614796Y140296D01*
X614718Y140372D01*
X614644Y140450D01*
X614572Y140531D01*
X614504Y140615D01*
X614438Y140701D01*
X614375Y140789D01*
X614316Y140879D01*
X614260Y140972D01*
X614207Y141066D01*
X614158Y141163D01*
X614113Y141261D01*
X614070Y141360D01*
X614032Y141461D01*
X613997Y141564D01*
X613966Y141667D01*
X613939Y141772D01*
X613915Y141877D01*
X613895Y141983D01*
X613879Y142090D01*
X613867Y142198D01*
X613859Y142306D01*
X613855Y142414D01*
X613854Y142522D01*
X613863Y142837D01*
X613879Y143153D01*
X613902Y143468D01*
X613933Y143783D01*
X613972Y144096D01*
X614018Y144409D01*
X614071Y144720D01*
X614133Y145030D01*
X614201Y145338D01*
X614277Y145645D01*
X614360Y145950D01*
X614451Y146253D01*
X614549Y146553D01*
X614654Y146851D01*
X614766Y147146D01*
X614885Y147439D01*
X615011Y147729D01*
X621954Y147150D02*
X621996Y147250D01*
X622041Y147348D01*
X622090Y147444D01*
X622143Y147539D01*
X622198Y147631D01*
X622258Y147722D01*
X622320Y147810D01*
X622385Y147896D01*
X622454Y147980D01*
X622526Y148061D01*
X622600Y148139D01*
X622677Y148215D01*
X622757Y148288D01*
X622839Y148358D01*
X622924Y148425D01*
X623012Y148489D01*
X623101Y148549D01*
X623193Y148607D01*
X623286Y148661D01*
X623382Y148711D01*
X623479Y148759D01*
X623578Y148802D01*
X623679Y148842D01*
X623780Y148879D01*
X623883Y148911D01*
X623988Y148940D01*
X624093Y148966D01*
X624199Y148987D01*
X624305Y149005D01*
X624413Y149018D01*
X624520Y149028D01*
X624628Y149034D01*
X624736Y149036D01*
X624845Y149034D01*
X624953Y149028D01*
X625060Y149019D01*
X625168Y149005D01*
X625274Y148988D01*
X625380Y148967D01*
X625485Y148942D01*
X625590Y148913D01*
X625693Y148880D01*
X625795Y148844D01*
X625895Y148804D01*
X625994Y148761D01*
X626092Y148714D01*
X626187Y148663D01*
X626281Y148609D01*
X626373Y148552D01*
X626462Y148492D01*
X626550Y148428D01*
X626635Y148361D01*
X626717Y148291D01*
X626797Y148219D01*
X626875Y148143D01*
X626949Y148065D01*
X627021Y147984D01*
X627089Y147900D01*
X627155Y147814D01*
X627218Y147726D01*
X627277Y147636D01*
X627333Y147543D01*
X627386Y147449D01*
X627435Y147352D01*
X627480Y147254D01*
X627523Y147155D01*
X627561Y147054D01*
X627596Y146951D01*
X627627Y146848D01*
X627654Y146743D01*
X627678Y146638D01*
X627698Y146532D01*
X627714Y146425D01*
X627726Y146317D01*
X627734Y146209D01*
X627738Y146101D01*
X627739Y145993D01*
X627740Y145994D02*
X627728Y145530D01*
X627705Y145066D01*
X627671Y144603D01*
X627626Y144141D01*
X627570Y143681D01*
X627503Y143221D01*
X627425Y142764D01*
X627337Y142308D01*
X627238Y141855D01*
X627128Y141404D01*
X627008Y140955D01*
X626876Y140510D01*
X626735Y140068D01*
X626583Y139629D01*
X623111Y157724D02*
X618482Y157724D01*
X618482Y157725D02*
X618347Y157727D01*
X618213Y157733D01*
X618079Y157743D01*
X617945Y157756D01*
X617811Y157774D01*
X617678Y157795D01*
X617546Y157821D01*
X617415Y157850D01*
X617284Y157883D01*
X617155Y157919D01*
X617026Y157960D01*
X616899Y158004D01*
X616773Y158052D01*
X616649Y158103D01*
X616526Y158159D01*
X616405Y158217D01*
X616286Y158279D01*
X616168Y158345D01*
X616052Y158414D01*
X615939Y158486D01*
X615827Y158562D01*
X615718Y158641D01*
X615612Y158723D01*
X615507Y158808D01*
X615405Y158896D01*
X615306Y158987D01*
X615210Y159081D01*
X615116Y159177D01*
X615025Y159276D01*
X614937Y159378D01*
X614852Y159483D01*
X614770Y159589D01*
X614691Y159698D01*
X614615Y159810D01*
X614543Y159923D01*
X614474Y160039D01*
X614408Y160157D01*
X614346Y160276D01*
X614288Y160397D01*
X614232Y160520D01*
X614181Y160644D01*
X614133Y160770D01*
X614089Y160897D01*
X614048Y161026D01*
X614012Y161155D01*
X613979Y161286D01*
X613950Y161417D01*
X613924Y161549D01*
X613903Y161682D01*
X613885Y161816D01*
X613872Y161950D01*
X613862Y162084D01*
X613856Y162218D01*
X613854Y162353D01*
X613856Y162488D01*
X613862Y162622D01*
X613872Y162756D01*
X613885Y162890D01*
X613903Y163024D01*
X613924Y163157D01*
X613950Y163289D01*
X613979Y163420D01*
X614012Y163551D01*
X614048Y163680D01*
X614089Y163809D01*
X614133Y163936D01*
X614181Y164062D01*
X614232Y164186D01*
X614288Y164309D01*
X614346Y164430D01*
X614408Y164549D01*
X614474Y164667D01*
X614543Y164783D01*
X614615Y164896D01*
X614691Y165008D01*
X614770Y165117D01*
X614852Y165223D01*
X614937Y165328D01*
X615025Y165430D01*
X615116Y165529D01*
X615210Y165625D01*
X615306Y165719D01*
X615405Y165810D01*
X615507Y165898D01*
X615612Y165983D01*
X615718Y166065D01*
X615827Y166144D01*
X615939Y166220D01*
X616052Y166292D01*
X616168Y166361D01*
X616286Y166427D01*
X616405Y166489D01*
X616526Y166547D01*
X616649Y166603D01*
X616773Y166654D01*
X616899Y166702D01*
X617026Y166746D01*
X617155Y166787D01*
X617284Y166823D01*
X617415Y166856D01*
X617546Y166885D01*
X617678Y166911D01*
X617811Y166932D01*
X617945Y166950D01*
X618079Y166963D01*
X618213Y166973D01*
X618347Y166979D01*
X618482Y166981D01*
X623111Y166981D01*
X623246Y166979D01*
X623380Y166973D01*
X623514Y166963D01*
X623648Y166950D01*
X623782Y166932D01*
X623915Y166911D01*
X624047Y166885D01*
X624178Y166856D01*
X624309Y166823D01*
X624438Y166787D01*
X624567Y166746D01*
X624694Y166702D01*
X624820Y166654D01*
X624944Y166603D01*
X625067Y166547D01*
X625188Y166489D01*
X625307Y166427D01*
X625425Y166361D01*
X625541Y166292D01*
X625654Y166220D01*
X625766Y166144D01*
X625875Y166065D01*
X625981Y165983D01*
X626086Y165898D01*
X626188Y165810D01*
X626287Y165719D01*
X626383Y165625D01*
X626477Y165529D01*
X626568Y165430D01*
X626656Y165328D01*
X626741Y165223D01*
X626823Y165117D01*
X626902Y165008D01*
X626978Y164896D01*
X627050Y164783D01*
X627119Y164667D01*
X627185Y164549D01*
X627247Y164430D01*
X627305Y164309D01*
X627361Y164186D01*
X627412Y164062D01*
X627460Y163936D01*
X627504Y163809D01*
X627545Y163680D01*
X627581Y163551D01*
X627614Y163420D01*
X627643Y163289D01*
X627669Y163157D01*
X627690Y163024D01*
X627708Y162890D01*
X627721Y162756D01*
X627731Y162622D01*
X627737Y162488D01*
X627739Y162353D01*
X627737Y162218D01*
X627731Y162084D01*
X627721Y161950D01*
X627708Y161816D01*
X627690Y161682D01*
X627669Y161549D01*
X627643Y161417D01*
X627614Y161286D01*
X627581Y161155D01*
X627545Y161026D01*
X627504Y160897D01*
X627460Y160770D01*
X627412Y160644D01*
X627361Y160520D01*
X627305Y160397D01*
X627247Y160276D01*
X627185Y160157D01*
X627119Y160039D01*
X627050Y159923D01*
X626978Y159810D01*
X626902Y159698D01*
X626823Y159589D01*
X626741Y159483D01*
X626656Y159378D01*
X626568Y159276D01*
X626477Y159177D01*
X626383Y159081D01*
X626287Y158987D01*
X626188Y158896D01*
X626086Y158808D01*
X625981Y158723D01*
X625875Y158641D01*
X625766Y158562D01*
X625654Y158486D01*
X625541Y158414D01*
X625425Y158345D01*
X625307Y158279D01*
X625188Y158217D01*
X625067Y158159D01*
X624944Y158103D01*
X624820Y158052D01*
X624694Y158004D01*
X624567Y157960D01*
X624438Y157919D01*
X624309Y157883D01*
X624178Y157850D01*
X624047Y157821D01*
X623915Y157795D01*
X623782Y157774D01*
X623648Y157756D01*
X623514Y157743D01*
X623380Y157733D01*
X623246Y157727D01*
X623111Y157725D01*
X627739Y176675D02*
X613854Y176675D01*
X613854Y183618D01*
X616168Y183618D01*
D12*
X440263Y31160D02*
X433659Y31160D01*
X433659Y29326D02*
X433659Y32994D01*
X440263Y37585D02*
X440263Y39053D01*
X440264Y37585D02*
X440262Y37511D01*
X440256Y37436D01*
X440247Y37363D01*
X440234Y37289D01*
X440217Y37217D01*
X440197Y37146D01*
X440173Y37075D01*
X440145Y37006D01*
X440114Y36939D01*
X440080Y36873D01*
X440042Y36808D01*
X440001Y36746D01*
X439957Y36686D01*
X439910Y36629D01*
X439860Y36574D01*
X439807Y36521D01*
X439752Y36471D01*
X439695Y36424D01*
X439635Y36380D01*
X439573Y36339D01*
X439508Y36301D01*
X439443Y36267D01*
X439375Y36236D01*
X439306Y36208D01*
X439235Y36184D01*
X439164Y36164D01*
X439092Y36147D01*
X439018Y36134D01*
X438945Y36125D01*
X438870Y36119D01*
X438796Y36117D01*
X438796Y36118D02*
X435127Y36118D01*
X435127Y36117D02*
X435053Y36119D01*
X434978Y36125D01*
X434905Y36134D01*
X434831Y36147D01*
X434759Y36164D01*
X434688Y36184D01*
X434617Y36208D01*
X434548Y36236D01*
X434481Y36267D01*
X434415Y36301D01*
X434350Y36339D01*
X434288Y36380D01*
X434228Y36424D01*
X434171Y36471D01*
X434116Y36521D01*
X434063Y36574D01*
X434013Y36629D01*
X433966Y36686D01*
X433922Y36746D01*
X433881Y36808D01*
X433843Y36873D01*
X433809Y36938D01*
X433778Y37006D01*
X433750Y37075D01*
X433726Y37146D01*
X433706Y37217D01*
X433689Y37289D01*
X433676Y37363D01*
X433667Y37436D01*
X433661Y37511D01*
X433659Y37585D01*
X433659Y39053D01*
X433659Y42674D02*
X440263Y42674D01*
X437695Y42674D02*
X433659Y46343D01*
X436227Y44142D02*
X440263Y46343D01*
X447659Y31160D02*
X454263Y31160D01*
X447659Y29326D02*
X447659Y32994D01*
X447659Y36518D02*
X454263Y36518D01*
X451328Y38719D02*
X447659Y36518D01*
X451328Y38719D02*
X447659Y40920D01*
X454263Y40920D01*
X454264Y46889D02*
X454262Y46963D01*
X454256Y47037D01*
X454247Y47111D01*
X454234Y47184D01*
X454217Y47257D01*
X454197Y47328D01*
X454173Y47399D01*
X454145Y47468D01*
X454114Y47535D01*
X454080Y47601D01*
X454042Y47666D01*
X454001Y47728D01*
X453957Y47788D01*
X453910Y47845D01*
X453860Y47900D01*
X453807Y47953D01*
X453752Y48003D01*
X453695Y48050D01*
X453635Y48094D01*
X453573Y48135D01*
X453508Y48173D01*
X453443Y48207D01*
X453375Y48238D01*
X453306Y48266D01*
X453235Y48290D01*
X453164Y48310D01*
X453092Y48327D01*
X453018Y48340D01*
X452945Y48349D01*
X452870Y48355D01*
X452796Y48357D01*
X454263Y46889D02*
X454261Y46778D01*
X454255Y46667D01*
X454245Y46556D01*
X454231Y46445D01*
X454213Y46336D01*
X454191Y46227D01*
X454166Y46118D01*
X454136Y46011D01*
X454103Y45905D01*
X454065Y45800D01*
X454025Y45697D01*
X453980Y45595D01*
X453932Y45495D01*
X453880Y45396D01*
X453825Y45300D01*
X453766Y45205D01*
X453704Y45113D01*
X453638Y45023D01*
X453570Y44935D01*
X453498Y44850D01*
X453423Y44768D01*
X453346Y44688D01*
X449127Y44870D02*
X449053Y44872D01*
X448978Y44878D01*
X448905Y44887D01*
X448831Y44900D01*
X448759Y44917D01*
X448688Y44937D01*
X448617Y44961D01*
X448548Y44989D01*
X448481Y45020D01*
X448415Y45054D01*
X448350Y45092D01*
X448288Y45133D01*
X448228Y45177D01*
X448171Y45224D01*
X448116Y45274D01*
X448063Y45327D01*
X448013Y45382D01*
X447966Y45439D01*
X447922Y45499D01*
X447881Y45561D01*
X447843Y45626D01*
X447809Y45692D01*
X447778Y45759D01*
X447750Y45828D01*
X447726Y45899D01*
X447706Y45970D01*
X447689Y46042D01*
X447676Y46116D01*
X447667Y46189D01*
X447661Y46264D01*
X447659Y46338D01*
X447661Y46442D01*
X447667Y46546D01*
X447677Y46650D01*
X447690Y46753D01*
X447708Y46856D01*
X447730Y46958D01*
X447755Y47059D01*
X447784Y47159D01*
X447817Y47258D01*
X447854Y47355D01*
X447894Y47451D01*
X447938Y47546D01*
X447986Y47638D01*
X448036Y47729D01*
X448091Y47818D01*
X448149Y47905D01*
X448209Y47989D01*
X450412Y45604D02*
X450373Y45541D01*
X450331Y45481D01*
X450286Y45423D01*
X450238Y45366D01*
X450187Y45313D01*
X450134Y45262D01*
X450079Y45213D01*
X450021Y45168D01*
X449961Y45125D01*
X449899Y45085D01*
X449835Y45049D01*
X449769Y45015D01*
X449701Y44985D01*
X449633Y44958D01*
X449563Y44935D01*
X449492Y44915D01*
X449420Y44899D01*
X449347Y44886D01*
X449274Y44877D01*
X449201Y44872D01*
X449127Y44870D01*
X451511Y47623D02*
X451550Y47686D01*
X451592Y47746D01*
X451637Y47805D01*
X451685Y47861D01*
X451736Y47914D01*
X451789Y47965D01*
X451844Y48014D01*
X451902Y48059D01*
X451962Y48102D01*
X452024Y48142D01*
X452088Y48178D01*
X452154Y48212D01*
X452222Y48242D01*
X452290Y48269D01*
X452360Y48292D01*
X452431Y48312D01*
X452503Y48328D01*
X452576Y48341D01*
X452649Y48350D01*
X452722Y48355D01*
X452796Y48357D01*
X451511Y47623D02*
X450411Y45605D01*
X472659Y31160D02*
X479263Y31160D01*
X472659Y29326D02*
X472659Y32994D01*
X479263Y35786D02*
X472659Y40189D01*
X472659Y35786D02*
X479263Y40189D01*
X485659Y29326D02*
X492263Y29326D01*
X485659Y29326D02*
X485659Y31160D01*
X485660Y31160D02*
X485662Y31245D01*
X485668Y31329D01*
X485678Y31413D01*
X485691Y31497D01*
X485709Y31580D01*
X485730Y31662D01*
X485755Y31743D01*
X485784Y31823D01*
X485816Y31901D01*
X485852Y31977D01*
X485892Y32052D01*
X485935Y32125D01*
X485981Y32196D01*
X486030Y32265D01*
X486083Y32332D01*
X486139Y32396D01*
X486197Y32457D01*
X486258Y32515D01*
X486322Y32571D01*
X486389Y32624D01*
X486458Y32673D01*
X486529Y32719D01*
X486602Y32762D01*
X486677Y32802D01*
X486753Y32838D01*
X486831Y32870D01*
X486911Y32899D01*
X486992Y32924D01*
X487074Y32945D01*
X487157Y32963D01*
X487241Y32976D01*
X487325Y32986D01*
X487409Y32992D01*
X487494Y32994D01*
X487579Y32992D01*
X487663Y32986D01*
X487747Y32976D01*
X487831Y32963D01*
X487914Y32945D01*
X487996Y32924D01*
X488077Y32899D01*
X488157Y32870D01*
X488235Y32838D01*
X488311Y32802D01*
X488386Y32762D01*
X488459Y32719D01*
X488530Y32673D01*
X488599Y32624D01*
X488666Y32571D01*
X488730Y32515D01*
X488791Y32457D01*
X488849Y32396D01*
X488905Y32332D01*
X488958Y32265D01*
X489007Y32196D01*
X489053Y32125D01*
X489096Y32052D01*
X489136Y31977D01*
X489172Y31901D01*
X489204Y31823D01*
X489233Y31743D01*
X489258Y31662D01*
X489279Y31580D01*
X489297Y31497D01*
X489310Y31413D01*
X489320Y31329D01*
X489326Y31245D01*
X489328Y31160D01*
X489328Y29326D01*
X489328Y31527D02*
X492263Y32994D01*
X492263Y36195D02*
X485659Y40598D01*
X485659Y36195D02*
X492263Y40598D01*
X505263Y31160D02*
X505263Y29326D01*
X505263Y31160D02*
X505261Y31245D01*
X505255Y31329D01*
X505245Y31413D01*
X505232Y31497D01*
X505214Y31580D01*
X505193Y31662D01*
X505168Y31743D01*
X505139Y31823D01*
X505107Y31901D01*
X505071Y31977D01*
X505031Y32052D01*
X504988Y32125D01*
X504942Y32196D01*
X504893Y32265D01*
X504840Y32332D01*
X504784Y32396D01*
X504726Y32457D01*
X504665Y32515D01*
X504601Y32571D01*
X504534Y32624D01*
X504465Y32673D01*
X504394Y32719D01*
X504321Y32762D01*
X504246Y32802D01*
X504170Y32838D01*
X504092Y32870D01*
X504012Y32899D01*
X503931Y32924D01*
X503849Y32945D01*
X503766Y32963D01*
X503682Y32976D01*
X503598Y32986D01*
X503514Y32992D01*
X503429Y32994D01*
X503344Y32992D01*
X503260Y32986D01*
X503176Y32976D01*
X503092Y32963D01*
X503009Y32945D01*
X502927Y32924D01*
X502846Y32899D01*
X502766Y32870D01*
X502688Y32838D01*
X502612Y32802D01*
X502537Y32762D01*
X502464Y32719D01*
X502393Y32673D01*
X502324Y32624D01*
X502257Y32571D01*
X502193Y32515D01*
X502132Y32457D01*
X502074Y32396D01*
X502018Y32332D01*
X501965Y32265D01*
X501916Y32196D01*
X501870Y32125D01*
X501827Y32052D01*
X501787Y31977D01*
X501751Y31901D01*
X501719Y31823D01*
X501690Y31743D01*
X501665Y31662D01*
X501644Y31580D01*
X501626Y31497D01*
X501613Y31413D01*
X501603Y31329D01*
X501597Y31245D01*
X501595Y31160D01*
X498659Y31527D02*
X498659Y29326D01*
X498659Y31527D02*
X498661Y31603D01*
X498667Y31678D01*
X498676Y31753D01*
X498690Y31827D01*
X498707Y31901D01*
X498729Y31973D01*
X498753Y32045D01*
X498782Y32115D01*
X498814Y32183D01*
X498849Y32250D01*
X498888Y32315D01*
X498931Y32378D01*
X498976Y32438D01*
X499024Y32496D01*
X499076Y32552D01*
X499130Y32604D01*
X499187Y32654D01*
X499246Y32701D01*
X499307Y32745D01*
X499371Y32786D01*
X499437Y32823D01*
X499505Y32857D01*
X499574Y32887D01*
X499645Y32914D01*
X499717Y32937D01*
X499790Y32956D01*
X499864Y32971D01*
X499939Y32983D01*
X500014Y32991D01*
X500089Y32995D01*
X500165Y32995D01*
X500240Y32991D01*
X500315Y32983D01*
X500390Y32971D01*
X500464Y32956D01*
X500537Y32937D01*
X500609Y32914D01*
X500680Y32887D01*
X500749Y32857D01*
X500817Y32823D01*
X500883Y32786D01*
X500947Y32745D01*
X501008Y32701D01*
X501067Y32654D01*
X501124Y32604D01*
X501178Y32552D01*
X501230Y32496D01*
X501278Y32438D01*
X501323Y32378D01*
X501366Y32315D01*
X501405Y32250D01*
X501440Y32183D01*
X501472Y32115D01*
X501501Y32045D01*
X501525Y31973D01*
X501547Y31901D01*
X501564Y31827D01*
X501578Y31753D01*
X501587Y31678D01*
X501593Y31603D01*
X501595Y31527D01*
X501594Y31527D02*
X501594Y30059D01*
X498659Y36274D02*
X505263Y38475D01*
X498659Y40677D01*
X505263Y43956D02*
X505263Y45790D01*
X505261Y45875D01*
X505255Y45959D01*
X505245Y46043D01*
X505232Y46127D01*
X505214Y46210D01*
X505193Y46292D01*
X505168Y46373D01*
X505139Y46453D01*
X505107Y46531D01*
X505071Y46607D01*
X505031Y46682D01*
X504988Y46755D01*
X504942Y46826D01*
X504893Y46895D01*
X504840Y46962D01*
X504784Y47026D01*
X504726Y47087D01*
X504665Y47145D01*
X504601Y47201D01*
X504534Y47254D01*
X504465Y47303D01*
X504394Y47349D01*
X504321Y47392D01*
X504246Y47432D01*
X504170Y47468D01*
X504092Y47500D01*
X504012Y47529D01*
X503931Y47554D01*
X503849Y47575D01*
X503766Y47593D01*
X503682Y47606D01*
X503598Y47616D01*
X503514Y47622D01*
X503429Y47624D01*
X503344Y47622D01*
X503260Y47616D01*
X503176Y47606D01*
X503092Y47593D01*
X503009Y47575D01*
X502927Y47554D01*
X502846Y47529D01*
X502766Y47500D01*
X502688Y47468D01*
X502612Y47432D01*
X502537Y47392D01*
X502464Y47349D01*
X502393Y47303D01*
X502324Y47254D01*
X502257Y47201D01*
X502193Y47145D01*
X502132Y47087D01*
X502074Y47026D01*
X502018Y46962D01*
X501965Y46895D01*
X501916Y46826D01*
X501870Y46755D01*
X501827Y46682D01*
X501787Y46607D01*
X501751Y46531D01*
X501719Y46453D01*
X501690Y46373D01*
X501665Y46292D01*
X501644Y46210D01*
X501626Y46127D01*
X501613Y46043D01*
X501603Y45959D01*
X501597Y45875D01*
X501595Y45790D01*
X498659Y46157D02*
X498659Y43956D01*
X498659Y46157D02*
X498661Y46233D01*
X498667Y46308D01*
X498676Y46383D01*
X498690Y46457D01*
X498707Y46531D01*
X498729Y46603D01*
X498753Y46675D01*
X498782Y46745D01*
X498814Y46813D01*
X498849Y46880D01*
X498888Y46945D01*
X498931Y47008D01*
X498976Y47068D01*
X499024Y47126D01*
X499076Y47182D01*
X499130Y47234D01*
X499187Y47284D01*
X499246Y47331D01*
X499307Y47375D01*
X499371Y47416D01*
X499437Y47453D01*
X499505Y47487D01*
X499574Y47517D01*
X499645Y47544D01*
X499717Y47567D01*
X499790Y47586D01*
X499864Y47601D01*
X499939Y47613D01*
X500014Y47621D01*
X500089Y47625D01*
X500165Y47625D01*
X500240Y47621D01*
X500315Y47613D01*
X500390Y47601D01*
X500464Y47586D01*
X500537Y47567D01*
X500609Y47544D01*
X500680Y47517D01*
X500749Y47487D01*
X500817Y47453D01*
X500883Y47416D01*
X500947Y47375D01*
X501008Y47331D01*
X501067Y47284D01*
X501124Y47234D01*
X501178Y47182D01*
X501230Y47126D01*
X501278Y47068D01*
X501323Y47008D01*
X501366Y46945D01*
X501405Y46880D01*
X501440Y46813D01*
X501472Y46745D01*
X501501Y46675D01*
X501525Y46603D01*
X501547Y46531D01*
X501564Y46457D01*
X501578Y46383D01*
X501587Y46308D01*
X501593Y46233D01*
X501595Y46157D01*
X501594Y46157D02*
X501594Y44690D01*
X514594Y32994D02*
X514594Y31894D01*
X514594Y32994D02*
X518263Y32994D01*
X518263Y30793D01*
X518264Y30793D02*
X518262Y30719D01*
X518256Y30644D01*
X518247Y30571D01*
X518234Y30497D01*
X518217Y30425D01*
X518197Y30354D01*
X518173Y30283D01*
X518145Y30214D01*
X518114Y30147D01*
X518080Y30081D01*
X518042Y30016D01*
X518001Y29954D01*
X517957Y29894D01*
X517910Y29837D01*
X517860Y29782D01*
X517807Y29729D01*
X517752Y29679D01*
X517695Y29632D01*
X517635Y29588D01*
X517573Y29547D01*
X517508Y29509D01*
X517443Y29475D01*
X517375Y29444D01*
X517306Y29416D01*
X517235Y29392D01*
X517164Y29372D01*
X517092Y29355D01*
X517018Y29342D01*
X516945Y29333D01*
X516870Y29327D01*
X516796Y29325D01*
X516796Y29326D02*
X513127Y29326D01*
X513127Y29325D02*
X513053Y29327D01*
X512978Y29333D01*
X512905Y29342D01*
X512831Y29355D01*
X512759Y29372D01*
X512688Y29392D01*
X512617Y29416D01*
X512548Y29444D01*
X512481Y29475D01*
X512415Y29509D01*
X512350Y29547D01*
X512288Y29588D01*
X512228Y29632D01*
X512171Y29679D01*
X512116Y29729D01*
X512063Y29782D01*
X512013Y29837D01*
X511966Y29894D01*
X511922Y29954D01*
X511881Y30016D01*
X511843Y30081D01*
X511809Y30146D01*
X511778Y30214D01*
X511750Y30283D01*
X511726Y30354D01*
X511706Y30425D01*
X511689Y30497D01*
X511676Y30571D01*
X511667Y30644D01*
X511661Y30719D01*
X511659Y30793D01*
X511659Y32994D01*
X511659Y37128D02*
X518263Y37128D01*
X518263Y40797D02*
X511659Y37128D01*
X511659Y40797D02*
X518263Y40797D01*
X518263Y44931D02*
X511659Y44931D01*
X511659Y46766D01*
X511660Y46766D02*
X511662Y46851D01*
X511668Y46935D01*
X511678Y47019D01*
X511691Y47103D01*
X511709Y47186D01*
X511730Y47268D01*
X511755Y47349D01*
X511784Y47429D01*
X511816Y47507D01*
X511852Y47583D01*
X511892Y47658D01*
X511935Y47731D01*
X511981Y47802D01*
X512030Y47871D01*
X512083Y47938D01*
X512139Y48002D01*
X512197Y48063D01*
X512258Y48121D01*
X512322Y48177D01*
X512389Y48230D01*
X512458Y48279D01*
X512529Y48325D01*
X512602Y48368D01*
X512677Y48408D01*
X512753Y48444D01*
X512832Y48476D01*
X512911Y48505D01*
X512992Y48530D01*
X513074Y48551D01*
X513157Y48569D01*
X513241Y48582D01*
X513325Y48592D01*
X513409Y48598D01*
X513494Y48600D01*
X516429Y48600D01*
X516514Y48598D01*
X516598Y48592D01*
X516682Y48582D01*
X516766Y48569D01*
X516849Y48551D01*
X516931Y48530D01*
X517012Y48505D01*
X517092Y48476D01*
X517170Y48444D01*
X517246Y48408D01*
X517321Y48368D01*
X517394Y48325D01*
X517465Y48279D01*
X517534Y48230D01*
X517601Y48177D01*
X517665Y48121D01*
X517726Y48063D01*
X517784Y48002D01*
X517840Y47938D01*
X517893Y47871D01*
X517942Y47802D01*
X517988Y47731D01*
X518031Y47658D01*
X518071Y47583D01*
X518107Y47507D01*
X518139Y47429D01*
X518168Y47349D01*
X518193Y47268D01*
X518214Y47186D01*
X518232Y47103D01*
X518245Y47019D01*
X518255Y46935D01*
X518261Y46851D01*
X518263Y46766D01*
X518263Y44931D01*
D13*
X100247Y241259D02*
X100165Y241257D01*
X100084Y241251D01*
X100003Y241242D01*
X99922Y241228D01*
X99843Y241211D01*
X99764Y241190D01*
X99686Y241165D01*
X99610Y241136D01*
X99535Y241104D01*
X99461Y241068D01*
X99390Y241029D01*
X99320Y240987D01*
X99252Y240941D01*
X99187Y240892D01*
X99124Y240840D01*
X99064Y240785D01*
X99006Y240727D01*
X98951Y240667D01*
X98899Y240604D01*
X98850Y240539D01*
X98804Y240471D01*
X98762Y240402D01*
X98723Y240330D01*
X98687Y240256D01*
X98655Y240181D01*
X98626Y240105D01*
X98601Y240027D01*
X98580Y239948D01*
X98563Y239869D01*
X98549Y239788D01*
X98540Y239707D01*
X98534Y239626D01*
X98532Y239544D01*
X98534Y239452D01*
X98540Y239360D01*
X98549Y239268D01*
X98563Y239176D01*
X98580Y239086D01*
X98601Y238996D01*
X98626Y238907D01*
X98655Y238819D01*
X98687Y238732D01*
X98723Y238647D01*
X98762Y238564D01*
X98805Y238482D01*
X98851Y238402D01*
X98901Y238324D01*
X98953Y238248D01*
X99009Y238175D01*
X99068Y238104D01*
X99130Y238035D01*
X99195Y237969D01*
X99262Y237906D01*
X99332Y237846D01*
X99404Y237788D01*
X99479Y237734D01*
X99556Y237683D01*
X99635Y237635D01*
X99716Y237591D01*
X99799Y237550D01*
X99883Y237512D01*
X99969Y237478D01*
X100056Y237448D01*
X101581Y240687D02*
X101522Y240746D01*
X101461Y240802D01*
X101398Y240855D01*
X101332Y240906D01*
X101264Y240953D01*
X101194Y240997D01*
X101122Y241038D01*
X101048Y241076D01*
X100973Y241110D01*
X100896Y241141D01*
X100818Y241168D01*
X100738Y241192D01*
X100658Y241213D01*
X100577Y241229D01*
X100495Y241242D01*
X100413Y241252D01*
X100330Y241257D01*
X100247Y241259D01*
X101580Y240687D02*
X105390Y237449D01*
X105390Y241259D01*
X105390Y244764D02*
X105390Y247050D01*
X105388Y247127D01*
X105382Y247204D01*
X105372Y247281D01*
X105359Y247357D01*
X105341Y247432D01*
X105320Y247506D01*
X105295Y247579D01*
X105266Y247651D01*
X105234Y247721D01*
X105199Y247790D01*
X105159Y247856D01*
X105117Y247921D01*
X105071Y247983D01*
X105022Y248043D01*
X104971Y248100D01*
X104916Y248155D01*
X104859Y248206D01*
X104799Y248255D01*
X104737Y248301D01*
X104672Y248343D01*
X104606Y248383D01*
X104537Y248418D01*
X104467Y248450D01*
X104395Y248479D01*
X104322Y248504D01*
X104248Y248525D01*
X104173Y248543D01*
X104097Y248556D01*
X104020Y248566D01*
X103943Y248572D01*
X103866Y248574D01*
X103104Y248574D01*
X103027Y248572D01*
X102950Y248566D01*
X102873Y248556D01*
X102797Y248543D01*
X102722Y248525D01*
X102648Y248504D01*
X102575Y248479D01*
X102503Y248450D01*
X102433Y248418D01*
X102364Y248383D01*
X102298Y248343D01*
X102233Y248301D01*
X102171Y248255D01*
X102111Y248206D01*
X102054Y248155D01*
X101999Y248100D01*
X101948Y248043D01*
X101899Y247983D01*
X101853Y247921D01*
X101811Y247856D01*
X101771Y247790D01*
X101736Y247721D01*
X101704Y247651D01*
X101675Y247579D01*
X101650Y247506D01*
X101629Y247432D01*
X101611Y247357D01*
X101598Y247281D01*
X101588Y247204D01*
X101582Y247127D01*
X101580Y247050D01*
X101580Y244764D01*
X98532Y244764D01*
X98532Y248574D01*
X110532Y239544D02*
X110534Y239626D01*
X110540Y239707D01*
X110549Y239788D01*
X110563Y239869D01*
X110580Y239948D01*
X110601Y240027D01*
X110626Y240105D01*
X110655Y240181D01*
X110687Y240256D01*
X110723Y240330D01*
X110762Y240402D01*
X110804Y240471D01*
X110850Y240539D01*
X110899Y240604D01*
X110951Y240667D01*
X111006Y240727D01*
X111064Y240785D01*
X111124Y240840D01*
X111187Y240892D01*
X111252Y240941D01*
X111320Y240987D01*
X111390Y241029D01*
X111461Y241068D01*
X111535Y241104D01*
X111610Y241136D01*
X111686Y241165D01*
X111764Y241190D01*
X111843Y241211D01*
X111922Y241228D01*
X112003Y241242D01*
X112084Y241251D01*
X112165Y241257D01*
X112247Y241259D01*
X110532Y239544D02*
X110534Y239452D01*
X110540Y239360D01*
X110549Y239268D01*
X110563Y239176D01*
X110580Y239086D01*
X110601Y238996D01*
X110626Y238907D01*
X110655Y238819D01*
X110687Y238732D01*
X110723Y238647D01*
X110762Y238564D01*
X110805Y238482D01*
X110851Y238402D01*
X110901Y238324D01*
X110953Y238248D01*
X111009Y238175D01*
X111068Y238104D01*
X111130Y238035D01*
X111195Y237969D01*
X111262Y237906D01*
X111332Y237846D01*
X111404Y237788D01*
X111479Y237734D01*
X111556Y237683D01*
X111635Y237635D01*
X111716Y237591D01*
X111799Y237550D01*
X111883Y237512D01*
X111969Y237478D01*
X112056Y237448D01*
X113581Y240687D02*
X113522Y240746D01*
X113461Y240802D01*
X113398Y240855D01*
X113332Y240906D01*
X113264Y240953D01*
X113194Y240997D01*
X113122Y241038D01*
X113048Y241076D01*
X112973Y241110D01*
X112896Y241141D01*
X112818Y241168D01*
X112738Y241192D01*
X112658Y241213D01*
X112577Y241229D01*
X112495Y241242D01*
X112413Y241252D01*
X112330Y241257D01*
X112247Y241259D01*
X113580Y240687D02*
X117390Y237449D01*
X117390Y241259D01*
X115866Y244764D02*
X110532Y246288D01*
X115866Y244764D02*
X115866Y248574D01*
X114342Y247431D02*
X117390Y247431D01*
X124532Y239544D02*
X124534Y239626D01*
X124540Y239707D01*
X124549Y239788D01*
X124563Y239869D01*
X124580Y239948D01*
X124601Y240027D01*
X124626Y240105D01*
X124655Y240181D01*
X124687Y240256D01*
X124723Y240330D01*
X124762Y240402D01*
X124804Y240471D01*
X124850Y240539D01*
X124899Y240604D01*
X124951Y240667D01*
X125006Y240727D01*
X125064Y240785D01*
X125124Y240840D01*
X125187Y240892D01*
X125252Y240941D01*
X125320Y240987D01*
X125390Y241029D01*
X125461Y241068D01*
X125535Y241104D01*
X125610Y241136D01*
X125686Y241165D01*
X125764Y241190D01*
X125843Y241211D01*
X125922Y241228D01*
X126003Y241242D01*
X126084Y241251D01*
X126165Y241257D01*
X126247Y241259D01*
X124532Y239544D02*
X124534Y239452D01*
X124540Y239360D01*
X124549Y239268D01*
X124563Y239176D01*
X124580Y239086D01*
X124601Y238996D01*
X124626Y238907D01*
X124655Y238819D01*
X124687Y238732D01*
X124723Y238647D01*
X124762Y238564D01*
X124805Y238482D01*
X124851Y238402D01*
X124901Y238324D01*
X124953Y238248D01*
X125009Y238175D01*
X125068Y238104D01*
X125130Y238035D01*
X125195Y237969D01*
X125262Y237906D01*
X125332Y237846D01*
X125404Y237788D01*
X125479Y237734D01*
X125556Y237683D01*
X125635Y237635D01*
X125716Y237591D01*
X125799Y237550D01*
X125883Y237512D01*
X125969Y237478D01*
X126056Y237448D01*
X127581Y240687D02*
X127522Y240746D01*
X127461Y240802D01*
X127398Y240855D01*
X127332Y240906D01*
X127264Y240953D01*
X127194Y240997D01*
X127122Y241038D01*
X127048Y241076D01*
X126973Y241110D01*
X126896Y241141D01*
X126818Y241168D01*
X126738Y241192D01*
X126658Y241213D01*
X126577Y241229D01*
X126495Y241242D01*
X126413Y241252D01*
X126330Y241257D01*
X126247Y241259D01*
X127580Y240687D02*
X131390Y237449D01*
X131390Y241259D01*
X131390Y244764D02*
X131390Y246669D01*
X131388Y246754D01*
X131382Y246840D01*
X131373Y246925D01*
X131359Y247009D01*
X131342Y247093D01*
X131321Y247176D01*
X131297Y247258D01*
X131269Y247338D01*
X131237Y247418D01*
X131201Y247496D01*
X131163Y247572D01*
X131120Y247646D01*
X131075Y247718D01*
X131026Y247789D01*
X130974Y247857D01*
X130920Y247922D01*
X130862Y247985D01*
X130801Y248046D01*
X130738Y248104D01*
X130673Y248158D01*
X130605Y248210D01*
X130534Y248259D01*
X130462Y248304D01*
X130388Y248347D01*
X130312Y248385D01*
X130234Y248421D01*
X130154Y248453D01*
X130074Y248481D01*
X129992Y248505D01*
X129909Y248526D01*
X129825Y248543D01*
X129741Y248557D01*
X129656Y248566D01*
X129570Y248572D01*
X129485Y248574D01*
X129400Y248572D01*
X129314Y248566D01*
X129229Y248557D01*
X129145Y248543D01*
X129061Y248526D01*
X128978Y248505D01*
X128896Y248481D01*
X128816Y248453D01*
X128736Y248421D01*
X128658Y248385D01*
X128582Y248347D01*
X128508Y248304D01*
X128436Y248259D01*
X128365Y248210D01*
X128297Y248158D01*
X128232Y248104D01*
X128169Y248046D01*
X128108Y247985D01*
X128050Y247922D01*
X127996Y247857D01*
X127944Y247789D01*
X127895Y247718D01*
X127850Y247646D01*
X127807Y247572D01*
X127769Y247496D01*
X127733Y247418D01*
X127701Y247338D01*
X127673Y247258D01*
X127649Y247176D01*
X127628Y247093D01*
X127611Y247009D01*
X127597Y246925D01*
X127588Y246840D01*
X127582Y246754D01*
X127580Y246669D01*
X124532Y247050D02*
X124532Y244764D01*
X124532Y247050D02*
X124534Y247127D01*
X124540Y247204D01*
X124550Y247281D01*
X124563Y247357D01*
X124581Y247432D01*
X124602Y247506D01*
X124627Y247579D01*
X124656Y247651D01*
X124688Y247721D01*
X124723Y247790D01*
X124763Y247856D01*
X124805Y247921D01*
X124851Y247983D01*
X124900Y248043D01*
X124951Y248100D01*
X125006Y248155D01*
X125063Y248206D01*
X125123Y248255D01*
X125185Y248301D01*
X125250Y248343D01*
X125316Y248383D01*
X125385Y248418D01*
X125455Y248450D01*
X125527Y248479D01*
X125600Y248504D01*
X125674Y248525D01*
X125749Y248543D01*
X125825Y248556D01*
X125902Y248566D01*
X125979Y248572D01*
X126056Y248574D01*
X126133Y248572D01*
X126210Y248566D01*
X126287Y248556D01*
X126363Y248543D01*
X126438Y248525D01*
X126512Y248504D01*
X126585Y248479D01*
X126657Y248450D01*
X126727Y248418D01*
X126796Y248383D01*
X126862Y248343D01*
X126927Y248301D01*
X126989Y248255D01*
X127049Y248206D01*
X127106Y248155D01*
X127161Y248100D01*
X127212Y248043D01*
X127261Y247983D01*
X127307Y247921D01*
X127349Y247856D01*
X127389Y247790D01*
X127424Y247721D01*
X127456Y247651D01*
X127485Y247579D01*
X127510Y247506D01*
X127531Y247432D01*
X127549Y247357D01*
X127562Y247281D01*
X127572Y247204D01*
X127578Y247127D01*
X127580Y247050D01*
X127580Y245526D01*
X135532Y239544D02*
X135534Y239626D01*
X135540Y239707D01*
X135549Y239788D01*
X135563Y239869D01*
X135580Y239948D01*
X135601Y240027D01*
X135626Y240105D01*
X135655Y240181D01*
X135687Y240256D01*
X135723Y240330D01*
X135762Y240402D01*
X135804Y240471D01*
X135850Y240539D01*
X135899Y240604D01*
X135951Y240667D01*
X136006Y240727D01*
X136064Y240785D01*
X136124Y240840D01*
X136187Y240892D01*
X136252Y240941D01*
X136320Y240987D01*
X136390Y241029D01*
X136461Y241068D01*
X136535Y241104D01*
X136610Y241136D01*
X136686Y241165D01*
X136764Y241190D01*
X136843Y241211D01*
X136922Y241228D01*
X137003Y241242D01*
X137084Y241251D01*
X137165Y241257D01*
X137247Y241259D01*
X135532Y239544D02*
X135534Y239452D01*
X135540Y239360D01*
X135549Y239268D01*
X135563Y239176D01*
X135580Y239086D01*
X135601Y238996D01*
X135626Y238907D01*
X135655Y238819D01*
X135687Y238732D01*
X135723Y238647D01*
X135762Y238564D01*
X135805Y238482D01*
X135851Y238402D01*
X135901Y238324D01*
X135953Y238248D01*
X136009Y238175D01*
X136068Y238104D01*
X136130Y238035D01*
X136195Y237969D01*
X136262Y237906D01*
X136332Y237846D01*
X136404Y237788D01*
X136479Y237734D01*
X136556Y237683D01*
X136635Y237635D01*
X136716Y237591D01*
X136799Y237550D01*
X136883Y237512D01*
X136969Y237478D01*
X137056Y237448D01*
X138581Y240687D02*
X138522Y240746D01*
X138461Y240802D01*
X138398Y240855D01*
X138332Y240906D01*
X138264Y240953D01*
X138194Y240997D01*
X138122Y241038D01*
X138048Y241076D01*
X137973Y241110D01*
X137896Y241141D01*
X137818Y241168D01*
X137738Y241192D01*
X137658Y241213D01*
X137577Y241229D01*
X137495Y241242D01*
X137413Y241252D01*
X137330Y241257D01*
X137247Y241259D01*
X138580Y240687D02*
X142390Y237449D01*
X142390Y241259D01*
X135532Y246859D02*
X135534Y246941D01*
X135540Y247022D01*
X135549Y247103D01*
X135563Y247184D01*
X135580Y247263D01*
X135601Y247342D01*
X135626Y247420D01*
X135655Y247496D01*
X135687Y247571D01*
X135723Y247645D01*
X135762Y247717D01*
X135804Y247786D01*
X135850Y247854D01*
X135899Y247919D01*
X135951Y247982D01*
X136006Y248042D01*
X136064Y248100D01*
X136124Y248155D01*
X136187Y248207D01*
X136252Y248256D01*
X136320Y248302D01*
X136390Y248344D01*
X136461Y248383D01*
X136535Y248419D01*
X136610Y248451D01*
X136686Y248480D01*
X136764Y248505D01*
X136843Y248526D01*
X136922Y248543D01*
X137003Y248557D01*
X137084Y248566D01*
X137165Y248572D01*
X137247Y248574D01*
X135532Y246859D02*
X135534Y246767D01*
X135540Y246675D01*
X135549Y246583D01*
X135563Y246491D01*
X135580Y246401D01*
X135601Y246311D01*
X135626Y246222D01*
X135655Y246134D01*
X135687Y246047D01*
X135723Y245962D01*
X135762Y245879D01*
X135805Y245797D01*
X135851Y245717D01*
X135901Y245639D01*
X135953Y245563D01*
X136009Y245490D01*
X136068Y245419D01*
X136130Y245350D01*
X136195Y245284D01*
X136262Y245221D01*
X136332Y245161D01*
X136404Y245103D01*
X136479Y245049D01*
X136556Y244998D01*
X136635Y244950D01*
X136716Y244906D01*
X136799Y244865D01*
X136883Y244827D01*
X136969Y244793D01*
X137056Y244763D01*
X138581Y248002D02*
X138522Y248061D01*
X138461Y248117D01*
X138398Y248170D01*
X138332Y248221D01*
X138264Y248268D01*
X138194Y248312D01*
X138122Y248353D01*
X138048Y248391D01*
X137973Y248425D01*
X137896Y248456D01*
X137818Y248483D01*
X137738Y248507D01*
X137658Y248528D01*
X137577Y248544D01*
X137495Y248557D01*
X137413Y248567D01*
X137330Y248572D01*
X137247Y248574D01*
X138580Y248002D02*
X142390Y244764D01*
X142390Y248574D01*
X150247Y241259D02*
X150165Y241257D01*
X150084Y241251D01*
X150003Y241242D01*
X149922Y241228D01*
X149843Y241211D01*
X149764Y241190D01*
X149686Y241165D01*
X149610Y241136D01*
X149535Y241104D01*
X149461Y241068D01*
X149390Y241029D01*
X149320Y240987D01*
X149252Y240941D01*
X149187Y240892D01*
X149124Y240840D01*
X149064Y240785D01*
X149006Y240727D01*
X148951Y240667D01*
X148899Y240604D01*
X148850Y240539D01*
X148804Y240471D01*
X148762Y240402D01*
X148723Y240330D01*
X148687Y240256D01*
X148655Y240181D01*
X148626Y240105D01*
X148601Y240027D01*
X148580Y239948D01*
X148563Y239869D01*
X148549Y239788D01*
X148540Y239707D01*
X148534Y239626D01*
X148532Y239544D01*
X148534Y239452D01*
X148540Y239360D01*
X148549Y239268D01*
X148563Y239176D01*
X148580Y239086D01*
X148601Y238996D01*
X148626Y238907D01*
X148655Y238819D01*
X148687Y238732D01*
X148723Y238647D01*
X148762Y238564D01*
X148805Y238482D01*
X148851Y238402D01*
X148901Y238324D01*
X148953Y238248D01*
X149009Y238175D01*
X149068Y238104D01*
X149130Y238035D01*
X149195Y237969D01*
X149262Y237906D01*
X149332Y237846D01*
X149404Y237788D01*
X149479Y237734D01*
X149556Y237683D01*
X149635Y237635D01*
X149716Y237591D01*
X149799Y237550D01*
X149883Y237512D01*
X149969Y237478D01*
X150056Y237448D01*
X151581Y240687D02*
X151522Y240746D01*
X151461Y240802D01*
X151398Y240855D01*
X151332Y240906D01*
X151264Y240953D01*
X151194Y240997D01*
X151122Y241038D01*
X151048Y241076D01*
X150973Y241110D01*
X150896Y241141D01*
X150818Y241168D01*
X150738Y241192D01*
X150658Y241213D01*
X150577Y241229D01*
X150495Y241242D01*
X150413Y241252D01*
X150330Y241257D01*
X150247Y241259D01*
X151580Y240687D02*
X155390Y237449D01*
X155390Y241259D01*
X150056Y244764D02*
X148532Y246669D01*
X155390Y246669D01*
X155390Y244764D02*
X155390Y248574D01*
X163247Y241259D02*
X163165Y241257D01*
X163084Y241251D01*
X163003Y241242D01*
X162922Y241228D01*
X162843Y241211D01*
X162764Y241190D01*
X162686Y241165D01*
X162610Y241136D01*
X162535Y241104D01*
X162461Y241068D01*
X162390Y241029D01*
X162320Y240987D01*
X162252Y240941D01*
X162187Y240892D01*
X162124Y240840D01*
X162064Y240785D01*
X162006Y240727D01*
X161951Y240667D01*
X161899Y240604D01*
X161850Y240539D01*
X161804Y240471D01*
X161762Y240402D01*
X161723Y240330D01*
X161687Y240256D01*
X161655Y240181D01*
X161626Y240105D01*
X161601Y240027D01*
X161580Y239948D01*
X161563Y239869D01*
X161549Y239788D01*
X161540Y239707D01*
X161534Y239626D01*
X161532Y239544D01*
X161534Y239452D01*
X161540Y239360D01*
X161549Y239268D01*
X161563Y239176D01*
X161580Y239086D01*
X161601Y238996D01*
X161626Y238907D01*
X161655Y238819D01*
X161687Y238732D01*
X161723Y238647D01*
X161762Y238564D01*
X161805Y238482D01*
X161851Y238402D01*
X161901Y238324D01*
X161953Y238248D01*
X162009Y238175D01*
X162068Y238104D01*
X162130Y238035D01*
X162195Y237969D01*
X162262Y237906D01*
X162332Y237846D01*
X162404Y237788D01*
X162479Y237734D01*
X162556Y237683D01*
X162635Y237635D01*
X162716Y237591D01*
X162799Y237550D01*
X162883Y237512D01*
X162969Y237478D01*
X163056Y237448D01*
X164581Y240687D02*
X164522Y240746D01*
X164461Y240802D01*
X164398Y240855D01*
X164332Y240906D01*
X164264Y240953D01*
X164194Y240997D01*
X164122Y241038D01*
X164048Y241076D01*
X163973Y241110D01*
X163896Y241141D01*
X163818Y241168D01*
X163738Y241192D01*
X163658Y241213D01*
X163577Y241229D01*
X163495Y241242D01*
X163413Y241252D01*
X163330Y241257D01*
X163247Y241259D01*
X164580Y240687D02*
X168390Y237449D01*
X168390Y241259D01*
X164961Y244763D02*
X164819Y244765D01*
X164676Y244770D01*
X164534Y244779D01*
X164392Y244792D01*
X164251Y244808D01*
X164110Y244827D01*
X163969Y244851D01*
X163829Y244877D01*
X163690Y244908D01*
X163552Y244942D01*
X163414Y244979D01*
X163278Y245019D01*
X163142Y245064D01*
X163008Y245111D01*
X162875Y245162D01*
X162743Y245216D01*
X162613Y245274D01*
X162484Y245335D01*
X162485Y245335D02*
X162416Y245361D01*
X162350Y245390D01*
X162284Y245422D01*
X162221Y245457D01*
X162159Y245496D01*
X162099Y245538D01*
X162042Y245583D01*
X161987Y245631D01*
X161935Y245682D01*
X161885Y245735D01*
X161839Y245791D01*
X161795Y245849D01*
X161754Y245910D01*
X161716Y245972D01*
X161682Y246036D01*
X161651Y246102D01*
X161623Y246170D01*
X161599Y246239D01*
X161579Y246309D01*
X161562Y246380D01*
X161549Y246451D01*
X161540Y246523D01*
X161534Y246596D01*
X161532Y246669D01*
X161534Y246742D01*
X161540Y246815D01*
X161549Y246887D01*
X161562Y246958D01*
X161579Y247029D01*
X161599Y247099D01*
X161623Y247168D01*
X161651Y247236D01*
X161682Y247302D01*
X161716Y247366D01*
X161754Y247428D01*
X161795Y247489D01*
X161839Y247547D01*
X161885Y247603D01*
X161935Y247656D01*
X161987Y247707D01*
X162042Y247755D01*
X162099Y247800D01*
X162159Y247842D01*
X162221Y247881D01*
X162284Y247916D01*
X162350Y247948D01*
X162416Y247977D01*
X162485Y248003D01*
X162484Y248002D02*
X162613Y248063D01*
X162743Y248121D01*
X162875Y248175D01*
X163008Y248226D01*
X163142Y248273D01*
X163278Y248318D01*
X163414Y248358D01*
X163552Y248395D01*
X163690Y248429D01*
X163829Y248460D01*
X163969Y248486D01*
X164110Y248510D01*
X164251Y248529D01*
X164392Y248545D01*
X164534Y248558D01*
X164676Y248567D01*
X164819Y248572D01*
X164961Y248574D01*
X164961Y244763D02*
X165103Y244765D01*
X165246Y244770D01*
X165388Y244779D01*
X165530Y244792D01*
X165671Y244808D01*
X165812Y244827D01*
X165953Y244851D01*
X166093Y244877D01*
X166232Y244908D01*
X166370Y244942D01*
X166508Y244979D01*
X166644Y245019D01*
X166780Y245064D01*
X166914Y245111D01*
X167047Y245162D01*
X167179Y245216D01*
X167309Y245274D01*
X167438Y245335D01*
X167437Y245335D02*
X167506Y245361D01*
X167572Y245390D01*
X167638Y245422D01*
X167701Y245457D01*
X167763Y245496D01*
X167823Y245538D01*
X167880Y245583D01*
X167935Y245631D01*
X167987Y245682D01*
X168037Y245735D01*
X168083Y245791D01*
X168127Y245849D01*
X168168Y245910D01*
X168206Y245972D01*
X168240Y246036D01*
X168271Y246102D01*
X168299Y246170D01*
X168323Y246239D01*
X168343Y246309D01*
X168360Y246380D01*
X168373Y246451D01*
X168382Y246523D01*
X168388Y246596D01*
X168390Y246669D01*
X167438Y248002D02*
X167309Y248063D01*
X167179Y248121D01*
X167047Y248175D01*
X166914Y248226D01*
X166780Y248273D01*
X166644Y248318D01*
X166508Y248358D01*
X166370Y248395D01*
X166232Y248429D01*
X166093Y248460D01*
X165953Y248486D01*
X165812Y248510D01*
X165671Y248529D01*
X165530Y248545D01*
X165388Y248558D01*
X165246Y248567D01*
X165103Y248572D01*
X164961Y248574D01*
X167437Y248003D02*
X167506Y247977D01*
X167572Y247948D01*
X167638Y247916D01*
X167701Y247881D01*
X167763Y247842D01*
X167823Y247800D01*
X167880Y247755D01*
X167935Y247707D01*
X167987Y247656D01*
X168037Y247603D01*
X168083Y247547D01*
X168127Y247489D01*
X168168Y247428D01*
X168206Y247366D01*
X168240Y247302D01*
X168271Y247236D01*
X168299Y247168D01*
X168323Y247099D01*
X168343Y247029D01*
X168360Y246958D01*
X168373Y246887D01*
X168382Y246815D01*
X168388Y246742D01*
X168390Y246669D01*
X166866Y245145D02*
X163056Y248193D01*
X175532Y239354D02*
X177056Y237449D01*
X175532Y239354D02*
X182390Y239354D01*
X182390Y237449D02*
X182390Y241259D01*
X179342Y246288D02*
X179342Y248574D01*
X179342Y246288D02*
X179340Y246211D01*
X179334Y246134D01*
X179324Y246057D01*
X179311Y245981D01*
X179293Y245906D01*
X179272Y245832D01*
X179247Y245759D01*
X179218Y245687D01*
X179186Y245617D01*
X179151Y245548D01*
X179111Y245482D01*
X179069Y245417D01*
X179023Y245355D01*
X178974Y245295D01*
X178923Y245238D01*
X178868Y245183D01*
X178811Y245132D01*
X178751Y245083D01*
X178689Y245037D01*
X178624Y244995D01*
X178558Y244955D01*
X178489Y244920D01*
X178419Y244888D01*
X178347Y244859D01*
X178274Y244834D01*
X178200Y244813D01*
X178125Y244795D01*
X178049Y244782D01*
X177972Y244772D01*
X177895Y244766D01*
X177818Y244764D01*
X177437Y244764D01*
X177352Y244766D01*
X177266Y244772D01*
X177181Y244781D01*
X177097Y244795D01*
X177013Y244812D01*
X176930Y244833D01*
X176848Y244857D01*
X176768Y244885D01*
X176688Y244917D01*
X176610Y244953D01*
X176534Y244991D01*
X176460Y245034D01*
X176388Y245079D01*
X176317Y245128D01*
X176249Y245180D01*
X176184Y245234D01*
X176121Y245292D01*
X176060Y245353D01*
X176002Y245416D01*
X175948Y245481D01*
X175896Y245549D01*
X175847Y245620D01*
X175802Y245692D01*
X175759Y245766D01*
X175721Y245842D01*
X175685Y245920D01*
X175653Y246000D01*
X175625Y246080D01*
X175601Y246162D01*
X175580Y246245D01*
X175563Y246329D01*
X175549Y246413D01*
X175540Y246498D01*
X175534Y246584D01*
X175532Y246669D01*
X175534Y246754D01*
X175540Y246840D01*
X175549Y246925D01*
X175563Y247009D01*
X175580Y247093D01*
X175601Y247176D01*
X175625Y247258D01*
X175653Y247338D01*
X175685Y247418D01*
X175721Y247496D01*
X175759Y247572D01*
X175802Y247646D01*
X175847Y247718D01*
X175896Y247789D01*
X175948Y247857D01*
X176002Y247922D01*
X176060Y247985D01*
X176121Y248046D01*
X176184Y248104D01*
X176249Y248158D01*
X176317Y248210D01*
X176388Y248259D01*
X176460Y248304D01*
X176534Y248347D01*
X176610Y248385D01*
X176688Y248421D01*
X176768Y248453D01*
X176848Y248481D01*
X176930Y248505D01*
X177013Y248526D01*
X177097Y248543D01*
X177181Y248557D01*
X177266Y248566D01*
X177352Y248572D01*
X177437Y248574D01*
X179342Y248574D01*
X179451Y248572D01*
X179559Y248566D01*
X179668Y248557D01*
X179776Y248543D01*
X179883Y248526D01*
X179990Y248504D01*
X180096Y248479D01*
X180201Y248451D01*
X180305Y248418D01*
X180407Y248382D01*
X180508Y248342D01*
X180608Y248299D01*
X180706Y248252D01*
X180803Y248201D01*
X180897Y248147D01*
X180990Y248090D01*
X181080Y248030D01*
X181169Y247966D01*
X181255Y247899D01*
X181338Y247830D01*
X181419Y247757D01*
X181497Y247681D01*
X181573Y247603D01*
X181646Y247522D01*
X181715Y247439D01*
X181782Y247353D01*
X181846Y247264D01*
X181906Y247174D01*
X181963Y247081D01*
X182017Y246987D01*
X182068Y246890D01*
X182115Y246792D01*
X182158Y246692D01*
X182198Y246591D01*
X182234Y246489D01*
X182267Y246385D01*
X182295Y246280D01*
X182320Y246174D01*
X182342Y246067D01*
X182359Y245960D01*
X182373Y245852D01*
X182382Y245743D01*
X182388Y245635D01*
X182390Y245526D01*
X187532Y239354D02*
X189056Y237449D01*
X187532Y239354D02*
X194390Y239354D01*
X194390Y237449D02*
X194390Y241259D01*
X192485Y244764D02*
X192400Y244766D01*
X192314Y244772D01*
X192229Y244781D01*
X192145Y244795D01*
X192061Y244812D01*
X191978Y244833D01*
X191896Y244857D01*
X191816Y244885D01*
X191736Y244917D01*
X191658Y244953D01*
X191582Y244991D01*
X191508Y245034D01*
X191436Y245079D01*
X191365Y245128D01*
X191297Y245180D01*
X191232Y245234D01*
X191169Y245292D01*
X191108Y245353D01*
X191050Y245416D01*
X190996Y245481D01*
X190944Y245549D01*
X190895Y245620D01*
X190850Y245692D01*
X190807Y245766D01*
X190769Y245842D01*
X190733Y245920D01*
X190701Y246000D01*
X190673Y246080D01*
X190649Y246162D01*
X190628Y246245D01*
X190611Y246329D01*
X190597Y246413D01*
X190588Y246498D01*
X190582Y246584D01*
X190580Y246669D01*
X190582Y246754D01*
X190588Y246840D01*
X190597Y246925D01*
X190611Y247009D01*
X190628Y247093D01*
X190649Y247176D01*
X190673Y247258D01*
X190701Y247338D01*
X190733Y247418D01*
X190769Y247496D01*
X190807Y247572D01*
X190850Y247646D01*
X190895Y247718D01*
X190944Y247789D01*
X190996Y247857D01*
X191050Y247922D01*
X191108Y247985D01*
X191169Y248046D01*
X191232Y248104D01*
X191297Y248158D01*
X191365Y248210D01*
X191436Y248259D01*
X191508Y248304D01*
X191582Y248347D01*
X191658Y248385D01*
X191736Y248421D01*
X191816Y248453D01*
X191896Y248481D01*
X191978Y248505D01*
X192061Y248526D01*
X192145Y248543D01*
X192229Y248557D01*
X192314Y248566D01*
X192400Y248572D01*
X192485Y248574D01*
X192570Y248572D01*
X192656Y248566D01*
X192741Y248557D01*
X192825Y248543D01*
X192909Y248526D01*
X192992Y248505D01*
X193074Y248481D01*
X193154Y248453D01*
X193234Y248421D01*
X193312Y248385D01*
X193388Y248347D01*
X193462Y248304D01*
X193534Y248259D01*
X193605Y248210D01*
X193673Y248158D01*
X193738Y248104D01*
X193801Y248046D01*
X193862Y247985D01*
X193920Y247922D01*
X193974Y247857D01*
X194026Y247789D01*
X194075Y247718D01*
X194120Y247646D01*
X194163Y247572D01*
X194201Y247496D01*
X194237Y247418D01*
X194269Y247338D01*
X194297Y247258D01*
X194321Y247176D01*
X194342Y247093D01*
X194359Y247009D01*
X194373Y246925D01*
X194382Y246840D01*
X194388Y246754D01*
X194390Y246669D01*
X194388Y246584D01*
X194382Y246498D01*
X194373Y246413D01*
X194359Y246329D01*
X194342Y246245D01*
X194321Y246162D01*
X194297Y246080D01*
X194269Y246000D01*
X194237Y245920D01*
X194201Y245842D01*
X194163Y245766D01*
X194120Y245692D01*
X194075Y245620D01*
X194026Y245549D01*
X193974Y245481D01*
X193920Y245416D01*
X193862Y245353D01*
X193801Y245292D01*
X193738Y245234D01*
X193673Y245180D01*
X193605Y245128D01*
X193534Y245079D01*
X193462Y245034D01*
X193388Y244991D01*
X193312Y244953D01*
X193234Y244917D01*
X193154Y244885D01*
X193074Y244857D01*
X192992Y244833D01*
X192909Y244812D01*
X192825Y244795D01*
X192741Y244781D01*
X192656Y244772D01*
X192570Y244766D01*
X192485Y244764D01*
X189056Y245145D02*
X188979Y245147D01*
X188902Y245153D01*
X188825Y245163D01*
X188749Y245176D01*
X188674Y245194D01*
X188600Y245215D01*
X188527Y245240D01*
X188455Y245269D01*
X188385Y245301D01*
X188316Y245336D01*
X188250Y245376D01*
X188185Y245418D01*
X188123Y245464D01*
X188063Y245513D01*
X188006Y245564D01*
X187951Y245619D01*
X187900Y245676D01*
X187851Y245736D01*
X187805Y245798D01*
X187763Y245863D01*
X187723Y245929D01*
X187688Y245998D01*
X187656Y246068D01*
X187627Y246140D01*
X187602Y246213D01*
X187581Y246287D01*
X187563Y246362D01*
X187550Y246438D01*
X187540Y246515D01*
X187534Y246592D01*
X187532Y246669D01*
X187534Y246746D01*
X187540Y246823D01*
X187550Y246900D01*
X187563Y246976D01*
X187581Y247051D01*
X187602Y247125D01*
X187627Y247198D01*
X187656Y247270D01*
X187688Y247340D01*
X187723Y247409D01*
X187763Y247475D01*
X187805Y247540D01*
X187851Y247602D01*
X187900Y247662D01*
X187951Y247719D01*
X188006Y247774D01*
X188063Y247825D01*
X188123Y247874D01*
X188185Y247920D01*
X188250Y247962D01*
X188316Y248002D01*
X188385Y248037D01*
X188455Y248069D01*
X188527Y248098D01*
X188600Y248123D01*
X188674Y248144D01*
X188749Y248162D01*
X188825Y248175D01*
X188902Y248185D01*
X188979Y248191D01*
X189056Y248193D01*
X189133Y248191D01*
X189210Y248185D01*
X189287Y248175D01*
X189363Y248162D01*
X189438Y248144D01*
X189512Y248123D01*
X189585Y248098D01*
X189657Y248069D01*
X189727Y248037D01*
X189796Y248002D01*
X189862Y247962D01*
X189927Y247920D01*
X189989Y247874D01*
X190049Y247825D01*
X190106Y247774D01*
X190161Y247719D01*
X190212Y247662D01*
X190261Y247602D01*
X190307Y247540D01*
X190349Y247475D01*
X190389Y247409D01*
X190424Y247340D01*
X190456Y247270D01*
X190485Y247198D01*
X190510Y247125D01*
X190531Y247051D01*
X190549Y246976D01*
X190562Y246900D01*
X190572Y246823D01*
X190578Y246746D01*
X190580Y246669D01*
X190578Y246592D01*
X190572Y246515D01*
X190562Y246438D01*
X190549Y246362D01*
X190531Y246287D01*
X190510Y246213D01*
X190485Y246140D01*
X190456Y246068D01*
X190424Y245998D01*
X190389Y245929D01*
X190349Y245863D01*
X190307Y245798D01*
X190261Y245736D01*
X190212Y245676D01*
X190161Y245619D01*
X190106Y245564D01*
X190049Y245513D01*
X189989Y245464D01*
X189927Y245418D01*
X189862Y245376D01*
X189796Y245336D01*
X189727Y245301D01*
X189657Y245269D01*
X189585Y245240D01*
X189512Y245215D01*
X189438Y245194D01*
X189363Y245176D01*
X189287Y245163D01*
X189210Y245153D01*
X189133Y245147D01*
X189056Y245145D01*
X200532Y239354D02*
X202056Y237449D01*
X200532Y239354D02*
X207390Y239354D01*
X207390Y237449D02*
X207390Y241259D01*
X201294Y244764D02*
X200532Y244764D01*
X200532Y248574D01*
X207390Y246669D01*
X212532Y239354D02*
X214056Y237449D01*
X212532Y239354D02*
X219390Y239354D01*
X219390Y237449D02*
X219390Y241259D01*
X215580Y244764D02*
X215580Y247050D01*
X215582Y247127D01*
X215588Y247204D01*
X215598Y247281D01*
X215611Y247357D01*
X215629Y247432D01*
X215650Y247506D01*
X215675Y247579D01*
X215704Y247651D01*
X215736Y247721D01*
X215771Y247790D01*
X215811Y247856D01*
X215853Y247921D01*
X215899Y247983D01*
X215948Y248043D01*
X215999Y248100D01*
X216054Y248155D01*
X216111Y248206D01*
X216171Y248255D01*
X216233Y248301D01*
X216298Y248343D01*
X216364Y248383D01*
X216433Y248418D01*
X216503Y248450D01*
X216575Y248479D01*
X216648Y248504D01*
X216722Y248525D01*
X216797Y248543D01*
X216873Y248556D01*
X216950Y248566D01*
X217027Y248572D01*
X217104Y248574D01*
X217485Y248574D01*
X217570Y248572D01*
X217656Y248566D01*
X217741Y248557D01*
X217825Y248543D01*
X217909Y248526D01*
X217992Y248505D01*
X218074Y248481D01*
X218154Y248453D01*
X218234Y248421D01*
X218312Y248385D01*
X218388Y248347D01*
X218462Y248304D01*
X218534Y248259D01*
X218605Y248210D01*
X218673Y248158D01*
X218738Y248104D01*
X218801Y248046D01*
X218862Y247985D01*
X218920Y247922D01*
X218974Y247857D01*
X219026Y247789D01*
X219075Y247718D01*
X219120Y247646D01*
X219163Y247572D01*
X219201Y247496D01*
X219237Y247418D01*
X219269Y247338D01*
X219297Y247258D01*
X219321Y247176D01*
X219342Y247093D01*
X219359Y247009D01*
X219373Y246925D01*
X219382Y246840D01*
X219388Y246754D01*
X219390Y246669D01*
X219388Y246584D01*
X219382Y246498D01*
X219373Y246413D01*
X219359Y246329D01*
X219342Y246245D01*
X219321Y246162D01*
X219297Y246080D01*
X219269Y246000D01*
X219237Y245920D01*
X219201Y245842D01*
X219163Y245766D01*
X219120Y245692D01*
X219075Y245620D01*
X219026Y245549D01*
X218974Y245481D01*
X218920Y245416D01*
X218862Y245353D01*
X218801Y245292D01*
X218738Y245234D01*
X218673Y245180D01*
X218605Y245128D01*
X218534Y245079D01*
X218462Y245034D01*
X218388Y244991D01*
X218312Y244953D01*
X218234Y244917D01*
X218154Y244885D01*
X218074Y244857D01*
X217992Y244833D01*
X217909Y244812D01*
X217825Y244795D01*
X217741Y244781D01*
X217656Y244772D01*
X217570Y244766D01*
X217485Y244764D01*
X215580Y244764D01*
X215471Y244766D01*
X215363Y244772D01*
X215254Y244781D01*
X215146Y244795D01*
X215039Y244812D01*
X214932Y244834D01*
X214826Y244859D01*
X214721Y244887D01*
X214617Y244920D01*
X214515Y244956D01*
X214414Y244996D01*
X214314Y245039D01*
X214216Y245086D01*
X214119Y245137D01*
X214025Y245191D01*
X213932Y245248D01*
X213842Y245308D01*
X213753Y245372D01*
X213667Y245439D01*
X213584Y245508D01*
X213503Y245581D01*
X213425Y245657D01*
X213349Y245735D01*
X213276Y245816D01*
X213207Y245899D01*
X213140Y245985D01*
X213076Y246074D01*
X213016Y246164D01*
X212959Y246257D01*
X212905Y246351D01*
X212854Y246448D01*
X212807Y246546D01*
X212764Y246646D01*
X212724Y246747D01*
X212688Y246849D01*
X212655Y246953D01*
X212627Y247058D01*
X212602Y247164D01*
X212580Y247271D01*
X212563Y247378D01*
X212549Y247486D01*
X212540Y247595D01*
X212534Y247703D01*
X212532Y247812D01*
X232390Y232354D02*
X232390Y230449D01*
X232390Y232354D02*
X232388Y232439D01*
X232382Y232525D01*
X232373Y232610D01*
X232359Y232694D01*
X232342Y232778D01*
X232321Y232861D01*
X232297Y232943D01*
X232269Y233023D01*
X232237Y233103D01*
X232201Y233181D01*
X232163Y233257D01*
X232120Y233331D01*
X232075Y233403D01*
X232026Y233474D01*
X231974Y233542D01*
X231920Y233607D01*
X231862Y233670D01*
X231801Y233731D01*
X231738Y233789D01*
X231673Y233843D01*
X231605Y233895D01*
X231534Y233944D01*
X231462Y233989D01*
X231388Y234032D01*
X231312Y234070D01*
X231234Y234106D01*
X231154Y234138D01*
X231074Y234166D01*
X230992Y234190D01*
X230909Y234211D01*
X230825Y234228D01*
X230741Y234242D01*
X230656Y234251D01*
X230570Y234257D01*
X230485Y234259D01*
X230400Y234257D01*
X230314Y234251D01*
X230229Y234242D01*
X230145Y234228D01*
X230061Y234211D01*
X229978Y234190D01*
X229896Y234166D01*
X229816Y234138D01*
X229736Y234106D01*
X229658Y234070D01*
X229582Y234032D01*
X229508Y233989D01*
X229436Y233944D01*
X229365Y233895D01*
X229297Y233843D01*
X229232Y233789D01*
X229169Y233731D01*
X229108Y233670D01*
X229050Y233607D01*
X228996Y233542D01*
X228944Y233474D01*
X228895Y233403D01*
X228850Y233331D01*
X228807Y233257D01*
X228769Y233181D01*
X228733Y233103D01*
X228701Y233023D01*
X228673Y232943D01*
X228649Y232861D01*
X228628Y232778D01*
X228611Y232694D01*
X228597Y232610D01*
X228588Y232525D01*
X228582Y232439D01*
X228580Y232354D01*
X225532Y232735D02*
X225532Y230449D01*
X225532Y232735D02*
X225534Y232812D01*
X225540Y232889D01*
X225550Y232966D01*
X225563Y233042D01*
X225581Y233117D01*
X225602Y233191D01*
X225627Y233264D01*
X225656Y233336D01*
X225688Y233406D01*
X225723Y233475D01*
X225763Y233541D01*
X225805Y233606D01*
X225851Y233668D01*
X225900Y233728D01*
X225951Y233785D01*
X226006Y233840D01*
X226063Y233891D01*
X226123Y233940D01*
X226185Y233986D01*
X226250Y234028D01*
X226316Y234068D01*
X226385Y234103D01*
X226455Y234135D01*
X226527Y234164D01*
X226600Y234189D01*
X226674Y234210D01*
X226749Y234228D01*
X226825Y234241D01*
X226902Y234251D01*
X226979Y234257D01*
X227056Y234259D01*
X227133Y234257D01*
X227210Y234251D01*
X227287Y234241D01*
X227363Y234228D01*
X227438Y234210D01*
X227512Y234189D01*
X227585Y234164D01*
X227657Y234135D01*
X227727Y234103D01*
X227796Y234068D01*
X227862Y234028D01*
X227927Y233986D01*
X227989Y233940D01*
X228049Y233891D01*
X228106Y233840D01*
X228161Y233785D01*
X228212Y233728D01*
X228261Y233668D01*
X228307Y233606D01*
X228349Y233541D01*
X228389Y233475D01*
X228424Y233406D01*
X228456Y233336D01*
X228485Y233264D01*
X228510Y233191D01*
X228531Y233117D01*
X228549Y233042D01*
X228562Y232966D01*
X228572Y232889D01*
X228578Y232812D01*
X228580Y232735D01*
X228580Y231211D01*
X225532Y237383D02*
X232390Y239669D01*
X225532Y241955D01*
X232390Y245079D02*
X232390Y246984D01*
X232388Y247069D01*
X232382Y247155D01*
X232373Y247240D01*
X232359Y247324D01*
X232342Y247408D01*
X232321Y247491D01*
X232297Y247573D01*
X232269Y247653D01*
X232237Y247733D01*
X232201Y247811D01*
X232163Y247887D01*
X232120Y247961D01*
X232075Y248033D01*
X232026Y248104D01*
X231974Y248172D01*
X231920Y248237D01*
X231862Y248300D01*
X231801Y248361D01*
X231738Y248419D01*
X231673Y248473D01*
X231605Y248525D01*
X231534Y248574D01*
X231462Y248619D01*
X231388Y248662D01*
X231312Y248700D01*
X231234Y248736D01*
X231154Y248768D01*
X231074Y248796D01*
X230992Y248820D01*
X230909Y248841D01*
X230825Y248858D01*
X230741Y248872D01*
X230656Y248881D01*
X230570Y248887D01*
X230485Y248889D01*
X230400Y248887D01*
X230314Y248881D01*
X230229Y248872D01*
X230145Y248858D01*
X230061Y248841D01*
X229978Y248820D01*
X229896Y248796D01*
X229816Y248768D01*
X229736Y248736D01*
X229658Y248700D01*
X229582Y248662D01*
X229508Y248619D01*
X229436Y248574D01*
X229365Y248525D01*
X229297Y248473D01*
X229232Y248419D01*
X229169Y248361D01*
X229108Y248300D01*
X229050Y248237D01*
X228996Y248172D01*
X228944Y248104D01*
X228895Y248033D01*
X228850Y247961D01*
X228807Y247887D01*
X228769Y247811D01*
X228733Y247733D01*
X228701Y247653D01*
X228673Y247573D01*
X228649Y247491D01*
X228628Y247408D01*
X228611Y247324D01*
X228597Y247240D01*
X228588Y247155D01*
X228582Y247069D01*
X228580Y246984D01*
X225532Y247365D02*
X225532Y245079D01*
X225532Y247365D02*
X225534Y247442D01*
X225540Y247519D01*
X225550Y247596D01*
X225563Y247672D01*
X225581Y247747D01*
X225602Y247821D01*
X225627Y247894D01*
X225656Y247966D01*
X225688Y248036D01*
X225723Y248105D01*
X225763Y248171D01*
X225805Y248236D01*
X225851Y248298D01*
X225900Y248358D01*
X225951Y248415D01*
X226006Y248470D01*
X226063Y248521D01*
X226123Y248570D01*
X226185Y248616D01*
X226250Y248658D01*
X226316Y248698D01*
X226385Y248733D01*
X226455Y248765D01*
X226527Y248794D01*
X226600Y248819D01*
X226674Y248840D01*
X226749Y248858D01*
X226825Y248871D01*
X226902Y248881D01*
X226979Y248887D01*
X227056Y248889D01*
X227133Y248887D01*
X227210Y248881D01*
X227287Y248871D01*
X227363Y248858D01*
X227438Y248840D01*
X227512Y248819D01*
X227585Y248794D01*
X227657Y248765D01*
X227727Y248733D01*
X227796Y248698D01*
X227862Y248658D01*
X227927Y248616D01*
X227989Y248570D01*
X228049Y248521D01*
X228106Y248470D01*
X228161Y248415D01*
X228212Y248358D01*
X228261Y248298D01*
X228307Y248236D01*
X228349Y248171D01*
X228389Y248105D01*
X228424Y248036D01*
X228456Y247966D01*
X228485Y247894D01*
X228510Y247821D01*
X228531Y247747D01*
X228549Y247672D01*
X228562Y247596D01*
X228572Y247519D01*
X228578Y247442D01*
X228580Y247365D01*
X228580Y245841D01*
X241580Y233259D02*
X241580Y232116D01*
X241580Y233259D02*
X245390Y233259D01*
X245390Y230973D01*
X245388Y230896D01*
X245382Y230819D01*
X245372Y230742D01*
X245359Y230666D01*
X245341Y230591D01*
X245320Y230517D01*
X245295Y230444D01*
X245266Y230372D01*
X245234Y230302D01*
X245199Y230233D01*
X245159Y230167D01*
X245117Y230102D01*
X245071Y230040D01*
X245022Y229980D01*
X244971Y229923D01*
X244916Y229868D01*
X244859Y229817D01*
X244799Y229768D01*
X244737Y229722D01*
X244672Y229680D01*
X244606Y229640D01*
X244537Y229605D01*
X244467Y229573D01*
X244395Y229544D01*
X244322Y229519D01*
X244248Y229498D01*
X244173Y229480D01*
X244097Y229467D01*
X244020Y229457D01*
X243943Y229451D01*
X243866Y229449D01*
X240056Y229449D01*
X239979Y229451D01*
X239902Y229457D01*
X239825Y229467D01*
X239749Y229480D01*
X239674Y229498D01*
X239600Y229519D01*
X239527Y229544D01*
X239455Y229573D01*
X239385Y229605D01*
X239316Y229640D01*
X239250Y229680D01*
X239185Y229722D01*
X239123Y229768D01*
X239063Y229817D01*
X239006Y229868D01*
X238951Y229923D01*
X238900Y229980D01*
X238851Y230040D01*
X238805Y230102D01*
X238763Y230167D01*
X238723Y230233D01*
X238688Y230302D01*
X238656Y230372D01*
X238627Y230444D01*
X238602Y230517D01*
X238581Y230591D01*
X238563Y230666D01*
X238550Y230742D01*
X238540Y230819D01*
X238534Y230896D01*
X238532Y230973D01*
X238532Y233259D01*
X238532Y237251D02*
X245390Y237251D01*
X245390Y241061D02*
X238532Y237251D01*
X238532Y241061D02*
X245390Y241061D01*
X245390Y245054D02*
X238532Y245054D01*
X238532Y246959D01*
X238534Y247044D01*
X238540Y247130D01*
X238549Y247215D01*
X238563Y247299D01*
X238580Y247383D01*
X238601Y247466D01*
X238625Y247548D01*
X238653Y247628D01*
X238685Y247708D01*
X238721Y247786D01*
X238759Y247862D01*
X238802Y247936D01*
X238847Y248008D01*
X238896Y248079D01*
X238948Y248147D01*
X239002Y248212D01*
X239060Y248275D01*
X239121Y248336D01*
X239184Y248394D01*
X239249Y248448D01*
X239317Y248500D01*
X239388Y248549D01*
X239460Y248594D01*
X239534Y248637D01*
X239610Y248675D01*
X239688Y248711D01*
X239768Y248743D01*
X239848Y248771D01*
X239930Y248795D01*
X240013Y248816D01*
X240097Y248833D01*
X240181Y248847D01*
X240266Y248856D01*
X240352Y248862D01*
X240437Y248864D01*
X243485Y248864D01*
X243570Y248862D01*
X243656Y248856D01*
X243741Y248847D01*
X243825Y248833D01*
X243909Y248816D01*
X243992Y248795D01*
X244074Y248771D01*
X244154Y248743D01*
X244234Y248711D01*
X244312Y248675D01*
X244388Y248637D01*
X244462Y248594D01*
X244534Y248549D01*
X244605Y248500D01*
X244673Y248448D01*
X244738Y248394D01*
X244801Y248336D01*
X244862Y248275D01*
X244920Y248212D01*
X244974Y248147D01*
X245026Y248079D01*
X245075Y248008D01*
X245120Y247936D01*
X245163Y247862D01*
X245201Y247786D01*
X245237Y247708D01*
X245269Y247628D01*
X245297Y247548D01*
X245321Y247466D01*
X245342Y247383D01*
X245359Y247299D01*
X245373Y247215D01*
X245382Y247130D01*
X245388Y247044D01*
X245390Y246959D01*
X245390Y245054D01*
D14*
X17374Y45465D02*
X16570Y45465D01*
X16570Y46269D01*
X17374Y46269D01*
X17374Y45465D01*
D13*
X411660Y219449D02*
X411660Y226307D01*
X413565Y226307D01*
X413650Y226305D01*
X413736Y226299D01*
X413821Y226290D01*
X413905Y226276D01*
X413989Y226259D01*
X414072Y226238D01*
X414154Y226214D01*
X414234Y226186D01*
X414314Y226154D01*
X414392Y226118D01*
X414468Y226080D01*
X414542Y226037D01*
X414614Y225992D01*
X414685Y225943D01*
X414753Y225891D01*
X414818Y225837D01*
X414881Y225779D01*
X414942Y225718D01*
X415000Y225655D01*
X415054Y225590D01*
X415106Y225522D01*
X415155Y225451D01*
X415200Y225379D01*
X415243Y225305D01*
X415281Y225229D01*
X415317Y225151D01*
X415349Y225071D01*
X415377Y224991D01*
X415401Y224909D01*
X415422Y224826D01*
X415439Y224742D01*
X415453Y224658D01*
X415462Y224573D01*
X415468Y224487D01*
X415470Y224402D01*
X415468Y224317D01*
X415462Y224231D01*
X415453Y224146D01*
X415439Y224062D01*
X415422Y223978D01*
X415401Y223895D01*
X415377Y223813D01*
X415349Y223733D01*
X415317Y223653D01*
X415281Y223575D01*
X415243Y223499D01*
X415200Y223425D01*
X415155Y223353D01*
X415106Y223282D01*
X415054Y223214D01*
X415000Y223149D01*
X414942Y223086D01*
X414881Y223025D01*
X414818Y222967D01*
X414753Y222913D01*
X414685Y222861D01*
X414614Y222812D01*
X414542Y222767D01*
X414468Y222724D01*
X414392Y222686D01*
X414314Y222650D01*
X414234Y222618D01*
X414154Y222590D01*
X414072Y222566D01*
X413989Y222545D01*
X413905Y222528D01*
X413821Y222514D01*
X413736Y222505D01*
X413650Y222499D01*
X413565Y222497D01*
X411660Y222497D01*
X413946Y222497D02*
X415470Y219449D01*
X419171Y219449D02*
X422219Y219449D01*
X419171Y219449D02*
X419171Y226307D01*
X422219Y226307D01*
X421457Y223259D02*
X419171Y223259D01*
X427288Y219449D02*
X427365Y219451D01*
X427442Y219457D01*
X427519Y219467D01*
X427595Y219480D01*
X427670Y219498D01*
X427744Y219519D01*
X427817Y219544D01*
X427889Y219573D01*
X427959Y219605D01*
X428028Y219640D01*
X428094Y219680D01*
X428159Y219722D01*
X428221Y219768D01*
X428281Y219817D01*
X428338Y219868D01*
X428393Y219923D01*
X428444Y219980D01*
X428493Y220040D01*
X428539Y220102D01*
X428581Y220167D01*
X428621Y220233D01*
X428656Y220302D01*
X428688Y220372D01*
X428717Y220444D01*
X428742Y220517D01*
X428763Y220591D01*
X428781Y220666D01*
X428794Y220742D01*
X428804Y220819D01*
X428810Y220896D01*
X428812Y220973D01*
X427288Y219449D02*
X427178Y219451D01*
X427067Y219457D01*
X426957Y219466D01*
X426847Y219479D01*
X426738Y219496D01*
X426630Y219517D01*
X426522Y219541D01*
X426415Y219570D01*
X426309Y219601D01*
X426205Y219637D01*
X426101Y219676D01*
X425999Y219718D01*
X425899Y219764D01*
X425800Y219814D01*
X425703Y219866D01*
X425607Y219923D01*
X425514Y219982D01*
X425423Y220044D01*
X425334Y220110D01*
X425247Y220178D01*
X425163Y220250D01*
X425081Y220324D01*
X425002Y220401D01*
X425192Y224783D02*
X425194Y224860D01*
X425200Y224937D01*
X425210Y225014D01*
X425223Y225090D01*
X425241Y225165D01*
X425262Y225239D01*
X425287Y225312D01*
X425316Y225384D01*
X425348Y225454D01*
X425383Y225523D01*
X425423Y225589D01*
X425465Y225654D01*
X425511Y225716D01*
X425560Y225776D01*
X425611Y225833D01*
X425666Y225888D01*
X425723Y225939D01*
X425783Y225988D01*
X425845Y226034D01*
X425910Y226076D01*
X425976Y226116D01*
X426045Y226151D01*
X426115Y226183D01*
X426187Y226212D01*
X426260Y226237D01*
X426334Y226258D01*
X426409Y226276D01*
X426485Y226289D01*
X426562Y226299D01*
X426639Y226305D01*
X426716Y226307D01*
X426818Y226305D01*
X426920Y226300D01*
X427022Y226291D01*
X427123Y226278D01*
X427224Y226261D01*
X427324Y226242D01*
X427424Y226218D01*
X427522Y226191D01*
X427620Y226160D01*
X427716Y226126D01*
X427811Y226089D01*
X427905Y226048D01*
X427997Y226004D01*
X428087Y225956D01*
X428176Y225906D01*
X428263Y225852D01*
X428348Y225795D01*
X428431Y225735D01*
X425954Y223449D02*
X425889Y223490D01*
X425826Y223533D01*
X425766Y223580D01*
X425707Y223630D01*
X425652Y223682D01*
X425599Y223737D01*
X425548Y223795D01*
X425501Y223855D01*
X425457Y223918D01*
X425415Y223982D01*
X425377Y224048D01*
X425343Y224117D01*
X425312Y224187D01*
X425284Y224258D01*
X425260Y224330D01*
X425239Y224404D01*
X425222Y224479D01*
X425209Y224554D01*
X425200Y224630D01*
X425194Y224706D01*
X425192Y224783D01*
X428050Y222307D02*
X428115Y222266D01*
X428178Y222223D01*
X428238Y222176D01*
X428297Y222126D01*
X428352Y222074D01*
X428405Y222019D01*
X428456Y221961D01*
X428503Y221901D01*
X428547Y221838D01*
X428589Y221774D01*
X428627Y221708D01*
X428661Y221639D01*
X428692Y221569D01*
X428720Y221498D01*
X428744Y221426D01*
X428765Y221352D01*
X428782Y221277D01*
X428795Y221202D01*
X428804Y221126D01*
X428810Y221050D01*
X428812Y220973D01*
X428050Y222306D02*
X425954Y223449D01*
X432338Y219449D02*
X435386Y219449D01*
X432338Y219449D02*
X432338Y226307D01*
X435386Y226307D01*
X434624Y223259D02*
X432338Y223259D01*
X439830Y226307D02*
X439830Y219449D01*
X437925Y226307D02*
X441735Y226307D01*
X276390Y241973D02*
X276390Y243497D01*
X276390Y241973D02*
X276388Y241896D01*
X276382Y241819D01*
X276372Y241742D01*
X276359Y241666D01*
X276341Y241591D01*
X276320Y241517D01*
X276295Y241444D01*
X276266Y241372D01*
X276234Y241302D01*
X276199Y241233D01*
X276159Y241167D01*
X276117Y241102D01*
X276071Y241040D01*
X276022Y240980D01*
X275971Y240923D01*
X275916Y240868D01*
X275859Y240817D01*
X275799Y240768D01*
X275737Y240722D01*
X275672Y240680D01*
X275606Y240640D01*
X275537Y240605D01*
X275467Y240573D01*
X275395Y240544D01*
X275322Y240519D01*
X275248Y240498D01*
X275173Y240480D01*
X275097Y240467D01*
X275020Y240457D01*
X274943Y240451D01*
X274866Y240449D01*
X271056Y240449D01*
X270979Y240451D01*
X270902Y240457D01*
X270825Y240467D01*
X270749Y240480D01*
X270674Y240498D01*
X270600Y240519D01*
X270527Y240544D01*
X270455Y240573D01*
X270385Y240605D01*
X270316Y240640D01*
X270250Y240680D01*
X270185Y240722D01*
X270123Y240768D01*
X270063Y240817D01*
X270006Y240868D01*
X269951Y240923D01*
X269900Y240980D01*
X269851Y241040D01*
X269805Y241102D01*
X269763Y241167D01*
X269723Y241233D01*
X269688Y241302D01*
X269656Y241372D01*
X269627Y241444D01*
X269602Y241517D01*
X269581Y241591D01*
X269563Y241666D01*
X269550Y241742D01*
X269540Y241819D01*
X269534Y241896D01*
X269532Y241973D01*
X269532Y243497D01*
X271056Y246576D02*
X269532Y248481D01*
X276390Y248481D01*
X276390Y246576D02*
X276390Y250386D01*
X491946Y219449D02*
X492023Y219451D01*
X492100Y219457D01*
X492177Y219467D01*
X492253Y219480D01*
X492328Y219498D01*
X492402Y219519D01*
X492475Y219544D01*
X492547Y219573D01*
X492617Y219605D01*
X492686Y219640D01*
X492752Y219680D01*
X492817Y219722D01*
X492879Y219768D01*
X492939Y219817D01*
X492996Y219868D01*
X493051Y219923D01*
X493102Y219980D01*
X493151Y220040D01*
X493197Y220102D01*
X493239Y220167D01*
X493279Y220233D01*
X493314Y220302D01*
X493346Y220372D01*
X493375Y220444D01*
X493400Y220517D01*
X493421Y220591D01*
X493439Y220666D01*
X493452Y220742D01*
X493462Y220819D01*
X493468Y220896D01*
X493470Y220973D01*
X491946Y219449D02*
X491836Y219451D01*
X491725Y219457D01*
X491615Y219466D01*
X491505Y219479D01*
X491396Y219496D01*
X491288Y219517D01*
X491180Y219541D01*
X491073Y219570D01*
X490967Y219601D01*
X490863Y219637D01*
X490759Y219676D01*
X490657Y219718D01*
X490557Y219764D01*
X490458Y219814D01*
X490361Y219866D01*
X490265Y219923D01*
X490172Y219982D01*
X490081Y220044D01*
X489992Y220110D01*
X489905Y220178D01*
X489821Y220250D01*
X489739Y220324D01*
X489660Y220401D01*
X489851Y224783D02*
X489853Y224860D01*
X489859Y224937D01*
X489869Y225014D01*
X489882Y225090D01*
X489900Y225165D01*
X489921Y225239D01*
X489946Y225312D01*
X489975Y225384D01*
X490007Y225454D01*
X490042Y225523D01*
X490082Y225589D01*
X490124Y225654D01*
X490170Y225716D01*
X490219Y225776D01*
X490270Y225833D01*
X490325Y225888D01*
X490382Y225939D01*
X490442Y225988D01*
X490504Y226034D01*
X490569Y226076D01*
X490635Y226116D01*
X490704Y226151D01*
X490774Y226183D01*
X490846Y226212D01*
X490919Y226237D01*
X490993Y226258D01*
X491068Y226276D01*
X491144Y226289D01*
X491221Y226299D01*
X491298Y226305D01*
X491375Y226307D01*
X491477Y226305D01*
X491579Y226300D01*
X491681Y226291D01*
X491782Y226278D01*
X491883Y226261D01*
X491983Y226242D01*
X492083Y226218D01*
X492181Y226191D01*
X492279Y226160D01*
X492375Y226126D01*
X492470Y226089D01*
X492564Y226048D01*
X492656Y226004D01*
X492746Y225956D01*
X492835Y225906D01*
X492922Y225852D01*
X493007Y225795D01*
X493090Y225735D01*
X490612Y223449D02*
X490547Y223490D01*
X490484Y223533D01*
X490424Y223580D01*
X490365Y223630D01*
X490310Y223682D01*
X490257Y223737D01*
X490206Y223795D01*
X490159Y223855D01*
X490115Y223918D01*
X490073Y223982D01*
X490035Y224048D01*
X490001Y224117D01*
X489970Y224187D01*
X489942Y224258D01*
X489918Y224330D01*
X489897Y224404D01*
X489880Y224479D01*
X489867Y224554D01*
X489858Y224630D01*
X489852Y224706D01*
X489850Y224783D01*
X492708Y222307D02*
X492773Y222266D01*
X492836Y222223D01*
X492896Y222176D01*
X492955Y222126D01*
X493010Y222074D01*
X493063Y222019D01*
X493114Y221961D01*
X493161Y221901D01*
X493205Y221838D01*
X493247Y221774D01*
X493285Y221708D01*
X493319Y221639D01*
X493350Y221569D01*
X493378Y221498D01*
X493402Y221426D01*
X493423Y221352D01*
X493440Y221277D01*
X493453Y221202D01*
X493462Y221126D01*
X493468Y221050D01*
X493470Y220973D01*
X492708Y222306D02*
X490613Y223449D01*
X497135Y223259D02*
X499040Y223259D01*
X499125Y223257D01*
X499211Y223251D01*
X499296Y223242D01*
X499380Y223228D01*
X499464Y223211D01*
X499547Y223190D01*
X499629Y223166D01*
X499709Y223138D01*
X499789Y223106D01*
X499867Y223070D01*
X499943Y223032D01*
X500017Y222989D01*
X500089Y222944D01*
X500160Y222895D01*
X500228Y222843D01*
X500293Y222789D01*
X500356Y222731D01*
X500417Y222670D01*
X500475Y222607D01*
X500529Y222542D01*
X500581Y222474D01*
X500630Y222403D01*
X500675Y222331D01*
X500718Y222257D01*
X500756Y222181D01*
X500792Y222103D01*
X500824Y222023D01*
X500852Y221943D01*
X500876Y221861D01*
X500897Y221778D01*
X500914Y221694D01*
X500928Y221610D01*
X500937Y221525D01*
X500943Y221439D01*
X500945Y221354D01*
X500943Y221269D01*
X500937Y221183D01*
X500928Y221098D01*
X500914Y221014D01*
X500897Y220930D01*
X500876Y220847D01*
X500852Y220765D01*
X500824Y220685D01*
X500792Y220605D01*
X500756Y220527D01*
X500718Y220451D01*
X500675Y220377D01*
X500630Y220305D01*
X500581Y220234D01*
X500529Y220166D01*
X500475Y220101D01*
X500417Y220038D01*
X500356Y219977D01*
X500293Y219919D01*
X500228Y219865D01*
X500160Y219813D01*
X500089Y219764D01*
X500017Y219719D01*
X499943Y219676D01*
X499867Y219638D01*
X499789Y219602D01*
X499709Y219570D01*
X499629Y219542D01*
X499547Y219518D01*
X499464Y219497D01*
X499380Y219480D01*
X499296Y219466D01*
X499211Y219457D01*
X499125Y219451D01*
X499040Y219449D01*
X497135Y219449D01*
X497135Y226307D01*
X499040Y226307D01*
X499117Y226305D01*
X499194Y226299D01*
X499271Y226289D01*
X499347Y226276D01*
X499422Y226258D01*
X499496Y226237D01*
X499569Y226212D01*
X499641Y226183D01*
X499711Y226151D01*
X499780Y226116D01*
X499846Y226076D01*
X499911Y226034D01*
X499973Y225988D01*
X500033Y225939D01*
X500090Y225888D01*
X500145Y225833D01*
X500196Y225776D01*
X500245Y225716D01*
X500291Y225654D01*
X500333Y225589D01*
X500373Y225523D01*
X500408Y225454D01*
X500440Y225384D01*
X500469Y225312D01*
X500494Y225239D01*
X500515Y225165D01*
X500533Y225090D01*
X500546Y225014D01*
X500556Y224937D01*
X500562Y224860D01*
X500564Y224783D01*
X500562Y224706D01*
X500556Y224629D01*
X500546Y224552D01*
X500533Y224476D01*
X500515Y224401D01*
X500494Y224327D01*
X500469Y224254D01*
X500440Y224182D01*
X500408Y224112D01*
X500373Y224043D01*
X500333Y223977D01*
X500291Y223912D01*
X500245Y223850D01*
X500196Y223790D01*
X500145Y223733D01*
X500090Y223678D01*
X500033Y223627D01*
X499973Y223578D01*
X499911Y223532D01*
X499846Y223490D01*
X499780Y223450D01*
X499711Y223415D01*
X499641Y223383D01*
X499569Y223354D01*
X499496Y223329D01*
X499422Y223308D01*
X499347Y223290D01*
X499271Y223277D01*
X499194Y223267D01*
X499117Y223261D01*
X499040Y223259D01*
X504312Y226307D02*
X504312Y219449D01*
X507360Y219449D01*
D15*
X72168Y85121D02*
X72168Y74707D01*
X72168Y85121D02*
X75061Y85121D01*
X75168Y85119D01*
X75275Y85113D01*
X75381Y85103D01*
X75487Y85089D01*
X75593Y85072D01*
X75697Y85050D01*
X75801Y85025D01*
X75904Y84995D01*
X76006Y84962D01*
X76106Y84926D01*
X76205Y84885D01*
X76302Y84841D01*
X76398Y84793D01*
X76492Y84742D01*
X76584Y84688D01*
X76674Y84630D01*
X76761Y84568D01*
X76847Y84504D01*
X76930Y84437D01*
X77010Y84366D01*
X77088Y84292D01*
X77163Y84216D01*
X77235Y84137D01*
X77304Y84056D01*
X77370Y83971D01*
X77433Y83885D01*
X77492Y83796D01*
X77548Y83705D01*
X77601Y83612D01*
X77651Y83518D01*
X77697Y83421D01*
X77739Y83323D01*
X77777Y83223D01*
X77812Y83122D01*
X77844Y83020D01*
X77871Y82916D01*
X77894Y82812D01*
X77914Y82707D01*
X77930Y82601D01*
X77942Y82495D01*
X77950Y82388D01*
X77954Y82281D01*
X77954Y82175D01*
X77950Y82068D01*
X77942Y81961D01*
X77930Y81855D01*
X77914Y81749D01*
X77894Y81644D01*
X77871Y81540D01*
X77844Y81436D01*
X77812Y81334D01*
X77777Y81233D01*
X77739Y81133D01*
X77697Y81035D01*
X77651Y80938D01*
X77601Y80844D01*
X77548Y80751D01*
X77492Y80660D01*
X77433Y80571D01*
X77370Y80485D01*
X77304Y80400D01*
X77235Y80319D01*
X77163Y80240D01*
X77088Y80164D01*
X77010Y80090D01*
X76930Y80019D01*
X76847Y79952D01*
X76761Y79888D01*
X76674Y79826D01*
X76584Y79768D01*
X76492Y79714D01*
X76398Y79663D01*
X76302Y79615D01*
X76205Y79571D01*
X76106Y79530D01*
X76006Y79494D01*
X75904Y79461D01*
X75801Y79431D01*
X75697Y79406D01*
X75593Y79384D01*
X75487Y79367D01*
X75381Y79353D01*
X75275Y79343D01*
X75168Y79337D01*
X75061Y79335D01*
X72168Y79335D01*
X75639Y79335D02*
X77954Y74707D01*
X83896Y74707D02*
X83896Y85121D01*
X88525Y85121D01*
X88525Y80492D02*
X83896Y80492D01*
X93568Y78756D02*
X100511Y78756D01*
X106995Y80492D02*
X109887Y80492D01*
X109994Y80490D01*
X110101Y80484D01*
X110207Y80474D01*
X110313Y80460D01*
X110419Y80443D01*
X110523Y80421D01*
X110627Y80396D01*
X110730Y80366D01*
X110832Y80333D01*
X110932Y80297D01*
X111031Y80256D01*
X111128Y80212D01*
X111224Y80164D01*
X111318Y80113D01*
X111410Y80059D01*
X111500Y80001D01*
X111587Y79939D01*
X111673Y79875D01*
X111756Y79808D01*
X111836Y79737D01*
X111914Y79663D01*
X111989Y79587D01*
X112061Y79508D01*
X112130Y79427D01*
X112196Y79342D01*
X112259Y79256D01*
X112318Y79167D01*
X112374Y79076D01*
X112427Y78983D01*
X112477Y78889D01*
X112523Y78792D01*
X112565Y78694D01*
X112603Y78594D01*
X112638Y78493D01*
X112670Y78391D01*
X112697Y78287D01*
X112720Y78183D01*
X112740Y78078D01*
X112756Y77972D01*
X112768Y77866D01*
X112776Y77759D01*
X112780Y77652D01*
X112780Y77546D01*
X112776Y77439D01*
X112768Y77332D01*
X112756Y77226D01*
X112740Y77120D01*
X112720Y77015D01*
X112697Y76911D01*
X112670Y76807D01*
X112638Y76705D01*
X112603Y76604D01*
X112565Y76504D01*
X112523Y76406D01*
X112477Y76309D01*
X112427Y76215D01*
X112374Y76122D01*
X112318Y76031D01*
X112259Y75942D01*
X112196Y75856D01*
X112130Y75771D01*
X112061Y75690D01*
X111989Y75611D01*
X111914Y75535D01*
X111836Y75461D01*
X111756Y75390D01*
X111673Y75323D01*
X111587Y75259D01*
X111500Y75197D01*
X111410Y75139D01*
X111318Y75085D01*
X111224Y75034D01*
X111128Y74986D01*
X111031Y74942D01*
X110932Y74901D01*
X110832Y74865D01*
X110730Y74832D01*
X110627Y74802D01*
X110523Y74777D01*
X110419Y74755D01*
X110313Y74738D01*
X110207Y74724D01*
X110101Y74714D01*
X109994Y74708D01*
X109887Y74706D01*
X109887Y74707D02*
X106995Y74707D01*
X106995Y85121D01*
X109887Y85121D01*
X109887Y85120D02*
X109981Y85118D01*
X110076Y85112D01*
X110170Y85103D01*
X110263Y85089D01*
X110356Y85072D01*
X110448Y85051D01*
X110539Y85026D01*
X110629Y84998D01*
X110718Y84966D01*
X110805Y84930D01*
X110891Y84891D01*
X110975Y84848D01*
X111058Y84802D01*
X111138Y84753D01*
X111216Y84700D01*
X111293Y84644D01*
X111366Y84585D01*
X111438Y84524D01*
X111506Y84459D01*
X111573Y84391D01*
X111636Y84321D01*
X111696Y84249D01*
X111754Y84174D01*
X111808Y84096D01*
X111859Y84017D01*
X111907Y83936D01*
X111951Y83852D01*
X111992Y83767D01*
X112029Y83681D01*
X112063Y83593D01*
X112094Y83503D01*
X112120Y83413D01*
X112143Y83321D01*
X112162Y83228D01*
X112177Y83135D01*
X112189Y83042D01*
X112197Y82948D01*
X112201Y82853D01*
X112201Y82759D01*
X112197Y82664D01*
X112189Y82570D01*
X112177Y82477D01*
X112162Y82384D01*
X112143Y82291D01*
X112120Y82199D01*
X112094Y82109D01*
X112063Y82019D01*
X112029Y81931D01*
X111992Y81845D01*
X111951Y81760D01*
X111907Y81676D01*
X111859Y81595D01*
X111808Y81516D01*
X111754Y81438D01*
X111696Y81363D01*
X111636Y81291D01*
X111573Y81221D01*
X111506Y81153D01*
X111438Y81088D01*
X111366Y81027D01*
X111293Y80968D01*
X111216Y80912D01*
X111138Y80859D01*
X111058Y80810D01*
X110975Y80764D01*
X110891Y80721D01*
X110805Y80682D01*
X110718Y80646D01*
X110629Y80614D01*
X110539Y80586D01*
X110448Y80561D01*
X110356Y80540D01*
X110263Y80523D01*
X110170Y80509D01*
X110076Y80500D01*
X109981Y80494D01*
X109887Y80492D01*
X118333Y85121D02*
X118333Y74707D01*
X121804Y79335D02*
X118333Y85121D01*
X121804Y79335D02*
X125275Y85121D01*
X125275Y74707D01*
X131668Y78756D02*
X138610Y78756D01*
X147620Y85121D02*
X147720Y85119D01*
X147819Y85113D01*
X147919Y85104D01*
X148017Y85090D01*
X148116Y85073D01*
X148213Y85053D01*
X148310Y85028D01*
X148406Y85000D01*
X148500Y84968D01*
X148593Y84932D01*
X148685Y84893D01*
X148775Y84851D01*
X148864Y84805D01*
X148951Y84755D01*
X149035Y84703D01*
X149118Y84647D01*
X149199Y84588D01*
X149277Y84526D01*
X149353Y84461D01*
X149426Y84393D01*
X149496Y84323D01*
X149564Y84250D01*
X149629Y84174D01*
X149691Y84096D01*
X149750Y84015D01*
X149806Y83932D01*
X149858Y83848D01*
X149908Y83761D01*
X149954Y83672D01*
X149996Y83582D01*
X150035Y83490D01*
X150071Y83397D01*
X150103Y83303D01*
X150131Y83207D01*
X150156Y83110D01*
X150176Y83013D01*
X150193Y82914D01*
X150207Y82816D01*
X150216Y82716D01*
X150222Y82617D01*
X150224Y82517D01*
X147620Y85121D02*
X147506Y85119D01*
X147393Y85113D01*
X147280Y85104D01*
X147167Y85090D01*
X147054Y85073D01*
X146943Y85052D01*
X146832Y85027D01*
X146722Y84998D01*
X146613Y84966D01*
X146505Y84930D01*
X146398Y84890D01*
X146293Y84847D01*
X146190Y84800D01*
X146088Y84749D01*
X145988Y84696D01*
X145889Y84638D01*
X145793Y84578D01*
X145699Y84514D01*
X145607Y84447D01*
X145517Y84377D01*
X145430Y84304D01*
X145345Y84229D01*
X145263Y84150D01*
X145184Y84068D01*
X145108Y83984D01*
X145034Y83898D01*
X144963Y83809D01*
X144896Y83717D01*
X144831Y83623D01*
X144770Y83528D01*
X144712Y83430D01*
X144658Y83330D01*
X144607Y83228D01*
X144559Y83125D01*
X144515Y83020D01*
X144475Y82914D01*
X144438Y82807D01*
X149356Y80492D02*
X149429Y80564D01*
X149500Y80639D01*
X149567Y80717D01*
X149632Y80797D01*
X149694Y80879D01*
X149753Y80963D01*
X149808Y81050D01*
X149861Y81139D01*
X149910Y81229D01*
X149956Y81321D01*
X149998Y81415D01*
X150037Y81511D01*
X150072Y81607D01*
X150104Y81705D01*
X150132Y81804D01*
X150156Y81904D01*
X150177Y82005D01*
X150194Y82107D01*
X150207Y82209D01*
X150216Y82311D01*
X150222Y82414D01*
X150224Y82517D01*
X149356Y80492D02*
X144438Y74707D01*
X150224Y74707D01*
X155868Y80492D02*
X159340Y80492D01*
X159433Y80490D01*
X159526Y80484D01*
X159619Y80475D01*
X159711Y80462D01*
X159803Y80445D01*
X159894Y80425D01*
X159984Y80401D01*
X160073Y80373D01*
X160161Y80342D01*
X160247Y80307D01*
X160332Y80269D01*
X160415Y80227D01*
X160497Y80182D01*
X160577Y80134D01*
X160655Y80082D01*
X160730Y80028D01*
X160803Y79970D01*
X160874Y79910D01*
X160943Y79847D01*
X161009Y79781D01*
X161072Y79712D01*
X161132Y79641D01*
X161190Y79568D01*
X161244Y79493D01*
X161296Y79415D01*
X161344Y79335D01*
X161389Y79253D01*
X161431Y79170D01*
X161469Y79085D01*
X161504Y78999D01*
X161535Y78911D01*
X161563Y78822D01*
X161587Y78732D01*
X161607Y78641D01*
X161624Y78549D01*
X161637Y78457D01*
X161646Y78364D01*
X161652Y78271D01*
X161654Y78178D01*
X161654Y77599D01*
X161652Y77492D01*
X161646Y77385D01*
X161636Y77279D01*
X161622Y77173D01*
X161605Y77067D01*
X161583Y76963D01*
X161558Y76859D01*
X161528Y76756D01*
X161495Y76654D01*
X161459Y76554D01*
X161418Y76455D01*
X161374Y76358D01*
X161326Y76262D01*
X161275Y76168D01*
X161221Y76076D01*
X161163Y75986D01*
X161101Y75899D01*
X161037Y75813D01*
X160970Y75730D01*
X160899Y75650D01*
X160825Y75572D01*
X160749Y75497D01*
X160670Y75425D01*
X160589Y75356D01*
X160504Y75290D01*
X160418Y75227D01*
X160329Y75168D01*
X160238Y75112D01*
X160145Y75059D01*
X160051Y75009D01*
X159954Y74963D01*
X159856Y74921D01*
X159756Y74883D01*
X159655Y74848D01*
X159553Y74816D01*
X159449Y74789D01*
X159345Y74766D01*
X159240Y74746D01*
X159134Y74730D01*
X159028Y74718D01*
X158921Y74710D01*
X158814Y74706D01*
X158708Y74706D01*
X158601Y74710D01*
X158494Y74718D01*
X158388Y74730D01*
X158282Y74746D01*
X158177Y74766D01*
X158073Y74789D01*
X157969Y74816D01*
X157867Y74848D01*
X157766Y74883D01*
X157666Y74921D01*
X157568Y74963D01*
X157471Y75009D01*
X157377Y75059D01*
X157284Y75112D01*
X157193Y75168D01*
X157104Y75227D01*
X157018Y75290D01*
X156933Y75356D01*
X156852Y75425D01*
X156773Y75497D01*
X156697Y75572D01*
X156623Y75650D01*
X156552Y75730D01*
X156485Y75813D01*
X156421Y75899D01*
X156359Y75986D01*
X156301Y76076D01*
X156247Y76168D01*
X156196Y76262D01*
X156148Y76358D01*
X156104Y76455D01*
X156063Y76554D01*
X156027Y76654D01*
X155994Y76756D01*
X155964Y76859D01*
X155939Y76963D01*
X155917Y77067D01*
X155900Y77173D01*
X155886Y77279D01*
X155876Y77385D01*
X155870Y77492D01*
X155868Y77599D01*
X155868Y80492D01*
X155869Y80492D02*
X155871Y80627D01*
X155877Y80761D01*
X155887Y80895D01*
X155900Y81029D01*
X155918Y81163D01*
X155939Y81296D01*
X155965Y81428D01*
X155994Y81559D01*
X156027Y81690D01*
X156063Y81819D01*
X156104Y81948D01*
X156148Y82075D01*
X156196Y82201D01*
X156247Y82325D01*
X156303Y82448D01*
X156361Y82569D01*
X156423Y82688D01*
X156489Y82806D01*
X156558Y82922D01*
X156630Y83035D01*
X156706Y83147D01*
X156785Y83256D01*
X156867Y83362D01*
X156952Y83467D01*
X157040Y83569D01*
X157131Y83668D01*
X157224Y83764D01*
X157321Y83858D01*
X157420Y83949D01*
X157522Y84037D01*
X157627Y84122D01*
X157733Y84204D01*
X157842Y84283D01*
X157954Y84359D01*
X158067Y84431D01*
X158183Y84500D01*
X158301Y84566D01*
X158420Y84628D01*
X158541Y84686D01*
X158664Y84741D01*
X158788Y84793D01*
X158914Y84841D01*
X159041Y84885D01*
X159170Y84926D01*
X159299Y84962D01*
X159430Y84995D01*
X159561Y85024D01*
X159693Y85050D01*
X159826Y85071D01*
X159960Y85089D01*
X160094Y85102D01*
X160228Y85112D01*
X160362Y85118D01*
X160497Y85120D01*
X167298Y74707D02*
X170770Y74707D01*
X170863Y74709D01*
X170956Y74715D01*
X171049Y74724D01*
X171141Y74737D01*
X171233Y74754D01*
X171324Y74774D01*
X171414Y74798D01*
X171503Y74826D01*
X171591Y74857D01*
X171677Y74892D01*
X171762Y74930D01*
X171845Y74972D01*
X171927Y75017D01*
X172007Y75065D01*
X172085Y75117D01*
X172160Y75171D01*
X172233Y75229D01*
X172304Y75289D01*
X172373Y75352D01*
X172439Y75418D01*
X172502Y75487D01*
X172562Y75558D01*
X172620Y75631D01*
X172674Y75707D01*
X172726Y75784D01*
X172774Y75864D01*
X172819Y75946D01*
X172861Y76029D01*
X172899Y76114D01*
X172934Y76200D01*
X172965Y76288D01*
X172993Y76377D01*
X173017Y76467D01*
X173037Y76558D01*
X173054Y76650D01*
X173067Y76742D01*
X173076Y76835D01*
X173082Y76928D01*
X173084Y77021D01*
X173084Y78178D01*
X173082Y78271D01*
X173076Y78364D01*
X173067Y78457D01*
X173054Y78549D01*
X173037Y78641D01*
X173017Y78732D01*
X172993Y78822D01*
X172965Y78911D01*
X172934Y78999D01*
X172899Y79085D01*
X172861Y79170D01*
X172819Y79253D01*
X172774Y79335D01*
X172726Y79415D01*
X172674Y79493D01*
X172620Y79568D01*
X172562Y79641D01*
X172502Y79712D01*
X172439Y79781D01*
X172373Y79847D01*
X172304Y79910D01*
X172233Y79970D01*
X172160Y80028D01*
X172085Y80082D01*
X172007Y80134D01*
X171927Y80182D01*
X171845Y80227D01*
X171762Y80269D01*
X171677Y80307D01*
X171591Y80342D01*
X171503Y80373D01*
X171414Y80401D01*
X171324Y80425D01*
X171233Y80445D01*
X171141Y80462D01*
X171049Y80475D01*
X170956Y80484D01*
X170863Y80490D01*
X170770Y80492D01*
X167298Y80492D01*
X167298Y85121D01*
X173084Y85121D01*
X181910Y85121D02*
X182010Y85119D01*
X182109Y85113D01*
X182209Y85104D01*
X182307Y85090D01*
X182406Y85073D01*
X182503Y85053D01*
X182600Y85028D01*
X182696Y85000D01*
X182790Y84968D01*
X182883Y84932D01*
X182975Y84893D01*
X183065Y84851D01*
X183154Y84805D01*
X183241Y84755D01*
X183325Y84703D01*
X183408Y84647D01*
X183489Y84588D01*
X183567Y84526D01*
X183643Y84461D01*
X183716Y84393D01*
X183786Y84323D01*
X183854Y84250D01*
X183919Y84174D01*
X183981Y84096D01*
X184040Y84015D01*
X184096Y83932D01*
X184148Y83848D01*
X184198Y83761D01*
X184244Y83672D01*
X184286Y83582D01*
X184325Y83490D01*
X184361Y83397D01*
X184393Y83303D01*
X184421Y83207D01*
X184446Y83110D01*
X184466Y83013D01*
X184483Y82914D01*
X184497Y82816D01*
X184506Y82716D01*
X184512Y82617D01*
X184514Y82517D01*
X181910Y85121D02*
X181796Y85119D01*
X181683Y85113D01*
X181570Y85104D01*
X181457Y85090D01*
X181344Y85073D01*
X181233Y85052D01*
X181122Y85027D01*
X181012Y84998D01*
X180903Y84966D01*
X180795Y84930D01*
X180688Y84890D01*
X180583Y84847D01*
X180480Y84800D01*
X180378Y84749D01*
X180278Y84696D01*
X180179Y84638D01*
X180083Y84578D01*
X179989Y84514D01*
X179897Y84447D01*
X179807Y84377D01*
X179720Y84304D01*
X179635Y84229D01*
X179553Y84150D01*
X179474Y84068D01*
X179398Y83984D01*
X179324Y83898D01*
X179253Y83809D01*
X179186Y83717D01*
X179121Y83623D01*
X179060Y83528D01*
X179002Y83430D01*
X178948Y83330D01*
X178897Y83228D01*
X178849Y83125D01*
X178805Y83020D01*
X178765Y82914D01*
X178728Y82807D01*
X183646Y80492D02*
X183719Y80564D01*
X183790Y80639D01*
X183857Y80717D01*
X183922Y80797D01*
X183984Y80879D01*
X184043Y80963D01*
X184098Y81050D01*
X184151Y81139D01*
X184200Y81229D01*
X184246Y81321D01*
X184288Y81415D01*
X184327Y81511D01*
X184362Y81607D01*
X184394Y81705D01*
X184422Y81804D01*
X184446Y81904D01*
X184467Y82005D01*
X184484Y82107D01*
X184497Y82209D01*
X184506Y82311D01*
X184512Y82414D01*
X184514Y82517D01*
X183646Y80492D02*
X178728Y74707D01*
X184514Y74707D01*
X190814Y74707D02*
X190814Y85121D01*
X193707Y85121D01*
X193814Y85119D01*
X193921Y85113D01*
X194027Y85103D01*
X194133Y85089D01*
X194239Y85072D01*
X194343Y85050D01*
X194447Y85025D01*
X194550Y84995D01*
X194652Y84962D01*
X194752Y84926D01*
X194851Y84885D01*
X194948Y84841D01*
X195044Y84793D01*
X195138Y84742D01*
X195230Y84688D01*
X195320Y84630D01*
X195407Y84568D01*
X195493Y84504D01*
X195576Y84437D01*
X195656Y84366D01*
X195734Y84292D01*
X195809Y84216D01*
X195881Y84137D01*
X195950Y84056D01*
X196016Y83971D01*
X196079Y83885D01*
X196138Y83796D01*
X196194Y83705D01*
X196247Y83612D01*
X196297Y83518D01*
X196343Y83421D01*
X196385Y83323D01*
X196423Y83223D01*
X196458Y83122D01*
X196490Y83020D01*
X196517Y82916D01*
X196540Y82812D01*
X196560Y82707D01*
X196576Y82601D01*
X196588Y82495D01*
X196596Y82388D01*
X196600Y82281D01*
X196600Y82175D01*
X196596Y82068D01*
X196588Y81961D01*
X196576Y81855D01*
X196560Y81749D01*
X196540Y81644D01*
X196517Y81540D01*
X196490Y81436D01*
X196458Y81334D01*
X196423Y81233D01*
X196385Y81133D01*
X196343Y81035D01*
X196297Y80938D01*
X196247Y80844D01*
X196194Y80751D01*
X196138Y80660D01*
X196079Y80571D01*
X196016Y80485D01*
X195950Y80400D01*
X195881Y80319D01*
X195809Y80240D01*
X195734Y80164D01*
X195656Y80090D01*
X195576Y80019D01*
X195493Y79952D01*
X195407Y79888D01*
X195320Y79826D01*
X195230Y79768D01*
X195138Y79714D01*
X195044Y79663D01*
X194948Y79615D01*
X194851Y79571D01*
X194752Y79530D01*
X194652Y79494D01*
X194550Y79461D01*
X194447Y79431D01*
X194343Y79406D01*
X194239Y79384D01*
X194133Y79367D01*
X194027Y79353D01*
X193921Y79343D01*
X193814Y79337D01*
X193707Y79335D01*
X190814Y79335D01*
X204770Y85121D02*
X204870Y85119D01*
X204969Y85113D01*
X205069Y85104D01*
X205167Y85090D01*
X205266Y85073D01*
X205363Y85053D01*
X205460Y85028D01*
X205556Y85000D01*
X205650Y84968D01*
X205743Y84932D01*
X205835Y84893D01*
X205925Y84851D01*
X206014Y84805D01*
X206101Y84755D01*
X206185Y84703D01*
X206268Y84647D01*
X206349Y84588D01*
X206427Y84526D01*
X206503Y84461D01*
X206576Y84393D01*
X206646Y84323D01*
X206714Y84250D01*
X206779Y84174D01*
X206841Y84096D01*
X206900Y84015D01*
X206956Y83932D01*
X207008Y83848D01*
X207058Y83761D01*
X207104Y83672D01*
X207146Y83582D01*
X207185Y83490D01*
X207221Y83397D01*
X207253Y83303D01*
X207281Y83207D01*
X207306Y83110D01*
X207326Y83013D01*
X207343Y82914D01*
X207357Y82816D01*
X207366Y82716D01*
X207372Y82617D01*
X207374Y82517D01*
X204770Y85121D02*
X204656Y85119D01*
X204543Y85113D01*
X204430Y85104D01*
X204317Y85090D01*
X204204Y85073D01*
X204093Y85052D01*
X203982Y85027D01*
X203872Y84998D01*
X203763Y84966D01*
X203655Y84930D01*
X203548Y84890D01*
X203443Y84847D01*
X203340Y84800D01*
X203238Y84749D01*
X203138Y84696D01*
X203039Y84638D01*
X202943Y84578D01*
X202849Y84514D01*
X202757Y84447D01*
X202667Y84377D01*
X202580Y84304D01*
X202495Y84229D01*
X202413Y84150D01*
X202334Y84068D01*
X202258Y83984D01*
X202184Y83898D01*
X202113Y83809D01*
X202046Y83717D01*
X201981Y83623D01*
X201920Y83528D01*
X201862Y83430D01*
X201808Y83330D01*
X201757Y83228D01*
X201709Y83125D01*
X201665Y83020D01*
X201625Y82914D01*
X201588Y82807D01*
X206506Y80492D02*
X206579Y80564D01*
X206650Y80639D01*
X206717Y80717D01*
X206782Y80797D01*
X206844Y80879D01*
X206903Y80963D01*
X206958Y81050D01*
X207011Y81139D01*
X207060Y81229D01*
X207106Y81321D01*
X207148Y81415D01*
X207187Y81511D01*
X207222Y81607D01*
X207254Y81705D01*
X207282Y81804D01*
X207306Y81904D01*
X207327Y82005D01*
X207344Y82107D01*
X207357Y82209D01*
X207366Y82311D01*
X207372Y82414D01*
X207374Y82517D01*
X206506Y80492D02*
X201588Y74707D01*
X207374Y74707D01*
X212454Y73549D02*
X217082Y86278D01*
X222818Y85121D02*
X222818Y74707D01*
X222818Y85121D02*
X225711Y85121D01*
X225818Y85119D01*
X225925Y85113D01*
X226031Y85103D01*
X226137Y85089D01*
X226243Y85072D01*
X226347Y85050D01*
X226451Y85025D01*
X226554Y84995D01*
X226656Y84962D01*
X226756Y84926D01*
X226855Y84885D01*
X226952Y84841D01*
X227048Y84793D01*
X227142Y84742D01*
X227234Y84688D01*
X227324Y84630D01*
X227411Y84568D01*
X227497Y84504D01*
X227580Y84437D01*
X227660Y84366D01*
X227738Y84292D01*
X227813Y84216D01*
X227885Y84137D01*
X227954Y84056D01*
X228020Y83971D01*
X228083Y83885D01*
X228142Y83796D01*
X228198Y83705D01*
X228251Y83612D01*
X228301Y83518D01*
X228347Y83421D01*
X228389Y83323D01*
X228427Y83223D01*
X228462Y83122D01*
X228494Y83020D01*
X228521Y82916D01*
X228544Y82812D01*
X228564Y82707D01*
X228580Y82601D01*
X228592Y82495D01*
X228600Y82388D01*
X228604Y82281D01*
X228604Y82175D01*
X228600Y82068D01*
X228592Y81961D01*
X228580Y81855D01*
X228564Y81749D01*
X228544Y81644D01*
X228521Y81540D01*
X228494Y81436D01*
X228462Y81334D01*
X228427Y81233D01*
X228389Y81133D01*
X228347Y81035D01*
X228301Y80938D01*
X228251Y80844D01*
X228198Y80751D01*
X228142Y80660D01*
X228083Y80571D01*
X228020Y80485D01*
X227954Y80400D01*
X227885Y80319D01*
X227813Y80240D01*
X227738Y80164D01*
X227660Y80090D01*
X227580Y80019D01*
X227497Y79952D01*
X227411Y79888D01*
X227324Y79826D01*
X227234Y79768D01*
X227142Y79714D01*
X227048Y79663D01*
X226952Y79615D01*
X226855Y79571D01*
X226756Y79530D01*
X226656Y79494D01*
X226554Y79461D01*
X226451Y79431D01*
X226347Y79406D01*
X226243Y79384D01*
X226137Y79367D01*
X226031Y79353D01*
X225925Y79343D01*
X225818Y79337D01*
X225711Y79335D01*
X222818Y79335D01*
X233592Y77021D02*
X235906Y85121D01*
X233592Y77021D02*
X239378Y77021D01*
X237642Y79335D02*
X237642Y74707D01*
D16*
X531000Y214444D02*
X531000Y225000D01*
X531000Y204444D02*
X531000Y193889D01*
X531000Y183889D02*
X531000Y173333D01*
X531000Y163333D02*
X531000Y152778D01*
X531000Y142778D02*
X531000Y132222D01*
X531000Y122222D02*
X531000Y111667D01*
X531000Y101667D02*
X531000Y91111D01*
X531000Y81111D02*
X531000Y70556D01*
X531000Y60556D02*
X531000Y50000D01*
X636000Y202250D02*
X636000Y213000D01*
X636000Y192250D02*
X636000Y181500D01*
X636000Y171500D02*
X636000Y160750D01*
X636000Y150750D02*
X636000Y140000D01*
X636000Y130000D02*
X636000Y119250D01*
X636000Y109250D02*
X636000Y98500D01*
X636000Y88500D02*
X636000Y77750D01*
X636000Y67750D02*
X636000Y57000D01*
D17*
X80143Y192154D02*
X80143Y201242D01*
X80142Y192154D02*
X80140Y192055D01*
X80134Y191955D01*
X80125Y191856D01*
X80112Y191758D01*
X80095Y191660D01*
X80074Y191562D01*
X80049Y191466D01*
X80021Y191371D01*
X79989Y191277D01*
X79954Y191184D01*
X79915Y191092D01*
X79872Y191002D01*
X79827Y190914D01*
X79777Y190827D01*
X79725Y190743D01*
X79669Y190660D01*
X79611Y190580D01*
X79549Y190502D01*
X79484Y190427D01*
X79416Y190354D01*
X79346Y190284D01*
X79273Y190216D01*
X79198Y190151D01*
X79120Y190089D01*
X79040Y190031D01*
X78957Y189975D01*
X78873Y189923D01*
X78786Y189873D01*
X78698Y189828D01*
X78608Y189785D01*
X78516Y189746D01*
X78423Y189711D01*
X78329Y189679D01*
X78234Y189651D01*
X78138Y189626D01*
X78040Y189605D01*
X77942Y189588D01*
X77844Y189575D01*
X77745Y189566D01*
X77645Y189560D01*
X77546Y189558D01*
X76248Y189558D01*
X85820Y189558D02*
X85820Y201242D01*
X85820Y189558D02*
X91013Y189558D01*
X97885Y189558D02*
X100482Y189558D01*
X97885Y189558D02*
X97786Y189560D01*
X97686Y189566D01*
X97587Y189575D01*
X97489Y189588D01*
X97391Y189605D01*
X97293Y189626D01*
X97197Y189651D01*
X97102Y189679D01*
X97008Y189711D01*
X96915Y189746D01*
X96823Y189785D01*
X96733Y189828D01*
X96645Y189873D01*
X96558Y189923D01*
X96474Y189975D01*
X96391Y190031D01*
X96311Y190089D01*
X96233Y190151D01*
X96158Y190216D01*
X96085Y190284D01*
X96015Y190354D01*
X95947Y190427D01*
X95882Y190502D01*
X95820Y190580D01*
X95762Y190660D01*
X95706Y190743D01*
X95654Y190827D01*
X95604Y190914D01*
X95559Y191002D01*
X95516Y191092D01*
X95477Y191184D01*
X95442Y191277D01*
X95410Y191371D01*
X95382Y191466D01*
X95357Y191562D01*
X95336Y191660D01*
X95319Y191758D01*
X95306Y191856D01*
X95297Y191955D01*
X95291Y192055D01*
X95289Y192154D01*
X95289Y198646D01*
X95291Y198745D01*
X95297Y198845D01*
X95306Y198944D01*
X95319Y199042D01*
X95336Y199140D01*
X95357Y199238D01*
X95382Y199334D01*
X95410Y199429D01*
X95442Y199523D01*
X95477Y199616D01*
X95516Y199708D01*
X95559Y199798D01*
X95604Y199886D01*
X95654Y199973D01*
X95706Y200057D01*
X95762Y200140D01*
X95820Y200220D01*
X95882Y200298D01*
X95947Y200373D01*
X96015Y200446D01*
X96085Y200516D01*
X96158Y200584D01*
X96233Y200649D01*
X96311Y200711D01*
X96391Y200769D01*
X96474Y200825D01*
X96558Y200877D01*
X96645Y200927D01*
X96733Y200972D01*
X96823Y201015D01*
X96915Y201054D01*
X97007Y201089D01*
X97102Y201121D01*
X97197Y201149D01*
X97293Y201174D01*
X97391Y201195D01*
X97489Y201212D01*
X97587Y201225D01*
X97686Y201234D01*
X97786Y201240D01*
X97885Y201242D01*
X100482Y201242D01*
X107575Y201242D02*
X107575Y192154D01*
X107574Y192154D02*
X107572Y192055D01*
X107566Y191955D01*
X107557Y191856D01*
X107544Y191758D01*
X107527Y191660D01*
X107506Y191562D01*
X107481Y191466D01*
X107453Y191371D01*
X107421Y191277D01*
X107386Y191184D01*
X107347Y191092D01*
X107304Y191002D01*
X107259Y190914D01*
X107209Y190827D01*
X107157Y190743D01*
X107101Y190660D01*
X107043Y190580D01*
X106981Y190502D01*
X106916Y190427D01*
X106848Y190354D01*
X106778Y190284D01*
X106705Y190216D01*
X106630Y190151D01*
X106552Y190089D01*
X106472Y190031D01*
X106389Y189975D01*
X106305Y189923D01*
X106218Y189873D01*
X106130Y189828D01*
X106040Y189785D01*
X105948Y189746D01*
X105855Y189711D01*
X105761Y189679D01*
X105666Y189651D01*
X105570Y189626D01*
X105472Y189605D01*
X105374Y189588D01*
X105276Y189575D01*
X105177Y189566D01*
X105077Y189560D01*
X104978Y189558D01*
X103680Y189558D01*
X113252Y189558D02*
X113252Y201242D01*
X113252Y189558D02*
X118445Y189558D01*
X125317Y189558D02*
X127914Y189558D01*
X125317Y189558D02*
X125218Y189560D01*
X125118Y189566D01*
X125019Y189575D01*
X124921Y189588D01*
X124823Y189605D01*
X124725Y189626D01*
X124629Y189651D01*
X124534Y189679D01*
X124440Y189711D01*
X124347Y189746D01*
X124255Y189785D01*
X124165Y189828D01*
X124077Y189873D01*
X123990Y189923D01*
X123906Y189975D01*
X123823Y190031D01*
X123743Y190089D01*
X123665Y190151D01*
X123590Y190216D01*
X123517Y190284D01*
X123447Y190354D01*
X123379Y190427D01*
X123314Y190502D01*
X123252Y190580D01*
X123194Y190660D01*
X123138Y190743D01*
X123086Y190827D01*
X123036Y190914D01*
X122991Y191002D01*
X122948Y191092D01*
X122909Y191184D01*
X122874Y191277D01*
X122842Y191371D01*
X122814Y191466D01*
X122789Y191562D01*
X122768Y191660D01*
X122751Y191758D01*
X122738Y191856D01*
X122729Y191955D01*
X122723Y192055D01*
X122721Y192154D01*
X122721Y198646D01*
X122723Y198745D01*
X122729Y198845D01*
X122738Y198944D01*
X122751Y199042D01*
X122768Y199140D01*
X122789Y199238D01*
X122814Y199334D01*
X122842Y199429D01*
X122874Y199523D01*
X122909Y199616D01*
X122948Y199708D01*
X122991Y199798D01*
X123036Y199886D01*
X123086Y199973D01*
X123138Y200057D01*
X123194Y200140D01*
X123252Y200220D01*
X123314Y200298D01*
X123379Y200373D01*
X123447Y200446D01*
X123517Y200516D01*
X123590Y200584D01*
X123665Y200649D01*
X123743Y200711D01*
X123823Y200769D01*
X123906Y200825D01*
X123990Y200877D01*
X124077Y200927D01*
X124165Y200972D01*
X124255Y201015D01*
X124347Y201054D01*
X124439Y201089D01*
X124534Y201121D01*
X124629Y201149D01*
X124725Y201174D01*
X124823Y201195D01*
X124921Y201212D01*
X125019Y201225D01*
X125118Y201234D01*
X125218Y201240D01*
X125317Y201242D01*
X127914Y201242D01*
X135007Y201242D02*
X135007Y192154D01*
X135006Y192154D02*
X135004Y192055D01*
X134998Y191955D01*
X134989Y191856D01*
X134976Y191758D01*
X134959Y191660D01*
X134938Y191562D01*
X134913Y191466D01*
X134885Y191371D01*
X134853Y191277D01*
X134818Y191184D01*
X134779Y191092D01*
X134736Y191002D01*
X134691Y190914D01*
X134641Y190827D01*
X134589Y190743D01*
X134533Y190660D01*
X134475Y190580D01*
X134413Y190502D01*
X134348Y190427D01*
X134280Y190354D01*
X134210Y190284D01*
X134137Y190216D01*
X134062Y190151D01*
X133984Y190089D01*
X133904Y190031D01*
X133821Y189975D01*
X133737Y189923D01*
X133650Y189873D01*
X133562Y189828D01*
X133472Y189785D01*
X133380Y189746D01*
X133287Y189711D01*
X133193Y189679D01*
X133098Y189651D01*
X133002Y189626D01*
X132904Y189605D01*
X132806Y189588D01*
X132708Y189575D01*
X132609Y189566D01*
X132509Y189560D01*
X132410Y189558D01*
X131112Y189558D01*
X140684Y189558D02*
X140684Y201242D01*
X140684Y189558D02*
X145877Y189558D01*
X152749Y189558D02*
X155346Y189558D01*
X152749Y189558D02*
X152650Y189560D01*
X152550Y189566D01*
X152451Y189575D01*
X152353Y189588D01*
X152255Y189605D01*
X152157Y189626D01*
X152061Y189651D01*
X151966Y189679D01*
X151872Y189711D01*
X151779Y189746D01*
X151687Y189785D01*
X151597Y189828D01*
X151509Y189873D01*
X151422Y189923D01*
X151338Y189975D01*
X151255Y190031D01*
X151175Y190089D01*
X151097Y190151D01*
X151022Y190216D01*
X150949Y190284D01*
X150879Y190354D01*
X150811Y190427D01*
X150746Y190502D01*
X150684Y190580D01*
X150626Y190660D01*
X150570Y190743D01*
X150518Y190827D01*
X150468Y190914D01*
X150423Y191002D01*
X150380Y191092D01*
X150341Y191184D01*
X150306Y191277D01*
X150274Y191371D01*
X150246Y191466D01*
X150221Y191562D01*
X150200Y191660D01*
X150183Y191758D01*
X150170Y191856D01*
X150161Y191955D01*
X150155Y192055D01*
X150153Y192154D01*
X150153Y198646D01*
X150155Y198745D01*
X150161Y198845D01*
X150170Y198944D01*
X150183Y199042D01*
X150200Y199140D01*
X150221Y199238D01*
X150246Y199334D01*
X150274Y199429D01*
X150306Y199523D01*
X150341Y199616D01*
X150380Y199708D01*
X150423Y199798D01*
X150468Y199886D01*
X150518Y199973D01*
X150570Y200057D01*
X150626Y200140D01*
X150684Y200220D01*
X150746Y200298D01*
X150811Y200373D01*
X150879Y200446D01*
X150949Y200516D01*
X151022Y200584D01*
X151097Y200649D01*
X151175Y200711D01*
X151255Y200769D01*
X151338Y200825D01*
X151422Y200877D01*
X151509Y200927D01*
X151597Y200972D01*
X151687Y201015D01*
X151779Y201054D01*
X151871Y201089D01*
X151966Y201121D01*
X152061Y201149D01*
X152157Y201174D01*
X152255Y201195D01*
X152353Y201212D01*
X152451Y201225D01*
X152550Y201234D01*
X152650Y201240D01*
X152749Y201242D01*
X155346Y201242D01*
X162439Y201242D02*
X162439Y192154D01*
X162438Y192154D02*
X162436Y192055D01*
X162430Y191955D01*
X162421Y191856D01*
X162408Y191758D01*
X162391Y191660D01*
X162370Y191562D01*
X162345Y191466D01*
X162317Y191371D01*
X162285Y191277D01*
X162250Y191184D01*
X162211Y191092D01*
X162168Y191002D01*
X162123Y190914D01*
X162073Y190827D01*
X162021Y190743D01*
X161965Y190660D01*
X161907Y190580D01*
X161845Y190502D01*
X161780Y190427D01*
X161712Y190354D01*
X161642Y190284D01*
X161569Y190216D01*
X161494Y190151D01*
X161416Y190089D01*
X161336Y190031D01*
X161253Y189975D01*
X161169Y189923D01*
X161082Y189873D01*
X160994Y189828D01*
X160904Y189785D01*
X160812Y189746D01*
X160719Y189711D01*
X160625Y189679D01*
X160530Y189651D01*
X160434Y189626D01*
X160336Y189605D01*
X160238Y189588D01*
X160140Y189575D01*
X160041Y189566D01*
X159941Y189560D01*
X159842Y189558D01*
X158544Y189558D01*
X168116Y189558D02*
X168116Y201242D01*
X168116Y189558D02*
X173309Y189558D01*
X180181Y189558D02*
X182778Y189558D01*
X180181Y189558D02*
X180082Y189560D01*
X179982Y189566D01*
X179883Y189575D01*
X179785Y189588D01*
X179687Y189605D01*
X179589Y189626D01*
X179493Y189651D01*
X179398Y189679D01*
X179304Y189711D01*
X179211Y189746D01*
X179119Y189785D01*
X179029Y189828D01*
X178941Y189873D01*
X178854Y189923D01*
X178770Y189975D01*
X178687Y190031D01*
X178607Y190089D01*
X178529Y190151D01*
X178454Y190216D01*
X178381Y190284D01*
X178311Y190354D01*
X178243Y190427D01*
X178178Y190502D01*
X178116Y190580D01*
X178058Y190660D01*
X178002Y190743D01*
X177950Y190827D01*
X177900Y190914D01*
X177855Y191002D01*
X177812Y191092D01*
X177773Y191184D01*
X177738Y191277D01*
X177706Y191371D01*
X177678Y191466D01*
X177653Y191562D01*
X177632Y191660D01*
X177615Y191758D01*
X177602Y191856D01*
X177593Y191955D01*
X177587Y192055D01*
X177585Y192154D01*
X177585Y198646D01*
X177587Y198745D01*
X177593Y198845D01*
X177602Y198944D01*
X177615Y199042D01*
X177632Y199140D01*
X177653Y199238D01*
X177678Y199334D01*
X177706Y199429D01*
X177738Y199523D01*
X177773Y199616D01*
X177812Y199708D01*
X177855Y199798D01*
X177900Y199886D01*
X177950Y199973D01*
X178002Y200057D01*
X178058Y200140D01*
X178116Y200220D01*
X178178Y200298D01*
X178243Y200373D01*
X178311Y200446D01*
X178381Y200516D01*
X178454Y200584D01*
X178529Y200649D01*
X178607Y200711D01*
X178687Y200769D01*
X178770Y200825D01*
X178854Y200877D01*
X178941Y200927D01*
X179029Y200972D01*
X179119Y201015D01*
X179211Y201054D01*
X179303Y201089D01*
X179398Y201121D01*
X179493Y201149D01*
X179589Y201174D01*
X179687Y201195D01*
X179785Y201212D01*
X179883Y201225D01*
X179982Y201234D01*
X180082Y201240D01*
X180181Y201242D01*
X182778Y201242D01*
D13*
X20922Y233321D02*
X20922Y240179D01*
X20922Y233321D02*
X23970Y233321D01*
X27262Y233321D02*
X30310Y233321D01*
X27262Y233321D02*
X27262Y240179D01*
X30310Y240179D01*
X29548Y237131D02*
X27262Y237131D01*
X33580Y240179D02*
X33580Y233321D01*
X33580Y240179D02*
X35485Y240179D01*
X35570Y240177D01*
X35656Y240171D01*
X35741Y240162D01*
X35825Y240148D01*
X35909Y240131D01*
X35992Y240110D01*
X36074Y240086D01*
X36154Y240058D01*
X36234Y240026D01*
X36312Y239990D01*
X36388Y239952D01*
X36462Y239909D01*
X36534Y239864D01*
X36605Y239815D01*
X36673Y239763D01*
X36738Y239709D01*
X36801Y239651D01*
X36862Y239590D01*
X36920Y239527D01*
X36974Y239462D01*
X37026Y239394D01*
X37075Y239323D01*
X37120Y239251D01*
X37163Y239177D01*
X37201Y239101D01*
X37237Y239023D01*
X37269Y238943D01*
X37297Y238863D01*
X37321Y238781D01*
X37342Y238698D01*
X37359Y238614D01*
X37373Y238530D01*
X37382Y238445D01*
X37388Y238359D01*
X37390Y238274D01*
X37390Y235226D01*
X37388Y235141D01*
X37382Y235055D01*
X37373Y234970D01*
X37359Y234886D01*
X37342Y234802D01*
X37321Y234719D01*
X37297Y234637D01*
X37269Y234557D01*
X37237Y234477D01*
X37201Y234399D01*
X37163Y234323D01*
X37120Y234249D01*
X37075Y234177D01*
X37026Y234106D01*
X36974Y234038D01*
X36920Y233973D01*
X36862Y233910D01*
X36801Y233849D01*
X36738Y233791D01*
X36673Y233737D01*
X36605Y233685D01*
X36534Y233636D01*
X36462Y233591D01*
X36388Y233548D01*
X36312Y233510D01*
X36234Y233474D01*
X36154Y233442D01*
X36074Y233414D01*
X35992Y233390D01*
X35909Y233369D01*
X35825Y233352D01*
X35741Y233338D01*
X35656Y233329D01*
X35570Y233323D01*
X35485Y233321D01*
X33580Y233321D01*
D12*
X459659Y29326D02*
X466263Y29326D01*
X459659Y29326D02*
X459659Y31160D01*
X459660Y31160D02*
X459662Y31245D01*
X459668Y31329D01*
X459678Y31413D01*
X459691Y31497D01*
X459709Y31580D01*
X459730Y31662D01*
X459755Y31743D01*
X459784Y31823D01*
X459816Y31901D01*
X459852Y31977D01*
X459892Y32052D01*
X459935Y32125D01*
X459981Y32196D01*
X460030Y32265D01*
X460083Y32332D01*
X460139Y32396D01*
X460197Y32457D01*
X460258Y32515D01*
X460322Y32571D01*
X460389Y32624D01*
X460458Y32673D01*
X460529Y32719D01*
X460602Y32762D01*
X460677Y32802D01*
X460753Y32838D01*
X460831Y32870D01*
X460911Y32899D01*
X460992Y32924D01*
X461074Y32945D01*
X461157Y32963D01*
X461241Y32976D01*
X461325Y32986D01*
X461409Y32992D01*
X461494Y32994D01*
X461579Y32992D01*
X461663Y32986D01*
X461747Y32976D01*
X461831Y32963D01*
X461914Y32945D01*
X461996Y32924D01*
X462077Y32899D01*
X462157Y32870D01*
X462235Y32838D01*
X462311Y32802D01*
X462386Y32762D01*
X462459Y32719D01*
X462530Y32673D01*
X462599Y32624D01*
X462666Y32571D01*
X462730Y32515D01*
X462791Y32457D01*
X462849Y32396D01*
X462905Y32332D01*
X462958Y32265D01*
X463007Y32196D01*
X463053Y32125D01*
X463096Y32052D01*
X463136Y31977D01*
X463172Y31901D01*
X463204Y31823D01*
X463233Y31743D01*
X463258Y31662D01*
X463279Y31580D01*
X463297Y31497D01*
X463310Y31413D01*
X463320Y31329D01*
X463326Y31245D01*
X463328Y31160D01*
X463328Y29326D01*
X463328Y31527D02*
X466263Y32994D01*
X466264Y38519D02*
X466262Y38593D01*
X466256Y38667D01*
X466247Y38741D01*
X466234Y38814D01*
X466217Y38887D01*
X466197Y38958D01*
X466173Y39029D01*
X466145Y39098D01*
X466114Y39165D01*
X466080Y39231D01*
X466042Y39296D01*
X466001Y39358D01*
X465957Y39418D01*
X465910Y39475D01*
X465860Y39530D01*
X465807Y39583D01*
X465752Y39633D01*
X465695Y39680D01*
X465635Y39724D01*
X465573Y39765D01*
X465508Y39803D01*
X465443Y39837D01*
X465375Y39868D01*
X465306Y39896D01*
X465235Y39920D01*
X465164Y39940D01*
X465092Y39957D01*
X465018Y39970D01*
X464945Y39979D01*
X464870Y39985D01*
X464796Y39987D01*
X466263Y38520D02*
X466261Y38409D01*
X466255Y38298D01*
X466245Y38187D01*
X466231Y38076D01*
X466213Y37967D01*
X466191Y37858D01*
X466166Y37749D01*
X466136Y37642D01*
X466103Y37536D01*
X466065Y37431D01*
X466025Y37328D01*
X465980Y37226D01*
X465932Y37126D01*
X465880Y37027D01*
X465825Y36931D01*
X465766Y36836D01*
X465704Y36744D01*
X465638Y36654D01*
X465570Y36566D01*
X465498Y36481D01*
X465423Y36399D01*
X465346Y36319D01*
X461127Y36501D02*
X461053Y36503D01*
X460978Y36509D01*
X460905Y36518D01*
X460831Y36531D01*
X460759Y36548D01*
X460688Y36568D01*
X460617Y36592D01*
X460548Y36620D01*
X460481Y36651D01*
X460415Y36685D01*
X460350Y36723D01*
X460288Y36764D01*
X460228Y36808D01*
X460171Y36855D01*
X460116Y36905D01*
X460063Y36958D01*
X460013Y37013D01*
X459966Y37070D01*
X459922Y37130D01*
X459881Y37192D01*
X459843Y37257D01*
X459809Y37323D01*
X459778Y37390D01*
X459750Y37459D01*
X459726Y37530D01*
X459706Y37601D01*
X459689Y37673D01*
X459676Y37747D01*
X459667Y37820D01*
X459661Y37895D01*
X459659Y37969D01*
X459661Y38073D01*
X459667Y38177D01*
X459677Y38281D01*
X459690Y38384D01*
X459708Y38487D01*
X459730Y38589D01*
X459755Y38690D01*
X459784Y38790D01*
X459817Y38889D01*
X459854Y38986D01*
X459894Y39082D01*
X459938Y39177D01*
X459986Y39269D01*
X460036Y39360D01*
X460091Y39449D01*
X460149Y39536D01*
X460209Y39620D01*
X462412Y37235D02*
X462373Y37172D01*
X462331Y37112D01*
X462286Y37054D01*
X462238Y36997D01*
X462187Y36944D01*
X462134Y36893D01*
X462079Y36844D01*
X462021Y36799D01*
X461961Y36756D01*
X461899Y36716D01*
X461835Y36680D01*
X461769Y36646D01*
X461701Y36616D01*
X461633Y36589D01*
X461563Y36566D01*
X461492Y36546D01*
X461420Y36530D01*
X461347Y36517D01*
X461274Y36508D01*
X461201Y36503D01*
X461127Y36501D01*
X463511Y39253D02*
X463550Y39316D01*
X463592Y39376D01*
X463637Y39435D01*
X463685Y39491D01*
X463736Y39544D01*
X463789Y39595D01*
X463844Y39644D01*
X463902Y39689D01*
X463962Y39732D01*
X464024Y39772D01*
X464088Y39808D01*
X464154Y39842D01*
X464222Y39872D01*
X464290Y39899D01*
X464360Y39922D01*
X464431Y39942D01*
X464503Y39958D01*
X464576Y39971D01*
X464649Y39980D01*
X464722Y39985D01*
X464796Y39987D01*
X463511Y39253D02*
X462411Y37235D01*
X459659Y44736D02*
X466263Y44736D01*
X459659Y42902D02*
X459659Y46571D01*
D13*
X255166Y55137D02*
X-44834Y55137D01*
X-44834Y219137D01*
X255166Y219137D01*
X255166Y55137D01*
X5166Y80137D02*
X-34834Y80137D01*
X-34834Y100137D01*
X-4834Y100137D01*
X-4834Y120137D01*
X-34834Y120137D01*
X-34834Y140137D01*
X-4834Y140137D01*
X-4834Y160137D01*
X-34834Y160137D01*
X-34834Y180137D01*
X-34834Y200137D01*
X15166Y200137D01*
X15166Y180137D02*
X-34834Y180137D01*
X25166Y175137D02*
X65166Y175137D01*
X65166Y205137D01*
X25166Y205137D01*
X25166Y175137D01*
X34267Y190137D02*
X34270Y190380D01*
X34279Y190623D01*
X34294Y190865D01*
X34315Y191107D01*
X34341Y191349D01*
X34374Y191589D01*
X34413Y191829D01*
X34457Y192068D01*
X34508Y192306D01*
X34564Y192542D01*
X34626Y192777D01*
X34693Y193011D01*
X34767Y193242D01*
X34846Y193472D01*
X34930Y193700D01*
X35021Y193925D01*
X35116Y194148D01*
X35217Y194369D01*
X35324Y194588D01*
X35436Y194803D01*
X35553Y195016D01*
X35675Y195226D01*
X35803Y195433D01*
X35935Y195637D01*
X36073Y195837D01*
X36215Y196034D01*
X36362Y196227D01*
X36514Y196417D01*
X36670Y196603D01*
X36831Y196785D01*
X36997Y196963D01*
X37166Y197137D01*
X37340Y197306D01*
X37518Y197472D01*
X37700Y197633D01*
X37886Y197789D01*
X38076Y197941D01*
X38269Y198088D01*
X38466Y198230D01*
X38666Y198368D01*
X38870Y198500D01*
X39077Y198628D01*
X39287Y198750D01*
X39500Y198867D01*
X39715Y198979D01*
X39934Y199086D01*
X40155Y199187D01*
X40378Y199282D01*
X40603Y199373D01*
X40831Y199457D01*
X41061Y199536D01*
X41292Y199610D01*
X41526Y199677D01*
X41761Y199739D01*
X41997Y199795D01*
X42235Y199846D01*
X42474Y199890D01*
X42714Y199929D01*
X42954Y199962D01*
X43196Y199988D01*
X43438Y200009D01*
X43680Y200024D01*
X43923Y200033D01*
X44166Y200036D01*
X44409Y200033D01*
X44652Y200024D01*
X44894Y200009D01*
X45136Y199988D01*
X45378Y199962D01*
X45618Y199929D01*
X45858Y199890D01*
X46097Y199846D01*
X46335Y199795D01*
X46571Y199739D01*
X46806Y199677D01*
X47040Y199610D01*
X47271Y199536D01*
X47501Y199457D01*
X47729Y199373D01*
X47954Y199282D01*
X48177Y199187D01*
X48398Y199086D01*
X48617Y198979D01*
X48832Y198867D01*
X49045Y198750D01*
X49255Y198628D01*
X49462Y198500D01*
X49666Y198368D01*
X49866Y198230D01*
X50063Y198088D01*
X50256Y197941D01*
X50446Y197789D01*
X50632Y197633D01*
X50814Y197472D01*
X50992Y197306D01*
X51166Y197137D01*
X51335Y196963D01*
X51501Y196785D01*
X51662Y196603D01*
X51818Y196417D01*
X51970Y196227D01*
X52117Y196034D01*
X52259Y195837D01*
X52397Y195637D01*
X52529Y195433D01*
X52657Y195226D01*
X52779Y195016D01*
X52896Y194803D01*
X53008Y194588D01*
X53115Y194369D01*
X53216Y194148D01*
X53311Y193925D01*
X53402Y193700D01*
X53486Y193472D01*
X53565Y193242D01*
X53639Y193011D01*
X53706Y192777D01*
X53768Y192542D01*
X53824Y192306D01*
X53875Y192068D01*
X53919Y191829D01*
X53958Y191589D01*
X53991Y191349D01*
X54017Y191107D01*
X54038Y190865D01*
X54053Y190623D01*
X54062Y190380D01*
X54065Y190137D01*
X54062Y189894D01*
X54053Y189651D01*
X54038Y189409D01*
X54017Y189167D01*
X53991Y188925D01*
X53958Y188685D01*
X53919Y188445D01*
X53875Y188206D01*
X53824Y187968D01*
X53768Y187732D01*
X53706Y187497D01*
X53639Y187263D01*
X53565Y187032D01*
X53486Y186802D01*
X53402Y186574D01*
X53311Y186349D01*
X53216Y186126D01*
X53115Y185905D01*
X53008Y185686D01*
X52896Y185471D01*
X52779Y185258D01*
X52657Y185048D01*
X52529Y184841D01*
X52397Y184637D01*
X52259Y184437D01*
X52117Y184240D01*
X51970Y184047D01*
X51818Y183857D01*
X51662Y183671D01*
X51501Y183489D01*
X51335Y183311D01*
X51166Y183137D01*
X50992Y182968D01*
X50814Y182802D01*
X50632Y182641D01*
X50446Y182485D01*
X50256Y182333D01*
X50063Y182186D01*
X49866Y182044D01*
X49666Y181906D01*
X49462Y181774D01*
X49255Y181646D01*
X49045Y181524D01*
X48832Y181407D01*
X48617Y181295D01*
X48398Y181188D01*
X48177Y181087D01*
X47954Y180992D01*
X47729Y180901D01*
X47501Y180817D01*
X47271Y180738D01*
X47040Y180664D01*
X46806Y180597D01*
X46571Y180535D01*
X46335Y180479D01*
X46097Y180428D01*
X45858Y180384D01*
X45618Y180345D01*
X45378Y180312D01*
X45136Y180286D01*
X44894Y180265D01*
X44652Y180250D01*
X44409Y180241D01*
X44166Y180238D01*
X43923Y180241D01*
X43680Y180250D01*
X43438Y180265D01*
X43196Y180286D01*
X42954Y180312D01*
X42714Y180345D01*
X42474Y180384D01*
X42235Y180428D01*
X41997Y180479D01*
X41761Y180535D01*
X41526Y180597D01*
X41292Y180664D01*
X41061Y180738D01*
X40831Y180817D01*
X40603Y180901D01*
X40378Y180992D01*
X40155Y181087D01*
X39934Y181188D01*
X39715Y181295D01*
X39500Y181407D01*
X39287Y181524D01*
X39077Y181646D01*
X38870Y181774D01*
X38666Y181906D01*
X38466Y182044D01*
X38269Y182186D01*
X38076Y182333D01*
X37886Y182485D01*
X37700Y182641D01*
X37518Y182802D01*
X37340Y182968D01*
X37166Y183137D01*
X36997Y183311D01*
X36831Y183489D01*
X36670Y183671D01*
X36514Y183857D01*
X36362Y184047D01*
X36215Y184240D01*
X36073Y184437D01*
X35935Y184637D01*
X35803Y184841D01*
X35675Y185048D01*
X35553Y185258D01*
X35436Y185471D01*
X35324Y185686D01*
X35217Y185905D01*
X35116Y186126D01*
X35021Y186349D01*
X34930Y186574D01*
X34846Y186802D01*
X34767Y187032D01*
X34693Y187263D01*
X34626Y187497D01*
X34564Y187732D01*
X34508Y187968D01*
X34457Y188206D01*
X34413Y188445D01*
X34374Y188685D01*
X34341Y188925D01*
X34315Y189167D01*
X34294Y189409D01*
X34279Y189651D01*
X34270Y189894D01*
X34267Y190137D01*
D18*
X282300Y261000D02*
X312300Y261000D01*
X282300Y261000D02*
X282300Y211000D01*
X312300Y211000D01*
X352300Y261000D02*
X372300Y261000D01*
X382300Y251000D01*
X382300Y221000D01*
X372300Y211000D01*
X352300Y211000D01*
D12*
X302788Y232847D02*
X302788Y234315D01*
X302788Y232847D02*
X302786Y232773D01*
X302780Y232698D01*
X302771Y232625D01*
X302758Y232551D01*
X302741Y232479D01*
X302721Y232408D01*
X302697Y232337D01*
X302669Y232268D01*
X302638Y232201D01*
X302604Y232135D01*
X302566Y232070D01*
X302525Y232008D01*
X302481Y231948D01*
X302434Y231891D01*
X302384Y231836D01*
X302331Y231783D01*
X302276Y231733D01*
X302219Y231686D01*
X302159Y231642D01*
X302097Y231601D01*
X302032Y231563D01*
X301967Y231529D01*
X301899Y231498D01*
X301830Y231470D01*
X301759Y231446D01*
X301688Y231426D01*
X301616Y231409D01*
X301542Y231396D01*
X301469Y231387D01*
X301394Y231381D01*
X301320Y231379D01*
X301320Y231380D02*
X297652Y231380D01*
X297652Y231379D02*
X297578Y231381D01*
X297503Y231387D01*
X297430Y231396D01*
X297356Y231409D01*
X297284Y231426D01*
X297213Y231446D01*
X297142Y231470D01*
X297073Y231498D01*
X297006Y231529D01*
X296940Y231563D01*
X296875Y231601D01*
X296813Y231642D01*
X296753Y231686D01*
X296696Y231733D01*
X296641Y231783D01*
X296588Y231836D01*
X296538Y231891D01*
X296491Y231948D01*
X296447Y232008D01*
X296406Y232070D01*
X296368Y232135D01*
X296334Y232200D01*
X296303Y232268D01*
X296275Y232337D01*
X296251Y232408D01*
X296231Y232479D01*
X296214Y232551D01*
X296201Y232625D01*
X296192Y232698D01*
X296186Y232773D01*
X296184Y232847D01*
X296184Y234315D01*
X297652Y237511D02*
X296184Y239346D01*
X302788Y239346D01*
X302788Y241180D02*
X302788Y237511D01*
D19*
X503250Y125750D02*
X503250Y121750D01*
D17*
X485992Y118115D02*
X478880Y118115D01*
X478880Y120090D01*
X478882Y120176D01*
X478888Y120262D01*
X478897Y120348D01*
X478910Y120433D01*
X478927Y120518D01*
X478947Y120601D01*
X478971Y120684D01*
X478999Y120766D01*
X479030Y120846D01*
X479065Y120925D01*
X479103Y121002D01*
X479145Y121078D01*
X479189Y121152D01*
X479237Y121223D01*
X479288Y121293D01*
X479342Y121360D01*
X479399Y121425D01*
X479459Y121487D01*
X479521Y121547D01*
X479586Y121604D01*
X479653Y121658D01*
X479723Y121709D01*
X479794Y121757D01*
X479868Y121801D01*
X479944Y121843D01*
X480021Y121881D01*
X480100Y121916D01*
X480180Y121947D01*
X480262Y121975D01*
X480345Y121999D01*
X480428Y122019D01*
X480513Y122036D01*
X480598Y122049D01*
X480684Y122058D01*
X480770Y122064D01*
X480856Y122066D01*
X484016Y122066D01*
X484016Y122067D02*
X484102Y122065D01*
X484188Y122059D01*
X484274Y122050D01*
X484359Y122037D01*
X484444Y122020D01*
X484527Y122000D01*
X484610Y121976D01*
X484692Y121948D01*
X484772Y121917D01*
X484851Y121882D01*
X484928Y121844D01*
X485004Y121802D01*
X485078Y121758D01*
X485149Y121710D01*
X485219Y121659D01*
X485286Y121605D01*
X485351Y121548D01*
X485413Y121488D01*
X485473Y121426D01*
X485530Y121361D01*
X485584Y121294D01*
X485635Y121224D01*
X485683Y121153D01*
X485727Y121079D01*
X485769Y121003D01*
X485807Y120926D01*
X485842Y120847D01*
X485873Y120767D01*
X485901Y120685D01*
X485925Y120602D01*
X485945Y120519D01*
X485962Y120434D01*
X485975Y120349D01*
X485984Y120263D01*
X485990Y120177D01*
X485992Y120091D01*
X485992Y120090D02*
X485992Y118115D01*
X485992Y125674D02*
X485992Y128045D01*
X485990Y128123D01*
X485984Y128200D01*
X485975Y128277D01*
X485962Y128353D01*
X485945Y128429D01*
X485924Y128504D01*
X485900Y128577D01*
X485872Y128650D01*
X485840Y128721D01*
X485805Y128790D01*
X485767Y128857D01*
X485726Y128923D01*
X485681Y128986D01*
X485633Y129047D01*
X485583Y129106D01*
X485529Y129162D01*
X485473Y129216D01*
X485414Y129266D01*
X485353Y129314D01*
X485290Y129359D01*
X485224Y129400D01*
X485157Y129438D01*
X485088Y129473D01*
X485017Y129505D01*
X484944Y129533D01*
X484871Y129557D01*
X484796Y129578D01*
X484720Y129595D01*
X484644Y129608D01*
X484567Y129617D01*
X484490Y129623D01*
X484412Y129625D01*
X483621Y129625D01*
X483543Y129623D01*
X483466Y129617D01*
X483389Y129608D01*
X483313Y129595D01*
X483237Y129578D01*
X483162Y129557D01*
X483089Y129533D01*
X483016Y129505D01*
X482945Y129473D01*
X482876Y129438D01*
X482809Y129400D01*
X482743Y129359D01*
X482680Y129314D01*
X482619Y129266D01*
X482560Y129216D01*
X482504Y129162D01*
X482450Y129106D01*
X482400Y129047D01*
X482352Y128986D01*
X482307Y128923D01*
X482266Y128857D01*
X482228Y128790D01*
X482193Y128721D01*
X482161Y128650D01*
X482133Y128577D01*
X482109Y128504D01*
X482088Y128429D01*
X482071Y128353D01*
X482058Y128277D01*
X482049Y128200D01*
X482043Y128123D01*
X482041Y128045D01*
X482041Y125674D01*
X478880Y125674D01*
X478880Y129625D01*
D20*
X478003Y137681D02*
X485369Y137681D01*
X478003Y137681D02*
X478003Y139727D01*
X478005Y139816D01*
X478011Y139905D01*
X478021Y139994D01*
X478034Y140082D01*
X478051Y140170D01*
X478073Y140257D01*
X478098Y140342D01*
X478126Y140427D01*
X478159Y140510D01*
X478195Y140592D01*
X478234Y140672D01*
X478277Y140750D01*
X478323Y140826D01*
X478373Y140901D01*
X478426Y140973D01*
X478482Y141042D01*
X478541Y141109D01*
X478602Y141174D01*
X478667Y141235D01*
X478734Y141294D01*
X478803Y141350D01*
X478875Y141403D01*
X478950Y141453D01*
X479026Y141499D01*
X479104Y141542D01*
X479184Y141581D01*
X479266Y141617D01*
X479349Y141650D01*
X479434Y141678D01*
X479519Y141703D01*
X479606Y141725D01*
X479694Y141742D01*
X479782Y141755D01*
X479871Y141765D01*
X479960Y141771D01*
X480049Y141773D01*
X480138Y141771D01*
X480227Y141765D01*
X480316Y141755D01*
X480404Y141742D01*
X480492Y141725D01*
X480579Y141703D01*
X480664Y141678D01*
X480749Y141650D01*
X480832Y141617D01*
X480914Y141581D01*
X480994Y141542D01*
X481072Y141499D01*
X481148Y141453D01*
X481223Y141403D01*
X481295Y141350D01*
X481364Y141294D01*
X481431Y141235D01*
X481496Y141174D01*
X481557Y141109D01*
X481616Y141042D01*
X481672Y140973D01*
X481725Y140901D01*
X481775Y140826D01*
X481821Y140750D01*
X481864Y140672D01*
X481903Y140592D01*
X481939Y140510D01*
X481972Y140427D01*
X482000Y140342D01*
X482025Y140257D01*
X482047Y140170D01*
X482064Y140082D01*
X482077Y139994D01*
X482087Y139905D01*
X482093Y139816D01*
X482095Y139727D01*
X482095Y137681D01*
X482095Y140136D02*
X485369Y141773D01*
X479640Y144945D02*
X478003Y146991D01*
X485369Y146991D01*
X485369Y144945D02*
X485369Y149037D01*
X474471Y108337D02*
X474471Y100971D01*
X474471Y108337D02*
X476517Y108337D01*
X476606Y108335D01*
X476695Y108329D01*
X476784Y108319D01*
X476872Y108306D01*
X476960Y108289D01*
X477047Y108267D01*
X477132Y108242D01*
X477217Y108214D01*
X477300Y108181D01*
X477382Y108145D01*
X477462Y108106D01*
X477540Y108063D01*
X477616Y108017D01*
X477691Y107967D01*
X477763Y107914D01*
X477832Y107858D01*
X477899Y107799D01*
X477964Y107738D01*
X478025Y107673D01*
X478084Y107606D01*
X478140Y107537D01*
X478193Y107465D01*
X478243Y107390D01*
X478289Y107314D01*
X478332Y107236D01*
X478371Y107156D01*
X478407Y107074D01*
X478440Y106991D01*
X478468Y106906D01*
X478493Y106821D01*
X478515Y106734D01*
X478532Y106646D01*
X478545Y106558D01*
X478555Y106469D01*
X478561Y106380D01*
X478563Y106291D01*
X478561Y106202D01*
X478555Y106113D01*
X478545Y106024D01*
X478532Y105936D01*
X478515Y105848D01*
X478493Y105761D01*
X478468Y105676D01*
X478440Y105591D01*
X478407Y105508D01*
X478371Y105426D01*
X478332Y105346D01*
X478289Y105268D01*
X478243Y105192D01*
X478193Y105117D01*
X478140Y105045D01*
X478084Y104976D01*
X478025Y104909D01*
X477964Y104844D01*
X477899Y104783D01*
X477832Y104724D01*
X477763Y104668D01*
X477691Y104615D01*
X477616Y104565D01*
X477540Y104519D01*
X477462Y104476D01*
X477382Y104437D01*
X477300Y104401D01*
X477217Y104368D01*
X477132Y104340D01*
X477047Y104315D01*
X476960Y104293D01*
X476872Y104276D01*
X476784Y104263D01*
X476695Y104253D01*
X476606Y104247D01*
X476517Y104245D01*
X474471Y104245D01*
X476926Y104245D02*
X478563Y100971D01*
X485828Y106496D02*
X485826Y106581D01*
X485820Y106666D01*
X485810Y106750D01*
X485797Y106834D01*
X485779Y106918D01*
X485758Y107000D01*
X485733Y107081D01*
X485704Y107161D01*
X485671Y107240D01*
X485635Y107317D01*
X485595Y107392D01*
X485552Y107466D01*
X485506Y107537D01*
X485456Y107606D01*
X485403Y107673D01*
X485347Y107737D01*
X485288Y107798D01*
X485227Y107857D01*
X485163Y107913D01*
X485096Y107966D01*
X485027Y108016D01*
X484956Y108062D01*
X484882Y108105D01*
X484807Y108145D01*
X484730Y108181D01*
X484651Y108214D01*
X484571Y108243D01*
X484490Y108268D01*
X484408Y108289D01*
X484324Y108307D01*
X484240Y108320D01*
X484156Y108330D01*
X484071Y108336D01*
X483986Y108338D01*
X483986Y108337D02*
X483890Y108335D01*
X483794Y108329D01*
X483699Y108319D01*
X483604Y108306D01*
X483509Y108288D01*
X483416Y108267D01*
X483323Y108242D01*
X483232Y108213D01*
X483141Y108181D01*
X483052Y108145D01*
X482965Y108105D01*
X482879Y108062D01*
X482795Y108016D01*
X482713Y107966D01*
X482633Y107912D01*
X482556Y107856D01*
X482481Y107796D01*
X482408Y107734D01*
X482338Y107668D01*
X482270Y107600D01*
X482205Y107529D01*
X482144Y107456D01*
X482085Y107380D01*
X482029Y107301D01*
X481977Y107221D01*
X481928Y107138D01*
X481882Y107054D01*
X481840Y106968D01*
X481802Y106880D01*
X481767Y106791D01*
X481735Y106700D01*
X485213Y105064D02*
X485273Y105123D01*
X485330Y105185D01*
X485385Y105249D01*
X485436Y105316D01*
X485485Y105385D01*
X485531Y105455D01*
X485574Y105528D01*
X485614Y105602D01*
X485650Y105678D01*
X485683Y105756D01*
X485713Y105835D01*
X485740Y105915D01*
X485763Y105996D01*
X485782Y106078D01*
X485798Y106160D01*
X485811Y106244D01*
X485820Y106328D01*
X485825Y106412D01*
X485827Y106496D01*
X485213Y105063D02*
X481735Y100971D01*
X485827Y100971D01*
X456315Y101021D02*
X454678Y101021D01*
X454600Y101023D01*
X454522Y101028D01*
X454445Y101038D01*
X454368Y101051D01*
X454292Y101067D01*
X454217Y101087D01*
X454143Y101111D01*
X454070Y101138D01*
X453998Y101169D01*
X453928Y101203D01*
X453860Y101240D01*
X453793Y101281D01*
X453728Y101325D01*
X453666Y101371D01*
X453606Y101421D01*
X453548Y101473D01*
X453493Y101528D01*
X453441Y101586D01*
X453391Y101646D01*
X453345Y101708D01*
X453301Y101773D01*
X453260Y101840D01*
X453223Y101908D01*
X453189Y101978D01*
X453158Y102050D01*
X453131Y102123D01*
X453107Y102197D01*
X453087Y102272D01*
X453071Y102348D01*
X453058Y102425D01*
X453048Y102502D01*
X453043Y102580D01*
X453041Y102658D01*
X453041Y106750D01*
X453043Y106830D01*
X453049Y106910D01*
X453059Y106990D01*
X453072Y107069D01*
X453090Y107148D01*
X453111Y107225D01*
X453137Y107301D01*
X453166Y107376D01*
X453198Y107450D01*
X453234Y107522D01*
X453274Y107592D01*
X453317Y107659D01*
X453363Y107725D01*
X453413Y107788D01*
X453465Y107849D01*
X453520Y107908D01*
X453579Y107963D01*
X453639Y108015D01*
X453703Y108065D01*
X453769Y108111D01*
X453836Y108154D01*
X453906Y108194D01*
X453978Y108230D01*
X454052Y108262D01*
X454126Y108291D01*
X454203Y108317D01*
X454280Y108338D01*
X454359Y108356D01*
X454438Y108369D01*
X454518Y108379D01*
X454598Y108385D01*
X454678Y108387D01*
X456315Y108387D01*
X461411Y108388D02*
X461496Y108386D01*
X461581Y108380D01*
X461665Y108370D01*
X461749Y108357D01*
X461833Y108339D01*
X461915Y108318D01*
X461996Y108293D01*
X462076Y108264D01*
X462155Y108231D01*
X462232Y108195D01*
X462307Y108155D01*
X462381Y108112D01*
X462452Y108066D01*
X462521Y108016D01*
X462588Y107963D01*
X462652Y107907D01*
X462713Y107848D01*
X462772Y107787D01*
X462828Y107723D01*
X462881Y107656D01*
X462931Y107587D01*
X462977Y107516D01*
X463020Y107442D01*
X463060Y107367D01*
X463096Y107290D01*
X463129Y107211D01*
X463158Y107131D01*
X463183Y107050D01*
X463204Y106968D01*
X463222Y106884D01*
X463235Y106800D01*
X463245Y106716D01*
X463251Y106631D01*
X463253Y106546D01*
X461411Y108387D02*
X461315Y108385D01*
X461219Y108379D01*
X461124Y108369D01*
X461029Y108356D01*
X460934Y108338D01*
X460841Y108317D01*
X460748Y108292D01*
X460657Y108263D01*
X460566Y108231D01*
X460477Y108195D01*
X460390Y108155D01*
X460304Y108112D01*
X460220Y108066D01*
X460138Y108016D01*
X460058Y107962D01*
X459981Y107906D01*
X459906Y107846D01*
X459833Y107784D01*
X459763Y107718D01*
X459695Y107650D01*
X459630Y107579D01*
X459569Y107506D01*
X459510Y107430D01*
X459454Y107351D01*
X459402Y107271D01*
X459353Y107188D01*
X459307Y107104D01*
X459265Y107018D01*
X459227Y106930D01*
X459192Y106841D01*
X459160Y106750D01*
X462638Y105114D02*
X462698Y105173D01*
X462755Y105235D01*
X462810Y105299D01*
X462861Y105366D01*
X462910Y105435D01*
X462956Y105505D01*
X462999Y105578D01*
X463039Y105652D01*
X463075Y105728D01*
X463108Y105806D01*
X463138Y105885D01*
X463165Y105965D01*
X463188Y106046D01*
X463207Y106128D01*
X463223Y106210D01*
X463236Y106294D01*
X463245Y106378D01*
X463250Y106462D01*
X463252Y106546D01*
X462638Y105113D02*
X459160Y101021D01*
X463252Y101021D01*
D21*
X110750Y35500D02*
X96250Y26000D01*
X110750Y35500D02*
X110750Y16500D01*
X96250Y26000D01*
D22*
X95750Y26000D03*
D20*
X178541Y21353D02*
X185907Y21353D01*
X178541Y21353D02*
X178541Y23399D01*
X178543Y23488D01*
X178549Y23577D01*
X178559Y23666D01*
X178572Y23754D01*
X178589Y23842D01*
X178611Y23929D01*
X178636Y24014D01*
X178664Y24099D01*
X178697Y24182D01*
X178733Y24264D01*
X178772Y24344D01*
X178815Y24422D01*
X178861Y24498D01*
X178911Y24573D01*
X178964Y24645D01*
X179020Y24714D01*
X179079Y24781D01*
X179140Y24846D01*
X179205Y24907D01*
X179272Y24966D01*
X179341Y25022D01*
X179413Y25075D01*
X179488Y25125D01*
X179564Y25171D01*
X179642Y25214D01*
X179722Y25253D01*
X179804Y25289D01*
X179887Y25322D01*
X179972Y25350D01*
X180057Y25375D01*
X180144Y25397D01*
X180232Y25414D01*
X180320Y25427D01*
X180409Y25437D01*
X180498Y25443D01*
X180587Y25445D01*
X180676Y25443D01*
X180765Y25437D01*
X180854Y25427D01*
X180942Y25414D01*
X181030Y25397D01*
X181117Y25375D01*
X181202Y25350D01*
X181287Y25322D01*
X181370Y25289D01*
X181452Y25253D01*
X181532Y25214D01*
X181610Y25171D01*
X181686Y25125D01*
X181761Y25075D01*
X181833Y25022D01*
X181902Y24966D01*
X181969Y24907D01*
X182034Y24846D01*
X182095Y24781D01*
X182154Y24714D01*
X182210Y24645D01*
X182263Y24573D01*
X182313Y24498D01*
X182359Y24422D01*
X182402Y24344D01*
X182441Y24264D01*
X182477Y24182D01*
X182510Y24099D01*
X182538Y24014D01*
X182563Y23929D01*
X182585Y23842D01*
X182602Y23754D01*
X182615Y23666D01*
X182625Y23577D01*
X182631Y23488D01*
X182633Y23399D01*
X182633Y21353D01*
X182633Y23808D02*
X185907Y25445D01*
X185907Y28617D02*
X185907Y30663D01*
X185905Y30752D01*
X185899Y30841D01*
X185889Y30930D01*
X185876Y31018D01*
X185859Y31106D01*
X185837Y31193D01*
X185812Y31278D01*
X185784Y31363D01*
X185751Y31446D01*
X185715Y31528D01*
X185676Y31608D01*
X185633Y31686D01*
X185587Y31762D01*
X185537Y31837D01*
X185484Y31909D01*
X185428Y31978D01*
X185369Y32045D01*
X185308Y32110D01*
X185243Y32171D01*
X185176Y32230D01*
X185107Y32286D01*
X185035Y32339D01*
X184960Y32389D01*
X184884Y32435D01*
X184806Y32478D01*
X184726Y32517D01*
X184644Y32553D01*
X184561Y32586D01*
X184476Y32614D01*
X184391Y32639D01*
X184304Y32661D01*
X184216Y32678D01*
X184128Y32691D01*
X184039Y32701D01*
X183950Y32707D01*
X183861Y32709D01*
X183772Y32707D01*
X183683Y32701D01*
X183594Y32691D01*
X183506Y32678D01*
X183418Y32661D01*
X183331Y32639D01*
X183246Y32614D01*
X183161Y32586D01*
X183078Y32553D01*
X182996Y32517D01*
X182916Y32478D01*
X182838Y32435D01*
X182762Y32389D01*
X182687Y32339D01*
X182615Y32286D01*
X182546Y32230D01*
X182479Y32171D01*
X182414Y32110D01*
X182353Y32045D01*
X182294Y31978D01*
X182238Y31909D01*
X182185Y31837D01*
X182135Y31762D01*
X182089Y31686D01*
X182046Y31608D01*
X182007Y31528D01*
X181971Y31446D01*
X181938Y31363D01*
X181910Y31278D01*
X181885Y31193D01*
X181863Y31106D01*
X181846Y31018D01*
X181833Y30930D01*
X181823Y30841D01*
X181817Y30752D01*
X181815Y30663D01*
X178541Y31072D02*
X178541Y28617D01*
X178541Y31072D02*
X178543Y31151D01*
X178549Y31230D01*
X178558Y31309D01*
X178571Y31387D01*
X178589Y31464D01*
X178609Y31540D01*
X178634Y31615D01*
X178662Y31689D01*
X178693Y31762D01*
X178729Y31833D01*
X178767Y31902D01*
X178809Y31969D01*
X178854Y32034D01*
X178902Y32097D01*
X178953Y32158D01*
X179007Y32215D01*
X179063Y32271D01*
X179122Y32323D01*
X179184Y32373D01*
X179248Y32419D01*
X179314Y32463D01*
X179382Y32503D01*
X179452Y32539D01*
X179524Y32573D01*
X179598Y32603D01*
X179672Y32629D01*
X179748Y32652D01*
X179825Y32670D01*
X179902Y32686D01*
X179981Y32697D01*
X180059Y32705D01*
X180138Y32709D01*
X180218Y32709D01*
X180297Y32705D01*
X180375Y32697D01*
X180454Y32686D01*
X180531Y32670D01*
X180608Y32652D01*
X180684Y32629D01*
X180758Y32603D01*
X180832Y32573D01*
X180904Y32539D01*
X180974Y32503D01*
X181042Y32463D01*
X181108Y32419D01*
X181172Y32373D01*
X181234Y32323D01*
X181293Y32271D01*
X181349Y32215D01*
X181403Y32158D01*
X181454Y32097D01*
X181502Y32034D01*
X181547Y31969D01*
X181589Y31902D01*
X181627Y31833D01*
X181663Y31762D01*
X181694Y31689D01*
X181722Y31615D01*
X181747Y31540D01*
X181767Y31464D01*
X181785Y31387D01*
X181798Y31309D01*
X181807Y31230D01*
X181813Y31151D01*
X181815Y31072D01*
X181815Y29435D01*
X62923Y233093D02*
X62923Y240459D01*
X64969Y240459D01*
X65058Y240457D01*
X65147Y240451D01*
X65236Y240441D01*
X65324Y240428D01*
X65412Y240411D01*
X65499Y240389D01*
X65584Y240364D01*
X65669Y240336D01*
X65752Y240303D01*
X65834Y240267D01*
X65914Y240228D01*
X65992Y240185D01*
X66068Y240139D01*
X66143Y240089D01*
X66215Y240036D01*
X66284Y239980D01*
X66351Y239921D01*
X66416Y239860D01*
X66477Y239795D01*
X66536Y239728D01*
X66592Y239659D01*
X66645Y239587D01*
X66695Y239512D01*
X66741Y239436D01*
X66784Y239358D01*
X66823Y239278D01*
X66859Y239196D01*
X66892Y239113D01*
X66920Y239028D01*
X66945Y238943D01*
X66967Y238856D01*
X66984Y238768D01*
X66997Y238680D01*
X67007Y238591D01*
X67013Y238502D01*
X67015Y238413D01*
X67013Y238324D01*
X67007Y238235D01*
X66997Y238146D01*
X66984Y238058D01*
X66967Y237970D01*
X66945Y237883D01*
X66920Y237798D01*
X66892Y237713D01*
X66859Y237630D01*
X66823Y237548D01*
X66784Y237468D01*
X66741Y237390D01*
X66695Y237314D01*
X66645Y237239D01*
X66592Y237167D01*
X66536Y237098D01*
X66477Y237031D01*
X66416Y236966D01*
X66351Y236905D01*
X66284Y236846D01*
X66215Y236790D01*
X66143Y236737D01*
X66068Y236687D01*
X65992Y236641D01*
X65914Y236598D01*
X65834Y236559D01*
X65752Y236523D01*
X65669Y236490D01*
X65584Y236462D01*
X65499Y236437D01*
X65412Y236415D01*
X65324Y236398D01*
X65236Y236385D01*
X65147Y236375D01*
X65058Y236369D01*
X64969Y236367D01*
X62923Y236367D01*
X65378Y236367D02*
X67015Y233093D01*
X70187Y234730D02*
X71824Y240459D01*
X70187Y234730D02*
X74279Y234730D01*
X73051Y236367D02*
X73051Y233093D01*
X9724Y257304D02*
X9724Y263569D01*
X12857Y260436D02*
X6592Y260436D01*
D23*
X30500Y257250D03*
X30500Y245250D03*
D24*
X30500Y251250D03*
D20*
X56428Y45271D02*
X58065Y45271D01*
X56428Y45271D02*
X56350Y45273D01*
X56272Y45278D01*
X56195Y45288D01*
X56118Y45301D01*
X56042Y45317D01*
X55967Y45337D01*
X55893Y45361D01*
X55820Y45388D01*
X55748Y45419D01*
X55678Y45453D01*
X55610Y45490D01*
X55543Y45531D01*
X55478Y45575D01*
X55416Y45621D01*
X55356Y45671D01*
X55298Y45723D01*
X55243Y45778D01*
X55191Y45836D01*
X55141Y45896D01*
X55095Y45958D01*
X55051Y46023D01*
X55010Y46090D01*
X54973Y46158D01*
X54939Y46228D01*
X54908Y46300D01*
X54881Y46373D01*
X54857Y46447D01*
X54837Y46522D01*
X54821Y46598D01*
X54808Y46675D01*
X54798Y46752D01*
X54793Y46830D01*
X54791Y46908D01*
X54791Y51000D01*
X54793Y51080D01*
X54799Y51160D01*
X54809Y51240D01*
X54822Y51319D01*
X54840Y51398D01*
X54861Y51475D01*
X54887Y51551D01*
X54916Y51626D01*
X54948Y51700D01*
X54984Y51772D01*
X55024Y51842D01*
X55067Y51909D01*
X55113Y51975D01*
X55163Y52038D01*
X55215Y52099D01*
X55270Y52158D01*
X55329Y52213D01*
X55389Y52265D01*
X55453Y52315D01*
X55519Y52361D01*
X55586Y52404D01*
X55656Y52444D01*
X55728Y52480D01*
X55802Y52512D01*
X55876Y52541D01*
X55953Y52567D01*
X56030Y52588D01*
X56109Y52606D01*
X56188Y52619D01*
X56268Y52629D01*
X56348Y52635D01*
X56428Y52637D01*
X58065Y52637D01*
X60910Y45271D02*
X62956Y45271D01*
X63045Y45273D01*
X63134Y45279D01*
X63223Y45289D01*
X63311Y45302D01*
X63399Y45319D01*
X63486Y45341D01*
X63571Y45366D01*
X63656Y45394D01*
X63739Y45427D01*
X63821Y45463D01*
X63901Y45502D01*
X63979Y45545D01*
X64055Y45591D01*
X64130Y45641D01*
X64202Y45694D01*
X64271Y45750D01*
X64338Y45809D01*
X64403Y45870D01*
X64464Y45935D01*
X64523Y46002D01*
X64579Y46071D01*
X64632Y46143D01*
X64682Y46218D01*
X64728Y46294D01*
X64771Y46372D01*
X64810Y46452D01*
X64846Y46534D01*
X64879Y46617D01*
X64907Y46702D01*
X64932Y46787D01*
X64954Y46874D01*
X64971Y46962D01*
X64984Y47050D01*
X64994Y47139D01*
X65000Y47228D01*
X65002Y47317D01*
X65000Y47406D01*
X64994Y47495D01*
X64984Y47584D01*
X64971Y47672D01*
X64954Y47760D01*
X64932Y47847D01*
X64907Y47932D01*
X64879Y48017D01*
X64846Y48100D01*
X64810Y48182D01*
X64771Y48262D01*
X64728Y48340D01*
X64682Y48416D01*
X64632Y48491D01*
X64579Y48563D01*
X64523Y48632D01*
X64464Y48699D01*
X64403Y48764D01*
X64338Y48825D01*
X64271Y48884D01*
X64202Y48940D01*
X64130Y48993D01*
X64055Y49043D01*
X63979Y49089D01*
X63901Y49132D01*
X63821Y49171D01*
X63739Y49207D01*
X63656Y49240D01*
X63571Y49268D01*
X63486Y49293D01*
X63399Y49315D01*
X63311Y49332D01*
X63223Y49345D01*
X63134Y49355D01*
X63045Y49361D01*
X62956Y49363D01*
X63365Y52637D02*
X60910Y52637D01*
X63365Y52637D02*
X63444Y52635D01*
X63523Y52629D01*
X63602Y52620D01*
X63680Y52607D01*
X63757Y52589D01*
X63833Y52569D01*
X63908Y52544D01*
X63982Y52516D01*
X64055Y52485D01*
X64126Y52449D01*
X64195Y52411D01*
X64262Y52369D01*
X64327Y52324D01*
X64390Y52276D01*
X64451Y52225D01*
X64508Y52171D01*
X64564Y52115D01*
X64616Y52056D01*
X64666Y51994D01*
X64712Y51930D01*
X64756Y51864D01*
X64796Y51796D01*
X64832Y51726D01*
X64866Y51654D01*
X64896Y51580D01*
X64922Y51506D01*
X64945Y51430D01*
X64963Y51353D01*
X64979Y51276D01*
X64990Y51197D01*
X64998Y51119D01*
X65002Y51040D01*
X65002Y50960D01*
X64998Y50881D01*
X64990Y50803D01*
X64979Y50724D01*
X64963Y50647D01*
X64945Y50570D01*
X64922Y50494D01*
X64896Y50420D01*
X64866Y50346D01*
X64832Y50274D01*
X64796Y50204D01*
X64756Y50136D01*
X64712Y50070D01*
X64666Y50006D01*
X64616Y49944D01*
X64564Y49885D01*
X64508Y49829D01*
X64451Y49775D01*
X64390Y49724D01*
X64327Y49676D01*
X64262Y49631D01*
X64195Y49589D01*
X64126Y49551D01*
X64055Y49515D01*
X63982Y49484D01*
X63908Y49456D01*
X63833Y49431D01*
X63757Y49411D01*
X63680Y49393D01*
X63602Y49380D01*
X63523Y49371D01*
X63444Y49365D01*
X63365Y49363D01*
X61729Y49363D01*
X335509Y192858D02*
X335509Y194495D01*
X335509Y192858D02*
X335507Y192780D01*
X335502Y192702D01*
X335492Y192625D01*
X335479Y192548D01*
X335463Y192472D01*
X335443Y192397D01*
X335419Y192323D01*
X335392Y192250D01*
X335361Y192178D01*
X335327Y192108D01*
X335290Y192040D01*
X335249Y191973D01*
X335205Y191908D01*
X335159Y191846D01*
X335109Y191786D01*
X335057Y191728D01*
X335002Y191673D01*
X334944Y191621D01*
X334884Y191571D01*
X334822Y191525D01*
X334757Y191481D01*
X334691Y191440D01*
X334622Y191403D01*
X334552Y191369D01*
X334480Y191338D01*
X334407Y191311D01*
X334333Y191287D01*
X334258Y191267D01*
X334182Y191251D01*
X334105Y191238D01*
X334028Y191228D01*
X333950Y191223D01*
X333872Y191221D01*
X329780Y191221D01*
X329700Y191223D01*
X329620Y191229D01*
X329540Y191239D01*
X329461Y191252D01*
X329382Y191270D01*
X329305Y191291D01*
X329229Y191317D01*
X329154Y191346D01*
X329080Y191378D01*
X329008Y191414D01*
X328938Y191454D01*
X328871Y191497D01*
X328805Y191543D01*
X328742Y191593D01*
X328681Y191645D01*
X328622Y191700D01*
X328567Y191759D01*
X328515Y191819D01*
X328465Y191883D01*
X328419Y191948D01*
X328376Y192016D01*
X328336Y192086D01*
X328300Y192158D01*
X328268Y192232D01*
X328239Y192306D01*
X328214Y192383D01*
X328192Y192460D01*
X328174Y192539D01*
X328161Y192618D01*
X328151Y192697D01*
X328145Y192778D01*
X328143Y192858D01*
X328143Y194495D01*
X328143Y198977D02*
X333872Y197340D01*
X333872Y201432D01*
X332235Y200205D02*
X335509Y200205D01*
D21*
X476500Y259500D02*
X515500Y259500D01*
X515500Y230500D02*
X476500Y230500D01*
X467157Y245140D02*
X467159Y245195D01*
X467165Y245250D01*
X467175Y245304D01*
X467189Y245357D01*
X467206Y245410D01*
X467228Y245460D01*
X467252Y245510D01*
X467281Y245557D01*
X467313Y245602D01*
X467347Y245644D01*
X467385Y245684D01*
X467426Y245722D01*
X467469Y245756D01*
X467515Y245787D01*
X467563Y245814D01*
X467612Y245838D01*
X467663Y245859D01*
X467716Y245875D01*
X467769Y245888D01*
X467824Y245897D01*
X467879Y245902D01*
X467934Y245903D01*
X467989Y245900D01*
X468043Y245893D01*
X468097Y245882D01*
X468151Y245867D01*
X468202Y245849D01*
X468253Y245827D01*
X468301Y245801D01*
X468348Y245772D01*
X468393Y245739D01*
X468435Y245703D01*
X468474Y245665D01*
X468510Y245623D01*
X468544Y245580D01*
X468574Y245533D01*
X468600Y245485D01*
X468624Y245435D01*
X468643Y245384D01*
X468659Y245331D01*
X468671Y245277D01*
X468679Y245222D01*
X468683Y245168D01*
X468683Y245112D01*
X468679Y245058D01*
X468671Y245003D01*
X468659Y244949D01*
X468643Y244896D01*
X468624Y244845D01*
X468600Y244795D01*
X468574Y244747D01*
X468544Y244700D01*
X468510Y244657D01*
X468474Y244615D01*
X468435Y244577D01*
X468393Y244541D01*
X468348Y244508D01*
X468302Y244479D01*
X468253Y244453D01*
X468202Y244431D01*
X468151Y244413D01*
X468097Y244398D01*
X468043Y244387D01*
X467989Y244380D01*
X467934Y244377D01*
X467879Y244378D01*
X467824Y244383D01*
X467769Y244392D01*
X467716Y244405D01*
X467663Y244421D01*
X467612Y244442D01*
X467563Y244466D01*
X467515Y244493D01*
X467469Y244524D01*
X467426Y244558D01*
X467385Y244596D01*
X467347Y244636D01*
X467313Y244678D01*
X467281Y244723D01*
X467252Y244770D01*
X467228Y244820D01*
X467206Y244870D01*
X467189Y244923D01*
X467175Y244976D01*
X467165Y245030D01*
X467159Y245085D01*
X467157Y245140D01*
X445500Y259500D02*
X406500Y259500D01*
X406500Y230500D02*
X445500Y230500D01*
X397157Y245140D02*
X397159Y245195D01*
X397165Y245250D01*
X397175Y245304D01*
X397189Y245357D01*
X397206Y245410D01*
X397228Y245460D01*
X397252Y245510D01*
X397281Y245557D01*
X397313Y245602D01*
X397347Y245644D01*
X397385Y245684D01*
X397426Y245722D01*
X397469Y245756D01*
X397515Y245787D01*
X397563Y245814D01*
X397612Y245838D01*
X397663Y245859D01*
X397716Y245875D01*
X397769Y245888D01*
X397824Y245897D01*
X397879Y245902D01*
X397934Y245903D01*
X397989Y245900D01*
X398043Y245893D01*
X398097Y245882D01*
X398151Y245867D01*
X398202Y245849D01*
X398253Y245827D01*
X398301Y245801D01*
X398348Y245772D01*
X398393Y245739D01*
X398435Y245703D01*
X398474Y245665D01*
X398510Y245623D01*
X398544Y245580D01*
X398574Y245533D01*
X398600Y245485D01*
X398624Y245435D01*
X398643Y245384D01*
X398659Y245331D01*
X398671Y245277D01*
X398679Y245222D01*
X398683Y245168D01*
X398683Y245112D01*
X398679Y245058D01*
X398671Y245003D01*
X398659Y244949D01*
X398643Y244896D01*
X398624Y244845D01*
X398600Y244795D01*
X398574Y244747D01*
X398544Y244700D01*
X398510Y244657D01*
X398474Y244615D01*
X398435Y244577D01*
X398393Y244541D01*
X398348Y244508D01*
X398302Y244479D01*
X398253Y244453D01*
X398202Y244431D01*
X398151Y244413D01*
X398097Y244398D01*
X398043Y244387D01*
X397989Y244380D01*
X397934Y244377D01*
X397879Y244378D01*
X397824Y244383D01*
X397769Y244392D01*
X397716Y244405D01*
X397663Y244421D01*
X397612Y244442D01*
X397563Y244466D01*
X397515Y244493D01*
X397469Y244524D01*
X397426Y244558D01*
X397385Y244596D01*
X397347Y244636D01*
X397313Y244678D01*
X397281Y244723D01*
X397252Y244770D01*
X397228Y244820D01*
X397206Y244870D01*
X397189Y244923D01*
X397175Y244976D01*
X397165Y245030D01*
X397159Y245085D01*
X397157Y245140D01*
D18*
X297000Y45000D02*
X297000Y17000D01*
X297000Y45000D02*
X325000Y45000D01*
X325000Y17000D01*
X297000Y17000D01*
X315000Y24000D02*
X315002Y23882D01*
X315008Y23764D01*
X315018Y23646D01*
X315032Y23529D01*
X315050Y23412D01*
X315072Y23295D01*
X315097Y23180D01*
X315127Y23066D01*
X315161Y22952D01*
X315198Y22840D01*
X315239Y22729D01*
X315284Y22620D01*
X315332Y22512D01*
X315384Y22406D01*
X315440Y22301D01*
X315499Y22199D01*
X315561Y22099D01*
X315627Y22001D01*
X315696Y21905D01*
X315769Y21811D01*
X315844Y21720D01*
X315923Y21632D01*
X316004Y21546D01*
X316089Y21463D01*
X316176Y21383D01*
X316265Y21306D01*
X316358Y21232D01*
X316452Y21162D01*
X316549Y21094D01*
X316649Y21030D01*
X316750Y20969D01*
X316853Y20912D01*
X316959Y20858D01*
X317066Y20807D01*
X317174Y20761D01*
X317284Y20718D01*
X317396Y20679D01*
X317509Y20643D01*
X317623Y20612D01*
X317738Y20584D01*
X317853Y20560D01*
X317970Y20540D01*
X318087Y20524D01*
X318205Y20512D01*
X318323Y20504D01*
X318441Y20500D01*
X318559Y20500D01*
X318677Y20504D01*
X318795Y20512D01*
X318913Y20524D01*
X319030Y20540D01*
X319147Y20560D01*
X319262Y20584D01*
X319377Y20612D01*
X319491Y20643D01*
X319604Y20679D01*
X319716Y20718D01*
X319826Y20761D01*
X319934Y20807D01*
X320041Y20858D01*
X320147Y20912D01*
X320250Y20969D01*
X320351Y21030D01*
X320451Y21094D01*
X320548Y21162D01*
X320642Y21232D01*
X320735Y21306D01*
X320824Y21383D01*
X320911Y21463D01*
X320996Y21546D01*
X321077Y21632D01*
X321156Y21720D01*
X321231Y21811D01*
X321304Y21905D01*
X321373Y22001D01*
X321439Y22099D01*
X321501Y22199D01*
X321560Y22301D01*
X321616Y22406D01*
X321668Y22512D01*
X321716Y22620D01*
X321761Y22729D01*
X321802Y22840D01*
X321839Y22952D01*
X321873Y23066D01*
X321903Y23180D01*
X321928Y23295D01*
X321950Y23412D01*
X321968Y23529D01*
X321982Y23646D01*
X321992Y23764D01*
X321998Y23882D01*
X322000Y24000D01*
X315000Y24000D01*
D20*
X290729Y50178D02*
X290729Y51815D01*
X290729Y50178D02*
X290727Y50100D01*
X290722Y50022D01*
X290712Y49945D01*
X290699Y49868D01*
X290683Y49792D01*
X290663Y49717D01*
X290639Y49643D01*
X290612Y49570D01*
X290581Y49498D01*
X290547Y49428D01*
X290510Y49360D01*
X290469Y49293D01*
X290425Y49228D01*
X290379Y49166D01*
X290329Y49106D01*
X290277Y49048D01*
X290222Y48993D01*
X290164Y48941D01*
X290104Y48891D01*
X290042Y48845D01*
X289977Y48801D01*
X289911Y48760D01*
X289842Y48723D01*
X289772Y48689D01*
X289700Y48658D01*
X289627Y48631D01*
X289553Y48607D01*
X289478Y48587D01*
X289402Y48571D01*
X289325Y48558D01*
X289248Y48548D01*
X289170Y48543D01*
X289092Y48541D01*
X285000Y48541D01*
X284920Y48543D01*
X284840Y48549D01*
X284760Y48559D01*
X284681Y48572D01*
X284602Y48590D01*
X284525Y48611D01*
X284449Y48637D01*
X284374Y48666D01*
X284300Y48698D01*
X284228Y48734D01*
X284158Y48774D01*
X284091Y48817D01*
X284025Y48863D01*
X283962Y48913D01*
X283901Y48965D01*
X283842Y49020D01*
X283787Y49079D01*
X283735Y49139D01*
X283685Y49203D01*
X283639Y49268D01*
X283596Y49336D01*
X283556Y49406D01*
X283520Y49478D01*
X283488Y49552D01*
X283459Y49626D01*
X283434Y49703D01*
X283412Y49780D01*
X283394Y49859D01*
X283381Y49938D01*
X283371Y50017D01*
X283365Y50098D01*
X283363Y50178D01*
X283363Y51815D01*
X290729Y54660D02*
X290729Y57115D01*
X290727Y57193D01*
X290722Y57271D01*
X290712Y57348D01*
X290699Y57425D01*
X290683Y57501D01*
X290663Y57576D01*
X290639Y57650D01*
X290612Y57723D01*
X290581Y57795D01*
X290547Y57865D01*
X290510Y57934D01*
X290469Y58000D01*
X290425Y58065D01*
X290379Y58127D01*
X290329Y58187D01*
X290277Y58245D01*
X290222Y58300D01*
X290164Y58352D01*
X290104Y58402D01*
X290042Y58448D01*
X289977Y58492D01*
X289911Y58533D01*
X289842Y58570D01*
X289772Y58604D01*
X289700Y58635D01*
X289627Y58662D01*
X289553Y58686D01*
X289478Y58706D01*
X289402Y58722D01*
X289325Y58735D01*
X289248Y58745D01*
X289170Y58750D01*
X289092Y58752D01*
X288274Y58752D01*
X288194Y58750D01*
X288114Y58744D01*
X288034Y58734D01*
X287955Y58721D01*
X287876Y58703D01*
X287799Y58682D01*
X287723Y58656D01*
X287648Y58627D01*
X287574Y58595D01*
X287502Y58559D01*
X287432Y58519D01*
X287365Y58476D01*
X287299Y58430D01*
X287236Y58380D01*
X287175Y58328D01*
X287116Y58273D01*
X287061Y58214D01*
X287009Y58154D01*
X286959Y58090D01*
X286913Y58024D01*
X286870Y57957D01*
X286830Y57887D01*
X286794Y57815D01*
X286762Y57741D01*
X286733Y57667D01*
X286707Y57590D01*
X286686Y57513D01*
X286668Y57434D01*
X286655Y57355D01*
X286645Y57275D01*
X286639Y57195D01*
X286637Y57115D01*
X286637Y54660D01*
X283363Y54660D01*
X283363Y58752D01*
D18*
X459476Y215224D02*
X467604Y215224D01*
X467604Y208636D01*
X467604Y186776D02*
X459476Y186776D01*
X467604Y186776D02*
X467604Y193364D01*
D12*
X481476Y199882D02*
X481476Y202817D01*
X481477Y202817D02*
X481479Y202902D01*
X481485Y202986D01*
X481495Y203070D01*
X481508Y203154D01*
X481526Y203237D01*
X481547Y203319D01*
X481572Y203400D01*
X481601Y203480D01*
X481633Y203558D01*
X481669Y203634D01*
X481709Y203709D01*
X481752Y203782D01*
X481798Y203853D01*
X481847Y203922D01*
X481900Y203989D01*
X481956Y204053D01*
X482014Y204114D01*
X482075Y204172D01*
X482139Y204228D01*
X482206Y204281D01*
X482275Y204330D01*
X482346Y204376D01*
X482419Y204419D01*
X482494Y204459D01*
X482570Y204495D01*
X482648Y204527D01*
X482728Y204556D01*
X482809Y204581D01*
X482891Y204602D01*
X482974Y204620D01*
X483058Y204633D01*
X483142Y204643D01*
X483226Y204649D01*
X483311Y204651D01*
X483396Y204649D01*
X483480Y204643D01*
X483564Y204633D01*
X483648Y204620D01*
X483731Y204602D01*
X483813Y204581D01*
X483894Y204556D01*
X483974Y204527D01*
X484052Y204495D01*
X484128Y204459D01*
X484203Y204419D01*
X484276Y204376D01*
X484347Y204330D01*
X484416Y204281D01*
X484483Y204228D01*
X484547Y204172D01*
X484608Y204114D01*
X484666Y204053D01*
X484722Y203989D01*
X484775Y203922D01*
X484824Y203853D01*
X484870Y203782D01*
X484913Y203709D01*
X484953Y203634D01*
X484989Y203558D01*
X485021Y203480D01*
X485050Y203400D01*
X485075Y203319D01*
X485096Y203237D01*
X485114Y203154D01*
X485127Y203070D01*
X485137Y202986D01*
X485143Y202902D01*
X485145Y202817D01*
X485145Y199882D01*
X485143Y199797D01*
X485137Y199713D01*
X485127Y199629D01*
X485114Y199545D01*
X485096Y199462D01*
X485075Y199380D01*
X485050Y199299D01*
X485021Y199219D01*
X484989Y199141D01*
X484953Y199065D01*
X484913Y198990D01*
X484870Y198917D01*
X484824Y198846D01*
X484775Y198777D01*
X484722Y198710D01*
X484666Y198646D01*
X484608Y198585D01*
X484547Y198527D01*
X484483Y198471D01*
X484416Y198418D01*
X484347Y198369D01*
X484276Y198323D01*
X484203Y198280D01*
X484128Y198240D01*
X484052Y198204D01*
X483974Y198172D01*
X483894Y198143D01*
X483813Y198118D01*
X483731Y198097D01*
X483648Y198079D01*
X483564Y198066D01*
X483480Y198056D01*
X483396Y198050D01*
X483311Y198048D01*
X483226Y198050D01*
X483142Y198056D01*
X483058Y198066D01*
X482974Y198079D01*
X482891Y198097D01*
X482809Y198118D01*
X482728Y198143D01*
X482648Y198172D01*
X482570Y198204D01*
X482494Y198240D01*
X482419Y198280D01*
X482346Y198323D01*
X482275Y198369D01*
X482206Y198418D01*
X482139Y198471D01*
X482075Y198527D01*
X482014Y198585D01*
X481956Y198646D01*
X481900Y198710D01*
X481847Y198777D01*
X481798Y198846D01*
X481752Y198917D01*
X481709Y198990D01*
X481669Y199065D01*
X481633Y199141D01*
X481601Y199219D01*
X481572Y199299D01*
X481547Y199380D01*
X481526Y199462D01*
X481508Y199545D01*
X481495Y199629D01*
X481485Y199713D01*
X481479Y199797D01*
X481477Y199882D01*
X484411Y199515D02*
X485879Y198048D01*
X488322Y203184D02*
X490156Y204652D01*
X490156Y198048D01*
X488322Y198048D02*
X491990Y198048D01*
M02*
