G04 EAGLE Gerber RS-274X export*
G75*
%MOMM*%
%FSLAX34Y34*%
%LPD*%
%INSilkscreen Bottom*%
%IPPOS*%
%AMOC8*
5,1,8,0,0,1.08239X$1,22.5*%
G01*
%ADD10C,0.685800*%
%ADD11C,0.228600*%
%ADD12C,0.200000*%
%ADD13C,0.127000*%
%ADD14C,0.050800*%
%ADD15C,0.076200*%


D10*
X52596Y185135D02*
X21354Y185135D01*
X21354Y176456D01*
X21357Y176245D01*
X21364Y176033D01*
X21377Y175823D01*
X21395Y175612D01*
X21418Y175402D01*
X21446Y175192D01*
X21480Y174984D01*
X21518Y174776D01*
X21562Y174569D01*
X21610Y174363D01*
X21664Y174159D01*
X21722Y173956D01*
X21785Y173754D01*
X21854Y173554D01*
X21927Y173356D01*
X22005Y173159D01*
X22087Y172965D01*
X22175Y172773D01*
X22267Y172582D01*
X22363Y172394D01*
X22464Y172209D01*
X22570Y172026D01*
X22680Y171845D01*
X22795Y171668D01*
X22913Y171493D01*
X23036Y171321D01*
X23163Y171152D01*
X23295Y170987D01*
X23430Y170824D01*
X23569Y170665D01*
X23712Y170509D01*
X23858Y170357D01*
X24009Y170209D01*
X24163Y170064D01*
X24320Y169923D01*
X24481Y169786D01*
X24645Y169652D01*
X24812Y169523D01*
X24983Y169398D01*
X25156Y169277D01*
X25332Y169161D01*
X25511Y169049D01*
X25693Y168941D01*
X25877Y168837D01*
X26064Y168738D01*
X26253Y168644D01*
X26445Y168554D01*
X26638Y168469D01*
X26833Y168389D01*
X27031Y168313D01*
X27230Y168243D01*
X27431Y168177D01*
X27633Y168116D01*
X27837Y168060D01*
X28042Y168009D01*
X28248Y167963D01*
X28456Y167922D01*
X28664Y167886D01*
X28873Y167856D01*
X29083Y167830D01*
X29293Y167810D01*
X29504Y167794D01*
X29715Y167784D01*
X29926Y167779D01*
X30138Y167779D01*
X30349Y167784D01*
X30560Y167794D01*
X30771Y167810D01*
X30981Y167830D01*
X31191Y167856D01*
X31400Y167886D01*
X31608Y167922D01*
X31816Y167963D01*
X32022Y168009D01*
X32227Y168060D01*
X32431Y168116D01*
X32633Y168177D01*
X32834Y168243D01*
X33033Y168313D01*
X33231Y168389D01*
X33426Y168469D01*
X33619Y168554D01*
X33811Y168644D01*
X34000Y168738D01*
X34187Y168837D01*
X34371Y168941D01*
X34553Y169049D01*
X34732Y169161D01*
X34908Y169277D01*
X35081Y169398D01*
X35252Y169523D01*
X35419Y169652D01*
X35583Y169786D01*
X35744Y169923D01*
X35901Y170064D01*
X36055Y170209D01*
X36206Y170357D01*
X36352Y170509D01*
X36495Y170665D01*
X36634Y170824D01*
X36769Y170987D01*
X36901Y171152D01*
X37028Y171321D01*
X37151Y171493D01*
X37269Y171668D01*
X37384Y171845D01*
X37494Y172026D01*
X37600Y172209D01*
X37701Y172394D01*
X37797Y172582D01*
X37889Y172773D01*
X37977Y172965D01*
X38059Y173159D01*
X38137Y173356D01*
X38210Y173554D01*
X38279Y173754D01*
X38342Y173956D01*
X38400Y174159D01*
X38454Y174363D01*
X38502Y174569D01*
X38546Y174776D01*
X38584Y174984D01*
X38618Y175192D01*
X38646Y175402D01*
X38669Y175612D01*
X38687Y175823D01*
X38700Y176033D01*
X38707Y176245D01*
X38710Y176456D01*
X38711Y176456D02*
X38711Y185135D01*
X52596Y151021D02*
X21354Y151021D01*
X21354Y159699D02*
X21354Y142343D01*
X21354Y134765D02*
X52596Y124351D01*
X21354Y113937D01*
X30032Y104454D02*
X43918Y104454D01*
X30032Y104454D02*
X29821Y104451D01*
X29609Y104444D01*
X29399Y104431D01*
X29188Y104413D01*
X28978Y104390D01*
X28768Y104362D01*
X28560Y104328D01*
X28352Y104290D01*
X28145Y104246D01*
X27939Y104198D01*
X27735Y104144D01*
X27532Y104086D01*
X27330Y104023D01*
X27130Y103954D01*
X26932Y103881D01*
X26735Y103803D01*
X26541Y103721D01*
X26349Y103633D01*
X26158Y103541D01*
X25970Y103445D01*
X25785Y103344D01*
X25602Y103238D01*
X25421Y103128D01*
X25244Y103013D01*
X25069Y102895D01*
X24897Y102772D01*
X24728Y102645D01*
X24563Y102513D01*
X24400Y102378D01*
X24241Y102239D01*
X24085Y102096D01*
X23933Y101950D01*
X23785Y101799D01*
X23640Y101645D01*
X23499Y101488D01*
X23362Y101327D01*
X23228Y101163D01*
X23099Y100996D01*
X22974Y100825D01*
X22853Y100652D01*
X22737Y100476D01*
X22625Y100297D01*
X22517Y100115D01*
X22413Y99931D01*
X22314Y99744D01*
X22220Y99555D01*
X22130Y99363D01*
X22045Y99170D01*
X21965Y98975D01*
X21889Y98777D01*
X21819Y98578D01*
X21753Y98377D01*
X21692Y98175D01*
X21636Y97971D01*
X21585Y97766D01*
X21539Y97560D01*
X21498Y97352D01*
X21462Y97144D01*
X21432Y96935D01*
X21406Y96725D01*
X21386Y96515D01*
X21370Y96304D01*
X21360Y96093D01*
X21355Y95882D01*
X21355Y95670D01*
X21360Y95459D01*
X21370Y95248D01*
X21386Y95037D01*
X21406Y94827D01*
X21432Y94617D01*
X21462Y94408D01*
X21498Y94200D01*
X21539Y93992D01*
X21585Y93786D01*
X21636Y93581D01*
X21692Y93377D01*
X21753Y93175D01*
X21819Y92974D01*
X21889Y92775D01*
X21965Y92577D01*
X22045Y92382D01*
X22130Y92189D01*
X22220Y91997D01*
X22314Y91808D01*
X22413Y91621D01*
X22517Y91437D01*
X22625Y91255D01*
X22737Y91076D01*
X22853Y90900D01*
X22974Y90727D01*
X23099Y90556D01*
X23228Y90389D01*
X23362Y90225D01*
X23499Y90064D01*
X23640Y89907D01*
X23785Y89753D01*
X23933Y89602D01*
X24085Y89456D01*
X24241Y89313D01*
X24400Y89174D01*
X24563Y89039D01*
X24728Y88907D01*
X24897Y88780D01*
X25069Y88657D01*
X25244Y88539D01*
X25421Y88424D01*
X25602Y88314D01*
X25785Y88208D01*
X25970Y88107D01*
X26158Y88011D01*
X26349Y87919D01*
X26541Y87831D01*
X26735Y87749D01*
X26932Y87671D01*
X27130Y87598D01*
X27330Y87529D01*
X27532Y87466D01*
X27735Y87408D01*
X27939Y87354D01*
X28145Y87306D01*
X28352Y87262D01*
X28560Y87224D01*
X28768Y87190D01*
X28978Y87162D01*
X29188Y87139D01*
X29399Y87121D01*
X29609Y87108D01*
X29821Y87101D01*
X30032Y87098D01*
X43918Y87098D01*
X44129Y87101D01*
X44341Y87108D01*
X44551Y87121D01*
X44762Y87139D01*
X44972Y87162D01*
X45182Y87190D01*
X45390Y87224D01*
X45598Y87262D01*
X45805Y87306D01*
X46011Y87354D01*
X46215Y87408D01*
X46418Y87466D01*
X46620Y87529D01*
X46820Y87598D01*
X47018Y87671D01*
X47215Y87749D01*
X47409Y87831D01*
X47601Y87919D01*
X47792Y88011D01*
X47980Y88107D01*
X48165Y88208D01*
X48348Y88314D01*
X48529Y88424D01*
X48706Y88539D01*
X48881Y88657D01*
X49053Y88780D01*
X49222Y88907D01*
X49387Y89039D01*
X49550Y89174D01*
X49709Y89313D01*
X49865Y89456D01*
X50017Y89602D01*
X50165Y89753D01*
X50310Y89907D01*
X50451Y90064D01*
X50588Y90225D01*
X50722Y90389D01*
X50851Y90556D01*
X50976Y90727D01*
X51097Y90900D01*
X51213Y91076D01*
X51325Y91255D01*
X51433Y91437D01*
X51537Y91621D01*
X51636Y91808D01*
X51730Y91997D01*
X51820Y92189D01*
X51905Y92382D01*
X51985Y92577D01*
X52061Y92775D01*
X52131Y92974D01*
X52197Y93175D01*
X52258Y93377D01*
X52314Y93581D01*
X52365Y93786D01*
X52411Y93992D01*
X52452Y94200D01*
X52488Y94408D01*
X52518Y94617D01*
X52544Y94827D01*
X52564Y95037D01*
X52580Y95248D01*
X52590Y95459D01*
X52595Y95670D01*
X52595Y95882D01*
X52590Y96093D01*
X52580Y96304D01*
X52564Y96515D01*
X52544Y96725D01*
X52518Y96935D01*
X52488Y97144D01*
X52452Y97352D01*
X52411Y97560D01*
X52365Y97766D01*
X52314Y97971D01*
X52258Y98175D01*
X52197Y98377D01*
X52131Y98578D01*
X52061Y98777D01*
X51985Y98975D01*
X51905Y99170D01*
X51820Y99363D01*
X51730Y99555D01*
X51636Y99744D01*
X51537Y99931D01*
X51433Y100115D01*
X51325Y100297D01*
X51213Y100476D01*
X51097Y100652D01*
X50976Y100825D01*
X50851Y100996D01*
X50722Y101163D01*
X50588Y101327D01*
X50451Y101488D01*
X50310Y101645D01*
X50165Y101799D01*
X50017Y101950D01*
X49865Y102096D01*
X49709Y102239D01*
X49550Y102378D01*
X49387Y102513D01*
X49222Y102645D01*
X49053Y102772D01*
X48881Y102895D01*
X48706Y103013D01*
X48529Y103128D01*
X48348Y103238D01*
X48165Y103344D01*
X47980Y103445D01*
X47792Y103541D01*
X47601Y103633D01*
X47409Y103721D01*
X47215Y103803D01*
X47018Y103881D01*
X46820Y103954D01*
X46620Y104023D01*
X46418Y104086D01*
X46215Y104144D01*
X46011Y104198D01*
X45805Y104246D01*
X45598Y104290D01*
X45390Y104328D01*
X45182Y104362D01*
X44972Y104390D01*
X44762Y104413D01*
X44551Y104431D01*
X44341Y104444D01*
X44129Y104451D01*
X43918Y104454D01*
D11*
X484097Y85371D02*
X484097Y83635D01*
X489882Y83635D01*
X489882Y87106D01*
X489880Y87199D01*
X489874Y87292D01*
X489865Y87385D01*
X489852Y87477D01*
X489835Y87569D01*
X489815Y87660D01*
X489791Y87750D01*
X489763Y87839D01*
X489732Y87927D01*
X489697Y88013D01*
X489659Y88098D01*
X489617Y88181D01*
X489572Y88263D01*
X489524Y88343D01*
X489472Y88421D01*
X489418Y88496D01*
X489360Y88569D01*
X489300Y88640D01*
X489237Y88709D01*
X489171Y88775D01*
X489102Y88838D01*
X489031Y88898D01*
X488958Y88956D01*
X488883Y89010D01*
X488805Y89062D01*
X488725Y89110D01*
X488643Y89155D01*
X488560Y89197D01*
X488475Y89235D01*
X488389Y89270D01*
X488301Y89301D01*
X488212Y89329D01*
X488122Y89353D01*
X488031Y89373D01*
X487939Y89390D01*
X487847Y89403D01*
X487754Y89412D01*
X487661Y89418D01*
X487568Y89420D01*
X487568Y89421D02*
X481782Y89421D01*
X481782Y89420D02*
X481686Y89418D01*
X481591Y89412D01*
X481496Y89402D01*
X481401Y89388D01*
X481307Y89371D01*
X481214Y89349D01*
X481122Y89324D01*
X481031Y89295D01*
X480941Y89262D01*
X480852Y89225D01*
X480766Y89185D01*
X480681Y89141D01*
X480598Y89094D01*
X480516Y89043D01*
X480437Y88989D01*
X480361Y88932D01*
X480286Y88872D01*
X480215Y88808D01*
X480146Y88742D01*
X480080Y88673D01*
X480016Y88602D01*
X479956Y88527D01*
X479899Y88451D01*
X479845Y88372D01*
X479794Y88291D01*
X479747Y88207D01*
X479703Y88122D01*
X479663Y88036D01*
X479626Y87947D01*
X479593Y87857D01*
X479564Y87766D01*
X479539Y87674D01*
X479517Y87581D01*
X479500Y87487D01*
X479486Y87392D01*
X479476Y87297D01*
X479470Y87202D01*
X479468Y87106D01*
X479468Y83635D01*
X479468Y77229D02*
X489882Y77229D01*
X489882Y71443D02*
X479468Y77229D01*
X479468Y71443D02*
X489882Y71443D01*
X489882Y65037D02*
X479468Y65037D01*
X479468Y62144D01*
X479470Y62038D01*
X479476Y61933D01*
X479485Y61828D01*
X479499Y61723D01*
X479516Y61619D01*
X479537Y61515D01*
X479562Y61412D01*
X479591Y61311D01*
X479623Y61210D01*
X479659Y61111D01*
X479698Y61013D01*
X479742Y60916D01*
X479788Y60821D01*
X479838Y60728D01*
X479892Y60637D01*
X479948Y60548D01*
X480008Y60461D01*
X480071Y60376D01*
X480137Y60293D01*
X480206Y60213D01*
X480278Y60136D01*
X480353Y60061D01*
X480430Y59989D01*
X480510Y59920D01*
X480593Y59854D01*
X480678Y59791D01*
X480765Y59731D01*
X480854Y59675D01*
X480945Y59621D01*
X481038Y59571D01*
X481133Y59525D01*
X481230Y59481D01*
X481328Y59442D01*
X481427Y59406D01*
X481528Y59374D01*
X481629Y59345D01*
X481732Y59320D01*
X481836Y59299D01*
X481940Y59282D01*
X482045Y59268D01*
X482150Y59259D01*
X482255Y59253D01*
X482361Y59251D01*
X486989Y59251D01*
X487095Y59253D01*
X487200Y59259D01*
X487305Y59268D01*
X487410Y59282D01*
X487514Y59299D01*
X487618Y59320D01*
X487721Y59345D01*
X487822Y59374D01*
X487923Y59406D01*
X488022Y59442D01*
X488120Y59481D01*
X488217Y59525D01*
X488312Y59571D01*
X488405Y59621D01*
X488496Y59675D01*
X488585Y59731D01*
X488672Y59791D01*
X488757Y59854D01*
X488840Y59920D01*
X488920Y59989D01*
X488997Y60061D01*
X489072Y60136D01*
X489144Y60213D01*
X489213Y60293D01*
X489279Y60376D01*
X489342Y60461D01*
X489402Y60548D01*
X489458Y60637D01*
X489512Y60728D01*
X489562Y60821D01*
X489608Y60916D01*
X489652Y61013D01*
X489691Y61111D01*
X489727Y61210D01*
X489759Y61311D01*
X489788Y61412D01*
X489813Y61515D01*
X489834Y61619D01*
X489851Y61723D01*
X489865Y61828D01*
X489874Y61933D01*
X489880Y62038D01*
X489882Y62144D01*
X489882Y65037D01*
X489882Y212528D02*
X489882Y215421D01*
X489882Y212528D02*
X489880Y212421D01*
X489874Y212314D01*
X489864Y212208D01*
X489850Y212102D01*
X489833Y211996D01*
X489811Y211892D01*
X489786Y211788D01*
X489756Y211685D01*
X489723Y211583D01*
X489687Y211483D01*
X489646Y211384D01*
X489602Y211287D01*
X489554Y211191D01*
X489503Y211097D01*
X489449Y211005D01*
X489391Y210915D01*
X489329Y210828D01*
X489265Y210742D01*
X489198Y210659D01*
X489127Y210579D01*
X489053Y210501D01*
X488977Y210426D01*
X488898Y210354D01*
X488817Y210285D01*
X488732Y210219D01*
X488646Y210156D01*
X488557Y210097D01*
X488466Y210041D01*
X488373Y209988D01*
X488279Y209938D01*
X488182Y209892D01*
X488084Y209850D01*
X487984Y209812D01*
X487883Y209777D01*
X487781Y209745D01*
X487677Y209718D01*
X487573Y209695D01*
X487468Y209675D01*
X487362Y209659D01*
X487256Y209647D01*
X487149Y209639D01*
X487042Y209635D01*
X486936Y209635D01*
X486829Y209639D01*
X486722Y209647D01*
X486616Y209659D01*
X486510Y209675D01*
X486405Y209695D01*
X486301Y209718D01*
X486197Y209745D01*
X486095Y209777D01*
X485994Y209812D01*
X485894Y209850D01*
X485796Y209892D01*
X485699Y209938D01*
X485605Y209988D01*
X485512Y210041D01*
X485421Y210097D01*
X485332Y210156D01*
X485246Y210219D01*
X485161Y210285D01*
X485080Y210354D01*
X485001Y210426D01*
X484925Y210501D01*
X484851Y210579D01*
X484780Y210659D01*
X484713Y210742D01*
X484649Y210828D01*
X484587Y210915D01*
X484529Y211005D01*
X484475Y211097D01*
X484424Y211191D01*
X484376Y211287D01*
X484332Y211384D01*
X484291Y211483D01*
X484255Y211583D01*
X484222Y211685D01*
X484192Y211788D01*
X484167Y211892D01*
X484145Y211996D01*
X484128Y212102D01*
X484114Y212208D01*
X484104Y212314D01*
X484098Y212421D01*
X484096Y212528D01*
X479468Y211949D02*
X479468Y215421D01*
X479468Y211949D02*
X479470Y211855D01*
X479476Y211760D01*
X479485Y211666D01*
X479499Y211573D01*
X479516Y211480D01*
X479537Y211388D01*
X479562Y211297D01*
X479590Y211207D01*
X479622Y211118D01*
X479658Y211031D01*
X479697Y210945D01*
X479740Y210861D01*
X479786Y210778D01*
X479835Y210698D01*
X479888Y210620D01*
X479944Y210543D01*
X480003Y210470D01*
X480064Y210398D01*
X480129Y210330D01*
X480197Y210263D01*
X480267Y210200D01*
X480339Y210140D01*
X480414Y210082D01*
X480492Y210028D01*
X480571Y209977D01*
X480652Y209929D01*
X480736Y209885D01*
X480821Y209844D01*
X480907Y209807D01*
X480995Y209773D01*
X481085Y209742D01*
X481175Y209716D01*
X481267Y209693D01*
X481360Y209674D01*
X481453Y209659D01*
X481546Y209647D01*
X481640Y209639D01*
X481735Y209635D01*
X481829Y209635D01*
X481924Y209639D01*
X482018Y209647D01*
X482111Y209659D01*
X482204Y209674D01*
X482297Y209693D01*
X482389Y209716D01*
X482479Y209742D01*
X482569Y209773D01*
X482657Y209807D01*
X482743Y209844D01*
X482828Y209885D01*
X482912Y209929D01*
X482993Y209977D01*
X483072Y210028D01*
X483150Y210082D01*
X483225Y210140D01*
X483297Y210200D01*
X483367Y210263D01*
X483435Y210330D01*
X483500Y210398D01*
X483561Y210470D01*
X483620Y210543D01*
X483676Y210620D01*
X483729Y210698D01*
X483778Y210778D01*
X483824Y210861D01*
X483867Y210945D01*
X483906Y211031D01*
X483942Y211118D01*
X483974Y211207D01*
X484002Y211297D01*
X484027Y211388D01*
X484048Y211480D01*
X484065Y211573D01*
X484079Y211666D01*
X484088Y211760D01*
X484094Y211855D01*
X484096Y211949D01*
X484097Y211949D02*
X484097Y214263D01*
X479468Y204569D02*
X489882Y201098D01*
X479468Y197627D01*
X489882Y192561D02*
X489882Y189668D01*
X489880Y189561D01*
X489874Y189454D01*
X489864Y189348D01*
X489850Y189242D01*
X489833Y189136D01*
X489811Y189032D01*
X489786Y188928D01*
X489756Y188825D01*
X489723Y188723D01*
X489687Y188623D01*
X489646Y188524D01*
X489602Y188427D01*
X489554Y188331D01*
X489503Y188237D01*
X489449Y188145D01*
X489391Y188055D01*
X489329Y187968D01*
X489265Y187882D01*
X489198Y187799D01*
X489127Y187719D01*
X489053Y187641D01*
X488977Y187566D01*
X488898Y187494D01*
X488817Y187425D01*
X488732Y187359D01*
X488646Y187296D01*
X488557Y187237D01*
X488466Y187181D01*
X488373Y187128D01*
X488279Y187078D01*
X488182Y187032D01*
X488084Y186990D01*
X487984Y186952D01*
X487883Y186917D01*
X487781Y186885D01*
X487677Y186858D01*
X487573Y186835D01*
X487468Y186815D01*
X487362Y186799D01*
X487256Y186787D01*
X487149Y186779D01*
X487042Y186775D01*
X486936Y186775D01*
X486829Y186779D01*
X486722Y186787D01*
X486616Y186799D01*
X486510Y186815D01*
X486405Y186835D01*
X486301Y186858D01*
X486197Y186885D01*
X486095Y186917D01*
X485994Y186952D01*
X485894Y186990D01*
X485796Y187032D01*
X485699Y187078D01*
X485605Y187128D01*
X485512Y187181D01*
X485421Y187237D01*
X485332Y187296D01*
X485246Y187359D01*
X485161Y187425D01*
X485080Y187494D01*
X485001Y187566D01*
X484925Y187641D01*
X484851Y187719D01*
X484780Y187799D01*
X484713Y187882D01*
X484649Y187968D01*
X484587Y188055D01*
X484529Y188145D01*
X484475Y188237D01*
X484424Y188331D01*
X484376Y188427D01*
X484332Y188524D01*
X484291Y188623D01*
X484255Y188723D01*
X484222Y188825D01*
X484192Y188928D01*
X484167Y189032D01*
X484145Y189136D01*
X484128Y189242D01*
X484114Y189348D01*
X484104Y189454D01*
X484098Y189561D01*
X484096Y189668D01*
X479468Y189089D02*
X479468Y192561D01*
X479468Y189089D02*
X479470Y188995D01*
X479476Y188900D01*
X479485Y188806D01*
X479499Y188713D01*
X479516Y188620D01*
X479537Y188528D01*
X479562Y188437D01*
X479590Y188347D01*
X479622Y188258D01*
X479658Y188171D01*
X479697Y188085D01*
X479740Y188001D01*
X479786Y187918D01*
X479835Y187838D01*
X479888Y187760D01*
X479944Y187683D01*
X480003Y187610D01*
X480064Y187538D01*
X480129Y187470D01*
X480197Y187403D01*
X480267Y187340D01*
X480339Y187280D01*
X480414Y187222D01*
X480492Y187168D01*
X480571Y187117D01*
X480652Y187069D01*
X480736Y187025D01*
X480821Y186984D01*
X480907Y186947D01*
X480995Y186913D01*
X481085Y186882D01*
X481175Y186856D01*
X481267Y186833D01*
X481360Y186814D01*
X481453Y186799D01*
X481546Y186787D01*
X481640Y186779D01*
X481735Y186775D01*
X481829Y186775D01*
X481924Y186779D01*
X482018Y186787D01*
X482111Y186799D01*
X482204Y186814D01*
X482297Y186833D01*
X482389Y186856D01*
X482479Y186882D01*
X482569Y186913D01*
X482657Y186947D01*
X482743Y186984D01*
X482828Y187025D01*
X482912Y187069D01*
X482993Y187117D01*
X483072Y187168D01*
X483150Y187222D01*
X483225Y187280D01*
X483297Y187340D01*
X483367Y187403D01*
X483435Y187470D01*
X483500Y187538D01*
X483561Y187610D01*
X483620Y187683D01*
X483676Y187760D01*
X483729Y187838D01*
X483778Y187918D01*
X483824Y188001D01*
X483867Y188085D01*
X483906Y188171D01*
X483942Y188258D01*
X483974Y188347D01*
X484002Y188437D01*
X484027Y188528D01*
X484048Y188620D01*
X484065Y188713D01*
X484079Y188806D01*
X484088Y188900D01*
X484094Y188995D01*
X484096Y189089D01*
X484097Y189089D02*
X484097Y191404D01*
D12*
X636000Y202250D02*
X636000Y213000D01*
X636000Y192250D02*
X636000Y181500D01*
X636000Y171500D02*
X636000Y160750D01*
X636000Y150750D02*
X636000Y140000D01*
X636000Y130000D02*
X636000Y119250D01*
X636000Y109250D02*
X636000Y98500D01*
X636000Y88500D02*
X636000Y77750D01*
X636000Y67750D02*
X636000Y57000D01*
X531000Y214444D02*
X531000Y225000D01*
X531000Y204444D02*
X531000Y193889D01*
X531000Y183889D02*
X531000Y173333D01*
X531000Y163333D02*
X531000Y152778D01*
X531000Y142778D02*
X531000Y132222D01*
X531000Y122222D02*
X531000Y111667D01*
X531000Y101667D02*
X531000Y91111D01*
X531000Y81111D02*
X531000Y70556D01*
X531000Y60556D02*
X531000Y50000D01*
D13*
X138034Y88028D02*
X138034Y135272D01*
X138034Y88028D02*
X101966Y88028D01*
X101966Y135272D01*
X138034Y135272D01*
D14*
X128890Y129684D02*
X128892Y129803D01*
X128898Y129922D01*
X128908Y130040D01*
X128922Y130158D01*
X128940Y130275D01*
X128961Y130392D01*
X128987Y130508D01*
X129016Y130623D01*
X129050Y130738D01*
X129087Y130850D01*
X129128Y130962D01*
X129172Y131072D01*
X129220Y131181D01*
X129272Y131288D01*
X129328Y131393D01*
X129386Y131496D01*
X129449Y131597D01*
X129514Y131697D01*
X129583Y131793D01*
X129655Y131888D01*
X129730Y131980D01*
X129809Y132069D01*
X129890Y132156D01*
X129974Y132240D01*
X130061Y132321D01*
X130150Y132400D01*
X130242Y132475D01*
X130337Y132547D01*
X130433Y132616D01*
X130533Y132681D01*
X130634Y132744D01*
X130737Y132802D01*
X130842Y132858D01*
X130949Y132910D01*
X131058Y132958D01*
X131168Y133002D01*
X131280Y133043D01*
X131392Y133080D01*
X131507Y133114D01*
X131622Y133143D01*
X131738Y133169D01*
X131855Y133190D01*
X131972Y133208D01*
X132090Y133222D01*
X132208Y133232D01*
X132327Y133238D01*
X132446Y133240D01*
X132565Y133238D01*
X132684Y133232D01*
X132802Y133222D01*
X132920Y133208D01*
X133037Y133190D01*
X133154Y133169D01*
X133270Y133143D01*
X133385Y133114D01*
X133500Y133080D01*
X133612Y133043D01*
X133724Y133002D01*
X133834Y132958D01*
X133943Y132910D01*
X134050Y132858D01*
X134155Y132802D01*
X134258Y132744D01*
X134359Y132681D01*
X134459Y132616D01*
X134555Y132547D01*
X134650Y132475D01*
X134742Y132400D01*
X134831Y132321D01*
X134918Y132240D01*
X135002Y132156D01*
X135083Y132069D01*
X135162Y131980D01*
X135237Y131888D01*
X135309Y131793D01*
X135378Y131697D01*
X135443Y131597D01*
X135506Y131496D01*
X135564Y131393D01*
X135620Y131288D01*
X135672Y131181D01*
X135720Y131072D01*
X135764Y130962D01*
X135805Y130850D01*
X135842Y130738D01*
X135876Y130623D01*
X135905Y130508D01*
X135931Y130392D01*
X135952Y130275D01*
X135970Y130158D01*
X135984Y130040D01*
X135994Y129922D01*
X136000Y129803D01*
X136002Y129684D01*
X136000Y129565D01*
X135994Y129446D01*
X135984Y129328D01*
X135970Y129210D01*
X135952Y129093D01*
X135931Y128976D01*
X135905Y128860D01*
X135876Y128745D01*
X135842Y128630D01*
X135805Y128518D01*
X135764Y128406D01*
X135720Y128296D01*
X135672Y128187D01*
X135620Y128080D01*
X135564Y127975D01*
X135506Y127872D01*
X135443Y127771D01*
X135378Y127671D01*
X135309Y127575D01*
X135237Y127480D01*
X135162Y127388D01*
X135083Y127299D01*
X135002Y127212D01*
X134918Y127128D01*
X134831Y127047D01*
X134742Y126968D01*
X134650Y126893D01*
X134555Y126821D01*
X134459Y126752D01*
X134359Y126687D01*
X134258Y126624D01*
X134155Y126566D01*
X134050Y126510D01*
X133943Y126458D01*
X133834Y126410D01*
X133724Y126366D01*
X133612Y126325D01*
X133500Y126288D01*
X133385Y126254D01*
X133270Y126225D01*
X133154Y126199D01*
X133037Y126178D01*
X132920Y126160D01*
X132802Y126146D01*
X132684Y126136D01*
X132565Y126130D01*
X132446Y126128D01*
X132327Y126130D01*
X132208Y126136D01*
X132090Y126146D01*
X131972Y126160D01*
X131855Y126178D01*
X131738Y126199D01*
X131622Y126225D01*
X131507Y126254D01*
X131392Y126288D01*
X131280Y126325D01*
X131168Y126366D01*
X131058Y126410D01*
X130949Y126458D01*
X130842Y126510D01*
X130737Y126566D01*
X130634Y126624D01*
X130533Y126687D01*
X130433Y126752D01*
X130337Y126821D01*
X130242Y126893D01*
X130150Y126968D01*
X130061Y127047D01*
X129974Y127128D01*
X129890Y127212D01*
X129809Y127299D01*
X129730Y127388D01*
X129655Y127480D01*
X129583Y127575D01*
X129514Y127671D01*
X129449Y127771D01*
X129386Y127872D01*
X129328Y127975D01*
X129272Y128080D01*
X129220Y128187D01*
X129172Y128296D01*
X129128Y128406D01*
X129087Y128518D01*
X129050Y128630D01*
X129016Y128745D01*
X128987Y128860D01*
X128961Y128976D01*
X128940Y129093D01*
X128922Y129210D01*
X128908Y129328D01*
X128898Y129446D01*
X128892Y129565D01*
X128890Y129684D01*
D15*
X145577Y162093D02*
X145577Y169459D01*
X143531Y169459D01*
X143442Y169457D01*
X143353Y169451D01*
X143264Y169441D01*
X143176Y169428D01*
X143088Y169411D01*
X143001Y169389D01*
X142916Y169364D01*
X142831Y169336D01*
X142748Y169303D01*
X142666Y169267D01*
X142586Y169228D01*
X142508Y169185D01*
X142432Y169139D01*
X142357Y169089D01*
X142285Y169036D01*
X142216Y168980D01*
X142149Y168921D01*
X142084Y168860D01*
X142023Y168795D01*
X141964Y168728D01*
X141908Y168659D01*
X141855Y168587D01*
X141805Y168512D01*
X141759Y168436D01*
X141716Y168358D01*
X141677Y168278D01*
X141641Y168196D01*
X141608Y168113D01*
X141580Y168028D01*
X141555Y167943D01*
X141533Y167856D01*
X141516Y167768D01*
X141503Y167680D01*
X141493Y167591D01*
X141487Y167502D01*
X141485Y167413D01*
X141487Y167324D01*
X141493Y167235D01*
X141503Y167146D01*
X141516Y167058D01*
X141533Y166970D01*
X141555Y166883D01*
X141580Y166798D01*
X141608Y166713D01*
X141641Y166630D01*
X141677Y166548D01*
X141716Y166468D01*
X141759Y166390D01*
X141805Y166314D01*
X141855Y166239D01*
X141908Y166167D01*
X141964Y166098D01*
X142023Y166031D01*
X142084Y165966D01*
X142149Y165905D01*
X142216Y165846D01*
X142285Y165790D01*
X142357Y165737D01*
X142432Y165687D01*
X142508Y165641D01*
X142586Y165598D01*
X142666Y165559D01*
X142748Y165523D01*
X142831Y165490D01*
X142916Y165462D01*
X143001Y165437D01*
X143088Y165415D01*
X143176Y165398D01*
X143264Y165385D01*
X143353Y165375D01*
X143442Y165369D01*
X143531Y165367D01*
X145577Y165367D01*
X143122Y165367D02*
X141485Y162093D01*
X138313Y162093D02*
X135858Y162093D01*
X135778Y162095D01*
X135698Y162101D01*
X135618Y162111D01*
X135539Y162124D01*
X135460Y162142D01*
X135383Y162163D01*
X135307Y162189D01*
X135232Y162218D01*
X135158Y162250D01*
X135086Y162286D01*
X135016Y162326D01*
X134949Y162369D01*
X134883Y162415D01*
X134820Y162465D01*
X134759Y162517D01*
X134700Y162572D01*
X134645Y162631D01*
X134593Y162691D01*
X134543Y162755D01*
X134497Y162820D01*
X134454Y162888D01*
X134414Y162958D01*
X134378Y163030D01*
X134346Y163104D01*
X134317Y163178D01*
X134292Y163255D01*
X134270Y163332D01*
X134252Y163411D01*
X134239Y163490D01*
X134229Y163569D01*
X134223Y163650D01*
X134221Y163730D01*
X134221Y164548D01*
X134223Y164626D01*
X134228Y164704D01*
X134238Y164781D01*
X134251Y164858D01*
X134267Y164934D01*
X134287Y165009D01*
X134311Y165083D01*
X134338Y165156D01*
X134369Y165228D01*
X134403Y165298D01*
X134440Y165367D01*
X134481Y165433D01*
X134525Y165498D01*
X134571Y165560D01*
X134621Y165620D01*
X134673Y165678D01*
X134728Y165733D01*
X134786Y165785D01*
X134846Y165835D01*
X134908Y165881D01*
X134973Y165925D01*
X135040Y165966D01*
X135108Y166003D01*
X135178Y166037D01*
X135250Y166068D01*
X135323Y166095D01*
X135397Y166119D01*
X135472Y166139D01*
X135548Y166155D01*
X135625Y166168D01*
X135702Y166178D01*
X135780Y166183D01*
X135858Y166185D01*
X138313Y166185D01*
X138313Y169459D01*
X134221Y169459D01*
X101872Y161541D02*
X100235Y161541D01*
X101872Y161541D02*
X101950Y161543D01*
X102028Y161548D01*
X102105Y161558D01*
X102182Y161571D01*
X102258Y161587D01*
X102333Y161607D01*
X102407Y161631D01*
X102480Y161658D01*
X102552Y161689D01*
X102622Y161723D01*
X102691Y161760D01*
X102757Y161801D01*
X102822Y161845D01*
X102884Y161891D01*
X102944Y161941D01*
X103002Y161993D01*
X103057Y162048D01*
X103109Y162106D01*
X103159Y162166D01*
X103205Y162228D01*
X103249Y162293D01*
X103290Y162360D01*
X103327Y162428D01*
X103361Y162498D01*
X103392Y162570D01*
X103419Y162643D01*
X103443Y162717D01*
X103463Y162792D01*
X103479Y162868D01*
X103492Y162945D01*
X103502Y163022D01*
X103507Y163100D01*
X103509Y163178D01*
X103509Y167270D01*
X103507Y167348D01*
X103502Y167426D01*
X103492Y167503D01*
X103479Y167580D01*
X103463Y167656D01*
X103443Y167731D01*
X103419Y167805D01*
X103392Y167878D01*
X103361Y167950D01*
X103327Y168020D01*
X103290Y168089D01*
X103249Y168155D01*
X103205Y168220D01*
X103159Y168282D01*
X103109Y168342D01*
X103057Y168400D01*
X103002Y168455D01*
X102944Y168507D01*
X102884Y168557D01*
X102822Y168603D01*
X102757Y168647D01*
X102691Y168688D01*
X102622Y168725D01*
X102552Y168759D01*
X102480Y168790D01*
X102407Y168817D01*
X102333Y168841D01*
X102258Y168861D01*
X102182Y168877D01*
X102105Y168890D01*
X102028Y168900D01*
X101950Y168905D01*
X101872Y168907D01*
X100235Y168907D01*
X97390Y165633D02*
X94935Y165633D01*
X94855Y165631D01*
X94775Y165625D01*
X94695Y165615D01*
X94616Y165602D01*
X94537Y165584D01*
X94460Y165563D01*
X94384Y165537D01*
X94309Y165508D01*
X94235Y165476D01*
X94163Y165440D01*
X94093Y165400D01*
X94026Y165357D01*
X93960Y165311D01*
X93897Y165261D01*
X93836Y165209D01*
X93777Y165154D01*
X93722Y165095D01*
X93670Y165035D01*
X93620Y164971D01*
X93574Y164905D01*
X93531Y164838D01*
X93491Y164768D01*
X93455Y164696D01*
X93423Y164622D01*
X93394Y164548D01*
X93368Y164471D01*
X93347Y164394D01*
X93329Y164315D01*
X93316Y164236D01*
X93306Y164156D01*
X93300Y164076D01*
X93298Y163996D01*
X93298Y163587D01*
X93300Y163498D01*
X93306Y163409D01*
X93316Y163320D01*
X93329Y163232D01*
X93346Y163144D01*
X93368Y163057D01*
X93393Y162972D01*
X93421Y162887D01*
X93454Y162804D01*
X93490Y162722D01*
X93529Y162642D01*
X93572Y162564D01*
X93618Y162488D01*
X93668Y162413D01*
X93721Y162341D01*
X93777Y162272D01*
X93836Y162205D01*
X93897Y162140D01*
X93962Y162079D01*
X94029Y162020D01*
X94098Y161964D01*
X94170Y161911D01*
X94245Y161861D01*
X94321Y161815D01*
X94399Y161772D01*
X94479Y161733D01*
X94561Y161697D01*
X94644Y161664D01*
X94729Y161636D01*
X94814Y161611D01*
X94901Y161589D01*
X94989Y161572D01*
X95077Y161559D01*
X95166Y161549D01*
X95255Y161543D01*
X95344Y161541D01*
X95433Y161543D01*
X95522Y161549D01*
X95611Y161559D01*
X95699Y161572D01*
X95787Y161589D01*
X95874Y161611D01*
X95959Y161636D01*
X96044Y161664D01*
X96127Y161697D01*
X96209Y161733D01*
X96289Y161772D01*
X96367Y161815D01*
X96443Y161861D01*
X96518Y161911D01*
X96590Y161964D01*
X96659Y162020D01*
X96726Y162079D01*
X96791Y162140D01*
X96852Y162205D01*
X96911Y162272D01*
X96967Y162341D01*
X97020Y162413D01*
X97070Y162488D01*
X97116Y162564D01*
X97159Y162642D01*
X97198Y162722D01*
X97234Y162804D01*
X97267Y162887D01*
X97295Y162972D01*
X97320Y163057D01*
X97342Y163144D01*
X97359Y163232D01*
X97372Y163320D01*
X97382Y163409D01*
X97388Y163498D01*
X97390Y163587D01*
X97390Y165633D01*
X97388Y165745D01*
X97382Y165856D01*
X97373Y165968D01*
X97360Y166079D01*
X97342Y166189D01*
X97322Y166299D01*
X97297Y166408D01*
X97269Y166516D01*
X97237Y166623D01*
X97201Y166729D01*
X97162Y166834D01*
X97119Y166937D01*
X97073Y167039D01*
X97023Y167139D01*
X96970Y167238D01*
X96913Y167334D01*
X96854Y167429D01*
X96791Y167521D01*
X96725Y167611D01*
X96656Y167699D01*
X96584Y167785D01*
X96509Y167868D01*
X96431Y167948D01*
X96351Y168026D01*
X96268Y168101D01*
X96182Y168173D01*
X96094Y168242D01*
X96004Y168308D01*
X95912Y168371D01*
X95817Y168430D01*
X95721Y168487D01*
X95622Y168540D01*
X95522Y168590D01*
X95420Y168636D01*
X95317Y168679D01*
X95212Y168718D01*
X95106Y168754D01*
X94999Y168786D01*
X94891Y168814D01*
X94782Y168839D01*
X94672Y168859D01*
X94562Y168877D01*
X94451Y168890D01*
X94339Y168899D01*
X94228Y168905D01*
X94116Y168907D01*
M02*
