G04 EAGLE Gerber RS-274X export*
G75*
%MOMM*%
%FSLAX34Y34*%
%LPD*%
%INSilkscreen Bottom*%
%IPPOS*%
%AMOC8*
5,1,8,0,0,1.08239X$1,22.5*%
G01*
%ADD10C,0.685800*%
%ADD11C,0.228600*%
%ADD12C,0.200000*%


D10*
X52596Y185135D02*
X21354Y185135D01*
X21354Y176456D01*
X21357Y176245D01*
X21364Y176033D01*
X21377Y175823D01*
X21395Y175612D01*
X21418Y175402D01*
X21446Y175192D01*
X21480Y174984D01*
X21518Y174776D01*
X21562Y174569D01*
X21610Y174363D01*
X21664Y174159D01*
X21722Y173956D01*
X21785Y173754D01*
X21854Y173554D01*
X21927Y173356D01*
X22005Y173159D01*
X22087Y172965D01*
X22175Y172773D01*
X22267Y172582D01*
X22363Y172394D01*
X22464Y172209D01*
X22570Y172026D01*
X22680Y171845D01*
X22795Y171668D01*
X22913Y171493D01*
X23036Y171321D01*
X23163Y171152D01*
X23295Y170987D01*
X23430Y170824D01*
X23569Y170665D01*
X23712Y170509D01*
X23858Y170357D01*
X24009Y170209D01*
X24163Y170064D01*
X24320Y169923D01*
X24481Y169786D01*
X24645Y169652D01*
X24812Y169523D01*
X24983Y169398D01*
X25156Y169277D01*
X25332Y169161D01*
X25511Y169049D01*
X25693Y168941D01*
X25877Y168837D01*
X26064Y168738D01*
X26253Y168644D01*
X26445Y168554D01*
X26638Y168469D01*
X26833Y168389D01*
X27031Y168313D01*
X27230Y168243D01*
X27431Y168177D01*
X27633Y168116D01*
X27837Y168060D01*
X28042Y168009D01*
X28248Y167963D01*
X28456Y167922D01*
X28664Y167886D01*
X28873Y167856D01*
X29083Y167830D01*
X29293Y167810D01*
X29504Y167794D01*
X29715Y167784D01*
X29926Y167779D01*
X30138Y167779D01*
X30349Y167784D01*
X30560Y167794D01*
X30771Y167810D01*
X30981Y167830D01*
X31191Y167856D01*
X31400Y167886D01*
X31608Y167922D01*
X31816Y167963D01*
X32022Y168009D01*
X32227Y168060D01*
X32431Y168116D01*
X32633Y168177D01*
X32834Y168243D01*
X33033Y168313D01*
X33231Y168389D01*
X33426Y168469D01*
X33619Y168554D01*
X33811Y168644D01*
X34000Y168738D01*
X34187Y168837D01*
X34371Y168941D01*
X34553Y169049D01*
X34732Y169161D01*
X34908Y169277D01*
X35081Y169398D01*
X35252Y169523D01*
X35419Y169652D01*
X35583Y169786D01*
X35744Y169923D01*
X35901Y170064D01*
X36055Y170209D01*
X36206Y170357D01*
X36352Y170509D01*
X36495Y170665D01*
X36634Y170824D01*
X36769Y170987D01*
X36901Y171152D01*
X37028Y171321D01*
X37151Y171493D01*
X37269Y171668D01*
X37384Y171845D01*
X37494Y172026D01*
X37600Y172209D01*
X37701Y172394D01*
X37797Y172582D01*
X37889Y172773D01*
X37977Y172965D01*
X38059Y173159D01*
X38137Y173356D01*
X38210Y173554D01*
X38279Y173754D01*
X38342Y173956D01*
X38400Y174159D01*
X38454Y174363D01*
X38502Y174569D01*
X38546Y174776D01*
X38584Y174984D01*
X38618Y175192D01*
X38646Y175402D01*
X38669Y175612D01*
X38687Y175823D01*
X38700Y176033D01*
X38707Y176245D01*
X38710Y176456D01*
X38711Y176456D02*
X38711Y185135D01*
X52596Y151021D02*
X21354Y151021D01*
X21354Y159699D02*
X21354Y142343D01*
X21354Y134765D02*
X52596Y124351D01*
X21354Y113937D01*
X30032Y104454D02*
X43918Y104454D01*
X30032Y104454D02*
X29821Y104451D01*
X29609Y104444D01*
X29399Y104431D01*
X29188Y104413D01*
X28978Y104390D01*
X28768Y104362D01*
X28560Y104328D01*
X28352Y104290D01*
X28145Y104246D01*
X27939Y104198D01*
X27735Y104144D01*
X27532Y104086D01*
X27330Y104023D01*
X27130Y103954D01*
X26932Y103881D01*
X26735Y103803D01*
X26541Y103721D01*
X26349Y103633D01*
X26158Y103541D01*
X25970Y103445D01*
X25785Y103344D01*
X25602Y103238D01*
X25421Y103128D01*
X25244Y103013D01*
X25069Y102895D01*
X24897Y102772D01*
X24728Y102645D01*
X24563Y102513D01*
X24400Y102378D01*
X24241Y102239D01*
X24085Y102096D01*
X23933Y101950D01*
X23785Y101799D01*
X23640Y101645D01*
X23499Y101488D01*
X23362Y101327D01*
X23228Y101163D01*
X23099Y100996D01*
X22974Y100825D01*
X22853Y100652D01*
X22737Y100476D01*
X22625Y100297D01*
X22517Y100115D01*
X22413Y99931D01*
X22314Y99744D01*
X22220Y99555D01*
X22130Y99363D01*
X22045Y99170D01*
X21965Y98975D01*
X21889Y98777D01*
X21819Y98578D01*
X21753Y98377D01*
X21692Y98175D01*
X21636Y97971D01*
X21585Y97766D01*
X21539Y97560D01*
X21498Y97352D01*
X21462Y97144D01*
X21432Y96935D01*
X21406Y96725D01*
X21386Y96515D01*
X21370Y96304D01*
X21360Y96093D01*
X21355Y95882D01*
X21355Y95670D01*
X21360Y95459D01*
X21370Y95248D01*
X21386Y95037D01*
X21406Y94827D01*
X21432Y94617D01*
X21462Y94408D01*
X21498Y94200D01*
X21539Y93992D01*
X21585Y93786D01*
X21636Y93581D01*
X21692Y93377D01*
X21753Y93175D01*
X21819Y92974D01*
X21889Y92775D01*
X21965Y92577D01*
X22045Y92382D01*
X22130Y92189D01*
X22220Y91997D01*
X22314Y91808D01*
X22413Y91621D01*
X22517Y91437D01*
X22625Y91255D01*
X22737Y91076D01*
X22853Y90900D01*
X22974Y90727D01*
X23099Y90556D01*
X23228Y90389D01*
X23362Y90225D01*
X23499Y90064D01*
X23640Y89907D01*
X23785Y89753D01*
X23933Y89602D01*
X24085Y89456D01*
X24241Y89313D01*
X24400Y89174D01*
X24563Y89039D01*
X24728Y88907D01*
X24897Y88780D01*
X25069Y88657D01*
X25244Y88539D01*
X25421Y88424D01*
X25602Y88314D01*
X25785Y88208D01*
X25970Y88107D01*
X26158Y88011D01*
X26349Y87919D01*
X26541Y87831D01*
X26735Y87749D01*
X26932Y87671D01*
X27130Y87598D01*
X27330Y87529D01*
X27532Y87466D01*
X27735Y87408D01*
X27939Y87354D01*
X28145Y87306D01*
X28352Y87262D01*
X28560Y87224D01*
X28768Y87190D01*
X28978Y87162D01*
X29188Y87139D01*
X29399Y87121D01*
X29609Y87108D01*
X29821Y87101D01*
X30032Y87098D01*
X43918Y87098D01*
X44129Y87101D01*
X44341Y87108D01*
X44551Y87121D01*
X44762Y87139D01*
X44972Y87162D01*
X45182Y87190D01*
X45390Y87224D01*
X45598Y87262D01*
X45805Y87306D01*
X46011Y87354D01*
X46215Y87408D01*
X46418Y87466D01*
X46620Y87529D01*
X46820Y87598D01*
X47018Y87671D01*
X47215Y87749D01*
X47409Y87831D01*
X47601Y87919D01*
X47792Y88011D01*
X47980Y88107D01*
X48165Y88208D01*
X48348Y88314D01*
X48529Y88424D01*
X48706Y88539D01*
X48881Y88657D01*
X49053Y88780D01*
X49222Y88907D01*
X49387Y89039D01*
X49550Y89174D01*
X49709Y89313D01*
X49865Y89456D01*
X50017Y89602D01*
X50165Y89753D01*
X50310Y89907D01*
X50451Y90064D01*
X50588Y90225D01*
X50722Y90389D01*
X50851Y90556D01*
X50976Y90727D01*
X51097Y90900D01*
X51213Y91076D01*
X51325Y91255D01*
X51433Y91437D01*
X51537Y91621D01*
X51636Y91808D01*
X51730Y91997D01*
X51820Y92189D01*
X51905Y92382D01*
X51985Y92577D01*
X52061Y92775D01*
X52131Y92974D01*
X52197Y93175D01*
X52258Y93377D01*
X52314Y93581D01*
X52365Y93786D01*
X52411Y93992D01*
X52452Y94200D01*
X52488Y94408D01*
X52518Y94617D01*
X52544Y94827D01*
X52564Y95037D01*
X52580Y95248D01*
X52590Y95459D01*
X52595Y95670D01*
X52595Y95882D01*
X52590Y96093D01*
X52580Y96304D01*
X52564Y96515D01*
X52544Y96725D01*
X52518Y96935D01*
X52488Y97144D01*
X52452Y97352D01*
X52411Y97560D01*
X52365Y97766D01*
X52314Y97971D01*
X52258Y98175D01*
X52197Y98377D01*
X52131Y98578D01*
X52061Y98777D01*
X51985Y98975D01*
X51905Y99170D01*
X51820Y99363D01*
X51730Y99555D01*
X51636Y99744D01*
X51537Y99931D01*
X51433Y100115D01*
X51325Y100297D01*
X51213Y100476D01*
X51097Y100652D01*
X50976Y100825D01*
X50851Y100996D01*
X50722Y101163D01*
X50588Y101327D01*
X50451Y101488D01*
X50310Y101645D01*
X50165Y101799D01*
X50017Y101950D01*
X49865Y102096D01*
X49709Y102239D01*
X49550Y102378D01*
X49387Y102513D01*
X49222Y102645D01*
X49053Y102772D01*
X48881Y102895D01*
X48706Y103013D01*
X48529Y103128D01*
X48348Y103238D01*
X48165Y103344D01*
X47980Y103445D01*
X47792Y103541D01*
X47601Y103633D01*
X47409Y103721D01*
X47215Y103803D01*
X47018Y103881D01*
X46820Y103954D01*
X46620Y104023D01*
X46418Y104086D01*
X46215Y104144D01*
X46011Y104198D01*
X45805Y104246D01*
X45598Y104290D01*
X45390Y104328D01*
X45182Y104362D01*
X44972Y104390D01*
X44762Y104413D01*
X44551Y104431D01*
X44341Y104444D01*
X44129Y104451D01*
X43918Y104454D01*
D11*
X484097Y85371D02*
X484097Y83635D01*
X489882Y83635D01*
X489882Y87106D01*
X489880Y87199D01*
X489874Y87292D01*
X489865Y87385D01*
X489852Y87477D01*
X489835Y87569D01*
X489815Y87660D01*
X489791Y87750D01*
X489763Y87839D01*
X489732Y87927D01*
X489697Y88013D01*
X489659Y88098D01*
X489617Y88181D01*
X489572Y88263D01*
X489524Y88343D01*
X489472Y88421D01*
X489418Y88496D01*
X489360Y88569D01*
X489300Y88640D01*
X489237Y88709D01*
X489171Y88775D01*
X489102Y88838D01*
X489031Y88898D01*
X488958Y88956D01*
X488883Y89010D01*
X488805Y89062D01*
X488725Y89110D01*
X488643Y89155D01*
X488560Y89197D01*
X488475Y89235D01*
X488389Y89270D01*
X488301Y89301D01*
X488212Y89329D01*
X488122Y89353D01*
X488031Y89373D01*
X487939Y89390D01*
X487847Y89403D01*
X487754Y89412D01*
X487661Y89418D01*
X487568Y89420D01*
X487568Y89421D02*
X481782Y89421D01*
X481782Y89420D02*
X481686Y89418D01*
X481591Y89412D01*
X481496Y89402D01*
X481401Y89388D01*
X481307Y89371D01*
X481214Y89349D01*
X481122Y89324D01*
X481031Y89295D01*
X480941Y89262D01*
X480852Y89225D01*
X480766Y89185D01*
X480681Y89141D01*
X480598Y89094D01*
X480516Y89043D01*
X480437Y88989D01*
X480361Y88932D01*
X480286Y88872D01*
X480215Y88808D01*
X480146Y88742D01*
X480080Y88673D01*
X480016Y88602D01*
X479956Y88527D01*
X479899Y88451D01*
X479845Y88372D01*
X479794Y88291D01*
X479747Y88207D01*
X479703Y88122D01*
X479663Y88036D01*
X479626Y87947D01*
X479593Y87857D01*
X479564Y87766D01*
X479539Y87674D01*
X479517Y87581D01*
X479500Y87487D01*
X479486Y87392D01*
X479476Y87297D01*
X479470Y87202D01*
X479468Y87106D01*
X479468Y83635D01*
X479468Y77229D02*
X489882Y77229D01*
X489882Y71443D02*
X479468Y77229D01*
X479468Y71443D02*
X489882Y71443D01*
X489882Y65037D02*
X479468Y65037D01*
X479468Y62144D01*
X479470Y62038D01*
X479476Y61933D01*
X479485Y61828D01*
X479499Y61723D01*
X479516Y61619D01*
X479537Y61515D01*
X479562Y61412D01*
X479591Y61311D01*
X479623Y61210D01*
X479659Y61111D01*
X479698Y61013D01*
X479742Y60916D01*
X479788Y60821D01*
X479838Y60728D01*
X479892Y60637D01*
X479948Y60548D01*
X480008Y60461D01*
X480071Y60376D01*
X480137Y60293D01*
X480206Y60213D01*
X480278Y60136D01*
X480353Y60061D01*
X480430Y59989D01*
X480510Y59920D01*
X480593Y59854D01*
X480678Y59791D01*
X480765Y59731D01*
X480854Y59675D01*
X480945Y59621D01*
X481038Y59571D01*
X481133Y59525D01*
X481230Y59481D01*
X481328Y59442D01*
X481427Y59406D01*
X481528Y59374D01*
X481629Y59345D01*
X481732Y59320D01*
X481836Y59299D01*
X481940Y59282D01*
X482045Y59268D01*
X482150Y59259D01*
X482255Y59253D01*
X482361Y59251D01*
X486989Y59251D01*
X487095Y59253D01*
X487200Y59259D01*
X487305Y59268D01*
X487410Y59282D01*
X487514Y59299D01*
X487618Y59320D01*
X487721Y59345D01*
X487822Y59374D01*
X487923Y59406D01*
X488022Y59442D01*
X488120Y59481D01*
X488217Y59525D01*
X488312Y59571D01*
X488405Y59621D01*
X488496Y59675D01*
X488585Y59731D01*
X488672Y59791D01*
X488757Y59854D01*
X488840Y59920D01*
X488920Y59989D01*
X488997Y60061D01*
X489072Y60136D01*
X489144Y60213D01*
X489213Y60293D01*
X489279Y60376D01*
X489342Y60461D01*
X489402Y60548D01*
X489458Y60637D01*
X489512Y60728D01*
X489562Y60821D01*
X489608Y60916D01*
X489652Y61013D01*
X489691Y61111D01*
X489727Y61210D01*
X489759Y61311D01*
X489788Y61412D01*
X489813Y61515D01*
X489834Y61619D01*
X489851Y61723D01*
X489865Y61828D01*
X489874Y61933D01*
X489880Y62038D01*
X489882Y62144D01*
X489882Y65037D01*
X489882Y212528D02*
X489882Y215421D01*
X489882Y212528D02*
X489880Y212421D01*
X489874Y212314D01*
X489864Y212208D01*
X489850Y212102D01*
X489833Y211996D01*
X489811Y211892D01*
X489786Y211788D01*
X489756Y211685D01*
X489723Y211583D01*
X489687Y211483D01*
X489646Y211384D01*
X489602Y211287D01*
X489554Y211191D01*
X489503Y211097D01*
X489449Y211005D01*
X489391Y210915D01*
X489329Y210828D01*
X489265Y210742D01*
X489198Y210659D01*
X489127Y210579D01*
X489053Y210501D01*
X488977Y210426D01*
X488898Y210354D01*
X488817Y210285D01*
X488732Y210219D01*
X488646Y210156D01*
X488557Y210097D01*
X488466Y210041D01*
X488373Y209988D01*
X488279Y209938D01*
X488182Y209892D01*
X488084Y209850D01*
X487984Y209812D01*
X487883Y209777D01*
X487781Y209745D01*
X487677Y209718D01*
X487573Y209695D01*
X487468Y209675D01*
X487362Y209659D01*
X487256Y209647D01*
X487149Y209639D01*
X487042Y209635D01*
X486936Y209635D01*
X486829Y209639D01*
X486722Y209647D01*
X486616Y209659D01*
X486510Y209675D01*
X486405Y209695D01*
X486301Y209718D01*
X486197Y209745D01*
X486095Y209777D01*
X485994Y209812D01*
X485894Y209850D01*
X485796Y209892D01*
X485699Y209938D01*
X485605Y209988D01*
X485512Y210041D01*
X485421Y210097D01*
X485332Y210156D01*
X485246Y210219D01*
X485161Y210285D01*
X485080Y210354D01*
X485001Y210426D01*
X484925Y210501D01*
X484851Y210579D01*
X484780Y210659D01*
X484713Y210742D01*
X484649Y210828D01*
X484587Y210915D01*
X484529Y211005D01*
X484475Y211097D01*
X484424Y211191D01*
X484376Y211287D01*
X484332Y211384D01*
X484291Y211483D01*
X484255Y211583D01*
X484222Y211685D01*
X484192Y211788D01*
X484167Y211892D01*
X484145Y211996D01*
X484128Y212102D01*
X484114Y212208D01*
X484104Y212314D01*
X484098Y212421D01*
X484096Y212528D01*
X479468Y211949D02*
X479468Y215421D01*
X479468Y211949D02*
X479470Y211855D01*
X479476Y211760D01*
X479485Y211666D01*
X479499Y211573D01*
X479516Y211480D01*
X479537Y211388D01*
X479562Y211297D01*
X479590Y211207D01*
X479622Y211118D01*
X479658Y211031D01*
X479697Y210945D01*
X479740Y210861D01*
X479786Y210778D01*
X479835Y210698D01*
X479888Y210620D01*
X479944Y210543D01*
X480003Y210470D01*
X480064Y210398D01*
X480129Y210330D01*
X480197Y210263D01*
X480267Y210200D01*
X480339Y210140D01*
X480414Y210082D01*
X480492Y210028D01*
X480571Y209977D01*
X480652Y209929D01*
X480736Y209885D01*
X480821Y209844D01*
X480907Y209807D01*
X480995Y209773D01*
X481085Y209742D01*
X481175Y209716D01*
X481267Y209693D01*
X481360Y209674D01*
X481453Y209659D01*
X481546Y209647D01*
X481640Y209639D01*
X481735Y209635D01*
X481829Y209635D01*
X481924Y209639D01*
X482018Y209647D01*
X482111Y209659D01*
X482204Y209674D01*
X482297Y209693D01*
X482389Y209716D01*
X482479Y209742D01*
X482569Y209773D01*
X482657Y209807D01*
X482743Y209844D01*
X482828Y209885D01*
X482912Y209929D01*
X482993Y209977D01*
X483072Y210028D01*
X483150Y210082D01*
X483225Y210140D01*
X483297Y210200D01*
X483367Y210263D01*
X483435Y210330D01*
X483500Y210398D01*
X483561Y210470D01*
X483620Y210543D01*
X483676Y210620D01*
X483729Y210698D01*
X483778Y210778D01*
X483824Y210861D01*
X483867Y210945D01*
X483906Y211031D01*
X483942Y211118D01*
X483974Y211207D01*
X484002Y211297D01*
X484027Y211388D01*
X484048Y211480D01*
X484065Y211573D01*
X484079Y211666D01*
X484088Y211760D01*
X484094Y211855D01*
X484096Y211949D01*
X484097Y211949D02*
X484097Y214263D01*
X479468Y204569D02*
X489882Y201098D01*
X479468Y197627D01*
X489882Y192561D02*
X489882Y189668D01*
X489880Y189561D01*
X489874Y189454D01*
X489864Y189348D01*
X489850Y189242D01*
X489833Y189136D01*
X489811Y189032D01*
X489786Y188928D01*
X489756Y188825D01*
X489723Y188723D01*
X489687Y188623D01*
X489646Y188524D01*
X489602Y188427D01*
X489554Y188331D01*
X489503Y188237D01*
X489449Y188145D01*
X489391Y188055D01*
X489329Y187968D01*
X489265Y187882D01*
X489198Y187799D01*
X489127Y187719D01*
X489053Y187641D01*
X488977Y187566D01*
X488898Y187494D01*
X488817Y187425D01*
X488732Y187359D01*
X488646Y187296D01*
X488557Y187237D01*
X488466Y187181D01*
X488373Y187128D01*
X488279Y187078D01*
X488182Y187032D01*
X488084Y186990D01*
X487984Y186952D01*
X487883Y186917D01*
X487781Y186885D01*
X487677Y186858D01*
X487573Y186835D01*
X487468Y186815D01*
X487362Y186799D01*
X487256Y186787D01*
X487149Y186779D01*
X487042Y186775D01*
X486936Y186775D01*
X486829Y186779D01*
X486722Y186787D01*
X486616Y186799D01*
X486510Y186815D01*
X486405Y186835D01*
X486301Y186858D01*
X486197Y186885D01*
X486095Y186917D01*
X485994Y186952D01*
X485894Y186990D01*
X485796Y187032D01*
X485699Y187078D01*
X485605Y187128D01*
X485512Y187181D01*
X485421Y187237D01*
X485332Y187296D01*
X485246Y187359D01*
X485161Y187425D01*
X485080Y187494D01*
X485001Y187566D01*
X484925Y187641D01*
X484851Y187719D01*
X484780Y187799D01*
X484713Y187882D01*
X484649Y187968D01*
X484587Y188055D01*
X484529Y188145D01*
X484475Y188237D01*
X484424Y188331D01*
X484376Y188427D01*
X484332Y188524D01*
X484291Y188623D01*
X484255Y188723D01*
X484222Y188825D01*
X484192Y188928D01*
X484167Y189032D01*
X484145Y189136D01*
X484128Y189242D01*
X484114Y189348D01*
X484104Y189454D01*
X484098Y189561D01*
X484096Y189668D01*
X479468Y189089D02*
X479468Y192561D01*
X479468Y189089D02*
X479470Y188995D01*
X479476Y188900D01*
X479485Y188806D01*
X479499Y188713D01*
X479516Y188620D01*
X479537Y188528D01*
X479562Y188437D01*
X479590Y188347D01*
X479622Y188258D01*
X479658Y188171D01*
X479697Y188085D01*
X479740Y188001D01*
X479786Y187918D01*
X479835Y187838D01*
X479888Y187760D01*
X479944Y187683D01*
X480003Y187610D01*
X480064Y187538D01*
X480129Y187470D01*
X480197Y187403D01*
X480267Y187340D01*
X480339Y187280D01*
X480414Y187222D01*
X480492Y187168D01*
X480571Y187117D01*
X480652Y187069D01*
X480736Y187025D01*
X480821Y186984D01*
X480907Y186947D01*
X480995Y186913D01*
X481085Y186882D01*
X481175Y186856D01*
X481267Y186833D01*
X481360Y186814D01*
X481453Y186799D01*
X481546Y186787D01*
X481640Y186779D01*
X481735Y186775D01*
X481829Y186775D01*
X481924Y186779D01*
X482018Y186787D01*
X482111Y186799D01*
X482204Y186814D01*
X482297Y186833D01*
X482389Y186856D01*
X482479Y186882D01*
X482569Y186913D01*
X482657Y186947D01*
X482743Y186984D01*
X482828Y187025D01*
X482912Y187069D01*
X482993Y187117D01*
X483072Y187168D01*
X483150Y187222D01*
X483225Y187280D01*
X483297Y187340D01*
X483367Y187403D01*
X483435Y187470D01*
X483500Y187538D01*
X483561Y187610D01*
X483620Y187683D01*
X483676Y187760D01*
X483729Y187838D01*
X483778Y187918D01*
X483824Y188001D01*
X483867Y188085D01*
X483906Y188171D01*
X483942Y188258D01*
X483974Y188347D01*
X484002Y188437D01*
X484027Y188528D01*
X484048Y188620D01*
X484065Y188713D01*
X484079Y188806D01*
X484088Y188900D01*
X484094Y188995D01*
X484096Y189089D01*
X484097Y189089D02*
X484097Y191404D01*
D12*
X636000Y202250D02*
X636000Y213000D01*
X636000Y192250D02*
X636000Y181500D01*
X636000Y171500D02*
X636000Y160750D01*
X636000Y150750D02*
X636000Y140000D01*
X636000Y130000D02*
X636000Y119250D01*
X636000Y109250D02*
X636000Y98500D01*
X636000Y88500D02*
X636000Y77750D01*
X636000Y67750D02*
X636000Y57000D01*
X531000Y214444D02*
X531000Y225000D01*
X531000Y204444D02*
X531000Y193889D01*
X531000Y183889D02*
X531000Y173333D01*
X531000Y163333D02*
X531000Y152778D01*
X531000Y142778D02*
X531000Y132222D01*
X531000Y122222D02*
X531000Y111667D01*
X531000Y101667D02*
X531000Y91111D01*
X531000Y81111D02*
X531000Y70556D01*
X531000Y60556D02*
X531000Y50000D01*
M02*
