G04 EAGLE Gerber RS-274X export*
G75*
%MOMM*%
%FSLAX34Y34*%
%LPD*%
%INSoldermask Bottom*%
%IPPOS*%
%AMOC8*
5,1,8,0,0,1.08239X$1,22.5*%
G01*
%ADD10C,0.411763*%
%ADD11C,0.811763*%
%ADD12C,2.016763*%
%ADD13C,2.481763*%
%ADD14C,1.161763*%
%ADD15R,2.397763X0.721363*%
%ADD16R,1.411763X1.711763*%
%ADD17R,1.411763X1.611762*%
%ADD18C,1.211763*%
%ADD19C,0.198556*%
%ADD20R,0.811763X1.711763*%


D10*
X531000Y50000D03*
X531000Y57000D03*
X531000Y65000D03*
X531000Y73000D03*
X531000Y85000D03*
X531000Y93000D03*
X531000Y101000D03*
X531000Y109000D03*
X531000Y118000D03*
X531000Y129000D03*
X531000Y138000D03*
X531000Y150000D03*
X531000Y159000D03*
X531000Y167000D03*
X531000Y175000D03*
X531000Y184000D03*
X531000Y198000D03*
X531000Y206000D03*
X531000Y215000D03*
X531000Y224000D03*
D11*
X311000Y31000D03*
D12*
X506000Y201000D03*
X506000Y74000D03*
D13*
X267500Y49850D03*
X267500Y225150D03*
D14*
X190700Y257000D03*
X203400Y257000D03*
X216100Y257000D03*
X228800Y257000D03*
X241500Y257000D03*
X178000Y257000D03*
X165300Y257000D03*
X152600Y257000D03*
X139900Y257000D03*
X127200Y257000D03*
X114500Y257000D03*
X101800Y257000D03*
D15*
X153782Y143700D03*
X86218Y143700D03*
X153782Y131000D03*
X153782Y118300D03*
X86218Y131000D03*
X86218Y118300D03*
X153782Y105600D03*
X86218Y105600D03*
D16*
X131500Y164000D03*
X150500Y164000D03*
D17*
X105500Y164000D03*
X88500Y164000D03*
D18*
X464200Y19000D03*
X476900Y19000D03*
X489600Y19000D03*
X502300Y19000D03*
X515000Y19000D03*
X451500Y19000D03*
X438800Y19000D03*
D19*
X43628Y36676D02*
X36996Y36676D01*
X43628Y36676D02*
X43628Y34044D01*
X36996Y34044D01*
X36996Y36676D01*
X36996Y35931D02*
X43628Y35931D01*
X43628Y26676D02*
X36996Y26676D01*
X43628Y26676D02*
X43628Y24044D01*
X36996Y24044D01*
X36996Y26676D01*
X36996Y25931D02*
X43628Y25931D01*
X24228Y26676D02*
X17596Y26676D01*
X24228Y26676D02*
X24228Y24044D01*
X17596Y24044D01*
X17596Y26676D01*
X17596Y25931D02*
X24228Y25931D01*
X24228Y36676D02*
X17596Y36676D01*
X24228Y36676D02*
X24228Y34044D01*
X17596Y34044D01*
X17596Y36676D01*
X17596Y35931D02*
X24228Y35931D01*
D20*
X30612Y30360D03*
M02*
