G04 EAGLE Gerber RS-274X export*
G75*
%MOMM*%
%FSLAX34Y34*%
%LPD*%
%INSolderpaste Bottom*%
%IPPOS*%
%AMOC8*
5,1,8,0,0,1.08239X$1,22.5*%
G01*
%ADD10R,2.286000X0.609600*%
%ADD11R,1.300000X1.600000*%
%ADD12R,1.300000X1.500000*%
%ADD13C,0.087500*%
%ADD14R,0.700000X1.600000*%


D10*
X153782Y143700D03*
X86218Y143700D03*
X153782Y131000D03*
X153782Y118300D03*
X86218Y131000D03*
X86218Y118300D03*
X153782Y105600D03*
X86218Y105600D03*
D11*
X131500Y164000D03*
X150500Y164000D03*
D12*
X105500Y164000D03*
X88500Y164000D03*
D13*
X43625Y36673D02*
X36999Y36673D01*
X43625Y36673D02*
X43625Y34047D01*
X36999Y34047D01*
X36999Y36673D01*
X36999Y34878D02*
X43625Y34878D01*
X43625Y35709D02*
X36999Y35709D01*
X36999Y36540D02*
X43625Y36540D01*
X43625Y26673D02*
X36999Y26673D01*
X43625Y26673D02*
X43625Y24047D01*
X36999Y24047D01*
X36999Y26673D01*
X36999Y24878D02*
X43625Y24878D01*
X43625Y25709D02*
X36999Y25709D01*
X36999Y26540D02*
X43625Y26540D01*
X24225Y26673D02*
X17599Y26673D01*
X24225Y26673D02*
X24225Y24047D01*
X17599Y24047D01*
X17599Y26673D01*
X17599Y24878D02*
X24225Y24878D01*
X24225Y25709D02*
X17599Y25709D01*
X17599Y26540D02*
X24225Y26540D01*
X24225Y36673D02*
X17599Y36673D01*
X24225Y36673D02*
X24225Y34047D01*
X17599Y34047D01*
X17599Y36673D01*
X17599Y34878D02*
X24225Y34878D01*
X24225Y35709D02*
X17599Y35709D01*
X17599Y36540D02*
X24225Y36540D01*
D14*
X30612Y30360D03*
M02*
