G04 EAGLE Gerber RS-274X export*
G75*
%MOMM*%
%FSLAX34Y34*%
%LPD*%
%INSolderpaste Top*%
%IPPOS*%
%AMOC8*
5,1,8,0,0,1.08239X$1,22.5*%
G01*
%ADD10R,0.940000X1.600000*%
%ADD11C,0.037600*%
%ADD12R,0.500000X0.500000*%
%ADD13R,1.450000X2.400000*%
%ADD14R,2.550000X2.700000*%
%ADD15R,1.000000X0.800000*%
%ADD16R,1.300000X1.600000*%
%ADD17R,1.600000X1.300000*%
%ADD18R,1.500000X1.300000*%
%ADD19R,0.508000X0.508000*%
%ADD20R,1.800000X1.700000*%
%ADD21R,1.200000X1.200000*%
%ADD22R,1.300000X1.500000*%
%ADD23R,0.800000X2.000000*%
%ADD24R,1.200000X0.450000*%
%ADD25R,1.400000X1.000000*%


D10*
X241166Y54407D03*
X228466Y54407D03*
X215766Y54407D03*
X203066Y54407D03*
X190366Y54407D03*
X177666Y54407D03*
X164966Y54407D03*
X152266Y54407D03*
X139566Y54407D03*
X126866Y54407D03*
X114166Y54407D03*
X101466Y54407D03*
X88766Y54407D03*
D11*
X245678Y210785D02*
X245678Y226409D01*
X245678Y210785D02*
X236654Y210785D01*
X236654Y226409D01*
X245678Y226409D01*
X245678Y211142D02*
X236654Y211142D01*
X236654Y211499D02*
X245678Y211499D01*
X245678Y211856D02*
X236654Y211856D01*
X236654Y212213D02*
X245678Y212213D01*
X245678Y212570D02*
X236654Y212570D01*
X236654Y212927D02*
X245678Y212927D01*
X245678Y213284D02*
X236654Y213284D01*
X236654Y213641D02*
X245678Y213641D01*
X245678Y213998D02*
X236654Y213998D01*
X236654Y214355D02*
X245678Y214355D01*
X245678Y214712D02*
X236654Y214712D01*
X236654Y215069D02*
X245678Y215069D01*
X245678Y215426D02*
X236654Y215426D01*
X236654Y215783D02*
X245678Y215783D01*
X245678Y216140D02*
X236654Y216140D01*
X236654Y216497D02*
X245678Y216497D01*
X245678Y216854D02*
X236654Y216854D01*
X236654Y217211D02*
X245678Y217211D01*
X245678Y217568D02*
X236654Y217568D01*
X236654Y217925D02*
X245678Y217925D01*
X245678Y218282D02*
X236654Y218282D01*
X236654Y218639D02*
X245678Y218639D01*
X245678Y218996D02*
X236654Y218996D01*
X236654Y219353D02*
X245678Y219353D01*
X245678Y219710D02*
X236654Y219710D01*
X236654Y220067D02*
X245678Y220067D01*
X245678Y220424D02*
X236654Y220424D01*
X236654Y220781D02*
X245678Y220781D01*
X245678Y221138D02*
X236654Y221138D01*
X236654Y221495D02*
X245678Y221495D01*
X245678Y221852D02*
X236654Y221852D01*
X236654Y222209D02*
X245678Y222209D01*
X245678Y222566D02*
X236654Y222566D01*
X236654Y222923D02*
X245678Y222923D01*
X245678Y223280D02*
X236654Y223280D01*
X236654Y223637D02*
X245678Y223637D01*
X245678Y223994D02*
X236654Y223994D01*
X236654Y224351D02*
X245678Y224351D01*
X245678Y224708D02*
X236654Y224708D01*
X236654Y225065D02*
X245678Y225065D01*
X245678Y225422D02*
X236654Y225422D01*
X236654Y225779D02*
X245678Y225779D01*
X245678Y226136D02*
X236654Y226136D01*
D10*
X228466Y218597D03*
X215766Y218597D03*
X203066Y218597D03*
X190366Y218597D03*
X177666Y218597D03*
X164966Y218597D03*
X152266Y218597D03*
X139566Y218597D03*
X126866Y218597D03*
X114166Y218597D03*
X101466Y218597D03*
X88766Y218597D03*
X35166Y218597D03*
X22466Y218597D03*
X76066Y54407D03*
X76066Y218597D03*
D12*
X16500Y37250D03*
X16500Y27250D03*
X16500Y17250D03*
X41500Y37250D03*
X41500Y27250D03*
X41500Y17250D03*
D13*
X29127Y27266D03*
D14*
X300600Y236000D03*
X364000Y236000D03*
D15*
X516750Y123750D03*
X493750Y123750D03*
D16*
X497000Y143750D03*
X516000Y143750D03*
D17*
X481500Y69750D03*
X481500Y88750D03*
D18*
X459000Y87750D03*
X459000Y70750D03*
D19*
X517750Y143750D03*
X521500Y191250D03*
D20*
X118750Y27000D03*
X159750Y27000D03*
D16*
X202250Y27000D03*
X183250Y27000D03*
X77250Y251250D03*
X58250Y251250D03*
D21*
X39500Y251250D03*
X18500Y251250D03*
D22*
X64250Y27500D03*
X81250Y27500D03*
X340500Y198000D03*
X323500Y198000D03*
D23*
X475000Y245000D03*
X517000Y245000D03*
X405000Y245000D03*
X447000Y245000D03*
D24*
X332750Y21250D03*
X332750Y27750D03*
X332750Y34250D03*
X332750Y40750D03*
X289250Y40750D03*
X289250Y34250D03*
X289250Y27750D03*
X289250Y21250D03*
D22*
X302500Y56000D03*
X319500Y56000D03*
D25*
X472000Y201000D03*
X450000Y191500D03*
X450000Y210500D03*
M02*
