G04 EAGLE Gerber RS-274X export*
G75*
%MOMM*%
%FSLAX34Y34*%
%LPD*%
%INSoldermask Top*%
%IPPOS*%
%AMOC8*
5,1,8,0,0,1.08239X$1,22.5*%
G01*
%ADD10C,0.411763*%
%ADD11R,1.051763X1.711763*%
%ADD12C,0.147244*%
%ADD13C,2.016763*%
%ADD14C,2.481763*%
%ADD15R,0.611762X0.611762*%
%ADD16R,1.561763X2.511763*%
%ADD17R,2.661763X2.811762*%
%ADD18R,1.111762X0.911763*%
%ADD19R,1.411763X1.711763*%
%ADD20R,1.711763X1.411763*%
%ADD21R,1.611762X1.411763*%
%ADD22R,0.619762X0.619762*%
%ADD23R,1.911763X1.811763*%
%ADD24R,1.311763X1.311763*%
%ADD25R,1.411763X1.611762*%
%ADD26C,1.381763*%
%ADD27C,1.161763*%
%ADD28R,0.911763X2.111763*%
%ADD29R,1.311763X0.561763*%
%ADD30R,1.511763X1.111762*%


D10*
X531000Y50000D03*
X531000Y57000D03*
X531000Y65000D03*
X531000Y73000D03*
X531000Y85000D03*
X531000Y93000D03*
X531000Y101000D03*
X531000Y109000D03*
X531000Y118000D03*
X531000Y129000D03*
X531000Y138000D03*
X531000Y150000D03*
X531000Y159000D03*
X531000Y167000D03*
X531000Y175000D03*
X531000Y184000D03*
X531000Y198000D03*
X531000Y206000D03*
X531000Y215000D03*
X531000Y224000D03*
D11*
X241166Y54407D03*
X228466Y54407D03*
X215766Y54407D03*
X203066Y54407D03*
X190366Y54407D03*
X177666Y54407D03*
X164966Y54407D03*
X152266Y54407D03*
X139566Y54407D03*
X126866Y54407D03*
X114166Y54407D03*
X101466Y54407D03*
X88766Y54407D03*
D12*
X245689Y210774D02*
X245689Y226420D01*
X245689Y210774D02*
X236643Y210774D01*
X236643Y226420D01*
X245689Y226420D01*
X245689Y212172D02*
X236643Y212172D01*
X236643Y213570D02*
X245689Y213570D01*
X245689Y214968D02*
X236643Y214968D01*
X236643Y216366D02*
X245689Y216366D01*
X245689Y217764D02*
X236643Y217764D01*
X236643Y219162D02*
X245689Y219162D01*
X245689Y220560D02*
X236643Y220560D01*
X236643Y221958D02*
X245689Y221958D01*
X245689Y223356D02*
X236643Y223356D01*
X236643Y224754D02*
X245689Y224754D01*
X245689Y226152D02*
X236643Y226152D01*
D11*
X228466Y218597D03*
X215766Y218597D03*
X203066Y218597D03*
X190366Y218597D03*
X177666Y218597D03*
X164966Y218597D03*
X152266Y218597D03*
X139566Y218597D03*
X126866Y218597D03*
X114166Y218597D03*
X101466Y218597D03*
X88766Y218597D03*
X35166Y218597D03*
X22466Y218597D03*
X76066Y54407D03*
X76066Y218597D03*
D13*
X506000Y201000D03*
X506000Y74000D03*
D14*
X267500Y49850D03*
X267500Y225150D03*
D15*
X16500Y37250D03*
X16500Y27250D03*
X16500Y17250D03*
X41500Y37250D03*
X41500Y27250D03*
X41500Y17250D03*
D16*
X29127Y27266D03*
D17*
X300600Y236000D03*
X364000Y236000D03*
D18*
X516750Y123750D03*
X493750Y123750D03*
D19*
X497000Y143750D03*
X516000Y143750D03*
D20*
X481500Y69750D03*
X481500Y88750D03*
D21*
X459000Y87750D03*
X459000Y70750D03*
D22*
X517750Y143750D03*
X521500Y191250D03*
D23*
X118750Y27000D03*
X159750Y27000D03*
D19*
X202250Y27000D03*
X183250Y27000D03*
X77250Y251250D03*
X58250Y251250D03*
D24*
X39500Y251250D03*
X18500Y251250D03*
D25*
X64250Y27500D03*
X81250Y27500D03*
D26*
X456700Y22400D03*
X471050Y22450D03*
X485350Y22300D03*
X499600Y22450D03*
X514000Y22500D03*
X442150Y22500D03*
D27*
X190700Y257000D03*
X203400Y257000D03*
X216100Y257000D03*
X228800Y257000D03*
X241500Y257000D03*
X178000Y257000D03*
X165300Y257000D03*
X152600Y257000D03*
X139900Y257000D03*
X127200Y257000D03*
X114500Y257000D03*
X101800Y257000D03*
D25*
X340500Y198000D03*
X323500Y198000D03*
D28*
X475000Y245000D03*
X517000Y245000D03*
X405000Y245000D03*
X447000Y245000D03*
D29*
X332750Y21250D03*
X332750Y27750D03*
X332750Y34250D03*
X332750Y40750D03*
X289250Y40750D03*
X289250Y34250D03*
X289250Y27750D03*
X289250Y21250D03*
D25*
X302500Y56000D03*
X319500Y56000D03*
D30*
X472000Y201000D03*
X450000Y191500D03*
X450000Y210500D03*
M02*
