G04 EAGLE Gerber RS-274X export*
G75*
%MOMM*%
%FSLAX34Y34*%
%LPD*%
%INTop Copper*%
%IPPOS*%
%AMOC8*
5,1,8,0,0,1.08239X$1,22.5*%
G01*
%ADD10R,2.700000X2.550000*%
%ADD11R,1.000000X0.800000*%
%ADD12R,1.300000X1.600000*%
%ADD13R,1.600000X1.300000*%
%ADD14R,1.500000X1.300000*%
%ADD15R,0.508000X0.508000*%
%ADD16R,1.800000X1.700000*%
%ADD17R,1.200000X1.200000*%
%ADD18R,1.300000X1.500000*%
%ADD19R,0.800000X2.000000*%
%ADD20R,1.200000X0.450000*%
%ADD21R,1.000000X1.400000*%
%ADD22R,0.650000X1.500000*%
%ADD23R,1.500000X0.650000*%
%ADD24C,0.087500*%
%ADD25R,0.700000X1.600000*%
%ADD26C,0.200000*%
%ADD27C,0.254000*%
%ADD28C,0.203200*%
%ADD29C,0.403200*%
%ADD30C,0.453200*%
%ADD31C,0.609600*%
%ADD32C,0.503200*%

G36*
X249870Y6605D02*
X249870Y6605D01*
X249899Y6602D01*
X250010Y6625D01*
X250122Y6641D01*
X250149Y6653D01*
X250178Y6658D01*
X250278Y6711D01*
X250382Y6757D01*
X250404Y6776D01*
X250430Y6789D01*
X250512Y6867D01*
X250599Y6940D01*
X250615Y6965D01*
X250636Y6985D01*
X250693Y7083D01*
X250756Y7177D01*
X250765Y7205D01*
X250780Y7230D01*
X250808Y7340D01*
X250842Y7448D01*
X250843Y7478D01*
X250850Y7506D01*
X250846Y7619D01*
X250849Y7732D01*
X250842Y7761D01*
X250841Y7790D01*
X250806Y7898D01*
X250777Y8007D01*
X250762Y8033D01*
X250753Y8061D01*
X250708Y8124D01*
X250632Y8252D01*
X250587Y8295D01*
X250559Y8334D01*
X248681Y10211D01*
X248681Y13789D01*
X251211Y16319D01*
X264714Y16319D01*
X264772Y16327D01*
X264830Y16325D01*
X264912Y16347D01*
X264996Y16359D01*
X265049Y16382D01*
X265105Y16397D01*
X265178Y16440D01*
X265255Y16475D01*
X265300Y16513D01*
X265350Y16542D01*
X265408Y16604D01*
X265472Y16658D01*
X265504Y16707D01*
X265544Y16750D01*
X265583Y16825D01*
X265630Y16895D01*
X265647Y16951D01*
X265674Y17003D01*
X265685Y17071D01*
X265715Y17166D01*
X265718Y17266D01*
X265729Y17334D01*
X265729Y22526D01*
X266474Y23271D01*
X277526Y23271D01*
X278271Y22526D01*
X278271Y7616D01*
X278279Y7558D01*
X278277Y7500D01*
X278299Y7418D01*
X278311Y7334D01*
X278334Y7281D01*
X278349Y7225D01*
X278392Y7152D01*
X278427Y7075D01*
X278465Y7030D01*
X278494Y6980D01*
X278556Y6922D01*
X278610Y6858D01*
X278659Y6826D01*
X278702Y6786D01*
X278777Y6747D01*
X278847Y6700D01*
X278903Y6683D01*
X278955Y6656D01*
X279023Y6645D01*
X279118Y6615D01*
X279218Y6612D01*
X279286Y6601D01*
X310634Y6601D01*
X310692Y6609D01*
X310750Y6607D01*
X310832Y6629D01*
X310916Y6641D01*
X310969Y6664D01*
X311025Y6679D01*
X311098Y6722D01*
X311175Y6757D01*
X311220Y6795D01*
X311270Y6824D01*
X311328Y6886D01*
X311392Y6940D01*
X311424Y6989D01*
X311464Y7032D01*
X311503Y7107D01*
X311550Y7177D01*
X311567Y7233D01*
X311594Y7285D01*
X311605Y7353D01*
X311635Y7448D01*
X311638Y7548D01*
X311649Y7616D01*
X311649Y25476D01*
X313966Y32604D01*
X314015Y32884D01*
X314013Y32903D01*
X314015Y32918D01*
X314015Y100000D01*
X314007Y100058D01*
X314009Y100116D01*
X313987Y100198D01*
X313975Y100282D01*
X313952Y100335D01*
X313937Y100391D01*
X313894Y100464D01*
X313859Y100541D01*
X313821Y100586D01*
X313792Y100636D01*
X313730Y100694D01*
X313676Y100758D01*
X313627Y100790D01*
X313584Y100830D01*
X313509Y100869D01*
X313439Y100916D01*
X313383Y100933D01*
X313331Y100960D01*
X313263Y100971D01*
X313168Y101001D01*
X313068Y101004D01*
X313000Y101015D01*
X286052Y101015D01*
X285994Y101007D01*
X285936Y101009D01*
X285854Y100987D01*
X285770Y100975D01*
X285717Y100952D01*
X285661Y100937D01*
X285588Y100894D01*
X285511Y100859D01*
X285466Y100821D01*
X285416Y100792D01*
X285358Y100730D01*
X285294Y100676D01*
X285262Y100627D01*
X285222Y100584D01*
X285183Y100509D01*
X285136Y100439D01*
X285119Y100383D01*
X285092Y100331D01*
X285081Y100263D01*
X285051Y100168D01*
X285048Y100068D01*
X285037Y100000D01*
X285037Y96536D01*
X285045Y96478D01*
X285043Y96420D01*
X285065Y96338D01*
X285077Y96254D01*
X285100Y96201D01*
X285115Y96145D01*
X285158Y96072D01*
X285193Y95995D01*
X285231Y95950D01*
X285260Y95900D01*
X285322Y95842D01*
X285376Y95778D01*
X285425Y95746D01*
X285468Y95706D01*
X285543Y95667D01*
X285613Y95620D01*
X285669Y95603D01*
X285721Y95576D01*
X285789Y95565D01*
X285884Y95535D01*
X285984Y95532D01*
X286052Y95521D01*
X290026Y95521D01*
X290771Y94776D01*
X290771Y80724D01*
X290026Y79979D01*
X272974Y79979D01*
X272229Y80724D01*
X272229Y83448D01*
X272221Y83506D01*
X272223Y83564D01*
X272201Y83646D01*
X272189Y83730D01*
X272166Y83783D01*
X272151Y83839D01*
X272108Y83912D01*
X272073Y83989D01*
X272035Y84034D01*
X272006Y84084D01*
X271944Y84142D01*
X271890Y84206D01*
X271841Y84238D01*
X271798Y84278D01*
X271723Y84317D01*
X271653Y84364D01*
X271597Y84381D01*
X271545Y84408D01*
X271477Y84419D01*
X271382Y84449D01*
X271282Y84452D01*
X271214Y84463D01*
X270786Y84463D01*
X270728Y84455D01*
X270670Y84457D01*
X270588Y84435D01*
X270504Y84423D01*
X270451Y84400D01*
X270395Y84385D01*
X270322Y84342D01*
X270245Y84307D01*
X270200Y84269D01*
X270150Y84240D01*
X270092Y84178D01*
X270028Y84124D01*
X269996Y84075D01*
X269956Y84032D01*
X269917Y83957D01*
X269870Y83887D01*
X269853Y83831D01*
X269826Y83779D01*
X269815Y83711D01*
X269785Y83616D01*
X269782Y83516D01*
X269771Y83448D01*
X269771Y79724D01*
X269026Y78979D01*
X252974Y78979D01*
X252229Y79724D01*
X252229Y93776D01*
X252974Y94521D01*
X269026Y94521D01*
X269771Y93776D01*
X269771Y90052D01*
X269779Y89994D01*
X269777Y89936D01*
X269799Y89854D01*
X269811Y89770D01*
X269834Y89717D01*
X269849Y89661D01*
X269892Y89588D01*
X269927Y89511D01*
X269965Y89466D01*
X269994Y89416D01*
X270056Y89358D01*
X270110Y89294D01*
X270159Y89262D01*
X270202Y89222D01*
X270277Y89183D01*
X270347Y89136D01*
X270403Y89119D01*
X270455Y89092D01*
X270523Y89081D01*
X270618Y89051D01*
X270718Y89048D01*
X270786Y89037D01*
X271214Y89037D01*
X271272Y89045D01*
X271330Y89043D01*
X271412Y89065D01*
X271496Y89077D01*
X271549Y89100D01*
X271605Y89115D01*
X271678Y89158D01*
X271755Y89193D01*
X271800Y89231D01*
X271850Y89260D01*
X271908Y89322D01*
X271972Y89376D01*
X272004Y89425D01*
X272044Y89468D01*
X272083Y89543D01*
X272130Y89613D01*
X272147Y89669D01*
X272174Y89721D01*
X272185Y89789D01*
X272215Y89884D01*
X272218Y89984D01*
X272229Y90052D01*
X272229Y94776D01*
X272974Y95521D01*
X279448Y95521D01*
X279506Y95529D01*
X279564Y95527D01*
X279646Y95549D01*
X279730Y95561D01*
X279783Y95584D01*
X279839Y95599D01*
X279912Y95642D01*
X279989Y95677D01*
X280034Y95715D01*
X280084Y95744D01*
X280142Y95806D01*
X280206Y95860D01*
X280238Y95909D01*
X280278Y95952D01*
X280317Y96027D01*
X280364Y96097D01*
X280381Y96153D01*
X280408Y96205D01*
X280419Y96273D01*
X280449Y96368D01*
X280452Y96468D01*
X280463Y96536D01*
X280463Y100000D01*
X280455Y100058D01*
X280457Y100116D01*
X280435Y100198D01*
X280423Y100282D01*
X280400Y100335D01*
X280385Y100391D01*
X280342Y100464D01*
X280307Y100541D01*
X280269Y100586D01*
X280240Y100636D01*
X280178Y100694D01*
X280124Y100758D01*
X280075Y100790D01*
X280032Y100830D01*
X279957Y100869D01*
X279887Y100916D01*
X279831Y100933D01*
X279779Y100960D01*
X279711Y100971D01*
X279616Y101001D01*
X279516Y101004D01*
X279448Y101015D01*
X266015Y101015D01*
X266015Y117330D01*
X266009Y117378D01*
X266009Y117379D01*
X266008Y117381D01*
X266003Y117417D01*
X266000Y117504D01*
X265983Y117557D01*
X265975Y117612D01*
X265940Y117692D01*
X265913Y117775D01*
X265885Y117814D01*
X265859Y117871D01*
X265763Y117984D01*
X265718Y118048D01*
X244713Y139053D01*
X244713Y165632D01*
X244701Y165719D01*
X244698Y165806D01*
X244681Y165859D01*
X244673Y165914D01*
X244638Y165994D01*
X244611Y166077D01*
X244583Y166116D01*
X244557Y166173D01*
X244461Y166286D01*
X244416Y166350D01*
X216450Y194316D01*
X216380Y194368D01*
X216316Y194428D01*
X216267Y194454D01*
X216223Y194487D01*
X216141Y194518D01*
X216063Y194558D01*
X216016Y194566D01*
X215957Y194588D01*
X215810Y194600D01*
X215732Y194613D01*
X180536Y194613D01*
X180478Y194605D01*
X180420Y194607D01*
X180338Y194585D01*
X180254Y194573D01*
X180201Y194550D01*
X180145Y194535D01*
X180072Y194492D01*
X179995Y194457D01*
X179950Y194419D01*
X179900Y194390D01*
X179842Y194328D01*
X179778Y194274D01*
X179746Y194225D01*
X179706Y194182D01*
X179667Y194107D01*
X179620Y194037D01*
X179603Y193981D01*
X179576Y193929D01*
X179565Y193861D01*
X179535Y193766D01*
X179532Y193666D01*
X179521Y193598D01*
X179521Y193124D01*
X178515Y192118D01*
X178480Y192071D01*
X178437Y192031D01*
X178395Y191958D01*
X178344Y191891D01*
X178323Y191836D01*
X178294Y191786D01*
X178273Y191704D01*
X178243Y191625D01*
X178238Y191567D01*
X178224Y191510D01*
X178226Y191426D01*
X178219Y191342D01*
X178231Y191284D01*
X178233Y191226D01*
X178259Y191146D01*
X178275Y191063D01*
X178302Y191011D01*
X178320Y190955D01*
X178360Y190899D01*
X178406Y190811D01*
X178452Y190762D01*
X178465Y190740D01*
X178490Y190717D01*
X178515Y190682D01*
X179521Y189676D01*
X179521Y182124D01*
X178515Y181118D01*
X178480Y181071D01*
X178437Y181031D01*
X178395Y180958D01*
X178344Y180891D01*
X178323Y180836D01*
X178294Y180786D01*
X178273Y180704D01*
X178243Y180625D01*
X178238Y180567D01*
X178224Y180510D01*
X178226Y180426D01*
X178219Y180342D01*
X178231Y180284D01*
X178233Y180226D01*
X178259Y180146D01*
X178275Y180063D01*
X178302Y180011D01*
X178320Y179955D01*
X178360Y179899D01*
X178406Y179811D01*
X178475Y179738D01*
X178515Y179682D01*
X179521Y178676D01*
X179521Y171124D01*
X178515Y170118D01*
X178480Y170071D01*
X178437Y170031D01*
X178395Y169958D01*
X178344Y169891D01*
X178323Y169836D01*
X178294Y169786D01*
X178273Y169704D01*
X178243Y169625D01*
X178238Y169567D01*
X178224Y169510D01*
X178226Y169426D01*
X178219Y169342D01*
X178231Y169284D01*
X178233Y169226D01*
X178259Y169146D01*
X178275Y169063D01*
X178302Y169011D01*
X178320Y168955D01*
X178360Y168899D01*
X178406Y168811D01*
X178475Y168738D01*
X178515Y168682D01*
X178681Y168516D01*
X178751Y168463D01*
X178815Y168404D01*
X178864Y168378D01*
X178908Y168345D01*
X178990Y168314D01*
X179068Y168274D01*
X179115Y168266D01*
X179174Y168244D01*
X179322Y168232D01*
X179399Y168219D01*
X186214Y168219D01*
X186272Y168227D01*
X186330Y168225D01*
X186412Y168247D01*
X186496Y168259D01*
X186549Y168282D01*
X186605Y168297D01*
X186678Y168340D01*
X186755Y168375D01*
X186800Y168413D01*
X186850Y168442D01*
X186908Y168504D01*
X186972Y168558D01*
X187004Y168607D01*
X187044Y168650D01*
X187083Y168725D01*
X187130Y168795D01*
X187147Y168851D01*
X187174Y168903D01*
X187185Y168971D01*
X187215Y169066D01*
X187218Y169166D01*
X187229Y169234D01*
X187229Y171526D01*
X187974Y172271D01*
X204026Y172271D01*
X204771Y171526D01*
X204771Y169834D01*
X204779Y169776D01*
X204777Y169718D01*
X204799Y169636D01*
X204811Y169552D01*
X204834Y169499D01*
X204849Y169443D01*
X204892Y169370D01*
X204927Y169293D01*
X204965Y169248D01*
X204994Y169198D01*
X205056Y169140D01*
X205110Y169076D01*
X205159Y169044D01*
X205202Y169004D01*
X205277Y168965D01*
X205347Y168918D01*
X205403Y168901D01*
X205455Y168874D01*
X205523Y168863D01*
X205618Y168833D01*
X205718Y168830D01*
X205786Y168819D01*
X215289Y168819D01*
X227619Y156489D01*
X227619Y103736D01*
X227627Y103678D01*
X227625Y103620D01*
X227647Y103538D01*
X227659Y103454D01*
X227682Y103401D01*
X227697Y103345D01*
X227740Y103272D01*
X227775Y103195D01*
X227813Y103150D01*
X227842Y103100D01*
X227904Y103042D01*
X227958Y102978D01*
X228007Y102946D01*
X228050Y102906D01*
X228125Y102867D01*
X228195Y102820D01*
X228251Y102803D01*
X228303Y102776D01*
X228371Y102765D01*
X228466Y102735D01*
X228566Y102732D01*
X228634Y102721D01*
X237326Y102721D01*
X238071Y101976D01*
X238071Y75424D01*
X237326Y74679D01*
X228634Y74679D01*
X228576Y74671D01*
X228518Y74673D01*
X228436Y74651D01*
X228352Y74639D01*
X228299Y74616D01*
X228243Y74601D01*
X228170Y74558D01*
X228093Y74523D01*
X228048Y74485D01*
X227998Y74456D01*
X227940Y74394D01*
X227876Y74340D01*
X227844Y74291D01*
X227804Y74248D01*
X227765Y74173D01*
X227718Y74103D01*
X227701Y74047D01*
X227674Y73995D01*
X227663Y73927D01*
X227633Y73832D01*
X227630Y73732D01*
X227619Y73664D01*
X227619Y68909D01*
X227631Y68823D01*
X227634Y68735D01*
X227651Y68683D01*
X227659Y68628D01*
X227694Y68548D01*
X227721Y68465D01*
X227749Y68426D01*
X227775Y68369D01*
X227871Y68255D01*
X227916Y68192D01*
X235492Y60616D01*
X235561Y60564D01*
X235625Y60504D01*
X235675Y60478D01*
X235719Y60445D01*
X235800Y60414D01*
X235878Y60374D01*
X235926Y60366D01*
X235984Y60344D01*
X236132Y60332D01*
X236209Y60319D01*
X254789Y60319D01*
X266819Y48289D01*
X266819Y46286D01*
X266827Y46228D01*
X266825Y46170D01*
X266847Y46088D01*
X266859Y46004D01*
X266882Y45951D01*
X266897Y45895D01*
X266940Y45822D01*
X266975Y45745D01*
X267013Y45700D01*
X267042Y45650D01*
X267104Y45592D01*
X267158Y45528D01*
X267207Y45496D01*
X267250Y45456D01*
X267325Y45417D01*
X267395Y45370D01*
X267451Y45353D01*
X267503Y45326D01*
X267571Y45315D01*
X267666Y45285D01*
X267766Y45282D01*
X267834Y45271D01*
X268026Y45271D01*
X268771Y44526D01*
X268771Y29474D01*
X268026Y28729D01*
X256974Y28729D01*
X256229Y29474D01*
X256229Y44526D01*
X256580Y44877D01*
X256615Y44924D01*
X256657Y44964D01*
X256700Y45037D01*
X256751Y45104D01*
X256772Y45159D01*
X256801Y45209D01*
X256822Y45291D01*
X256852Y45370D01*
X256857Y45428D01*
X256871Y45485D01*
X256868Y45569D01*
X256875Y45653D01*
X256864Y45710D01*
X256862Y45769D01*
X256836Y45849D01*
X256820Y45932D01*
X256793Y45984D01*
X256775Y46039D01*
X256735Y46095D01*
X256689Y46184D01*
X256620Y46256D01*
X256580Y46313D01*
X251508Y51384D01*
X251439Y51436D01*
X251375Y51496D01*
X251325Y51522D01*
X251281Y51555D01*
X251200Y51586D01*
X251122Y51626D01*
X251074Y51634D01*
X251016Y51656D01*
X250868Y51668D01*
X250791Y51681D01*
X232211Y51681D01*
X218981Y64911D01*
X218981Y73664D01*
X218974Y73713D01*
X218975Y73724D01*
X218973Y73729D01*
X218975Y73780D01*
X218953Y73862D01*
X218941Y73946D01*
X218918Y73999D01*
X218903Y74055D01*
X218860Y74128D01*
X218825Y74205D01*
X218787Y74250D01*
X218758Y74300D01*
X218696Y74358D01*
X218642Y74422D01*
X218593Y74454D01*
X218550Y74494D01*
X218475Y74533D01*
X218405Y74580D01*
X218349Y74597D01*
X218297Y74624D01*
X218229Y74635D01*
X218134Y74665D01*
X218034Y74668D01*
X217966Y74679D01*
X209274Y74679D01*
X208529Y75424D01*
X208529Y101976D01*
X209274Y102721D01*
X217966Y102721D01*
X218024Y102729D01*
X218082Y102727D01*
X218164Y102749D01*
X218248Y102761D01*
X218301Y102784D01*
X218357Y102799D01*
X218430Y102842D01*
X218507Y102877D01*
X218552Y102915D01*
X218602Y102944D01*
X218660Y103006D01*
X218724Y103060D01*
X218756Y103109D01*
X218796Y103152D01*
X218835Y103227D01*
X218882Y103297D01*
X218899Y103353D01*
X218926Y103405D01*
X218937Y103473D01*
X218967Y103568D01*
X218970Y103668D01*
X218981Y103736D01*
X218981Y152491D01*
X218969Y152577D01*
X218966Y152665D01*
X218949Y152717D01*
X218941Y152772D01*
X218906Y152852D01*
X218879Y152935D01*
X218851Y152974D01*
X218825Y153031D01*
X218729Y153145D01*
X218684Y153208D01*
X212008Y159884D01*
X211939Y159936D01*
X211875Y159996D01*
X211825Y160022D01*
X211781Y160055D01*
X211700Y160086D01*
X211622Y160126D01*
X211574Y160134D01*
X211516Y160156D01*
X211368Y160168D01*
X211291Y160181D01*
X205786Y160181D01*
X205728Y160173D01*
X205670Y160175D01*
X205588Y160153D01*
X205504Y160141D01*
X205451Y160118D01*
X205395Y160103D01*
X205322Y160060D01*
X205245Y160025D01*
X205200Y159987D01*
X205150Y159958D01*
X205092Y159896D01*
X205028Y159842D01*
X204996Y159793D01*
X204956Y159750D01*
X204917Y159675D01*
X204870Y159605D01*
X204853Y159549D01*
X204826Y159497D01*
X204815Y159429D01*
X204785Y159334D01*
X204782Y159234D01*
X204771Y159166D01*
X204771Y157474D01*
X204026Y156729D01*
X187974Y156729D01*
X187229Y157474D01*
X187229Y158566D01*
X187221Y158624D01*
X187223Y158682D01*
X187201Y158764D01*
X187189Y158848D01*
X187166Y158901D01*
X187151Y158957D01*
X187108Y159030D01*
X187073Y159107D01*
X187035Y159152D01*
X187006Y159202D01*
X186944Y159260D01*
X186890Y159324D01*
X186841Y159356D01*
X186798Y159396D01*
X186723Y159435D01*
X186653Y159482D01*
X186597Y159499D01*
X186545Y159526D01*
X186477Y159537D01*
X186382Y159567D01*
X186282Y159570D01*
X186214Y159581D01*
X179399Y159581D01*
X179312Y159569D01*
X179225Y159566D01*
X179172Y159549D01*
X179117Y159541D01*
X179038Y159506D01*
X178954Y159479D01*
X178915Y159451D01*
X178858Y159425D01*
X178804Y159379D01*
X162724Y159379D01*
X161979Y160124D01*
X161979Y160344D01*
X161971Y160402D01*
X161973Y160460D01*
X161951Y160542D01*
X161939Y160626D01*
X161916Y160679D01*
X161901Y160735D01*
X161858Y160808D01*
X161823Y160885D01*
X161785Y160930D01*
X161756Y160980D01*
X161694Y161038D01*
X161640Y161102D01*
X161591Y161134D01*
X161548Y161174D01*
X161473Y161213D01*
X161403Y161260D01*
X161347Y161277D01*
X161295Y161304D01*
X161227Y161315D01*
X161132Y161345D01*
X161032Y161348D01*
X160964Y161359D01*
X150048Y161359D01*
X140270Y171137D01*
X140246Y171155D01*
X140227Y171177D01*
X140133Y171240D01*
X140043Y171308D01*
X140015Y171318D01*
X139991Y171335D01*
X139883Y171369D01*
X139777Y171409D01*
X139748Y171412D01*
X139720Y171420D01*
X139606Y171423D01*
X139494Y171433D01*
X139465Y171427D01*
X139436Y171428D01*
X139326Y171399D01*
X139215Y171377D01*
X139189Y171363D01*
X139161Y171356D01*
X139063Y171298D01*
X138963Y171246D01*
X138941Y171226D01*
X138916Y171211D01*
X138839Y171128D01*
X138757Y171050D01*
X138742Y171025D01*
X138722Y171003D01*
X138670Y170902D01*
X138613Y170805D01*
X138606Y170776D01*
X138592Y170750D01*
X138579Y170673D01*
X138543Y170529D01*
X138545Y170467D01*
X138537Y170419D01*
X138537Y81118D01*
X138549Y81031D01*
X138552Y80944D01*
X138569Y80891D01*
X138577Y80836D01*
X138612Y80756D01*
X138639Y80673D01*
X138667Y80634D01*
X138693Y80577D01*
X138789Y80464D01*
X138834Y80400D01*
X175287Y43947D01*
X175287Y30136D01*
X175299Y30049D01*
X175302Y29961D01*
X175319Y29909D01*
X175327Y29854D01*
X175362Y29774D01*
X175389Y29691D01*
X175417Y29652D01*
X175443Y29595D01*
X175539Y29481D01*
X175584Y29418D01*
X176537Y28465D01*
X176537Y27286D01*
X176545Y27228D01*
X176543Y27170D01*
X176565Y27088D01*
X176577Y27004D01*
X176600Y26951D01*
X176615Y26895D01*
X176658Y26822D01*
X176693Y26745D01*
X176731Y26700D01*
X176760Y26650D01*
X176822Y26592D01*
X176876Y26528D01*
X176925Y26496D01*
X176968Y26456D01*
X177043Y26417D01*
X177113Y26370D01*
X177169Y26353D01*
X177221Y26326D01*
X177289Y26315D01*
X177384Y26285D01*
X177484Y26282D01*
X177552Y26271D01*
X194276Y26271D01*
X195021Y25526D01*
X195021Y11474D01*
X194276Y10729D01*
X177224Y10729D01*
X176479Y11474D01*
X176479Y15698D01*
X176471Y15756D01*
X176473Y15814D01*
X176451Y15896D01*
X176439Y15980D01*
X176416Y16033D01*
X176401Y16089D01*
X176358Y16162D01*
X176323Y16239D01*
X176285Y16284D01*
X176256Y16334D01*
X176194Y16392D01*
X176140Y16456D01*
X176091Y16488D01*
X176048Y16528D01*
X175973Y16567D01*
X175903Y16614D01*
X175847Y16631D01*
X175795Y16658D01*
X175727Y16669D01*
X175632Y16699D01*
X175532Y16702D01*
X175464Y16713D01*
X169036Y16713D01*
X168978Y16705D01*
X168920Y16707D01*
X168838Y16685D01*
X168754Y16673D01*
X168701Y16650D01*
X168645Y16635D01*
X168572Y16592D01*
X168495Y16557D01*
X168450Y16519D01*
X168400Y16490D01*
X168342Y16428D01*
X168278Y16374D01*
X168246Y16325D01*
X168206Y16282D01*
X168167Y16207D01*
X168120Y16137D01*
X168103Y16081D01*
X168076Y16029D01*
X168065Y15961D01*
X168035Y15866D01*
X168032Y15766D01*
X168021Y15698D01*
X168021Y9974D01*
X167276Y9229D01*
X148224Y9229D01*
X147479Y9974D01*
X147479Y28026D01*
X148224Y28771D01*
X167276Y28771D01*
X167805Y28242D01*
X167851Y28207D01*
X167892Y28165D01*
X167965Y28122D01*
X168032Y28071D01*
X168087Y28051D01*
X168137Y28021D01*
X168219Y28000D01*
X168298Y27970D01*
X168356Y27965D01*
X168413Y27951D01*
X168497Y27954D01*
X168581Y27947D01*
X168638Y27958D01*
X168697Y27960D01*
X168777Y27986D01*
X168860Y28002D01*
X168912Y28029D01*
X168967Y28047D01*
X169023Y28087D01*
X169112Y28133D01*
X169184Y28202D01*
X169241Y28242D01*
X170416Y29418D01*
X170468Y29487D01*
X170528Y29551D01*
X170554Y29601D01*
X170587Y29645D01*
X170618Y29727D01*
X170658Y29804D01*
X170666Y29852D01*
X170688Y29910D01*
X170700Y30058D01*
X170713Y30136D01*
X170713Y41632D01*
X170701Y41719D01*
X170698Y41806D01*
X170681Y41859D01*
X170673Y41914D01*
X170638Y41994D01*
X170611Y42077D01*
X170583Y42116D01*
X170557Y42173D01*
X170461Y42286D01*
X170416Y42350D01*
X133963Y78803D01*
X133963Y202814D01*
X133955Y202872D01*
X133957Y202930D01*
X133935Y203012D01*
X133923Y203096D01*
X133900Y203149D01*
X133885Y203205D01*
X133842Y203278D01*
X133807Y203355D01*
X133769Y203400D01*
X133740Y203450D01*
X133678Y203508D01*
X133624Y203572D01*
X133575Y203604D01*
X133532Y203644D01*
X133457Y203683D01*
X133387Y203730D01*
X133331Y203747D01*
X133279Y203774D01*
X133211Y203785D01*
X133116Y203815D01*
X133016Y203818D01*
X132948Y203829D01*
X132474Y203829D01*
X131468Y204835D01*
X131421Y204870D01*
X131381Y204913D01*
X131308Y204955D01*
X131241Y205006D01*
X131186Y205027D01*
X131136Y205056D01*
X131054Y205077D01*
X130975Y205107D01*
X130917Y205112D01*
X130860Y205126D01*
X130776Y205124D01*
X130692Y205131D01*
X130634Y205119D01*
X130576Y205117D01*
X130496Y205091D01*
X130413Y205075D01*
X130361Y205048D01*
X130305Y205030D01*
X130249Y204990D01*
X130161Y204944D01*
X130088Y204875D01*
X130032Y204835D01*
X129026Y203829D01*
X121474Y203829D01*
X120468Y204835D01*
X120421Y204870D01*
X120381Y204913D01*
X120308Y204955D01*
X120241Y205006D01*
X120186Y205027D01*
X120136Y205056D01*
X120054Y205077D01*
X119975Y205107D01*
X119917Y205112D01*
X119860Y205126D01*
X119776Y205124D01*
X119692Y205131D01*
X119634Y205119D01*
X119576Y205117D01*
X119496Y205091D01*
X119413Y205075D01*
X119361Y205048D01*
X119305Y205030D01*
X119249Y204990D01*
X119161Y204944D01*
X119088Y204875D01*
X119032Y204835D01*
X118026Y203829D01*
X110474Y203829D01*
X109468Y204835D01*
X109421Y204870D01*
X109381Y204913D01*
X109308Y204955D01*
X109241Y205006D01*
X109186Y205027D01*
X109136Y205056D01*
X109054Y205077D01*
X108975Y205107D01*
X108917Y205112D01*
X108860Y205126D01*
X108776Y205124D01*
X108692Y205131D01*
X108634Y205119D01*
X108576Y205117D01*
X108496Y205091D01*
X108413Y205075D01*
X108361Y205048D01*
X108305Y205030D01*
X108249Y204990D01*
X108161Y204944D01*
X108088Y204875D01*
X108032Y204835D01*
X107026Y203829D01*
X99474Y203829D01*
X98468Y204835D01*
X98421Y204870D01*
X98381Y204913D01*
X98308Y204955D01*
X98241Y205006D01*
X98186Y205027D01*
X98136Y205056D01*
X98054Y205077D01*
X97975Y205107D01*
X97917Y205112D01*
X97860Y205126D01*
X97776Y205124D01*
X97692Y205131D01*
X97634Y205119D01*
X97576Y205117D01*
X97496Y205091D01*
X97413Y205075D01*
X97361Y205048D01*
X97305Y205030D01*
X97249Y204990D01*
X97161Y204944D01*
X97088Y204875D01*
X97032Y204835D01*
X96026Y203829D01*
X88474Y203829D01*
X87468Y204835D01*
X87421Y204870D01*
X87381Y204913D01*
X87308Y204955D01*
X87241Y205006D01*
X87186Y205027D01*
X87136Y205056D01*
X87054Y205077D01*
X86975Y205107D01*
X86917Y205112D01*
X86860Y205126D01*
X86776Y205124D01*
X86692Y205131D01*
X86634Y205119D01*
X86576Y205117D01*
X86496Y205091D01*
X86413Y205075D01*
X86361Y205048D01*
X86305Y205030D01*
X86249Y204990D01*
X86161Y204944D01*
X86088Y204875D01*
X86032Y204835D01*
X85026Y203829D01*
X77474Y203829D01*
X76468Y204835D01*
X76421Y204870D01*
X76381Y204913D01*
X76308Y204955D01*
X76241Y205006D01*
X76186Y205027D01*
X76136Y205056D01*
X76054Y205077D01*
X75975Y205107D01*
X75917Y205112D01*
X75860Y205126D01*
X75776Y205124D01*
X75692Y205131D01*
X75634Y205119D01*
X75576Y205117D01*
X75496Y205091D01*
X75413Y205075D01*
X75361Y205048D01*
X75305Y205030D01*
X75249Y204990D01*
X75161Y204944D01*
X75088Y204875D01*
X75032Y204835D01*
X74026Y203829D01*
X73536Y203829D01*
X73478Y203821D01*
X73420Y203823D01*
X73338Y203801D01*
X73254Y203789D01*
X73201Y203766D01*
X73145Y203751D01*
X73072Y203708D01*
X72995Y203673D01*
X72950Y203635D01*
X72900Y203606D01*
X72842Y203544D01*
X72778Y203490D01*
X72746Y203441D01*
X72706Y203398D01*
X72667Y203323D01*
X72620Y203253D01*
X72603Y203197D01*
X72576Y203145D01*
X72565Y203077D01*
X72535Y202982D01*
X72532Y202882D01*
X72521Y202814D01*
X72521Y202309D01*
X57941Y187729D01*
X51361Y187729D01*
X51274Y187717D01*
X51187Y187714D01*
X51134Y187697D01*
X51080Y187689D01*
X51000Y187654D01*
X50917Y187627D01*
X50877Y187599D01*
X50820Y187573D01*
X50707Y187477D01*
X50643Y187432D01*
X33568Y170357D01*
X33516Y170287D01*
X33456Y170223D01*
X33430Y170174D01*
X33397Y170130D01*
X33366Y170048D01*
X33326Y169970D01*
X33318Y169922D01*
X33296Y169864D01*
X33284Y169716D01*
X33271Y169639D01*
X33271Y164152D01*
X33283Y164065D01*
X33286Y163977D01*
X33303Y163925D01*
X33311Y163870D01*
X33346Y163790D01*
X33373Y163707D01*
X33401Y163668D01*
X33427Y163611D01*
X33523Y163497D01*
X33568Y163434D01*
X34537Y162465D01*
X34537Y159535D01*
X32465Y157463D01*
X29535Y157463D01*
X27463Y159535D01*
X27463Y162465D01*
X28432Y163434D01*
X28484Y163503D01*
X28544Y163567D01*
X28570Y163617D01*
X28603Y163661D01*
X28634Y163743D01*
X28674Y163820D01*
X28682Y163868D01*
X28704Y163926D01*
X28716Y164074D01*
X28729Y164152D01*
X28729Y171941D01*
X49059Y192271D01*
X49277Y192271D01*
X49306Y192275D01*
X49335Y192272D01*
X49446Y192295D01*
X49558Y192311D01*
X49585Y192323D01*
X49614Y192328D01*
X49714Y192381D01*
X49817Y192427D01*
X49840Y192446D01*
X49866Y192459D01*
X49948Y192537D01*
X50034Y192610D01*
X50051Y192635D01*
X50072Y192655D01*
X50129Y192753D01*
X50192Y192847D01*
X50201Y192875D01*
X50216Y192900D01*
X50244Y193010D01*
X50278Y193118D01*
X50279Y193148D01*
X50286Y193176D01*
X50282Y193289D01*
X50285Y193402D01*
X50278Y193431D01*
X50277Y193460D01*
X50242Y193568D01*
X50213Y193677D01*
X50198Y193703D01*
X50189Y193731D01*
X50144Y193795D01*
X50068Y193922D01*
X50022Y193965D01*
X49994Y194004D01*
X49463Y194535D01*
X49463Y197465D01*
X51535Y199537D01*
X54770Y199537D01*
X54785Y199533D01*
X54869Y199536D01*
X54952Y199529D01*
X55010Y199540D01*
X55069Y199542D01*
X55149Y199568D01*
X55231Y199584D01*
X55283Y199611D01*
X55340Y199630D01*
X55396Y199669D01*
X55483Y199715D01*
X55556Y199784D01*
X55613Y199824D01*
X56682Y200893D01*
X56734Y200963D01*
X56794Y201027D01*
X56820Y201076D01*
X56853Y201120D01*
X56884Y201202D01*
X56924Y201280D01*
X56932Y201328D01*
X56954Y201386D01*
X56966Y201534D01*
X56979Y201611D01*
X56979Y202814D01*
X56971Y202872D01*
X56973Y202930D01*
X56951Y203012D01*
X56939Y203096D01*
X56916Y203149D01*
X56901Y203205D01*
X56858Y203278D01*
X56823Y203355D01*
X56785Y203400D01*
X56756Y203450D01*
X56694Y203508D01*
X56640Y203572D01*
X56591Y203604D01*
X56548Y203644D01*
X56473Y203683D01*
X56403Y203730D01*
X56347Y203747D01*
X56295Y203774D01*
X56227Y203785D01*
X56132Y203815D01*
X56032Y203818D01*
X55964Y203829D01*
X55474Y203829D01*
X54468Y204835D01*
X54421Y204870D01*
X54381Y204913D01*
X54308Y204955D01*
X54241Y205006D01*
X54186Y205027D01*
X54136Y205056D01*
X54054Y205077D01*
X53975Y205107D01*
X53917Y205112D01*
X53860Y205126D01*
X53776Y205124D01*
X53692Y205131D01*
X53634Y205119D01*
X53576Y205117D01*
X53496Y205091D01*
X53413Y205075D01*
X53361Y205048D01*
X53305Y205030D01*
X53249Y204990D01*
X53161Y204944D01*
X53088Y204875D01*
X53032Y204835D01*
X52026Y203829D01*
X44474Y203829D01*
X43468Y204835D01*
X43421Y204870D01*
X43381Y204913D01*
X43308Y204955D01*
X43241Y205006D01*
X43186Y205027D01*
X43136Y205056D01*
X43054Y205077D01*
X42975Y205107D01*
X42917Y205112D01*
X42860Y205126D01*
X42776Y205124D01*
X42692Y205131D01*
X42634Y205119D01*
X42576Y205117D01*
X42496Y205091D01*
X42413Y205075D01*
X42361Y205048D01*
X42305Y205030D01*
X42249Y204990D01*
X42161Y204944D01*
X42088Y204875D01*
X42032Y204835D01*
X41026Y203829D01*
X33474Y203829D01*
X32468Y204835D01*
X32421Y204870D01*
X32381Y204913D01*
X32308Y204955D01*
X32241Y205006D01*
X32186Y205027D01*
X32136Y205056D01*
X32054Y205077D01*
X31975Y205107D01*
X31917Y205112D01*
X31860Y205126D01*
X31776Y205124D01*
X31692Y205131D01*
X31634Y205119D01*
X31576Y205117D01*
X31496Y205091D01*
X31413Y205075D01*
X31361Y205048D01*
X31305Y205030D01*
X31249Y204990D01*
X31161Y204944D01*
X31088Y204875D01*
X31032Y204835D01*
X30026Y203829D01*
X22474Y203829D01*
X21729Y204574D01*
X21729Y220626D01*
X22474Y221371D01*
X30026Y221371D01*
X31032Y220365D01*
X31079Y220330D01*
X31119Y220287D01*
X31192Y220245D01*
X31259Y220194D01*
X31314Y220173D01*
X31364Y220144D01*
X31446Y220123D01*
X31525Y220093D01*
X31583Y220088D01*
X31640Y220074D01*
X31724Y220076D01*
X31808Y220069D01*
X31866Y220081D01*
X31924Y220083D01*
X32004Y220109D01*
X32087Y220125D01*
X32139Y220152D01*
X32195Y220170D01*
X32251Y220210D01*
X32339Y220256D01*
X32412Y220325D01*
X32468Y220365D01*
X33474Y221371D01*
X33944Y221371D01*
X33973Y221375D01*
X34003Y221372D01*
X34114Y221395D01*
X34226Y221411D01*
X34253Y221423D01*
X34281Y221428D01*
X34382Y221481D01*
X34485Y221527D01*
X34508Y221546D01*
X34534Y221559D01*
X34616Y221637D01*
X34702Y221710D01*
X34718Y221735D01*
X34740Y221755D01*
X34797Y221853D01*
X34860Y221947D01*
X34869Y221975D01*
X34883Y222000D01*
X34911Y222110D01*
X34946Y222218D01*
X34946Y222248D01*
X34954Y222276D01*
X34950Y222389D01*
X34953Y222502D01*
X34945Y222531D01*
X34945Y222560D01*
X34910Y222668D01*
X34881Y222777D01*
X34866Y222803D01*
X34857Y222831D01*
X34812Y222894D01*
X34736Y223022D01*
X34690Y223065D01*
X34662Y223104D01*
X32350Y225416D01*
X32280Y225468D01*
X32216Y225528D01*
X32167Y225554D01*
X32123Y225587D01*
X32041Y225618D01*
X31963Y225658D01*
X31916Y225666D01*
X31857Y225688D01*
X31710Y225700D01*
X31632Y225713D01*
X22053Y225713D01*
X15213Y232553D01*
X15213Y237964D01*
X15205Y238022D01*
X15207Y238080D01*
X15185Y238162D01*
X15173Y238246D01*
X15150Y238299D01*
X15135Y238355D01*
X15092Y238428D01*
X15057Y238505D01*
X15019Y238550D01*
X14990Y238600D01*
X14928Y238658D01*
X14874Y238722D01*
X14825Y238754D01*
X14782Y238794D01*
X14707Y238833D01*
X14637Y238880D01*
X14581Y238897D01*
X14529Y238924D01*
X14461Y238935D01*
X14366Y238965D01*
X14266Y238968D01*
X14198Y238979D01*
X12116Y238979D01*
X12058Y238971D01*
X12000Y238973D01*
X11918Y238951D01*
X11834Y238939D01*
X11781Y238916D01*
X11725Y238901D01*
X11652Y238858D01*
X11575Y238823D01*
X11530Y238785D01*
X11480Y238756D01*
X11422Y238694D01*
X11358Y238640D01*
X11326Y238591D01*
X11286Y238548D01*
X11247Y238473D01*
X11200Y238403D01*
X11183Y238347D01*
X11156Y238295D01*
X11145Y238227D01*
X11115Y238132D01*
X11112Y238032D01*
X11101Y237964D01*
X11101Y125786D01*
X11105Y125757D01*
X11102Y125727D01*
X11125Y125616D01*
X11141Y125504D01*
X11153Y125477D01*
X11158Y125449D01*
X11210Y125348D01*
X11257Y125245D01*
X11276Y125222D01*
X11289Y125196D01*
X11367Y125114D01*
X11440Y125028D01*
X11465Y125011D01*
X11485Y124990D01*
X11583Y124933D01*
X11677Y124870D01*
X11705Y124861D01*
X11730Y124847D01*
X11840Y124819D01*
X11948Y124784D01*
X11978Y124784D01*
X12006Y124776D01*
X12119Y124780D01*
X12232Y124777D01*
X12261Y124785D01*
X12290Y124785D01*
X12398Y124820D01*
X12507Y124849D01*
X12533Y124864D01*
X12561Y124873D01*
X12624Y124918D01*
X12752Y124994D01*
X12795Y125040D01*
X12834Y125068D01*
X23416Y135650D01*
X25053Y137287D01*
X31864Y137287D01*
X31951Y137299D01*
X32039Y137302D01*
X32091Y137319D01*
X32146Y137327D01*
X32226Y137362D01*
X32309Y137389D01*
X32348Y137417D01*
X32405Y137443D01*
X32519Y137539D01*
X32582Y137584D01*
X33535Y138537D01*
X36465Y138537D01*
X38537Y136465D01*
X38537Y133535D01*
X36465Y131463D01*
X33535Y131463D01*
X32582Y132416D01*
X32513Y132468D01*
X32449Y132528D01*
X32399Y132554D01*
X32355Y132587D01*
X32273Y132618D01*
X32196Y132658D01*
X32148Y132666D01*
X32090Y132688D01*
X31942Y132700D01*
X31864Y132713D01*
X27368Y132713D01*
X27281Y132701D01*
X27194Y132698D01*
X27141Y132681D01*
X27086Y132673D01*
X27006Y132638D01*
X26923Y132611D01*
X26884Y132583D01*
X26827Y132557D01*
X26714Y132461D01*
X26650Y132416D01*
X17834Y123600D01*
X17782Y123530D01*
X17722Y123466D01*
X17696Y123417D01*
X17663Y123373D01*
X17632Y123291D01*
X17592Y123213D01*
X17584Y123166D01*
X17562Y123107D01*
X17550Y122960D01*
X17537Y122882D01*
X17537Y77199D01*
X17541Y77170D01*
X17538Y77141D01*
X17561Y77030D01*
X17577Y76918D01*
X17589Y76891D01*
X17594Y76862D01*
X17647Y76761D01*
X17693Y76658D01*
X17712Y76636D01*
X17725Y76610D01*
X17803Y76528D01*
X17876Y76441D01*
X17901Y76425D01*
X17921Y76404D01*
X18019Y76346D01*
X18113Y76284D01*
X18141Y76275D01*
X18166Y76260D01*
X18276Y76232D01*
X18384Y76198D01*
X18414Y76197D01*
X18442Y76190D01*
X18555Y76193D01*
X18668Y76190D01*
X18697Y76198D01*
X18726Y76199D01*
X18834Y76234D01*
X18943Y76262D01*
X18969Y76277D01*
X18997Y76286D01*
X19061Y76332D01*
X19188Y76408D01*
X19231Y76453D01*
X19270Y76481D01*
X20059Y77271D01*
X20848Y77271D01*
X20935Y77283D01*
X21023Y77286D01*
X21075Y77303D01*
X21130Y77311D01*
X21210Y77346D01*
X21293Y77373D01*
X21332Y77401D01*
X21389Y77427D01*
X21503Y77523D01*
X21566Y77568D01*
X22535Y78537D01*
X25465Y78537D01*
X27537Y76465D01*
X27537Y73535D01*
X26220Y72218D01*
X26185Y72171D01*
X26142Y72131D01*
X26099Y72058D01*
X26049Y71991D01*
X26028Y71936D01*
X25998Y71886D01*
X25977Y71804D01*
X25947Y71725D01*
X25943Y71667D01*
X25928Y71610D01*
X25931Y71526D01*
X25924Y71442D01*
X25935Y71384D01*
X25937Y71326D01*
X25963Y71246D01*
X25980Y71163D01*
X26007Y71111D01*
X26025Y71055D01*
X26065Y70999D01*
X26111Y70911D01*
X26180Y70838D01*
X26220Y70782D01*
X26434Y70568D01*
X26503Y70516D01*
X26567Y70456D01*
X26617Y70430D01*
X26661Y70397D01*
X26742Y70366D01*
X26820Y70326D01*
X26868Y70318D01*
X26927Y70296D01*
X27074Y70284D01*
X27152Y70271D01*
X31941Y70271D01*
X39521Y62691D01*
X39521Y58486D01*
X39529Y58428D01*
X39527Y58370D01*
X39549Y58288D01*
X39561Y58204D01*
X39584Y58151D01*
X39599Y58095D01*
X39642Y58022D01*
X39677Y57945D01*
X39715Y57900D01*
X39744Y57850D01*
X39806Y57792D01*
X39860Y57728D01*
X39909Y57696D01*
X39952Y57656D01*
X40027Y57617D01*
X40097Y57570D01*
X40153Y57553D01*
X40205Y57526D01*
X40273Y57515D01*
X40368Y57485D01*
X40468Y57482D01*
X40536Y57471D01*
X41026Y57471D01*
X42032Y56465D01*
X42079Y56430D01*
X42119Y56387D01*
X42192Y56345D01*
X42259Y56294D01*
X42314Y56273D01*
X42364Y56244D01*
X42446Y56223D01*
X42525Y56193D01*
X42583Y56188D01*
X42640Y56174D01*
X42724Y56176D01*
X42808Y56169D01*
X42866Y56181D01*
X42924Y56183D01*
X43004Y56209D01*
X43087Y56225D01*
X43139Y56252D01*
X43195Y56270D01*
X43251Y56310D01*
X43339Y56356D01*
X43412Y56425D01*
X43468Y56465D01*
X44474Y57471D01*
X52026Y57471D01*
X53032Y56465D01*
X53079Y56430D01*
X53119Y56387D01*
X53192Y56345D01*
X53259Y56294D01*
X53314Y56273D01*
X53364Y56244D01*
X53446Y56223D01*
X53525Y56193D01*
X53583Y56188D01*
X53640Y56174D01*
X53724Y56176D01*
X53808Y56169D01*
X53866Y56181D01*
X53924Y56183D01*
X54004Y56209D01*
X54087Y56225D01*
X54139Y56252D01*
X54195Y56270D01*
X54251Y56310D01*
X54339Y56356D01*
X54412Y56425D01*
X54468Y56465D01*
X55474Y57471D01*
X63026Y57471D01*
X64032Y56465D01*
X64079Y56430D01*
X64119Y56387D01*
X64192Y56345D01*
X64259Y56294D01*
X64314Y56273D01*
X64364Y56244D01*
X64446Y56223D01*
X64525Y56193D01*
X64583Y56188D01*
X64640Y56174D01*
X64724Y56176D01*
X64808Y56169D01*
X64866Y56181D01*
X64924Y56183D01*
X65004Y56209D01*
X65087Y56225D01*
X65139Y56252D01*
X65195Y56270D01*
X65251Y56310D01*
X65339Y56356D01*
X65412Y56425D01*
X65468Y56465D01*
X66474Y57471D01*
X74026Y57471D01*
X75032Y56465D01*
X75079Y56430D01*
X75119Y56387D01*
X75192Y56345D01*
X75259Y56294D01*
X75314Y56273D01*
X75364Y56244D01*
X75446Y56223D01*
X75525Y56193D01*
X75583Y56188D01*
X75640Y56174D01*
X75724Y56176D01*
X75808Y56169D01*
X75866Y56181D01*
X75924Y56183D01*
X76004Y56209D01*
X76087Y56225D01*
X76139Y56252D01*
X76195Y56270D01*
X76251Y56310D01*
X76339Y56356D01*
X76412Y56425D01*
X76468Y56465D01*
X77474Y57471D01*
X85026Y57471D01*
X86032Y56465D01*
X86079Y56430D01*
X86119Y56387D01*
X86192Y56345D01*
X86259Y56294D01*
X86314Y56273D01*
X86364Y56244D01*
X86446Y56223D01*
X86525Y56193D01*
X86583Y56188D01*
X86640Y56174D01*
X86724Y56176D01*
X86808Y56169D01*
X86866Y56181D01*
X86924Y56183D01*
X87004Y56209D01*
X87087Y56225D01*
X87139Y56252D01*
X87195Y56270D01*
X87251Y56310D01*
X87339Y56356D01*
X87412Y56425D01*
X87468Y56465D01*
X88474Y57471D01*
X88948Y57471D01*
X89006Y57479D01*
X89064Y57477D01*
X89146Y57499D01*
X89230Y57511D01*
X89283Y57534D01*
X89339Y57549D01*
X89412Y57592D01*
X89489Y57627D01*
X89534Y57665D01*
X89584Y57694D01*
X89642Y57756D01*
X89706Y57810D01*
X89738Y57859D01*
X89778Y57902D01*
X89817Y57977D01*
X89864Y58047D01*
X89881Y58103D01*
X89908Y58155D01*
X89919Y58223D01*
X89949Y58318D01*
X89952Y58418D01*
X89963Y58486D01*
X89963Y63383D01*
X89951Y63470D01*
X89948Y63557D01*
X89931Y63610D01*
X89923Y63665D01*
X89888Y63744D01*
X89861Y63828D01*
X89833Y63867D01*
X89807Y63924D01*
X89711Y64037D01*
X89666Y64101D01*
X75350Y78415D01*
X74409Y79356D01*
X73713Y80052D01*
X73713Y81003D01*
X73713Y82366D01*
X73713Y111864D01*
X73701Y111951D01*
X73698Y112039D01*
X73681Y112091D01*
X73673Y112146D01*
X73638Y112226D01*
X73611Y112309D01*
X73583Y112348D01*
X73557Y112405D01*
X73461Y112519D01*
X73416Y112582D01*
X72463Y113535D01*
X72463Y116465D01*
X74535Y118537D01*
X77465Y118537D01*
X79537Y116465D01*
X79537Y113535D01*
X78584Y112582D01*
X78532Y112513D01*
X78472Y112449D01*
X78446Y112399D01*
X78413Y112355D01*
X78382Y112273D01*
X78342Y112196D01*
X78334Y112148D01*
X78312Y112090D01*
X78300Y111942D01*
X78287Y111864D01*
X78287Y82367D01*
X78299Y82280D01*
X78302Y82193D01*
X78319Y82140D01*
X78327Y82085D01*
X78362Y82005D01*
X78389Y81922D01*
X78417Y81883D01*
X78443Y81826D01*
X78539Y81713D01*
X78584Y81649D01*
X92900Y67335D01*
X93834Y66401D01*
X94537Y65698D01*
X94537Y64756D01*
X94537Y63384D01*
X94537Y63383D01*
X94537Y58486D01*
X94545Y58428D01*
X94543Y58370D01*
X94565Y58288D01*
X94577Y58204D01*
X94600Y58151D01*
X94615Y58095D01*
X94658Y58022D01*
X94693Y57945D01*
X94731Y57900D01*
X94760Y57850D01*
X94822Y57792D01*
X94876Y57728D01*
X94925Y57696D01*
X94968Y57656D01*
X95043Y57617D01*
X95113Y57570D01*
X95169Y57553D01*
X95221Y57526D01*
X95289Y57515D01*
X95384Y57485D01*
X95484Y57482D01*
X95552Y57471D01*
X96026Y57471D01*
X97032Y56465D01*
X97079Y56430D01*
X97119Y56387D01*
X97192Y56345D01*
X97259Y56294D01*
X97314Y56273D01*
X97364Y56244D01*
X97446Y56223D01*
X97525Y56193D01*
X97583Y56188D01*
X97640Y56174D01*
X97724Y56176D01*
X97808Y56169D01*
X97866Y56181D01*
X97924Y56183D01*
X98004Y56209D01*
X98087Y56225D01*
X98139Y56252D01*
X98195Y56270D01*
X98251Y56310D01*
X98339Y56356D01*
X98412Y56425D01*
X98468Y56465D01*
X99474Y57471D01*
X107026Y57471D01*
X108032Y56465D01*
X108079Y56430D01*
X108119Y56387D01*
X108192Y56345D01*
X108259Y56294D01*
X108314Y56273D01*
X108364Y56244D01*
X108446Y56223D01*
X108525Y56193D01*
X108583Y56188D01*
X108640Y56174D01*
X108724Y56176D01*
X108808Y56169D01*
X108866Y56181D01*
X108924Y56183D01*
X109004Y56209D01*
X109087Y56225D01*
X109139Y56252D01*
X109195Y56270D01*
X109251Y56310D01*
X109339Y56356D01*
X109412Y56425D01*
X109468Y56465D01*
X110474Y57471D01*
X118026Y57471D01*
X119032Y56465D01*
X119079Y56430D01*
X119119Y56387D01*
X119192Y56345D01*
X119259Y56294D01*
X119314Y56273D01*
X119364Y56244D01*
X119446Y56223D01*
X119525Y56193D01*
X119583Y56188D01*
X119640Y56174D01*
X119724Y56176D01*
X119808Y56169D01*
X119866Y56181D01*
X119924Y56183D01*
X120004Y56209D01*
X120087Y56225D01*
X120139Y56252D01*
X120195Y56270D01*
X120251Y56310D01*
X120339Y56356D01*
X120412Y56425D01*
X120468Y56465D01*
X121474Y57471D01*
X129026Y57471D01*
X130032Y56465D01*
X130079Y56430D01*
X130119Y56387D01*
X130192Y56345D01*
X130259Y56294D01*
X130314Y56273D01*
X130364Y56244D01*
X130446Y56223D01*
X130525Y56193D01*
X130583Y56188D01*
X130640Y56174D01*
X130724Y56176D01*
X130808Y56169D01*
X130866Y56181D01*
X130924Y56183D01*
X131004Y56209D01*
X131087Y56225D01*
X131139Y56252D01*
X131195Y56270D01*
X131251Y56310D01*
X131339Y56356D01*
X131412Y56425D01*
X131468Y56465D01*
X132474Y57471D01*
X140026Y57471D01*
X141032Y56465D01*
X141079Y56430D01*
X141119Y56387D01*
X141192Y56345D01*
X141259Y56294D01*
X141314Y56273D01*
X141364Y56244D01*
X141446Y56223D01*
X141525Y56193D01*
X141583Y56188D01*
X141640Y56174D01*
X141724Y56176D01*
X141808Y56169D01*
X141866Y56181D01*
X141924Y56183D01*
X142004Y56209D01*
X142087Y56225D01*
X142139Y56252D01*
X142195Y56270D01*
X142251Y56310D01*
X142339Y56356D01*
X142412Y56425D01*
X142468Y56465D01*
X143474Y57471D01*
X151026Y57471D01*
X151771Y56726D01*
X151771Y40674D01*
X151026Y39929D01*
X143474Y39929D01*
X142468Y40935D01*
X142421Y40970D01*
X142381Y41013D01*
X142308Y41055D01*
X142241Y41106D01*
X142186Y41127D01*
X142136Y41156D01*
X142054Y41177D01*
X141975Y41207D01*
X141917Y41212D01*
X141860Y41226D01*
X141776Y41224D01*
X141692Y41231D01*
X141634Y41219D01*
X141576Y41217D01*
X141496Y41191D01*
X141413Y41175D01*
X141361Y41148D01*
X141305Y41130D01*
X141249Y41090D01*
X141161Y41044D01*
X141088Y40975D01*
X141032Y40935D01*
X140026Y39929D01*
X139552Y39929D01*
X139494Y39921D01*
X139436Y39923D01*
X139354Y39901D01*
X139270Y39889D01*
X139217Y39866D01*
X139161Y39851D01*
X139088Y39808D01*
X139011Y39773D01*
X138966Y39735D01*
X138916Y39706D01*
X138858Y39644D01*
X138794Y39590D01*
X138762Y39541D01*
X138722Y39498D01*
X138683Y39423D01*
X138636Y39353D01*
X138619Y39297D01*
X138592Y39245D01*
X138581Y39177D01*
X138551Y39082D01*
X138548Y38982D01*
X138537Y38914D01*
X138537Y36303D01*
X136900Y34666D01*
X133947Y31713D01*
X122368Y31713D01*
X122281Y31701D01*
X122194Y31698D01*
X122141Y31681D01*
X122086Y31673D01*
X122006Y31638D01*
X121923Y31611D01*
X121884Y31583D01*
X121827Y31557D01*
X121714Y31461D01*
X121650Y31416D01*
X120738Y30504D01*
X120720Y30480D01*
X120698Y30461D01*
X120635Y30367D01*
X120567Y30277D01*
X120556Y30249D01*
X120540Y30225D01*
X120506Y30117D01*
X120466Y30011D01*
X120463Y29982D01*
X120454Y29954D01*
X120451Y29840D01*
X120442Y29728D01*
X120448Y29699D01*
X120447Y29670D01*
X120476Y29560D01*
X120498Y29449D01*
X120512Y29423D01*
X120519Y29395D01*
X120577Y29297D01*
X120629Y29197D01*
X120649Y29175D01*
X120664Y29150D01*
X120747Y29073D01*
X120825Y28991D01*
X120850Y28976D01*
X120871Y28956D01*
X120972Y28904D01*
X121070Y28847D01*
X121098Y28840D01*
X121125Y28826D01*
X121202Y28813D01*
X121346Y28777D01*
X121408Y28779D01*
X121456Y28771D01*
X126276Y28771D01*
X127021Y28026D01*
X127021Y9974D01*
X126276Y9229D01*
X107224Y9229D01*
X106479Y9974D01*
X106479Y28026D01*
X107224Y28771D01*
X113448Y28771D01*
X113506Y28779D01*
X113564Y28777D01*
X113646Y28799D01*
X113730Y28811D01*
X113783Y28834D01*
X113839Y28849D01*
X113912Y28892D01*
X113989Y28927D01*
X114034Y28965D01*
X114084Y28994D01*
X114142Y29056D01*
X114206Y29110D01*
X114238Y29159D01*
X114278Y29202D01*
X114317Y29277D01*
X114364Y29347D01*
X114381Y29403D01*
X114408Y29455D01*
X114419Y29523D01*
X114449Y29618D01*
X114452Y29718D01*
X114463Y29786D01*
X114463Y30697D01*
X120053Y36287D01*
X131632Y36287D01*
X131719Y36299D01*
X131806Y36302D01*
X131859Y36319D01*
X131914Y36327D01*
X131994Y36362D01*
X132077Y36389D01*
X132116Y36417D01*
X132173Y36443D01*
X132286Y36539D01*
X132350Y36584D01*
X133666Y37900D01*
X133718Y37970D01*
X133778Y38034D01*
X133804Y38083D01*
X133837Y38127D01*
X133868Y38209D01*
X133908Y38287D01*
X133916Y38334D01*
X133938Y38393D01*
X133950Y38540D01*
X133963Y38618D01*
X133963Y38914D01*
X133955Y38972D01*
X133957Y39030D01*
X133935Y39112D01*
X133923Y39196D01*
X133900Y39249D01*
X133885Y39305D01*
X133842Y39378D01*
X133807Y39455D01*
X133769Y39500D01*
X133740Y39550D01*
X133678Y39608D01*
X133624Y39672D01*
X133575Y39704D01*
X133532Y39744D01*
X133457Y39783D01*
X133387Y39830D01*
X133331Y39847D01*
X133279Y39874D01*
X133211Y39885D01*
X133116Y39915D01*
X133016Y39918D01*
X132948Y39929D01*
X132474Y39929D01*
X131468Y40935D01*
X131421Y40970D01*
X131381Y41013D01*
X131308Y41055D01*
X131241Y41106D01*
X131186Y41127D01*
X131136Y41156D01*
X131054Y41177D01*
X130975Y41207D01*
X130917Y41212D01*
X130860Y41226D01*
X130776Y41224D01*
X130692Y41231D01*
X130634Y41219D01*
X130576Y41217D01*
X130496Y41191D01*
X130413Y41175D01*
X130361Y41148D01*
X130305Y41130D01*
X130249Y41090D01*
X130161Y41044D01*
X130088Y40975D01*
X130032Y40935D01*
X129026Y39929D01*
X121474Y39929D01*
X120468Y40935D01*
X120421Y40970D01*
X120381Y41013D01*
X120308Y41055D01*
X120241Y41106D01*
X120186Y41127D01*
X120136Y41156D01*
X120054Y41177D01*
X119975Y41207D01*
X119917Y41212D01*
X119860Y41226D01*
X119776Y41224D01*
X119692Y41231D01*
X119634Y41219D01*
X119576Y41217D01*
X119496Y41191D01*
X119413Y41175D01*
X119361Y41148D01*
X119305Y41130D01*
X119249Y41090D01*
X119161Y41044D01*
X119088Y40975D01*
X119032Y40935D01*
X118026Y39929D01*
X110474Y39929D01*
X109468Y40935D01*
X109421Y40970D01*
X109381Y41013D01*
X109308Y41055D01*
X109241Y41106D01*
X109186Y41127D01*
X109136Y41156D01*
X109054Y41177D01*
X108975Y41207D01*
X108917Y41212D01*
X108860Y41226D01*
X108776Y41224D01*
X108692Y41231D01*
X108634Y41219D01*
X108576Y41217D01*
X108496Y41191D01*
X108413Y41175D01*
X108361Y41148D01*
X108305Y41130D01*
X108249Y41090D01*
X108161Y41044D01*
X108088Y40975D01*
X108032Y40935D01*
X107026Y39929D01*
X99474Y39929D01*
X98468Y40935D01*
X98421Y40970D01*
X98381Y41013D01*
X98308Y41055D01*
X98241Y41106D01*
X98186Y41127D01*
X98136Y41156D01*
X98054Y41177D01*
X97975Y41207D01*
X97917Y41212D01*
X97860Y41226D01*
X97776Y41224D01*
X97692Y41231D01*
X97634Y41219D01*
X97576Y41217D01*
X97496Y41191D01*
X97413Y41175D01*
X97361Y41148D01*
X97305Y41130D01*
X97249Y41090D01*
X97161Y41044D01*
X97088Y40975D01*
X97032Y40935D01*
X96026Y39929D01*
X88474Y39929D01*
X87468Y40935D01*
X87421Y40970D01*
X87381Y41013D01*
X87308Y41055D01*
X87241Y41106D01*
X87186Y41127D01*
X87136Y41156D01*
X87054Y41177D01*
X86975Y41207D01*
X86917Y41212D01*
X86860Y41226D01*
X86776Y41224D01*
X86692Y41231D01*
X86634Y41219D01*
X86576Y41217D01*
X86496Y41191D01*
X86413Y41175D01*
X86361Y41148D01*
X86305Y41130D01*
X86249Y41090D01*
X86161Y41044D01*
X86088Y40975D01*
X86032Y40935D01*
X85026Y39929D01*
X77474Y39929D01*
X76468Y40935D01*
X76421Y40970D01*
X76381Y41013D01*
X76308Y41055D01*
X76241Y41106D01*
X76186Y41127D01*
X76136Y41156D01*
X76054Y41177D01*
X75975Y41207D01*
X75917Y41212D01*
X75860Y41226D01*
X75776Y41224D01*
X75692Y41231D01*
X75634Y41219D01*
X75576Y41217D01*
X75496Y41191D01*
X75413Y41175D01*
X75361Y41148D01*
X75305Y41130D01*
X75249Y41090D01*
X75161Y41044D01*
X75088Y40975D01*
X75032Y40935D01*
X74026Y39929D01*
X66474Y39929D01*
X65468Y40935D01*
X65421Y40970D01*
X65381Y41013D01*
X65308Y41055D01*
X65241Y41106D01*
X65186Y41127D01*
X65136Y41156D01*
X65054Y41177D01*
X64975Y41207D01*
X64917Y41212D01*
X64860Y41226D01*
X64776Y41224D01*
X64692Y41231D01*
X64634Y41219D01*
X64576Y41217D01*
X64496Y41191D01*
X64413Y41175D01*
X64361Y41148D01*
X64305Y41130D01*
X64249Y41090D01*
X64161Y41044D01*
X64088Y40975D01*
X64032Y40935D01*
X63026Y39929D01*
X55474Y39929D01*
X54468Y40935D01*
X54421Y40970D01*
X54381Y41013D01*
X54308Y41055D01*
X54241Y41106D01*
X54186Y41127D01*
X54136Y41156D01*
X54054Y41177D01*
X53975Y41207D01*
X53917Y41212D01*
X53860Y41226D01*
X53776Y41224D01*
X53692Y41231D01*
X53634Y41219D01*
X53576Y41217D01*
X53496Y41191D01*
X53413Y41175D01*
X53361Y41148D01*
X53305Y41130D01*
X53249Y41090D01*
X53161Y41044D01*
X53088Y40975D01*
X53032Y40935D01*
X52026Y39929D01*
X50000Y39929D01*
X49942Y39921D01*
X49884Y39923D01*
X49802Y39901D01*
X49718Y39889D01*
X49665Y39866D01*
X49609Y39851D01*
X49536Y39808D01*
X49459Y39773D01*
X49414Y39735D01*
X49364Y39706D01*
X49306Y39644D01*
X49242Y39590D01*
X49210Y39541D01*
X49170Y39498D01*
X49131Y39423D01*
X49084Y39353D01*
X49067Y39297D01*
X49040Y39245D01*
X49029Y39177D01*
X48999Y39082D01*
X48996Y38982D01*
X48985Y38914D01*
X48985Y26286D01*
X48993Y26228D01*
X48991Y26170D01*
X49013Y26088D01*
X49025Y26004D01*
X49048Y25951D01*
X49063Y25895D01*
X49106Y25822D01*
X49141Y25745D01*
X49179Y25700D01*
X49208Y25650D01*
X49270Y25592D01*
X49324Y25528D01*
X49373Y25496D01*
X49416Y25456D01*
X49491Y25417D01*
X49561Y25370D01*
X49617Y25353D01*
X49669Y25326D01*
X49737Y25315D01*
X49832Y25285D01*
X49932Y25282D01*
X50000Y25271D01*
X53694Y25271D01*
X53752Y25279D01*
X53810Y25277D01*
X53892Y25299D01*
X53976Y25311D01*
X54029Y25334D01*
X54085Y25349D01*
X54158Y25392D01*
X54235Y25427D01*
X54280Y25465D01*
X54330Y25494D01*
X54388Y25556D01*
X54452Y25610D01*
X54484Y25659D01*
X54524Y25702D01*
X54563Y25777D01*
X54610Y25847D01*
X54627Y25903D01*
X54654Y25955D01*
X54665Y26023D01*
X54695Y26118D01*
X54698Y26218D01*
X54709Y26286D01*
X54709Y30302D01*
X60948Y36541D01*
X83118Y36541D01*
X83205Y36553D01*
X83293Y36556D01*
X83345Y36573D01*
X83400Y36581D01*
X83480Y36616D01*
X83563Y36643D01*
X83602Y36671D01*
X83659Y36697D01*
X83773Y36793D01*
X83836Y36838D01*
X84535Y37537D01*
X87465Y37537D01*
X89537Y35465D01*
X89537Y32535D01*
X87465Y30463D01*
X84535Y30463D01*
X83836Y31162D01*
X83767Y31214D01*
X83703Y31274D01*
X83653Y31300D01*
X83609Y31333D01*
X83527Y31364D01*
X83450Y31404D01*
X83402Y31412D01*
X83344Y31434D01*
X83196Y31446D01*
X83118Y31459D01*
X63473Y31459D01*
X63386Y31447D01*
X63299Y31444D01*
X63246Y31427D01*
X63191Y31419D01*
X63112Y31384D01*
X63028Y31357D01*
X62989Y31329D01*
X62932Y31303D01*
X62819Y31207D01*
X62755Y31162D01*
X60088Y28495D01*
X60036Y28425D01*
X59976Y28361D01*
X59950Y28312D01*
X59917Y28268D01*
X59886Y28186D01*
X59846Y28108D01*
X59838Y28061D01*
X59816Y28002D01*
X59804Y27854D01*
X59791Y27777D01*
X59791Y26286D01*
X59799Y26228D01*
X59797Y26170D01*
X59819Y26088D01*
X59831Y26004D01*
X59854Y25951D01*
X59869Y25895D01*
X59912Y25822D01*
X59947Y25745D01*
X59985Y25700D01*
X60014Y25650D01*
X60076Y25592D01*
X60130Y25528D01*
X60179Y25496D01*
X60222Y25456D01*
X60297Y25417D01*
X60367Y25370D01*
X60423Y25353D01*
X60475Y25326D01*
X60543Y25315D01*
X60638Y25285D01*
X60738Y25282D01*
X60806Y25271D01*
X64276Y25271D01*
X65021Y24526D01*
X65021Y8474D01*
X64881Y8334D01*
X64863Y8310D01*
X64841Y8291D01*
X64778Y8197D01*
X64710Y8107D01*
X64700Y8079D01*
X64683Y8055D01*
X64649Y7947D01*
X64609Y7841D01*
X64606Y7812D01*
X64598Y7784D01*
X64595Y7671D01*
X64585Y7558D01*
X64591Y7529D01*
X64590Y7500D01*
X64619Y7390D01*
X64641Y7279D01*
X64655Y7253D01*
X64662Y7225D01*
X64720Y7127D01*
X64772Y7027D01*
X64792Y7005D01*
X64807Y6980D01*
X64890Y6903D01*
X64968Y6821D01*
X64993Y6806D01*
X65015Y6786D01*
X65115Y6734D01*
X65213Y6677D01*
X65242Y6670D01*
X65268Y6656D01*
X65345Y6643D01*
X65489Y6607D01*
X65551Y6609D01*
X65599Y6601D01*
X249841Y6601D01*
X249870Y6605D01*
G37*
G36*
X326795Y52103D02*
X326795Y52103D01*
X326803Y52102D01*
X952278Y95366D01*
X952298Y95371D01*
X952331Y95372D01*
X956817Y95998D01*
X956848Y96008D01*
X956921Y96020D01*
X961276Y97264D01*
X961305Y97277D01*
X961376Y97300D01*
X965516Y99136D01*
X965543Y99154D01*
X965610Y99186D01*
X969455Y101579D01*
X969480Y101601D01*
X969541Y101641D01*
X973017Y104546D01*
X973038Y104570D01*
X973093Y104619D01*
X976132Y107978D01*
X976149Y108006D01*
X976197Y108062D01*
X976675Y108766D01*
X977191Y109527D01*
X977707Y110289D01*
X977708Y110289D01*
X978740Y111810D01*
X978753Y111840D01*
X978793Y111902D01*
X980790Y115967D01*
X980799Y115998D01*
X980830Y116066D01*
X982243Y120369D01*
X982247Y120392D01*
X982254Y120408D01*
X982257Y120429D01*
X982269Y120472D01*
X983071Y124930D01*
X983071Y124962D01*
X983082Y125035D01*
X983257Y129561D01*
X983253Y129593D01*
X983254Y129667D01*
X982798Y134174D01*
X982790Y134205D01*
X982780Y134278D01*
X981703Y138678D01*
X981691Y138707D01*
X981671Y138778D01*
X979993Y142986D01*
X979976Y143014D01*
X979947Y143081D01*
X977701Y147015D01*
X977681Y147040D01*
X977643Y147103D01*
X974872Y150686D01*
X974848Y150708D01*
X974802Y150765D01*
X971560Y153929D01*
X971534Y153948D01*
X971479Y153998D01*
X967830Y156681D01*
X967801Y156696D01*
X967741Y156738D01*
X963754Y158888D01*
X963723Y158898D01*
X963657Y158931D01*
X959411Y160507D01*
X959389Y160511D01*
X959369Y160521D01*
X959204Y160552D01*
X328058Y208816D01*
X328009Y208812D01*
X327961Y208818D01*
X327887Y208802D01*
X327813Y208795D01*
X327768Y208776D01*
X327720Y208765D01*
X327656Y208727D01*
X327587Y208697D01*
X327551Y208664D01*
X327509Y208639D01*
X327461Y208582D01*
X327405Y208532D01*
X327381Y208489D01*
X327349Y208452D01*
X327321Y208383D01*
X327285Y208318D01*
X327276Y208270D01*
X327257Y208224D01*
X327243Y208100D01*
X327239Y208076D01*
X327240Y208069D01*
X327239Y208057D01*
X327239Y172750D01*
X327239Y172749D01*
X327239Y172748D01*
X327260Y172623D01*
X327279Y172507D01*
X327279Y172506D01*
X327340Y172391D01*
X327394Y172290D01*
X327394Y172289D01*
X327486Y172202D01*
X327572Y172121D01*
X327573Y172120D01*
X327682Y172069D01*
X327795Y172017D01*
X327796Y172017D01*
X327796Y172016D01*
X327962Y171990D01*
X954179Y140741D01*
X956456Y140428D01*
X958612Y139737D01*
X960617Y138683D01*
X962410Y137300D01*
X963936Y135627D01*
X965151Y133715D01*
X966018Y131623D01*
X966510Y129412D01*
X966613Y127150D01*
X966323Y124904D01*
X965650Y122741D01*
X964614Y120728D01*
X963245Y118924D01*
X961585Y117383D01*
X959684Y116152D01*
X957599Y115267D01*
X955397Y114757D01*
X326717Y87261D01*
X326714Y87260D01*
X326711Y87260D01*
X326594Y87235D01*
X326476Y87210D01*
X326473Y87209D01*
X326470Y87208D01*
X326366Y87146D01*
X326264Y87086D01*
X326262Y87083D01*
X326259Y87082D01*
X326180Y86990D01*
X326102Y86900D01*
X326101Y86897D01*
X326099Y86895D01*
X326054Y86782D01*
X326009Y86673D01*
X326008Y86670D01*
X326007Y86667D01*
X325989Y86500D01*
X325989Y52862D01*
X325996Y52816D01*
X325994Y52770D01*
X326016Y52695D01*
X326029Y52619D01*
X326050Y52578D01*
X326063Y52534D01*
X326107Y52470D01*
X326144Y52402D01*
X326177Y52370D01*
X326204Y52332D01*
X326266Y52286D01*
X326322Y52232D01*
X326364Y52213D01*
X326401Y52185D01*
X326475Y52161D01*
X326545Y52129D01*
X326591Y52123D01*
X326635Y52109D01*
X326770Y52104D01*
X326789Y52101D01*
X326795Y52103D01*
G37*
G36*
X951965Y119611D02*
X951965Y119611D01*
X951992Y119617D01*
X952044Y119618D01*
X953549Y119832D01*
X953563Y119836D01*
X953675Y119863D01*
X953691Y119866D01*
X953695Y119868D01*
X953703Y119870D01*
X955131Y120391D01*
X955143Y120398D01*
X955273Y120461D01*
X956562Y121267D01*
X956573Y121276D01*
X956687Y121365D01*
X957780Y122420D01*
X957789Y122432D01*
X957882Y122542D01*
X958732Y123801D01*
X958739Y123815D01*
X958807Y123942D01*
X959378Y125350D01*
X959381Y125364D01*
X959421Y125503D01*
X959687Y126999D01*
X959687Y127013D01*
X959699Y127157D01*
X959648Y128676D01*
X959645Y128691D01*
X959626Y128834D01*
X959262Y130309D01*
X959256Y130322D01*
X959208Y130458D01*
X958545Y131826D01*
X958537Y131838D01*
X958461Y131961D01*
X957529Y133161D01*
X957519Y133171D01*
X957419Y133276D01*
X956259Y134257D01*
X956246Y134264D01*
X956127Y134346D01*
X954788Y135064D01*
X954774Y135069D01*
X954641Y135124D01*
X953182Y135550D01*
X953175Y135550D01*
X953169Y135553D01*
X953003Y135579D01*
X330534Y163511D01*
X330497Y163506D01*
X330461Y163510D01*
X330376Y163492D01*
X330290Y163482D01*
X330256Y163466D01*
X330220Y163458D01*
X330146Y163413D01*
X330068Y163376D01*
X330041Y163351D01*
X330009Y163332D01*
X329953Y163266D01*
X329890Y163206D01*
X329873Y163173D01*
X329849Y163145D01*
X329817Y163064D01*
X329777Y162988D01*
X329771Y162951D01*
X329757Y162917D01*
X329739Y162750D01*
X329739Y97750D01*
X329744Y97717D01*
X329742Y97683D01*
X329764Y97596D01*
X329779Y97507D01*
X329794Y97477D01*
X329803Y97445D01*
X329852Y97369D01*
X329894Y97290D01*
X329918Y97267D01*
X329936Y97238D01*
X330007Y97182D01*
X330072Y97121D01*
X330103Y97106D01*
X330129Y97085D01*
X330214Y97055D01*
X330295Y97017D01*
X330329Y97013D01*
X330360Y97002D01*
X330528Y96989D01*
X951965Y119611D01*
G37*
G36*
X313058Y156993D02*
X313058Y156993D01*
X313116Y156991D01*
X313198Y157013D01*
X313282Y157025D01*
X313335Y157049D01*
X313391Y157063D01*
X313464Y157106D01*
X313541Y157141D01*
X313586Y157179D01*
X313636Y157209D01*
X313694Y157270D01*
X313758Y157325D01*
X313790Y157373D01*
X313830Y157416D01*
X313869Y157491D01*
X313916Y157561D01*
X313933Y157617D01*
X313960Y157669D01*
X313971Y157737D01*
X314001Y157832D01*
X314004Y157932D01*
X314015Y158000D01*
X314015Y228723D01*
X314009Y228766D01*
X314012Y228809D01*
X313993Y228883D01*
X313975Y229004D01*
X313943Y229077D01*
X313928Y229134D01*
X312262Y232891D01*
X312186Y235990D01*
X312173Y236065D01*
X312171Y236140D01*
X312150Y236204D01*
X312149Y236210D01*
X312149Y237455D01*
X312147Y237469D01*
X312149Y237480D01*
X312118Y238715D01*
X312129Y238745D01*
X312137Y238870D01*
X312149Y238946D01*
X312149Y255134D01*
X312141Y255192D01*
X312143Y255250D01*
X312121Y255332D01*
X312109Y255416D01*
X312086Y255469D01*
X312071Y255525D01*
X312028Y255598D01*
X311993Y255675D01*
X311955Y255720D01*
X311926Y255770D01*
X311864Y255828D01*
X311810Y255892D01*
X311761Y255924D01*
X311718Y255964D01*
X311643Y256003D01*
X311573Y256050D01*
X311517Y256067D01*
X311465Y256094D01*
X311397Y256105D01*
X311302Y256135D01*
X311202Y256138D01*
X311134Y256149D01*
X181786Y256149D01*
X181728Y256141D01*
X181670Y256143D01*
X181588Y256121D01*
X181504Y256109D01*
X181451Y256086D01*
X181395Y256071D01*
X181322Y256028D01*
X181245Y255993D01*
X181200Y255955D01*
X181150Y255926D01*
X181092Y255864D01*
X181028Y255810D01*
X180996Y255761D01*
X180956Y255718D01*
X180917Y255643D01*
X180870Y255573D01*
X180853Y255517D01*
X180826Y255465D01*
X180815Y255397D01*
X180785Y255302D01*
X180782Y255202D01*
X180771Y255134D01*
X180771Y242474D01*
X180026Y241729D01*
X163974Y241729D01*
X163229Y242474D01*
X163229Y245698D01*
X163221Y245756D01*
X163223Y245814D01*
X163201Y245896D01*
X163189Y245980D01*
X163166Y246033D01*
X163151Y246089D01*
X163108Y246162D01*
X163073Y246239D01*
X163035Y246284D01*
X163006Y246334D01*
X162944Y246392D01*
X162890Y246456D01*
X162841Y246488D01*
X162798Y246528D01*
X162723Y246567D01*
X162653Y246614D01*
X162597Y246631D01*
X162545Y246658D01*
X162477Y246669D01*
X162382Y246699D01*
X162282Y246702D01*
X162214Y246713D01*
X161053Y246713D01*
X159416Y248350D01*
X158754Y249012D01*
X158730Y249030D01*
X158711Y249052D01*
X158617Y249115D01*
X158527Y249183D01*
X158499Y249194D01*
X158475Y249210D01*
X158367Y249244D01*
X158261Y249284D01*
X158232Y249287D01*
X158204Y249296D01*
X158090Y249299D01*
X157978Y249308D01*
X157949Y249302D01*
X157920Y249303D01*
X157810Y249274D01*
X157699Y249252D01*
X157673Y249238D01*
X157645Y249231D01*
X157547Y249173D01*
X157447Y249121D01*
X157425Y249101D01*
X157400Y249086D01*
X157323Y249003D01*
X157241Y248925D01*
X157226Y248900D01*
X157206Y248879D01*
X157154Y248778D01*
X157097Y248680D01*
X157090Y248652D01*
X157076Y248625D01*
X157063Y248548D01*
X157027Y248404D01*
X157029Y248342D01*
X157021Y248294D01*
X157021Y243298D01*
X156993Y243225D01*
X156988Y243167D01*
X156974Y243110D01*
X156976Y243026D01*
X156969Y242942D01*
X156981Y242884D01*
X156983Y242826D01*
X157009Y242746D01*
X157021Y242685D01*
X157021Y236798D01*
X156993Y236725D01*
X156988Y236667D01*
X156974Y236610D01*
X156976Y236526D01*
X156969Y236442D01*
X156981Y236384D01*
X156983Y236326D01*
X157009Y236246D01*
X157021Y236185D01*
X157021Y230474D01*
X156276Y229729D01*
X143224Y229729D01*
X142479Y230474D01*
X142479Y236202D01*
X142507Y236275D01*
X142512Y236333D01*
X142526Y236390D01*
X142524Y236474D01*
X142531Y236558D01*
X142519Y236615D01*
X142517Y236674D01*
X142491Y236754D01*
X142479Y236815D01*
X142479Y242702D01*
X142507Y242775D01*
X142512Y242833D01*
X142526Y242890D01*
X142524Y242974D01*
X142531Y243058D01*
X142519Y243115D01*
X142517Y243174D01*
X142491Y243254D01*
X142479Y243315D01*
X142479Y249194D01*
X142471Y249252D01*
X142473Y249310D01*
X142451Y249392D01*
X142439Y249476D01*
X142416Y249529D01*
X142401Y249585D01*
X142358Y249658D01*
X142323Y249735D01*
X142285Y249780D01*
X142256Y249830D01*
X142194Y249888D01*
X142140Y249952D01*
X142091Y249984D01*
X142048Y250024D01*
X141973Y250063D01*
X141903Y250110D01*
X141847Y250127D01*
X141795Y250154D01*
X141727Y250165D01*
X141632Y250195D01*
X141532Y250198D01*
X141464Y250209D01*
X137632Y250209D01*
X137545Y250197D01*
X137457Y250194D01*
X137405Y250177D01*
X137350Y250169D01*
X137270Y250134D01*
X137187Y250107D01*
X137148Y250079D01*
X137091Y250053D01*
X136977Y249957D01*
X136914Y249912D01*
X135465Y248463D01*
X132535Y248463D01*
X130463Y250535D01*
X130463Y253465D01*
X131414Y254416D01*
X131432Y254440D01*
X131454Y254459D01*
X131517Y254553D01*
X131585Y254643D01*
X131596Y254671D01*
X131612Y254695D01*
X131646Y254803D01*
X131687Y254909D01*
X131689Y254938D01*
X131698Y254966D01*
X131701Y255080D01*
X131710Y255192D01*
X131704Y255221D01*
X131705Y255250D01*
X131676Y255360D01*
X131654Y255471D01*
X131641Y255497D01*
X131633Y255525D01*
X131576Y255623D01*
X131523Y255723D01*
X131503Y255745D01*
X131488Y255770D01*
X131406Y255847D01*
X131327Y255929D01*
X131302Y255944D01*
X131281Y255964D01*
X131180Y256016D01*
X131082Y256073D01*
X131054Y256080D01*
X131028Y256094D01*
X130950Y256107D01*
X130807Y256143D01*
X130744Y256141D01*
X130697Y256149D01*
X120536Y256149D01*
X120507Y256145D01*
X120477Y256148D01*
X120366Y256125D01*
X120254Y256109D01*
X120227Y256097D01*
X120199Y256092D01*
X120098Y256039D01*
X119995Y255993D01*
X119972Y255974D01*
X119946Y255961D01*
X119864Y255883D01*
X119778Y255810D01*
X119762Y255785D01*
X119740Y255765D01*
X119683Y255667D01*
X119620Y255573D01*
X119611Y255545D01*
X119597Y255520D01*
X119569Y255410D01*
X119534Y255302D01*
X119534Y255272D01*
X119526Y255244D01*
X119530Y255131D01*
X119527Y255018D01*
X119535Y254989D01*
X119535Y254960D01*
X119570Y254852D01*
X119599Y254743D01*
X119614Y254717D01*
X119623Y254689D01*
X119668Y254626D01*
X119744Y254498D01*
X119790Y254455D01*
X119818Y254416D01*
X121650Y252584D01*
X123287Y250947D01*
X123287Y229053D01*
X117947Y223713D01*
X109368Y223713D01*
X109281Y223701D01*
X109194Y223698D01*
X109141Y223681D01*
X109086Y223673D01*
X109006Y223638D01*
X108923Y223611D01*
X108884Y223583D01*
X108827Y223557D01*
X108714Y223461D01*
X108650Y223416D01*
X107533Y222299D01*
X107498Y222253D01*
X107456Y222212D01*
X107413Y222140D01*
X107362Y222072D01*
X107342Y222018D01*
X107312Y221967D01*
X107291Y221886D01*
X107261Y221807D01*
X107256Y221748D01*
X107242Y221692D01*
X107245Y221607D01*
X107238Y221523D01*
X107249Y221466D01*
X107251Y221408D01*
X107277Y221327D01*
X107294Y221245D01*
X107321Y221193D01*
X107339Y221137D01*
X107379Y221081D01*
X107425Y220992D01*
X107493Y220920D01*
X107533Y220864D01*
X108032Y220365D01*
X108079Y220330D01*
X108119Y220287D01*
X108192Y220245D01*
X108259Y220194D01*
X108314Y220173D01*
X108364Y220144D01*
X108446Y220123D01*
X108525Y220093D01*
X108583Y220088D01*
X108640Y220074D01*
X108724Y220076D01*
X108808Y220069D01*
X108866Y220081D01*
X108924Y220083D01*
X109004Y220109D01*
X109087Y220125D01*
X109139Y220152D01*
X109195Y220170D01*
X109251Y220210D01*
X109339Y220256D01*
X109412Y220325D01*
X109468Y220365D01*
X110474Y221371D01*
X118026Y221371D01*
X119032Y220365D01*
X119079Y220330D01*
X119119Y220287D01*
X119192Y220245D01*
X119259Y220194D01*
X119314Y220173D01*
X119364Y220144D01*
X119446Y220123D01*
X119525Y220093D01*
X119583Y220088D01*
X119640Y220074D01*
X119724Y220076D01*
X119808Y220069D01*
X119866Y220081D01*
X119924Y220083D01*
X120004Y220109D01*
X120087Y220125D01*
X120139Y220152D01*
X120195Y220170D01*
X120251Y220210D01*
X120339Y220256D01*
X120412Y220325D01*
X120468Y220365D01*
X121474Y221371D01*
X129026Y221371D01*
X130032Y220365D01*
X130079Y220330D01*
X130119Y220287D01*
X130192Y220245D01*
X130259Y220194D01*
X130314Y220173D01*
X130364Y220144D01*
X130446Y220123D01*
X130525Y220093D01*
X130583Y220088D01*
X130640Y220074D01*
X130724Y220076D01*
X130808Y220069D01*
X130866Y220081D01*
X130924Y220083D01*
X131004Y220109D01*
X131087Y220125D01*
X131139Y220152D01*
X131195Y220170D01*
X131251Y220210D01*
X131339Y220256D01*
X131412Y220325D01*
X131468Y220365D01*
X132474Y221371D01*
X140026Y221371D01*
X141032Y220365D01*
X141079Y220330D01*
X141119Y220287D01*
X141192Y220245D01*
X141259Y220194D01*
X141314Y220173D01*
X141364Y220144D01*
X141446Y220123D01*
X141525Y220093D01*
X141583Y220088D01*
X141640Y220074D01*
X141724Y220076D01*
X141808Y220069D01*
X141866Y220081D01*
X141924Y220083D01*
X142004Y220109D01*
X142087Y220125D01*
X142139Y220152D01*
X142195Y220170D01*
X142251Y220210D01*
X142339Y220256D01*
X142412Y220325D01*
X142468Y220365D01*
X143474Y221371D01*
X151026Y221371D01*
X151771Y220626D01*
X151771Y215902D01*
X151779Y215844D01*
X151777Y215786D01*
X151799Y215704D01*
X151811Y215620D01*
X151834Y215567D01*
X151849Y215511D01*
X151892Y215438D01*
X151927Y215361D01*
X151965Y215316D01*
X151994Y215266D01*
X152056Y215208D01*
X152110Y215144D01*
X152159Y215112D01*
X152202Y215072D01*
X152277Y215033D01*
X152347Y214986D01*
X152403Y214969D01*
X152455Y214942D01*
X152523Y214931D01*
X152618Y214901D01*
X152718Y214898D01*
X152786Y214887D01*
X226347Y214887D01*
X266287Y174947D01*
X266287Y158000D01*
X266295Y157942D01*
X266293Y157884D01*
X266315Y157802D01*
X266327Y157719D01*
X266350Y157665D01*
X266365Y157609D01*
X266408Y157536D01*
X266443Y157459D01*
X266481Y157414D01*
X266510Y157364D01*
X266572Y157306D01*
X266626Y157242D01*
X266675Y157210D01*
X266718Y157170D01*
X266793Y157131D01*
X266863Y157085D01*
X266919Y157067D01*
X266971Y157040D01*
X267039Y157029D01*
X267134Y156999D01*
X267234Y156996D01*
X267302Y156985D01*
X313000Y156985D01*
X313058Y156993D01*
G37*
G36*
X97866Y220081D02*
X97866Y220081D01*
X97924Y220083D01*
X98004Y220109D01*
X98087Y220125D01*
X98139Y220152D01*
X98195Y220170D01*
X98251Y220210D01*
X98339Y220256D01*
X98412Y220325D01*
X98468Y220365D01*
X99474Y221371D01*
X100698Y221371D01*
X100756Y221379D01*
X100814Y221377D01*
X100896Y221399D01*
X100980Y221411D01*
X101033Y221434D01*
X101089Y221449D01*
X101162Y221492D01*
X101239Y221527D01*
X101284Y221565D01*
X101334Y221594D01*
X101392Y221656D01*
X101456Y221710D01*
X101488Y221759D01*
X101528Y221802D01*
X101567Y221877D01*
X101614Y221947D01*
X101631Y222003D01*
X101658Y222055D01*
X101669Y222123D01*
X101699Y222218D01*
X101702Y222318D01*
X101713Y222386D01*
X101713Y222947D01*
X103350Y224584D01*
X107053Y228287D01*
X115632Y228287D01*
X115719Y228299D01*
X115806Y228302D01*
X115859Y228319D01*
X115914Y228327D01*
X115994Y228362D01*
X116077Y228389D01*
X116116Y228417D01*
X116173Y228443D01*
X116286Y228539D01*
X116350Y228584D01*
X118416Y230650D01*
X118468Y230720D01*
X118528Y230784D01*
X118554Y230833D01*
X118587Y230877D01*
X118618Y230959D01*
X118658Y231037D01*
X118666Y231084D01*
X118688Y231143D01*
X118700Y231290D01*
X118713Y231368D01*
X118713Y248632D01*
X118701Y248719D01*
X118698Y248806D01*
X118681Y248859D01*
X118673Y248914D01*
X118638Y248994D01*
X118611Y249077D01*
X118583Y249116D01*
X118557Y249173D01*
X118461Y249286D01*
X118416Y249350D01*
X117600Y250166D01*
X117530Y250218D01*
X117466Y250278D01*
X117417Y250304D01*
X117373Y250337D01*
X117291Y250368D01*
X117213Y250408D01*
X117166Y250416D01*
X117107Y250438D01*
X116960Y250450D01*
X116882Y250463D01*
X114535Y250463D01*
X114499Y250458D01*
X114463Y250461D01*
X114436Y250455D01*
X114420Y250455D01*
X114349Y250437D01*
X114253Y250423D01*
X114220Y250409D01*
X114185Y250401D01*
X114160Y250388D01*
X114145Y250384D01*
X114083Y250347D01*
X113994Y250307D01*
X113966Y250284D01*
X113934Y250267D01*
X113913Y250246D01*
X113900Y250238D01*
X113852Y250187D01*
X113777Y250124D01*
X113757Y250093D01*
X113731Y250068D01*
X113716Y250043D01*
X113706Y250031D01*
X113674Y249968D01*
X113619Y249887D01*
X113608Y249852D01*
X113590Y249821D01*
X113584Y249793D01*
X113576Y249778D01*
X113567Y249723D01*
X113566Y249717D01*
X113534Y249616D01*
X113533Y249580D01*
X113524Y249544D01*
X113527Y249484D01*
X113521Y249447D01*
X113521Y243298D01*
X113493Y243225D01*
X113488Y243167D01*
X113474Y243110D01*
X113476Y243026D01*
X113469Y242942D01*
X113481Y242885D01*
X113483Y242826D01*
X113509Y242746D01*
X113521Y242685D01*
X113521Y236974D01*
X112776Y236229D01*
X99724Y236229D01*
X98979Y236974D01*
X98979Y242702D01*
X99007Y242775D01*
X99012Y242833D01*
X99026Y242890D01*
X99024Y242974D01*
X99031Y243058D01*
X99019Y243116D01*
X99017Y243174D01*
X98991Y243254D01*
X98979Y243315D01*
X98979Y249202D01*
X99007Y249275D01*
X99012Y249333D01*
X99026Y249390D01*
X99024Y249474D01*
X99031Y249558D01*
X99019Y249616D01*
X99017Y249674D01*
X98991Y249754D01*
X98979Y249815D01*
X98979Y255134D01*
X98971Y255192D01*
X98973Y255250D01*
X98951Y255332D01*
X98939Y255416D01*
X98916Y255469D01*
X98901Y255525D01*
X98858Y255598D01*
X98823Y255675D01*
X98785Y255720D01*
X98756Y255770D01*
X98694Y255828D01*
X98640Y255892D01*
X98591Y255924D01*
X98548Y255964D01*
X98473Y256003D01*
X98403Y256050D01*
X98347Y256067D01*
X98295Y256094D01*
X98227Y256105D01*
X98132Y256135D01*
X98032Y256138D01*
X97964Y256149D01*
X66036Y256149D01*
X65978Y256141D01*
X65920Y256143D01*
X65838Y256121D01*
X65754Y256109D01*
X65701Y256086D01*
X65645Y256071D01*
X65572Y256028D01*
X65495Y255993D01*
X65450Y255955D01*
X65400Y255926D01*
X65342Y255864D01*
X65278Y255810D01*
X65246Y255761D01*
X65206Y255718D01*
X65167Y255643D01*
X65120Y255573D01*
X65103Y255517D01*
X65076Y255465D01*
X65065Y255397D01*
X65035Y255302D01*
X65032Y255202D01*
X65021Y255134D01*
X65021Y237724D01*
X64276Y236979D01*
X50224Y236979D01*
X49479Y237724D01*
X49479Y242948D01*
X49471Y243006D01*
X49473Y243064D01*
X49451Y243146D01*
X49439Y243230D01*
X49416Y243283D01*
X49401Y243339D01*
X49358Y243412D01*
X49323Y243489D01*
X49285Y243534D01*
X49256Y243584D01*
X49194Y243642D01*
X49140Y243706D01*
X49091Y243738D01*
X49048Y243778D01*
X48973Y243817D01*
X48903Y243864D01*
X48847Y243881D01*
X48795Y243908D01*
X48727Y243919D01*
X48632Y243949D01*
X48532Y243952D01*
X48464Y243963D01*
X46786Y243963D01*
X46728Y243955D01*
X46670Y243957D01*
X46588Y243935D01*
X46504Y243923D01*
X46451Y243900D01*
X46395Y243885D01*
X46322Y243842D01*
X46245Y243807D01*
X46200Y243769D01*
X46150Y243740D01*
X46092Y243678D01*
X46028Y243624D01*
X45996Y243575D01*
X45956Y243532D01*
X45917Y243457D01*
X45870Y243387D01*
X45853Y243331D01*
X45826Y243279D01*
X45815Y243211D01*
X45785Y243116D01*
X45782Y243016D01*
X45771Y242948D01*
X45771Y239724D01*
X45026Y238979D01*
X31974Y238979D01*
X31229Y239724D01*
X31229Y252776D01*
X31974Y253521D01*
X45026Y253521D01*
X45771Y252776D01*
X45771Y249552D01*
X45779Y249494D01*
X45777Y249436D01*
X45799Y249354D01*
X45811Y249270D01*
X45834Y249217D01*
X45849Y249161D01*
X45892Y249088D01*
X45927Y249011D01*
X45965Y248966D01*
X45994Y248916D01*
X46056Y248858D01*
X46110Y248794D01*
X46159Y248762D01*
X46202Y248722D01*
X46277Y248683D01*
X46347Y248636D01*
X46403Y248619D01*
X46455Y248592D01*
X46523Y248581D01*
X46618Y248551D01*
X46718Y248548D01*
X46786Y248537D01*
X48464Y248537D01*
X48522Y248545D01*
X48580Y248543D01*
X48662Y248565D01*
X48746Y248577D01*
X48799Y248600D01*
X48855Y248615D01*
X48928Y248658D01*
X49005Y248693D01*
X49050Y248731D01*
X49100Y248760D01*
X49158Y248822D01*
X49222Y248876D01*
X49254Y248925D01*
X49294Y248968D01*
X49333Y249043D01*
X49380Y249113D01*
X49397Y249169D01*
X49424Y249221D01*
X49435Y249289D01*
X49465Y249384D01*
X49468Y249484D01*
X49479Y249552D01*
X49479Y255134D01*
X49471Y255192D01*
X49473Y255250D01*
X49451Y255332D01*
X49439Y255416D01*
X49416Y255469D01*
X49401Y255525D01*
X49358Y255598D01*
X49323Y255675D01*
X49285Y255720D01*
X49256Y255770D01*
X49194Y255828D01*
X49140Y255892D01*
X49091Y255924D01*
X49048Y255964D01*
X48973Y256003D01*
X48903Y256050D01*
X48847Y256067D01*
X48795Y256094D01*
X48727Y256105D01*
X48632Y256135D01*
X48532Y256138D01*
X48464Y256149D01*
X13750Y256149D01*
X13674Y256139D01*
X13617Y256141D01*
X13195Y256085D01*
X13165Y256077D01*
X13134Y256075D01*
X13060Y256048D01*
X12921Y256009D01*
X12866Y255975D01*
X12820Y255958D01*
X12087Y255535D01*
X12010Y255475D01*
X11929Y255422D01*
X11903Y255391D01*
X11863Y255359D01*
X11762Y255220D01*
X11715Y255163D01*
X11646Y255044D01*
X11632Y255007D01*
X11610Y254975D01*
X11579Y254876D01*
X11540Y254780D01*
X11536Y254741D01*
X11524Y254704D01*
X11522Y254600D01*
X11511Y254497D01*
X11518Y254459D01*
X11517Y254420D01*
X11543Y254319D01*
X11562Y254217D01*
X11579Y254182D01*
X11589Y254145D01*
X11642Y254056D01*
X11688Y253963D01*
X11714Y253934D01*
X11734Y253900D01*
X11810Y253829D01*
X11880Y253753D01*
X11913Y253732D01*
X11941Y253706D01*
X12034Y253659D01*
X12122Y253604D01*
X12160Y253594D01*
X12195Y253576D01*
X12271Y253563D01*
X12396Y253529D01*
X12471Y253530D01*
X12526Y253521D01*
X24026Y253521D01*
X24771Y252776D01*
X24771Y239724D01*
X24026Y238979D01*
X20802Y238979D01*
X20744Y238971D01*
X20686Y238973D01*
X20604Y238951D01*
X20520Y238939D01*
X20467Y238916D01*
X20411Y238901D01*
X20338Y238858D01*
X20261Y238823D01*
X20216Y238785D01*
X20166Y238756D01*
X20108Y238694D01*
X20044Y238640D01*
X20012Y238591D01*
X19972Y238548D01*
X19933Y238473D01*
X19886Y238403D01*
X19869Y238347D01*
X19842Y238295D01*
X19831Y238227D01*
X19801Y238132D01*
X19798Y238032D01*
X19787Y237964D01*
X19787Y234868D01*
X19799Y234781D01*
X19802Y234694D01*
X19819Y234641D01*
X19827Y234586D01*
X19862Y234506D01*
X19889Y234423D01*
X19917Y234384D01*
X19943Y234327D01*
X20039Y234214D01*
X20084Y234150D01*
X23650Y230584D01*
X23720Y230532D01*
X23784Y230472D01*
X23833Y230446D01*
X23877Y230413D01*
X23959Y230382D01*
X24037Y230342D01*
X24084Y230334D01*
X24143Y230312D01*
X24290Y230300D01*
X24368Y230287D01*
X33947Y230287D01*
X39537Y224697D01*
X39537Y222386D01*
X39545Y222328D01*
X39543Y222270D01*
X39565Y222188D01*
X39577Y222104D01*
X39600Y222051D01*
X39615Y221995D01*
X39658Y221922D01*
X39693Y221845D01*
X39731Y221800D01*
X39760Y221750D01*
X39822Y221692D01*
X39876Y221628D01*
X39925Y221596D01*
X39968Y221556D01*
X40043Y221517D01*
X40113Y221470D01*
X40169Y221453D01*
X40221Y221426D01*
X40289Y221415D01*
X40384Y221385D01*
X40484Y221382D01*
X40552Y221371D01*
X41026Y221371D01*
X42032Y220365D01*
X42079Y220330D01*
X42119Y220287D01*
X42192Y220245D01*
X42259Y220194D01*
X42314Y220173D01*
X42364Y220144D01*
X42446Y220123D01*
X42525Y220093D01*
X42583Y220088D01*
X42640Y220074D01*
X42724Y220076D01*
X42808Y220069D01*
X42866Y220081D01*
X42924Y220083D01*
X43004Y220109D01*
X43087Y220125D01*
X43139Y220152D01*
X43195Y220170D01*
X43251Y220210D01*
X43339Y220256D01*
X43412Y220325D01*
X43468Y220365D01*
X44474Y221371D01*
X44948Y221371D01*
X45006Y221379D01*
X45064Y221377D01*
X45146Y221399D01*
X45230Y221411D01*
X45283Y221434D01*
X45339Y221449D01*
X45412Y221492D01*
X45489Y221527D01*
X45534Y221565D01*
X45584Y221594D01*
X45642Y221656D01*
X45706Y221710D01*
X45738Y221759D01*
X45778Y221802D01*
X45817Y221877D01*
X45864Y221947D01*
X45881Y222003D01*
X45908Y222055D01*
X45919Y222123D01*
X45949Y222218D01*
X45952Y222318D01*
X45963Y222386D01*
X45963Y224197D01*
X50166Y228400D01*
X50218Y228470D01*
X50278Y228534D01*
X50304Y228583D01*
X50337Y228627D01*
X50368Y228709D01*
X50408Y228787D01*
X50416Y228834D01*
X50438Y228893D01*
X50450Y229040D01*
X50463Y229118D01*
X50463Y230465D01*
X52535Y232537D01*
X55465Y232537D01*
X57537Y230465D01*
X57537Y227535D01*
X55465Y225463D01*
X54118Y225463D01*
X54031Y225451D01*
X53944Y225448D01*
X53891Y225431D01*
X53836Y225423D01*
X53756Y225388D01*
X53673Y225361D01*
X53634Y225333D01*
X53577Y225307D01*
X53464Y225211D01*
X53400Y225166D01*
X51338Y223104D01*
X51320Y223080D01*
X51298Y223061D01*
X51235Y222967D01*
X51167Y222877D01*
X51156Y222849D01*
X51140Y222825D01*
X51106Y222717D01*
X51066Y222611D01*
X51063Y222582D01*
X51054Y222554D01*
X51051Y222440D01*
X51042Y222328D01*
X51048Y222299D01*
X51047Y222270D01*
X51076Y222160D01*
X51098Y222049D01*
X51112Y222023D01*
X51119Y221995D01*
X51177Y221897D01*
X51229Y221797D01*
X51249Y221775D01*
X51264Y221750D01*
X51347Y221673D01*
X51425Y221591D01*
X51450Y221576D01*
X51471Y221556D01*
X51572Y221504D01*
X51670Y221447D01*
X51698Y221440D01*
X51725Y221426D01*
X51802Y221413D01*
X51946Y221377D01*
X52008Y221379D01*
X52020Y221377D01*
X53032Y220365D01*
X53079Y220330D01*
X53119Y220287D01*
X53192Y220245D01*
X53259Y220194D01*
X53314Y220173D01*
X53364Y220144D01*
X53446Y220123D01*
X53525Y220093D01*
X53583Y220088D01*
X53640Y220074D01*
X53724Y220076D01*
X53808Y220069D01*
X53866Y220081D01*
X53924Y220083D01*
X54004Y220109D01*
X54087Y220125D01*
X54139Y220152D01*
X54195Y220170D01*
X54251Y220210D01*
X54339Y220256D01*
X54412Y220325D01*
X54468Y220365D01*
X55474Y221371D01*
X63026Y221371D01*
X64032Y220365D01*
X64079Y220330D01*
X64119Y220287D01*
X64192Y220245D01*
X64259Y220194D01*
X64314Y220173D01*
X64364Y220144D01*
X64446Y220123D01*
X64525Y220093D01*
X64583Y220088D01*
X64640Y220074D01*
X64724Y220076D01*
X64808Y220069D01*
X64866Y220081D01*
X64924Y220083D01*
X65004Y220109D01*
X65087Y220125D01*
X65139Y220152D01*
X65195Y220170D01*
X65251Y220210D01*
X65339Y220256D01*
X65412Y220325D01*
X65468Y220365D01*
X66474Y221371D01*
X74026Y221371D01*
X75032Y220365D01*
X75079Y220330D01*
X75119Y220287D01*
X75192Y220245D01*
X75259Y220194D01*
X75314Y220173D01*
X75364Y220144D01*
X75446Y220123D01*
X75525Y220093D01*
X75583Y220088D01*
X75640Y220074D01*
X75724Y220076D01*
X75808Y220069D01*
X75866Y220081D01*
X75924Y220083D01*
X76004Y220109D01*
X76087Y220125D01*
X76139Y220152D01*
X76195Y220170D01*
X76251Y220210D01*
X76339Y220256D01*
X76412Y220325D01*
X76468Y220365D01*
X77474Y221371D01*
X85026Y221371D01*
X86032Y220365D01*
X86079Y220330D01*
X86119Y220287D01*
X86192Y220245D01*
X86259Y220194D01*
X86314Y220173D01*
X86364Y220144D01*
X86446Y220123D01*
X86525Y220093D01*
X86583Y220088D01*
X86640Y220074D01*
X86724Y220076D01*
X86808Y220069D01*
X86866Y220081D01*
X86924Y220083D01*
X87004Y220109D01*
X87087Y220125D01*
X87139Y220152D01*
X87195Y220170D01*
X87251Y220210D01*
X87339Y220256D01*
X87412Y220325D01*
X87468Y220365D01*
X88474Y221371D01*
X96026Y221371D01*
X97032Y220365D01*
X97079Y220330D01*
X97119Y220287D01*
X97192Y220245D01*
X97259Y220194D01*
X97314Y220173D01*
X97364Y220144D01*
X97446Y220123D01*
X97525Y220093D01*
X97583Y220088D01*
X97640Y220074D01*
X97724Y220076D01*
X97808Y220069D01*
X97866Y220081D01*
G37*
G36*
X265087Y125662D02*
X265087Y125662D01*
X265116Y125661D01*
X265226Y125690D01*
X265337Y125712D01*
X265363Y125726D01*
X265391Y125733D01*
X265489Y125791D01*
X265589Y125843D01*
X265611Y125863D01*
X265636Y125878D01*
X265713Y125961D01*
X265795Y126039D01*
X265810Y126064D01*
X265830Y126086D01*
X265882Y126186D01*
X265939Y126284D01*
X265946Y126313D01*
X265960Y126339D01*
X265973Y126416D01*
X266009Y126560D01*
X266007Y126622D01*
X266015Y126670D01*
X266015Y140330D01*
X266003Y140417D01*
X266000Y140504D01*
X265983Y140557D01*
X265975Y140612D01*
X265940Y140692D01*
X265913Y140775D01*
X265885Y140814D01*
X265859Y140871D01*
X265763Y140984D01*
X265718Y141048D01*
X263350Y143416D01*
X261713Y145053D01*
X261713Y172632D01*
X261701Y172719D01*
X261698Y172806D01*
X261681Y172859D01*
X261673Y172914D01*
X261638Y172994D01*
X261611Y173077D01*
X261583Y173116D01*
X261557Y173173D01*
X261461Y173286D01*
X261416Y173350D01*
X224750Y210016D01*
X224680Y210068D01*
X224616Y210128D01*
X224567Y210154D01*
X224523Y210187D01*
X224441Y210218D01*
X224363Y210258D01*
X224316Y210266D01*
X224257Y210288D01*
X224110Y210300D01*
X224032Y210313D01*
X152786Y210313D01*
X152728Y210305D01*
X152670Y210307D01*
X152588Y210285D01*
X152504Y210273D01*
X152451Y210250D01*
X152395Y210235D01*
X152322Y210192D01*
X152245Y210157D01*
X152200Y210119D01*
X152150Y210090D01*
X152092Y210028D01*
X152028Y209974D01*
X151996Y209925D01*
X151956Y209882D01*
X151917Y209807D01*
X151870Y209737D01*
X151853Y209681D01*
X151826Y209629D01*
X151815Y209561D01*
X151785Y209466D01*
X151782Y209366D01*
X151771Y209298D01*
X151771Y204563D01*
X151740Y204533D01*
X151697Y204460D01*
X151646Y204393D01*
X151626Y204338D01*
X151596Y204288D01*
X151575Y204206D01*
X151545Y204127D01*
X151540Y204069D01*
X151526Y204012D01*
X151529Y203928D01*
X151522Y203844D01*
X151533Y203787D01*
X151535Y203728D01*
X151561Y203648D01*
X151577Y203565D01*
X151604Y203513D01*
X151622Y203458D01*
X151662Y203402D01*
X151708Y203313D01*
X151777Y203240D01*
X151817Y203184D01*
X153537Y201465D01*
X153537Y198535D01*
X153336Y198334D01*
X153301Y198287D01*
X153258Y198247D01*
X153215Y198174D01*
X153165Y198107D01*
X153144Y198052D01*
X153114Y198002D01*
X153094Y197920D01*
X153064Y197841D01*
X153059Y197783D01*
X153044Y197726D01*
X153047Y197642D01*
X153040Y197558D01*
X153052Y197500D01*
X153053Y197442D01*
X153079Y197362D01*
X153096Y197279D01*
X153123Y197227D01*
X153141Y197172D01*
X153181Y197115D01*
X153227Y197027D01*
X153296Y196954D01*
X153336Y196898D01*
X160551Y189683D01*
X160597Y189648D01*
X160638Y189606D01*
X160710Y189563D01*
X160778Y189512D01*
X160832Y189492D01*
X160883Y189462D01*
X160964Y189441D01*
X161043Y189411D01*
X161102Y189406D01*
X161158Y189392D01*
X161243Y189395D01*
X161327Y189388D01*
X161384Y189399D01*
X161442Y189401D01*
X161523Y189427D01*
X161605Y189444D01*
X161657Y189471D01*
X161713Y189489D01*
X161769Y189529D01*
X161858Y189575D01*
X161930Y189643D01*
X161986Y189683D01*
X162985Y190682D01*
X162995Y190695D01*
X163001Y190701D01*
X163019Y190727D01*
X163020Y190729D01*
X163063Y190769D01*
X163105Y190842D01*
X163156Y190909D01*
X163177Y190964D01*
X163206Y191014D01*
X163227Y191096D01*
X163257Y191175D01*
X163262Y191233D01*
X163276Y191290D01*
X163274Y191374D01*
X163281Y191458D01*
X163269Y191516D01*
X163267Y191574D01*
X163241Y191654D01*
X163225Y191737D01*
X163198Y191789D01*
X163180Y191845D01*
X163140Y191901D01*
X163094Y191989D01*
X163025Y192062D01*
X162985Y192118D01*
X161979Y193124D01*
X161979Y200676D01*
X162724Y201421D01*
X178776Y201421D01*
X179521Y200676D01*
X179521Y200202D01*
X179529Y200144D01*
X179527Y200086D01*
X179549Y200004D01*
X179561Y199920D01*
X179584Y199867D01*
X179599Y199811D01*
X179642Y199738D01*
X179677Y199661D01*
X179715Y199616D01*
X179744Y199566D01*
X179806Y199508D01*
X179860Y199444D01*
X179909Y199412D01*
X179952Y199372D01*
X180027Y199333D01*
X180097Y199286D01*
X180153Y199269D01*
X180205Y199242D01*
X180273Y199231D01*
X180368Y199201D01*
X180468Y199198D01*
X180536Y199187D01*
X218047Y199187D01*
X249287Y167947D01*
X249287Y141368D01*
X249299Y141281D01*
X249302Y141194D01*
X249319Y141141D01*
X249327Y141086D01*
X249362Y141006D01*
X249389Y140923D01*
X249417Y140884D01*
X249443Y140827D01*
X249539Y140714D01*
X249584Y140650D01*
X264282Y125952D01*
X264306Y125934D01*
X264325Y125912D01*
X264419Y125849D01*
X264509Y125781D01*
X264537Y125771D01*
X264561Y125754D01*
X264669Y125720D01*
X264775Y125680D01*
X264804Y125677D01*
X264832Y125668D01*
X264946Y125666D01*
X265058Y125656D01*
X265087Y125662D01*
G37*
%LPC*%
G36*
X162724Y60379D02*
X162724Y60379D01*
X161979Y61124D01*
X161979Y68676D01*
X162985Y69682D01*
X163020Y69729D01*
X163063Y69769D01*
X163105Y69842D01*
X163156Y69909D01*
X163177Y69964D01*
X163206Y70014D01*
X163227Y70096D01*
X163257Y70175D01*
X163262Y70233D01*
X163276Y70290D01*
X163274Y70374D01*
X163281Y70458D01*
X163269Y70516D01*
X163267Y70574D01*
X163241Y70654D01*
X163225Y70737D01*
X163198Y70789D01*
X163180Y70845D01*
X163140Y70901D01*
X163094Y70989D01*
X163025Y71062D01*
X162985Y71118D01*
X161979Y72124D01*
X161979Y79676D01*
X162985Y80682D01*
X163020Y80729D01*
X163063Y80769D01*
X163105Y80842D01*
X163156Y80909D01*
X163177Y80964D01*
X163206Y81014D01*
X163227Y81096D01*
X163257Y81175D01*
X163262Y81233D01*
X163276Y81290D01*
X163274Y81374D01*
X163281Y81458D01*
X163269Y81516D01*
X163267Y81574D01*
X163241Y81654D01*
X163225Y81737D01*
X163198Y81789D01*
X163180Y81845D01*
X163140Y81901D01*
X163094Y81989D01*
X163025Y82062D01*
X162985Y82118D01*
X161979Y83124D01*
X161979Y90676D01*
X162985Y91682D01*
X163020Y91729D01*
X163063Y91769D01*
X163105Y91842D01*
X163156Y91909D01*
X163177Y91964D01*
X163206Y92014D01*
X163227Y92096D01*
X163257Y92175D01*
X163262Y92233D01*
X163276Y92290D01*
X163274Y92374D01*
X163281Y92458D01*
X163269Y92516D01*
X163267Y92574D01*
X163241Y92654D01*
X163225Y92737D01*
X163198Y92789D01*
X163180Y92845D01*
X163140Y92901D01*
X163094Y92989D01*
X163025Y93062D01*
X162985Y93118D01*
X161979Y94124D01*
X161979Y101676D01*
X162985Y102682D01*
X163020Y102729D01*
X163063Y102769D01*
X163105Y102842D01*
X163156Y102909D01*
X163177Y102964D01*
X163206Y103014D01*
X163227Y103096D01*
X163257Y103175D01*
X163262Y103233D01*
X163276Y103290D01*
X163274Y103374D01*
X163281Y103458D01*
X163269Y103516D01*
X163267Y103574D01*
X163241Y103654D01*
X163225Y103737D01*
X163198Y103789D01*
X163180Y103845D01*
X163140Y103901D01*
X163094Y103989D01*
X163025Y104062D01*
X162985Y104118D01*
X161979Y105124D01*
X161979Y112676D01*
X162985Y113682D01*
X163020Y113729D01*
X163063Y113769D01*
X163105Y113842D01*
X163156Y113909D01*
X163177Y113964D01*
X163206Y114014D01*
X163227Y114096D01*
X163257Y114175D01*
X163262Y114233D01*
X163276Y114290D01*
X163274Y114374D01*
X163281Y114458D01*
X163269Y114516D01*
X163267Y114574D01*
X163241Y114654D01*
X163225Y114737D01*
X163198Y114789D01*
X163180Y114845D01*
X163140Y114901D01*
X163094Y114989D01*
X163025Y115062D01*
X162985Y115118D01*
X161979Y116124D01*
X161979Y123676D01*
X162985Y124682D01*
X162998Y124699D01*
X163010Y124709D01*
X163028Y124736D01*
X163063Y124769D01*
X163105Y124842D01*
X163156Y124909D01*
X163177Y124964D01*
X163206Y125014D01*
X163227Y125096D01*
X163257Y125175D01*
X163262Y125233D01*
X163276Y125290D01*
X163274Y125374D01*
X163281Y125458D01*
X163269Y125516D01*
X163267Y125574D01*
X163241Y125654D01*
X163225Y125737D01*
X163198Y125789D01*
X163180Y125845D01*
X163140Y125901D01*
X163094Y125989D01*
X163025Y126062D01*
X162985Y126118D01*
X161979Y127124D01*
X161979Y134676D01*
X162985Y135682D01*
X163020Y135729D01*
X163063Y135769D01*
X163105Y135842D01*
X163156Y135909D01*
X163177Y135964D01*
X163206Y136014D01*
X163227Y136096D01*
X163257Y136175D01*
X163262Y136233D01*
X163276Y136290D01*
X163274Y136374D01*
X163281Y136458D01*
X163269Y136516D01*
X163267Y136574D01*
X163241Y136654D01*
X163225Y136737D01*
X163198Y136789D01*
X163180Y136845D01*
X163140Y136901D01*
X163094Y136989D01*
X163025Y137062D01*
X162985Y137118D01*
X161979Y138124D01*
X161979Y145676D01*
X162724Y146421D01*
X178776Y146421D01*
X179521Y145676D01*
X179521Y138124D01*
X178515Y137118D01*
X178480Y137071D01*
X178437Y137031D01*
X178395Y136958D01*
X178344Y136891D01*
X178323Y136836D01*
X178294Y136786D01*
X178273Y136704D01*
X178243Y136625D01*
X178238Y136567D01*
X178224Y136510D01*
X178226Y136426D01*
X178219Y136342D01*
X178231Y136284D01*
X178233Y136226D01*
X178259Y136146D01*
X178275Y136063D01*
X178302Y136011D01*
X178320Y135955D01*
X178360Y135899D01*
X178406Y135811D01*
X178475Y135738D01*
X178515Y135682D01*
X179521Y134676D01*
X179521Y127124D01*
X178515Y126118D01*
X178480Y126071D01*
X178437Y126031D01*
X178395Y125958D01*
X178344Y125891D01*
X178323Y125836D01*
X178294Y125786D01*
X178273Y125704D01*
X178243Y125625D01*
X178238Y125567D01*
X178224Y125510D01*
X178226Y125426D01*
X178219Y125342D01*
X178231Y125284D01*
X178233Y125226D01*
X178259Y125146D01*
X178275Y125063D01*
X178302Y125011D01*
X178320Y124955D01*
X178360Y124899D01*
X178406Y124811D01*
X178443Y124772D01*
X178456Y124749D01*
X178489Y124719D01*
X178515Y124682D01*
X179521Y123676D01*
X179521Y116124D01*
X178515Y115118D01*
X178480Y115071D01*
X178437Y115031D01*
X178395Y114958D01*
X178344Y114891D01*
X178323Y114836D01*
X178294Y114786D01*
X178273Y114704D01*
X178243Y114625D01*
X178238Y114567D01*
X178224Y114510D01*
X178226Y114426D01*
X178219Y114342D01*
X178231Y114284D01*
X178233Y114226D01*
X178259Y114146D01*
X178275Y114063D01*
X178302Y114011D01*
X178320Y113955D01*
X178360Y113899D01*
X178406Y113811D01*
X178475Y113738D01*
X178515Y113682D01*
X179521Y112676D01*
X179521Y105124D01*
X178515Y104118D01*
X178480Y104071D01*
X178437Y104031D01*
X178395Y103958D01*
X178344Y103891D01*
X178323Y103836D01*
X178294Y103786D01*
X178273Y103704D01*
X178243Y103625D01*
X178238Y103567D01*
X178224Y103510D01*
X178226Y103426D01*
X178219Y103342D01*
X178231Y103284D01*
X178233Y103226D01*
X178259Y103146D01*
X178275Y103063D01*
X178302Y103011D01*
X178320Y102955D01*
X178360Y102899D01*
X178406Y102811D01*
X178475Y102738D01*
X178515Y102682D01*
X179521Y101676D01*
X179521Y94124D01*
X178515Y93118D01*
X178480Y93071D01*
X178437Y93031D01*
X178395Y92958D01*
X178344Y92891D01*
X178323Y92836D01*
X178294Y92786D01*
X178273Y92704D01*
X178243Y92625D01*
X178238Y92567D01*
X178224Y92510D01*
X178226Y92426D01*
X178219Y92342D01*
X178231Y92284D01*
X178233Y92226D01*
X178259Y92146D01*
X178275Y92063D01*
X178302Y92011D01*
X178320Y91955D01*
X178360Y91899D01*
X178406Y91811D01*
X178475Y91738D01*
X178515Y91682D01*
X179521Y90676D01*
X179521Y83124D01*
X178515Y82118D01*
X178480Y82071D01*
X178437Y82031D01*
X178395Y81958D01*
X178344Y81891D01*
X178323Y81836D01*
X178294Y81786D01*
X178273Y81704D01*
X178243Y81625D01*
X178238Y81567D01*
X178224Y81510D01*
X178226Y81426D01*
X178219Y81342D01*
X178231Y81284D01*
X178233Y81226D01*
X178259Y81146D01*
X178275Y81063D01*
X178302Y81011D01*
X178320Y80955D01*
X178360Y80899D01*
X178406Y80811D01*
X178475Y80738D01*
X178515Y80682D01*
X179521Y79676D01*
X179521Y79202D01*
X179529Y79144D01*
X179527Y79086D01*
X179549Y79004D01*
X179561Y78920D01*
X179584Y78867D01*
X179599Y78811D01*
X179642Y78738D01*
X179677Y78661D01*
X179715Y78616D01*
X179744Y78566D01*
X179806Y78508D01*
X179860Y78444D01*
X179909Y78412D01*
X179952Y78372D01*
X180027Y78333D01*
X180097Y78286D01*
X180153Y78269D01*
X180205Y78242D01*
X180273Y78231D01*
X180368Y78201D01*
X180468Y78198D01*
X180536Y78187D01*
X190764Y78187D01*
X190851Y78199D01*
X190939Y78202D01*
X190991Y78219D01*
X191046Y78227D01*
X191126Y78262D01*
X191209Y78289D01*
X191248Y78317D01*
X191305Y78343D01*
X191419Y78439D01*
X191482Y78484D01*
X192535Y79537D01*
X195465Y79537D01*
X197537Y77465D01*
X197537Y74535D01*
X195465Y72463D01*
X192535Y72463D01*
X191682Y73316D01*
X191613Y73368D01*
X191549Y73428D01*
X191499Y73454D01*
X191455Y73487D01*
X191373Y73518D01*
X191296Y73558D01*
X191248Y73566D01*
X191190Y73588D01*
X191042Y73600D01*
X190964Y73613D01*
X180536Y73613D01*
X180478Y73605D01*
X180420Y73607D01*
X180338Y73585D01*
X180254Y73573D01*
X180201Y73550D01*
X180145Y73535D01*
X180072Y73492D01*
X179995Y73457D01*
X179950Y73419D01*
X179900Y73390D01*
X179842Y73328D01*
X179778Y73274D01*
X179746Y73225D01*
X179706Y73182D01*
X179667Y73107D01*
X179620Y73037D01*
X179603Y72981D01*
X179576Y72929D01*
X179565Y72861D01*
X179535Y72766D01*
X179532Y72666D01*
X179521Y72598D01*
X179521Y72124D01*
X178515Y71118D01*
X178480Y71071D01*
X178437Y71031D01*
X178395Y70958D01*
X178344Y70891D01*
X178323Y70836D01*
X178294Y70786D01*
X178273Y70704D01*
X178243Y70625D01*
X178238Y70567D01*
X178224Y70510D01*
X178226Y70426D01*
X178219Y70342D01*
X178231Y70284D01*
X178233Y70226D01*
X178259Y70146D01*
X178275Y70063D01*
X178302Y70011D01*
X178320Y69955D01*
X178360Y69899D01*
X178406Y69811D01*
X178475Y69738D01*
X178515Y69682D01*
X179521Y68676D01*
X179521Y68202D01*
X179529Y68144D01*
X179527Y68086D01*
X179549Y68004D01*
X179561Y67920D01*
X179584Y67867D01*
X179599Y67811D01*
X179642Y67738D01*
X179677Y67661D01*
X179715Y67616D01*
X179744Y67566D01*
X179806Y67508D01*
X179860Y67444D01*
X179909Y67412D01*
X179952Y67372D01*
X180027Y67333D01*
X180097Y67286D01*
X180153Y67269D01*
X180205Y67242D01*
X180273Y67231D01*
X180368Y67201D01*
X180468Y67198D01*
X180536Y67187D01*
X196764Y67187D01*
X196851Y67199D01*
X196939Y67202D01*
X196991Y67219D01*
X197046Y67227D01*
X197126Y67262D01*
X197209Y67289D01*
X197248Y67317D01*
X197305Y67343D01*
X197419Y67439D01*
X197482Y67484D01*
X198535Y68537D01*
X201465Y68537D01*
X203537Y66465D01*
X203537Y63535D01*
X201465Y61463D01*
X198535Y61463D01*
X197682Y62316D01*
X197613Y62368D01*
X197549Y62428D01*
X197499Y62454D01*
X197455Y62487D01*
X197373Y62518D01*
X197296Y62558D01*
X197248Y62566D01*
X197190Y62588D01*
X197042Y62600D01*
X196964Y62613D01*
X180536Y62613D01*
X180478Y62605D01*
X180420Y62607D01*
X180338Y62585D01*
X180254Y62573D01*
X180201Y62550D01*
X180145Y62535D01*
X180072Y62492D01*
X179995Y62457D01*
X179950Y62419D01*
X179900Y62390D01*
X179842Y62328D01*
X179778Y62274D01*
X179746Y62225D01*
X179706Y62182D01*
X179667Y62107D01*
X179620Y62037D01*
X179603Y61981D01*
X179576Y61929D01*
X179565Y61861D01*
X179535Y61766D01*
X179532Y61666D01*
X179521Y61598D01*
X179521Y61124D01*
X178776Y60379D01*
X162724Y60379D01*
G37*
%LPD*%
G36*
X161022Y166449D02*
X161022Y166449D01*
X161080Y166447D01*
X161162Y166469D01*
X161246Y166481D01*
X161299Y166504D01*
X161355Y166519D01*
X161428Y166562D01*
X161505Y166597D01*
X161550Y166635D01*
X161600Y166664D01*
X161658Y166726D01*
X161722Y166780D01*
X161754Y166829D01*
X161794Y166872D01*
X161833Y166947D01*
X161880Y167017D01*
X161897Y167073D01*
X161924Y167125D01*
X161935Y167193D01*
X161965Y167288D01*
X161968Y167388D01*
X161979Y167456D01*
X161979Y167676D01*
X162985Y168682D01*
X163020Y168729D01*
X163063Y168769D01*
X163105Y168842D01*
X163156Y168909D01*
X163177Y168964D01*
X163206Y169014D01*
X163227Y169096D01*
X163257Y169175D01*
X163262Y169233D01*
X163276Y169290D01*
X163274Y169374D01*
X163281Y169458D01*
X163269Y169516D01*
X163267Y169574D01*
X163241Y169654D01*
X163225Y169737D01*
X163198Y169789D01*
X163180Y169845D01*
X163140Y169901D01*
X163094Y169989D01*
X163025Y170062D01*
X162985Y170118D01*
X161979Y171124D01*
X161979Y178676D01*
X162985Y179682D01*
X163020Y179729D01*
X163063Y179769D01*
X163105Y179842D01*
X163156Y179909D01*
X163177Y179964D01*
X163206Y180014D01*
X163227Y180096D01*
X163257Y180175D01*
X163262Y180233D01*
X163276Y180290D01*
X163274Y180374D01*
X163281Y180458D01*
X163269Y180516D01*
X163267Y180574D01*
X163241Y180654D01*
X163225Y180737D01*
X163198Y180789D01*
X163180Y180845D01*
X163140Y180901D01*
X163094Y180989D01*
X163025Y181062D01*
X162985Y181118D01*
X161979Y182124D01*
X161979Y182598D01*
X161971Y182656D01*
X161973Y182714D01*
X161951Y182796D01*
X161939Y182880D01*
X161916Y182933D01*
X161901Y182989D01*
X161858Y183062D01*
X161823Y183139D01*
X161785Y183184D01*
X161756Y183234D01*
X161694Y183292D01*
X161640Y183356D01*
X161591Y183388D01*
X161548Y183428D01*
X161473Y183467D01*
X161403Y183514D01*
X161347Y183531D01*
X161295Y183558D01*
X161227Y183569D01*
X161132Y183599D01*
X161032Y183602D01*
X160964Y183613D01*
X160153Y183613D01*
X149350Y194416D01*
X147602Y196164D01*
X147555Y196199D01*
X147515Y196242D01*
X147488Y196258D01*
X147477Y196268D01*
X147438Y196288D01*
X147375Y196335D01*
X147320Y196356D01*
X147269Y196386D01*
X147188Y196406D01*
X147109Y196436D01*
X147051Y196441D01*
X146994Y196456D01*
X146910Y196453D01*
X146826Y196460D01*
X146768Y196449D01*
X146710Y196447D01*
X146630Y196421D01*
X146547Y196404D01*
X146495Y196377D01*
X146439Y196359D01*
X146383Y196319D01*
X146375Y196315D01*
X146334Y196296D01*
X146325Y196289D01*
X146295Y196273D01*
X146222Y196204D01*
X146166Y196164D01*
X144465Y194463D01*
X143477Y194463D01*
X143390Y194451D01*
X143303Y194448D01*
X143250Y194431D01*
X143195Y194423D01*
X143116Y194388D01*
X143032Y194361D01*
X142993Y194333D01*
X142936Y194307D01*
X142823Y194211D01*
X142759Y194166D01*
X142644Y194051D01*
X142592Y193981D01*
X142532Y193917D01*
X142506Y193868D01*
X142473Y193824D01*
X142442Y193742D01*
X142402Y193664D01*
X142394Y193617D01*
X142372Y193558D01*
X142360Y193410D01*
X142347Y193333D01*
X142347Y176667D01*
X142359Y176580D01*
X142362Y176493D01*
X142379Y176440D01*
X142387Y176385D01*
X142422Y176306D01*
X142449Y176222D01*
X142477Y176183D01*
X142503Y176126D01*
X142599Y176013D01*
X142644Y175949D01*
X151855Y166738D01*
X151925Y166686D01*
X151989Y166626D01*
X152038Y166600D01*
X152082Y166567D01*
X152164Y166536D01*
X152242Y166496D01*
X152289Y166488D01*
X152348Y166466D01*
X152496Y166454D01*
X152573Y166441D01*
X160964Y166441D01*
X161022Y166449D01*
G37*
%LPC*%
G36*
X188535Y221463D02*
X188535Y221463D01*
X186463Y223535D01*
X186463Y226465D01*
X187416Y227418D01*
X187468Y227487D01*
X187528Y227551D01*
X187554Y227601D01*
X187587Y227645D01*
X187618Y227727D01*
X187658Y227804D01*
X187666Y227852D01*
X187688Y227910D01*
X187700Y228058D01*
X187713Y228136D01*
X187713Y237947D01*
X193803Y244037D01*
X194464Y244037D01*
X194522Y244045D01*
X194580Y244043D01*
X194662Y244065D01*
X194746Y244077D01*
X194799Y244100D01*
X194855Y244115D01*
X194928Y244158D01*
X195005Y244193D01*
X195050Y244231D01*
X195100Y244260D01*
X195158Y244322D01*
X195222Y244376D01*
X195254Y244425D01*
X195294Y244468D01*
X195333Y244543D01*
X195380Y244613D01*
X195397Y244669D01*
X195424Y244721D01*
X195435Y244789D01*
X195465Y244884D01*
X195468Y244984D01*
X195479Y245052D01*
X195479Y252276D01*
X196224Y253021D01*
X205276Y253021D01*
X206021Y252276D01*
X206021Y231224D01*
X205276Y230479D01*
X196224Y230479D01*
X195479Y231224D01*
X195479Y236794D01*
X195475Y236823D01*
X195478Y236853D01*
X195455Y236964D01*
X195439Y237076D01*
X195427Y237103D01*
X195422Y237131D01*
X195369Y237232D01*
X195323Y237335D01*
X195304Y237358D01*
X195291Y237384D01*
X195213Y237466D01*
X195140Y237552D01*
X195115Y237568D01*
X195095Y237590D01*
X194997Y237647D01*
X194903Y237710D01*
X194875Y237719D01*
X194850Y237733D01*
X194740Y237761D01*
X194632Y237796D01*
X194602Y237796D01*
X194574Y237804D01*
X194461Y237800D01*
X194348Y237803D01*
X194319Y237795D01*
X194290Y237795D01*
X194182Y237760D01*
X194073Y237731D01*
X194047Y237716D01*
X194019Y237707D01*
X193955Y237661D01*
X193828Y237586D01*
X193785Y237540D01*
X193746Y237512D01*
X192584Y236350D01*
X192532Y236280D01*
X192472Y236216D01*
X192446Y236167D01*
X192413Y236123D01*
X192382Y236041D01*
X192342Y235963D01*
X192334Y235916D01*
X192312Y235857D01*
X192300Y235710D01*
X192287Y235632D01*
X192287Y228136D01*
X192299Y228049D01*
X192302Y227961D01*
X192319Y227909D01*
X192327Y227854D01*
X192362Y227774D01*
X192389Y227691D01*
X192417Y227652D01*
X192443Y227595D01*
X192539Y227481D01*
X192584Y227418D01*
X193537Y226465D01*
X193537Y223535D01*
X191465Y221463D01*
X188535Y221463D01*
G37*
%LPD*%
%LPC*%
G36*
X261474Y230729D02*
X261474Y230729D01*
X260729Y231474D01*
X260729Y252526D01*
X261474Y253271D01*
X270526Y253271D01*
X271271Y252526D01*
X271271Y247302D01*
X271279Y247244D01*
X271277Y247186D01*
X271299Y247104D01*
X271311Y247020D01*
X271334Y246967D01*
X271349Y246911D01*
X271392Y246838D01*
X271427Y246761D01*
X271465Y246716D01*
X271494Y246666D01*
X271556Y246608D01*
X271610Y246544D01*
X271659Y246512D01*
X271702Y246472D01*
X271777Y246433D01*
X271847Y246386D01*
X271903Y246369D01*
X271955Y246342D01*
X272023Y246331D01*
X272118Y246301D01*
X272218Y246298D01*
X272286Y246287D01*
X272864Y246287D01*
X272951Y246299D01*
X273039Y246302D01*
X273091Y246319D01*
X273146Y246327D01*
X273226Y246362D01*
X273309Y246389D01*
X273348Y246417D01*
X273405Y246443D01*
X273519Y246539D01*
X273582Y246584D01*
X274535Y247537D01*
X277465Y247537D01*
X279537Y245465D01*
X279537Y242535D01*
X277465Y240463D01*
X274535Y240463D01*
X273582Y241416D01*
X273513Y241468D01*
X273449Y241528D01*
X273399Y241554D01*
X273355Y241587D01*
X273273Y241618D01*
X273196Y241658D01*
X273148Y241666D01*
X273090Y241688D01*
X272942Y241700D01*
X272864Y241713D01*
X272286Y241713D01*
X272228Y241705D01*
X272170Y241707D01*
X272088Y241685D01*
X272004Y241673D01*
X271951Y241650D01*
X271895Y241635D01*
X271822Y241592D01*
X271745Y241557D01*
X271700Y241519D01*
X271650Y241490D01*
X271592Y241428D01*
X271528Y241374D01*
X271496Y241325D01*
X271456Y241282D01*
X271417Y241207D01*
X271370Y241137D01*
X271353Y241081D01*
X271326Y241029D01*
X271315Y240961D01*
X271285Y240866D01*
X271282Y240766D01*
X271271Y240698D01*
X271271Y231474D01*
X270526Y230729D01*
X261474Y230729D01*
G37*
%LPD*%
%LPC*%
G36*
X285535Y196463D02*
X285535Y196463D01*
X283463Y198535D01*
X283463Y201448D01*
X283455Y201506D01*
X283457Y201564D01*
X283435Y201646D01*
X283423Y201730D01*
X283400Y201783D01*
X283385Y201839D01*
X283342Y201912D01*
X283307Y201989D01*
X283269Y202034D01*
X283240Y202084D01*
X283178Y202142D01*
X283124Y202206D01*
X283075Y202238D01*
X283032Y202278D01*
X282957Y202317D01*
X282887Y202364D01*
X282831Y202381D01*
X282779Y202408D01*
X282711Y202419D01*
X282616Y202449D01*
X282516Y202452D01*
X282448Y202463D01*
X281535Y202463D01*
X279463Y204535D01*
X279463Y207448D01*
X279455Y207506D01*
X279457Y207564D01*
X279435Y207646D01*
X279423Y207730D01*
X279400Y207783D01*
X279385Y207839D01*
X279342Y207912D01*
X279307Y207989D01*
X279269Y208034D01*
X279240Y208084D01*
X279178Y208142D01*
X279124Y208206D01*
X279075Y208238D01*
X279032Y208278D01*
X278957Y208317D01*
X278887Y208364D01*
X278831Y208381D01*
X278779Y208408D01*
X278711Y208419D01*
X278616Y208449D01*
X278516Y208452D01*
X278448Y208463D01*
X277535Y208463D01*
X275463Y210535D01*
X275463Y213465D01*
X277535Y215537D01*
X280465Y215537D01*
X282537Y213465D01*
X282537Y210552D01*
X282545Y210494D01*
X282543Y210436D01*
X282565Y210354D01*
X282577Y210270D01*
X282600Y210217D01*
X282615Y210161D01*
X282658Y210088D01*
X282693Y210011D01*
X282731Y209966D01*
X282760Y209916D01*
X282822Y209858D01*
X282876Y209794D01*
X282925Y209762D01*
X282968Y209722D01*
X283043Y209683D01*
X283113Y209636D01*
X283169Y209619D01*
X283221Y209592D01*
X283289Y209581D01*
X283384Y209551D01*
X283484Y209548D01*
X283552Y209537D01*
X284465Y209537D01*
X286537Y207465D01*
X286537Y204552D01*
X286544Y204498D01*
X286543Y204458D01*
X286544Y204456D01*
X286543Y204436D01*
X286565Y204354D01*
X286577Y204270D01*
X286600Y204217D01*
X286615Y204161D01*
X286658Y204088D01*
X286693Y204011D01*
X286731Y203966D01*
X286760Y203916D01*
X286822Y203858D01*
X286876Y203794D01*
X286925Y203762D01*
X286968Y203722D01*
X287043Y203683D01*
X287113Y203636D01*
X287169Y203619D01*
X287221Y203592D01*
X287289Y203581D01*
X287384Y203551D01*
X287484Y203548D01*
X287552Y203537D01*
X288465Y203537D01*
X290537Y201465D01*
X290537Y198535D01*
X288465Y196463D01*
X285535Y196463D01*
G37*
%LPD*%
%LPC*%
G36*
X43535Y70463D02*
X43535Y70463D01*
X41463Y72535D01*
X41463Y75448D01*
X41455Y75506D01*
X41457Y75564D01*
X41435Y75646D01*
X41423Y75730D01*
X41400Y75783D01*
X41385Y75839D01*
X41342Y75912D01*
X41307Y75989D01*
X41269Y76034D01*
X41240Y76084D01*
X41178Y76142D01*
X41124Y76206D01*
X41075Y76238D01*
X41032Y76278D01*
X40957Y76317D01*
X40887Y76364D01*
X40831Y76381D01*
X40779Y76408D01*
X40711Y76419D01*
X40616Y76449D01*
X40516Y76452D01*
X40448Y76463D01*
X39535Y76463D01*
X37463Y78535D01*
X37463Y81465D01*
X39535Y83537D01*
X42465Y83537D01*
X44537Y81465D01*
X44537Y78552D01*
X44545Y78494D01*
X44543Y78436D01*
X44565Y78354D01*
X44577Y78270D01*
X44600Y78217D01*
X44615Y78161D01*
X44658Y78088D01*
X44693Y78011D01*
X44731Y77966D01*
X44760Y77916D01*
X44822Y77858D01*
X44876Y77794D01*
X44925Y77762D01*
X44968Y77722D01*
X45043Y77683D01*
X45113Y77636D01*
X45169Y77619D01*
X45221Y77592D01*
X45289Y77581D01*
X45384Y77551D01*
X45484Y77548D01*
X45552Y77537D01*
X46465Y77537D01*
X48537Y75465D01*
X48537Y72535D01*
X46465Y70463D01*
X43535Y70463D01*
G37*
%LPD*%
D10*
X223300Y25300D03*
X223300Y88700D03*
D11*
X305750Y117750D03*
X282750Y117750D03*
D12*
X286000Y137750D03*
X305000Y137750D03*
D13*
X281500Y68750D03*
X281500Y87750D03*
D14*
X261000Y86750D03*
X261000Y69750D03*
D15*
X306750Y137750D03*
X309500Y185250D03*
D16*
X116750Y19000D03*
X157750Y19000D03*
D13*
X185750Y37500D03*
X185750Y18500D03*
D12*
X76250Y246250D03*
X57250Y246250D03*
D17*
X38500Y246250D03*
X17500Y246250D03*
D18*
X57250Y16500D03*
X74250Y16500D03*
D14*
X196000Y164500D03*
X196000Y147500D03*
D19*
X266000Y242000D03*
X308000Y242000D03*
X200750Y241750D03*
X242750Y241750D03*
D20*
X106250Y252750D03*
X106250Y246250D03*
X106250Y239750D03*
X106250Y233250D03*
X149750Y233250D03*
X149750Y239750D03*
X149750Y246250D03*
X149750Y252750D03*
D14*
X172000Y249500D03*
X172000Y232500D03*
D21*
X272000Y15000D03*
X262500Y37000D03*
X281500Y37000D03*
D22*
X26250Y48700D03*
X37250Y48700D03*
X48250Y48700D03*
X59250Y48700D03*
X70250Y48700D03*
X81250Y48700D03*
X92250Y48700D03*
X103250Y48700D03*
X114250Y48700D03*
X125250Y48700D03*
X136250Y48700D03*
X147250Y48700D03*
D23*
X170750Y64900D03*
X170750Y75900D03*
X170750Y86900D03*
X170750Y97900D03*
X170750Y108900D03*
X170750Y119900D03*
X170750Y130900D03*
D22*
X15250Y48700D03*
X26250Y212600D03*
X37250Y212600D03*
X48250Y212600D03*
X59250Y212600D03*
X70250Y212600D03*
X81250Y212600D03*
X92250Y212600D03*
X103250Y212600D03*
X114250Y212600D03*
X125250Y212600D03*
X136250Y212600D03*
X147250Y212600D03*
X15250Y212600D03*
D23*
X170750Y141900D03*
X170750Y152900D03*
X170750Y163900D03*
X170750Y174900D03*
X170750Y185900D03*
X170750Y196900D03*
D24*
X39013Y16313D02*
X32387Y16313D01*
X39013Y16313D02*
X39013Y13687D01*
X32387Y13687D01*
X32387Y16313D01*
X32387Y14518D02*
X39013Y14518D01*
X39013Y15349D02*
X32387Y15349D01*
X32387Y16180D02*
X39013Y16180D01*
X39013Y26313D02*
X32387Y26313D01*
X39013Y26313D02*
X39013Y23687D01*
X32387Y23687D01*
X32387Y26313D01*
X32387Y24518D02*
X39013Y24518D01*
X39013Y25349D02*
X32387Y25349D01*
X32387Y26180D02*
X39013Y26180D01*
X19613Y26313D02*
X12987Y26313D01*
X19613Y26313D02*
X19613Y23687D01*
X12987Y23687D01*
X12987Y26313D01*
X12987Y24518D02*
X19613Y24518D01*
X19613Y25349D02*
X12987Y25349D01*
X12987Y26180D02*
X19613Y26180D01*
X19613Y16313D02*
X12987Y16313D01*
X19613Y16313D02*
X19613Y13687D01*
X12987Y13687D01*
X12987Y16313D01*
X12987Y14518D02*
X19613Y14518D01*
X19613Y15349D02*
X12987Y15349D01*
X12987Y16180D02*
X19613Y16180D01*
D25*
X26000Y20000D03*
D26*
X305750Y117750D02*
X307500Y119500D01*
D27*
X305750Y137000D02*
X305000Y137750D01*
X306750Y137750D01*
D28*
X305000Y137750D02*
X331750Y137750D01*
X331750Y117750D01*
X305750Y117750D01*
X329000Y68750D02*
X281500Y68750D01*
X309500Y185250D02*
X329750Y185250D01*
X330000Y185000D01*
X24000Y15000D02*
X16300Y15000D01*
X24000Y15000D02*
X25000Y14000D01*
X26000Y15000D01*
X26000Y16000D01*
D29*
X26000Y16000D03*
D30*
X256000Y148000D03*
X256000Y161000D03*
X252000Y173000D03*
X242000Y183000D03*
X232000Y193000D03*
X222000Y202000D03*
X205000Y205000D03*
X188000Y205000D03*
X261000Y136000D03*
X158000Y205000D03*
X129000Y226000D03*
X305000Y204000D03*
X305000Y221000D03*
X306000Y93000D03*
X306000Y75000D03*
X235000Y214000D03*
X246000Y205000D03*
X255000Y196000D03*
X267000Y183000D03*
X273000Y165000D03*
X290000Y165000D03*
X307000Y165000D03*
X146000Y179000D03*
X158000Y136000D03*
X158000Y126000D03*
X158000Y116000D03*
X183000Y136000D03*
X183000Y126000D03*
X183000Y115000D03*
X306000Y60000D03*
X306000Y46000D03*
X306000Y30000D03*
X306000Y12000D03*
X288000Y12000D03*
X307000Y178000D03*
D26*
X26000Y20000D02*
X26000Y15000D01*
D30*
X52000Y30000D03*
X80000Y227000D03*
X43000Y225000D03*
D28*
X46000Y15000D02*
X35700Y15000D01*
X46000Y15000D02*
X55750Y15000D01*
X57250Y16500D01*
D31*
X170750Y163900D02*
X195400Y163900D01*
X196000Y164500D01*
D28*
X158250Y252750D02*
X149750Y252750D01*
X158250Y252750D02*
X162000Y249000D01*
X171500Y249000D01*
X172000Y249500D01*
D27*
X170750Y163900D02*
X151100Y163900D01*
X139806Y194806D02*
X143000Y198000D01*
X139806Y175194D02*
X151100Y163900D01*
X139806Y175194D02*
X139806Y194806D01*
D30*
X143000Y198000D03*
X134000Y252000D03*
D27*
X134750Y252750D01*
X149750Y252750D01*
D31*
X196000Y164500D02*
X213500Y164500D01*
D27*
X57250Y29250D02*
X57250Y16500D01*
X57250Y29250D02*
X62000Y34000D01*
X86000Y34000D01*
D30*
X86000Y34000D03*
D31*
X262500Y37000D02*
X262500Y46500D01*
X253000Y56000D02*
X234000Y56000D01*
X227000Y63000D01*
X223300Y66700D01*
X223300Y88700D01*
X253000Y56000D02*
X262500Y46500D01*
X223300Y88700D02*
X223300Y154700D01*
X213500Y164500D01*
D32*
X227000Y63000D03*
D30*
X46000Y15000D03*
D28*
X116750Y19000D02*
X116750Y29750D01*
X136250Y37250D02*
X136250Y48700D01*
X121000Y34000D02*
X116750Y29750D01*
X121000Y34000D02*
X133000Y34000D01*
X136250Y37250D01*
X170750Y64900D02*
X199900Y64900D01*
X200000Y65000D01*
D30*
X200000Y65000D03*
D28*
X57250Y246250D02*
X38500Y246250D01*
X170750Y75900D02*
X193900Y75900D01*
X194000Y76000D01*
D30*
X194000Y76000D03*
D28*
X48250Y212600D02*
X48250Y223250D01*
X54000Y229000D01*
D30*
X54000Y229000D03*
X35000Y135000D03*
D28*
X15250Y124250D02*
X15250Y48700D01*
X15250Y124250D02*
X26000Y135000D01*
X35000Y135000D01*
X272250Y137750D02*
X286000Y137750D01*
X272250Y137750D02*
X264000Y146000D01*
X225400Y212600D02*
X147250Y212600D01*
X264000Y174000D02*
X264000Y146000D01*
X264000Y174000D02*
X225400Y212600D01*
X282750Y117750D02*
X282750Y117000D01*
X282750Y89000D01*
X281500Y87750D01*
X280500Y86750D02*
X261000Y86750D01*
X280500Y86750D02*
X281500Y87750D01*
X217100Y196900D02*
X170750Y196900D01*
X247000Y167000D02*
X247000Y140000D01*
X270000Y117000D01*
X282750Y117000D01*
X247000Y167000D02*
X217100Y196900D01*
X170750Y185900D02*
X161100Y185900D01*
X150000Y197000D01*
X150000Y200000D01*
D30*
X150000Y200000D03*
X276000Y244000D03*
D28*
X268000Y244000D01*
X266000Y242000D01*
D30*
X41000Y80000D03*
X45000Y74000D03*
X279000Y212000D03*
X283000Y206000D03*
X287000Y200000D03*
D32*
X259000Y12000D03*
X253000Y12000D03*
D31*
X269000Y12000D02*
X272000Y15000D01*
X269000Y12000D02*
X253000Y12000D01*
D26*
X37250Y32250D02*
X37250Y48700D01*
X37250Y32250D02*
X35000Y30000D01*
X35000Y25700D01*
X35700Y25000D01*
D30*
X24000Y68000D03*
D26*
X37250Y61750D02*
X37250Y48700D01*
X31000Y68000D02*
X24000Y68000D01*
X31000Y68000D02*
X37250Y61750D01*
X16300Y28300D02*
X16300Y25000D01*
X26250Y38250D02*
X26250Y48700D01*
X26250Y38250D02*
X16300Y28300D01*
D30*
X24000Y75000D03*
D26*
X21000Y75000D01*
X18536Y72536D01*
X26250Y58750D02*
X26250Y48700D01*
X18536Y66464D02*
X18536Y72536D01*
X18536Y66464D02*
X26250Y58750D01*
D28*
X92250Y64751D02*
X92250Y48700D01*
X92250Y64751D02*
X76000Y80999D01*
X76000Y98000D01*
D30*
X76000Y115000D03*
D28*
X76000Y98000D01*
D30*
X190000Y225000D03*
D28*
X194750Y241750D02*
X200750Y241750D01*
X194750Y241750D02*
X190000Y237000D01*
X190000Y225000D01*
X118250Y252750D02*
X106250Y252750D01*
X118250Y252750D02*
X121000Y250000D01*
X121000Y230000D01*
X117000Y226000D02*
X108000Y226000D01*
X104000Y222000D01*
X104000Y213350D02*
X103250Y212600D01*
X117000Y226000D02*
X121000Y230000D01*
X104000Y222000D02*
X104000Y213350D01*
X17500Y233500D02*
X17500Y246250D01*
X37250Y223750D02*
X37250Y212600D01*
X23000Y228000D02*
X17500Y233500D01*
X23000Y228000D02*
X33000Y228000D01*
X37250Y223750D01*
X157750Y19000D02*
X173000Y19000D01*
X185250Y19000D01*
X185750Y18500D01*
X136250Y79750D02*
X136250Y212600D01*
X136250Y79750D02*
X173000Y43000D01*
X173000Y27000D02*
X173000Y19000D01*
D30*
X173000Y27000D03*
D28*
X173000Y43000D01*
D26*
X70250Y203250D02*
X70250Y212600D01*
X70250Y203250D02*
X57000Y190000D01*
X50000Y190000D01*
X31000Y171000D01*
X31000Y161000D01*
D30*
X31000Y161000D03*
D26*
X59250Y200250D02*
X59250Y212600D01*
X59250Y200250D02*
X55000Y196000D01*
X53000Y196000D01*
D30*
X53000Y196000D03*
M02*
