G04 EAGLE Gerber RS-274X export*
G75*
%MOMM*%
%FSLAX34Y34*%
%LPD*%
%INBottom Copper*%
%IPPOS*%
%AMOC8*
5,1,8,0,0,1.08239X$1,22.5*%
G01*
%ADD10C,1.270000*%
%ADD11C,8.800000*%
%ADD12R,2.100000X5.200000*%
%ADD13R,0.850000X0.950000*%
%ADD14C,0.280800*%
%ADD15C,0.403200*%
%ADD16C,0.152400*%
%ADD17C,0.453200*%
%ADD18C,0.203200*%
%ADD19C,0.254000*%
%ADD20C,0.503200*%
%ADD21C,0.609600*%
%ADD22C,0.200000*%

G36*
X80870Y6605D02*
X80870Y6605D01*
X80899Y6602D01*
X81010Y6625D01*
X81122Y6641D01*
X81149Y6653D01*
X81178Y6658D01*
X81278Y6710D01*
X81382Y6757D01*
X81404Y6776D01*
X81430Y6789D01*
X81512Y6867D01*
X81599Y6940D01*
X81615Y6965D01*
X81636Y6985D01*
X81693Y7083D01*
X81756Y7177D01*
X81765Y7205D01*
X81780Y7230D01*
X81808Y7340D01*
X81842Y7448D01*
X81843Y7478D01*
X81850Y7506D01*
X81846Y7619D01*
X81849Y7732D01*
X81842Y7761D01*
X81841Y7790D01*
X81806Y7898D01*
X81777Y8007D01*
X81762Y8033D01*
X81753Y8061D01*
X81708Y8124D01*
X81632Y8252D01*
X81586Y8295D01*
X81559Y8334D01*
X80019Y9873D01*
X79929Y9941D01*
X79843Y10014D01*
X79818Y10024D01*
X79792Y10044D01*
X79563Y10132D01*
X79534Y10144D01*
X79269Y10206D01*
X78654Y11200D01*
X78614Y11248D01*
X78585Y11298D01*
X78540Y11339D01*
X78508Y11384D01*
X77681Y12211D01*
X77681Y12483D01*
X77666Y12594D01*
X77656Y12706D01*
X77646Y12731D01*
X77641Y12764D01*
X77541Y12988D01*
X77529Y13017D01*
X63824Y35159D01*
X63783Y35208D01*
X63750Y35263D01*
X63693Y35317D01*
X63642Y35377D01*
X63589Y35413D01*
X63542Y35457D01*
X63472Y35493D01*
X63407Y35537D01*
X63346Y35557D01*
X63289Y35586D01*
X63211Y35600D01*
X63136Y35625D01*
X63072Y35627D01*
X63009Y35639D01*
X62931Y35631D01*
X62852Y35634D01*
X62790Y35618D01*
X62726Y35612D01*
X62666Y35587D01*
X62577Y35564D01*
X62484Y35510D01*
X62417Y35482D01*
X57879Y32602D01*
X56852Y32832D01*
X28425Y77626D01*
X28655Y78653D01*
X47274Y90470D01*
X48302Y90240D01*
X76729Y45446D01*
X76499Y44419D01*
X71425Y41198D01*
X71385Y41164D01*
X71339Y41138D01*
X71277Y41072D01*
X71208Y41014D01*
X71179Y40970D01*
X71143Y40932D01*
X71101Y40852D01*
X71052Y40777D01*
X71036Y40726D01*
X71012Y40680D01*
X70994Y40591D01*
X70967Y40505D01*
X70966Y40453D01*
X70955Y40401D01*
X70963Y40311D01*
X70961Y40221D01*
X70974Y40170D01*
X70978Y40118D01*
X71006Y40051D01*
X71033Y39946D01*
X71081Y39867D01*
X71106Y39807D01*
X85346Y16800D01*
X85386Y16752D01*
X85418Y16698D01*
X85477Y16643D01*
X85528Y16581D01*
X85580Y16546D01*
X85625Y16504D01*
X85697Y16467D01*
X85764Y16422D01*
X85823Y16403D01*
X85878Y16374D01*
X85944Y16363D01*
X86034Y16334D01*
X86139Y16331D01*
X86209Y16319D01*
X260789Y16319D01*
X263319Y13789D01*
X263319Y10211D01*
X261441Y8334D01*
X261424Y8310D01*
X261401Y8291D01*
X261339Y8197D01*
X261271Y8107D01*
X261260Y8079D01*
X261244Y8055D01*
X261210Y7947D01*
X261169Y7841D01*
X261167Y7812D01*
X261158Y7784D01*
X261155Y7670D01*
X261146Y7558D01*
X261152Y7529D01*
X261151Y7500D01*
X261179Y7390D01*
X261202Y7279D01*
X261215Y7253D01*
X261223Y7225D01*
X261280Y7127D01*
X261333Y7027D01*
X261353Y7005D01*
X261368Y6980D01*
X261450Y6903D01*
X261528Y6821D01*
X261554Y6806D01*
X261575Y6786D01*
X261676Y6734D01*
X261774Y6677D01*
X261802Y6670D01*
X261828Y6656D01*
X261906Y6643D01*
X262049Y6607D01*
X262112Y6609D01*
X262159Y6601D01*
X310634Y6601D01*
X310692Y6609D01*
X310750Y6607D01*
X310832Y6629D01*
X310916Y6641D01*
X310969Y6664D01*
X311025Y6679D01*
X311098Y6722D01*
X311175Y6757D01*
X311220Y6795D01*
X311270Y6824D01*
X311328Y6886D01*
X311392Y6940D01*
X311424Y6989D01*
X311464Y7032D01*
X311503Y7107D01*
X311550Y7177D01*
X311567Y7233D01*
X311594Y7285D01*
X311605Y7353D01*
X311635Y7448D01*
X311638Y7548D01*
X311649Y7616D01*
X311649Y25476D01*
X313966Y32604D01*
X314015Y32884D01*
X314013Y32903D01*
X314015Y32918D01*
X314015Y100000D01*
X314007Y100058D01*
X314009Y100116D01*
X313987Y100198D01*
X313975Y100282D01*
X313952Y100335D01*
X313937Y100391D01*
X313894Y100464D01*
X313859Y100541D01*
X313821Y100586D01*
X313792Y100636D01*
X313730Y100694D01*
X313676Y100758D01*
X313627Y100790D01*
X313584Y100830D01*
X313509Y100869D01*
X313439Y100916D01*
X313383Y100933D01*
X313331Y100960D01*
X313263Y100971D01*
X313168Y101001D01*
X313068Y101004D01*
X313000Y101015D01*
X266015Y101015D01*
X266015Y156985D01*
X313000Y156985D01*
X313058Y156993D01*
X313116Y156991D01*
X313198Y157013D01*
X313282Y157025D01*
X313335Y157049D01*
X313391Y157063D01*
X313464Y157106D01*
X313541Y157141D01*
X313586Y157179D01*
X313636Y157209D01*
X313694Y157270D01*
X313758Y157325D01*
X313790Y157373D01*
X313830Y157416D01*
X313869Y157491D01*
X313916Y157561D01*
X313933Y157617D01*
X313960Y157669D01*
X313971Y157737D01*
X314001Y157832D01*
X314004Y157932D01*
X314015Y158000D01*
X314015Y228723D01*
X314009Y228766D01*
X314012Y228809D01*
X313993Y228883D01*
X313975Y229004D01*
X313943Y229077D01*
X313928Y229134D01*
X312262Y232891D01*
X312186Y235990D01*
X312173Y236065D01*
X312171Y236140D01*
X312150Y236204D01*
X312149Y236210D01*
X312149Y237455D01*
X312147Y237469D01*
X312149Y237480D01*
X312118Y238715D01*
X312129Y238745D01*
X312137Y238870D01*
X312149Y238946D01*
X312149Y255134D01*
X312141Y255192D01*
X312143Y255250D01*
X312121Y255332D01*
X312109Y255416D01*
X312086Y255469D01*
X312071Y255525D01*
X312028Y255598D01*
X311993Y255675D01*
X311955Y255720D01*
X311926Y255770D01*
X311864Y255828D01*
X311810Y255892D01*
X311761Y255924D01*
X311718Y255964D01*
X311643Y256003D01*
X311573Y256050D01*
X311517Y256067D01*
X311465Y256094D01*
X311397Y256105D01*
X311302Y256135D01*
X311202Y256138D01*
X311134Y256149D01*
X137303Y256149D01*
X137274Y256145D01*
X137245Y256148D01*
X137134Y256125D01*
X137022Y256109D01*
X136995Y256097D01*
X136966Y256092D01*
X136866Y256039D01*
X136763Y255993D01*
X136740Y255974D01*
X136714Y255961D01*
X136632Y255883D01*
X136546Y255810D01*
X136529Y255785D01*
X136508Y255765D01*
X136451Y255667D01*
X136388Y255573D01*
X136379Y255545D01*
X136364Y255520D01*
X136336Y255410D01*
X136302Y255302D01*
X136301Y255272D01*
X136294Y255244D01*
X136298Y255131D01*
X136295Y255018D01*
X136302Y254989D01*
X136303Y254960D01*
X136338Y254852D01*
X136367Y254743D01*
X136382Y254717D01*
X136391Y254689D01*
X136436Y254625D01*
X136512Y254498D01*
X136558Y254455D01*
X136586Y254416D01*
X137537Y253465D01*
X137537Y252477D01*
X137549Y252390D01*
X137552Y252303D01*
X137569Y252250D01*
X137577Y252195D01*
X137612Y252116D01*
X137639Y252032D01*
X137667Y251993D01*
X137693Y251936D01*
X137789Y251823D01*
X137834Y251759D01*
X145541Y244052D01*
X145541Y202993D01*
X145545Y202964D01*
X145542Y202935D01*
X145565Y202824D01*
X145581Y202712D01*
X145593Y202685D01*
X145598Y202656D01*
X145651Y202556D01*
X145697Y202453D01*
X145716Y202430D01*
X145729Y202404D01*
X145807Y202322D01*
X145880Y202236D01*
X145905Y202219D01*
X145925Y202198D01*
X146023Y202141D01*
X146117Y202078D01*
X146145Y202069D01*
X146170Y202054D01*
X146280Y202026D01*
X146388Y201992D01*
X146417Y201991D01*
X146446Y201984D01*
X146559Y201988D01*
X146672Y201985D01*
X146701Y201992D01*
X146730Y201993D01*
X146838Y202028D01*
X146947Y202057D01*
X146973Y202072D01*
X147001Y202081D01*
X147065Y202126D01*
X147192Y202202D01*
X147235Y202248D01*
X147274Y202276D01*
X147416Y202418D01*
X147469Y202488D01*
X147528Y202551D01*
X147554Y202601D01*
X147587Y202645D01*
X147618Y202727D01*
X147658Y202804D01*
X147666Y202852D01*
X147688Y202911D01*
X147700Y203058D01*
X147713Y203136D01*
X147713Y234947D01*
X159053Y246287D01*
X272864Y246287D01*
X272951Y246299D01*
X273039Y246302D01*
X273091Y246319D01*
X273146Y246327D01*
X273226Y246362D01*
X273309Y246389D01*
X273348Y246417D01*
X273405Y246443D01*
X273519Y246539D01*
X273582Y246584D01*
X274535Y247537D01*
X277465Y247537D01*
X279537Y245465D01*
X279537Y242535D01*
X277465Y240463D01*
X274535Y240463D01*
X273582Y241416D01*
X273513Y241468D01*
X273449Y241528D01*
X273399Y241554D01*
X273355Y241587D01*
X273273Y241618D01*
X273196Y241658D01*
X273148Y241666D01*
X273090Y241688D01*
X272942Y241700D01*
X272864Y241713D01*
X161368Y241713D01*
X161281Y241701D01*
X161194Y241698D01*
X161141Y241681D01*
X161086Y241673D01*
X161006Y241638D01*
X160923Y241611D01*
X160884Y241583D01*
X160827Y241557D01*
X160714Y241461D01*
X160650Y241416D01*
X152584Y233350D01*
X152532Y233280D01*
X152472Y233216D01*
X152446Y233167D01*
X152413Y233123D01*
X152382Y233041D01*
X152342Y232963D01*
X152334Y232916D01*
X152312Y232857D01*
X152300Y232710D01*
X152287Y232632D01*
X152287Y203136D01*
X152299Y203049D01*
X152302Y202961D01*
X152319Y202909D01*
X152327Y202854D01*
X152362Y202774D01*
X152389Y202691D01*
X152417Y202652D01*
X152443Y202595D01*
X152539Y202481D01*
X152584Y202418D01*
X153537Y201465D01*
X153537Y198535D01*
X151465Y196463D01*
X148535Y196463D01*
X148218Y196780D01*
X148171Y196815D01*
X148131Y196858D01*
X148058Y196901D01*
X147991Y196951D01*
X147936Y196972D01*
X147886Y197002D01*
X147804Y197022D01*
X147725Y197053D01*
X147667Y197057D01*
X147610Y197072D01*
X147526Y197069D01*
X147442Y197076D01*
X147384Y197065D01*
X147326Y197063D01*
X147246Y197037D01*
X147163Y197020D01*
X147111Y196993D01*
X147055Y196975D01*
X146999Y196935D01*
X146911Y196889D01*
X146838Y196820D01*
X146782Y196780D01*
X144465Y194463D01*
X141535Y194463D01*
X139463Y196535D01*
X139463Y199465D01*
X140162Y200164D01*
X140214Y200233D01*
X140274Y200297D01*
X140300Y200347D01*
X140333Y200391D01*
X140364Y200473D01*
X140404Y200550D01*
X140412Y200598D01*
X140434Y200656D01*
X140446Y200804D01*
X140459Y200882D01*
X140459Y241527D01*
X140447Y241614D01*
X140444Y241701D01*
X140427Y241754D01*
X140419Y241809D01*
X140384Y241888D01*
X140357Y241972D01*
X140329Y242011D01*
X140303Y242068D01*
X140207Y242181D01*
X140162Y242245D01*
X134241Y248166D01*
X134171Y248218D01*
X134107Y248278D01*
X134058Y248304D01*
X134014Y248337D01*
X133932Y248368D01*
X133854Y248408D01*
X133807Y248416D01*
X133748Y248438D01*
X133600Y248450D01*
X133523Y248463D01*
X132535Y248463D01*
X131836Y249162D01*
X131767Y249214D01*
X131703Y249274D01*
X131653Y249300D01*
X131609Y249333D01*
X131527Y249364D01*
X131450Y249404D01*
X131402Y249412D01*
X131344Y249434D01*
X131196Y249446D01*
X131119Y249459D01*
X119473Y249459D01*
X119386Y249447D01*
X119299Y249444D01*
X119246Y249427D01*
X119191Y249419D01*
X119112Y249384D01*
X119028Y249357D01*
X118989Y249329D01*
X118932Y249303D01*
X118819Y249207D01*
X118755Y249162D01*
X116502Y246909D01*
X98475Y246909D01*
X98473Y246909D01*
X98471Y246909D01*
X98331Y246889D01*
X98193Y246869D01*
X98192Y246869D01*
X98190Y246869D01*
X98064Y246812D01*
X97934Y246753D01*
X97932Y246752D01*
X97931Y246751D01*
X97824Y246660D01*
X97717Y246570D01*
X97716Y246568D01*
X97715Y246567D01*
X97706Y246554D01*
X97559Y246333D01*
X97550Y246304D01*
X97537Y246283D01*
X97061Y245133D01*
X94917Y242989D01*
X92116Y241829D01*
X89084Y241829D01*
X86283Y242989D01*
X84139Y245133D01*
X82979Y247934D01*
X82979Y250966D01*
X84139Y253767D01*
X84789Y254416D01*
X84806Y254440D01*
X84829Y254459D01*
X84892Y254553D01*
X84960Y254643D01*
X84970Y254671D01*
X84986Y254695D01*
X85021Y254803D01*
X85061Y254909D01*
X85063Y254938D01*
X85072Y254966D01*
X85075Y255080D01*
X85084Y255192D01*
X85079Y255221D01*
X85079Y255250D01*
X85051Y255360D01*
X85029Y255471D01*
X85015Y255497D01*
X85008Y255525D01*
X84950Y255623D01*
X84898Y255723D01*
X84877Y255745D01*
X84862Y255770D01*
X84780Y255847D01*
X84702Y255929D01*
X84677Y255944D01*
X84655Y255964D01*
X84554Y256016D01*
X84457Y256073D01*
X84428Y256080D01*
X84402Y256094D01*
X84325Y256107D01*
X84181Y256143D01*
X84119Y256141D01*
X84071Y256149D01*
X67729Y256149D01*
X67700Y256145D01*
X67671Y256148D01*
X67560Y256125D01*
X67448Y256109D01*
X67421Y256097D01*
X67392Y256092D01*
X67291Y256039D01*
X67188Y255993D01*
X67166Y255974D01*
X67140Y255961D01*
X67058Y255883D01*
X66971Y255810D01*
X66955Y255785D01*
X66934Y255765D01*
X66876Y255667D01*
X66814Y255573D01*
X66805Y255545D01*
X66790Y255520D01*
X66762Y255410D01*
X66728Y255302D01*
X66727Y255272D01*
X66720Y255244D01*
X66723Y255131D01*
X66721Y255018D01*
X66728Y254989D01*
X66729Y254960D01*
X66764Y254852D01*
X66792Y254743D01*
X66807Y254717D01*
X66816Y254689D01*
X66862Y254625D01*
X66938Y254498D01*
X66983Y254455D01*
X67011Y254416D01*
X67811Y253617D01*
X68971Y250816D01*
X68971Y247784D01*
X67811Y244983D01*
X65667Y242839D01*
X64263Y242258D01*
X64262Y242257D01*
X64261Y242257D01*
X64142Y242187D01*
X64019Y242114D01*
X64018Y242113D01*
X64016Y242112D01*
X63919Y242008D01*
X63823Y241907D01*
X63823Y241906D01*
X63822Y241904D01*
X63757Y241779D01*
X63693Y241654D01*
X63693Y241653D01*
X63692Y241651D01*
X63690Y241636D01*
X63638Y241375D01*
X63641Y241345D01*
X63637Y241320D01*
X63637Y235403D01*
X57834Y229600D01*
X57782Y229530D01*
X57722Y229466D01*
X57696Y229417D01*
X57663Y229373D01*
X57632Y229291D01*
X57592Y229213D01*
X57584Y229166D01*
X57562Y229107D01*
X57550Y228960D01*
X57537Y228882D01*
X57537Y227535D01*
X55465Y225463D01*
X52535Y225463D01*
X50463Y227535D01*
X50463Y230465D01*
X52535Y232537D01*
X53882Y232537D01*
X53969Y232549D01*
X54056Y232552D01*
X54109Y232569D01*
X54164Y232577D01*
X54244Y232612D01*
X54327Y232639D01*
X54366Y232667D01*
X54423Y232693D01*
X54536Y232789D01*
X54600Y232834D01*
X58766Y237000D01*
X58818Y237070D01*
X58878Y237134D01*
X58904Y237183D01*
X58937Y237227D01*
X58968Y237309D01*
X59008Y237387D01*
X59016Y237434D01*
X59038Y237493D01*
X59050Y237640D01*
X59063Y237718D01*
X59063Y241320D01*
X59063Y241322D01*
X59063Y241323D01*
X59043Y241463D01*
X59023Y241602D01*
X59023Y241603D01*
X59023Y241605D01*
X58966Y241731D01*
X58907Y241861D01*
X58906Y241862D01*
X58905Y241864D01*
X58814Y241971D01*
X58724Y242078D01*
X58722Y242079D01*
X58721Y242080D01*
X58708Y242088D01*
X58487Y242236D01*
X58458Y242245D01*
X58437Y242258D01*
X57033Y242839D01*
X54843Y245030D01*
X54796Y245065D01*
X54756Y245107D01*
X54683Y245150D01*
X54616Y245201D01*
X54561Y245222D01*
X54511Y245251D01*
X54429Y245272D01*
X54350Y245302D01*
X54292Y245307D01*
X54235Y245321D01*
X54151Y245318D01*
X54067Y245325D01*
X54009Y245314D01*
X53951Y245312D01*
X53871Y245286D01*
X53788Y245270D01*
X53736Y245243D01*
X53680Y245225D01*
X53624Y245185D01*
X53536Y245139D01*
X53463Y245070D01*
X53407Y245030D01*
X51367Y242989D01*
X49963Y242408D01*
X49962Y242407D01*
X49961Y242407D01*
X49842Y242337D01*
X49719Y242264D01*
X49718Y242263D01*
X49716Y242262D01*
X49619Y242158D01*
X49523Y242057D01*
X49523Y242056D01*
X49522Y242054D01*
X49457Y241929D01*
X49393Y241804D01*
X49393Y241803D01*
X49392Y241801D01*
X49390Y241786D01*
X49338Y241525D01*
X49341Y241495D01*
X49337Y241470D01*
X49337Y239103D01*
X40947Y230713D01*
X36037Y230713D01*
X35951Y230701D01*
X35863Y230698D01*
X35811Y230681D01*
X35756Y230673D01*
X35676Y230638D01*
X35593Y230611D01*
X35554Y230583D01*
X35497Y230557D01*
X35383Y230461D01*
X35320Y230416D01*
X23888Y218984D01*
X23836Y218915D01*
X23776Y218851D01*
X23750Y218801D01*
X23717Y218757D01*
X23686Y218676D01*
X23646Y218598D01*
X23638Y218550D01*
X23616Y218492D01*
X23604Y218344D01*
X23591Y218267D01*
X23591Y188339D01*
X23595Y188310D01*
X23592Y188281D01*
X23615Y188170D01*
X23631Y188057D01*
X23643Y188031D01*
X23648Y188002D01*
X23700Y187901D01*
X23747Y187798D01*
X23766Y187776D01*
X23779Y187749D01*
X23857Y187667D01*
X23930Y187581D01*
X23955Y187565D01*
X23975Y187543D01*
X24073Y187486D01*
X24167Y187423D01*
X24195Y187414D01*
X24220Y187400D01*
X24330Y187372D01*
X24438Y187338D01*
X24467Y187337D01*
X24496Y187330D01*
X24609Y187333D01*
X24722Y187330D01*
X24751Y187338D01*
X24780Y187339D01*
X24888Y187374D01*
X24997Y187402D01*
X25023Y187417D01*
X25051Y187426D01*
X25115Y187472D01*
X25242Y187547D01*
X25285Y187593D01*
X25324Y187621D01*
X25474Y187771D01*
X35026Y187771D01*
X35771Y187026D01*
X35771Y176474D01*
X35026Y175729D01*
X33986Y175729D01*
X33928Y175721D01*
X33870Y175723D01*
X33788Y175701D01*
X33704Y175689D01*
X33651Y175666D01*
X33595Y175651D01*
X33522Y175608D01*
X33445Y175573D01*
X33400Y175535D01*
X33350Y175506D01*
X33292Y175444D01*
X33228Y175390D01*
X33196Y175341D01*
X33156Y175298D01*
X33117Y175223D01*
X33070Y175153D01*
X33053Y175097D01*
X33026Y175045D01*
X33015Y174977D01*
X32985Y174882D01*
X32982Y174782D01*
X32971Y174714D01*
X32971Y173824D01*
X32983Y173738D01*
X32986Y173650D01*
X33003Y173598D01*
X33011Y173543D01*
X33046Y173463D01*
X33073Y173380D01*
X33101Y173341D01*
X33127Y173284D01*
X33223Y173170D01*
X33268Y173107D01*
X34671Y171704D01*
X34671Y166296D01*
X33406Y165031D01*
X33371Y164985D01*
X33329Y164944D01*
X33286Y164872D01*
X33235Y164804D01*
X33214Y164750D01*
X33185Y164699D01*
X33164Y164618D01*
X33134Y164539D01*
X33129Y164480D01*
X33115Y164424D01*
X33117Y164339D01*
X33110Y164255D01*
X33122Y164198D01*
X33124Y164140D01*
X33150Y164059D01*
X33166Y163977D01*
X33193Y163925D01*
X33211Y163869D01*
X33251Y163813D01*
X33297Y163724D01*
X33366Y163652D01*
X33406Y163596D01*
X34537Y162465D01*
X34537Y159535D01*
X32465Y157463D01*
X29535Y157463D01*
X27463Y159535D01*
X27463Y162465D01*
X28132Y163134D01*
X28184Y163203D01*
X28244Y163267D01*
X28270Y163317D01*
X28303Y163361D01*
X28334Y163443D01*
X28374Y163520D01*
X28382Y163568D01*
X28404Y163626D01*
X28416Y163774D01*
X28429Y163852D01*
X28429Y164176D01*
X28417Y164262D01*
X28414Y164350D01*
X28397Y164402D01*
X28389Y164457D01*
X28354Y164537D01*
X28327Y164620D01*
X28299Y164659D01*
X28273Y164716D01*
X28177Y164830D01*
X28132Y164893D01*
X26729Y166296D01*
X26729Y171704D01*
X28132Y173107D01*
X28184Y173176D01*
X28244Y173240D01*
X28270Y173290D01*
X28303Y173334D01*
X28334Y173416D01*
X28374Y173493D01*
X28382Y173541D01*
X28404Y173599D01*
X28416Y173747D01*
X28429Y173824D01*
X28429Y174714D01*
X28421Y174772D01*
X28423Y174830D01*
X28401Y174912D01*
X28389Y174996D01*
X28366Y175049D01*
X28351Y175105D01*
X28308Y175178D01*
X28273Y175255D01*
X28235Y175300D01*
X28206Y175350D01*
X28144Y175408D01*
X28090Y175472D01*
X28041Y175504D01*
X27998Y175544D01*
X27923Y175583D01*
X27853Y175630D01*
X27797Y175647D01*
X27745Y175674D01*
X27677Y175685D01*
X27582Y175715D01*
X27482Y175718D01*
X27414Y175729D01*
X25474Y175729D01*
X25324Y175879D01*
X25300Y175897D01*
X25281Y175919D01*
X25226Y175956D01*
X25219Y175963D01*
X25207Y175969D01*
X25187Y175982D01*
X25097Y176050D01*
X25069Y176060D01*
X25045Y176077D01*
X24937Y176111D01*
X24831Y176151D01*
X24802Y176154D01*
X24774Y176162D01*
X24661Y176165D01*
X24548Y176175D01*
X24519Y176169D01*
X24490Y176170D01*
X24380Y176141D01*
X24269Y176119D01*
X24243Y176105D01*
X24215Y176098D01*
X24117Y176040D01*
X24017Y175988D01*
X23995Y175968D01*
X23970Y175953D01*
X23893Y175870D01*
X23811Y175792D01*
X23796Y175767D01*
X23776Y175745D01*
X23724Y175645D01*
X23667Y175547D01*
X23660Y175518D01*
X23646Y175492D01*
X23633Y175415D01*
X23597Y175271D01*
X23599Y175209D01*
X23591Y175161D01*
X23591Y146403D01*
X23603Y146317D01*
X23606Y146229D01*
X23623Y146177D01*
X23631Y146122D01*
X23666Y146042D01*
X23693Y145959D01*
X23721Y145919D01*
X23747Y145862D01*
X23843Y145749D01*
X23888Y145685D01*
X31568Y138005D01*
X31615Y137970D01*
X31655Y137928D01*
X31728Y137885D01*
X31795Y137835D01*
X31850Y137814D01*
X31900Y137784D01*
X31982Y137763D01*
X32061Y137733D01*
X32119Y137728D01*
X32176Y137714D01*
X32260Y137717D01*
X32344Y137710D01*
X32401Y137721D01*
X32460Y137723D01*
X32540Y137749D01*
X32623Y137766D01*
X32675Y137793D01*
X32730Y137811D01*
X32787Y137851D01*
X32875Y137897D01*
X32948Y137965D01*
X33004Y138005D01*
X33535Y138537D01*
X36465Y138537D01*
X38537Y136465D01*
X38537Y133535D01*
X36465Y131463D01*
X35891Y131463D01*
X35862Y131459D01*
X35833Y131462D01*
X35722Y131439D01*
X35610Y131423D01*
X35583Y131411D01*
X35554Y131406D01*
X35454Y131354D01*
X35351Y131307D01*
X35328Y131288D01*
X35302Y131275D01*
X35220Y131197D01*
X35134Y131124D01*
X35117Y131099D01*
X35096Y131079D01*
X35039Y130981D01*
X34976Y130887D01*
X34967Y130859D01*
X34952Y130834D01*
X34924Y130724D01*
X34890Y130616D01*
X34889Y130586D01*
X34882Y130558D01*
X34886Y130445D01*
X34883Y130332D01*
X34890Y130303D01*
X34891Y130274D01*
X34926Y130166D01*
X34955Y130057D01*
X34970Y130031D01*
X34979Y130003D01*
X35024Y129940D01*
X35100Y129812D01*
X35146Y129769D01*
X35174Y129730D01*
X117450Y47454D01*
X117520Y47401D01*
X117584Y47341D01*
X117633Y47316D01*
X117677Y47283D01*
X117759Y47252D01*
X117837Y47212D01*
X117884Y47204D01*
X117943Y47182D01*
X118091Y47169D01*
X118168Y47156D01*
X177502Y47156D01*
X177588Y47169D01*
X177676Y47171D01*
X177729Y47188D01*
X177783Y47196D01*
X177863Y47232D01*
X177946Y47259D01*
X177986Y47287D01*
X178043Y47312D01*
X178156Y47408D01*
X178220Y47454D01*
X191416Y60650D01*
X191468Y60720D01*
X191528Y60784D01*
X191554Y60833D01*
X191587Y60877D01*
X191618Y60959D01*
X191658Y61037D01*
X191666Y61084D01*
X191688Y61143D01*
X191697Y61249D01*
X191699Y61256D01*
X191700Y61288D01*
X191700Y61290D01*
X191713Y61368D01*
X191713Y72864D01*
X191701Y72951D01*
X191698Y73039D01*
X191681Y73091D01*
X191673Y73146D01*
X191638Y73226D01*
X191611Y73309D01*
X191583Y73348D01*
X191557Y73405D01*
X191461Y73519D01*
X191416Y73582D01*
X190463Y74535D01*
X190463Y77465D01*
X192535Y79537D01*
X195465Y79537D01*
X197537Y77465D01*
X197537Y74535D01*
X196584Y73582D01*
X196532Y73513D01*
X196472Y73449D01*
X196446Y73399D01*
X196413Y73355D01*
X196382Y73273D01*
X196342Y73196D01*
X196334Y73148D01*
X196312Y73090D01*
X196300Y72942D01*
X196287Y72864D01*
X196287Y68739D01*
X196291Y68710D01*
X196288Y68681D01*
X196311Y68570D01*
X196327Y68458D01*
X196339Y68431D01*
X196344Y68402D01*
X196397Y68302D01*
X196443Y68199D01*
X196462Y68176D01*
X196475Y68150D01*
X196553Y68068D01*
X196626Y67982D01*
X196651Y67965D01*
X196671Y67944D01*
X196769Y67887D01*
X196863Y67824D01*
X196891Y67815D01*
X196916Y67800D01*
X197026Y67772D01*
X197134Y67738D01*
X197164Y67737D01*
X197192Y67730D01*
X197305Y67734D01*
X197418Y67731D01*
X197447Y67738D01*
X197476Y67739D01*
X197584Y67774D01*
X197693Y67803D01*
X197719Y67818D01*
X197747Y67827D01*
X197811Y67872D01*
X197938Y67948D01*
X197981Y67994D01*
X198020Y68022D01*
X198535Y68537D01*
X201465Y68537D01*
X203537Y66465D01*
X203537Y63784D01*
X203541Y63755D01*
X203538Y63726D01*
X203561Y63615D01*
X203577Y63503D01*
X203589Y63476D01*
X203594Y63447D01*
X203647Y63346D01*
X203693Y63243D01*
X203712Y63221D01*
X203725Y63195D01*
X203803Y63113D01*
X203876Y63026D01*
X203901Y63010D01*
X203921Y62989D01*
X204019Y62931D01*
X204113Y62869D01*
X204141Y62860D01*
X204166Y62845D01*
X204276Y62817D01*
X204384Y62783D01*
X204414Y62782D01*
X204442Y62775D01*
X204555Y62778D01*
X204668Y62776D01*
X204697Y62783D01*
X204726Y62784D01*
X204834Y62819D01*
X204943Y62847D01*
X204969Y62862D01*
X204997Y62871D01*
X205061Y62917D01*
X205188Y62993D01*
X205231Y63038D01*
X205270Y63066D01*
X205744Y63541D01*
X222198Y63541D01*
X222256Y63549D01*
X222314Y63547D01*
X222396Y63569D01*
X222480Y63581D01*
X222533Y63604D01*
X222589Y63619D01*
X222662Y63662D01*
X222739Y63697D01*
X222784Y63735D01*
X222834Y63764D01*
X222892Y63826D01*
X222956Y63880D01*
X222988Y63929D01*
X223028Y63972D01*
X223067Y64047D01*
X223114Y64117D01*
X223131Y64173D01*
X223158Y64225D01*
X223169Y64293D01*
X223199Y64388D01*
X223202Y64488D01*
X223213Y64556D01*
X223213Y64569D01*
X225431Y66787D01*
X228569Y66787D01*
X230787Y64569D01*
X230787Y61431D01*
X228569Y59213D01*
X227227Y59213D01*
X227140Y59201D01*
X227053Y59198D01*
X227000Y59181D01*
X226945Y59173D01*
X226866Y59138D01*
X226782Y59111D01*
X226743Y59083D01*
X226686Y59057D01*
X226573Y58961D01*
X226509Y58916D01*
X226052Y58459D01*
X208270Y58459D01*
X208183Y58447D01*
X208096Y58444D01*
X208043Y58427D01*
X207988Y58419D01*
X207908Y58384D01*
X207825Y58357D01*
X207786Y58329D01*
X207729Y58303D01*
X207616Y58207D01*
X207552Y58162D01*
X184861Y35471D01*
X119485Y35471D01*
X119398Y35459D01*
X119310Y35456D01*
X119258Y35439D01*
X119203Y35431D01*
X119123Y35395D01*
X119040Y35368D01*
X119001Y35340D01*
X118944Y35315D01*
X118830Y35219D01*
X118767Y35173D01*
X115052Y31459D01*
X88882Y31459D01*
X88795Y31447D01*
X88707Y31444D01*
X88655Y31427D01*
X88600Y31419D01*
X88520Y31384D01*
X88437Y31357D01*
X88398Y31329D01*
X88341Y31303D01*
X88227Y31207D01*
X88164Y31162D01*
X87465Y30463D01*
X84535Y30463D01*
X82463Y32535D01*
X82463Y35465D01*
X84535Y37537D01*
X87465Y37537D01*
X88164Y36838D01*
X88233Y36786D01*
X88297Y36726D01*
X88347Y36700D01*
X88391Y36667D01*
X88473Y36636D01*
X88550Y36596D01*
X88598Y36588D01*
X88656Y36566D01*
X88804Y36554D01*
X88882Y36541D01*
X112527Y36541D01*
X112614Y36553D01*
X112701Y36556D01*
X112754Y36573D01*
X112809Y36581D01*
X112888Y36616D01*
X112972Y36643D01*
X113011Y36671D01*
X113068Y36697D01*
X113181Y36793D01*
X113245Y36838D01*
X114369Y37962D01*
X114404Y38008D01*
X114446Y38049D01*
X114489Y38122D01*
X114539Y38189D01*
X114560Y38244D01*
X114590Y38294D01*
X114611Y38376D01*
X114641Y38455D01*
X114646Y38513D01*
X114660Y38570D01*
X114657Y38654D01*
X114664Y38738D01*
X114653Y38795D01*
X114651Y38854D01*
X114625Y38934D01*
X114608Y39017D01*
X114581Y39069D01*
X114563Y39124D01*
X114523Y39180D01*
X114477Y39269D01*
X114409Y39341D01*
X114369Y39397D01*
X14050Y139716D01*
X12834Y140932D01*
X12810Y140950D01*
X12791Y140972D01*
X12697Y141035D01*
X12607Y141103D01*
X12579Y141114D01*
X12555Y141130D01*
X12447Y141164D01*
X12341Y141204D01*
X12312Y141207D01*
X12284Y141216D01*
X12170Y141219D01*
X12058Y141228D01*
X12029Y141222D01*
X12000Y141223D01*
X11890Y141194D01*
X11779Y141172D01*
X11753Y141158D01*
X11725Y141151D01*
X11627Y141093D01*
X11527Y141041D01*
X11505Y141021D01*
X11480Y141006D01*
X11403Y140923D01*
X11321Y140845D01*
X11306Y140820D01*
X11286Y140799D01*
X11234Y140698D01*
X11177Y140600D01*
X11170Y140572D01*
X11156Y140545D01*
X11143Y140468D01*
X11107Y140324D01*
X11109Y140262D01*
X11101Y140214D01*
X11101Y41000D01*
X11109Y40942D01*
X11107Y40884D01*
X11129Y40802D01*
X11141Y40719D01*
X11164Y40665D01*
X11179Y40609D01*
X11222Y40536D01*
X11257Y40459D01*
X11295Y40414D01*
X11324Y40364D01*
X11386Y40306D01*
X11440Y40242D01*
X11489Y40210D01*
X11532Y40170D01*
X11607Y40131D01*
X11677Y40085D01*
X11733Y40067D01*
X11785Y40040D01*
X11853Y40029D01*
X11948Y39999D01*
X12048Y39996D01*
X12116Y39985D01*
X48985Y39985D01*
X48985Y7616D01*
X48993Y7558D01*
X48991Y7500D01*
X49013Y7418D01*
X49025Y7334D01*
X49049Y7281D01*
X49063Y7225D01*
X49106Y7152D01*
X49141Y7075D01*
X49179Y7030D01*
X49209Y6980D01*
X49270Y6922D01*
X49325Y6858D01*
X49373Y6826D01*
X49416Y6786D01*
X49491Y6747D01*
X49561Y6700D01*
X49617Y6683D01*
X49669Y6656D01*
X49737Y6645D01*
X49832Y6615D01*
X49932Y6612D01*
X50000Y6601D01*
X80841Y6601D01*
X80870Y6605D01*
G37*
%LPC*%
G36*
X286801Y177258D02*
X286801Y177258D01*
X258374Y222052D01*
X258604Y223079D01*
X277224Y234896D01*
X278251Y234666D01*
X306678Y189872D01*
X306448Y188845D01*
X287829Y177028D01*
X286801Y177258D01*
G37*
%LPD*%
%LPC*%
G36*
X74535Y111463D02*
X74535Y111463D01*
X72463Y113535D01*
X72463Y116465D01*
X73416Y117418D01*
X73468Y117487D01*
X73528Y117551D01*
X73554Y117601D01*
X73587Y117645D01*
X73618Y117727D01*
X73658Y117804D01*
X73666Y117852D01*
X73688Y117910D01*
X73700Y118058D01*
X73713Y118136D01*
X73713Y171947D01*
X92053Y190287D01*
X151632Y190287D01*
X151719Y190299D01*
X151806Y190302D01*
X151859Y190319D01*
X151914Y190327D01*
X151994Y190362D01*
X152077Y190389D01*
X152116Y190417D01*
X152173Y190443D01*
X152286Y190539D01*
X152350Y190584D01*
X186166Y224400D01*
X186218Y224470D01*
X186278Y224534D01*
X186304Y224583D01*
X186337Y224627D01*
X186368Y224709D01*
X186408Y224787D01*
X186416Y224834D01*
X186438Y224893D01*
X186450Y225040D01*
X186463Y225118D01*
X186463Y226465D01*
X188535Y228537D01*
X191465Y228537D01*
X193537Y226465D01*
X193537Y223535D01*
X191465Y221463D01*
X190118Y221463D01*
X190031Y221451D01*
X189944Y221448D01*
X189891Y221431D01*
X189836Y221423D01*
X189756Y221388D01*
X189673Y221361D01*
X189634Y221333D01*
X189577Y221307D01*
X189464Y221211D01*
X189400Y221166D01*
X153947Y185713D01*
X94368Y185713D01*
X94281Y185701D01*
X94194Y185698D01*
X94141Y185681D01*
X94086Y185673D01*
X94006Y185638D01*
X93923Y185611D01*
X93884Y185583D01*
X93827Y185557D01*
X93714Y185461D01*
X93650Y185416D01*
X78584Y170350D01*
X78532Y170280D01*
X78472Y170216D01*
X78446Y170167D01*
X78413Y170123D01*
X78382Y170041D01*
X78342Y169963D01*
X78334Y169916D01*
X78312Y169857D01*
X78300Y169710D01*
X78287Y169632D01*
X78287Y118136D01*
X78299Y118049D01*
X78302Y117961D01*
X78319Y117909D01*
X78327Y117854D01*
X78362Y117774D01*
X78389Y117691D01*
X78417Y117652D01*
X78443Y117595D01*
X78539Y117481D01*
X78584Y117418D01*
X79537Y116465D01*
X79537Y113535D01*
X77465Y111463D01*
X74535Y111463D01*
G37*
%LPD*%
%LPC*%
G36*
X36974Y190229D02*
X36974Y190229D01*
X36229Y190974D01*
X36229Y201526D01*
X36974Y202271D01*
X38464Y202271D01*
X38522Y202279D01*
X38580Y202277D01*
X38662Y202299D01*
X38746Y202311D01*
X38799Y202334D01*
X38855Y202349D01*
X38928Y202392D01*
X39005Y202427D01*
X39050Y202465D01*
X39100Y202494D01*
X39158Y202556D01*
X39222Y202610D01*
X39254Y202659D01*
X39294Y202702D01*
X39333Y202777D01*
X39380Y202847D01*
X39397Y202903D01*
X39424Y202955D01*
X39435Y203023D01*
X39465Y203118D01*
X39468Y203218D01*
X39479Y203286D01*
X39479Y205726D01*
X39467Y205812D01*
X39464Y205900D01*
X39447Y205952D01*
X39439Y206007D01*
X39404Y206087D01*
X39377Y206170D01*
X39349Y206209D01*
X39323Y206266D01*
X39227Y206380D01*
X39182Y206443D01*
X37329Y208296D01*
X37329Y213704D01*
X38896Y215271D01*
X43704Y215271D01*
X45271Y213704D01*
X45271Y208296D01*
X44318Y207343D01*
X44266Y207274D01*
X44206Y207210D01*
X44180Y207160D01*
X44147Y207116D01*
X44116Y207034D01*
X44076Y206957D01*
X44068Y206909D01*
X44046Y206851D01*
X44041Y206793D01*
X44035Y206773D01*
X44033Y206697D01*
X44021Y206626D01*
X44021Y203286D01*
X44029Y203228D01*
X44027Y203170D01*
X44049Y203088D01*
X44061Y203004D01*
X44084Y202951D01*
X44099Y202895D01*
X44142Y202822D01*
X44177Y202745D01*
X44215Y202700D01*
X44244Y202650D01*
X44306Y202592D01*
X44360Y202528D01*
X44409Y202496D01*
X44452Y202456D01*
X44527Y202417D01*
X44597Y202370D01*
X44653Y202353D01*
X44705Y202326D01*
X44773Y202315D01*
X44868Y202285D01*
X44968Y202282D01*
X45036Y202271D01*
X46526Y202271D01*
X47271Y201526D01*
X47271Y199536D01*
X47279Y199478D01*
X47277Y199420D01*
X47299Y199338D01*
X47311Y199254D01*
X47334Y199201D01*
X47349Y199145D01*
X47392Y199072D01*
X47427Y198995D01*
X47465Y198950D01*
X47494Y198900D01*
X47556Y198842D01*
X47610Y198778D01*
X47659Y198746D01*
X47702Y198706D01*
X47777Y198667D01*
X47847Y198620D01*
X47903Y198603D01*
X47955Y198576D01*
X48023Y198565D01*
X48118Y198535D01*
X48218Y198532D01*
X48286Y198521D01*
X50098Y198521D01*
X50185Y198533D01*
X50273Y198536D01*
X50325Y198553D01*
X50380Y198561D01*
X50460Y198596D01*
X50543Y198623D01*
X50582Y198651D01*
X50639Y198677D01*
X50753Y198773D01*
X50816Y198818D01*
X51535Y199537D01*
X54465Y199537D01*
X56537Y197465D01*
X56537Y194535D01*
X54465Y192463D01*
X51535Y192463D01*
X50316Y193682D01*
X50247Y193734D01*
X50183Y193794D01*
X50133Y193820D01*
X50089Y193853D01*
X50007Y193884D01*
X49930Y193924D01*
X49882Y193932D01*
X49824Y193954D01*
X49676Y193966D01*
X49598Y193979D01*
X48286Y193979D01*
X48228Y193971D01*
X48170Y193973D01*
X48088Y193951D01*
X48004Y193939D01*
X47951Y193916D01*
X47895Y193901D01*
X47822Y193858D01*
X47745Y193823D01*
X47700Y193785D01*
X47650Y193756D01*
X47592Y193694D01*
X47528Y193640D01*
X47496Y193591D01*
X47456Y193548D01*
X47417Y193473D01*
X47370Y193403D01*
X47353Y193347D01*
X47326Y193295D01*
X47315Y193227D01*
X47285Y193132D01*
X47282Y193032D01*
X47271Y192964D01*
X47271Y190974D01*
X46526Y190229D01*
X36974Y190229D01*
G37*
%LPD*%
%LPC*%
G36*
X171535Y23463D02*
X171535Y23463D01*
X169463Y25535D01*
X169463Y28465D01*
X171535Y30537D01*
X174465Y30537D01*
X176537Y28465D01*
X176537Y25535D01*
X174465Y23463D01*
X171535Y23463D01*
G37*
%LPD*%
D10*
X17700Y249400D03*
X47050Y249450D03*
X61350Y249300D03*
X90600Y249450D03*
X76000Y249500D03*
X32150Y249500D03*
D11*
X144604Y113922D02*
X195262Y146070D01*
D12*
G36*
X259730Y222288D02*
X277460Y233540D01*
X305322Y189636D01*
X287592Y178384D01*
X259730Y222288D01*
G37*
G36*
X29781Y77862D02*
X47511Y89114D01*
X75373Y45210D01*
X57643Y33958D01*
X29781Y77862D01*
G37*
D13*
X41750Y196250D03*
X41750Y181750D03*
X30250Y181750D03*
X30250Y196250D03*
D14*
X31404Y212596D02*
X33996Y212596D01*
X33996Y209404D01*
X31404Y209404D01*
X31404Y212596D01*
X31404Y212072D02*
X33996Y212072D01*
X40004Y209404D02*
X42596Y209404D01*
X40004Y209404D02*
X40004Y212596D01*
X42596Y212596D01*
X42596Y209404D01*
X42596Y212072D02*
X40004Y212072D01*
X40596Y167404D02*
X38004Y167404D01*
X38004Y170596D01*
X40596Y170596D01*
X40596Y167404D01*
X40596Y170072D02*
X38004Y170072D01*
X31996Y170596D02*
X29404Y170596D01*
X31996Y170596D02*
X31996Y167404D01*
X29404Y167404D01*
X29404Y170596D01*
X29404Y170072D02*
X31996Y170072D01*
D15*
X26000Y20000D03*
D16*
X26000Y30000D01*
X31000Y35000D01*
X31000Y42000D01*
D17*
X256000Y148000D03*
X256000Y161000D03*
X252000Y173000D03*
X242000Y183000D03*
X232000Y193000D03*
X222000Y202000D03*
X205000Y205000D03*
X188000Y205000D03*
X261000Y136000D03*
X158000Y205000D03*
X129000Y226000D03*
X305000Y204000D03*
X305000Y221000D03*
X306000Y93000D03*
X306000Y75000D03*
X235000Y214000D03*
X246000Y205000D03*
X255000Y196000D03*
X267000Y183000D03*
X273000Y165000D03*
X290000Y165000D03*
X307000Y165000D03*
X146000Y179000D03*
X158000Y136000D03*
X158000Y126000D03*
X158000Y116000D03*
X183000Y136000D03*
X183000Y126000D03*
X183000Y115000D03*
D18*
X169933Y129996D02*
X158000Y118063D01*
X158000Y116000D01*
X164004Y129996D02*
X169933Y129996D01*
X164004Y129996D02*
X158000Y136000D01*
X169933Y129996D02*
X179004Y129996D01*
X183000Y126000D01*
X183000Y116929D02*
X169933Y129996D01*
X183000Y116929D02*
X183000Y115000D01*
X169933Y129996D02*
X165937Y126000D01*
X158000Y126000D01*
D17*
X306000Y60000D03*
X306000Y46000D03*
X306000Y30000D03*
X306000Y12000D03*
X288000Y12000D03*
X307000Y178000D03*
X143000Y198000D03*
D19*
X143000Y243000D01*
X134000Y252000D01*
D17*
X134000Y252000D03*
X86000Y34000D03*
D19*
X114000Y34000D01*
X118012Y38012D02*
X183808Y38012D01*
X206797Y61000D01*
X118012Y38012D02*
X114000Y34000D01*
X115450Y249450D02*
X90600Y249450D01*
X115450Y249450D02*
X118000Y252000D01*
X134000Y252000D01*
D20*
X227000Y63000D03*
D19*
X225000Y61000D01*
X206797Y61000D01*
D17*
X200000Y65000D03*
D18*
X200000Y61000D01*
X180568Y41568D01*
X115432Y41568D01*
X14700Y246400D02*
X17700Y249400D01*
X14700Y142300D02*
X115432Y41568D01*
X14700Y142300D02*
X14700Y223370D01*
X19165Y227835D01*
X19165Y247935D01*
X17700Y249400D01*
D17*
X194000Y76000D03*
D18*
X32150Y235150D02*
X32150Y249500D01*
X32150Y235150D02*
X18002Y221002D01*
X18002Y143668D01*
X178870Y44870D02*
X194000Y60000D01*
X194000Y76000D01*
X116800Y44870D02*
X18002Y143668D01*
X116800Y44870D02*
X178870Y44870D01*
X61350Y236350D02*
X61350Y249300D01*
X61350Y236350D02*
X54000Y229000D01*
D17*
X54000Y229000D03*
D18*
X35000Y135000D02*
X31340Y135000D01*
X21304Y145036D01*
D17*
X35000Y135000D03*
D18*
X34670Y233000D02*
X40000Y233000D01*
X47050Y240050D01*
X47050Y249450D01*
X21304Y219634D02*
X21304Y145036D01*
X21304Y219634D02*
X34670Y233000D01*
D17*
X150000Y200000D03*
D18*
X150000Y234000D01*
X160000Y244000D01*
X276000Y244000D01*
D17*
X276000Y244000D03*
D21*
X52577Y61536D02*
X82000Y14000D01*
D17*
X41000Y80000D03*
X45000Y74000D03*
D19*
X45000Y69113D01*
X52577Y61536D01*
X41000Y73113D01*
X41000Y80000D01*
D17*
X279000Y212000D03*
X283000Y206000D03*
X287000Y200000D03*
D18*
X282526Y205962D02*
X282564Y206000D01*
X283000Y206000D01*
X282526Y205962D02*
X287000Y201488D01*
X287000Y200000D01*
X282526Y205962D02*
X279000Y209488D01*
X279000Y212000D01*
D21*
X82000Y14000D02*
X84000Y12000D01*
X253000Y12000D01*
D20*
X259000Y12000D03*
D21*
X253000Y12000D01*
D20*
X253000Y12000D03*
D17*
X76000Y115000D03*
D18*
X76000Y171000D01*
X93000Y188000D01*
X153000Y188000D01*
X190000Y225000D01*
D17*
X190000Y225000D03*
X173000Y27000D03*
D22*
X30700Y181300D02*
X30250Y181750D01*
X30700Y181300D02*
X30700Y169000D01*
D17*
X31000Y161000D03*
D22*
X30700Y161300D02*
X30700Y169000D01*
X30700Y161300D02*
X31000Y161000D01*
X41750Y210550D02*
X41300Y211000D01*
X41750Y210550D02*
X41750Y196250D01*
D17*
X53000Y196000D03*
D22*
X52750Y196250D02*
X41750Y196250D01*
X52750Y196250D02*
X53000Y196000D01*
M02*
