G04 EAGLE Gerber RS-274X export*
G75*
%MOMM*%
%FSLAX34Y34*%
%LPD*%
%IN*%
%IPPOS*%
%AMOC8*
5,1,8,0,0,1.08239X$1,22.5*%
G01*
%ADD10C,0.254000*%


D10*
X8500Y10000D02*
X8523Y9477D01*
X8591Y8958D01*
X8704Y8447D01*
X8862Y7948D01*
X9062Y7464D01*
X9304Y7000D01*
X9585Y6559D01*
X9904Y6143D01*
X10257Y5757D01*
X10643Y5404D01*
X11059Y5085D01*
X11500Y4804D01*
X11964Y4562D01*
X12448Y4362D01*
X12947Y4204D01*
X13458Y4091D01*
X13977Y4023D01*
X14500Y4000D01*
X314250Y4000D01*
X314250Y21500D01*
X314336Y23461D01*
X314592Y25407D01*
X315017Y27323D01*
X315607Y29195D01*
X316358Y31009D01*
X317264Y32750D01*
X318319Y34405D01*
X319514Y35963D01*
X320840Y37410D01*
X322287Y38736D01*
X323845Y39931D01*
X325500Y40986D01*
X327241Y41892D01*
X329055Y42643D01*
X330927Y43233D01*
X332843Y43658D01*
X334789Y43914D01*
X336750Y44000D01*
X338000Y44000D01*
X950500Y84000D01*
X956352Y84723D01*
X962120Y85952D01*
X967758Y87680D01*
X973224Y89893D01*
X978476Y92573D01*
X983475Y95701D01*
X988182Y99253D01*
X992561Y103202D01*
X996580Y107517D01*
X1000208Y112166D01*
X1003416Y117114D01*
X1006181Y122323D01*
X1008000Y126500D01*
X1004555Y132677D01*
X1000585Y138531D01*
X996119Y144016D01*
X991193Y149092D01*
X985843Y153718D01*
X980110Y157861D01*
X974037Y161488D01*
X967672Y164573D01*
X961062Y167090D01*
X954258Y169022D01*
X948000Y170250D01*
X335500Y217750D01*
X333733Y217783D01*
X331976Y217971D01*
X330242Y218311D01*
X328544Y218800D01*
X326895Y219436D01*
X325308Y220213D01*
X323795Y221125D01*
X322367Y222166D01*
X321035Y223328D01*
X319809Y224601D01*
X318699Y225976D01*
X317713Y227442D01*
X316859Y228989D01*
X316142Y230604D01*
X315569Y232276D01*
X315144Y233991D01*
X314871Y235737D01*
X314750Y237500D01*
X314750Y258750D01*
X13750Y258750D01*
X13292Y258730D01*
X12838Y258670D01*
X12391Y258571D01*
X11954Y258433D01*
X11531Y258258D01*
X11125Y258047D01*
X10739Y257801D01*
X10375Y257522D01*
X10038Y257212D01*
X9728Y256875D01*
X9449Y256511D01*
X9203Y256125D01*
X8992Y255719D01*
X8817Y255296D01*
X8679Y254859D01*
X8580Y254412D01*
X8520Y253958D01*
X8500Y253500D01*
X8500Y10000D01*
X321500Y43852D02*
X321442Y43562D01*
X321329Y43289D01*
X321165Y43044D01*
X320956Y42835D01*
X320711Y42671D01*
X320438Y42558D01*
X320148Y42500D01*
X319852Y42500D01*
X319562Y42558D01*
X319289Y42671D01*
X319044Y42835D01*
X318835Y43044D01*
X318671Y43289D01*
X318558Y43562D01*
X318500Y43852D01*
X318500Y44148D01*
X318558Y44438D01*
X318671Y44711D01*
X318835Y44956D01*
X319044Y45165D01*
X319289Y45329D01*
X319562Y45442D01*
X319852Y45500D01*
X320148Y45500D01*
X320438Y45442D01*
X320711Y45329D01*
X320956Y45165D01*
X321165Y44956D01*
X321329Y44711D01*
X321442Y44438D01*
X321500Y44148D01*
X321500Y43852D01*
X321500Y53852D02*
X321442Y53562D01*
X321329Y53289D01*
X321165Y53044D01*
X320956Y52835D01*
X320711Y52671D01*
X320438Y52558D01*
X320148Y52500D01*
X319852Y52500D01*
X319562Y52558D01*
X319289Y52671D01*
X319044Y52835D01*
X318835Y53044D01*
X318671Y53289D01*
X318558Y53562D01*
X318500Y53852D01*
X318500Y54148D01*
X318558Y54438D01*
X318671Y54711D01*
X318835Y54956D01*
X319044Y55165D01*
X319289Y55329D01*
X319562Y55442D01*
X319852Y55500D01*
X320148Y55500D01*
X320438Y55442D01*
X320711Y55329D01*
X320956Y55165D01*
X321165Y54956D01*
X321329Y54711D01*
X321442Y54438D01*
X321500Y54148D01*
X321500Y53852D01*
X321500Y61852D02*
X321442Y61562D01*
X321329Y61289D01*
X321165Y61044D01*
X320956Y60835D01*
X320711Y60671D01*
X320438Y60558D01*
X320148Y60500D01*
X319852Y60500D01*
X319562Y60558D01*
X319289Y60671D01*
X319044Y60835D01*
X318835Y61044D01*
X318671Y61289D01*
X318558Y61562D01*
X318500Y61852D01*
X318500Y62148D01*
X318558Y62438D01*
X318671Y62711D01*
X318835Y62956D01*
X319044Y63165D01*
X319289Y63329D01*
X319562Y63442D01*
X319852Y63500D01*
X320148Y63500D01*
X320438Y63442D01*
X320711Y63329D01*
X320956Y63165D01*
X321165Y62956D01*
X321329Y62711D01*
X321442Y62438D01*
X321500Y62148D01*
X321500Y61852D01*
X321500Y73852D02*
X321442Y73562D01*
X321329Y73289D01*
X321165Y73044D01*
X320956Y72835D01*
X320711Y72671D01*
X320438Y72558D01*
X320148Y72500D01*
X319852Y72500D01*
X319562Y72558D01*
X319289Y72671D01*
X319044Y72835D01*
X318835Y73044D01*
X318671Y73289D01*
X318558Y73562D01*
X318500Y73852D01*
X318500Y74148D01*
X318558Y74438D01*
X318671Y74711D01*
X318835Y74956D01*
X319044Y75165D01*
X319289Y75329D01*
X319562Y75442D01*
X319852Y75500D01*
X320148Y75500D01*
X320438Y75442D01*
X320711Y75329D01*
X320956Y75165D01*
X321165Y74956D01*
X321329Y74711D01*
X321442Y74438D01*
X321500Y74148D01*
X321500Y73852D01*
X321500Y80852D02*
X321442Y80562D01*
X321329Y80289D01*
X321165Y80044D01*
X320956Y79835D01*
X320711Y79671D01*
X320438Y79558D01*
X320148Y79500D01*
X319852Y79500D01*
X319562Y79558D01*
X319289Y79671D01*
X319044Y79835D01*
X318835Y80044D01*
X318671Y80289D01*
X318558Y80562D01*
X318500Y80852D01*
X318500Y81148D01*
X318558Y81438D01*
X318671Y81711D01*
X318835Y81956D01*
X319044Y82165D01*
X319289Y82329D01*
X319562Y82442D01*
X319852Y82500D01*
X320148Y82500D01*
X320438Y82442D01*
X320711Y82329D01*
X320956Y82165D01*
X321165Y81956D01*
X321329Y81711D01*
X321442Y81438D01*
X321500Y81148D01*
X321500Y80852D01*
X321500Y87852D02*
X321442Y87562D01*
X321329Y87289D01*
X321165Y87044D01*
X320956Y86835D01*
X320711Y86671D01*
X320438Y86558D01*
X320148Y86500D01*
X319852Y86500D01*
X319562Y86558D01*
X319289Y86671D01*
X319044Y86835D01*
X318835Y87044D01*
X318671Y87289D01*
X318558Y87562D01*
X318500Y87852D01*
X318500Y88148D01*
X318558Y88438D01*
X318671Y88711D01*
X318835Y88956D01*
X319044Y89165D01*
X319289Y89329D01*
X319562Y89442D01*
X319852Y89500D01*
X320148Y89500D01*
X320438Y89442D01*
X320711Y89329D01*
X320956Y89165D01*
X321165Y88956D01*
X321329Y88711D01*
X321442Y88438D01*
X321500Y88148D01*
X321500Y87852D01*
X321500Y96852D02*
X321442Y96562D01*
X321329Y96289D01*
X321165Y96044D01*
X320956Y95835D01*
X320711Y95671D01*
X320438Y95558D01*
X320148Y95500D01*
X319852Y95500D01*
X319562Y95558D01*
X319289Y95671D01*
X319044Y95835D01*
X318835Y96044D01*
X318671Y96289D01*
X318558Y96562D01*
X318500Y96852D01*
X318500Y97148D01*
X318558Y97438D01*
X318671Y97711D01*
X318835Y97956D01*
X319044Y98165D01*
X319289Y98329D01*
X319562Y98442D01*
X319852Y98500D01*
X320148Y98500D01*
X320438Y98442D01*
X320711Y98329D01*
X320956Y98165D01*
X321165Y97956D01*
X321329Y97711D01*
X321442Y97438D01*
X321500Y97148D01*
X321500Y96852D01*
X321500Y102852D02*
X321442Y102562D01*
X321329Y102289D01*
X321165Y102044D01*
X320956Y101835D01*
X320711Y101671D01*
X320438Y101558D01*
X320148Y101500D01*
X319852Y101500D01*
X319562Y101558D01*
X319289Y101671D01*
X319044Y101835D01*
X318835Y102044D01*
X318671Y102289D01*
X318558Y102562D01*
X318500Y102852D01*
X318500Y103148D01*
X318558Y103438D01*
X318671Y103711D01*
X318835Y103956D01*
X319044Y104165D01*
X319289Y104329D01*
X319562Y104442D01*
X319852Y104500D01*
X320148Y104500D01*
X320438Y104442D01*
X320711Y104329D01*
X320956Y104165D01*
X321165Y103956D01*
X321329Y103711D01*
X321442Y103438D01*
X321500Y103148D01*
X321500Y102852D01*
X321500Y111852D02*
X321442Y111562D01*
X321329Y111289D01*
X321165Y111044D01*
X320956Y110835D01*
X320711Y110671D01*
X320438Y110558D01*
X320148Y110500D01*
X319852Y110500D01*
X319562Y110558D01*
X319289Y110671D01*
X319044Y110835D01*
X318835Y111044D01*
X318671Y111289D01*
X318558Y111562D01*
X318500Y111852D01*
X318500Y112148D01*
X318558Y112438D01*
X318671Y112711D01*
X318835Y112956D01*
X319044Y113165D01*
X319289Y113329D01*
X319562Y113442D01*
X319852Y113500D01*
X320148Y113500D01*
X320438Y113442D01*
X320711Y113329D01*
X320956Y113165D01*
X321165Y112956D01*
X321329Y112711D01*
X321442Y112438D01*
X321500Y112148D01*
X321500Y111852D01*
X321500Y122852D02*
X321442Y122562D01*
X321329Y122289D01*
X321165Y122044D01*
X320956Y121835D01*
X320711Y121671D01*
X320438Y121558D01*
X320148Y121500D01*
X319852Y121500D01*
X319562Y121558D01*
X319289Y121671D01*
X319044Y121835D01*
X318835Y122044D01*
X318671Y122289D01*
X318558Y122562D01*
X318500Y122852D01*
X318500Y123148D01*
X318558Y123438D01*
X318671Y123711D01*
X318835Y123956D01*
X319044Y124165D01*
X319289Y124329D01*
X319562Y124442D01*
X319852Y124500D01*
X320148Y124500D01*
X320438Y124442D01*
X320711Y124329D01*
X320956Y124165D01*
X321165Y123956D01*
X321329Y123711D01*
X321442Y123438D01*
X321500Y123148D01*
X321500Y122852D01*
X321500Y131852D02*
X321442Y131562D01*
X321329Y131289D01*
X321165Y131044D01*
X320956Y130835D01*
X320711Y130671D01*
X320438Y130558D01*
X320148Y130500D01*
X319852Y130500D01*
X319562Y130558D01*
X319289Y130671D01*
X319044Y130835D01*
X318835Y131044D01*
X318671Y131289D01*
X318558Y131562D01*
X318500Y131852D01*
X318500Y132148D01*
X318558Y132438D01*
X318671Y132711D01*
X318835Y132956D01*
X319044Y133165D01*
X319289Y133329D01*
X319562Y133442D01*
X319852Y133500D01*
X320148Y133500D01*
X320438Y133442D01*
X320711Y133329D01*
X320956Y133165D01*
X321165Y132956D01*
X321329Y132711D01*
X321442Y132438D01*
X321500Y132148D01*
X321500Y131852D01*
X321500Y143852D02*
X321442Y143562D01*
X321329Y143289D01*
X321165Y143044D01*
X320956Y142835D01*
X320711Y142671D01*
X320438Y142558D01*
X320148Y142500D01*
X319852Y142500D01*
X319562Y142558D01*
X319289Y142671D01*
X319044Y142835D01*
X318835Y143044D01*
X318671Y143289D01*
X318558Y143562D01*
X318500Y143852D01*
X318500Y144148D01*
X318558Y144438D01*
X318671Y144711D01*
X318835Y144956D01*
X319044Y145165D01*
X319289Y145329D01*
X319562Y145442D01*
X319852Y145500D01*
X320148Y145500D01*
X320438Y145442D01*
X320711Y145329D01*
X320956Y145165D01*
X321165Y144956D01*
X321329Y144711D01*
X321442Y144438D01*
X321500Y144148D01*
X321500Y143852D01*
X321500Y152852D02*
X321442Y152562D01*
X321329Y152289D01*
X321165Y152044D01*
X320956Y151835D01*
X320711Y151671D01*
X320438Y151558D01*
X320148Y151500D01*
X319852Y151500D01*
X319562Y151558D01*
X319289Y151671D01*
X319044Y151835D01*
X318835Y152044D01*
X318671Y152289D01*
X318558Y152562D01*
X318500Y152852D01*
X318500Y153148D01*
X318558Y153438D01*
X318671Y153711D01*
X318835Y153956D01*
X319044Y154165D01*
X319289Y154329D01*
X319562Y154442D01*
X319852Y154500D01*
X320148Y154500D01*
X320438Y154442D01*
X320711Y154329D01*
X320956Y154165D01*
X321165Y153956D01*
X321329Y153711D01*
X321442Y153438D01*
X321500Y153148D01*
X321500Y152852D01*
X321500Y160852D02*
X321442Y160562D01*
X321329Y160289D01*
X321165Y160044D01*
X320956Y159835D01*
X320711Y159671D01*
X320438Y159558D01*
X320148Y159500D01*
X319852Y159500D01*
X319562Y159558D01*
X319289Y159671D01*
X319044Y159835D01*
X318835Y160044D01*
X318671Y160289D01*
X318558Y160562D01*
X318500Y160852D01*
X318500Y161148D01*
X318558Y161438D01*
X318671Y161711D01*
X318835Y161956D01*
X319044Y162165D01*
X319289Y162329D01*
X319562Y162442D01*
X319852Y162500D01*
X320148Y162500D01*
X320438Y162442D01*
X320711Y162329D01*
X320956Y162165D01*
X321165Y161956D01*
X321329Y161711D01*
X321442Y161438D01*
X321500Y161148D01*
X321500Y160852D01*
X321500Y168852D02*
X321442Y168562D01*
X321329Y168289D01*
X321165Y168044D01*
X320956Y167835D01*
X320711Y167671D01*
X320438Y167558D01*
X320148Y167500D01*
X319852Y167500D01*
X319562Y167558D01*
X319289Y167671D01*
X319044Y167835D01*
X318835Y168044D01*
X318671Y168289D01*
X318558Y168562D01*
X318500Y168852D01*
X318500Y169148D01*
X318558Y169438D01*
X318671Y169711D01*
X318835Y169956D01*
X319044Y170165D01*
X319289Y170329D01*
X319562Y170442D01*
X319852Y170500D01*
X320148Y170500D01*
X320438Y170442D01*
X320711Y170329D01*
X320956Y170165D01*
X321165Y169956D01*
X321329Y169711D01*
X321442Y169438D01*
X321500Y169148D01*
X321500Y168852D01*
X321500Y177852D02*
X321442Y177562D01*
X321329Y177289D01*
X321165Y177044D01*
X320956Y176835D01*
X320711Y176671D01*
X320438Y176558D01*
X320148Y176500D01*
X319852Y176500D01*
X319562Y176558D01*
X319289Y176671D01*
X319044Y176835D01*
X318835Y177044D01*
X318671Y177289D01*
X318558Y177562D01*
X318500Y177852D01*
X318500Y178148D01*
X318558Y178438D01*
X318671Y178711D01*
X318835Y178956D01*
X319044Y179165D01*
X319289Y179329D01*
X319562Y179442D01*
X319852Y179500D01*
X320148Y179500D01*
X320438Y179442D01*
X320711Y179329D01*
X320956Y179165D01*
X321165Y178956D01*
X321329Y178711D01*
X321442Y178438D01*
X321500Y178148D01*
X321500Y177852D01*
X321500Y191852D02*
X321442Y191562D01*
X321329Y191289D01*
X321165Y191044D01*
X320956Y190835D01*
X320711Y190671D01*
X320438Y190558D01*
X320148Y190500D01*
X319852Y190500D01*
X319562Y190558D01*
X319289Y190671D01*
X319044Y190835D01*
X318835Y191044D01*
X318671Y191289D01*
X318558Y191562D01*
X318500Y191852D01*
X318500Y192148D01*
X318558Y192438D01*
X318671Y192711D01*
X318835Y192956D01*
X319044Y193165D01*
X319289Y193329D01*
X319562Y193442D01*
X319852Y193500D01*
X320148Y193500D01*
X320438Y193442D01*
X320711Y193329D01*
X320956Y193165D01*
X321165Y192956D01*
X321329Y192711D01*
X321442Y192438D01*
X321500Y192148D01*
X321500Y191852D01*
X321500Y199852D02*
X321442Y199562D01*
X321329Y199289D01*
X321165Y199044D01*
X320956Y198835D01*
X320711Y198671D01*
X320438Y198558D01*
X320148Y198500D01*
X319852Y198500D01*
X319562Y198558D01*
X319289Y198671D01*
X319044Y198835D01*
X318835Y199044D01*
X318671Y199289D01*
X318558Y199562D01*
X318500Y199852D01*
X318500Y200148D01*
X318558Y200438D01*
X318671Y200711D01*
X318835Y200956D01*
X319044Y201165D01*
X319289Y201329D01*
X319562Y201442D01*
X319852Y201500D01*
X320148Y201500D01*
X320438Y201442D01*
X320711Y201329D01*
X320956Y201165D01*
X321165Y200956D01*
X321329Y200711D01*
X321442Y200438D01*
X321500Y200148D01*
X321500Y199852D01*
X321500Y208852D02*
X321442Y208562D01*
X321329Y208289D01*
X321165Y208044D01*
X320956Y207835D01*
X320711Y207671D01*
X320438Y207558D01*
X320148Y207500D01*
X319852Y207500D01*
X319562Y207558D01*
X319289Y207671D01*
X319044Y207835D01*
X318835Y208044D01*
X318671Y208289D01*
X318558Y208562D01*
X318500Y208852D01*
X318500Y209148D01*
X318558Y209438D01*
X318671Y209711D01*
X318835Y209956D01*
X319044Y210165D01*
X319289Y210329D01*
X319562Y210442D01*
X319852Y210500D01*
X320148Y210500D01*
X320438Y210442D01*
X320711Y210329D01*
X320956Y210165D01*
X321165Y209956D01*
X321329Y209711D01*
X321442Y209438D01*
X321500Y209148D01*
X321500Y208852D01*
X321500Y217852D02*
X321442Y217562D01*
X321329Y217289D01*
X321165Y217044D01*
X320956Y216835D01*
X320711Y216671D01*
X320438Y216558D01*
X320148Y216500D01*
X319852Y216500D01*
X319562Y216558D01*
X319289Y216671D01*
X319044Y216835D01*
X318835Y217044D01*
X318671Y217289D01*
X318558Y217562D01*
X318500Y217852D01*
X318500Y218148D01*
X318558Y218438D01*
X318671Y218711D01*
X318835Y218956D01*
X319044Y219165D01*
X319289Y219329D01*
X319562Y219442D01*
X319852Y219500D01*
X320148Y219500D01*
X320438Y219442D01*
X320711Y219329D01*
X320956Y219165D01*
X321165Y218956D01*
X321329Y218711D01*
X321442Y218438D01*
X321500Y218148D01*
X321500Y217852D01*
M02*
