G04 EAGLE Gerber RS-274X export*
G75*
%MOMM*%
%FSLAX34Y34*%
%LPD*%
%INSilkscreen Top*%
%IPPOS*%
%AMOC8*
5,1,8,0,0,1.08239X$1,22.5*%
G01*
%ADD10C,0.685800*%
%ADD11C,0.457200*%
%ADD12C,0.127000*%
%ADD13C,0.177800*%
%ADD14C,0.200000*%
%ADD15C,0.101600*%
%ADD16C,0.203200*%
%ADD17C,0.152400*%
%ADD18C,0.300000*%
%ADD19C,0.076200*%
%ADD20C,0.254000*%
%ADD21R,0.300000X2.100000*%
%ADD22R,0.300000X0.150000*%
%ADD23R,0.300000X0.300000*%

G36*
X425044Y45241D02*
X425044Y45241D01*
X425050Y45240D01*
X1010050Y83976D01*
X1010165Y84002D01*
X1010280Y84027D01*
X1010285Y84030D01*
X1010290Y84031D01*
X1010390Y84093D01*
X1010491Y84153D01*
X1010495Y84158D01*
X1010499Y84160D01*
X1010574Y84251D01*
X1010651Y84340D01*
X1010653Y84345D01*
X1010656Y84350D01*
X1010699Y84459D01*
X1010743Y84568D01*
X1010744Y84575D01*
X1010745Y84579D01*
X1010746Y84596D01*
X1010761Y84735D01*
X1010761Y169319D01*
X1010743Y169430D01*
X1010728Y169542D01*
X1010723Y169551D01*
X1010722Y169562D01*
X1010669Y169661D01*
X1010619Y169762D01*
X1010611Y169770D01*
X1010606Y169779D01*
X1010525Y169856D01*
X1010445Y169937D01*
X1010436Y169941D01*
X1010428Y169949D01*
X1010326Y169996D01*
X1010225Y170046D01*
X1010213Y170049D01*
X1010205Y170052D01*
X1010180Y170055D01*
X1010061Y170078D01*
X425061Y216759D01*
X425010Y216755D01*
X424961Y216760D01*
X424889Y216745D01*
X424815Y216739D01*
X424769Y216719D01*
X424720Y216708D01*
X424657Y216670D01*
X424590Y216641D01*
X424552Y216608D01*
X424509Y216582D01*
X424461Y216526D01*
X424407Y216477D01*
X424382Y216433D01*
X424349Y216395D01*
X424322Y216327D01*
X424286Y216263D01*
X424276Y216213D01*
X424257Y216167D01*
X424244Y216046D01*
X424239Y216021D01*
X424240Y216013D01*
X424239Y216000D01*
X424239Y46000D01*
X424246Y45956D01*
X424244Y45910D01*
X424266Y45835D01*
X424279Y45757D01*
X424300Y45717D01*
X424312Y45674D01*
X424357Y45609D01*
X424394Y45540D01*
X424426Y45509D01*
X424452Y45472D01*
X424515Y45425D01*
X424572Y45371D01*
X424613Y45351D01*
X424649Y45325D01*
X424724Y45300D01*
X424795Y45267D01*
X424840Y45262D01*
X424883Y45248D01*
X425023Y45242D01*
X425039Y45240D01*
X425044Y45241D01*
G37*
D10*
X360596Y80993D02*
X329354Y80993D01*
X329354Y89671D01*
X329357Y89882D01*
X329364Y90094D01*
X329377Y90304D01*
X329395Y90515D01*
X329418Y90725D01*
X329446Y90935D01*
X329480Y91143D01*
X329518Y91351D01*
X329562Y91558D01*
X329610Y91764D01*
X329664Y91968D01*
X329722Y92171D01*
X329785Y92373D01*
X329854Y92573D01*
X329927Y92771D01*
X330005Y92968D01*
X330087Y93162D01*
X330175Y93354D01*
X330267Y93545D01*
X330363Y93733D01*
X330464Y93918D01*
X330570Y94101D01*
X330680Y94282D01*
X330795Y94459D01*
X330913Y94634D01*
X331036Y94806D01*
X331163Y94975D01*
X331295Y95140D01*
X331430Y95303D01*
X331569Y95462D01*
X331712Y95618D01*
X331858Y95770D01*
X332009Y95918D01*
X332163Y96063D01*
X332320Y96204D01*
X332481Y96341D01*
X332645Y96475D01*
X332812Y96604D01*
X332983Y96729D01*
X333156Y96850D01*
X333332Y96966D01*
X333511Y97078D01*
X333693Y97186D01*
X333877Y97290D01*
X334064Y97389D01*
X334253Y97483D01*
X334445Y97573D01*
X334638Y97658D01*
X334833Y97738D01*
X335031Y97814D01*
X335230Y97884D01*
X335431Y97950D01*
X335633Y98011D01*
X335837Y98067D01*
X336042Y98118D01*
X336248Y98164D01*
X336456Y98205D01*
X336664Y98241D01*
X336873Y98271D01*
X337083Y98297D01*
X337293Y98317D01*
X337504Y98333D01*
X337715Y98343D01*
X337926Y98348D01*
X338138Y98348D01*
X338349Y98343D01*
X338560Y98333D01*
X338771Y98317D01*
X338981Y98297D01*
X339191Y98271D01*
X339400Y98241D01*
X339608Y98205D01*
X339816Y98164D01*
X340022Y98118D01*
X340227Y98067D01*
X340431Y98011D01*
X340633Y97950D01*
X340834Y97884D01*
X341033Y97814D01*
X341231Y97738D01*
X341426Y97658D01*
X341619Y97573D01*
X341811Y97483D01*
X342000Y97389D01*
X342187Y97290D01*
X342371Y97186D01*
X342553Y97078D01*
X342732Y96966D01*
X342908Y96850D01*
X343081Y96729D01*
X343252Y96604D01*
X343419Y96475D01*
X343583Y96341D01*
X343744Y96204D01*
X343901Y96063D01*
X344055Y95918D01*
X344206Y95770D01*
X344352Y95618D01*
X344495Y95462D01*
X344634Y95303D01*
X344769Y95140D01*
X344901Y94975D01*
X345028Y94806D01*
X345151Y94634D01*
X345269Y94459D01*
X345384Y94282D01*
X345494Y94101D01*
X345600Y93918D01*
X345701Y93733D01*
X345797Y93545D01*
X345889Y93354D01*
X345977Y93162D01*
X346059Y92968D01*
X346137Y92771D01*
X346210Y92573D01*
X346279Y92373D01*
X346342Y92171D01*
X346400Y91968D01*
X346454Y91764D01*
X346502Y91558D01*
X346546Y91351D01*
X346584Y91143D01*
X346618Y90935D01*
X346646Y90725D01*
X346669Y90515D01*
X346687Y90304D01*
X346700Y90094D01*
X346707Y89882D01*
X346710Y89671D01*
X346711Y89671D02*
X346711Y80993D01*
X360596Y115106D02*
X329354Y115106D01*
X329354Y106428D02*
X329354Y123784D01*
X329354Y131362D02*
X360596Y141776D01*
X329354Y152190D01*
X338032Y161673D02*
X351918Y161673D01*
X338032Y161673D02*
X337821Y161676D01*
X337609Y161683D01*
X337399Y161696D01*
X337188Y161714D01*
X336978Y161737D01*
X336768Y161765D01*
X336560Y161799D01*
X336352Y161837D01*
X336145Y161881D01*
X335939Y161929D01*
X335735Y161983D01*
X335532Y162041D01*
X335330Y162104D01*
X335130Y162173D01*
X334932Y162246D01*
X334735Y162324D01*
X334541Y162406D01*
X334349Y162494D01*
X334158Y162586D01*
X333970Y162682D01*
X333785Y162783D01*
X333602Y162889D01*
X333421Y162999D01*
X333244Y163114D01*
X333069Y163232D01*
X332897Y163355D01*
X332728Y163482D01*
X332563Y163614D01*
X332400Y163749D01*
X332241Y163888D01*
X332085Y164031D01*
X331933Y164177D01*
X331785Y164328D01*
X331640Y164482D01*
X331499Y164639D01*
X331362Y164800D01*
X331228Y164964D01*
X331099Y165131D01*
X330974Y165302D01*
X330853Y165475D01*
X330737Y165651D01*
X330625Y165830D01*
X330517Y166012D01*
X330413Y166196D01*
X330314Y166383D01*
X330220Y166572D01*
X330130Y166764D01*
X330045Y166957D01*
X329965Y167152D01*
X329889Y167350D01*
X329819Y167549D01*
X329753Y167750D01*
X329692Y167952D01*
X329636Y168156D01*
X329585Y168361D01*
X329539Y168567D01*
X329498Y168775D01*
X329462Y168983D01*
X329432Y169192D01*
X329406Y169402D01*
X329386Y169612D01*
X329370Y169823D01*
X329360Y170034D01*
X329355Y170245D01*
X329355Y170457D01*
X329360Y170668D01*
X329370Y170879D01*
X329386Y171090D01*
X329406Y171300D01*
X329432Y171510D01*
X329462Y171719D01*
X329498Y171927D01*
X329539Y172135D01*
X329585Y172341D01*
X329636Y172546D01*
X329692Y172750D01*
X329753Y172952D01*
X329819Y173153D01*
X329889Y173352D01*
X329965Y173550D01*
X330045Y173745D01*
X330130Y173938D01*
X330220Y174130D01*
X330314Y174319D01*
X330413Y174506D01*
X330517Y174690D01*
X330625Y174872D01*
X330737Y175051D01*
X330853Y175227D01*
X330974Y175400D01*
X331099Y175571D01*
X331228Y175738D01*
X331362Y175902D01*
X331499Y176063D01*
X331640Y176220D01*
X331785Y176374D01*
X331933Y176525D01*
X332085Y176671D01*
X332241Y176814D01*
X332400Y176953D01*
X332563Y177088D01*
X332728Y177220D01*
X332897Y177347D01*
X333069Y177470D01*
X333244Y177588D01*
X333421Y177703D01*
X333602Y177813D01*
X333785Y177919D01*
X333970Y178020D01*
X334158Y178116D01*
X334349Y178208D01*
X334541Y178296D01*
X334735Y178378D01*
X334932Y178456D01*
X335130Y178529D01*
X335330Y178598D01*
X335532Y178661D01*
X335735Y178719D01*
X335939Y178773D01*
X336145Y178821D01*
X336352Y178865D01*
X336560Y178903D01*
X336768Y178937D01*
X336978Y178965D01*
X337188Y178988D01*
X337399Y179006D01*
X337609Y179019D01*
X337821Y179026D01*
X338032Y179029D01*
X351918Y179029D01*
X352129Y179026D01*
X352341Y179019D01*
X352551Y179006D01*
X352762Y178988D01*
X352972Y178965D01*
X353182Y178937D01*
X353390Y178903D01*
X353598Y178865D01*
X353805Y178821D01*
X354011Y178773D01*
X354215Y178719D01*
X354418Y178661D01*
X354620Y178598D01*
X354820Y178529D01*
X355018Y178456D01*
X355215Y178378D01*
X355409Y178296D01*
X355601Y178208D01*
X355792Y178116D01*
X355980Y178020D01*
X356165Y177919D01*
X356348Y177813D01*
X356529Y177703D01*
X356706Y177588D01*
X356881Y177470D01*
X357053Y177347D01*
X357222Y177220D01*
X357387Y177088D01*
X357550Y176953D01*
X357709Y176814D01*
X357865Y176671D01*
X358017Y176525D01*
X358165Y176374D01*
X358310Y176220D01*
X358451Y176063D01*
X358588Y175902D01*
X358722Y175738D01*
X358851Y175571D01*
X358976Y175400D01*
X359097Y175227D01*
X359213Y175051D01*
X359325Y174872D01*
X359433Y174690D01*
X359537Y174506D01*
X359636Y174319D01*
X359730Y174130D01*
X359820Y173938D01*
X359905Y173745D01*
X359985Y173550D01*
X360061Y173352D01*
X360131Y173153D01*
X360197Y172952D01*
X360258Y172750D01*
X360314Y172546D01*
X360365Y172341D01*
X360411Y172135D01*
X360452Y171927D01*
X360488Y171719D01*
X360518Y171510D01*
X360544Y171300D01*
X360564Y171090D01*
X360580Y170879D01*
X360590Y170668D01*
X360595Y170457D01*
X360595Y170245D01*
X360590Y170034D01*
X360580Y169823D01*
X360564Y169612D01*
X360544Y169402D01*
X360518Y169192D01*
X360488Y168983D01*
X360452Y168775D01*
X360411Y168567D01*
X360365Y168361D01*
X360314Y168156D01*
X360258Y167952D01*
X360197Y167750D01*
X360131Y167549D01*
X360061Y167350D01*
X359985Y167152D01*
X359905Y166957D01*
X359820Y166764D01*
X359730Y166572D01*
X359636Y166383D01*
X359537Y166196D01*
X359433Y166012D01*
X359325Y165830D01*
X359213Y165651D01*
X359097Y165475D01*
X358976Y165302D01*
X358851Y165131D01*
X358722Y164964D01*
X358588Y164800D01*
X358451Y164639D01*
X358310Y164482D01*
X358165Y164328D01*
X358017Y164177D01*
X357865Y164031D01*
X357709Y163888D01*
X357550Y163749D01*
X357387Y163614D01*
X357222Y163482D01*
X357053Y163355D01*
X356881Y163232D01*
X356706Y163114D01*
X356529Y162999D01*
X356348Y162889D01*
X356165Y162783D01*
X355980Y162682D01*
X355792Y162586D01*
X355601Y162494D01*
X355409Y162406D01*
X355215Y162324D01*
X355018Y162246D01*
X354820Y162173D01*
X354620Y162104D01*
X354418Y162041D01*
X354215Y161983D01*
X354011Y161929D01*
X353805Y161881D01*
X353598Y161837D01*
X353390Y161799D01*
X353182Y161765D01*
X352972Y161737D01*
X352762Y161714D01*
X352551Y161696D01*
X352341Y161683D01*
X352129Y161676D01*
X351918Y161673D01*
D11*
X368411Y81100D02*
X389239Y81100D01*
X368411Y81100D02*
X368411Y90356D01*
X377668Y90356D02*
X377668Y81100D01*
X385768Y98423D02*
X368411Y98423D01*
X385768Y98423D02*
X385884Y98425D01*
X386000Y98431D01*
X386115Y98440D01*
X386231Y98454D01*
X386345Y98471D01*
X386459Y98493D01*
X386573Y98518D01*
X386685Y98546D01*
X386796Y98579D01*
X386907Y98615D01*
X387016Y98655D01*
X387123Y98698D01*
X387229Y98745D01*
X387333Y98796D01*
X387436Y98850D01*
X387537Y98908D01*
X387636Y98968D01*
X387732Y99032D01*
X387827Y99100D01*
X387919Y99170D01*
X388009Y99243D01*
X388096Y99320D01*
X388181Y99399D01*
X388263Y99481D01*
X388342Y99566D01*
X388419Y99653D01*
X388492Y99743D01*
X388562Y99835D01*
X388630Y99930D01*
X388694Y100026D01*
X388754Y100125D01*
X388812Y100226D01*
X388866Y100329D01*
X388917Y100433D01*
X388964Y100539D01*
X389007Y100646D01*
X389047Y100755D01*
X389083Y100866D01*
X389116Y100977D01*
X389144Y101089D01*
X389169Y101203D01*
X389191Y101317D01*
X389208Y101431D01*
X389222Y101547D01*
X389231Y101662D01*
X389237Y101778D01*
X389239Y101894D01*
X384611Y109338D02*
X379982Y109338D01*
X379982Y109339D02*
X379847Y109341D01*
X379713Y109347D01*
X379579Y109357D01*
X379445Y109370D01*
X379311Y109388D01*
X379178Y109409D01*
X379046Y109435D01*
X378915Y109464D01*
X378784Y109497D01*
X378655Y109533D01*
X378526Y109574D01*
X378399Y109618D01*
X378273Y109666D01*
X378149Y109717D01*
X378026Y109773D01*
X377905Y109831D01*
X377786Y109893D01*
X377668Y109959D01*
X377552Y110028D01*
X377439Y110100D01*
X377327Y110176D01*
X377218Y110255D01*
X377112Y110337D01*
X377007Y110422D01*
X376905Y110510D01*
X376806Y110601D01*
X376710Y110695D01*
X376616Y110791D01*
X376525Y110890D01*
X376437Y110992D01*
X376352Y111097D01*
X376270Y111203D01*
X376191Y111312D01*
X376115Y111424D01*
X376043Y111537D01*
X375974Y111653D01*
X375908Y111771D01*
X375846Y111890D01*
X375788Y112011D01*
X375732Y112134D01*
X375681Y112258D01*
X375633Y112384D01*
X375589Y112511D01*
X375548Y112640D01*
X375512Y112769D01*
X375479Y112900D01*
X375450Y113031D01*
X375424Y113163D01*
X375403Y113296D01*
X375385Y113430D01*
X375372Y113564D01*
X375362Y113698D01*
X375356Y113832D01*
X375354Y113967D01*
X375356Y114102D01*
X375362Y114236D01*
X375372Y114370D01*
X375385Y114504D01*
X375403Y114638D01*
X375424Y114771D01*
X375450Y114903D01*
X375479Y115034D01*
X375512Y115165D01*
X375548Y115294D01*
X375589Y115423D01*
X375633Y115550D01*
X375681Y115676D01*
X375732Y115800D01*
X375788Y115923D01*
X375846Y116044D01*
X375908Y116163D01*
X375974Y116281D01*
X376043Y116397D01*
X376115Y116510D01*
X376191Y116622D01*
X376270Y116731D01*
X376352Y116837D01*
X376437Y116942D01*
X376525Y117044D01*
X376616Y117143D01*
X376710Y117239D01*
X376806Y117333D01*
X376905Y117424D01*
X377007Y117512D01*
X377112Y117597D01*
X377218Y117679D01*
X377327Y117758D01*
X377439Y117834D01*
X377552Y117906D01*
X377668Y117975D01*
X377786Y118041D01*
X377905Y118103D01*
X378026Y118161D01*
X378149Y118217D01*
X378273Y118268D01*
X378399Y118316D01*
X378526Y118360D01*
X378655Y118401D01*
X378784Y118437D01*
X378915Y118470D01*
X379046Y118499D01*
X379178Y118525D01*
X379311Y118546D01*
X379445Y118564D01*
X379579Y118577D01*
X379713Y118587D01*
X379847Y118593D01*
X379982Y118595D01*
X384611Y118595D01*
X384746Y118593D01*
X384880Y118587D01*
X385014Y118577D01*
X385148Y118564D01*
X385282Y118546D01*
X385415Y118525D01*
X385547Y118499D01*
X385678Y118470D01*
X385809Y118437D01*
X385938Y118401D01*
X386067Y118360D01*
X386194Y118316D01*
X386320Y118268D01*
X386444Y118217D01*
X386567Y118161D01*
X386688Y118103D01*
X386807Y118041D01*
X386925Y117975D01*
X387041Y117906D01*
X387154Y117834D01*
X387266Y117758D01*
X387375Y117679D01*
X387481Y117597D01*
X387586Y117512D01*
X387688Y117424D01*
X387787Y117333D01*
X387883Y117239D01*
X387977Y117143D01*
X388068Y117044D01*
X388156Y116942D01*
X388241Y116837D01*
X388323Y116731D01*
X388402Y116622D01*
X388478Y116510D01*
X388550Y116397D01*
X388619Y116281D01*
X388685Y116163D01*
X388747Y116044D01*
X388805Y115923D01*
X388861Y115800D01*
X388912Y115676D01*
X388960Y115550D01*
X389004Y115423D01*
X389045Y115294D01*
X389081Y115165D01*
X389114Y115034D01*
X389143Y114903D01*
X389169Y114771D01*
X389190Y114638D01*
X389208Y114504D01*
X389221Y114370D01*
X389231Y114236D01*
X389237Y114102D01*
X389239Y113967D01*
X389237Y113832D01*
X389231Y113698D01*
X389221Y113564D01*
X389208Y113430D01*
X389190Y113296D01*
X389169Y113163D01*
X389143Y113031D01*
X389114Y112900D01*
X389081Y112769D01*
X389045Y112640D01*
X389004Y112511D01*
X388960Y112384D01*
X388912Y112258D01*
X388861Y112134D01*
X388805Y112011D01*
X388747Y111890D01*
X388685Y111771D01*
X388619Y111653D01*
X388550Y111537D01*
X388478Y111424D01*
X388402Y111312D01*
X388323Y111203D01*
X388241Y111097D01*
X388156Y110992D01*
X388068Y110890D01*
X387977Y110791D01*
X387883Y110695D01*
X387787Y110601D01*
X387688Y110510D01*
X387586Y110422D01*
X387481Y110337D01*
X387375Y110255D01*
X387266Y110176D01*
X387154Y110100D01*
X387041Y110028D01*
X386925Y109959D01*
X386807Y109893D01*
X386688Y109831D01*
X386567Y109773D01*
X386444Y109717D01*
X386320Y109666D01*
X386194Y109618D01*
X386067Y109574D01*
X385938Y109533D01*
X385809Y109497D01*
X385678Y109464D01*
X385547Y109435D01*
X385415Y109409D01*
X385282Y109388D01*
X385148Y109370D01*
X385014Y109357D01*
X384880Y109347D01*
X384746Y109341D01*
X384611Y109339D01*
X375354Y127207D02*
X389239Y130678D01*
X379982Y134149D01*
X389239Y137621D01*
X375354Y141092D01*
X389239Y153175D02*
X389239Y158961D01*
X389239Y153175D02*
X389237Y153059D01*
X389231Y152943D01*
X389222Y152828D01*
X389208Y152712D01*
X389191Y152598D01*
X389169Y152484D01*
X389144Y152370D01*
X389116Y152258D01*
X389083Y152147D01*
X389047Y152036D01*
X389007Y151927D01*
X388964Y151820D01*
X388917Y151714D01*
X388866Y151610D01*
X388812Y151507D01*
X388754Y151406D01*
X388694Y151307D01*
X388630Y151211D01*
X388562Y151116D01*
X388492Y151024D01*
X388419Y150934D01*
X388342Y150847D01*
X388263Y150762D01*
X388181Y150680D01*
X388096Y150601D01*
X388009Y150524D01*
X387919Y150451D01*
X387827Y150381D01*
X387732Y150313D01*
X387636Y150249D01*
X387537Y150189D01*
X387436Y150131D01*
X387333Y150077D01*
X387229Y150026D01*
X387123Y149979D01*
X387016Y149936D01*
X386907Y149896D01*
X386796Y149860D01*
X386685Y149827D01*
X386573Y149799D01*
X386459Y149774D01*
X386345Y149752D01*
X386231Y149735D01*
X386115Y149721D01*
X386000Y149712D01*
X385884Y149706D01*
X385768Y149704D01*
X379982Y149704D01*
X379847Y149706D01*
X379713Y149712D01*
X379579Y149722D01*
X379445Y149735D01*
X379311Y149753D01*
X379178Y149774D01*
X379046Y149800D01*
X378915Y149829D01*
X378784Y149862D01*
X378655Y149898D01*
X378526Y149939D01*
X378399Y149983D01*
X378273Y150031D01*
X378149Y150082D01*
X378026Y150138D01*
X377905Y150196D01*
X377786Y150258D01*
X377668Y150324D01*
X377552Y150393D01*
X377439Y150465D01*
X377327Y150541D01*
X377218Y150620D01*
X377112Y150702D01*
X377007Y150787D01*
X376905Y150875D01*
X376806Y150966D01*
X376710Y151060D01*
X376616Y151156D01*
X376525Y151255D01*
X376437Y151357D01*
X376352Y151462D01*
X376270Y151568D01*
X376191Y151677D01*
X376115Y151789D01*
X376043Y151902D01*
X375974Y152018D01*
X375908Y152136D01*
X375846Y152255D01*
X375788Y152376D01*
X375732Y152499D01*
X375681Y152623D01*
X375633Y152749D01*
X375589Y152876D01*
X375548Y153005D01*
X375512Y153134D01*
X375479Y153265D01*
X375450Y153396D01*
X375424Y153528D01*
X375403Y153661D01*
X375385Y153795D01*
X375372Y153929D01*
X375362Y154063D01*
X375356Y154197D01*
X375354Y154332D01*
X375356Y154467D01*
X375362Y154601D01*
X375372Y154735D01*
X375385Y154869D01*
X375403Y155003D01*
X375424Y155136D01*
X375450Y155268D01*
X375479Y155399D01*
X375512Y155530D01*
X375548Y155659D01*
X375589Y155788D01*
X375633Y155915D01*
X375681Y156041D01*
X375732Y156165D01*
X375788Y156288D01*
X375846Y156409D01*
X375908Y156528D01*
X375974Y156646D01*
X376043Y156762D01*
X376115Y156875D01*
X376191Y156987D01*
X376270Y157096D01*
X376352Y157202D01*
X376437Y157307D01*
X376525Y157409D01*
X376616Y157508D01*
X376710Y157604D01*
X376806Y157698D01*
X376905Y157789D01*
X377007Y157877D01*
X377112Y157962D01*
X377218Y158044D01*
X377327Y158123D01*
X377439Y158199D01*
X377552Y158271D01*
X377668Y158340D01*
X377786Y158406D01*
X377905Y158468D01*
X378026Y158526D01*
X378149Y158582D01*
X378273Y158633D01*
X378399Y158681D01*
X378526Y158725D01*
X378655Y158766D01*
X378784Y158802D01*
X378915Y158835D01*
X379046Y158864D01*
X379178Y158890D01*
X379311Y158911D01*
X379445Y158929D01*
X379579Y158942D01*
X379713Y158952D01*
X379847Y158958D01*
X379982Y158960D01*
X379982Y158961D02*
X382296Y158961D01*
X382296Y149704D01*
X389239Y168655D02*
X375354Y168655D01*
X375354Y175597D01*
X377668Y175597D01*
X412111Y87670D02*
X412246Y87668D01*
X412380Y87662D01*
X412514Y87652D01*
X412648Y87639D01*
X412782Y87621D01*
X412915Y87600D01*
X413047Y87574D01*
X413178Y87545D01*
X413309Y87512D01*
X413438Y87476D01*
X413567Y87435D01*
X413694Y87391D01*
X413820Y87343D01*
X413944Y87292D01*
X414067Y87236D01*
X414188Y87178D01*
X414307Y87116D01*
X414425Y87050D01*
X414541Y86981D01*
X414654Y86909D01*
X414766Y86833D01*
X414875Y86754D01*
X414981Y86672D01*
X415086Y86587D01*
X415188Y86499D01*
X415287Y86408D01*
X415383Y86314D01*
X415477Y86218D01*
X415568Y86119D01*
X415656Y86017D01*
X415741Y85912D01*
X415823Y85806D01*
X415902Y85697D01*
X415978Y85585D01*
X416050Y85472D01*
X416119Y85356D01*
X416185Y85238D01*
X416247Y85119D01*
X416305Y84998D01*
X416361Y84875D01*
X416412Y84751D01*
X416460Y84625D01*
X416504Y84498D01*
X416545Y84369D01*
X416581Y84240D01*
X416614Y84109D01*
X416643Y83978D01*
X416669Y83846D01*
X416690Y83713D01*
X416708Y83579D01*
X416721Y83445D01*
X416731Y83311D01*
X416737Y83177D01*
X416739Y83042D01*
X416736Y82808D01*
X416728Y82574D01*
X416714Y82341D01*
X416694Y82108D01*
X416669Y81875D01*
X416638Y81643D01*
X416602Y81412D01*
X416560Y81182D01*
X416513Y80953D01*
X416460Y80725D01*
X416402Y80498D01*
X416339Y80273D01*
X416270Y80049D01*
X416196Y79828D01*
X416116Y79608D01*
X416031Y79390D01*
X415941Y79174D01*
X415846Y78960D01*
X415746Y78748D01*
X415641Y78539D01*
X415530Y78333D01*
X415415Y78129D01*
X415295Y77929D01*
X415171Y77731D01*
X415041Y77536D01*
X414907Y77344D01*
X414769Y77156D01*
X414626Y76970D01*
X414478Y76789D01*
X414326Y76611D01*
X414170Y76436D01*
X414010Y76266D01*
X413846Y76099D01*
X400540Y76679D02*
X400405Y76681D01*
X400271Y76687D01*
X400137Y76697D01*
X400003Y76710D01*
X399869Y76728D01*
X399736Y76749D01*
X399604Y76775D01*
X399473Y76804D01*
X399342Y76837D01*
X399213Y76873D01*
X399084Y76914D01*
X398957Y76958D01*
X398831Y77006D01*
X398707Y77057D01*
X398584Y77113D01*
X398463Y77171D01*
X398344Y77233D01*
X398226Y77299D01*
X398110Y77368D01*
X397997Y77440D01*
X397885Y77516D01*
X397776Y77595D01*
X397670Y77677D01*
X397565Y77762D01*
X397463Y77850D01*
X397364Y77941D01*
X397268Y78035D01*
X397174Y78131D01*
X397083Y78230D01*
X396995Y78332D01*
X396910Y78437D01*
X396828Y78543D01*
X396749Y78652D01*
X396673Y78764D01*
X396601Y78877D01*
X396532Y78993D01*
X396466Y79111D01*
X396404Y79230D01*
X396346Y79351D01*
X396290Y79474D01*
X396239Y79598D01*
X396191Y79724D01*
X396147Y79851D01*
X396106Y79980D01*
X396070Y80109D01*
X396037Y80240D01*
X396008Y80371D01*
X395982Y80503D01*
X395961Y80636D01*
X395943Y80770D01*
X395930Y80904D01*
X395920Y81038D01*
X395914Y81172D01*
X395912Y81307D01*
X395911Y81307D02*
X395913Y81514D01*
X395921Y81721D01*
X395933Y81927D01*
X395950Y82133D01*
X395973Y82339D01*
X396000Y82544D01*
X396031Y82748D01*
X396068Y82952D01*
X396110Y83154D01*
X396156Y83356D01*
X396208Y83556D01*
X396264Y83755D01*
X396324Y83953D01*
X396390Y84149D01*
X396460Y84344D01*
X396534Y84537D01*
X396614Y84728D01*
X396697Y84917D01*
X396786Y85104D01*
X396878Y85289D01*
X396975Y85471D01*
X397077Y85652D01*
X397183Y85829D01*
X397292Y86005D01*
X397406Y86177D01*
X397525Y86347D01*
X397647Y86514D01*
X404590Y78992D02*
X404520Y78877D01*
X404446Y78763D01*
X404369Y78651D01*
X404288Y78542D01*
X404205Y78435D01*
X404119Y78331D01*
X404029Y78229D01*
X403937Y78129D01*
X403842Y78033D01*
X403744Y77939D01*
X403643Y77848D01*
X403540Y77760D01*
X403435Y77675D01*
X403327Y77593D01*
X403216Y77514D01*
X403104Y77439D01*
X402989Y77366D01*
X402872Y77297D01*
X402754Y77232D01*
X402633Y77170D01*
X402511Y77111D01*
X402387Y77056D01*
X402262Y77005D01*
X402135Y76957D01*
X402007Y76913D01*
X401877Y76872D01*
X401747Y76835D01*
X401615Y76803D01*
X401483Y76773D01*
X401349Y76748D01*
X401216Y76727D01*
X401081Y76709D01*
X400946Y76696D01*
X400811Y76686D01*
X400676Y76680D01*
X400540Y76678D01*
X408061Y85357D02*
X408131Y85472D01*
X408205Y85586D01*
X408282Y85698D01*
X408363Y85807D01*
X408446Y85914D01*
X408532Y86018D01*
X408622Y86120D01*
X408714Y86220D01*
X408809Y86316D01*
X408907Y86410D01*
X409008Y86501D01*
X409111Y86589D01*
X409216Y86674D01*
X409324Y86756D01*
X409435Y86835D01*
X409547Y86910D01*
X409662Y86983D01*
X409779Y87052D01*
X409897Y87117D01*
X410018Y87179D01*
X410140Y87238D01*
X410264Y87293D01*
X410389Y87344D01*
X410516Y87392D01*
X410644Y87436D01*
X410774Y87477D01*
X410904Y87514D01*
X411036Y87546D01*
X411168Y87576D01*
X411302Y87601D01*
X411435Y87622D01*
X411570Y87640D01*
X411705Y87653D01*
X411840Y87663D01*
X411975Y87669D01*
X412111Y87671D01*
X408061Y85356D02*
X404589Y78992D01*
X416739Y99519D02*
X416739Y105304D01*
X416739Y99519D02*
X416737Y99403D01*
X416731Y99287D01*
X416722Y99172D01*
X416708Y99056D01*
X416691Y98942D01*
X416669Y98828D01*
X416644Y98714D01*
X416616Y98602D01*
X416583Y98491D01*
X416547Y98380D01*
X416507Y98271D01*
X416464Y98164D01*
X416417Y98058D01*
X416366Y97954D01*
X416312Y97851D01*
X416254Y97750D01*
X416194Y97651D01*
X416130Y97555D01*
X416062Y97460D01*
X415992Y97368D01*
X415919Y97278D01*
X415842Y97191D01*
X415763Y97106D01*
X415681Y97024D01*
X415596Y96945D01*
X415509Y96868D01*
X415419Y96795D01*
X415327Y96725D01*
X415232Y96657D01*
X415136Y96593D01*
X415037Y96533D01*
X414936Y96475D01*
X414833Y96421D01*
X414729Y96370D01*
X414623Y96323D01*
X414516Y96280D01*
X414407Y96240D01*
X414296Y96204D01*
X414185Y96171D01*
X414073Y96143D01*
X413959Y96118D01*
X413845Y96096D01*
X413731Y96079D01*
X413615Y96065D01*
X413500Y96056D01*
X413384Y96050D01*
X413268Y96048D01*
X407482Y96048D01*
X407347Y96050D01*
X407213Y96056D01*
X407079Y96066D01*
X406945Y96079D01*
X406811Y96097D01*
X406678Y96118D01*
X406546Y96144D01*
X406415Y96173D01*
X406284Y96206D01*
X406155Y96242D01*
X406026Y96283D01*
X405899Y96327D01*
X405773Y96375D01*
X405649Y96426D01*
X405526Y96482D01*
X405405Y96540D01*
X405286Y96602D01*
X405168Y96668D01*
X405052Y96737D01*
X404939Y96809D01*
X404827Y96885D01*
X404718Y96964D01*
X404612Y97046D01*
X404507Y97131D01*
X404405Y97219D01*
X404306Y97310D01*
X404210Y97404D01*
X404116Y97500D01*
X404025Y97599D01*
X403937Y97701D01*
X403852Y97806D01*
X403770Y97912D01*
X403691Y98021D01*
X403615Y98133D01*
X403543Y98246D01*
X403474Y98362D01*
X403408Y98480D01*
X403346Y98599D01*
X403288Y98720D01*
X403232Y98843D01*
X403181Y98967D01*
X403133Y99093D01*
X403089Y99220D01*
X403048Y99349D01*
X403012Y99478D01*
X402979Y99609D01*
X402950Y99740D01*
X402924Y99872D01*
X402903Y100005D01*
X402885Y100139D01*
X402872Y100273D01*
X402862Y100407D01*
X402856Y100541D01*
X402854Y100676D01*
X402856Y100811D01*
X402862Y100945D01*
X402872Y101079D01*
X402885Y101213D01*
X402903Y101347D01*
X402924Y101480D01*
X402950Y101612D01*
X402979Y101743D01*
X403012Y101874D01*
X403048Y102003D01*
X403089Y102132D01*
X403133Y102259D01*
X403181Y102385D01*
X403232Y102509D01*
X403288Y102632D01*
X403346Y102753D01*
X403408Y102872D01*
X403474Y102990D01*
X403543Y103106D01*
X403615Y103219D01*
X403691Y103331D01*
X403770Y103440D01*
X403852Y103546D01*
X403937Y103651D01*
X404025Y103753D01*
X404116Y103852D01*
X404210Y103948D01*
X404306Y104042D01*
X404405Y104133D01*
X404507Y104221D01*
X404612Y104306D01*
X404718Y104388D01*
X404827Y104467D01*
X404939Y104543D01*
X405052Y104615D01*
X405168Y104684D01*
X405286Y104750D01*
X405405Y104812D01*
X405526Y104870D01*
X405649Y104926D01*
X405773Y104977D01*
X405899Y105025D01*
X406026Y105069D01*
X406155Y105110D01*
X406284Y105146D01*
X406415Y105179D01*
X406546Y105208D01*
X406678Y105234D01*
X406811Y105255D01*
X406945Y105273D01*
X407079Y105286D01*
X407213Y105296D01*
X407347Y105302D01*
X407482Y105304D01*
X409796Y105304D01*
X409796Y96048D01*
X416739Y114838D02*
X402854Y114838D01*
X402854Y120624D01*
X402856Y120740D01*
X402862Y120856D01*
X402871Y120971D01*
X402885Y121087D01*
X402902Y121201D01*
X402924Y121315D01*
X402949Y121429D01*
X402977Y121541D01*
X403010Y121652D01*
X403046Y121763D01*
X403086Y121871D01*
X403129Y121979D01*
X403176Y122085D01*
X403227Y122189D01*
X403281Y122292D01*
X403339Y122393D01*
X403399Y122492D01*
X403463Y122588D01*
X403531Y122683D01*
X403601Y122775D01*
X403674Y122865D01*
X403751Y122952D01*
X403830Y123037D01*
X403912Y123119D01*
X403997Y123198D01*
X404084Y123275D01*
X404174Y123348D01*
X404266Y123418D01*
X404361Y123486D01*
X404457Y123550D01*
X404556Y123610D01*
X404657Y123668D01*
X404760Y123722D01*
X404864Y123773D01*
X404970Y123820D01*
X405077Y123863D01*
X405186Y123903D01*
X405297Y123939D01*
X405408Y123972D01*
X405520Y124000D01*
X405634Y124025D01*
X405748Y124047D01*
X405862Y124064D01*
X405978Y124078D01*
X406093Y124087D01*
X406209Y124093D01*
X406325Y124095D01*
X416739Y124095D01*
X408639Y135365D02*
X410954Y141150D01*
X408639Y135365D02*
X408597Y135265D01*
X408552Y135167D01*
X408503Y135071D01*
X408450Y134976D01*
X408395Y134884D01*
X408335Y134793D01*
X408273Y134705D01*
X408208Y134619D01*
X408139Y134535D01*
X408067Y134454D01*
X407993Y134376D01*
X407916Y134300D01*
X407836Y134227D01*
X407754Y134157D01*
X407669Y134090D01*
X407581Y134026D01*
X407492Y133966D01*
X407400Y133908D01*
X407307Y133854D01*
X407211Y133804D01*
X407114Y133756D01*
X407015Y133713D01*
X406914Y133673D01*
X406813Y133636D01*
X406710Y133604D01*
X406605Y133575D01*
X406500Y133549D01*
X406394Y133528D01*
X406288Y133510D01*
X406180Y133497D01*
X406073Y133487D01*
X405965Y133481D01*
X405857Y133479D01*
X405748Y133481D01*
X405640Y133487D01*
X405533Y133496D01*
X405425Y133510D01*
X405319Y133527D01*
X405213Y133548D01*
X405108Y133573D01*
X405003Y133602D01*
X404900Y133635D01*
X404798Y133671D01*
X404698Y133711D01*
X404599Y133754D01*
X404501Y133801D01*
X404406Y133852D01*
X404312Y133906D01*
X404220Y133963D01*
X404131Y134023D01*
X404043Y134087D01*
X403958Y134154D01*
X403876Y134224D01*
X403796Y134296D01*
X403718Y134372D01*
X403644Y134450D01*
X403572Y134531D01*
X403504Y134615D01*
X403438Y134701D01*
X403375Y134789D01*
X403316Y134879D01*
X403260Y134972D01*
X403207Y135066D01*
X403158Y135163D01*
X403113Y135261D01*
X403070Y135360D01*
X403032Y135461D01*
X402997Y135564D01*
X402966Y135667D01*
X402939Y135772D01*
X402915Y135877D01*
X402895Y135983D01*
X402879Y136090D01*
X402867Y136198D01*
X402859Y136306D01*
X402855Y136414D01*
X402854Y136522D01*
X402863Y136837D01*
X402879Y137153D01*
X402902Y137468D01*
X402933Y137783D01*
X402972Y138096D01*
X403018Y138409D01*
X403071Y138720D01*
X403133Y139030D01*
X403201Y139338D01*
X403277Y139645D01*
X403360Y139950D01*
X403451Y140253D01*
X403549Y140553D01*
X403654Y140851D01*
X403766Y141146D01*
X403885Y141439D01*
X404011Y141729D01*
X410954Y141150D02*
X410996Y141250D01*
X411041Y141348D01*
X411090Y141444D01*
X411143Y141539D01*
X411198Y141631D01*
X411258Y141722D01*
X411320Y141810D01*
X411385Y141896D01*
X411454Y141980D01*
X411526Y142061D01*
X411600Y142139D01*
X411677Y142215D01*
X411757Y142288D01*
X411839Y142358D01*
X411924Y142425D01*
X412012Y142489D01*
X412101Y142549D01*
X412193Y142607D01*
X412286Y142661D01*
X412382Y142711D01*
X412479Y142759D01*
X412578Y142802D01*
X412679Y142842D01*
X412780Y142879D01*
X412883Y142911D01*
X412988Y142940D01*
X413093Y142966D01*
X413199Y142987D01*
X413305Y143005D01*
X413413Y143018D01*
X413520Y143028D01*
X413628Y143034D01*
X413736Y143036D01*
X413845Y143034D01*
X413953Y143028D01*
X414060Y143019D01*
X414168Y143005D01*
X414274Y142988D01*
X414380Y142967D01*
X414485Y142942D01*
X414590Y142913D01*
X414693Y142880D01*
X414795Y142844D01*
X414895Y142804D01*
X414994Y142761D01*
X415092Y142714D01*
X415187Y142663D01*
X415281Y142609D01*
X415373Y142552D01*
X415462Y142492D01*
X415550Y142428D01*
X415635Y142361D01*
X415717Y142291D01*
X415797Y142219D01*
X415875Y142143D01*
X415949Y142065D01*
X416021Y141984D01*
X416089Y141900D01*
X416155Y141814D01*
X416218Y141726D01*
X416277Y141636D01*
X416333Y141543D01*
X416386Y141449D01*
X416435Y141352D01*
X416480Y141254D01*
X416523Y141155D01*
X416561Y141054D01*
X416596Y140951D01*
X416627Y140848D01*
X416654Y140743D01*
X416678Y140638D01*
X416698Y140532D01*
X416714Y140425D01*
X416726Y140317D01*
X416734Y140209D01*
X416738Y140101D01*
X416739Y139993D01*
X416740Y139994D02*
X416728Y139530D01*
X416705Y139066D01*
X416671Y138603D01*
X416626Y138141D01*
X416570Y137681D01*
X416503Y137221D01*
X416425Y136764D01*
X416337Y136308D01*
X416238Y135855D01*
X416128Y135404D01*
X416008Y134955D01*
X415876Y134510D01*
X415735Y134068D01*
X415583Y133629D01*
X412111Y151724D02*
X407482Y151724D01*
X407482Y151725D02*
X407347Y151727D01*
X407213Y151733D01*
X407079Y151743D01*
X406945Y151756D01*
X406811Y151774D01*
X406678Y151795D01*
X406546Y151821D01*
X406415Y151850D01*
X406284Y151883D01*
X406155Y151919D01*
X406026Y151960D01*
X405899Y152004D01*
X405773Y152052D01*
X405649Y152103D01*
X405526Y152159D01*
X405405Y152217D01*
X405286Y152279D01*
X405168Y152345D01*
X405052Y152414D01*
X404939Y152486D01*
X404827Y152562D01*
X404718Y152641D01*
X404612Y152723D01*
X404507Y152808D01*
X404405Y152896D01*
X404306Y152987D01*
X404210Y153081D01*
X404116Y153177D01*
X404025Y153276D01*
X403937Y153378D01*
X403852Y153483D01*
X403770Y153589D01*
X403691Y153698D01*
X403615Y153810D01*
X403543Y153923D01*
X403474Y154039D01*
X403408Y154157D01*
X403346Y154276D01*
X403288Y154397D01*
X403232Y154520D01*
X403181Y154644D01*
X403133Y154770D01*
X403089Y154897D01*
X403048Y155026D01*
X403012Y155155D01*
X402979Y155286D01*
X402950Y155417D01*
X402924Y155549D01*
X402903Y155682D01*
X402885Y155816D01*
X402872Y155950D01*
X402862Y156084D01*
X402856Y156218D01*
X402854Y156353D01*
X402856Y156488D01*
X402862Y156622D01*
X402872Y156756D01*
X402885Y156890D01*
X402903Y157024D01*
X402924Y157157D01*
X402950Y157289D01*
X402979Y157420D01*
X403012Y157551D01*
X403048Y157680D01*
X403089Y157809D01*
X403133Y157936D01*
X403181Y158062D01*
X403232Y158186D01*
X403288Y158309D01*
X403346Y158430D01*
X403408Y158549D01*
X403474Y158667D01*
X403543Y158783D01*
X403615Y158896D01*
X403691Y159008D01*
X403770Y159117D01*
X403852Y159223D01*
X403937Y159328D01*
X404025Y159430D01*
X404116Y159529D01*
X404210Y159625D01*
X404306Y159719D01*
X404405Y159810D01*
X404507Y159898D01*
X404612Y159983D01*
X404718Y160065D01*
X404827Y160144D01*
X404939Y160220D01*
X405052Y160292D01*
X405168Y160361D01*
X405286Y160427D01*
X405405Y160489D01*
X405526Y160547D01*
X405649Y160603D01*
X405773Y160654D01*
X405899Y160702D01*
X406026Y160746D01*
X406155Y160787D01*
X406284Y160823D01*
X406415Y160856D01*
X406546Y160885D01*
X406678Y160911D01*
X406811Y160932D01*
X406945Y160950D01*
X407079Y160963D01*
X407213Y160973D01*
X407347Y160979D01*
X407482Y160981D01*
X412111Y160981D01*
X412246Y160979D01*
X412380Y160973D01*
X412514Y160963D01*
X412648Y160950D01*
X412782Y160932D01*
X412915Y160911D01*
X413047Y160885D01*
X413178Y160856D01*
X413309Y160823D01*
X413438Y160787D01*
X413567Y160746D01*
X413694Y160702D01*
X413820Y160654D01*
X413944Y160603D01*
X414067Y160547D01*
X414188Y160489D01*
X414307Y160427D01*
X414425Y160361D01*
X414541Y160292D01*
X414654Y160220D01*
X414766Y160144D01*
X414875Y160065D01*
X414981Y159983D01*
X415086Y159898D01*
X415188Y159810D01*
X415287Y159719D01*
X415383Y159625D01*
X415477Y159529D01*
X415568Y159430D01*
X415656Y159328D01*
X415741Y159223D01*
X415823Y159117D01*
X415902Y159008D01*
X415978Y158896D01*
X416050Y158783D01*
X416119Y158667D01*
X416185Y158549D01*
X416247Y158430D01*
X416305Y158309D01*
X416361Y158186D01*
X416412Y158062D01*
X416460Y157936D01*
X416504Y157809D01*
X416545Y157680D01*
X416581Y157551D01*
X416614Y157420D01*
X416643Y157289D01*
X416669Y157157D01*
X416690Y157024D01*
X416708Y156890D01*
X416721Y156756D01*
X416731Y156622D01*
X416737Y156488D01*
X416739Y156353D01*
X416737Y156218D01*
X416731Y156084D01*
X416721Y155950D01*
X416708Y155816D01*
X416690Y155682D01*
X416669Y155549D01*
X416643Y155417D01*
X416614Y155286D01*
X416581Y155155D01*
X416545Y155026D01*
X416504Y154897D01*
X416460Y154770D01*
X416412Y154644D01*
X416361Y154520D01*
X416305Y154397D01*
X416247Y154276D01*
X416185Y154157D01*
X416119Y154039D01*
X416050Y153923D01*
X415978Y153810D01*
X415902Y153698D01*
X415823Y153589D01*
X415741Y153483D01*
X415656Y153378D01*
X415568Y153276D01*
X415477Y153177D01*
X415383Y153081D01*
X415287Y152987D01*
X415188Y152896D01*
X415086Y152808D01*
X414981Y152723D01*
X414875Y152641D01*
X414766Y152562D01*
X414654Y152486D01*
X414541Y152414D01*
X414425Y152345D01*
X414307Y152279D01*
X414188Y152217D01*
X414067Y152159D01*
X413944Y152103D01*
X413820Y152052D01*
X413694Y152004D01*
X413567Y151960D01*
X413438Y151919D01*
X413309Y151883D01*
X413178Y151850D01*
X413047Y151821D01*
X412915Y151795D01*
X412782Y151774D01*
X412648Y151756D01*
X412514Y151743D01*
X412380Y151733D01*
X412246Y151727D01*
X412111Y151725D01*
X416739Y170675D02*
X402854Y170675D01*
X402854Y177618D01*
X405168Y177618D01*
D12*
X272660Y217449D02*
X272660Y224307D01*
X274565Y224307D01*
X274650Y224305D01*
X274736Y224299D01*
X274821Y224290D01*
X274905Y224276D01*
X274989Y224259D01*
X275072Y224238D01*
X275154Y224214D01*
X275234Y224186D01*
X275314Y224154D01*
X275392Y224118D01*
X275468Y224080D01*
X275542Y224037D01*
X275614Y223992D01*
X275685Y223943D01*
X275753Y223891D01*
X275818Y223837D01*
X275881Y223779D01*
X275942Y223718D01*
X276000Y223655D01*
X276054Y223590D01*
X276106Y223522D01*
X276155Y223451D01*
X276200Y223379D01*
X276243Y223305D01*
X276281Y223229D01*
X276317Y223151D01*
X276349Y223071D01*
X276377Y222991D01*
X276401Y222909D01*
X276422Y222826D01*
X276439Y222742D01*
X276453Y222658D01*
X276462Y222573D01*
X276468Y222487D01*
X276470Y222402D01*
X276468Y222317D01*
X276462Y222231D01*
X276453Y222146D01*
X276439Y222062D01*
X276422Y221978D01*
X276401Y221895D01*
X276377Y221813D01*
X276349Y221733D01*
X276317Y221653D01*
X276281Y221575D01*
X276243Y221499D01*
X276200Y221425D01*
X276155Y221353D01*
X276106Y221282D01*
X276054Y221214D01*
X276000Y221149D01*
X275942Y221086D01*
X275881Y221025D01*
X275818Y220967D01*
X275753Y220913D01*
X275685Y220861D01*
X275614Y220812D01*
X275542Y220767D01*
X275468Y220724D01*
X275392Y220686D01*
X275314Y220650D01*
X275234Y220618D01*
X275154Y220590D01*
X275072Y220566D01*
X274989Y220545D01*
X274905Y220528D01*
X274821Y220514D01*
X274736Y220505D01*
X274650Y220499D01*
X274565Y220497D01*
X272660Y220497D01*
X274946Y220497D02*
X276470Y217449D01*
X280171Y217449D02*
X283219Y217449D01*
X280171Y217449D02*
X280171Y224307D01*
X283219Y224307D01*
X282457Y221259D02*
X280171Y221259D01*
X288288Y217449D02*
X288365Y217451D01*
X288442Y217457D01*
X288519Y217467D01*
X288595Y217480D01*
X288670Y217498D01*
X288744Y217519D01*
X288817Y217544D01*
X288889Y217573D01*
X288959Y217605D01*
X289028Y217640D01*
X289094Y217680D01*
X289159Y217722D01*
X289221Y217768D01*
X289281Y217817D01*
X289338Y217868D01*
X289393Y217923D01*
X289444Y217980D01*
X289493Y218040D01*
X289539Y218102D01*
X289581Y218167D01*
X289621Y218233D01*
X289656Y218302D01*
X289688Y218372D01*
X289717Y218444D01*
X289742Y218517D01*
X289763Y218591D01*
X289781Y218666D01*
X289794Y218742D01*
X289804Y218819D01*
X289810Y218896D01*
X289812Y218973D01*
X288288Y217449D02*
X288178Y217451D01*
X288067Y217457D01*
X287957Y217466D01*
X287847Y217479D01*
X287738Y217496D01*
X287630Y217517D01*
X287522Y217541D01*
X287415Y217570D01*
X287309Y217601D01*
X287205Y217637D01*
X287101Y217676D01*
X286999Y217718D01*
X286899Y217764D01*
X286800Y217814D01*
X286703Y217866D01*
X286607Y217923D01*
X286514Y217982D01*
X286423Y218044D01*
X286334Y218110D01*
X286247Y218178D01*
X286163Y218250D01*
X286081Y218324D01*
X286002Y218401D01*
X286192Y222783D02*
X286194Y222860D01*
X286200Y222937D01*
X286210Y223014D01*
X286223Y223090D01*
X286241Y223165D01*
X286262Y223239D01*
X286287Y223312D01*
X286316Y223384D01*
X286348Y223454D01*
X286383Y223523D01*
X286423Y223589D01*
X286465Y223654D01*
X286511Y223716D01*
X286560Y223776D01*
X286611Y223833D01*
X286666Y223888D01*
X286723Y223939D01*
X286783Y223988D01*
X286845Y224034D01*
X286910Y224076D01*
X286976Y224116D01*
X287045Y224151D01*
X287115Y224183D01*
X287187Y224212D01*
X287260Y224237D01*
X287334Y224258D01*
X287409Y224276D01*
X287485Y224289D01*
X287562Y224299D01*
X287639Y224305D01*
X287716Y224307D01*
X287818Y224305D01*
X287920Y224300D01*
X288022Y224291D01*
X288123Y224278D01*
X288224Y224261D01*
X288324Y224242D01*
X288424Y224218D01*
X288522Y224191D01*
X288620Y224160D01*
X288716Y224126D01*
X288811Y224089D01*
X288905Y224048D01*
X288997Y224004D01*
X289087Y223956D01*
X289176Y223906D01*
X289263Y223852D01*
X289348Y223795D01*
X289431Y223735D01*
X286954Y221449D02*
X286889Y221490D01*
X286826Y221533D01*
X286766Y221580D01*
X286707Y221630D01*
X286652Y221682D01*
X286599Y221737D01*
X286548Y221795D01*
X286501Y221855D01*
X286457Y221918D01*
X286415Y221982D01*
X286377Y222048D01*
X286343Y222117D01*
X286312Y222187D01*
X286284Y222258D01*
X286260Y222330D01*
X286239Y222404D01*
X286222Y222479D01*
X286209Y222554D01*
X286200Y222630D01*
X286194Y222706D01*
X286192Y222783D01*
X289050Y220307D02*
X289115Y220266D01*
X289178Y220223D01*
X289238Y220176D01*
X289297Y220126D01*
X289352Y220074D01*
X289405Y220019D01*
X289456Y219961D01*
X289503Y219901D01*
X289547Y219838D01*
X289589Y219774D01*
X289627Y219708D01*
X289661Y219639D01*
X289692Y219569D01*
X289720Y219498D01*
X289744Y219426D01*
X289765Y219352D01*
X289782Y219277D01*
X289795Y219202D01*
X289804Y219126D01*
X289810Y219050D01*
X289812Y218973D01*
X289050Y220306D02*
X286954Y221449D01*
X293338Y217449D02*
X296386Y217449D01*
X293338Y217449D02*
X293338Y224307D01*
X296386Y224307D01*
X295624Y221259D02*
X293338Y221259D01*
X300830Y224307D02*
X300830Y217449D01*
X298925Y224307D02*
X302735Y224307D01*
X200660Y224307D02*
X200660Y217449D01*
X200660Y224307D02*
X202565Y224307D01*
X202650Y224305D01*
X202736Y224299D01*
X202821Y224290D01*
X202905Y224276D01*
X202989Y224259D01*
X203072Y224238D01*
X203154Y224214D01*
X203234Y224186D01*
X203314Y224154D01*
X203392Y224118D01*
X203468Y224080D01*
X203542Y224037D01*
X203614Y223992D01*
X203685Y223943D01*
X203753Y223891D01*
X203818Y223837D01*
X203881Y223779D01*
X203942Y223718D01*
X204000Y223655D01*
X204054Y223590D01*
X204106Y223522D01*
X204155Y223451D01*
X204200Y223379D01*
X204243Y223305D01*
X204281Y223229D01*
X204317Y223151D01*
X204349Y223071D01*
X204377Y222991D01*
X204401Y222909D01*
X204422Y222826D01*
X204439Y222742D01*
X204453Y222658D01*
X204462Y222573D01*
X204468Y222487D01*
X204470Y222402D01*
X204470Y219354D01*
X204468Y219269D01*
X204462Y219183D01*
X204453Y219098D01*
X204439Y219014D01*
X204422Y218930D01*
X204401Y218847D01*
X204377Y218765D01*
X204349Y218685D01*
X204317Y218605D01*
X204281Y218527D01*
X204243Y218451D01*
X204200Y218377D01*
X204155Y218305D01*
X204106Y218234D01*
X204054Y218166D01*
X204000Y218101D01*
X203942Y218038D01*
X203881Y217977D01*
X203818Y217919D01*
X203753Y217865D01*
X203685Y217813D01*
X203614Y217764D01*
X203542Y217719D01*
X203468Y217676D01*
X203392Y217638D01*
X203314Y217602D01*
X203234Y217570D01*
X203154Y217542D01*
X203072Y217518D01*
X202989Y217497D01*
X202905Y217480D01*
X202821Y217466D01*
X202736Y217457D01*
X202650Y217451D01*
X202565Y217449D01*
X200660Y217449D01*
X208219Y222783D02*
X210124Y224307D01*
X210124Y217449D01*
X208219Y217449D02*
X212029Y217449D01*
X215534Y217449D02*
X217439Y217449D01*
X217524Y217451D01*
X217610Y217457D01*
X217695Y217466D01*
X217779Y217480D01*
X217863Y217497D01*
X217946Y217518D01*
X218028Y217542D01*
X218108Y217570D01*
X218188Y217602D01*
X218266Y217638D01*
X218342Y217676D01*
X218416Y217719D01*
X218488Y217764D01*
X218559Y217813D01*
X218627Y217865D01*
X218692Y217919D01*
X218755Y217977D01*
X218816Y218038D01*
X218874Y218101D01*
X218928Y218166D01*
X218980Y218234D01*
X219029Y218305D01*
X219074Y218377D01*
X219117Y218451D01*
X219155Y218527D01*
X219191Y218605D01*
X219223Y218685D01*
X219251Y218765D01*
X219275Y218847D01*
X219296Y218930D01*
X219313Y219014D01*
X219327Y219098D01*
X219336Y219183D01*
X219342Y219269D01*
X219344Y219354D01*
X219342Y219439D01*
X219336Y219525D01*
X219327Y219610D01*
X219313Y219694D01*
X219296Y219778D01*
X219275Y219861D01*
X219251Y219943D01*
X219223Y220023D01*
X219191Y220103D01*
X219155Y220181D01*
X219117Y220257D01*
X219074Y220331D01*
X219029Y220403D01*
X218980Y220474D01*
X218928Y220542D01*
X218874Y220607D01*
X218816Y220670D01*
X218755Y220731D01*
X218692Y220789D01*
X218627Y220843D01*
X218559Y220895D01*
X218488Y220944D01*
X218416Y220989D01*
X218342Y221032D01*
X218266Y221070D01*
X218188Y221106D01*
X218108Y221138D01*
X218028Y221166D01*
X217946Y221190D01*
X217863Y221211D01*
X217779Y221228D01*
X217695Y221242D01*
X217610Y221251D01*
X217524Y221257D01*
X217439Y221259D01*
X217820Y224307D02*
X215534Y224307D01*
X217820Y224307D02*
X217897Y224305D01*
X217974Y224299D01*
X218051Y224289D01*
X218127Y224276D01*
X218202Y224258D01*
X218276Y224237D01*
X218349Y224212D01*
X218421Y224183D01*
X218491Y224151D01*
X218560Y224116D01*
X218626Y224076D01*
X218691Y224034D01*
X218753Y223988D01*
X218813Y223939D01*
X218870Y223888D01*
X218925Y223833D01*
X218976Y223776D01*
X219025Y223716D01*
X219071Y223654D01*
X219113Y223589D01*
X219153Y223523D01*
X219188Y223454D01*
X219220Y223384D01*
X219249Y223312D01*
X219274Y223239D01*
X219295Y223165D01*
X219313Y223090D01*
X219326Y223014D01*
X219336Y222937D01*
X219342Y222860D01*
X219344Y222783D01*
X219342Y222706D01*
X219336Y222629D01*
X219326Y222552D01*
X219313Y222476D01*
X219295Y222401D01*
X219274Y222327D01*
X219249Y222254D01*
X219220Y222182D01*
X219188Y222112D01*
X219153Y222043D01*
X219113Y221977D01*
X219071Y221912D01*
X219025Y221850D01*
X218976Y221790D01*
X218925Y221733D01*
X218870Y221678D01*
X218813Y221627D01*
X218753Y221578D01*
X218691Y221532D01*
X218626Y221490D01*
X218560Y221450D01*
X218491Y221415D01*
X218421Y221383D01*
X218349Y221354D01*
X218276Y221329D01*
X218202Y221308D01*
X218127Y221290D01*
X218051Y221277D01*
X217974Y221267D01*
X217897Y221261D01*
X217820Y221259D01*
X216296Y221259D01*
X222499Y216687D02*
X225547Y225069D01*
X232268Y218973D02*
X232266Y218896D01*
X232260Y218819D01*
X232250Y218742D01*
X232237Y218666D01*
X232219Y218591D01*
X232198Y218517D01*
X232173Y218444D01*
X232144Y218372D01*
X232112Y218302D01*
X232077Y218233D01*
X232037Y218167D01*
X231995Y218102D01*
X231949Y218040D01*
X231900Y217980D01*
X231849Y217923D01*
X231794Y217868D01*
X231737Y217817D01*
X231677Y217768D01*
X231615Y217722D01*
X231550Y217680D01*
X231484Y217640D01*
X231415Y217605D01*
X231345Y217573D01*
X231273Y217544D01*
X231200Y217519D01*
X231126Y217498D01*
X231051Y217480D01*
X230975Y217467D01*
X230898Y217457D01*
X230821Y217451D01*
X230744Y217449D01*
X230634Y217451D01*
X230523Y217457D01*
X230413Y217466D01*
X230303Y217479D01*
X230194Y217496D01*
X230086Y217517D01*
X229978Y217541D01*
X229871Y217570D01*
X229765Y217601D01*
X229661Y217637D01*
X229557Y217676D01*
X229455Y217718D01*
X229355Y217764D01*
X229256Y217814D01*
X229159Y217866D01*
X229063Y217923D01*
X228970Y217982D01*
X228879Y218044D01*
X228790Y218110D01*
X228703Y218178D01*
X228619Y218250D01*
X228537Y218324D01*
X228458Y218401D01*
X228648Y222783D02*
X228650Y222860D01*
X228656Y222937D01*
X228666Y223014D01*
X228679Y223090D01*
X228697Y223165D01*
X228718Y223239D01*
X228743Y223312D01*
X228772Y223384D01*
X228804Y223454D01*
X228839Y223523D01*
X228879Y223589D01*
X228921Y223654D01*
X228967Y223716D01*
X229016Y223776D01*
X229067Y223833D01*
X229122Y223888D01*
X229179Y223939D01*
X229239Y223988D01*
X229301Y224034D01*
X229366Y224076D01*
X229432Y224116D01*
X229501Y224151D01*
X229571Y224183D01*
X229643Y224212D01*
X229716Y224237D01*
X229790Y224258D01*
X229865Y224276D01*
X229941Y224289D01*
X230018Y224299D01*
X230095Y224305D01*
X230172Y224307D01*
X230274Y224305D01*
X230376Y224300D01*
X230478Y224291D01*
X230579Y224278D01*
X230680Y224261D01*
X230780Y224242D01*
X230880Y224218D01*
X230978Y224191D01*
X231076Y224160D01*
X231172Y224126D01*
X231267Y224089D01*
X231361Y224048D01*
X231453Y224004D01*
X231543Y223956D01*
X231632Y223906D01*
X231719Y223852D01*
X231804Y223795D01*
X231887Y223735D01*
X229410Y221449D02*
X229345Y221490D01*
X229282Y221533D01*
X229222Y221580D01*
X229163Y221630D01*
X229108Y221682D01*
X229055Y221737D01*
X229004Y221795D01*
X228957Y221855D01*
X228913Y221918D01*
X228871Y221982D01*
X228833Y222048D01*
X228799Y222117D01*
X228768Y222187D01*
X228740Y222258D01*
X228716Y222330D01*
X228695Y222404D01*
X228678Y222479D01*
X228665Y222554D01*
X228656Y222630D01*
X228650Y222706D01*
X228648Y222783D01*
X231506Y220307D02*
X231571Y220266D01*
X231634Y220223D01*
X231694Y220176D01*
X231753Y220126D01*
X231808Y220074D01*
X231861Y220019D01*
X231912Y219961D01*
X231959Y219901D01*
X232003Y219838D01*
X232045Y219774D01*
X232083Y219708D01*
X232117Y219639D01*
X232148Y219569D01*
X232176Y219498D01*
X232200Y219426D01*
X232221Y219352D01*
X232238Y219277D01*
X232251Y219202D01*
X232260Y219126D01*
X232266Y219050D01*
X232268Y218973D01*
X231506Y220306D02*
X229410Y221449D01*
X235933Y221259D02*
X237838Y221259D01*
X237923Y221257D01*
X238009Y221251D01*
X238094Y221242D01*
X238178Y221228D01*
X238262Y221211D01*
X238345Y221190D01*
X238427Y221166D01*
X238507Y221138D01*
X238587Y221106D01*
X238665Y221070D01*
X238741Y221032D01*
X238815Y220989D01*
X238887Y220944D01*
X238958Y220895D01*
X239026Y220843D01*
X239091Y220789D01*
X239154Y220731D01*
X239215Y220670D01*
X239273Y220607D01*
X239327Y220542D01*
X239379Y220474D01*
X239428Y220403D01*
X239473Y220331D01*
X239516Y220257D01*
X239554Y220181D01*
X239590Y220103D01*
X239622Y220023D01*
X239650Y219943D01*
X239674Y219861D01*
X239695Y219778D01*
X239712Y219694D01*
X239726Y219610D01*
X239735Y219525D01*
X239741Y219439D01*
X239743Y219354D01*
X239741Y219269D01*
X239735Y219183D01*
X239726Y219098D01*
X239712Y219014D01*
X239695Y218930D01*
X239674Y218847D01*
X239650Y218765D01*
X239622Y218685D01*
X239590Y218605D01*
X239554Y218527D01*
X239516Y218451D01*
X239473Y218377D01*
X239428Y218305D01*
X239379Y218234D01*
X239327Y218166D01*
X239273Y218101D01*
X239215Y218038D01*
X239154Y217977D01*
X239091Y217919D01*
X239026Y217865D01*
X238958Y217813D01*
X238887Y217764D01*
X238815Y217719D01*
X238741Y217676D01*
X238665Y217638D01*
X238587Y217602D01*
X238507Y217570D01*
X238427Y217542D01*
X238345Y217518D01*
X238262Y217497D01*
X238178Y217480D01*
X238094Y217466D01*
X238009Y217457D01*
X237923Y217451D01*
X237838Y217449D01*
X235933Y217449D01*
X235933Y224307D01*
X237838Y224307D01*
X237915Y224305D01*
X237992Y224299D01*
X238069Y224289D01*
X238145Y224276D01*
X238220Y224258D01*
X238294Y224237D01*
X238367Y224212D01*
X238439Y224183D01*
X238509Y224151D01*
X238578Y224116D01*
X238644Y224076D01*
X238709Y224034D01*
X238771Y223988D01*
X238831Y223939D01*
X238888Y223888D01*
X238943Y223833D01*
X238994Y223776D01*
X239043Y223716D01*
X239089Y223654D01*
X239131Y223589D01*
X239171Y223523D01*
X239206Y223454D01*
X239238Y223384D01*
X239267Y223312D01*
X239292Y223239D01*
X239313Y223165D01*
X239331Y223090D01*
X239344Y223014D01*
X239354Y222937D01*
X239360Y222860D01*
X239362Y222783D01*
X239360Y222706D01*
X239354Y222629D01*
X239344Y222552D01*
X239331Y222476D01*
X239313Y222401D01*
X239292Y222327D01*
X239267Y222254D01*
X239238Y222182D01*
X239206Y222112D01*
X239171Y222043D01*
X239131Y221977D01*
X239089Y221912D01*
X239043Y221850D01*
X238994Y221790D01*
X238943Y221733D01*
X238888Y221678D01*
X238831Y221627D01*
X238771Y221578D01*
X238709Y221532D01*
X238644Y221490D01*
X238578Y221450D01*
X238509Y221415D01*
X238439Y221383D01*
X238367Y221354D01*
X238294Y221329D01*
X238220Y221308D01*
X238145Y221290D01*
X238069Y221277D01*
X237992Y221267D01*
X237915Y221261D01*
X237838Y221259D01*
X243109Y224307D02*
X243109Y217449D01*
X246157Y217449D01*
D13*
X29639Y64453D02*
X25914Y64453D01*
X25914Y72835D01*
X29639Y72835D01*
X28708Y69109D02*
X25914Y69109D01*
X33505Y71903D02*
X33505Y72835D01*
X38162Y72835D01*
X35834Y64453D01*
X45210Y72835D02*
X45299Y72833D01*
X45388Y72827D01*
X45476Y72818D01*
X45564Y72805D01*
X45652Y72788D01*
X45738Y72767D01*
X45824Y72743D01*
X45908Y72715D01*
X45992Y72684D01*
X46073Y72649D01*
X46154Y72611D01*
X46232Y72569D01*
X46309Y72524D01*
X46384Y72476D01*
X46456Y72424D01*
X46527Y72370D01*
X46595Y72312D01*
X46660Y72252D01*
X46723Y72189D01*
X46783Y72124D01*
X46841Y72056D01*
X46895Y71985D01*
X46947Y71913D01*
X46995Y71838D01*
X47040Y71761D01*
X47082Y71683D01*
X47120Y71602D01*
X47155Y71521D01*
X47186Y71437D01*
X47214Y71353D01*
X47238Y71267D01*
X47259Y71181D01*
X47276Y71093D01*
X47289Y71005D01*
X47298Y70917D01*
X47304Y70828D01*
X47306Y70739D01*
X45210Y72834D02*
X45107Y72832D01*
X45005Y72826D01*
X44903Y72816D01*
X44801Y72803D01*
X44700Y72785D01*
X44600Y72764D01*
X44500Y72739D01*
X44402Y72710D01*
X44305Y72677D01*
X44209Y72641D01*
X44114Y72601D01*
X44021Y72557D01*
X43930Y72510D01*
X43841Y72460D01*
X43754Y72406D01*
X43668Y72349D01*
X43585Y72289D01*
X43505Y72225D01*
X43427Y72159D01*
X43351Y72089D01*
X43278Y72017D01*
X43208Y71942D01*
X43141Y71864D01*
X43077Y71784D01*
X43016Y71702D01*
X42958Y71617D01*
X42904Y71530D01*
X42852Y71441D01*
X42805Y71351D01*
X42760Y71258D01*
X42720Y71164D01*
X42682Y71068D01*
X42649Y70971D01*
X46607Y69109D02*
X46672Y69173D01*
X46734Y69240D01*
X46794Y69309D01*
X46850Y69381D01*
X46903Y69454D01*
X46954Y69530D01*
X47001Y69608D01*
X47045Y69688D01*
X47086Y69769D01*
X47124Y69852D01*
X47158Y69937D01*
X47189Y70023D01*
X47216Y70110D01*
X47240Y70198D01*
X47260Y70286D01*
X47277Y70376D01*
X47289Y70466D01*
X47299Y70557D01*
X47304Y70648D01*
X47306Y70739D01*
X46607Y69109D02*
X42649Y64453D01*
X47306Y64453D01*
X51937Y67712D02*
X57525Y67712D01*
X64718Y72835D02*
X64807Y72833D01*
X64896Y72827D01*
X64984Y72818D01*
X65072Y72805D01*
X65160Y72788D01*
X65246Y72767D01*
X65332Y72743D01*
X65416Y72715D01*
X65500Y72684D01*
X65581Y72649D01*
X65662Y72611D01*
X65740Y72569D01*
X65817Y72524D01*
X65892Y72476D01*
X65964Y72424D01*
X66035Y72370D01*
X66103Y72312D01*
X66168Y72252D01*
X66231Y72189D01*
X66291Y72124D01*
X66349Y72056D01*
X66403Y71985D01*
X66455Y71913D01*
X66503Y71838D01*
X66548Y71761D01*
X66590Y71683D01*
X66628Y71602D01*
X66663Y71521D01*
X66694Y71437D01*
X66722Y71353D01*
X66746Y71267D01*
X66767Y71181D01*
X66784Y71093D01*
X66797Y71005D01*
X66806Y70917D01*
X66812Y70828D01*
X66814Y70739D01*
X64718Y72834D02*
X64615Y72832D01*
X64513Y72826D01*
X64411Y72816D01*
X64309Y72803D01*
X64208Y72785D01*
X64108Y72764D01*
X64008Y72739D01*
X63910Y72710D01*
X63813Y72677D01*
X63717Y72641D01*
X63622Y72601D01*
X63529Y72557D01*
X63438Y72510D01*
X63349Y72460D01*
X63262Y72406D01*
X63176Y72349D01*
X63093Y72289D01*
X63013Y72225D01*
X62935Y72159D01*
X62859Y72089D01*
X62786Y72017D01*
X62716Y71942D01*
X62649Y71864D01*
X62585Y71784D01*
X62524Y71702D01*
X62466Y71617D01*
X62412Y71530D01*
X62360Y71441D01*
X62313Y71351D01*
X62268Y71258D01*
X62228Y71164D01*
X62190Y71068D01*
X62157Y70971D01*
X66114Y69109D02*
X66179Y69173D01*
X66241Y69240D01*
X66301Y69309D01*
X66357Y69381D01*
X66410Y69454D01*
X66461Y69530D01*
X66508Y69608D01*
X66552Y69688D01*
X66593Y69769D01*
X66631Y69852D01*
X66665Y69937D01*
X66696Y70023D01*
X66723Y70110D01*
X66747Y70198D01*
X66767Y70286D01*
X66784Y70376D01*
X66796Y70466D01*
X66806Y70557D01*
X66811Y70648D01*
X66813Y70739D01*
X66115Y69109D02*
X62156Y64453D01*
X66813Y64453D01*
X74865Y69109D02*
X76262Y69109D01*
X76262Y64453D01*
X73468Y64453D01*
X73468Y64452D02*
X73384Y64454D01*
X73301Y64459D01*
X73218Y64469D01*
X73135Y64482D01*
X73053Y64499D01*
X72972Y64519D01*
X72892Y64543D01*
X72813Y64571D01*
X72736Y64602D01*
X72660Y64636D01*
X72585Y64674D01*
X72512Y64716D01*
X72442Y64760D01*
X72373Y64808D01*
X72306Y64858D01*
X72242Y64912D01*
X72181Y64968D01*
X72121Y65028D01*
X72065Y65089D01*
X72011Y65153D01*
X71961Y65220D01*
X71913Y65289D01*
X71869Y65359D01*
X71827Y65432D01*
X71789Y65507D01*
X71755Y65583D01*
X71724Y65660D01*
X71696Y65739D01*
X71672Y65819D01*
X71652Y65900D01*
X71635Y65982D01*
X71622Y66065D01*
X71612Y66148D01*
X71607Y66231D01*
X71605Y66315D01*
X71605Y70972D01*
X71607Y71058D01*
X71613Y71144D01*
X71623Y71229D01*
X71637Y71314D01*
X71654Y71399D01*
X71676Y71482D01*
X71702Y71564D01*
X71731Y71645D01*
X71764Y71724D01*
X71800Y71802D01*
X71840Y71879D01*
X71884Y71953D01*
X71931Y72025D01*
X71981Y72095D01*
X72035Y72162D01*
X72091Y72227D01*
X72151Y72289D01*
X72213Y72349D01*
X72278Y72405D01*
X72345Y72459D01*
X72415Y72509D01*
X72487Y72556D01*
X72561Y72600D01*
X72638Y72640D01*
X72715Y72676D01*
X72795Y72709D01*
X72876Y72738D01*
X72958Y72764D01*
X73041Y72786D01*
X73126Y72803D01*
X73211Y72817D01*
X73296Y72827D01*
X73382Y72833D01*
X73468Y72835D01*
X76262Y72835D01*
X82917Y72835D02*
X81054Y66315D01*
X85711Y66315D01*
X84314Y64453D02*
X84314Y68178D01*
X90647Y64453D02*
X90647Y72835D01*
X93441Y68178D01*
X96235Y72835D01*
X96235Y64453D01*
X101171Y68644D02*
X101173Y68809D01*
X101179Y68974D01*
X101189Y69138D01*
X101202Y69303D01*
X101220Y69467D01*
X101242Y69630D01*
X101267Y69793D01*
X101297Y69955D01*
X101330Y70117D01*
X101367Y70277D01*
X101408Y70437D01*
X101453Y70596D01*
X101501Y70753D01*
X101553Y70910D01*
X101609Y71065D01*
X101669Y71219D01*
X101732Y71371D01*
X101799Y71522D01*
X101869Y71671D01*
X101898Y71748D01*
X101930Y71824D01*
X101965Y71898D01*
X102005Y71970D01*
X102047Y72040D01*
X102093Y72108D01*
X102142Y72174D01*
X102195Y72238D01*
X102250Y72299D01*
X102308Y72357D01*
X102368Y72412D01*
X102432Y72465D01*
X102498Y72514D01*
X102566Y72560D01*
X102636Y72603D01*
X102708Y72643D01*
X102782Y72679D01*
X102857Y72711D01*
X102934Y72740D01*
X103012Y72765D01*
X103092Y72786D01*
X103172Y72804D01*
X103253Y72817D01*
X103335Y72827D01*
X103417Y72833D01*
X103499Y72835D01*
X103581Y72833D01*
X103663Y72827D01*
X103745Y72817D01*
X103826Y72804D01*
X103906Y72786D01*
X103986Y72765D01*
X104064Y72740D01*
X104141Y72711D01*
X104216Y72679D01*
X104290Y72643D01*
X104362Y72603D01*
X104432Y72560D01*
X104500Y72514D01*
X104566Y72465D01*
X104630Y72412D01*
X104690Y72357D01*
X104748Y72299D01*
X104803Y72238D01*
X104856Y72174D01*
X104905Y72108D01*
X104951Y72040D01*
X104993Y71970D01*
X105033Y71898D01*
X105068Y71824D01*
X105100Y71748D01*
X105129Y71671D01*
X105199Y71522D01*
X105266Y71371D01*
X105329Y71219D01*
X105389Y71065D01*
X105445Y70910D01*
X105497Y70753D01*
X105545Y70596D01*
X105590Y70437D01*
X105631Y70277D01*
X105668Y70117D01*
X105701Y69955D01*
X105731Y69793D01*
X105756Y69630D01*
X105778Y69467D01*
X105796Y69303D01*
X105809Y69138D01*
X105819Y68974D01*
X105825Y68809D01*
X105827Y68644D01*
X101170Y68644D02*
X101172Y68479D01*
X101178Y68314D01*
X101188Y68150D01*
X101201Y67985D01*
X101219Y67821D01*
X101241Y67658D01*
X101266Y67495D01*
X101296Y67333D01*
X101329Y67171D01*
X101366Y67010D01*
X101407Y66851D01*
X101452Y66692D01*
X101500Y66534D01*
X101552Y66378D01*
X101608Y66223D01*
X101668Y66069D01*
X101731Y65917D01*
X101798Y65766D01*
X101869Y65617D01*
X101898Y65540D01*
X101930Y65464D01*
X101966Y65390D01*
X102005Y65318D01*
X102047Y65248D01*
X102093Y65180D01*
X102142Y65114D01*
X102195Y65050D01*
X102250Y64989D01*
X102308Y64931D01*
X102368Y64876D01*
X102432Y64823D01*
X102498Y64774D01*
X102566Y64728D01*
X102636Y64685D01*
X102708Y64645D01*
X102782Y64609D01*
X102857Y64577D01*
X102934Y64548D01*
X103012Y64523D01*
X103092Y64502D01*
X103172Y64484D01*
X103253Y64471D01*
X103335Y64461D01*
X103417Y64455D01*
X103499Y64453D01*
X105129Y65617D02*
X105200Y65766D01*
X105267Y65917D01*
X105330Y66069D01*
X105390Y66223D01*
X105446Y66378D01*
X105498Y66534D01*
X105546Y66692D01*
X105591Y66851D01*
X105632Y67010D01*
X105669Y67171D01*
X105702Y67333D01*
X105732Y67495D01*
X105757Y67658D01*
X105779Y67821D01*
X105797Y67985D01*
X105810Y68150D01*
X105820Y68314D01*
X105826Y68479D01*
X105828Y68644D01*
X105129Y65617D02*
X105100Y65540D01*
X105068Y65464D01*
X105032Y65390D01*
X104993Y65318D01*
X104951Y65248D01*
X104905Y65180D01*
X104856Y65114D01*
X104803Y65050D01*
X104748Y64989D01*
X104690Y64931D01*
X104630Y64876D01*
X104566Y64823D01*
X104500Y64774D01*
X104432Y64728D01*
X104362Y64685D01*
X104290Y64645D01*
X104216Y64609D01*
X104141Y64577D01*
X104064Y64548D01*
X103986Y64523D01*
X103906Y64502D01*
X103826Y64484D01*
X103745Y64471D01*
X103663Y64461D01*
X103581Y64455D01*
X103499Y64453D01*
X101636Y66315D02*
X105362Y70972D01*
X110315Y64453D02*
X113109Y64453D01*
X113109Y64452D02*
X113193Y64454D01*
X113276Y64460D01*
X113359Y64469D01*
X113442Y64482D01*
X113524Y64499D01*
X113605Y64519D01*
X113685Y64543D01*
X113764Y64571D01*
X113841Y64602D01*
X113917Y64636D01*
X113992Y64674D01*
X114065Y64716D01*
X114135Y64760D01*
X114204Y64808D01*
X114271Y64858D01*
X114335Y64912D01*
X114396Y64968D01*
X114456Y65028D01*
X114512Y65089D01*
X114566Y65153D01*
X114616Y65220D01*
X114664Y65289D01*
X114708Y65359D01*
X114750Y65432D01*
X114788Y65507D01*
X114822Y65583D01*
X114853Y65660D01*
X114881Y65739D01*
X114905Y65819D01*
X114925Y65900D01*
X114942Y65982D01*
X114955Y66065D01*
X114965Y66148D01*
X114970Y66231D01*
X114972Y66315D01*
X114971Y66315D02*
X114971Y67247D01*
X114972Y67247D02*
X114970Y67331D01*
X114965Y67414D01*
X114955Y67497D01*
X114942Y67580D01*
X114925Y67662D01*
X114905Y67743D01*
X114881Y67823D01*
X114853Y67902D01*
X114822Y67979D01*
X114788Y68055D01*
X114750Y68130D01*
X114708Y68203D01*
X114664Y68273D01*
X114616Y68342D01*
X114566Y68409D01*
X114512Y68473D01*
X114456Y68534D01*
X114396Y68594D01*
X114335Y68650D01*
X114271Y68704D01*
X114204Y68754D01*
X114135Y68802D01*
X114065Y68846D01*
X113992Y68888D01*
X113917Y68926D01*
X113841Y68960D01*
X113764Y68991D01*
X113685Y69019D01*
X113605Y69043D01*
X113524Y69063D01*
X113442Y69080D01*
X113359Y69093D01*
X113276Y69103D01*
X113193Y69108D01*
X113109Y69110D01*
X113109Y69109D02*
X110315Y69109D01*
X110315Y72835D01*
X114971Y72835D01*
X121948Y64452D02*
X122034Y64454D01*
X122120Y64460D01*
X122205Y64470D01*
X122290Y64484D01*
X122375Y64501D01*
X122458Y64523D01*
X122540Y64549D01*
X122621Y64578D01*
X122701Y64611D01*
X122778Y64647D01*
X122855Y64687D01*
X122929Y64731D01*
X123001Y64778D01*
X123071Y64828D01*
X123138Y64882D01*
X123203Y64938D01*
X123265Y64998D01*
X123325Y65060D01*
X123381Y65125D01*
X123435Y65192D01*
X123485Y65262D01*
X123532Y65334D01*
X123576Y65408D01*
X123616Y65485D01*
X123652Y65563D01*
X123685Y65642D01*
X123714Y65723D01*
X123740Y65805D01*
X123762Y65888D01*
X123779Y65973D01*
X123793Y66058D01*
X123803Y66143D01*
X123809Y66229D01*
X123811Y66315D01*
X121948Y64452D02*
X121824Y64454D01*
X121700Y64460D01*
X121576Y64470D01*
X121452Y64483D01*
X121329Y64501D01*
X121207Y64522D01*
X121085Y64548D01*
X120964Y64577D01*
X120844Y64610D01*
X120726Y64647D01*
X120608Y64687D01*
X120492Y64731D01*
X120377Y64779D01*
X120264Y64830D01*
X120153Y64885D01*
X120043Y64944D01*
X119935Y65006D01*
X119829Y65071D01*
X119726Y65140D01*
X119624Y65211D01*
X119525Y65286D01*
X119429Y65364D01*
X119334Y65445D01*
X119243Y65529D01*
X119154Y65616D01*
X119386Y70972D02*
X119388Y71056D01*
X119393Y71139D01*
X119403Y71222D01*
X119416Y71305D01*
X119433Y71387D01*
X119453Y71468D01*
X119477Y71548D01*
X119505Y71627D01*
X119536Y71704D01*
X119570Y71780D01*
X119608Y71855D01*
X119650Y71928D01*
X119694Y71998D01*
X119742Y72067D01*
X119792Y72134D01*
X119846Y72198D01*
X119902Y72259D01*
X119962Y72319D01*
X120023Y72375D01*
X120087Y72429D01*
X120154Y72479D01*
X120223Y72527D01*
X120293Y72571D01*
X120366Y72613D01*
X120441Y72651D01*
X120517Y72685D01*
X120594Y72716D01*
X120673Y72744D01*
X120753Y72768D01*
X120834Y72788D01*
X120916Y72805D01*
X120999Y72818D01*
X121082Y72828D01*
X121165Y72833D01*
X121249Y72835D01*
X121361Y72833D01*
X121474Y72828D01*
X121586Y72819D01*
X121697Y72806D01*
X121809Y72790D01*
X121919Y72770D01*
X122029Y72747D01*
X122138Y72720D01*
X122246Y72690D01*
X122354Y72656D01*
X122460Y72619D01*
X122564Y72578D01*
X122668Y72534D01*
X122770Y72487D01*
X122870Y72436D01*
X122969Y72382D01*
X123066Y72325D01*
X123161Y72265D01*
X123254Y72202D01*
X123345Y72136D01*
X120317Y69342D02*
X120245Y69387D01*
X120174Y69435D01*
X120106Y69487D01*
X120040Y69541D01*
X119977Y69598D01*
X119916Y69658D01*
X119858Y69721D01*
X119803Y69787D01*
X119751Y69854D01*
X119703Y69924D01*
X119657Y69996D01*
X119615Y70071D01*
X119576Y70147D01*
X119540Y70224D01*
X119508Y70303D01*
X119480Y70384D01*
X119455Y70466D01*
X119434Y70549D01*
X119417Y70632D01*
X119403Y70717D01*
X119394Y70801D01*
X119388Y70887D01*
X119386Y70972D01*
X122880Y67945D02*
X122952Y67900D01*
X123023Y67852D01*
X123091Y67800D01*
X123157Y67746D01*
X123220Y67689D01*
X123281Y67629D01*
X123339Y67566D01*
X123394Y67500D01*
X123446Y67433D01*
X123494Y67363D01*
X123540Y67291D01*
X123582Y67216D01*
X123621Y67140D01*
X123657Y67063D01*
X123689Y66984D01*
X123717Y66903D01*
X123742Y66821D01*
X123763Y66738D01*
X123780Y66655D01*
X123794Y66570D01*
X123803Y66486D01*
X123809Y66400D01*
X123811Y66315D01*
X122879Y67945D02*
X120318Y69342D01*
X127993Y70972D02*
X130321Y72835D01*
X130321Y64453D01*
X127993Y64453D02*
X132650Y64453D01*
X137471Y64453D02*
X137471Y72835D01*
X141196Y72835D01*
X141196Y69109D02*
X137471Y69109D01*
D14*
X320000Y208444D02*
X320000Y219000D01*
X320000Y198444D02*
X320000Y187889D01*
X320000Y177889D02*
X320000Y167333D01*
X320000Y157333D02*
X320000Y146778D01*
X320000Y136778D02*
X320000Y126222D01*
X320000Y116222D02*
X320000Y105667D01*
X320000Y95667D02*
X320000Y85111D01*
X320000Y75111D02*
X320000Y64556D01*
X320000Y54556D02*
X320000Y44000D01*
X425000Y196250D02*
X425000Y207000D01*
X425000Y186250D02*
X425000Y175500D01*
X425000Y165500D02*
X425000Y154750D01*
X425000Y144750D02*
X425000Y134000D01*
X425000Y124000D02*
X425000Y113250D01*
X425000Y103250D02*
X425000Y92500D01*
X425000Y82500D02*
X425000Y71750D01*
X425000Y61750D02*
X425000Y51000D01*
D15*
X20143Y190154D02*
X20143Y199242D01*
X20142Y190154D02*
X20140Y190055D01*
X20134Y189955D01*
X20125Y189856D01*
X20112Y189758D01*
X20095Y189660D01*
X20074Y189562D01*
X20049Y189466D01*
X20021Y189371D01*
X19989Y189277D01*
X19954Y189184D01*
X19915Y189092D01*
X19872Y189002D01*
X19827Y188914D01*
X19777Y188827D01*
X19725Y188743D01*
X19669Y188660D01*
X19611Y188580D01*
X19549Y188502D01*
X19484Y188427D01*
X19416Y188354D01*
X19346Y188284D01*
X19273Y188216D01*
X19198Y188151D01*
X19120Y188089D01*
X19040Y188031D01*
X18957Y187975D01*
X18873Y187923D01*
X18786Y187873D01*
X18698Y187828D01*
X18608Y187785D01*
X18516Y187746D01*
X18423Y187711D01*
X18329Y187679D01*
X18234Y187651D01*
X18138Y187626D01*
X18040Y187605D01*
X17942Y187588D01*
X17844Y187575D01*
X17745Y187566D01*
X17645Y187560D01*
X17546Y187558D01*
X16248Y187558D01*
X25820Y187558D02*
X25820Y199242D01*
X25820Y187558D02*
X31013Y187558D01*
X37885Y187558D02*
X40482Y187558D01*
X37885Y187558D02*
X37786Y187560D01*
X37686Y187566D01*
X37587Y187575D01*
X37489Y187588D01*
X37391Y187605D01*
X37293Y187626D01*
X37197Y187651D01*
X37102Y187679D01*
X37008Y187711D01*
X36915Y187746D01*
X36823Y187785D01*
X36733Y187828D01*
X36645Y187873D01*
X36558Y187923D01*
X36474Y187975D01*
X36391Y188031D01*
X36311Y188089D01*
X36233Y188151D01*
X36158Y188216D01*
X36085Y188284D01*
X36015Y188354D01*
X35947Y188427D01*
X35882Y188502D01*
X35820Y188580D01*
X35762Y188660D01*
X35706Y188743D01*
X35654Y188827D01*
X35604Y188914D01*
X35559Y189002D01*
X35516Y189092D01*
X35477Y189184D01*
X35442Y189277D01*
X35410Y189371D01*
X35382Y189466D01*
X35357Y189562D01*
X35336Y189660D01*
X35319Y189758D01*
X35306Y189856D01*
X35297Y189955D01*
X35291Y190055D01*
X35289Y190154D01*
X35289Y196646D01*
X35291Y196745D01*
X35297Y196845D01*
X35306Y196944D01*
X35319Y197042D01*
X35336Y197140D01*
X35357Y197238D01*
X35382Y197334D01*
X35410Y197429D01*
X35442Y197523D01*
X35477Y197616D01*
X35516Y197708D01*
X35559Y197798D01*
X35604Y197886D01*
X35654Y197973D01*
X35706Y198057D01*
X35762Y198140D01*
X35820Y198220D01*
X35882Y198298D01*
X35947Y198373D01*
X36015Y198446D01*
X36085Y198516D01*
X36158Y198584D01*
X36233Y198649D01*
X36311Y198711D01*
X36391Y198769D01*
X36474Y198825D01*
X36558Y198877D01*
X36645Y198927D01*
X36733Y198972D01*
X36823Y199015D01*
X36915Y199054D01*
X37007Y199089D01*
X37102Y199121D01*
X37197Y199149D01*
X37293Y199174D01*
X37391Y199195D01*
X37489Y199212D01*
X37587Y199225D01*
X37686Y199234D01*
X37786Y199240D01*
X37885Y199242D01*
X40482Y199242D01*
X47575Y199242D02*
X47575Y190154D01*
X47574Y190154D02*
X47572Y190055D01*
X47566Y189955D01*
X47557Y189856D01*
X47544Y189758D01*
X47527Y189660D01*
X47506Y189562D01*
X47481Y189466D01*
X47453Y189371D01*
X47421Y189277D01*
X47386Y189184D01*
X47347Y189092D01*
X47304Y189002D01*
X47259Y188914D01*
X47209Y188827D01*
X47157Y188743D01*
X47101Y188660D01*
X47043Y188580D01*
X46981Y188502D01*
X46916Y188427D01*
X46848Y188354D01*
X46778Y188284D01*
X46705Y188216D01*
X46630Y188151D01*
X46552Y188089D01*
X46472Y188031D01*
X46389Y187975D01*
X46305Y187923D01*
X46218Y187873D01*
X46130Y187828D01*
X46040Y187785D01*
X45948Y187746D01*
X45855Y187711D01*
X45761Y187679D01*
X45666Y187651D01*
X45570Y187626D01*
X45472Y187605D01*
X45374Y187588D01*
X45276Y187575D01*
X45177Y187566D01*
X45077Y187560D01*
X44978Y187558D01*
X43680Y187558D01*
X53252Y187558D02*
X53252Y199242D01*
X53252Y187558D02*
X58445Y187558D01*
X65317Y187558D02*
X67914Y187558D01*
X65317Y187558D02*
X65218Y187560D01*
X65118Y187566D01*
X65019Y187575D01*
X64921Y187588D01*
X64823Y187605D01*
X64725Y187626D01*
X64629Y187651D01*
X64534Y187679D01*
X64440Y187711D01*
X64347Y187746D01*
X64255Y187785D01*
X64165Y187828D01*
X64077Y187873D01*
X63990Y187923D01*
X63906Y187975D01*
X63823Y188031D01*
X63743Y188089D01*
X63665Y188151D01*
X63590Y188216D01*
X63517Y188284D01*
X63447Y188354D01*
X63379Y188427D01*
X63314Y188502D01*
X63252Y188580D01*
X63194Y188660D01*
X63138Y188743D01*
X63086Y188827D01*
X63036Y188914D01*
X62991Y189002D01*
X62948Y189092D01*
X62909Y189184D01*
X62874Y189277D01*
X62842Y189371D01*
X62814Y189466D01*
X62789Y189562D01*
X62768Y189660D01*
X62751Y189758D01*
X62738Y189856D01*
X62729Y189955D01*
X62723Y190055D01*
X62721Y190154D01*
X62721Y196646D01*
X62723Y196745D01*
X62729Y196845D01*
X62738Y196944D01*
X62751Y197042D01*
X62768Y197140D01*
X62789Y197238D01*
X62814Y197334D01*
X62842Y197429D01*
X62874Y197523D01*
X62909Y197616D01*
X62948Y197708D01*
X62991Y197798D01*
X63036Y197886D01*
X63086Y197973D01*
X63138Y198057D01*
X63194Y198140D01*
X63252Y198220D01*
X63314Y198298D01*
X63379Y198373D01*
X63447Y198446D01*
X63517Y198516D01*
X63590Y198584D01*
X63665Y198649D01*
X63743Y198711D01*
X63823Y198769D01*
X63906Y198825D01*
X63990Y198877D01*
X64077Y198927D01*
X64165Y198972D01*
X64255Y199015D01*
X64347Y199054D01*
X64439Y199089D01*
X64534Y199121D01*
X64629Y199149D01*
X64725Y199174D01*
X64823Y199195D01*
X64921Y199212D01*
X65019Y199225D01*
X65118Y199234D01*
X65218Y199240D01*
X65317Y199242D01*
X67914Y199242D01*
X75007Y199242D02*
X75007Y190154D01*
X75006Y190154D02*
X75004Y190055D01*
X74998Y189955D01*
X74989Y189856D01*
X74976Y189758D01*
X74959Y189660D01*
X74938Y189562D01*
X74913Y189466D01*
X74885Y189371D01*
X74853Y189277D01*
X74818Y189184D01*
X74779Y189092D01*
X74736Y189002D01*
X74691Y188914D01*
X74641Y188827D01*
X74589Y188743D01*
X74533Y188660D01*
X74475Y188580D01*
X74413Y188502D01*
X74348Y188427D01*
X74280Y188354D01*
X74210Y188284D01*
X74137Y188216D01*
X74062Y188151D01*
X73984Y188089D01*
X73904Y188031D01*
X73821Y187975D01*
X73737Y187923D01*
X73650Y187873D01*
X73562Y187828D01*
X73472Y187785D01*
X73380Y187746D01*
X73287Y187711D01*
X73193Y187679D01*
X73098Y187651D01*
X73002Y187626D01*
X72904Y187605D01*
X72806Y187588D01*
X72708Y187575D01*
X72609Y187566D01*
X72509Y187560D01*
X72410Y187558D01*
X71112Y187558D01*
X80684Y187558D02*
X80684Y199242D01*
X80684Y187558D02*
X85877Y187558D01*
X92749Y187558D02*
X95346Y187558D01*
X92749Y187558D02*
X92650Y187560D01*
X92550Y187566D01*
X92451Y187575D01*
X92353Y187588D01*
X92255Y187605D01*
X92157Y187626D01*
X92061Y187651D01*
X91966Y187679D01*
X91872Y187711D01*
X91779Y187746D01*
X91687Y187785D01*
X91597Y187828D01*
X91509Y187873D01*
X91422Y187923D01*
X91338Y187975D01*
X91255Y188031D01*
X91175Y188089D01*
X91097Y188151D01*
X91022Y188216D01*
X90949Y188284D01*
X90879Y188354D01*
X90811Y188427D01*
X90746Y188502D01*
X90684Y188580D01*
X90626Y188660D01*
X90570Y188743D01*
X90518Y188827D01*
X90468Y188914D01*
X90423Y189002D01*
X90380Y189092D01*
X90341Y189184D01*
X90306Y189277D01*
X90274Y189371D01*
X90246Y189466D01*
X90221Y189562D01*
X90200Y189660D01*
X90183Y189758D01*
X90170Y189856D01*
X90161Y189955D01*
X90155Y190055D01*
X90153Y190154D01*
X90153Y196646D01*
X90155Y196745D01*
X90161Y196845D01*
X90170Y196944D01*
X90183Y197042D01*
X90200Y197140D01*
X90221Y197238D01*
X90246Y197334D01*
X90274Y197429D01*
X90306Y197523D01*
X90341Y197616D01*
X90380Y197708D01*
X90423Y197798D01*
X90468Y197886D01*
X90518Y197973D01*
X90570Y198057D01*
X90626Y198140D01*
X90684Y198220D01*
X90746Y198298D01*
X90811Y198373D01*
X90879Y198446D01*
X90949Y198516D01*
X91022Y198584D01*
X91097Y198649D01*
X91175Y198711D01*
X91255Y198769D01*
X91338Y198825D01*
X91422Y198877D01*
X91509Y198927D01*
X91597Y198972D01*
X91687Y199015D01*
X91779Y199054D01*
X91871Y199089D01*
X91966Y199121D01*
X92061Y199149D01*
X92157Y199174D01*
X92255Y199195D01*
X92353Y199212D01*
X92451Y199225D01*
X92550Y199234D01*
X92650Y199240D01*
X92749Y199242D01*
X95346Y199242D01*
X102439Y199242D02*
X102439Y190154D01*
X102438Y190154D02*
X102436Y190055D01*
X102430Y189955D01*
X102421Y189856D01*
X102408Y189758D01*
X102391Y189660D01*
X102370Y189562D01*
X102345Y189466D01*
X102317Y189371D01*
X102285Y189277D01*
X102250Y189184D01*
X102211Y189092D01*
X102168Y189002D01*
X102123Y188914D01*
X102073Y188827D01*
X102021Y188743D01*
X101965Y188660D01*
X101907Y188580D01*
X101845Y188502D01*
X101780Y188427D01*
X101712Y188354D01*
X101642Y188284D01*
X101569Y188216D01*
X101494Y188151D01*
X101416Y188089D01*
X101336Y188031D01*
X101253Y187975D01*
X101169Y187923D01*
X101082Y187873D01*
X100994Y187828D01*
X100904Y187785D01*
X100812Y187746D01*
X100719Y187711D01*
X100625Y187679D01*
X100530Y187651D01*
X100434Y187626D01*
X100336Y187605D01*
X100238Y187588D01*
X100140Y187575D01*
X100041Y187566D01*
X99941Y187560D01*
X99842Y187558D01*
X98544Y187558D01*
X108116Y187558D02*
X108116Y199242D01*
X108116Y187558D02*
X113309Y187558D01*
X120181Y187558D02*
X122778Y187558D01*
X120181Y187558D02*
X120082Y187560D01*
X119982Y187566D01*
X119883Y187575D01*
X119785Y187588D01*
X119687Y187605D01*
X119589Y187626D01*
X119493Y187651D01*
X119398Y187679D01*
X119304Y187711D01*
X119211Y187746D01*
X119119Y187785D01*
X119029Y187828D01*
X118941Y187873D01*
X118854Y187923D01*
X118770Y187975D01*
X118687Y188031D01*
X118607Y188089D01*
X118529Y188151D01*
X118454Y188216D01*
X118381Y188284D01*
X118311Y188354D01*
X118243Y188427D01*
X118178Y188502D01*
X118116Y188580D01*
X118058Y188660D01*
X118002Y188743D01*
X117950Y188827D01*
X117900Y188914D01*
X117855Y189002D01*
X117812Y189092D01*
X117773Y189184D01*
X117738Y189277D01*
X117706Y189371D01*
X117678Y189466D01*
X117653Y189562D01*
X117632Y189660D01*
X117615Y189758D01*
X117602Y189856D01*
X117593Y189955D01*
X117587Y190055D01*
X117585Y190154D01*
X117585Y196646D01*
X117587Y196745D01*
X117593Y196845D01*
X117602Y196944D01*
X117615Y197042D01*
X117632Y197140D01*
X117653Y197238D01*
X117678Y197334D01*
X117706Y197429D01*
X117738Y197523D01*
X117773Y197616D01*
X117812Y197708D01*
X117855Y197798D01*
X117900Y197886D01*
X117950Y197973D01*
X118002Y198057D01*
X118058Y198140D01*
X118116Y198220D01*
X118178Y198298D01*
X118243Y198373D01*
X118311Y198446D01*
X118381Y198516D01*
X118454Y198584D01*
X118529Y198649D01*
X118607Y198711D01*
X118687Y198769D01*
X118770Y198825D01*
X118854Y198877D01*
X118941Y198927D01*
X119029Y198972D01*
X119119Y199015D01*
X119211Y199054D01*
X119303Y199089D01*
X119398Y199121D01*
X119493Y199149D01*
X119589Y199174D01*
X119687Y199195D01*
X119785Y199212D01*
X119883Y199225D01*
X119982Y199234D01*
X120082Y199240D01*
X120181Y199242D01*
X122778Y199242D01*
D12*
X19922Y228321D02*
X19922Y235179D01*
X19922Y228321D02*
X22970Y228321D01*
X26262Y228321D02*
X29310Y228321D01*
X26262Y228321D02*
X26262Y235179D01*
X29310Y235179D01*
X28548Y232131D02*
X26262Y232131D01*
X32580Y235179D02*
X32580Y228321D01*
X32580Y235179D02*
X34485Y235179D01*
X34570Y235177D01*
X34656Y235171D01*
X34741Y235162D01*
X34825Y235148D01*
X34909Y235131D01*
X34992Y235110D01*
X35074Y235086D01*
X35154Y235058D01*
X35234Y235026D01*
X35312Y234990D01*
X35388Y234952D01*
X35462Y234909D01*
X35534Y234864D01*
X35605Y234815D01*
X35673Y234763D01*
X35738Y234709D01*
X35801Y234651D01*
X35862Y234590D01*
X35920Y234527D01*
X35974Y234462D01*
X36026Y234394D01*
X36075Y234323D01*
X36120Y234251D01*
X36163Y234177D01*
X36201Y234101D01*
X36237Y234023D01*
X36269Y233943D01*
X36297Y233863D01*
X36321Y233781D01*
X36342Y233698D01*
X36359Y233614D01*
X36373Y233530D01*
X36382Y233445D01*
X36388Y233359D01*
X36390Y233274D01*
X36390Y230226D01*
X36388Y230141D01*
X36382Y230055D01*
X36373Y229970D01*
X36359Y229886D01*
X36342Y229802D01*
X36321Y229719D01*
X36297Y229637D01*
X36269Y229557D01*
X36237Y229477D01*
X36201Y229399D01*
X36163Y229323D01*
X36120Y229249D01*
X36075Y229177D01*
X36026Y229106D01*
X35974Y229038D01*
X35920Y228973D01*
X35862Y228910D01*
X35801Y228849D01*
X35738Y228791D01*
X35673Y228737D01*
X35605Y228685D01*
X35534Y228636D01*
X35462Y228591D01*
X35388Y228548D01*
X35312Y228510D01*
X35234Y228474D01*
X35154Y228442D01*
X35074Y228414D01*
X34992Y228390D01*
X34909Y228369D01*
X34825Y228352D01*
X34741Y228338D01*
X34656Y228329D01*
X34570Y228323D01*
X34485Y228321D01*
X32580Y228321D01*
D16*
X198300Y37000D02*
X198300Y7000D01*
X248300Y7000D01*
X248300Y37000D01*
X198300Y77000D02*
X198300Y97000D01*
X208300Y107000D01*
X238300Y107000D01*
X248300Y97000D01*
X248300Y77000D01*
D17*
X221055Y111884D02*
X219587Y111884D01*
X219513Y111886D01*
X219438Y111892D01*
X219365Y111901D01*
X219291Y111914D01*
X219219Y111931D01*
X219148Y111951D01*
X219077Y111975D01*
X219008Y112003D01*
X218941Y112034D01*
X218875Y112068D01*
X218810Y112106D01*
X218748Y112147D01*
X218688Y112191D01*
X218631Y112238D01*
X218576Y112288D01*
X218523Y112341D01*
X218473Y112396D01*
X218426Y112453D01*
X218382Y112513D01*
X218341Y112575D01*
X218303Y112640D01*
X218269Y112706D01*
X218238Y112773D01*
X218210Y112842D01*
X218186Y112913D01*
X218166Y112984D01*
X218149Y113056D01*
X218136Y113130D01*
X218127Y113203D01*
X218121Y113278D01*
X218119Y113352D01*
X218120Y113352D02*
X218120Y117020D01*
X218119Y117020D02*
X218121Y117094D01*
X218127Y117169D01*
X218136Y117242D01*
X218149Y117316D01*
X218166Y117388D01*
X218186Y117459D01*
X218210Y117530D01*
X218238Y117599D01*
X218269Y117666D01*
X218303Y117732D01*
X218341Y117797D01*
X218382Y117859D01*
X218426Y117919D01*
X218473Y117976D01*
X218523Y118031D01*
X218576Y118084D01*
X218631Y118134D01*
X218688Y118181D01*
X218748Y118225D01*
X218810Y118266D01*
X218875Y118304D01*
X218940Y118338D01*
X219008Y118369D01*
X219077Y118397D01*
X219148Y118421D01*
X219219Y118441D01*
X219291Y118458D01*
X219365Y118471D01*
X219438Y118480D01*
X219513Y118486D01*
X219587Y118488D01*
X221055Y118488D01*
X224251Y117020D02*
X226086Y118488D01*
X226086Y111884D01*
X227920Y111884D02*
X224251Y111884D01*
D18*
X292250Y115750D02*
X292250Y119750D01*
D15*
X274992Y112115D02*
X267880Y112115D01*
X267880Y114090D01*
X267882Y114176D01*
X267888Y114262D01*
X267897Y114348D01*
X267910Y114433D01*
X267927Y114518D01*
X267947Y114601D01*
X267971Y114684D01*
X267999Y114766D01*
X268030Y114846D01*
X268065Y114925D01*
X268103Y115002D01*
X268145Y115078D01*
X268189Y115152D01*
X268237Y115223D01*
X268288Y115293D01*
X268342Y115360D01*
X268399Y115425D01*
X268459Y115487D01*
X268521Y115547D01*
X268586Y115604D01*
X268653Y115658D01*
X268723Y115709D01*
X268794Y115757D01*
X268868Y115801D01*
X268944Y115843D01*
X269021Y115881D01*
X269100Y115916D01*
X269180Y115947D01*
X269262Y115975D01*
X269345Y115999D01*
X269428Y116019D01*
X269513Y116036D01*
X269598Y116049D01*
X269684Y116058D01*
X269770Y116064D01*
X269856Y116066D01*
X273016Y116066D01*
X273016Y116067D02*
X273102Y116065D01*
X273188Y116059D01*
X273274Y116050D01*
X273359Y116037D01*
X273444Y116020D01*
X273527Y116000D01*
X273610Y115976D01*
X273692Y115948D01*
X273772Y115917D01*
X273851Y115882D01*
X273928Y115844D01*
X274004Y115802D01*
X274078Y115758D01*
X274149Y115710D01*
X274219Y115659D01*
X274286Y115605D01*
X274351Y115548D01*
X274413Y115488D01*
X274473Y115426D01*
X274530Y115361D01*
X274584Y115294D01*
X274635Y115224D01*
X274683Y115153D01*
X274727Y115079D01*
X274769Y115003D01*
X274807Y114926D01*
X274842Y114847D01*
X274873Y114767D01*
X274901Y114685D01*
X274925Y114602D01*
X274945Y114519D01*
X274962Y114434D01*
X274975Y114349D01*
X274984Y114263D01*
X274990Y114177D01*
X274992Y114091D01*
X274992Y114090D02*
X274992Y112115D01*
X274992Y119674D02*
X274992Y122045D01*
X274990Y122123D01*
X274984Y122200D01*
X274975Y122277D01*
X274962Y122353D01*
X274945Y122429D01*
X274924Y122504D01*
X274900Y122577D01*
X274872Y122650D01*
X274840Y122721D01*
X274805Y122790D01*
X274767Y122857D01*
X274726Y122923D01*
X274681Y122986D01*
X274633Y123047D01*
X274583Y123106D01*
X274529Y123162D01*
X274473Y123216D01*
X274414Y123266D01*
X274353Y123314D01*
X274290Y123359D01*
X274224Y123400D01*
X274157Y123438D01*
X274088Y123473D01*
X274017Y123505D01*
X273944Y123533D01*
X273871Y123557D01*
X273796Y123578D01*
X273720Y123595D01*
X273644Y123608D01*
X273567Y123617D01*
X273490Y123623D01*
X273412Y123625D01*
X272621Y123625D01*
X272543Y123623D01*
X272466Y123617D01*
X272389Y123608D01*
X272313Y123595D01*
X272237Y123578D01*
X272162Y123557D01*
X272089Y123533D01*
X272016Y123505D01*
X271945Y123473D01*
X271876Y123438D01*
X271809Y123400D01*
X271743Y123359D01*
X271680Y123314D01*
X271619Y123266D01*
X271560Y123216D01*
X271504Y123162D01*
X271450Y123106D01*
X271400Y123047D01*
X271352Y122986D01*
X271307Y122923D01*
X271266Y122857D01*
X271228Y122790D01*
X271193Y122721D01*
X271161Y122650D01*
X271133Y122577D01*
X271109Y122504D01*
X271088Y122429D01*
X271071Y122353D01*
X271058Y122277D01*
X271049Y122200D01*
X271043Y122123D01*
X271041Y122045D01*
X271041Y119674D01*
X267880Y119674D01*
X267880Y123625D01*
D19*
X267003Y131681D02*
X274369Y131681D01*
X267003Y131681D02*
X267003Y133727D01*
X267005Y133816D01*
X267011Y133905D01*
X267021Y133994D01*
X267034Y134082D01*
X267051Y134170D01*
X267073Y134257D01*
X267098Y134342D01*
X267126Y134427D01*
X267159Y134510D01*
X267195Y134592D01*
X267234Y134672D01*
X267277Y134750D01*
X267323Y134826D01*
X267373Y134901D01*
X267426Y134973D01*
X267482Y135042D01*
X267541Y135109D01*
X267602Y135174D01*
X267667Y135235D01*
X267734Y135294D01*
X267803Y135350D01*
X267875Y135403D01*
X267950Y135453D01*
X268026Y135499D01*
X268104Y135542D01*
X268184Y135581D01*
X268266Y135617D01*
X268349Y135650D01*
X268434Y135678D01*
X268519Y135703D01*
X268606Y135725D01*
X268694Y135742D01*
X268782Y135755D01*
X268871Y135765D01*
X268960Y135771D01*
X269049Y135773D01*
X269138Y135771D01*
X269227Y135765D01*
X269316Y135755D01*
X269404Y135742D01*
X269492Y135725D01*
X269579Y135703D01*
X269664Y135678D01*
X269749Y135650D01*
X269832Y135617D01*
X269914Y135581D01*
X269994Y135542D01*
X270072Y135499D01*
X270148Y135453D01*
X270223Y135403D01*
X270295Y135350D01*
X270364Y135294D01*
X270431Y135235D01*
X270496Y135174D01*
X270557Y135109D01*
X270616Y135042D01*
X270672Y134973D01*
X270725Y134901D01*
X270775Y134826D01*
X270821Y134750D01*
X270864Y134672D01*
X270903Y134592D01*
X270939Y134510D01*
X270972Y134427D01*
X271000Y134342D01*
X271025Y134257D01*
X271047Y134170D01*
X271064Y134082D01*
X271077Y133994D01*
X271087Y133905D01*
X271093Y133816D01*
X271095Y133727D01*
X271095Y131681D01*
X271095Y134136D02*
X274369Y135773D01*
X268640Y138945D02*
X267003Y140991D01*
X274369Y140991D01*
X274369Y138945D02*
X274369Y143037D01*
X274471Y107337D02*
X274471Y99971D01*
X274471Y107337D02*
X276517Y107337D01*
X276606Y107335D01*
X276695Y107329D01*
X276784Y107319D01*
X276872Y107306D01*
X276960Y107289D01*
X277047Y107267D01*
X277132Y107242D01*
X277217Y107214D01*
X277300Y107181D01*
X277382Y107145D01*
X277462Y107106D01*
X277540Y107063D01*
X277616Y107017D01*
X277691Y106967D01*
X277763Y106914D01*
X277832Y106858D01*
X277899Y106799D01*
X277964Y106738D01*
X278025Y106673D01*
X278084Y106606D01*
X278140Y106537D01*
X278193Y106465D01*
X278243Y106390D01*
X278289Y106314D01*
X278332Y106236D01*
X278371Y106156D01*
X278407Y106074D01*
X278440Y105991D01*
X278468Y105906D01*
X278493Y105821D01*
X278515Y105734D01*
X278532Y105646D01*
X278545Y105558D01*
X278555Y105469D01*
X278561Y105380D01*
X278563Y105291D01*
X278561Y105202D01*
X278555Y105113D01*
X278545Y105024D01*
X278532Y104936D01*
X278515Y104848D01*
X278493Y104761D01*
X278468Y104676D01*
X278440Y104591D01*
X278407Y104508D01*
X278371Y104426D01*
X278332Y104346D01*
X278289Y104268D01*
X278243Y104192D01*
X278193Y104117D01*
X278140Y104045D01*
X278084Y103976D01*
X278025Y103909D01*
X277964Y103844D01*
X277899Y103783D01*
X277832Y103724D01*
X277763Y103668D01*
X277691Y103615D01*
X277616Y103565D01*
X277540Y103519D01*
X277462Y103476D01*
X277382Y103437D01*
X277300Y103401D01*
X277217Y103368D01*
X277132Y103340D01*
X277047Y103315D01*
X276960Y103293D01*
X276872Y103276D01*
X276784Y103263D01*
X276695Y103253D01*
X276606Y103247D01*
X276517Y103245D01*
X274471Y103245D01*
X276926Y103245D02*
X278563Y99971D01*
X285828Y105496D02*
X285826Y105581D01*
X285820Y105666D01*
X285810Y105750D01*
X285797Y105834D01*
X285779Y105918D01*
X285758Y106000D01*
X285733Y106081D01*
X285704Y106161D01*
X285671Y106240D01*
X285635Y106317D01*
X285595Y106392D01*
X285552Y106466D01*
X285506Y106537D01*
X285456Y106606D01*
X285403Y106673D01*
X285347Y106737D01*
X285288Y106798D01*
X285227Y106857D01*
X285163Y106913D01*
X285096Y106966D01*
X285027Y107016D01*
X284956Y107062D01*
X284882Y107105D01*
X284807Y107145D01*
X284730Y107181D01*
X284651Y107214D01*
X284571Y107243D01*
X284490Y107268D01*
X284408Y107289D01*
X284324Y107307D01*
X284240Y107320D01*
X284156Y107330D01*
X284071Y107336D01*
X283986Y107338D01*
X283986Y107337D02*
X283890Y107335D01*
X283794Y107329D01*
X283699Y107319D01*
X283604Y107306D01*
X283509Y107288D01*
X283416Y107267D01*
X283323Y107242D01*
X283232Y107213D01*
X283141Y107181D01*
X283052Y107145D01*
X282965Y107105D01*
X282879Y107062D01*
X282795Y107016D01*
X282713Y106966D01*
X282633Y106912D01*
X282556Y106856D01*
X282481Y106796D01*
X282408Y106734D01*
X282338Y106668D01*
X282270Y106600D01*
X282205Y106529D01*
X282144Y106456D01*
X282085Y106380D01*
X282029Y106301D01*
X281977Y106221D01*
X281928Y106138D01*
X281882Y106054D01*
X281840Y105968D01*
X281802Y105880D01*
X281767Y105791D01*
X281735Y105700D01*
X285213Y104064D02*
X285273Y104123D01*
X285330Y104185D01*
X285385Y104249D01*
X285436Y104316D01*
X285485Y104385D01*
X285531Y104455D01*
X285574Y104528D01*
X285614Y104602D01*
X285650Y104678D01*
X285683Y104756D01*
X285713Y104835D01*
X285740Y104915D01*
X285763Y104996D01*
X285782Y105078D01*
X285798Y105160D01*
X285811Y105244D01*
X285820Y105328D01*
X285825Y105412D01*
X285827Y105496D01*
X285213Y104063D02*
X281735Y99971D01*
X285827Y99971D01*
X258315Y100021D02*
X256678Y100021D01*
X256600Y100023D01*
X256522Y100028D01*
X256445Y100038D01*
X256368Y100051D01*
X256292Y100067D01*
X256217Y100087D01*
X256143Y100111D01*
X256070Y100138D01*
X255998Y100169D01*
X255928Y100203D01*
X255860Y100240D01*
X255793Y100281D01*
X255728Y100325D01*
X255666Y100371D01*
X255606Y100421D01*
X255548Y100473D01*
X255493Y100528D01*
X255441Y100586D01*
X255391Y100646D01*
X255345Y100708D01*
X255301Y100773D01*
X255260Y100840D01*
X255223Y100908D01*
X255189Y100978D01*
X255158Y101050D01*
X255131Y101123D01*
X255107Y101197D01*
X255087Y101272D01*
X255071Y101348D01*
X255058Y101425D01*
X255048Y101502D01*
X255043Y101580D01*
X255041Y101658D01*
X255041Y105750D01*
X255043Y105830D01*
X255049Y105910D01*
X255059Y105990D01*
X255072Y106069D01*
X255090Y106148D01*
X255111Y106225D01*
X255137Y106301D01*
X255166Y106376D01*
X255198Y106450D01*
X255234Y106522D01*
X255274Y106592D01*
X255317Y106659D01*
X255363Y106725D01*
X255413Y106788D01*
X255465Y106849D01*
X255520Y106908D01*
X255579Y106963D01*
X255639Y107015D01*
X255703Y107065D01*
X255769Y107111D01*
X255836Y107154D01*
X255906Y107194D01*
X255978Y107230D01*
X256052Y107262D01*
X256126Y107291D01*
X256203Y107317D01*
X256280Y107338D01*
X256359Y107356D01*
X256438Y107369D01*
X256518Y107379D01*
X256598Y107385D01*
X256678Y107387D01*
X258315Y107387D01*
X263411Y107388D02*
X263496Y107386D01*
X263581Y107380D01*
X263665Y107370D01*
X263749Y107357D01*
X263833Y107339D01*
X263915Y107318D01*
X263996Y107293D01*
X264076Y107264D01*
X264155Y107231D01*
X264232Y107195D01*
X264307Y107155D01*
X264381Y107112D01*
X264452Y107066D01*
X264521Y107016D01*
X264588Y106963D01*
X264652Y106907D01*
X264713Y106848D01*
X264772Y106787D01*
X264828Y106723D01*
X264881Y106656D01*
X264931Y106587D01*
X264977Y106516D01*
X265020Y106442D01*
X265060Y106367D01*
X265096Y106290D01*
X265129Y106211D01*
X265158Y106131D01*
X265183Y106050D01*
X265204Y105968D01*
X265222Y105884D01*
X265235Y105800D01*
X265245Y105716D01*
X265251Y105631D01*
X265253Y105546D01*
X263411Y107387D02*
X263315Y107385D01*
X263219Y107379D01*
X263124Y107369D01*
X263029Y107356D01*
X262934Y107338D01*
X262841Y107317D01*
X262748Y107292D01*
X262657Y107263D01*
X262566Y107231D01*
X262477Y107195D01*
X262390Y107155D01*
X262304Y107112D01*
X262220Y107066D01*
X262138Y107016D01*
X262058Y106962D01*
X261981Y106906D01*
X261906Y106846D01*
X261833Y106784D01*
X261763Y106718D01*
X261695Y106650D01*
X261630Y106579D01*
X261569Y106506D01*
X261510Y106430D01*
X261454Y106351D01*
X261402Y106271D01*
X261353Y106188D01*
X261307Y106104D01*
X261265Y106018D01*
X261227Y105930D01*
X261192Y105841D01*
X261160Y105750D01*
X264638Y104114D02*
X264698Y104173D01*
X264755Y104235D01*
X264810Y104299D01*
X264861Y104366D01*
X264910Y104435D01*
X264956Y104505D01*
X264999Y104578D01*
X265039Y104652D01*
X265075Y104728D01*
X265108Y104806D01*
X265138Y104885D01*
X265165Y104965D01*
X265188Y105046D01*
X265207Y105128D01*
X265223Y105210D01*
X265236Y105294D01*
X265245Y105378D01*
X265250Y105462D01*
X265252Y105546D01*
X264638Y104113D02*
X261160Y100021D01*
X265252Y100021D01*
D20*
X143750Y28500D02*
X129250Y19000D01*
X143750Y28500D02*
X143750Y9500D01*
X129250Y19000D01*
D21*
X128750Y19000D03*
D19*
X179041Y48791D02*
X179041Y56157D01*
X181087Y56157D01*
X181176Y56155D01*
X181265Y56149D01*
X181354Y56139D01*
X181442Y56126D01*
X181530Y56109D01*
X181617Y56087D01*
X181702Y56062D01*
X181787Y56034D01*
X181870Y56001D01*
X181952Y55965D01*
X182032Y55926D01*
X182110Y55883D01*
X182186Y55837D01*
X182261Y55787D01*
X182333Y55734D01*
X182402Y55678D01*
X182469Y55619D01*
X182534Y55558D01*
X182595Y55493D01*
X182654Y55426D01*
X182710Y55357D01*
X182763Y55285D01*
X182813Y55210D01*
X182859Y55134D01*
X182902Y55056D01*
X182941Y54976D01*
X182977Y54894D01*
X183010Y54811D01*
X183038Y54726D01*
X183063Y54641D01*
X183085Y54554D01*
X183102Y54466D01*
X183115Y54378D01*
X183125Y54289D01*
X183131Y54200D01*
X183133Y54111D01*
X183131Y54022D01*
X183125Y53933D01*
X183115Y53844D01*
X183102Y53756D01*
X183085Y53668D01*
X183063Y53581D01*
X183038Y53496D01*
X183010Y53411D01*
X182977Y53328D01*
X182941Y53246D01*
X182902Y53166D01*
X182859Y53088D01*
X182813Y53012D01*
X182763Y52937D01*
X182710Y52865D01*
X182654Y52796D01*
X182595Y52729D01*
X182534Y52664D01*
X182469Y52603D01*
X182402Y52544D01*
X182333Y52488D01*
X182261Y52435D01*
X182186Y52385D01*
X182110Y52339D01*
X182032Y52296D01*
X181952Y52257D01*
X181870Y52221D01*
X181787Y52188D01*
X181702Y52160D01*
X181617Y52135D01*
X181530Y52113D01*
X181442Y52096D01*
X181354Y52083D01*
X181265Y52073D01*
X181176Y52067D01*
X181087Y52065D01*
X179041Y52065D01*
X181496Y52065D02*
X183133Y48791D01*
X186305Y48791D02*
X188351Y48791D01*
X188440Y48793D01*
X188529Y48799D01*
X188618Y48809D01*
X188706Y48822D01*
X188794Y48839D01*
X188881Y48861D01*
X188966Y48886D01*
X189051Y48914D01*
X189134Y48947D01*
X189216Y48983D01*
X189296Y49022D01*
X189374Y49065D01*
X189450Y49111D01*
X189525Y49161D01*
X189597Y49214D01*
X189666Y49270D01*
X189733Y49329D01*
X189798Y49390D01*
X189859Y49455D01*
X189918Y49522D01*
X189974Y49591D01*
X190027Y49663D01*
X190077Y49738D01*
X190123Y49814D01*
X190166Y49892D01*
X190205Y49972D01*
X190241Y50054D01*
X190274Y50137D01*
X190302Y50222D01*
X190327Y50307D01*
X190349Y50394D01*
X190366Y50482D01*
X190379Y50570D01*
X190389Y50659D01*
X190395Y50748D01*
X190397Y50837D01*
X190395Y50926D01*
X190389Y51015D01*
X190379Y51104D01*
X190366Y51192D01*
X190349Y51280D01*
X190327Y51367D01*
X190302Y51452D01*
X190274Y51537D01*
X190241Y51620D01*
X190205Y51702D01*
X190166Y51782D01*
X190123Y51860D01*
X190077Y51936D01*
X190027Y52011D01*
X189974Y52083D01*
X189918Y52152D01*
X189859Y52219D01*
X189798Y52284D01*
X189733Y52345D01*
X189666Y52404D01*
X189597Y52460D01*
X189525Y52513D01*
X189450Y52563D01*
X189374Y52609D01*
X189296Y52652D01*
X189216Y52691D01*
X189134Y52727D01*
X189051Y52760D01*
X188966Y52788D01*
X188881Y52813D01*
X188794Y52835D01*
X188706Y52852D01*
X188618Y52865D01*
X188529Y52875D01*
X188440Y52881D01*
X188351Y52883D01*
X188760Y56157D02*
X186305Y56157D01*
X188760Y56157D02*
X188839Y56155D01*
X188918Y56149D01*
X188997Y56140D01*
X189075Y56127D01*
X189152Y56109D01*
X189228Y56089D01*
X189303Y56064D01*
X189377Y56036D01*
X189450Y56005D01*
X189521Y55969D01*
X189590Y55931D01*
X189657Y55889D01*
X189722Y55844D01*
X189785Y55796D01*
X189846Y55745D01*
X189903Y55691D01*
X189959Y55635D01*
X190011Y55576D01*
X190061Y55514D01*
X190107Y55450D01*
X190151Y55384D01*
X190191Y55316D01*
X190227Y55246D01*
X190261Y55174D01*
X190291Y55100D01*
X190317Y55026D01*
X190340Y54950D01*
X190358Y54873D01*
X190374Y54796D01*
X190385Y54717D01*
X190393Y54639D01*
X190397Y54560D01*
X190397Y54480D01*
X190393Y54401D01*
X190385Y54323D01*
X190374Y54244D01*
X190358Y54167D01*
X190340Y54090D01*
X190317Y54014D01*
X190291Y53940D01*
X190261Y53866D01*
X190227Y53794D01*
X190191Y53724D01*
X190151Y53656D01*
X190107Y53590D01*
X190061Y53526D01*
X190011Y53464D01*
X189959Y53405D01*
X189903Y53349D01*
X189846Y53295D01*
X189785Y53244D01*
X189722Y53196D01*
X189657Y53151D01*
X189590Y53109D01*
X189521Y53071D01*
X189450Y53035D01*
X189377Y53004D01*
X189303Y52976D01*
X189228Y52951D01*
X189152Y52931D01*
X189075Y52913D01*
X188997Y52900D01*
X188918Y52891D01*
X188839Y52885D01*
X188760Y52883D01*
X187123Y52883D01*
X94407Y242103D02*
X87041Y242103D01*
X87041Y244149D01*
X87043Y244238D01*
X87049Y244327D01*
X87059Y244416D01*
X87072Y244504D01*
X87089Y244592D01*
X87111Y244679D01*
X87136Y244764D01*
X87164Y244849D01*
X87197Y244932D01*
X87233Y245014D01*
X87272Y245094D01*
X87315Y245172D01*
X87361Y245248D01*
X87411Y245323D01*
X87464Y245395D01*
X87520Y245464D01*
X87579Y245531D01*
X87640Y245596D01*
X87705Y245657D01*
X87772Y245716D01*
X87841Y245772D01*
X87913Y245825D01*
X87988Y245875D01*
X88064Y245921D01*
X88142Y245964D01*
X88222Y246003D01*
X88304Y246039D01*
X88387Y246072D01*
X88472Y246100D01*
X88557Y246125D01*
X88644Y246147D01*
X88732Y246164D01*
X88820Y246177D01*
X88909Y246187D01*
X88998Y246193D01*
X89087Y246195D01*
X89176Y246193D01*
X89265Y246187D01*
X89354Y246177D01*
X89442Y246164D01*
X89530Y246147D01*
X89617Y246125D01*
X89702Y246100D01*
X89787Y246072D01*
X89870Y246039D01*
X89952Y246003D01*
X90032Y245964D01*
X90110Y245921D01*
X90186Y245875D01*
X90261Y245825D01*
X90333Y245772D01*
X90402Y245716D01*
X90469Y245657D01*
X90534Y245596D01*
X90595Y245531D01*
X90654Y245464D01*
X90710Y245395D01*
X90763Y245323D01*
X90813Y245248D01*
X90859Y245172D01*
X90902Y245094D01*
X90941Y245014D01*
X90977Y244932D01*
X91010Y244849D01*
X91038Y244764D01*
X91063Y244679D01*
X91085Y244592D01*
X91102Y244504D01*
X91115Y244416D01*
X91125Y244327D01*
X91131Y244238D01*
X91133Y244149D01*
X91133Y242103D01*
X91133Y244558D02*
X94407Y246195D01*
X92770Y249367D02*
X87041Y251004D01*
X92770Y249367D02*
X92770Y253459D01*
X91133Y252231D02*
X94407Y252231D01*
X8724Y252304D02*
X8724Y258569D01*
X11857Y255436D02*
X5592Y255436D01*
D22*
X29500Y252250D03*
X29500Y240250D03*
D23*
X29500Y246250D03*
D19*
X62405Y27413D02*
X64041Y27413D01*
X62405Y27413D02*
X62327Y27415D01*
X62249Y27420D01*
X62172Y27430D01*
X62095Y27443D01*
X62019Y27459D01*
X61944Y27479D01*
X61870Y27503D01*
X61797Y27530D01*
X61725Y27561D01*
X61655Y27595D01*
X61587Y27632D01*
X61520Y27673D01*
X61455Y27717D01*
X61393Y27763D01*
X61333Y27813D01*
X61275Y27865D01*
X61220Y27920D01*
X61168Y27978D01*
X61118Y28038D01*
X61072Y28100D01*
X61028Y28165D01*
X60987Y28232D01*
X60950Y28300D01*
X60916Y28370D01*
X60885Y28442D01*
X60858Y28515D01*
X60834Y28589D01*
X60814Y28664D01*
X60798Y28740D01*
X60785Y28817D01*
X60775Y28894D01*
X60770Y28972D01*
X60768Y29050D01*
X60768Y33142D01*
X60770Y33222D01*
X60776Y33302D01*
X60786Y33382D01*
X60799Y33461D01*
X60817Y33540D01*
X60838Y33617D01*
X60864Y33693D01*
X60893Y33768D01*
X60925Y33842D01*
X60961Y33914D01*
X61001Y33984D01*
X61044Y34051D01*
X61090Y34117D01*
X61140Y34180D01*
X61192Y34241D01*
X61247Y34300D01*
X61306Y34355D01*
X61366Y34407D01*
X61430Y34457D01*
X61496Y34503D01*
X61563Y34546D01*
X61633Y34586D01*
X61705Y34622D01*
X61779Y34654D01*
X61853Y34683D01*
X61930Y34709D01*
X62007Y34730D01*
X62086Y34748D01*
X62165Y34761D01*
X62245Y34771D01*
X62325Y34777D01*
X62405Y34779D01*
X64041Y34779D01*
X66887Y27413D02*
X68933Y27413D01*
X69022Y27415D01*
X69111Y27421D01*
X69200Y27431D01*
X69288Y27444D01*
X69376Y27461D01*
X69463Y27483D01*
X69548Y27508D01*
X69633Y27536D01*
X69716Y27569D01*
X69798Y27605D01*
X69878Y27644D01*
X69956Y27687D01*
X70032Y27733D01*
X70107Y27783D01*
X70179Y27836D01*
X70248Y27892D01*
X70315Y27951D01*
X70380Y28012D01*
X70441Y28077D01*
X70500Y28144D01*
X70556Y28213D01*
X70609Y28285D01*
X70659Y28360D01*
X70705Y28436D01*
X70748Y28514D01*
X70787Y28594D01*
X70823Y28676D01*
X70856Y28759D01*
X70884Y28844D01*
X70909Y28929D01*
X70931Y29016D01*
X70948Y29104D01*
X70961Y29192D01*
X70971Y29281D01*
X70977Y29370D01*
X70979Y29459D01*
X70977Y29548D01*
X70971Y29637D01*
X70961Y29726D01*
X70948Y29814D01*
X70931Y29902D01*
X70909Y29989D01*
X70884Y30074D01*
X70856Y30159D01*
X70823Y30242D01*
X70787Y30324D01*
X70748Y30404D01*
X70705Y30482D01*
X70659Y30558D01*
X70609Y30633D01*
X70556Y30705D01*
X70500Y30774D01*
X70441Y30841D01*
X70380Y30906D01*
X70315Y30967D01*
X70248Y31026D01*
X70179Y31082D01*
X70107Y31135D01*
X70032Y31185D01*
X69956Y31231D01*
X69878Y31274D01*
X69798Y31313D01*
X69716Y31349D01*
X69633Y31382D01*
X69548Y31410D01*
X69463Y31435D01*
X69376Y31457D01*
X69288Y31474D01*
X69200Y31487D01*
X69111Y31497D01*
X69022Y31503D01*
X68933Y31505D01*
X69342Y34779D02*
X66887Y34779D01*
X69342Y34779D02*
X69421Y34777D01*
X69500Y34771D01*
X69579Y34762D01*
X69657Y34749D01*
X69734Y34731D01*
X69810Y34711D01*
X69885Y34686D01*
X69959Y34658D01*
X70032Y34627D01*
X70103Y34591D01*
X70172Y34553D01*
X70239Y34511D01*
X70304Y34466D01*
X70367Y34418D01*
X70428Y34367D01*
X70485Y34313D01*
X70541Y34257D01*
X70593Y34198D01*
X70643Y34136D01*
X70689Y34072D01*
X70733Y34006D01*
X70773Y33938D01*
X70809Y33868D01*
X70843Y33796D01*
X70873Y33722D01*
X70899Y33648D01*
X70922Y33572D01*
X70940Y33495D01*
X70956Y33418D01*
X70967Y33339D01*
X70975Y33261D01*
X70979Y33182D01*
X70979Y33102D01*
X70975Y33023D01*
X70967Y32945D01*
X70956Y32866D01*
X70940Y32789D01*
X70922Y32712D01*
X70899Y32636D01*
X70873Y32562D01*
X70843Y32488D01*
X70809Y32416D01*
X70773Y32346D01*
X70733Y32278D01*
X70689Y32212D01*
X70643Y32148D01*
X70593Y32086D01*
X70541Y32027D01*
X70485Y31971D01*
X70428Y31917D01*
X70367Y31866D01*
X70304Y31818D01*
X70239Y31773D01*
X70172Y31731D01*
X70103Y31693D01*
X70032Y31657D01*
X69959Y31626D01*
X69885Y31598D01*
X69810Y31573D01*
X69734Y31553D01*
X69657Y31535D01*
X69579Y31522D01*
X69500Y31513D01*
X69421Y31507D01*
X69342Y31505D01*
X67705Y31505D01*
X194205Y126143D02*
X195841Y126143D01*
X194205Y126143D02*
X194127Y126145D01*
X194049Y126150D01*
X193972Y126160D01*
X193895Y126173D01*
X193819Y126189D01*
X193744Y126209D01*
X193670Y126233D01*
X193597Y126260D01*
X193525Y126291D01*
X193455Y126325D01*
X193387Y126362D01*
X193320Y126403D01*
X193255Y126447D01*
X193193Y126493D01*
X193133Y126543D01*
X193075Y126595D01*
X193020Y126650D01*
X192968Y126708D01*
X192918Y126768D01*
X192872Y126830D01*
X192828Y126895D01*
X192787Y126962D01*
X192750Y127030D01*
X192716Y127100D01*
X192685Y127172D01*
X192658Y127245D01*
X192634Y127319D01*
X192614Y127394D01*
X192598Y127470D01*
X192585Y127547D01*
X192575Y127624D01*
X192570Y127702D01*
X192568Y127780D01*
X192568Y131872D01*
X192570Y131952D01*
X192576Y132032D01*
X192586Y132112D01*
X192599Y132191D01*
X192617Y132270D01*
X192638Y132347D01*
X192664Y132423D01*
X192693Y132498D01*
X192725Y132572D01*
X192761Y132644D01*
X192801Y132714D01*
X192844Y132781D01*
X192890Y132847D01*
X192940Y132910D01*
X192992Y132971D01*
X193047Y133030D01*
X193106Y133085D01*
X193166Y133137D01*
X193230Y133187D01*
X193296Y133233D01*
X193363Y133276D01*
X193433Y133316D01*
X193505Y133352D01*
X193579Y133384D01*
X193653Y133413D01*
X193730Y133439D01*
X193807Y133460D01*
X193886Y133478D01*
X193965Y133491D01*
X194045Y133501D01*
X194125Y133507D01*
X194205Y133509D01*
X195841Y133509D01*
X200324Y133509D02*
X198687Y127780D01*
X202779Y127780D01*
X201551Y129417D02*
X201551Y126143D01*
D20*
X267500Y256500D02*
X306500Y256500D01*
X306500Y227500D02*
X267500Y227500D01*
X258157Y242140D02*
X258159Y242195D01*
X258165Y242250D01*
X258175Y242304D01*
X258189Y242357D01*
X258206Y242410D01*
X258228Y242460D01*
X258252Y242510D01*
X258281Y242557D01*
X258313Y242602D01*
X258347Y242644D01*
X258385Y242684D01*
X258426Y242722D01*
X258469Y242756D01*
X258515Y242787D01*
X258563Y242814D01*
X258612Y242838D01*
X258663Y242859D01*
X258716Y242875D01*
X258769Y242888D01*
X258824Y242897D01*
X258879Y242902D01*
X258934Y242903D01*
X258989Y242900D01*
X259043Y242893D01*
X259097Y242882D01*
X259151Y242867D01*
X259202Y242849D01*
X259253Y242827D01*
X259301Y242801D01*
X259348Y242772D01*
X259393Y242739D01*
X259435Y242703D01*
X259474Y242665D01*
X259510Y242623D01*
X259544Y242580D01*
X259574Y242533D01*
X259600Y242485D01*
X259624Y242435D01*
X259643Y242384D01*
X259659Y242331D01*
X259671Y242277D01*
X259679Y242222D01*
X259683Y242168D01*
X259683Y242112D01*
X259679Y242058D01*
X259671Y242003D01*
X259659Y241949D01*
X259643Y241896D01*
X259624Y241845D01*
X259600Y241795D01*
X259574Y241747D01*
X259544Y241700D01*
X259510Y241657D01*
X259474Y241615D01*
X259435Y241577D01*
X259393Y241541D01*
X259348Y241508D01*
X259302Y241479D01*
X259253Y241453D01*
X259202Y241431D01*
X259151Y241413D01*
X259097Y241398D01*
X259043Y241387D01*
X258989Y241380D01*
X258934Y241377D01*
X258879Y241378D01*
X258824Y241383D01*
X258769Y241392D01*
X258716Y241405D01*
X258663Y241421D01*
X258612Y241442D01*
X258563Y241466D01*
X258515Y241493D01*
X258469Y241524D01*
X258426Y241558D01*
X258385Y241596D01*
X258347Y241636D01*
X258313Y241678D01*
X258281Y241723D01*
X258252Y241770D01*
X258228Y241820D01*
X258206Y241870D01*
X258189Y241923D01*
X258175Y241976D01*
X258165Y242030D01*
X258159Y242085D01*
X258157Y242140D01*
X241250Y256250D02*
X202250Y256250D01*
X202250Y227250D02*
X241250Y227250D01*
X192907Y241890D02*
X192909Y241945D01*
X192915Y242000D01*
X192925Y242054D01*
X192939Y242107D01*
X192956Y242160D01*
X192978Y242210D01*
X193002Y242260D01*
X193031Y242307D01*
X193063Y242352D01*
X193097Y242394D01*
X193135Y242434D01*
X193176Y242472D01*
X193219Y242506D01*
X193265Y242537D01*
X193313Y242564D01*
X193362Y242588D01*
X193413Y242609D01*
X193466Y242625D01*
X193519Y242638D01*
X193574Y242647D01*
X193629Y242652D01*
X193684Y242653D01*
X193739Y242650D01*
X193793Y242643D01*
X193847Y242632D01*
X193901Y242617D01*
X193952Y242599D01*
X194003Y242577D01*
X194051Y242551D01*
X194098Y242522D01*
X194143Y242489D01*
X194185Y242453D01*
X194224Y242415D01*
X194260Y242373D01*
X194294Y242330D01*
X194324Y242283D01*
X194350Y242235D01*
X194374Y242185D01*
X194393Y242134D01*
X194409Y242081D01*
X194421Y242027D01*
X194429Y241972D01*
X194433Y241918D01*
X194433Y241862D01*
X194429Y241808D01*
X194421Y241753D01*
X194409Y241699D01*
X194393Y241646D01*
X194374Y241595D01*
X194350Y241545D01*
X194324Y241497D01*
X194294Y241450D01*
X194260Y241407D01*
X194224Y241365D01*
X194185Y241327D01*
X194143Y241291D01*
X194098Y241258D01*
X194052Y241229D01*
X194003Y241203D01*
X193952Y241181D01*
X193901Y241163D01*
X193847Y241148D01*
X193793Y241137D01*
X193739Y241130D01*
X193684Y241127D01*
X193629Y241128D01*
X193574Y241133D01*
X193519Y241142D01*
X193466Y241155D01*
X193413Y241171D01*
X193362Y241192D01*
X193313Y241216D01*
X193265Y241243D01*
X193219Y241274D01*
X193176Y241308D01*
X193135Y241346D01*
X193097Y241386D01*
X193063Y241428D01*
X193031Y241473D01*
X193002Y241520D01*
X192978Y241570D01*
X192956Y241620D01*
X192939Y241673D01*
X192925Y241726D01*
X192915Y241780D01*
X192909Y241835D01*
X192907Y241890D01*
D16*
X142000Y229000D02*
X142000Y257000D01*
X142000Y229000D02*
X114000Y229000D01*
X114000Y257000D01*
X142000Y257000D01*
X124000Y250000D02*
X123998Y250118D01*
X123992Y250236D01*
X123982Y250354D01*
X123968Y250471D01*
X123950Y250588D01*
X123928Y250705D01*
X123903Y250820D01*
X123873Y250934D01*
X123839Y251048D01*
X123802Y251160D01*
X123761Y251271D01*
X123716Y251380D01*
X123668Y251488D01*
X123616Y251594D01*
X123560Y251699D01*
X123501Y251801D01*
X123439Y251901D01*
X123373Y251999D01*
X123304Y252095D01*
X123231Y252189D01*
X123156Y252280D01*
X123077Y252368D01*
X122996Y252454D01*
X122911Y252537D01*
X122824Y252617D01*
X122735Y252694D01*
X122642Y252768D01*
X122548Y252838D01*
X122451Y252906D01*
X122351Y252970D01*
X122250Y253031D01*
X122147Y253088D01*
X122041Y253142D01*
X121934Y253193D01*
X121826Y253239D01*
X121716Y253282D01*
X121604Y253321D01*
X121491Y253357D01*
X121377Y253388D01*
X121262Y253416D01*
X121147Y253440D01*
X121030Y253460D01*
X120913Y253476D01*
X120795Y253488D01*
X120677Y253496D01*
X120559Y253500D01*
X120441Y253500D01*
X120323Y253496D01*
X120205Y253488D01*
X120087Y253476D01*
X119970Y253460D01*
X119853Y253440D01*
X119738Y253416D01*
X119623Y253388D01*
X119509Y253357D01*
X119396Y253321D01*
X119284Y253282D01*
X119174Y253239D01*
X119066Y253193D01*
X118959Y253142D01*
X118853Y253088D01*
X118750Y253031D01*
X118649Y252970D01*
X118549Y252906D01*
X118452Y252838D01*
X118358Y252768D01*
X118265Y252694D01*
X118176Y252617D01*
X118089Y252537D01*
X118004Y252454D01*
X117923Y252368D01*
X117844Y252280D01*
X117769Y252189D01*
X117696Y252095D01*
X117627Y251999D01*
X117561Y251901D01*
X117499Y251801D01*
X117440Y251699D01*
X117384Y251594D01*
X117332Y251488D01*
X117284Y251380D01*
X117239Y251271D01*
X117198Y251160D01*
X117161Y251048D01*
X117127Y250934D01*
X117097Y250820D01*
X117072Y250705D01*
X117050Y250588D01*
X117032Y250471D01*
X117018Y250354D01*
X117008Y250236D01*
X117002Y250118D01*
X117000Y250000D01*
X124000Y250000D01*
D19*
X167178Y215271D02*
X168815Y215271D01*
X167178Y215271D02*
X167100Y215273D01*
X167022Y215278D01*
X166945Y215288D01*
X166868Y215301D01*
X166792Y215317D01*
X166717Y215337D01*
X166643Y215361D01*
X166570Y215388D01*
X166498Y215419D01*
X166428Y215453D01*
X166360Y215490D01*
X166293Y215531D01*
X166228Y215575D01*
X166166Y215621D01*
X166106Y215671D01*
X166048Y215723D01*
X165993Y215778D01*
X165941Y215836D01*
X165891Y215896D01*
X165845Y215958D01*
X165801Y216023D01*
X165760Y216090D01*
X165723Y216158D01*
X165689Y216228D01*
X165658Y216300D01*
X165631Y216373D01*
X165607Y216447D01*
X165587Y216522D01*
X165571Y216598D01*
X165558Y216675D01*
X165548Y216752D01*
X165543Y216830D01*
X165541Y216908D01*
X165541Y221000D01*
X165543Y221080D01*
X165549Y221160D01*
X165559Y221240D01*
X165572Y221319D01*
X165590Y221398D01*
X165611Y221475D01*
X165637Y221551D01*
X165666Y221626D01*
X165698Y221700D01*
X165734Y221772D01*
X165774Y221842D01*
X165817Y221909D01*
X165863Y221975D01*
X165913Y222038D01*
X165965Y222099D01*
X166020Y222158D01*
X166079Y222213D01*
X166139Y222265D01*
X166203Y222315D01*
X166269Y222361D01*
X166336Y222404D01*
X166406Y222444D01*
X166478Y222480D01*
X166552Y222512D01*
X166626Y222541D01*
X166703Y222567D01*
X166780Y222588D01*
X166859Y222606D01*
X166938Y222619D01*
X167018Y222629D01*
X167098Y222635D01*
X167178Y222637D01*
X168815Y222637D01*
X171660Y215271D02*
X174115Y215271D01*
X174193Y215273D01*
X174271Y215278D01*
X174348Y215288D01*
X174425Y215301D01*
X174501Y215317D01*
X174576Y215337D01*
X174650Y215361D01*
X174723Y215388D01*
X174795Y215419D01*
X174865Y215453D01*
X174934Y215490D01*
X175000Y215531D01*
X175065Y215575D01*
X175127Y215621D01*
X175187Y215671D01*
X175245Y215723D01*
X175300Y215778D01*
X175352Y215836D01*
X175402Y215896D01*
X175448Y215958D01*
X175492Y216023D01*
X175533Y216090D01*
X175570Y216158D01*
X175604Y216228D01*
X175635Y216300D01*
X175662Y216373D01*
X175686Y216447D01*
X175706Y216522D01*
X175722Y216598D01*
X175735Y216675D01*
X175745Y216752D01*
X175750Y216830D01*
X175752Y216908D01*
X175752Y217726D01*
X175750Y217804D01*
X175745Y217882D01*
X175735Y217959D01*
X175722Y218036D01*
X175706Y218112D01*
X175686Y218187D01*
X175662Y218261D01*
X175635Y218334D01*
X175604Y218406D01*
X175570Y218476D01*
X175533Y218545D01*
X175492Y218611D01*
X175448Y218676D01*
X175402Y218738D01*
X175352Y218798D01*
X175300Y218856D01*
X175245Y218911D01*
X175187Y218963D01*
X175127Y219013D01*
X175065Y219059D01*
X175000Y219103D01*
X174934Y219144D01*
X174865Y219181D01*
X174795Y219215D01*
X174723Y219246D01*
X174650Y219273D01*
X174576Y219297D01*
X174501Y219317D01*
X174425Y219333D01*
X174348Y219346D01*
X174271Y219356D01*
X174193Y219361D01*
X174115Y219363D01*
X171660Y219363D01*
X171660Y222637D01*
X175752Y222637D01*
D16*
X286224Y27524D02*
X286224Y19396D01*
X279636Y19396D01*
X257776Y19396D02*
X257776Y27524D01*
X257776Y19396D02*
X264364Y19396D01*
D17*
X267010Y49754D02*
X267010Y52689D01*
X267012Y52774D01*
X267018Y52858D01*
X267028Y52942D01*
X267041Y53026D01*
X267059Y53109D01*
X267080Y53191D01*
X267105Y53272D01*
X267134Y53352D01*
X267166Y53430D01*
X267202Y53506D01*
X267242Y53581D01*
X267285Y53654D01*
X267331Y53725D01*
X267380Y53794D01*
X267433Y53861D01*
X267489Y53925D01*
X267547Y53986D01*
X267608Y54044D01*
X267672Y54100D01*
X267739Y54153D01*
X267808Y54202D01*
X267879Y54248D01*
X267952Y54291D01*
X268027Y54331D01*
X268103Y54367D01*
X268181Y54399D01*
X268261Y54428D01*
X268342Y54453D01*
X268424Y54474D01*
X268507Y54492D01*
X268591Y54505D01*
X268675Y54515D01*
X268759Y54521D01*
X268844Y54523D01*
X268929Y54521D01*
X269013Y54515D01*
X269097Y54505D01*
X269181Y54492D01*
X269264Y54474D01*
X269346Y54453D01*
X269427Y54428D01*
X269507Y54399D01*
X269585Y54367D01*
X269661Y54331D01*
X269736Y54291D01*
X269809Y54248D01*
X269880Y54202D01*
X269949Y54153D01*
X270016Y54100D01*
X270080Y54044D01*
X270141Y53986D01*
X270199Y53925D01*
X270255Y53861D01*
X270308Y53794D01*
X270357Y53725D01*
X270403Y53654D01*
X270446Y53581D01*
X270486Y53506D01*
X270522Y53430D01*
X270554Y53352D01*
X270583Y53272D01*
X270608Y53191D01*
X270629Y53109D01*
X270647Y53026D01*
X270660Y52942D01*
X270670Y52858D01*
X270676Y52774D01*
X270678Y52689D01*
X270678Y49754D01*
X270676Y49669D01*
X270670Y49585D01*
X270660Y49501D01*
X270647Y49417D01*
X270629Y49334D01*
X270608Y49252D01*
X270583Y49171D01*
X270554Y49091D01*
X270522Y49013D01*
X270486Y48937D01*
X270446Y48862D01*
X270403Y48789D01*
X270357Y48718D01*
X270308Y48649D01*
X270255Y48582D01*
X270199Y48518D01*
X270141Y48457D01*
X270080Y48399D01*
X270016Y48343D01*
X269949Y48290D01*
X269880Y48241D01*
X269809Y48195D01*
X269736Y48152D01*
X269661Y48112D01*
X269585Y48076D01*
X269507Y48044D01*
X269427Y48015D01*
X269346Y47990D01*
X269264Y47969D01*
X269181Y47951D01*
X269097Y47938D01*
X269013Y47928D01*
X268929Y47922D01*
X268844Y47920D01*
X268759Y47922D01*
X268675Y47928D01*
X268591Y47938D01*
X268507Y47951D01*
X268424Y47969D01*
X268342Y47990D01*
X268261Y48015D01*
X268181Y48044D01*
X268103Y48076D01*
X268027Y48112D01*
X267952Y48152D01*
X267879Y48195D01*
X267808Y48241D01*
X267739Y48290D01*
X267672Y48343D01*
X267608Y48399D01*
X267547Y48457D01*
X267489Y48518D01*
X267433Y48582D01*
X267380Y48649D01*
X267331Y48718D01*
X267285Y48789D01*
X267242Y48862D01*
X267202Y48937D01*
X267166Y49013D01*
X267134Y49091D01*
X267105Y49171D01*
X267080Y49252D01*
X267059Y49334D01*
X267041Y49417D01*
X267028Y49501D01*
X267018Y49585D01*
X267012Y49669D01*
X267010Y49754D01*
X269945Y49387D02*
X271412Y47920D01*
X273855Y53056D02*
X275689Y54524D01*
X275689Y47920D01*
X273855Y47920D02*
X277524Y47920D01*
D12*
X167750Y51000D02*
X-32250Y51000D01*
X-93250Y51000D01*
X-93250Y211000D01*
X-32250Y211000D01*
X7750Y211000D01*
X167750Y211000D01*
X167750Y51000D01*
X-32250Y51000D02*
X-32250Y171000D01*
X-32250Y211000D01*
X7750Y211000D02*
X7750Y171000D01*
X-32250Y171000D01*
X-23564Y192000D02*
X-23561Y192278D01*
X-23550Y192555D01*
X-23533Y192832D01*
X-23510Y193109D01*
X-23479Y193385D01*
X-23442Y193660D01*
X-23397Y193934D01*
X-23347Y194207D01*
X-23289Y194479D01*
X-23225Y194749D01*
X-23154Y195018D01*
X-23077Y195284D01*
X-22993Y195549D01*
X-22903Y195812D01*
X-22806Y196072D01*
X-22703Y196330D01*
X-22593Y196585D01*
X-22478Y196837D01*
X-22356Y197087D01*
X-22228Y197333D01*
X-22094Y197577D01*
X-21954Y197817D01*
X-21809Y198053D01*
X-21657Y198286D01*
X-21500Y198515D01*
X-21337Y198740D01*
X-21169Y198961D01*
X-20996Y199178D01*
X-20817Y199390D01*
X-20633Y199598D01*
X-20444Y199801D01*
X-20250Y200000D01*
X-20051Y200194D01*
X-19848Y200383D01*
X-19640Y200567D01*
X-19428Y200746D01*
X-19211Y200919D01*
X-18990Y201087D01*
X-18765Y201250D01*
X-18536Y201407D01*
X-18303Y201559D01*
X-18067Y201704D01*
X-17827Y201844D01*
X-17583Y201978D01*
X-17337Y202106D01*
X-17087Y202228D01*
X-16835Y202343D01*
X-16580Y202453D01*
X-16322Y202556D01*
X-16062Y202653D01*
X-15799Y202743D01*
X-15534Y202827D01*
X-15268Y202904D01*
X-14999Y202975D01*
X-14729Y203039D01*
X-14457Y203097D01*
X-14184Y203147D01*
X-13910Y203192D01*
X-13635Y203229D01*
X-13359Y203260D01*
X-13082Y203283D01*
X-12805Y203300D01*
X-12528Y203311D01*
X-12250Y203314D01*
X-11972Y203311D01*
X-11695Y203300D01*
X-11418Y203283D01*
X-11141Y203260D01*
X-10865Y203229D01*
X-10590Y203192D01*
X-10316Y203147D01*
X-10043Y203097D01*
X-9771Y203039D01*
X-9501Y202975D01*
X-9232Y202904D01*
X-8966Y202827D01*
X-8701Y202743D01*
X-8438Y202653D01*
X-8178Y202556D01*
X-7920Y202453D01*
X-7665Y202343D01*
X-7413Y202228D01*
X-7163Y202106D01*
X-6917Y201978D01*
X-6673Y201844D01*
X-6433Y201704D01*
X-6197Y201559D01*
X-5964Y201407D01*
X-5735Y201250D01*
X-5510Y201087D01*
X-5289Y200919D01*
X-5072Y200746D01*
X-4860Y200567D01*
X-4652Y200383D01*
X-4449Y200194D01*
X-4250Y200000D01*
X-4056Y199801D01*
X-3867Y199598D01*
X-3683Y199390D01*
X-3504Y199178D01*
X-3331Y198961D01*
X-3163Y198740D01*
X-3000Y198515D01*
X-2843Y198286D01*
X-2691Y198053D01*
X-2546Y197817D01*
X-2406Y197577D01*
X-2272Y197333D01*
X-2144Y197087D01*
X-2022Y196837D01*
X-1907Y196585D01*
X-1797Y196330D01*
X-1694Y196072D01*
X-1597Y195812D01*
X-1507Y195549D01*
X-1423Y195284D01*
X-1346Y195018D01*
X-1275Y194749D01*
X-1211Y194479D01*
X-1153Y194207D01*
X-1103Y193934D01*
X-1058Y193660D01*
X-1021Y193385D01*
X-990Y193109D01*
X-967Y192832D01*
X-950Y192555D01*
X-939Y192278D01*
X-936Y192000D01*
X-939Y191722D01*
X-950Y191445D01*
X-967Y191168D01*
X-990Y190891D01*
X-1021Y190615D01*
X-1058Y190340D01*
X-1103Y190066D01*
X-1153Y189793D01*
X-1211Y189521D01*
X-1275Y189251D01*
X-1346Y188982D01*
X-1423Y188716D01*
X-1507Y188451D01*
X-1597Y188188D01*
X-1694Y187928D01*
X-1797Y187670D01*
X-1907Y187415D01*
X-2022Y187163D01*
X-2144Y186913D01*
X-2272Y186667D01*
X-2406Y186423D01*
X-2546Y186183D01*
X-2691Y185947D01*
X-2843Y185714D01*
X-3000Y185485D01*
X-3163Y185260D01*
X-3331Y185039D01*
X-3504Y184822D01*
X-3683Y184610D01*
X-3867Y184402D01*
X-4056Y184199D01*
X-4250Y184000D01*
X-4449Y183806D01*
X-4652Y183617D01*
X-4860Y183433D01*
X-5072Y183254D01*
X-5289Y183081D01*
X-5510Y182913D01*
X-5735Y182750D01*
X-5964Y182593D01*
X-6197Y182441D01*
X-6433Y182296D01*
X-6673Y182156D01*
X-6917Y182022D01*
X-7163Y181894D01*
X-7413Y181772D01*
X-7665Y181657D01*
X-7920Y181547D01*
X-8178Y181444D01*
X-8438Y181347D01*
X-8701Y181257D01*
X-8966Y181173D01*
X-9232Y181096D01*
X-9501Y181025D01*
X-9771Y180961D01*
X-10043Y180903D01*
X-10316Y180853D01*
X-10590Y180808D01*
X-10865Y180771D01*
X-11141Y180740D01*
X-11418Y180717D01*
X-11695Y180700D01*
X-11972Y180689D01*
X-12250Y180686D01*
X-12528Y180689D01*
X-12805Y180700D01*
X-13082Y180717D01*
X-13359Y180740D01*
X-13635Y180771D01*
X-13910Y180808D01*
X-14184Y180853D01*
X-14457Y180903D01*
X-14729Y180961D01*
X-14999Y181025D01*
X-15268Y181096D01*
X-15534Y181173D01*
X-15799Y181257D01*
X-16062Y181347D01*
X-16322Y181444D01*
X-16580Y181547D01*
X-16835Y181657D01*
X-17087Y181772D01*
X-17337Y181894D01*
X-17583Y182022D01*
X-17827Y182156D01*
X-18067Y182296D01*
X-18303Y182441D01*
X-18536Y182593D01*
X-18765Y182750D01*
X-18990Y182913D01*
X-19211Y183081D01*
X-19428Y183254D01*
X-19640Y183433D01*
X-19848Y183617D01*
X-20051Y183806D01*
X-20250Y184000D01*
X-20444Y184199D01*
X-20633Y184402D01*
X-20817Y184610D01*
X-20996Y184822D01*
X-21169Y185039D01*
X-21337Y185260D01*
X-21500Y185485D01*
X-21657Y185714D01*
X-21809Y185947D01*
X-21954Y186183D01*
X-22094Y186423D01*
X-22228Y186667D01*
X-22356Y186913D01*
X-22478Y187163D01*
X-22593Y187415D01*
X-22703Y187670D01*
X-22806Y187928D01*
X-22903Y188188D01*
X-22993Y188451D01*
X-23077Y188716D01*
X-23154Y188982D01*
X-23225Y189251D01*
X-23289Y189521D01*
X-23347Y189793D01*
X-23397Y190066D01*
X-23442Y190340D01*
X-23479Y190615D01*
X-23510Y190891D01*
X-23533Y191168D01*
X-23550Y191445D01*
X-23561Y191722D01*
X-23564Y192000D01*
D14*
X44600Y15000D02*
X44602Y15063D01*
X44608Y15125D01*
X44618Y15187D01*
X44631Y15249D01*
X44649Y15309D01*
X44670Y15368D01*
X44695Y15426D01*
X44724Y15482D01*
X44756Y15536D01*
X44791Y15588D01*
X44829Y15637D01*
X44871Y15685D01*
X44915Y15729D01*
X44963Y15771D01*
X45012Y15809D01*
X45064Y15844D01*
X45118Y15876D01*
X45174Y15905D01*
X45232Y15930D01*
X45291Y15951D01*
X45351Y15969D01*
X45413Y15982D01*
X45475Y15992D01*
X45537Y15998D01*
X45600Y16000D01*
X45663Y15998D01*
X45725Y15992D01*
X45787Y15982D01*
X45849Y15969D01*
X45909Y15951D01*
X45968Y15930D01*
X46026Y15905D01*
X46082Y15876D01*
X46136Y15844D01*
X46188Y15809D01*
X46237Y15771D01*
X46285Y15729D01*
X46329Y15685D01*
X46371Y15637D01*
X46409Y15588D01*
X46444Y15536D01*
X46476Y15482D01*
X46505Y15426D01*
X46530Y15368D01*
X46551Y15309D01*
X46569Y15249D01*
X46582Y15187D01*
X46592Y15125D01*
X46598Y15063D01*
X46600Y15000D01*
X46598Y14937D01*
X46592Y14875D01*
X46582Y14813D01*
X46569Y14751D01*
X46551Y14691D01*
X46530Y14632D01*
X46505Y14574D01*
X46476Y14518D01*
X46444Y14464D01*
X46409Y14412D01*
X46371Y14363D01*
X46329Y14315D01*
X46285Y14271D01*
X46237Y14229D01*
X46188Y14191D01*
X46136Y14156D01*
X46082Y14124D01*
X46026Y14095D01*
X45968Y14070D01*
X45909Y14049D01*
X45849Y14031D01*
X45787Y14018D01*
X45725Y14008D01*
X45663Y14002D01*
X45600Y14000D01*
X45537Y14002D01*
X45475Y14008D01*
X45413Y14018D01*
X45351Y14031D01*
X45291Y14049D01*
X45232Y14070D01*
X45174Y14095D01*
X45118Y14124D01*
X45064Y14156D01*
X45012Y14191D01*
X44963Y14229D01*
X44915Y14271D01*
X44871Y14315D01*
X44829Y14363D01*
X44791Y14412D01*
X44756Y14464D01*
X44724Y14518D01*
X44695Y14574D01*
X44670Y14632D01*
X44649Y14691D01*
X44631Y14751D01*
X44618Y14813D01*
X44608Y14875D01*
X44602Y14937D01*
X44600Y15000D01*
D12*
X36000Y8800D02*
X16000Y8800D01*
X16000Y31200D02*
X36000Y31200D01*
M02*
