G04 EAGLE Gerber RS-274X export*
G75*
%MOMM*%
%FSLAX34Y34*%
%LPD*%
%INSilkscreen Bottom*%
%IPPOS*%
%AMOC8*
5,1,8,0,0,1.08239X$1,22.5*%
G01*
%ADD10C,0.152400*%
%ADD11C,0.177800*%
%ADD12C,0.685800*%
%ADD13C,0.200000*%
%ADD14C,0.381000*%
%ADD15C,0.127000*%
%ADD16C,0.076200*%
%ADD17C,0.050000*%
%ADD18C,0.020000*%

G36*
X397044Y42387D02*
X397044Y42387D01*
X397050Y42386D01*
X1010050Y82976D01*
X1010165Y83002D01*
X1010280Y83027D01*
X1010285Y83030D01*
X1010290Y83031D01*
X1010390Y83093D01*
X1010491Y83153D01*
X1010495Y83158D01*
X1010499Y83160D01*
X1010574Y83251D01*
X1010651Y83340D01*
X1010653Y83345D01*
X1010656Y83350D01*
X1010699Y83459D01*
X1010743Y83568D01*
X1010744Y83575D01*
X1010745Y83579D01*
X1010746Y83596D01*
X1010761Y83735D01*
X1010761Y169160D01*
X1010743Y169270D01*
X1010728Y169382D01*
X1010723Y169392D01*
X1010722Y169402D01*
X1010669Y169501D01*
X1010619Y169603D01*
X1010611Y169610D01*
X1010606Y169620D01*
X1010525Y169697D01*
X1010445Y169777D01*
X1010436Y169782D01*
X1010428Y169789D01*
X1010326Y169836D01*
X1010225Y169887D01*
X1010213Y169889D01*
X1010205Y169893D01*
X1010180Y169896D01*
X1010061Y169918D01*
X397061Y218834D01*
X397010Y218829D01*
X396961Y218835D01*
X396889Y218819D01*
X396815Y218813D01*
X396769Y218793D01*
X396720Y218783D01*
X396657Y218745D01*
X396590Y218716D01*
X396552Y218682D01*
X396509Y218656D01*
X396461Y218601D01*
X396407Y218551D01*
X396382Y218508D01*
X396349Y218470D01*
X396322Y218401D01*
X396286Y218337D01*
X396276Y218288D01*
X396257Y218241D01*
X396244Y218121D01*
X396239Y218096D01*
X396240Y218087D01*
X396239Y218075D01*
X396239Y43146D01*
X396246Y43102D01*
X396244Y43056D01*
X396266Y42981D01*
X396279Y42903D01*
X396300Y42863D01*
X396312Y42820D01*
X396357Y42755D01*
X396394Y42686D01*
X396426Y42655D01*
X396452Y42618D01*
X396515Y42571D01*
X396572Y42517D01*
X396613Y42497D01*
X396649Y42471D01*
X396724Y42446D01*
X396795Y42413D01*
X396840Y42408D01*
X396883Y42394D01*
X397023Y42388D01*
X397039Y42386D01*
X397044Y42387D01*
G37*
G36*
X169994Y9243D02*
X169994Y9243D01*
X170043Y9240D01*
X182357Y9932D01*
X182383Y9938D01*
X182432Y9940D01*
X194617Y11852D01*
X194643Y11860D01*
X194691Y11867D01*
X206626Y14980D01*
X206650Y14991D01*
X206698Y15003D01*
X218264Y19286D01*
X218288Y19299D01*
X218334Y19316D01*
X229114Y24585D01*
X229136Y24600D01*
X229181Y24622D01*
X239378Y30944D01*
X239399Y30961D01*
X239441Y30987D01*
X248954Y38300D01*
X248972Y38319D01*
X248976Y38321D01*
X248979Y38324D01*
X249012Y38349D01*
X257744Y46578D01*
X257760Y46600D01*
X257797Y46633D01*
X265660Y55696D01*
X265674Y55719D01*
X265707Y55756D01*
X272622Y65561D01*
X272633Y65584D01*
X272661Y65622D01*
X277640Y74331D01*
X277648Y74354D01*
X277671Y74391D01*
X281851Y83510D01*
X281858Y83534D01*
X281877Y83573D01*
X285226Y93029D01*
X285231Y93053D01*
X285246Y93094D01*
X287737Y102811D01*
X287740Y102836D01*
X287752Y102879D01*
X289973Y116625D01*
X289973Y116650D01*
X289981Y116694D01*
X290928Y130587D01*
X290925Y130612D01*
X290929Y130657D01*
X290595Y144577D01*
X290590Y144603D01*
X290589Y144651D01*
X289381Y154515D01*
X289373Y154541D01*
X289367Y154592D01*
X287146Y164278D01*
X287135Y164303D01*
X287124Y164354D01*
X283913Y173757D01*
X283900Y173781D01*
X283884Y173830D01*
X279718Y182852D01*
X279702Y182875D01*
X279681Y182922D01*
X274604Y191464D01*
X274595Y191476D01*
X274583Y191497D01*
X272633Y194422D01*
X272553Y194508D01*
X272474Y194595D01*
X272469Y194598D01*
X272466Y194602D01*
X272363Y194658D01*
X272322Y194681D01*
X272343Y194705D01*
X272364Y194750D01*
X272393Y194791D01*
X272423Y194878D01*
X272461Y194961D01*
X272468Y195011D01*
X272484Y195058D01*
X272489Y195149D01*
X272502Y195240D01*
X272495Y195290D01*
X272498Y195340D01*
X272476Y195429D01*
X272464Y195520D01*
X272444Y195562D01*
X272432Y195614D01*
X272372Y195719D01*
X272334Y195799D01*
X270823Y198068D01*
X270806Y198087D01*
X270795Y198108D01*
X263783Y207601D01*
X263747Y207638D01*
X263722Y207676D01*
X255830Y216452D01*
X255791Y216485D01*
X255763Y216520D01*
X247064Y224497D01*
X247021Y224526D01*
X246990Y224558D01*
X237564Y231661D01*
X237519Y231686D01*
X237485Y231715D01*
X227420Y237880D01*
X227373Y237900D01*
X227336Y237926D01*
X216725Y243094D01*
X216676Y243110D01*
X216637Y243132D01*
X205578Y247256D01*
X205526Y247268D01*
X205484Y247286D01*
X193530Y250436D01*
X193475Y250442D01*
X193429Y250457D01*
X181216Y252366D01*
X181161Y252367D01*
X181114Y252377D01*
X168769Y253027D01*
X168715Y253022D01*
X168667Y253027D01*
X156320Y252411D01*
X156267Y252401D01*
X156219Y252401D01*
X144000Y250525D01*
X143947Y250509D01*
X143900Y250504D01*
X131937Y247388D01*
X131886Y247367D01*
X131840Y247357D01*
X120258Y243033D01*
X120210Y243007D01*
X120165Y242992D01*
X109087Y237506D01*
X109041Y237475D01*
X108997Y237456D01*
X98539Y230866D01*
X98497Y230830D01*
X98455Y230807D01*
X88726Y223181D01*
X88688Y223141D01*
X88649Y223114D01*
X79750Y214532D01*
X79717Y214489D01*
X79681Y214458D01*
X71986Y205358D01*
X71957Y205312D01*
X71925Y205278D01*
X65183Y195450D01*
X65159Y195402D01*
X65130Y195365D01*
X59410Y184909D01*
X59391Y184859D01*
X59366Y184819D01*
X54725Y173841D01*
X54711Y173789D01*
X54691Y173747D01*
X51177Y162359D01*
X51168Y162305D01*
X51152Y162261D01*
X48800Y150578D01*
X48797Y150524D01*
X48785Y150478D01*
X47620Y138617D01*
X47622Y138563D01*
X47615Y138517D01*
X47647Y126599D01*
X47655Y126545D01*
X47652Y126498D01*
X48882Y114644D01*
X48895Y114592D01*
X48897Y114545D01*
X51312Y102874D01*
X51330Y102825D01*
X51337Y102779D01*
X55158Y90510D01*
X55180Y90464D01*
X55190Y90421D01*
X60160Y78570D01*
X60186Y78527D01*
X60201Y78485D01*
X66264Y67178D01*
X66258Y67130D01*
X66241Y67057D01*
X66245Y67008D01*
X66240Y66959D01*
X66256Y66886D01*
X66262Y66812D01*
X66282Y66767D01*
X66293Y66719D01*
X66351Y66609D01*
X66361Y66587D01*
X66366Y66581D01*
X66372Y66570D01*
X72671Y57353D01*
X72686Y57337D01*
X72707Y57304D01*
X79722Y48619D01*
X79739Y48604D01*
X79762Y48573D01*
X87448Y40476D01*
X87467Y40461D01*
X87497Y40429D01*
X95140Y33695D01*
X95162Y33681D01*
X95198Y33649D01*
X103467Y27700D01*
X103491Y27688D01*
X103530Y27659D01*
X112344Y22554D01*
X112369Y22545D01*
X112411Y22520D01*
X121685Y18307D01*
X121710Y18300D01*
X121754Y18280D01*
X133374Y14310D01*
X133400Y14306D01*
X133444Y14290D01*
X145391Y11452D01*
X145417Y11450D01*
X145463Y11438D01*
X157627Y9756D01*
X157653Y9757D01*
X157699Y9749D01*
X169968Y9239D01*
X169994Y9243D01*
G37*
%LPC*%
G36*
X140487Y70447D02*
X140487Y70447D01*
X134932Y71442D01*
X129524Y73057D01*
X124332Y75270D01*
X119422Y78053D01*
X114862Y81369D01*
X112052Y84014D01*
X109644Y87024D01*
X108356Y89202D01*
X108366Y89223D01*
X108387Y89251D01*
X108425Y89351D01*
X108470Y89449D01*
X108475Y89482D01*
X108487Y89514D01*
X108495Y89621D01*
X108511Y89728D01*
X108506Y89761D01*
X108509Y89795D01*
X108487Y89901D01*
X108472Y90007D01*
X108459Y90036D01*
X108452Y90072D01*
X108381Y90204D01*
X108343Y90287D01*
X107542Y91488D01*
X104757Y96342D01*
X102659Y101493D01*
X101269Y106879D01*
X100611Y112402D01*
X100699Y117963D01*
X101529Y123463D01*
X103087Y128803D01*
X105346Y133886D01*
X108264Y138621D01*
X111789Y142924D01*
X115844Y146704D01*
X165028Y178897D01*
X176869Y184817D01*
X182001Y186985D01*
X187338Y188470D01*
X192820Y189261D01*
X198359Y189345D01*
X203863Y188720D01*
X209242Y187398D01*
X214408Y185398D01*
X219276Y182755D01*
X223767Y179512D01*
X227806Y175721D01*
X231360Y171406D01*
X231339Y171360D01*
X231299Y171296D01*
X231287Y171249D01*
X231267Y171204D01*
X231259Y171130D01*
X231241Y171057D01*
X231245Y171009D01*
X231240Y170960D01*
X231256Y170887D01*
X231262Y170812D01*
X231282Y170767D01*
X231292Y170720D01*
X231351Y170609D01*
X231361Y170587D01*
X231366Y170581D01*
X231371Y170571D01*
X233952Y166782D01*
X236040Y162753D01*
X237632Y158502D01*
X238705Y154092D01*
X239243Y149585D01*
X239239Y145047D01*
X238437Y138564D01*
X236837Y132232D01*
X234464Y126147D01*
X231352Y120402D01*
X229140Y117273D01*
X226587Y114413D01*
X223727Y111860D01*
X220578Y109634D01*
X172597Y79646D01*
X172579Y79631D01*
X172545Y79610D01*
X168683Y76733D01*
X164549Y74353D01*
X160163Y72475D01*
X155587Y71127D01*
X150884Y70325D01*
X146117Y70083D01*
X140487Y70447D01*
G37*
%LPD*%
D10*
X35263Y235967D02*
X28659Y235967D01*
X28659Y234133D02*
X28659Y237802D01*
X35263Y229542D02*
X35263Y228075D01*
X35264Y229542D02*
X35262Y229616D01*
X35256Y229691D01*
X35247Y229764D01*
X35234Y229838D01*
X35217Y229910D01*
X35197Y229981D01*
X35173Y230052D01*
X35145Y230121D01*
X35114Y230188D01*
X35080Y230254D01*
X35042Y230319D01*
X35001Y230381D01*
X34957Y230441D01*
X34910Y230498D01*
X34860Y230553D01*
X34807Y230606D01*
X34752Y230656D01*
X34695Y230703D01*
X34635Y230747D01*
X34573Y230788D01*
X34508Y230826D01*
X34442Y230860D01*
X34375Y230891D01*
X34306Y230919D01*
X34235Y230943D01*
X34164Y230963D01*
X34092Y230980D01*
X34018Y230993D01*
X33945Y231002D01*
X33870Y231008D01*
X33796Y231010D01*
X30127Y231010D01*
X30053Y231008D01*
X29978Y231002D01*
X29905Y230993D01*
X29832Y230980D01*
X29759Y230963D01*
X29688Y230943D01*
X29617Y230919D01*
X29548Y230891D01*
X29481Y230860D01*
X29415Y230826D01*
X29350Y230788D01*
X29288Y230747D01*
X29228Y230703D01*
X29171Y230656D01*
X29116Y230606D01*
X29063Y230553D01*
X29013Y230498D01*
X28966Y230441D01*
X28922Y230381D01*
X28881Y230319D01*
X28843Y230254D01*
X28809Y230189D01*
X28778Y230121D01*
X28750Y230052D01*
X28726Y229982D01*
X28706Y229910D01*
X28689Y229838D01*
X28676Y229764D01*
X28667Y229691D01*
X28661Y229616D01*
X28659Y229542D01*
X28659Y228075D01*
X28659Y224453D02*
X35263Y224453D01*
X32695Y224453D02*
X28659Y220784D01*
X31227Y222986D02*
X35263Y220784D01*
X20263Y235967D02*
X13659Y235967D01*
X13659Y234133D02*
X13659Y237802D01*
X13659Y230609D02*
X20263Y230609D01*
X17328Y228408D02*
X13659Y230609D01*
X17328Y228408D02*
X13659Y226207D01*
X20263Y226207D01*
X20264Y220238D02*
X20262Y220164D01*
X20256Y220090D01*
X20247Y220016D01*
X20234Y219943D01*
X20217Y219870D01*
X20197Y219799D01*
X20173Y219728D01*
X20145Y219659D01*
X20114Y219592D01*
X20080Y219526D01*
X20042Y219461D01*
X20001Y219399D01*
X19957Y219339D01*
X19910Y219282D01*
X19860Y219227D01*
X19807Y219174D01*
X19752Y219124D01*
X19695Y219077D01*
X19635Y219033D01*
X19573Y218992D01*
X19508Y218954D01*
X19443Y218920D01*
X19375Y218889D01*
X19306Y218861D01*
X19235Y218837D01*
X19164Y218817D01*
X19092Y218800D01*
X19018Y218787D01*
X18945Y218778D01*
X18870Y218772D01*
X18796Y218770D01*
X20263Y220238D02*
X20261Y220349D01*
X20255Y220460D01*
X20245Y220571D01*
X20231Y220682D01*
X20213Y220791D01*
X20191Y220900D01*
X20166Y221009D01*
X20136Y221116D01*
X20103Y221222D01*
X20065Y221327D01*
X20025Y221430D01*
X19980Y221532D01*
X19932Y221632D01*
X19880Y221731D01*
X19825Y221827D01*
X19766Y221922D01*
X19704Y222014D01*
X19638Y222104D01*
X19570Y222192D01*
X19498Y222277D01*
X19423Y222359D01*
X19346Y222439D01*
X15127Y222257D02*
X15053Y222255D01*
X14978Y222249D01*
X14905Y222240D01*
X14831Y222227D01*
X14759Y222210D01*
X14688Y222190D01*
X14617Y222166D01*
X14548Y222138D01*
X14481Y222107D01*
X14415Y222073D01*
X14350Y222035D01*
X14288Y221994D01*
X14228Y221950D01*
X14171Y221903D01*
X14116Y221853D01*
X14063Y221800D01*
X14013Y221745D01*
X13966Y221688D01*
X13922Y221628D01*
X13881Y221566D01*
X13843Y221501D01*
X13809Y221435D01*
X13778Y221368D01*
X13750Y221299D01*
X13726Y221228D01*
X13706Y221157D01*
X13689Y221085D01*
X13676Y221011D01*
X13667Y220938D01*
X13661Y220863D01*
X13659Y220789D01*
X13661Y220685D01*
X13667Y220581D01*
X13677Y220477D01*
X13690Y220374D01*
X13708Y220271D01*
X13730Y220169D01*
X13755Y220068D01*
X13784Y219968D01*
X13817Y219869D01*
X13854Y219772D01*
X13894Y219676D01*
X13938Y219581D01*
X13986Y219489D01*
X14036Y219398D01*
X14091Y219309D01*
X14149Y219222D01*
X14209Y219138D01*
X16412Y221523D02*
X16373Y221586D01*
X16331Y221646D01*
X16286Y221705D01*
X16238Y221761D01*
X16187Y221814D01*
X16134Y221865D01*
X16079Y221914D01*
X16021Y221959D01*
X15961Y222002D01*
X15899Y222042D01*
X15835Y222078D01*
X15769Y222112D01*
X15701Y222142D01*
X15633Y222169D01*
X15563Y222192D01*
X15492Y222212D01*
X15420Y222228D01*
X15347Y222241D01*
X15274Y222250D01*
X15201Y222255D01*
X15127Y222257D01*
X17511Y219504D02*
X17550Y219441D01*
X17592Y219381D01*
X17637Y219323D01*
X17685Y219266D01*
X17736Y219213D01*
X17789Y219162D01*
X17844Y219113D01*
X17902Y219068D01*
X17962Y219025D01*
X18024Y218985D01*
X18088Y218949D01*
X18154Y218915D01*
X18222Y218885D01*
X18290Y218858D01*
X18360Y218835D01*
X18431Y218815D01*
X18503Y218799D01*
X18576Y218786D01*
X18649Y218777D01*
X18722Y218772D01*
X18796Y218770D01*
X17511Y219505D02*
X16411Y221522D01*
X42659Y235967D02*
X49263Y235967D01*
X42659Y234133D02*
X42659Y237802D01*
X49263Y231341D02*
X42659Y226938D01*
X42659Y231341D02*
X49263Y226938D01*
X57659Y237802D02*
X64263Y237802D01*
X57659Y237802D02*
X57659Y235967D01*
X57660Y235967D02*
X57662Y235882D01*
X57668Y235798D01*
X57678Y235714D01*
X57691Y235630D01*
X57709Y235547D01*
X57730Y235465D01*
X57755Y235384D01*
X57784Y235304D01*
X57816Y235226D01*
X57852Y235150D01*
X57892Y235075D01*
X57935Y235002D01*
X57981Y234931D01*
X58030Y234862D01*
X58083Y234795D01*
X58139Y234731D01*
X58197Y234670D01*
X58258Y234612D01*
X58322Y234556D01*
X58389Y234503D01*
X58458Y234454D01*
X58529Y234408D01*
X58602Y234365D01*
X58677Y234325D01*
X58753Y234289D01*
X58831Y234257D01*
X58911Y234228D01*
X58992Y234203D01*
X59074Y234182D01*
X59157Y234164D01*
X59241Y234151D01*
X59325Y234141D01*
X59409Y234135D01*
X59494Y234133D01*
X59579Y234135D01*
X59663Y234141D01*
X59747Y234151D01*
X59831Y234164D01*
X59914Y234182D01*
X59996Y234203D01*
X60077Y234228D01*
X60157Y234257D01*
X60235Y234289D01*
X60311Y234325D01*
X60386Y234365D01*
X60459Y234408D01*
X60530Y234454D01*
X60599Y234503D01*
X60666Y234556D01*
X60730Y234612D01*
X60791Y234670D01*
X60849Y234731D01*
X60905Y234795D01*
X60958Y234862D01*
X61007Y234931D01*
X61053Y235002D01*
X61096Y235075D01*
X61136Y235150D01*
X61172Y235226D01*
X61204Y235304D01*
X61233Y235384D01*
X61258Y235465D01*
X61279Y235547D01*
X61297Y235630D01*
X61310Y235714D01*
X61320Y235798D01*
X61326Y235882D01*
X61328Y235967D01*
X61328Y237802D01*
X61328Y235600D02*
X64263Y234133D01*
X64263Y230932D02*
X57659Y226529D01*
X57659Y230932D02*
X64263Y226529D01*
X93263Y235967D02*
X93263Y237802D01*
X93263Y235967D02*
X93261Y235882D01*
X93255Y235798D01*
X93245Y235714D01*
X93232Y235630D01*
X93214Y235547D01*
X93193Y235465D01*
X93168Y235384D01*
X93139Y235304D01*
X93107Y235226D01*
X93071Y235150D01*
X93031Y235075D01*
X92988Y235002D01*
X92942Y234931D01*
X92893Y234862D01*
X92840Y234795D01*
X92784Y234731D01*
X92726Y234670D01*
X92665Y234612D01*
X92601Y234556D01*
X92534Y234503D01*
X92465Y234454D01*
X92394Y234408D01*
X92321Y234365D01*
X92246Y234325D01*
X92170Y234289D01*
X92092Y234257D01*
X92012Y234228D01*
X91931Y234203D01*
X91849Y234182D01*
X91766Y234164D01*
X91682Y234151D01*
X91598Y234141D01*
X91514Y234135D01*
X91429Y234133D01*
X91344Y234135D01*
X91260Y234141D01*
X91176Y234151D01*
X91092Y234164D01*
X91009Y234182D01*
X90927Y234203D01*
X90846Y234228D01*
X90766Y234257D01*
X90688Y234289D01*
X90612Y234325D01*
X90537Y234365D01*
X90464Y234408D01*
X90393Y234454D01*
X90324Y234503D01*
X90257Y234556D01*
X90193Y234612D01*
X90132Y234670D01*
X90074Y234731D01*
X90018Y234795D01*
X89965Y234862D01*
X89916Y234931D01*
X89870Y235002D01*
X89827Y235075D01*
X89787Y235150D01*
X89751Y235226D01*
X89719Y235304D01*
X89690Y235384D01*
X89665Y235465D01*
X89644Y235547D01*
X89626Y235630D01*
X89613Y235714D01*
X89603Y235798D01*
X89597Y235882D01*
X89595Y235967D01*
X86659Y235600D02*
X86659Y237802D01*
X86659Y235600D02*
X86661Y235524D01*
X86667Y235449D01*
X86676Y235374D01*
X86690Y235300D01*
X86707Y235226D01*
X86729Y235154D01*
X86753Y235082D01*
X86782Y235012D01*
X86814Y234944D01*
X86849Y234877D01*
X86888Y234812D01*
X86931Y234749D01*
X86976Y234689D01*
X87024Y234631D01*
X87076Y234575D01*
X87130Y234523D01*
X87187Y234473D01*
X87246Y234426D01*
X87307Y234382D01*
X87371Y234341D01*
X87437Y234304D01*
X87505Y234270D01*
X87574Y234240D01*
X87645Y234213D01*
X87717Y234190D01*
X87790Y234171D01*
X87864Y234156D01*
X87939Y234144D01*
X88014Y234136D01*
X88089Y234132D01*
X88165Y234132D01*
X88240Y234136D01*
X88315Y234144D01*
X88390Y234156D01*
X88464Y234171D01*
X88537Y234190D01*
X88609Y234213D01*
X88680Y234240D01*
X88749Y234270D01*
X88817Y234304D01*
X88883Y234341D01*
X88947Y234382D01*
X89008Y234426D01*
X89067Y234473D01*
X89124Y234523D01*
X89178Y234575D01*
X89230Y234631D01*
X89278Y234689D01*
X89323Y234749D01*
X89366Y234812D01*
X89405Y234877D01*
X89440Y234944D01*
X89472Y235012D01*
X89501Y235082D01*
X89525Y235154D01*
X89547Y235226D01*
X89564Y235300D01*
X89578Y235374D01*
X89587Y235449D01*
X89593Y235524D01*
X89595Y235600D01*
X89594Y235600D02*
X89594Y237068D01*
X86659Y230853D02*
X93263Y228652D01*
X86659Y226451D01*
D11*
X74479Y232018D02*
X74479Y233415D01*
X74479Y232018D02*
X79136Y232018D01*
X79136Y234812D01*
X79134Y234896D01*
X79129Y234979D01*
X79119Y235062D01*
X79106Y235145D01*
X79089Y235227D01*
X79069Y235308D01*
X79045Y235388D01*
X79017Y235467D01*
X78986Y235544D01*
X78952Y235620D01*
X78914Y235695D01*
X78872Y235768D01*
X78828Y235838D01*
X78780Y235907D01*
X78730Y235974D01*
X78676Y236038D01*
X78620Y236099D01*
X78560Y236159D01*
X78499Y236215D01*
X78435Y236269D01*
X78368Y236319D01*
X78299Y236367D01*
X78229Y236411D01*
X78156Y236453D01*
X78081Y236491D01*
X78005Y236525D01*
X77928Y236556D01*
X77849Y236584D01*
X77769Y236608D01*
X77688Y236628D01*
X77606Y236645D01*
X77523Y236658D01*
X77440Y236668D01*
X77357Y236673D01*
X77273Y236675D01*
X72617Y236675D01*
X72531Y236673D01*
X72445Y236667D01*
X72360Y236657D01*
X72275Y236643D01*
X72190Y236626D01*
X72107Y236604D01*
X72025Y236578D01*
X71944Y236549D01*
X71865Y236516D01*
X71787Y236480D01*
X71710Y236440D01*
X71636Y236396D01*
X71564Y236349D01*
X71494Y236299D01*
X71427Y236245D01*
X71362Y236189D01*
X71300Y236129D01*
X71240Y236067D01*
X71184Y236002D01*
X71130Y235935D01*
X71080Y235865D01*
X71033Y235793D01*
X70989Y235719D01*
X70949Y235642D01*
X70913Y235565D01*
X70880Y235485D01*
X70851Y235404D01*
X70825Y235322D01*
X70803Y235239D01*
X70786Y235154D01*
X70772Y235069D01*
X70762Y234984D01*
X70756Y234898D01*
X70754Y234812D01*
X70754Y232018D01*
D12*
X330354Y179135D02*
X361596Y179135D01*
X330354Y179135D02*
X330354Y170456D01*
X330357Y170245D01*
X330364Y170033D01*
X330377Y169823D01*
X330395Y169612D01*
X330418Y169402D01*
X330446Y169192D01*
X330480Y168984D01*
X330518Y168776D01*
X330562Y168569D01*
X330610Y168363D01*
X330664Y168159D01*
X330722Y167956D01*
X330785Y167754D01*
X330854Y167554D01*
X330927Y167356D01*
X331005Y167159D01*
X331087Y166965D01*
X331175Y166773D01*
X331267Y166582D01*
X331363Y166394D01*
X331464Y166209D01*
X331570Y166026D01*
X331680Y165845D01*
X331795Y165668D01*
X331913Y165493D01*
X332036Y165321D01*
X332163Y165152D01*
X332295Y164987D01*
X332430Y164824D01*
X332569Y164665D01*
X332712Y164509D01*
X332858Y164357D01*
X333009Y164209D01*
X333163Y164064D01*
X333320Y163923D01*
X333481Y163786D01*
X333645Y163652D01*
X333812Y163523D01*
X333983Y163398D01*
X334156Y163277D01*
X334332Y163161D01*
X334511Y163049D01*
X334693Y162941D01*
X334877Y162837D01*
X335064Y162738D01*
X335253Y162644D01*
X335445Y162554D01*
X335638Y162469D01*
X335833Y162389D01*
X336031Y162313D01*
X336230Y162243D01*
X336431Y162177D01*
X336633Y162116D01*
X336837Y162060D01*
X337042Y162009D01*
X337248Y161963D01*
X337456Y161922D01*
X337664Y161886D01*
X337873Y161856D01*
X338083Y161830D01*
X338293Y161810D01*
X338504Y161794D01*
X338715Y161784D01*
X338926Y161779D01*
X339138Y161779D01*
X339349Y161784D01*
X339560Y161794D01*
X339771Y161810D01*
X339981Y161830D01*
X340191Y161856D01*
X340400Y161886D01*
X340608Y161922D01*
X340816Y161963D01*
X341022Y162009D01*
X341227Y162060D01*
X341431Y162116D01*
X341633Y162177D01*
X341834Y162243D01*
X342033Y162313D01*
X342231Y162389D01*
X342426Y162469D01*
X342619Y162554D01*
X342811Y162644D01*
X343000Y162738D01*
X343187Y162837D01*
X343371Y162941D01*
X343553Y163049D01*
X343732Y163161D01*
X343908Y163277D01*
X344081Y163398D01*
X344252Y163523D01*
X344419Y163652D01*
X344583Y163786D01*
X344744Y163923D01*
X344901Y164064D01*
X345055Y164209D01*
X345206Y164357D01*
X345352Y164509D01*
X345495Y164665D01*
X345634Y164824D01*
X345769Y164987D01*
X345901Y165152D01*
X346028Y165321D01*
X346151Y165493D01*
X346269Y165668D01*
X346384Y165845D01*
X346494Y166026D01*
X346600Y166209D01*
X346701Y166394D01*
X346797Y166582D01*
X346889Y166773D01*
X346977Y166965D01*
X347059Y167159D01*
X347137Y167356D01*
X347210Y167554D01*
X347279Y167754D01*
X347342Y167956D01*
X347400Y168159D01*
X347454Y168363D01*
X347502Y168569D01*
X347546Y168776D01*
X347584Y168984D01*
X347618Y169192D01*
X347646Y169402D01*
X347669Y169612D01*
X347687Y169823D01*
X347700Y170033D01*
X347707Y170245D01*
X347710Y170456D01*
X347711Y170456D02*
X347711Y179135D01*
X361596Y145021D02*
X330354Y145021D01*
X330354Y153699D02*
X330354Y136343D01*
X330354Y128765D02*
X361596Y118351D01*
X330354Y107937D01*
X339032Y98454D02*
X352918Y98454D01*
X339032Y98454D02*
X338821Y98451D01*
X338609Y98444D01*
X338399Y98431D01*
X338188Y98413D01*
X337978Y98390D01*
X337768Y98362D01*
X337560Y98328D01*
X337352Y98290D01*
X337145Y98246D01*
X336939Y98198D01*
X336735Y98144D01*
X336532Y98086D01*
X336330Y98023D01*
X336130Y97954D01*
X335932Y97881D01*
X335735Y97803D01*
X335541Y97721D01*
X335349Y97633D01*
X335158Y97541D01*
X334970Y97445D01*
X334785Y97344D01*
X334602Y97238D01*
X334421Y97128D01*
X334244Y97013D01*
X334069Y96895D01*
X333897Y96772D01*
X333728Y96645D01*
X333563Y96513D01*
X333400Y96378D01*
X333241Y96239D01*
X333085Y96096D01*
X332933Y95950D01*
X332785Y95799D01*
X332640Y95645D01*
X332499Y95488D01*
X332362Y95327D01*
X332228Y95163D01*
X332099Y94996D01*
X331974Y94825D01*
X331853Y94652D01*
X331737Y94476D01*
X331625Y94297D01*
X331517Y94115D01*
X331413Y93931D01*
X331314Y93744D01*
X331220Y93555D01*
X331130Y93363D01*
X331045Y93170D01*
X330965Y92975D01*
X330889Y92777D01*
X330819Y92578D01*
X330753Y92377D01*
X330692Y92175D01*
X330636Y91971D01*
X330585Y91766D01*
X330539Y91560D01*
X330498Y91352D01*
X330462Y91144D01*
X330432Y90935D01*
X330406Y90725D01*
X330386Y90515D01*
X330370Y90304D01*
X330360Y90093D01*
X330355Y89882D01*
X330355Y89670D01*
X330360Y89459D01*
X330370Y89248D01*
X330386Y89037D01*
X330406Y88827D01*
X330432Y88617D01*
X330462Y88408D01*
X330498Y88200D01*
X330539Y87992D01*
X330585Y87786D01*
X330636Y87581D01*
X330692Y87377D01*
X330753Y87175D01*
X330819Y86974D01*
X330889Y86775D01*
X330965Y86577D01*
X331045Y86382D01*
X331130Y86189D01*
X331220Y85997D01*
X331314Y85808D01*
X331413Y85621D01*
X331517Y85437D01*
X331625Y85255D01*
X331737Y85076D01*
X331853Y84900D01*
X331974Y84727D01*
X332099Y84556D01*
X332228Y84389D01*
X332362Y84225D01*
X332499Y84064D01*
X332640Y83907D01*
X332785Y83753D01*
X332933Y83602D01*
X333085Y83456D01*
X333241Y83313D01*
X333400Y83174D01*
X333563Y83039D01*
X333728Y82907D01*
X333897Y82780D01*
X334069Y82657D01*
X334244Y82539D01*
X334421Y82424D01*
X334602Y82314D01*
X334785Y82208D01*
X334970Y82107D01*
X335158Y82011D01*
X335349Y81919D01*
X335541Y81831D01*
X335735Y81749D01*
X335932Y81671D01*
X336130Y81598D01*
X336330Y81529D01*
X336532Y81466D01*
X336735Y81408D01*
X336939Y81354D01*
X337145Y81306D01*
X337352Y81262D01*
X337560Y81224D01*
X337768Y81190D01*
X337978Y81162D01*
X338188Y81139D01*
X338399Y81121D01*
X338609Y81108D01*
X338821Y81101D01*
X339032Y81098D01*
X352918Y81098D01*
X353129Y81101D01*
X353341Y81108D01*
X353551Y81121D01*
X353762Y81139D01*
X353972Y81162D01*
X354182Y81190D01*
X354390Y81224D01*
X354598Y81262D01*
X354805Y81306D01*
X355011Y81354D01*
X355215Y81408D01*
X355418Y81466D01*
X355620Y81529D01*
X355820Y81598D01*
X356018Y81671D01*
X356215Y81749D01*
X356409Y81831D01*
X356601Y81919D01*
X356792Y82011D01*
X356980Y82107D01*
X357165Y82208D01*
X357348Y82314D01*
X357529Y82424D01*
X357706Y82539D01*
X357881Y82657D01*
X358053Y82780D01*
X358222Y82907D01*
X358387Y83039D01*
X358550Y83174D01*
X358709Y83313D01*
X358865Y83456D01*
X359017Y83602D01*
X359165Y83753D01*
X359310Y83907D01*
X359451Y84064D01*
X359588Y84225D01*
X359722Y84389D01*
X359851Y84556D01*
X359976Y84727D01*
X360097Y84900D01*
X360213Y85076D01*
X360325Y85255D01*
X360433Y85437D01*
X360537Y85621D01*
X360636Y85808D01*
X360730Y85997D01*
X360820Y86189D01*
X360905Y86382D01*
X360985Y86577D01*
X361061Y86775D01*
X361131Y86974D01*
X361197Y87175D01*
X361258Y87377D01*
X361314Y87581D01*
X361365Y87786D01*
X361411Y87992D01*
X361452Y88200D01*
X361488Y88408D01*
X361518Y88617D01*
X361544Y88827D01*
X361564Y89037D01*
X361580Y89248D01*
X361590Y89459D01*
X361595Y89670D01*
X361595Y89882D01*
X361590Y90093D01*
X361580Y90304D01*
X361564Y90515D01*
X361544Y90725D01*
X361518Y90935D01*
X361488Y91144D01*
X361452Y91352D01*
X361411Y91560D01*
X361365Y91766D01*
X361314Y91971D01*
X361258Y92175D01*
X361197Y92377D01*
X361131Y92578D01*
X361061Y92777D01*
X360985Y92975D01*
X360905Y93170D01*
X360820Y93363D01*
X360730Y93555D01*
X360636Y93744D01*
X360537Y93931D01*
X360433Y94115D01*
X360325Y94297D01*
X360213Y94476D01*
X360097Y94652D01*
X359976Y94825D01*
X359851Y94996D01*
X359722Y95163D01*
X359588Y95327D01*
X359451Y95488D01*
X359310Y95645D01*
X359165Y95799D01*
X359017Y95950D01*
X358865Y96096D01*
X358709Y96239D01*
X358550Y96378D01*
X358387Y96513D01*
X358222Y96645D01*
X358053Y96772D01*
X357881Y96895D01*
X357706Y97013D01*
X357529Y97128D01*
X357348Y97238D01*
X357165Y97344D01*
X356980Y97445D01*
X356792Y97541D01*
X356601Y97633D01*
X356409Y97721D01*
X356215Y97803D01*
X356018Y97881D01*
X355820Y97954D01*
X355620Y98023D01*
X355418Y98086D01*
X355215Y98144D01*
X355011Y98198D01*
X354805Y98246D01*
X354598Y98290D01*
X354390Y98328D01*
X354182Y98362D01*
X353972Y98390D01*
X353762Y98413D01*
X353551Y98431D01*
X353341Y98444D01*
X353129Y98451D01*
X352918Y98454D01*
D13*
X425000Y196250D02*
X425000Y207000D01*
X425000Y186250D02*
X425000Y175500D01*
X425000Y165500D02*
X425000Y154750D01*
X425000Y144750D02*
X425000Y134000D01*
X425000Y124000D02*
X425000Y113250D01*
X425000Y103250D02*
X425000Y92500D01*
X425000Y82500D02*
X425000Y71750D01*
X425000Y61750D02*
X425000Y51000D01*
X320000Y208444D02*
X320000Y219000D01*
X320000Y198444D02*
X320000Y187889D01*
X320000Y177889D02*
X320000Y167333D01*
X320000Y157333D02*
X320000Y146778D01*
X320000Y136778D02*
X320000Y126222D01*
X320000Y116222D02*
X320000Y105667D01*
X320000Y95667D02*
X320000Y85111D01*
X320000Y75111D02*
X320000Y64556D01*
X320000Y54556D02*
X320000Y44000D01*
D14*
X368086Y187659D02*
X386120Y187659D01*
X368086Y187659D02*
X368086Y179643D01*
X376101Y179643D02*
X376101Y187659D01*
X374097Y172818D02*
X386120Y172818D01*
X369088Y173319D02*
X368086Y173319D01*
X368086Y172317D01*
X369088Y172317D01*
X369088Y173319D01*
X374097Y164315D02*
X386120Y164315D01*
X374097Y164315D02*
X374097Y158304D01*
X376101Y158304D01*
X374097Y151021D02*
X386120Y151021D01*
X374097Y151021D02*
X374097Y142004D01*
X374099Y141897D01*
X374105Y141790D01*
X374114Y141683D01*
X374128Y141576D01*
X374145Y141470D01*
X374166Y141365D01*
X374190Y141261D01*
X374219Y141157D01*
X374251Y141055D01*
X374287Y140954D01*
X374326Y140854D01*
X374369Y140755D01*
X374415Y140658D01*
X374465Y140563D01*
X374518Y140470D01*
X374574Y140379D01*
X374634Y140290D01*
X374697Y140203D01*
X374762Y140118D01*
X374831Y140035D01*
X374903Y139956D01*
X374977Y139878D01*
X375055Y139804D01*
X375134Y139732D01*
X375217Y139663D01*
X375302Y139598D01*
X375389Y139535D01*
X375478Y139475D01*
X375569Y139419D01*
X375662Y139366D01*
X375757Y139316D01*
X375854Y139270D01*
X375953Y139227D01*
X376053Y139188D01*
X376154Y139152D01*
X376256Y139120D01*
X376360Y139091D01*
X376464Y139067D01*
X376569Y139046D01*
X376675Y139029D01*
X376782Y139015D01*
X376889Y139006D01*
X376996Y139000D01*
X377103Y138998D01*
X377103Y138999D02*
X386120Y138999D01*
X386120Y145010D02*
X374097Y145010D01*
X374097Y130011D02*
X386120Y127006D01*
X378105Y124000D01*
X386120Y120994D01*
X374097Y117989D01*
X379107Y106706D02*
X379107Y102197D01*
X379106Y106706D02*
X379108Y106823D01*
X379114Y106940D01*
X379124Y107057D01*
X379137Y107173D01*
X379155Y107289D01*
X379176Y107405D01*
X379202Y107519D01*
X379231Y107633D01*
X379263Y107745D01*
X379300Y107856D01*
X379340Y107966D01*
X379384Y108075D01*
X379432Y108182D01*
X379483Y108288D01*
X379538Y108391D01*
X379596Y108493D01*
X379657Y108593D01*
X379722Y108691D01*
X379790Y108786D01*
X379861Y108879D01*
X379935Y108970D01*
X380012Y109058D01*
X380092Y109144D01*
X380175Y109227D01*
X380261Y109307D01*
X380349Y109384D01*
X380440Y109458D01*
X380533Y109529D01*
X380628Y109597D01*
X380726Y109662D01*
X380826Y109723D01*
X380928Y109781D01*
X381031Y109836D01*
X381137Y109887D01*
X381244Y109935D01*
X381353Y109979D01*
X381463Y110019D01*
X381574Y110056D01*
X381686Y110088D01*
X381800Y110117D01*
X381914Y110143D01*
X382030Y110164D01*
X382146Y110182D01*
X382262Y110195D01*
X382379Y110205D01*
X382496Y110211D01*
X382613Y110213D01*
X382730Y110211D01*
X382847Y110205D01*
X382964Y110195D01*
X383080Y110182D01*
X383196Y110164D01*
X383312Y110143D01*
X383426Y110117D01*
X383540Y110088D01*
X383652Y110056D01*
X383763Y110019D01*
X383873Y109979D01*
X383982Y109935D01*
X384089Y109887D01*
X384195Y109836D01*
X384298Y109781D01*
X384400Y109723D01*
X384500Y109662D01*
X384598Y109597D01*
X384693Y109529D01*
X384786Y109458D01*
X384877Y109384D01*
X384965Y109307D01*
X385051Y109227D01*
X385134Y109144D01*
X385214Y109058D01*
X385291Y108970D01*
X385365Y108879D01*
X385436Y108786D01*
X385504Y108691D01*
X385569Y108593D01*
X385630Y108493D01*
X385688Y108391D01*
X385743Y108288D01*
X385794Y108182D01*
X385842Y108075D01*
X385886Y107966D01*
X385926Y107856D01*
X385963Y107745D01*
X385995Y107633D01*
X386024Y107519D01*
X386050Y107405D01*
X386071Y107289D01*
X386089Y107173D01*
X386102Y107057D01*
X386112Y106940D01*
X386118Y106823D01*
X386120Y106706D01*
X386120Y102197D01*
X377103Y102197D01*
X376996Y102199D01*
X376889Y102205D01*
X376782Y102214D01*
X376675Y102228D01*
X376569Y102245D01*
X376464Y102266D01*
X376360Y102290D01*
X376256Y102319D01*
X376154Y102351D01*
X376053Y102387D01*
X375953Y102426D01*
X375854Y102469D01*
X375757Y102515D01*
X375662Y102565D01*
X375569Y102618D01*
X375478Y102674D01*
X375389Y102734D01*
X375302Y102797D01*
X375217Y102862D01*
X375134Y102931D01*
X375055Y103003D01*
X374977Y103077D01*
X374903Y103155D01*
X374831Y103234D01*
X374762Y103317D01*
X374697Y103402D01*
X374634Y103489D01*
X374574Y103578D01*
X374518Y103669D01*
X374465Y103762D01*
X374415Y103857D01*
X374369Y103954D01*
X374326Y104053D01*
X374287Y104153D01*
X374251Y104254D01*
X374219Y104356D01*
X374190Y104460D01*
X374166Y104564D01*
X374145Y104669D01*
X374128Y104775D01*
X374114Y104882D01*
X374105Y104989D01*
X374099Y105096D01*
X374097Y105203D01*
X374097Y109211D01*
X374097Y92633D02*
X386120Y92633D01*
X374097Y92633D02*
X374097Y86622D01*
X376101Y86622D01*
X386120Y77420D02*
X386120Y72411D01*
X386120Y77420D02*
X386118Y77527D01*
X386112Y77634D01*
X386103Y77741D01*
X386089Y77848D01*
X386072Y77954D01*
X386051Y78059D01*
X386027Y78163D01*
X385998Y78267D01*
X385966Y78369D01*
X385930Y78470D01*
X385891Y78570D01*
X385848Y78669D01*
X385802Y78766D01*
X385752Y78861D01*
X385699Y78954D01*
X385643Y79045D01*
X385583Y79134D01*
X385520Y79221D01*
X385455Y79306D01*
X385386Y79389D01*
X385314Y79468D01*
X385240Y79546D01*
X385162Y79620D01*
X385083Y79692D01*
X385000Y79761D01*
X384915Y79826D01*
X384828Y79889D01*
X384739Y79949D01*
X384648Y80005D01*
X384555Y80058D01*
X384460Y80108D01*
X384363Y80154D01*
X384264Y80197D01*
X384164Y80236D01*
X384063Y80272D01*
X383961Y80304D01*
X383857Y80333D01*
X383753Y80357D01*
X383648Y80378D01*
X383542Y80395D01*
X383435Y80409D01*
X383328Y80418D01*
X383221Y80424D01*
X383114Y80426D01*
X378105Y80426D01*
X377979Y80424D01*
X377853Y80418D01*
X377728Y80408D01*
X377603Y80394D01*
X377478Y80377D01*
X377354Y80355D01*
X377231Y80329D01*
X377108Y80300D01*
X376987Y80267D01*
X376866Y80230D01*
X376747Y80189D01*
X376630Y80145D01*
X376513Y80096D01*
X376398Y80045D01*
X376285Y79989D01*
X376174Y79930D01*
X376065Y79868D01*
X375957Y79802D01*
X375852Y79733D01*
X375749Y79661D01*
X375648Y79585D01*
X375550Y79506D01*
X375454Y79424D01*
X375361Y79340D01*
X375271Y79252D01*
X375183Y79162D01*
X375099Y79069D01*
X375017Y78973D01*
X374938Y78875D01*
X374862Y78774D01*
X374790Y78671D01*
X374721Y78566D01*
X374655Y78458D01*
X374593Y78349D01*
X374534Y78238D01*
X374478Y78125D01*
X374427Y78010D01*
X374378Y77893D01*
X374334Y77776D01*
X374293Y77657D01*
X374256Y77536D01*
X374223Y77415D01*
X374194Y77292D01*
X374168Y77169D01*
X374146Y77045D01*
X374129Y76920D01*
X374115Y76795D01*
X374105Y76670D01*
X374099Y76544D01*
X374097Y76418D01*
X374099Y76292D01*
X374105Y76166D01*
X374115Y76041D01*
X374129Y75916D01*
X374146Y75791D01*
X374168Y75667D01*
X374194Y75544D01*
X374223Y75421D01*
X374256Y75300D01*
X374293Y75179D01*
X374334Y75060D01*
X374378Y74943D01*
X374427Y74826D01*
X374478Y74711D01*
X374534Y74598D01*
X374593Y74487D01*
X374655Y74378D01*
X374721Y74270D01*
X374790Y74165D01*
X374862Y74062D01*
X374938Y73961D01*
X375017Y73863D01*
X375099Y73767D01*
X375183Y73674D01*
X375271Y73584D01*
X375361Y73496D01*
X375454Y73412D01*
X375550Y73330D01*
X375648Y73251D01*
X375749Y73175D01*
X375852Y73103D01*
X375957Y73034D01*
X376065Y72968D01*
X376174Y72906D01*
X376285Y72847D01*
X376398Y72791D01*
X376513Y72740D01*
X376630Y72691D01*
X376747Y72647D01*
X376866Y72606D01*
X376987Y72569D01*
X377108Y72536D01*
X377231Y72507D01*
X377354Y72481D01*
X377478Y72459D01*
X377603Y72442D01*
X377728Y72428D01*
X377853Y72418D01*
X377979Y72412D01*
X378105Y72410D01*
X378105Y72411D02*
X380109Y72411D01*
X380109Y80426D01*
D15*
X47837Y131068D02*
X47874Y134048D01*
X47983Y137026D01*
X48166Y140000D01*
X48422Y142969D01*
X48750Y145931D01*
X49151Y148883D01*
X49625Y151826D01*
X50170Y154755D01*
X50787Y157670D01*
X51476Y160570D01*
X52235Y163451D01*
X53065Y166313D01*
X53965Y169154D01*
X54934Y171972D01*
X55973Y174765D01*
X57079Y177532D01*
X58253Y180271D01*
X59494Y182980D01*
X60801Y185658D01*
X62174Y188303D01*
X63611Y190914D01*
X65111Y193488D01*
X66674Y196025D01*
X68299Y198523D01*
X69985Y200980D01*
X71731Y203395D01*
X73535Y205767D01*
X75397Y208093D01*
X77316Y210374D01*
X79290Y212606D01*
X81318Y214789D01*
X83399Y216922D01*
X85532Y219003D01*
X87715Y221031D01*
X89947Y223005D01*
X92228Y224924D01*
X94554Y226786D01*
X96926Y228590D01*
X99341Y230336D01*
X101798Y232022D01*
X104296Y233647D01*
X106833Y235210D01*
X109407Y236710D01*
X112018Y238147D01*
X114663Y239520D01*
X117341Y240827D01*
X120050Y242068D01*
X122789Y243242D01*
X125556Y244348D01*
X128349Y245387D01*
X131167Y246356D01*
X134008Y247256D01*
X136870Y248086D01*
X139751Y248845D01*
X142651Y249534D01*
X145566Y250151D01*
X148495Y250696D01*
X151438Y251170D01*
X154390Y251571D01*
X157352Y251899D01*
X160321Y252155D01*
X163295Y252338D01*
X166273Y252447D01*
X169253Y252484D01*
X172233Y252447D01*
X175211Y252338D01*
X178185Y252155D01*
X181154Y251899D01*
X184116Y251571D01*
X187068Y251170D01*
X190011Y250696D01*
X192940Y250151D01*
X195855Y249534D01*
X198755Y248845D01*
X201636Y248086D01*
X204498Y247256D01*
X207339Y246356D01*
X210157Y245387D01*
X212950Y244348D01*
X215717Y243242D01*
X218456Y242068D01*
X221165Y240827D01*
X223843Y239520D01*
X226488Y238147D01*
X229099Y236710D01*
X231673Y235210D01*
X234210Y233647D01*
X236708Y232022D01*
X239165Y230336D01*
X241580Y228590D01*
X243952Y226786D01*
X246278Y224924D01*
X248559Y223005D01*
X250791Y221031D01*
X252974Y219003D01*
X255107Y216922D01*
X257188Y214789D01*
X259216Y212606D01*
X261190Y210374D01*
X263109Y208093D01*
X264971Y205767D01*
X266775Y203395D01*
X268521Y200980D01*
X270207Y198523D01*
X271832Y196025D01*
X273395Y193488D01*
X274895Y190914D01*
X276332Y188303D01*
X277705Y185658D01*
X279012Y182980D01*
X280253Y180271D01*
X281427Y177532D01*
X282533Y174765D01*
X283572Y171972D01*
X284541Y169154D01*
X285441Y166313D01*
X286271Y163451D01*
X287030Y160570D01*
X287719Y157670D01*
X288336Y154755D01*
X288881Y151826D01*
X289355Y148883D01*
X289756Y145931D01*
X290084Y142969D01*
X290340Y140000D01*
X290523Y137026D01*
X290632Y134048D01*
X290669Y131068D01*
X290632Y128088D01*
X290523Y125110D01*
X290340Y122136D01*
X290084Y119167D01*
X289756Y116205D01*
X289355Y113253D01*
X288881Y110310D01*
X288336Y107381D01*
X287719Y104466D01*
X287030Y101566D01*
X286271Y98685D01*
X285441Y95823D01*
X284541Y92982D01*
X283572Y90164D01*
X282533Y87371D01*
X281427Y84604D01*
X280253Y81865D01*
X279012Y79156D01*
X277705Y76478D01*
X276332Y73833D01*
X274895Y71222D01*
X273395Y68648D01*
X271832Y66111D01*
X270207Y63613D01*
X268521Y61156D01*
X266775Y58741D01*
X264971Y56369D01*
X263109Y54043D01*
X261190Y51762D01*
X259216Y49530D01*
X257188Y47347D01*
X255107Y45214D01*
X252974Y43133D01*
X250791Y41105D01*
X248559Y39131D01*
X246278Y37212D01*
X243952Y35350D01*
X241580Y33546D01*
X239165Y31800D01*
X236708Y30114D01*
X234210Y28489D01*
X231673Y26926D01*
X229099Y25426D01*
X226488Y23989D01*
X223843Y22616D01*
X221165Y21309D01*
X218456Y20068D01*
X215717Y18894D01*
X212950Y17788D01*
X210157Y16749D01*
X207339Y15780D01*
X204498Y14880D01*
X201636Y14050D01*
X198755Y13291D01*
X195855Y12602D01*
X192940Y11985D01*
X190011Y11440D01*
X187068Y10966D01*
X184116Y10565D01*
X181154Y10237D01*
X178185Y9981D01*
X175211Y9798D01*
X172233Y9689D01*
X169253Y9652D01*
X166273Y9689D01*
X163295Y9798D01*
X160321Y9981D01*
X157352Y10237D01*
X154390Y10565D01*
X151438Y10966D01*
X148495Y11440D01*
X145566Y11985D01*
X142651Y12602D01*
X139751Y13291D01*
X136870Y14050D01*
X134008Y14880D01*
X131167Y15780D01*
X128349Y16749D01*
X125556Y17788D01*
X122789Y18894D01*
X120050Y20068D01*
X117341Y21309D01*
X114663Y22616D01*
X112018Y23989D01*
X109407Y25426D01*
X106833Y26926D01*
X104296Y28489D01*
X101798Y30114D01*
X99341Y31800D01*
X96926Y33546D01*
X94554Y35350D01*
X92228Y37212D01*
X89947Y39131D01*
X87715Y41105D01*
X85532Y43133D01*
X83399Y45214D01*
X81318Y47347D01*
X79290Y49530D01*
X77316Y51762D01*
X75397Y54043D01*
X73535Y56369D01*
X71731Y58741D01*
X69985Y61156D01*
X68299Y63613D01*
X66674Y66111D01*
X65111Y68648D01*
X63611Y71222D01*
X62174Y73833D01*
X60801Y76478D01*
X59494Y79156D01*
X58253Y81865D01*
X57079Y84604D01*
X55973Y87371D01*
X54934Y90164D01*
X53965Y92982D01*
X53065Y95823D01*
X52235Y98685D01*
X51476Y101566D01*
X50787Y104466D01*
X50170Y107381D01*
X49625Y110310D01*
X49151Y113253D01*
X48750Y116205D01*
X48422Y119167D01*
X48166Y122136D01*
X47983Y125110D01*
X47874Y128088D01*
X47837Y131068D01*
D13*
X42000Y202460D02*
X42062Y202462D01*
X42123Y202468D01*
X42184Y202477D01*
X42244Y202490D01*
X42303Y202507D01*
X42361Y202528D01*
X42418Y202552D01*
X42473Y202579D01*
X42526Y202610D01*
X42578Y202644D01*
X42627Y202681D01*
X42674Y202721D01*
X42718Y202764D01*
X42759Y202809D01*
X42798Y202857D01*
X42834Y202908D01*
X42866Y202960D01*
X42895Y203014D01*
X42921Y203070D01*
X42943Y203128D01*
X42962Y203186D01*
X42977Y203246D01*
X42988Y203307D01*
X42996Y203368D01*
X43000Y203429D01*
X43000Y203491D01*
X42996Y203552D01*
X42988Y203613D01*
X42977Y203674D01*
X42962Y203734D01*
X42943Y203792D01*
X42921Y203850D01*
X42895Y203906D01*
X42866Y203960D01*
X42834Y204012D01*
X42798Y204063D01*
X42759Y204111D01*
X42718Y204156D01*
X42674Y204199D01*
X42627Y204239D01*
X42578Y204276D01*
X42526Y204310D01*
X42473Y204341D01*
X42418Y204368D01*
X42361Y204392D01*
X42303Y204413D01*
X42244Y204430D01*
X42184Y204443D01*
X42123Y204452D01*
X42062Y204458D01*
X42000Y204460D01*
X41938Y204458D01*
X41877Y204452D01*
X41816Y204443D01*
X41756Y204430D01*
X41697Y204413D01*
X41639Y204392D01*
X41582Y204368D01*
X41527Y204341D01*
X41474Y204310D01*
X41422Y204276D01*
X41373Y204239D01*
X41326Y204199D01*
X41282Y204156D01*
X41241Y204111D01*
X41202Y204063D01*
X41166Y204012D01*
X41134Y203960D01*
X41105Y203906D01*
X41079Y203850D01*
X41057Y203792D01*
X41038Y203734D01*
X41023Y203674D01*
X41012Y203613D01*
X41004Y203552D01*
X41000Y203491D01*
X41000Y203429D01*
X41004Y203368D01*
X41012Y203307D01*
X41023Y203246D01*
X41038Y203186D01*
X41057Y203128D01*
X41079Y203070D01*
X41105Y203014D01*
X41134Y202960D01*
X41166Y202908D01*
X41202Y202857D01*
X41241Y202809D01*
X41282Y202764D01*
X41326Y202721D01*
X41373Y202681D01*
X41422Y202644D01*
X41474Y202610D01*
X41527Y202579D01*
X41582Y202552D01*
X41639Y202528D01*
X41697Y202507D01*
X41756Y202490D01*
X41816Y202477D01*
X41877Y202468D01*
X41938Y202462D01*
X42000Y202460D01*
D16*
X56429Y206903D02*
X58065Y206903D01*
X58143Y206905D01*
X58221Y206910D01*
X58298Y206920D01*
X58375Y206933D01*
X58451Y206949D01*
X58526Y206969D01*
X58600Y206993D01*
X58673Y207020D01*
X58745Y207051D01*
X58815Y207085D01*
X58884Y207122D01*
X58950Y207163D01*
X59015Y207207D01*
X59077Y207253D01*
X59137Y207303D01*
X59195Y207355D01*
X59250Y207410D01*
X59302Y207468D01*
X59352Y207528D01*
X59398Y207590D01*
X59442Y207655D01*
X59483Y207722D01*
X59520Y207790D01*
X59554Y207860D01*
X59585Y207932D01*
X59612Y208005D01*
X59636Y208079D01*
X59656Y208154D01*
X59672Y208230D01*
X59685Y208307D01*
X59695Y208384D01*
X59700Y208462D01*
X59702Y208540D01*
X59702Y212632D01*
X59700Y212710D01*
X59695Y212788D01*
X59685Y212865D01*
X59672Y212942D01*
X59656Y213018D01*
X59636Y213093D01*
X59612Y213167D01*
X59585Y213240D01*
X59554Y213312D01*
X59520Y213382D01*
X59483Y213451D01*
X59442Y213517D01*
X59398Y213582D01*
X59352Y213644D01*
X59302Y213704D01*
X59250Y213762D01*
X59195Y213817D01*
X59137Y213869D01*
X59077Y213919D01*
X59015Y213965D01*
X58950Y214009D01*
X58884Y214050D01*
X58815Y214087D01*
X58745Y214121D01*
X58673Y214152D01*
X58600Y214179D01*
X58526Y214203D01*
X58451Y214223D01*
X58375Y214239D01*
X58298Y214252D01*
X58221Y214262D01*
X58143Y214267D01*
X58065Y214269D01*
X56429Y214269D01*
X51946Y210177D02*
X49491Y210177D01*
X51946Y210177D02*
X52024Y210179D01*
X52102Y210184D01*
X52179Y210194D01*
X52256Y210207D01*
X52332Y210223D01*
X52407Y210243D01*
X52481Y210267D01*
X52554Y210294D01*
X52626Y210325D01*
X52696Y210359D01*
X52765Y210396D01*
X52831Y210437D01*
X52896Y210481D01*
X52958Y210527D01*
X53018Y210577D01*
X53076Y210629D01*
X53131Y210684D01*
X53183Y210742D01*
X53233Y210802D01*
X53279Y210864D01*
X53323Y210929D01*
X53364Y210996D01*
X53401Y211064D01*
X53435Y211134D01*
X53466Y211206D01*
X53493Y211279D01*
X53517Y211353D01*
X53537Y211428D01*
X53553Y211504D01*
X53566Y211581D01*
X53576Y211658D01*
X53581Y211736D01*
X53583Y211814D01*
X53583Y212223D01*
X53581Y212312D01*
X53575Y212401D01*
X53565Y212490D01*
X53552Y212578D01*
X53535Y212666D01*
X53513Y212753D01*
X53488Y212838D01*
X53460Y212923D01*
X53427Y213006D01*
X53391Y213088D01*
X53352Y213168D01*
X53309Y213246D01*
X53263Y213322D01*
X53213Y213397D01*
X53160Y213469D01*
X53104Y213538D01*
X53045Y213605D01*
X52984Y213670D01*
X52919Y213731D01*
X52852Y213790D01*
X52783Y213846D01*
X52711Y213899D01*
X52636Y213949D01*
X52560Y213995D01*
X52482Y214038D01*
X52402Y214077D01*
X52320Y214113D01*
X52237Y214146D01*
X52152Y214174D01*
X52067Y214199D01*
X51980Y214221D01*
X51892Y214238D01*
X51804Y214251D01*
X51715Y214261D01*
X51626Y214267D01*
X51537Y214269D01*
X51448Y214267D01*
X51359Y214261D01*
X51270Y214251D01*
X51182Y214238D01*
X51094Y214221D01*
X51007Y214199D01*
X50922Y214174D01*
X50837Y214146D01*
X50754Y214113D01*
X50672Y214077D01*
X50592Y214038D01*
X50514Y213995D01*
X50438Y213949D01*
X50363Y213899D01*
X50291Y213846D01*
X50222Y213790D01*
X50155Y213731D01*
X50090Y213670D01*
X50029Y213605D01*
X49970Y213538D01*
X49914Y213469D01*
X49861Y213397D01*
X49811Y213322D01*
X49765Y213246D01*
X49722Y213168D01*
X49683Y213088D01*
X49647Y213006D01*
X49614Y212923D01*
X49586Y212838D01*
X49561Y212753D01*
X49539Y212666D01*
X49522Y212578D01*
X49509Y212490D01*
X49499Y212401D01*
X49493Y212312D01*
X49491Y212223D01*
X49491Y210177D01*
X49493Y210065D01*
X49499Y209954D01*
X49508Y209842D01*
X49521Y209731D01*
X49539Y209621D01*
X49559Y209511D01*
X49584Y209402D01*
X49612Y209294D01*
X49644Y209187D01*
X49680Y209081D01*
X49719Y208976D01*
X49762Y208873D01*
X49808Y208771D01*
X49858Y208671D01*
X49911Y208572D01*
X49968Y208476D01*
X50027Y208381D01*
X50090Y208289D01*
X50156Y208199D01*
X50225Y208111D01*
X50297Y208025D01*
X50372Y207942D01*
X50450Y207862D01*
X50530Y207784D01*
X50613Y207709D01*
X50699Y207637D01*
X50787Y207568D01*
X50877Y207502D01*
X50969Y207439D01*
X51064Y207380D01*
X51160Y207323D01*
X51259Y207270D01*
X51359Y207220D01*
X51461Y207174D01*
X51564Y207131D01*
X51669Y207092D01*
X51775Y207056D01*
X51882Y207024D01*
X51990Y206996D01*
X52099Y206971D01*
X52209Y206951D01*
X52319Y206933D01*
X52430Y206920D01*
X52542Y206911D01*
X52653Y206905D01*
X52765Y206903D01*
X21872Y165731D02*
X20235Y165731D01*
X21872Y165731D02*
X21950Y165733D01*
X22028Y165738D01*
X22105Y165748D01*
X22182Y165761D01*
X22258Y165777D01*
X22333Y165797D01*
X22407Y165821D01*
X22480Y165848D01*
X22552Y165879D01*
X22622Y165913D01*
X22691Y165950D01*
X22757Y165991D01*
X22822Y166035D01*
X22884Y166081D01*
X22944Y166131D01*
X23002Y166183D01*
X23057Y166238D01*
X23109Y166296D01*
X23159Y166356D01*
X23205Y166418D01*
X23249Y166483D01*
X23290Y166550D01*
X23327Y166618D01*
X23361Y166688D01*
X23392Y166760D01*
X23419Y166833D01*
X23443Y166907D01*
X23463Y166982D01*
X23479Y167058D01*
X23492Y167135D01*
X23502Y167212D01*
X23507Y167290D01*
X23509Y167368D01*
X23509Y171460D01*
X23507Y171538D01*
X23502Y171616D01*
X23492Y171693D01*
X23479Y171770D01*
X23463Y171846D01*
X23443Y171921D01*
X23419Y171995D01*
X23392Y172068D01*
X23361Y172140D01*
X23327Y172210D01*
X23290Y172279D01*
X23249Y172345D01*
X23205Y172410D01*
X23159Y172472D01*
X23109Y172532D01*
X23057Y172590D01*
X23002Y172645D01*
X22944Y172697D01*
X22884Y172747D01*
X22822Y172793D01*
X22757Y172837D01*
X22691Y172878D01*
X22622Y172915D01*
X22552Y172949D01*
X22480Y172980D01*
X22407Y173007D01*
X22333Y173031D01*
X22258Y173051D01*
X22182Y173067D01*
X22105Y173080D01*
X22028Y173090D01*
X21950Y173095D01*
X21872Y173097D01*
X20235Y173097D01*
X17390Y169823D02*
X14935Y169823D01*
X14855Y169821D01*
X14775Y169815D01*
X14695Y169805D01*
X14616Y169792D01*
X14537Y169774D01*
X14460Y169753D01*
X14384Y169727D01*
X14309Y169698D01*
X14235Y169666D01*
X14163Y169630D01*
X14093Y169590D01*
X14026Y169547D01*
X13960Y169501D01*
X13897Y169451D01*
X13836Y169399D01*
X13777Y169344D01*
X13722Y169285D01*
X13670Y169225D01*
X13620Y169161D01*
X13574Y169095D01*
X13531Y169028D01*
X13491Y168958D01*
X13455Y168886D01*
X13423Y168812D01*
X13394Y168738D01*
X13368Y168661D01*
X13347Y168584D01*
X13329Y168505D01*
X13316Y168426D01*
X13306Y168346D01*
X13300Y168266D01*
X13298Y168186D01*
X13298Y167777D01*
X13300Y167688D01*
X13306Y167599D01*
X13316Y167510D01*
X13329Y167422D01*
X13346Y167334D01*
X13368Y167247D01*
X13393Y167162D01*
X13421Y167077D01*
X13454Y166994D01*
X13490Y166912D01*
X13529Y166832D01*
X13572Y166754D01*
X13618Y166678D01*
X13668Y166603D01*
X13721Y166531D01*
X13777Y166462D01*
X13836Y166395D01*
X13897Y166330D01*
X13962Y166269D01*
X14029Y166210D01*
X14098Y166154D01*
X14170Y166101D01*
X14245Y166051D01*
X14321Y166005D01*
X14399Y165962D01*
X14479Y165923D01*
X14561Y165887D01*
X14644Y165854D01*
X14729Y165826D01*
X14814Y165801D01*
X14901Y165779D01*
X14989Y165762D01*
X15077Y165749D01*
X15166Y165739D01*
X15255Y165733D01*
X15344Y165731D01*
X15433Y165733D01*
X15522Y165739D01*
X15611Y165749D01*
X15699Y165762D01*
X15787Y165779D01*
X15874Y165801D01*
X15959Y165826D01*
X16044Y165854D01*
X16127Y165887D01*
X16209Y165923D01*
X16289Y165962D01*
X16367Y166005D01*
X16443Y166051D01*
X16518Y166101D01*
X16590Y166154D01*
X16659Y166210D01*
X16726Y166269D01*
X16791Y166330D01*
X16852Y166395D01*
X16911Y166462D01*
X16967Y166531D01*
X17020Y166603D01*
X17070Y166678D01*
X17116Y166754D01*
X17159Y166832D01*
X17198Y166912D01*
X17234Y166994D01*
X17267Y167077D01*
X17295Y167162D01*
X17320Y167247D01*
X17342Y167334D01*
X17359Y167422D01*
X17372Y167510D01*
X17382Y167599D01*
X17388Y167688D01*
X17390Y167777D01*
X17390Y169823D01*
X17388Y169935D01*
X17382Y170046D01*
X17373Y170158D01*
X17360Y170269D01*
X17342Y170379D01*
X17322Y170489D01*
X17297Y170598D01*
X17269Y170706D01*
X17237Y170813D01*
X17201Y170919D01*
X17162Y171024D01*
X17119Y171127D01*
X17073Y171229D01*
X17023Y171329D01*
X16970Y171428D01*
X16913Y171524D01*
X16854Y171619D01*
X16791Y171711D01*
X16725Y171801D01*
X16656Y171889D01*
X16584Y171975D01*
X16509Y172058D01*
X16431Y172138D01*
X16351Y172216D01*
X16268Y172291D01*
X16182Y172363D01*
X16094Y172432D01*
X16004Y172498D01*
X15912Y172561D01*
X15817Y172620D01*
X15721Y172677D01*
X15622Y172730D01*
X15522Y172780D01*
X15420Y172826D01*
X15317Y172869D01*
X15212Y172908D01*
X15106Y172944D01*
X14999Y172976D01*
X14891Y173004D01*
X14782Y173029D01*
X14672Y173049D01*
X14562Y173067D01*
X14451Y173080D01*
X14339Y173089D01*
X14228Y173095D01*
X14116Y173097D01*
D17*
X18000Y38500D02*
X17924Y38498D01*
X17848Y38492D01*
X17773Y38483D01*
X17698Y38469D01*
X17624Y38452D01*
X17551Y38431D01*
X17479Y38407D01*
X17408Y38378D01*
X17339Y38347D01*
X17272Y38312D01*
X17207Y38273D01*
X17143Y38231D01*
X17082Y38186D01*
X17023Y38138D01*
X16967Y38087D01*
X16913Y38033D01*
X16862Y37977D01*
X16814Y37918D01*
X16769Y37857D01*
X16727Y37793D01*
X16688Y37728D01*
X16653Y37661D01*
X16622Y37592D01*
X16593Y37521D01*
X16569Y37449D01*
X16548Y37376D01*
X16531Y37302D01*
X16517Y37227D01*
X16508Y37152D01*
X16502Y37076D01*
X16500Y37000D01*
X16500Y15500D01*
X16500Y15000D01*
X16502Y14924D01*
X16508Y14848D01*
X16517Y14773D01*
X16531Y14698D01*
X16548Y14624D01*
X16569Y14551D01*
X16593Y14479D01*
X16622Y14408D01*
X16653Y14339D01*
X16688Y14272D01*
X16727Y14207D01*
X16769Y14143D01*
X16814Y14082D01*
X16862Y14023D01*
X16913Y13967D01*
X16967Y13913D01*
X17023Y13862D01*
X17082Y13814D01*
X17143Y13769D01*
X17207Y13727D01*
X17272Y13688D01*
X17339Y13653D01*
X17408Y13622D01*
X17479Y13593D01*
X17551Y13569D01*
X17624Y13548D01*
X17698Y13531D01*
X17773Y13517D01*
X17848Y13508D01*
X17924Y13502D01*
X18000Y13500D01*
X39500Y13500D01*
X40000Y13500D01*
X40076Y13502D01*
X40152Y13508D01*
X40227Y13517D01*
X40302Y13531D01*
X40376Y13548D01*
X40449Y13569D01*
X40521Y13593D01*
X40592Y13622D01*
X40661Y13653D01*
X40728Y13688D01*
X40793Y13727D01*
X40857Y13769D01*
X40918Y13814D01*
X40977Y13862D01*
X41033Y13913D01*
X41087Y13967D01*
X41138Y14023D01*
X41186Y14082D01*
X41231Y14143D01*
X41273Y14207D01*
X41312Y14272D01*
X41347Y14339D01*
X41378Y14408D01*
X41407Y14479D01*
X41431Y14551D01*
X41452Y14624D01*
X41469Y14698D01*
X41483Y14773D01*
X41492Y14848D01*
X41498Y14924D01*
X41500Y15000D01*
X41500Y36500D01*
X41500Y37000D01*
X41498Y37076D01*
X41492Y37152D01*
X41483Y37227D01*
X41469Y37302D01*
X41452Y37376D01*
X41431Y37449D01*
X41407Y37521D01*
X41378Y37592D01*
X41347Y37661D01*
X41312Y37728D01*
X41273Y37793D01*
X41231Y37857D01*
X41186Y37918D01*
X41138Y37977D01*
X41087Y38033D01*
X41033Y38087D01*
X40977Y38138D01*
X40918Y38186D01*
X40857Y38231D01*
X40793Y38273D01*
X40728Y38312D01*
X40661Y38347D01*
X40592Y38378D01*
X40521Y38407D01*
X40449Y38431D01*
X40376Y38452D01*
X40302Y38469D01*
X40227Y38483D01*
X40152Y38492D01*
X40076Y38498D01*
X40000Y38500D01*
X18000Y38500D01*
D18*
X19000Y37000D02*
X18940Y36998D01*
X18879Y36993D01*
X18820Y36984D01*
X18761Y36971D01*
X18702Y36955D01*
X18645Y36935D01*
X18590Y36912D01*
X18535Y36885D01*
X18483Y36856D01*
X18432Y36823D01*
X18383Y36787D01*
X18337Y36749D01*
X18293Y36707D01*
X18251Y36663D01*
X18213Y36617D01*
X18177Y36568D01*
X18144Y36517D01*
X18115Y36465D01*
X18088Y36410D01*
X18065Y36355D01*
X18045Y36298D01*
X18029Y36239D01*
X18016Y36180D01*
X18007Y36121D01*
X18002Y36060D01*
X18000Y36000D01*
X39000Y37000D02*
X39060Y36998D01*
X39121Y36993D01*
X39180Y36984D01*
X39239Y36971D01*
X39298Y36955D01*
X39355Y36935D01*
X39410Y36912D01*
X39465Y36885D01*
X39517Y36856D01*
X39568Y36823D01*
X39617Y36787D01*
X39663Y36749D01*
X39707Y36707D01*
X39749Y36663D01*
X39787Y36617D01*
X39823Y36568D01*
X39856Y36517D01*
X39885Y36465D01*
X39912Y36410D01*
X39935Y36355D01*
X39955Y36298D01*
X39971Y36239D01*
X39984Y36180D01*
X39993Y36121D01*
X39998Y36060D01*
X40000Y36000D01*
X40000Y16000D02*
X39998Y15940D01*
X39993Y15879D01*
X39984Y15820D01*
X39971Y15761D01*
X39955Y15702D01*
X39935Y15645D01*
X39912Y15590D01*
X39885Y15535D01*
X39856Y15483D01*
X39823Y15432D01*
X39787Y15383D01*
X39749Y15337D01*
X39707Y15293D01*
X39663Y15251D01*
X39617Y15213D01*
X39568Y15177D01*
X39517Y15144D01*
X39465Y15115D01*
X39410Y15088D01*
X39355Y15065D01*
X39298Y15045D01*
X39239Y15029D01*
X39180Y15016D01*
X39121Y15007D01*
X39060Y15002D01*
X39000Y15000D01*
X19000Y15000D02*
X18940Y15002D01*
X18879Y15007D01*
X18820Y15016D01*
X18761Y15029D01*
X18702Y15045D01*
X18645Y15065D01*
X18590Y15088D01*
X18535Y15115D01*
X18483Y15144D01*
X18432Y15177D01*
X18383Y15213D01*
X18337Y15251D01*
X18293Y15293D01*
X18251Y15337D01*
X18213Y15383D01*
X18177Y15432D01*
X18144Y15483D01*
X18115Y15535D01*
X18088Y15590D01*
X18065Y15645D01*
X18045Y15702D01*
X18029Y15761D01*
X18016Y15820D01*
X18007Y15879D01*
X18002Y15940D01*
X18000Y16000D01*
D17*
X33000Y16500D02*
X33002Y16563D01*
X33008Y16625D01*
X33018Y16687D01*
X33031Y16749D01*
X33049Y16809D01*
X33070Y16868D01*
X33095Y16926D01*
X33124Y16982D01*
X33156Y17036D01*
X33191Y17088D01*
X33229Y17137D01*
X33271Y17185D01*
X33315Y17229D01*
X33363Y17271D01*
X33412Y17309D01*
X33464Y17344D01*
X33518Y17376D01*
X33574Y17405D01*
X33632Y17430D01*
X33691Y17451D01*
X33751Y17469D01*
X33813Y17482D01*
X33875Y17492D01*
X33937Y17498D01*
X34000Y17500D01*
X34063Y17498D01*
X34125Y17492D01*
X34187Y17482D01*
X34249Y17469D01*
X34309Y17451D01*
X34368Y17430D01*
X34426Y17405D01*
X34482Y17376D01*
X34536Y17344D01*
X34588Y17309D01*
X34637Y17271D01*
X34685Y17229D01*
X34729Y17185D01*
X34771Y17137D01*
X34809Y17088D01*
X34844Y17036D01*
X34876Y16982D01*
X34905Y16926D01*
X34930Y16868D01*
X34951Y16809D01*
X34969Y16749D01*
X34982Y16687D01*
X34992Y16625D01*
X34998Y16563D01*
X35000Y16500D01*
X34998Y16437D01*
X34992Y16375D01*
X34982Y16313D01*
X34969Y16251D01*
X34951Y16191D01*
X34930Y16132D01*
X34905Y16074D01*
X34876Y16018D01*
X34844Y15964D01*
X34809Y15912D01*
X34771Y15863D01*
X34729Y15815D01*
X34685Y15771D01*
X34637Y15729D01*
X34588Y15691D01*
X34536Y15656D01*
X34482Y15624D01*
X34426Y15595D01*
X34368Y15570D01*
X34309Y15549D01*
X34249Y15531D01*
X34187Y15518D01*
X34125Y15508D01*
X34063Y15502D01*
X34000Y15500D01*
X33937Y15502D01*
X33875Y15508D01*
X33813Y15518D01*
X33751Y15531D01*
X33691Y15549D01*
X33632Y15570D01*
X33574Y15595D01*
X33518Y15624D01*
X33464Y15656D01*
X33412Y15691D01*
X33363Y15729D01*
X33315Y15771D01*
X33271Y15815D01*
X33229Y15863D01*
X33191Y15912D01*
X33156Y15964D01*
X33124Y16018D01*
X33095Y16074D01*
X33070Y16132D01*
X33049Y16191D01*
X33031Y16251D01*
X33018Y16313D01*
X33008Y16375D01*
X33002Y16437D01*
X33000Y16500D01*
M02*
