G04 EAGLE Gerber RS-274X export*
G75*
%MOMM*%
%FSLAX34Y34*%
%LPD*%
%INSilkscreen Top*%
%IPPOS*%
%AMOC8*
5,1,8,0,0,1.08239X$1,22.5*%
G01*
%ADD10C,0.381000*%
%ADD11C,0.127000*%
%ADD12C,0.177800*%
%ADD13C,0.200000*%
%ADD14C,0.101600*%
%ADD15C,0.203200*%
%ADD16C,0.152400*%
%ADD17C,0.300000*%
%ADD18C,0.076200*%
%ADD19C,0.254000*%
%ADD20R,0.300000X2.100000*%
%ADD21R,0.300000X0.150000*%
%ADD22R,0.300000X0.300000*%

G36*
X397044Y43387D02*
X397044Y43387D01*
X397050Y43386D01*
X1010050Y83976D01*
X1010165Y84002D01*
X1010280Y84027D01*
X1010285Y84030D01*
X1010290Y84031D01*
X1010390Y84093D01*
X1010491Y84153D01*
X1010495Y84158D01*
X1010499Y84160D01*
X1010574Y84251D01*
X1010651Y84340D01*
X1010653Y84345D01*
X1010656Y84350D01*
X1010699Y84459D01*
X1010743Y84568D01*
X1010744Y84575D01*
X1010745Y84579D01*
X1010746Y84596D01*
X1010761Y84735D01*
X1010761Y169319D01*
X1010743Y169430D01*
X1010728Y169542D01*
X1010723Y169551D01*
X1010722Y169562D01*
X1010669Y169661D01*
X1010619Y169762D01*
X1010611Y169770D01*
X1010606Y169779D01*
X1010525Y169856D01*
X1010445Y169937D01*
X1010436Y169941D01*
X1010428Y169949D01*
X1010326Y169996D01*
X1010225Y170046D01*
X1010213Y170049D01*
X1010205Y170052D01*
X1010180Y170055D01*
X1010061Y170078D01*
X397061Y218993D01*
X397010Y218989D01*
X396961Y218995D01*
X396889Y218979D01*
X396815Y218973D01*
X396769Y218953D01*
X396720Y218942D01*
X396657Y218905D01*
X396590Y218875D01*
X396552Y218842D01*
X396509Y218816D01*
X396461Y218760D01*
X396407Y218711D01*
X396382Y218667D01*
X396349Y218629D01*
X396322Y218561D01*
X396286Y218497D01*
X396276Y218448D01*
X396257Y218401D01*
X396244Y218281D01*
X396239Y218255D01*
X396240Y218247D01*
X396239Y218234D01*
X396239Y44146D01*
X396246Y44102D01*
X396244Y44056D01*
X396266Y43981D01*
X396279Y43903D01*
X396300Y43863D01*
X396312Y43820D01*
X396357Y43755D01*
X396394Y43686D01*
X396426Y43655D01*
X396452Y43618D01*
X396515Y43571D01*
X396572Y43517D01*
X396613Y43497D01*
X396649Y43471D01*
X396724Y43446D01*
X396795Y43413D01*
X396840Y43408D01*
X396883Y43394D01*
X397023Y43388D01*
X397039Y43386D01*
X397044Y43387D01*
G37*
D10*
X344120Y96469D02*
X326086Y96469D01*
X326086Y101478D01*
X326087Y101478D02*
X326089Y101618D01*
X326095Y101759D01*
X326105Y101899D01*
X326118Y102039D01*
X326136Y102178D01*
X326158Y102317D01*
X326183Y102455D01*
X326213Y102593D01*
X326246Y102729D01*
X326283Y102865D01*
X326324Y102999D01*
X326368Y103132D01*
X326416Y103264D01*
X326468Y103395D01*
X326524Y103524D01*
X326583Y103651D01*
X326646Y103777D01*
X326712Y103901D01*
X326782Y104023D01*
X326855Y104143D01*
X326931Y104261D01*
X327011Y104377D01*
X327094Y104490D01*
X327180Y104601D01*
X327269Y104710D01*
X327361Y104816D01*
X327456Y104919D01*
X327554Y105020D01*
X327655Y105118D01*
X327758Y105213D01*
X327864Y105305D01*
X327973Y105394D01*
X328084Y105480D01*
X328197Y105563D01*
X328313Y105643D01*
X328431Y105719D01*
X328551Y105792D01*
X328673Y105862D01*
X328797Y105928D01*
X328923Y105991D01*
X329050Y106050D01*
X329179Y106106D01*
X329310Y106158D01*
X329442Y106206D01*
X329575Y106250D01*
X329709Y106291D01*
X329845Y106328D01*
X329981Y106361D01*
X330119Y106391D01*
X330257Y106416D01*
X330396Y106438D01*
X330535Y106456D01*
X330675Y106469D01*
X330815Y106479D01*
X330956Y106485D01*
X331096Y106487D01*
X331236Y106485D01*
X331377Y106479D01*
X331517Y106469D01*
X331657Y106456D01*
X331796Y106438D01*
X331935Y106416D01*
X332073Y106391D01*
X332211Y106361D01*
X332347Y106328D01*
X332483Y106291D01*
X332617Y106250D01*
X332750Y106206D01*
X332882Y106158D01*
X333013Y106106D01*
X333142Y106050D01*
X333269Y105991D01*
X333395Y105928D01*
X333519Y105862D01*
X333641Y105792D01*
X333761Y105719D01*
X333879Y105643D01*
X333995Y105563D01*
X334108Y105480D01*
X334219Y105394D01*
X334328Y105305D01*
X334434Y105213D01*
X334537Y105118D01*
X334638Y105020D01*
X334736Y104919D01*
X334831Y104816D01*
X334923Y104710D01*
X335012Y104601D01*
X335098Y104490D01*
X335181Y104377D01*
X335261Y104261D01*
X335337Y104143D01*
X335410Y104023D01*
X335480Y103901D01*
X335546Y103777D01*
X335609Y103651D01*
X335668Y103524D01*
X335724Y103395D01*
X335776Y103264D01*
X335824Y103132D01*
X335868Y102999D01*
X335909Y102865D01*
X335946Y102729D01*
X335979Y102593D01*
X336009Y102455D01*
X336034Y102317D01*
X336056Y102178D01*
X336074Y102039D01*
X336087Y101899D01*
X336097Y101759D01*
X336103Y101618D01*
X336105Y101478D01*
X336105Y96469D01*
X344120Y117801D02*
X326086Y117801D01*
X326086Y122810D02*
X326086Y112791D01*
X326086Y129092D02*
X344120Y135103D01*
X326086Y141114D01*
X331096Y148632D02*
X339111Y148632D01*
X331096Y148632D02*
X330956Y148634D01*
X330815Y148640D01*
X330675Y148650D01*
X330535Y148663D01*
X330396Y148681D01*
X330257Y148703D01*
X330119Y148728D01*
X329981Y148758D01*
X329845Y148791D01*
X329709Y148828D01*
X329575Y148869D01*
X329442Y148913D01*
X329310Y148961D01*
X329179Y149013D01*
X329050Y149069D01*
X328923Y149128D01*
X328797Y149191D01*
X328673Y149257D01*
X328551Y149327D01*
X328431Y149400D01*
X328313Y149476D01*
X328197Y149556D01*
X328084Y149639D01*
X327973Y149725D01*
X327864Y149814D01*
X327758Y149906D01*
X327655Y150001D01*
X327554Y150099D01*
X327456Y150200D01*
X327361Y150303D01*
X327269Y150409D01*
X327180Y150518D01*
X327094Y150629D01*
X327011Y150742D01*
X326931Y150858D01*
X326855Y150976D01*
X326782Y151096D01*
X326712Y151218D01*
X326646Y151342D01*
X326583Y151468D01*
X326524Y151595D01*
X326468Y151724D01*
X326416Y151855D01*
X326368Y151987D01*
X326324Y152120D01*
X326283Y152254D01*
X326246Y152390D01*
X326213Y152526D01*
X326183Y152664D01*
X326158Y152802D01*
X326136Y152941D01*
X326118Y153080D01*
X326105Y153220D01*
X326095Y153360D01*
X326089Y153501D01*
X326087Y153641D01*
X326089Y153781D01*
X326095Y153922D01*
X326105Y154062D01*
X326118Y154202D01*
X326136Y154341D01*
X326158Y154480D01*
X326183Y154618D01*
X326213Y154756D01*
X326246Y154892D01*
X326283Y155028D01*
X326324Y155162D01*
X326368Y155295D01*
X326416Y155427D01*
X326468Y155558D01*
X326524Y155687D01*
X326583Y155814D01*
X326646Y155940D01*
X326712Y156064D01*
X326782Y156186D01*
X326855Y156306D01*
X326931Y156424D01*
X327011Y156540D01*
X327094Y156653D01*
X327180Y156764D01*
X327269Y156873D01*
X327361Y156979D01*
X327456Y157082D01*
X327554Y157183D01*
X327655Y157281D01*
X327758Y157376D01*
X327864Y157468D01*
X327973Y157557D01*
X328084Y157643D01*
X328197Y157726D01*
X328313Y157806D01*
X328431Y157882D01*
X328551Y157955D01*
X328673Y158025D01*
X328797Y158091D01*
X328923Y158154D01*
X329050Y158213D01*
X329179Y158269D01*
X329310Y158321D01*
X329442Y158369D01*
X329575Y158413D01*
X329709Y158454D01*
X329845Y158491D01*
X329981Y158524D01*
X330119Y158554D01*
X330257Y158579D01*
X330396Y158601D01*
X330535Y158619D01*
X330675Y158632D01*
X330815Y158642D01*
X330956Y158648D01*
X331096Y158650D01*
X331096Y158651D02*
X339111Y158651D01*
X339111Y158650D02*
X339251Y158648D01*
X339392Y158642D01*
X339532Y158632D01*
X339672Y158619D01*
X339811Y158601D01*
X339950Y158579D01*
X340088Y158554D01*
X340226Y158524D01*
X340362Y158491D01*
X340498Y158454D01*
X340632Y158413D01*
X340765Y158369D01*
X340897Y158321D01*
X341028Y158269D01*
X341157Y158213D01*
X341284Y158154D01*
X341410Y158091D01*
X341534Y158025D01*
X341656Y157955D01*
X341776Y157882D01*
X341894Y157806D01*
X342010Y157726D01*
X342123Y157643D01*
X342234Y157557D01*
X342343Y157468D01*
X342449Y157376D01*
X342552Y157281D01*
X342653Y157183D01*
X342751Y157082D01*
X342846Y156979D01*
X342938Y156873D01*
X343027Y156764D01*
X343113Y156653D01*
X343196Y156540D01*
X343276Y156424D01*
X343352Y156306D01*
X343425Y156186D01*
X343495Y156064D01*
X343561Y155940D01*
X343624Y155814D01*
X343683Y155687D01*
X343739Y155558D01*
X343791Y155427D01*
X343839Y155295D01*
X343883Y155162D01*
X343924Y155028D01*
X343961Y154892D01*
X343994Y154756D01*
X344024Y154618D01*
X344049Y154480D01*
X344071Y154341D01*
X344089Y154202D01*
X344102Y154062D01*
X344112Y153922D01*
X344118Y153781D01*
X344120Y153641D01*
X344118Y153501D01*
X344112Y153360D01*
X344102Y153220D01*
X344089Y153080D01*
X344071Y152941D01*
X344049Y152802D01*
X344024Y152664D01*
X343994Y152526D01*
X343961Y152390D01*
X343924Y152254D01*
X343883Y152120D01*
X343839Y151987D01*
X343791Y151855D01*
X343739Y151724D01*
X343683Y151595D01*
X343624Y151468D01*
X343561Y151342D01*
X343495Y151218D01*
X343425Y151096D01*
X343352Y150976D01*
X343276Y150858D01*
X343196Y150742D01*
X343113Y150629D01*
X343027Y150518D01*
X342938Y150409D01*
X342846Y150303D01*
X342751Y150200D01*
X342653Y150099D01*
X342552Y150001D01*
X342449Y149906D01*
X342343Y149814D01*
X342234Y149725D01*
X342123Y149639D01*
X342010Y149556D01*
X341894Y149476D01*
X341776Y149400D01*
X341656Y149327D01*
X341534Y149257D01*
X341410Y149191D01*
X341284Y149128D01*
X341157Y149069D01*
X341028Y149013D01*
X340897Y148961D01*
X340765Y148913D01*
X340632Y148869D01*
X340498Y148828D01*
X340362Y148791D01*
X340226Y148758D01*
X340088Y148728D01*
X339950Y148703D01*
X339811Y148681D01*
X339672Y148663D01*
X339532Y148650D01*
X339392Y148640D01*
X339251Y148634D01*
X339111Y148632D01*
X348586Y88719D02*
X366620Y88719D01*
X348586Y88719D02*
X348586Y96734D01*
X356601Y96734D02*
X356601Y88719D01*
X363614Y104019D02*
X348586Y104019D01*
X363614Y104019D02*
X363721Y104021D01*
X363828Y104027D01*
X363935Y104036D01*
X364042Y104050D01*
X364148Y104067D01*
X364253Y104088D01*
X364357Y104112D01*
X364461Y104141D01*
X364563Y104173D01*
X364664Y104209D01*
X364764Y104248D01*
X364863Y104291D01*
X364960Y104337D01*
X365055Y104387D01*
X365148Y104440D01*
X365239Y104496D01*
X365328Y104556D01*
X365415Y104619D01*
X365500Y104684D01*
X365583Y104753D01*
X365662Y104825D01*
X365740Y104899D01*
X365814Y104977D01*
X365886Y105057D01*
X365955Y105139D01*
X366020Y105224D01*
X366083Y105311D01*
X366143Y105400D01*
X366199Y105491D01*
X366252Y105584D01*
X366302Y105679D01*
X366348Y105776D01*
X366391Y105875D01*
X366430Y105975D01*
X366466Y106076D01*
X366498Y106178D01*
X366527Y106282D01*
X366551Y106386D01*
X366572Y106491D01*
X366589Y106597D01*
X366603Y106704D01*
X366612Y106811D01*
X366618Y106918D01*
X366620Y107025D01*
X362613Y113765D02*
X358605Y113765D01*
X358605Y113764D02*
X358479Y113766D01*
X358353Y113772D01*
X358228Y113782D01*
X358103Y113796D01*
X357978Y113813D01*
X357854Y113835D01*
X357731Y113861D01*
X357608Y113890D01*
X357487Y113923D01*
X357366Y113960D01*
X357247Y114001D01*
X357130Y114045D01*
X357013Y114094D01*
X356898Y114145D01*
X356785Y114201D01*
X356674Y114260D01*
X356565Y114322D01*
X356457Y114388D01*
X356352Y114457D01*
X356249Y114529D01*
X356148Y114605D01*
X356050Y114684D01*
X355954Y114766D01*
X355861Y114850D01*
X355771Y114938D01*
X355683Y115028D01*
X355599Y115121D01*
X355517Y115217D01*
X355438Y115315D01*
X355362Y115416D01*
X355290Y115519D01*
X355221Y115624D01*
X355155Y115732D01*
X355093Y115841D01*
X355034Y115952D01*
X354978Y116065D01*
X354927Y116180D01*
X354878Y116297D01*
X354834Y116414D01*
X354793Y116533D01*
X354756Y116654D01*
X354723Y116775D01*
X354694Y116898D01*
X354668Y117021D01*
X354646Y117145D01*
X354629Y117270D01*
X354615Y117395D01*
X354605Y117520D01*
X354599Y117646D01*
X354597Y117772D01*
X354599Y117898D01*
X354605Y118024D01*
X354615Y118149D01*
X354629Y118274D01*
X354646Y118399D01*
X354668Y118523D01*
X354694Y118646D01*
X354723Y118769D01*
X354756Y118890D01*
X354793Y119011D01*
X354834Y119130D01*
X354878Y119247D01*
X354927Y119364D01*
X354978Y119479D01*
X355034Y119592D01*
X355093Y119703D01*
X355155Y119812D01*
X355221Y119920D01*
X355290Y120025D01*
X355362Y120128D01*
X355438Y120229D01*
X355517Y120327D01*
X355599Y120423D01*
X355683Y120516D01*
X355771Y120606D01*
X355861Y120694D01*
X355954Y120778D01*
X356050Y120860D01*
X356148Y120939D01*
X356249Y121015D01*
X356352Y121087D01*
X356457Y121156D01*
X356565Y121222D01*
X356674Y121284D01*
X356785Y121343D01*
X356898Y121399D01*
X357013Y121450D01*
X357130Y121499D01*
X357247Y121543D01*
X357366Y121584D01*
X357487Y121621D01*
X357608Y121654D01*
X357731Y121683D01*
X357854Y121709D01*
X357978Y121731D01*
X358103Y121748D01*
X358228Y121762D01*
X358353Y121772D01*
X358479Y121778D01*
X358605Y121780D01*
X362613Y121780D01*
X362739Y121778D01*
X362865Y121772D01*
X362990Y121762D01*
X363115Y121748D01*
X363240Y121731D01*
X363364Y121709D01*
X363487Y121683D01*
X363610Y121654D01*
X363731Y121621D01*
X363852Y121584D01*
X363971Y121543D01*
X364088Y121499D01*
X364205Y121450D01*
X364320Y121399D01*
X364433Y121343D01*
X364544Y121284D01*
X364653Y121222D01*
X364761Y121156D01*
X364866Y121087D01*
X364969Y121015D01*
X365070Y120939D01*
X365168Y120860D01*
X365264Y120778D01*
X365357Y120694D01*
X365447Y120606D01*
X365535Y120516D01*
X365619Y120423D01*
X365701Y120327D01*
X365780Y120229D01*
X365856Y120128D01*
X365928Y120025D01*
X365997Y119920D01*
X366063Y119812D01*
X366125Y119703D01*
X366184Y119592D01*
X366240Y119479D01*
X366291Y119364D01*
X366340Y119247D01*
X366384Y119130D01*
X366425Y119011D01*
X366462Y118890D01*
X366495Y118769D01*
X366524Y118646D01*
X366550Y118523D01*
X366572Y118399D01*
X366589Y118274D01*
X366603Y118149D01*
X366613Y118024D01*
X366619Y117898D01*
X366621Y117772D01*
X366619Y117646D01*
X366613Y117520D01*
X366603Y117395D01*
X366589Y117270D01*
X366572Y117145D01*
X366550Y117021D01*
X366524Y116898D01*
X366495Y116775D01*
X366462Y116654D01*
X366425Y116533D01*
X366384Y116414D01*
X366340Y116297D01*
X366291Y116180D01*
X366240Y116065D01*
X366184Y115952D01*
X366125Y115841D01*
X366063Y115732D01*
X365997Y115624D01*
X365928Y115519D01*
X365856Y115416D01*
X365780Y115315D01*
X365701Y115217D01*
X365619Y115121D01*
X365535Y115028D01*
X365447Y114938D01*
X365357Y114850D01*
X365264Y114766D01*
X365168Y114684D01*
X365070Y114605D01*
X364969Y114529D01*
X364866Y114457D01*
X364761Y114388D01*
X364653Y114322D01*
X364544Y114260D01*
X364433Y114201D01*
X364320Y114145D01*
X364205Y114094D01*
X364088Y114045D01*
X363971Y114001D01*
X363852Y113960D01*
X363731Y113923D01*
X363610Y113890D01*
X363487Y113861D01*
X363364Y113835D01*
X363240Y113813D01*
X363115Y113796D01*
X362990Y113782D01*
X362865Y113772D01*
X362739Y113766D01*
X362613Y113764D01*
X354597Y129681D02*
X366620Y132687D01*
X358605Y135693D01*
X366620Y138698D01*
X354597Y141704D01*
X366620Y152611D02*
X366620Y157621D01*
X366620Y152611D02*
X366618Y152504D01*
X366612Y152397D01*
X366603Y152290D01*
X366589Y152183D01*
X366572Y152077D01*
X366551Y151972D01*
X366527Y151868D01*
X366498Y151764D01*
X366466Y151662D01*
X366430Y151561D01*
X366391Y151461D01*
X366348Y151362D01*
X366302Y151265D01*
X366252Y151170D01*
X366199Y151077D01*
X366143Y150986D01*
X366083Y150897D01*
X366020Y150810D01*
X365955Y150725D01*
X365886Y150642D01*
X365814Y150563D01*
X365740Y150485D01*
X365662Y150411D01*
X365583Y150339D01*
X365500Y150270D01*
X365415Y150205D01*
X365328Y150142D01*
X365239Y150082D01*
X365148Y150026D01*
X365055Y149973D01*
X364960Y149923D01*
X364863Y149877D01*
X364764Y149834D01*
X364665Y149795D01*
X364563Y149759D01*
X364461Y149727D01*
X364357Y149698D01*
X364253Y149674D01*
X364148Y149653D01*
X364042Y149636D01*
X363935Y149622D01*
X363828Y149613D01*
X363721Y149607D01*
X363614Y149605D01*
X358605Y149605D01*
X358479Y149607D01*
X358353Y149613D01*
X358228Y149623D01*
X358103Y149637D01*
X357978Y149654D01*
X357854Y149676D01*
X357731Y149702D01*
X357608Y149731D01*
X357487Y149764D01*
X357366Y149801D01*
X357247Y149842D01*
X357130Y149886D01*
X357013Y149935D01*
X356898Y149986D01*
X356785Y150042D01*
X356674Y150101D01*
X356565Y150163D01*
X356457Y150229D01*
X356352Y150298D01*
X356249Y150370D01*
X356148Y150446D01*
X356050Y150525D01*
X355954Y150607D01*
X355861Y150691D01*
X355771Y150779D01*
X355683Y150869D01*
X355599Y150962D01*
X355517Y151058D01*
X355438Y151156D01*
X355362Y151257D01*
X355290Y151360D01*
X355221Y151465D01*
X355155Y151573D01*
X355093Y151682D01*
X355034Y151793D01*
X354978Y151906D01*
X354927Y152021D01*
X354878Y152138D01*
X354834Y152255D01*
X354793Y152374D01*
X354756Y152495D01*
X354723Y152616D01*
X354694Y152739D01*
X354668Y152862D01*
X354646Y152986D01*
X354629Y153111D01*
X354615Y153236D01*
X354605Y153361D01*
X354599Y153487D01*
X354597Y153613D01*
X354599Y153739D01*
X354605Y153865D01*
X354615Y153990D01*
X354629Y154115D01*
X354646Y154240D01*
X354668Y154364D01*
X354694Y154487D01*
X354723Y154610D01*
X354756Y154731D01*
X354793Y154852D01*
X354834Y154971D01*
X354878Y155088D01*
X354927Y155205D01*
X354978Y155320D01*
X355034Y155433D01*
X355093Y155544D01*
X355155Y155653D01*
X355221Y155761D01*
X355290Y155866D01*
X355362Y155969D01*
X355438Y156070D01*
X355517Y156168D01*
X355599Y156264D01*
X355683Y156357D01*
X355771Y156447D01*
X355861Y156535D01*
X355954Y156619D01*
X356050Y156701D01*
X356148Y156780D01*
X356249Y156856D01*
X356352Y156928D01*
X356457Y156997D01*
X356565Y157063D01*
X356674Y157125D01*
X356785Y157184D01*
X356898Y157240D01*
X357013Y157291D01*
X357130Y157340D01*
X357247Y157384D01*
X357366Y157425D01*
X357487Y157462D01*
X357608Y157495D01*
X357731Y157524D01*
X357854Y157550D01*
X357978Y157572D01*
X358103Y157589D01*
X358228Y157603D01*
X358353Y157613D01*
X358479Y157619D01*
X358605Y157621D01*
X360609Y157621D01*
X360609Y149605D01*
X366620Y166441D02*
X354597Y166441D01*
X354597Y172453D01*
X356601Y172453D01*
X386113Y92738D02*
X386239Y92736D01*
X386365Y92730D01*
X386490Y92720D01*
X386615Y92706D01*
X386740Y92689D01*
X386864Y92667D01*
X386987Y92641D01*
X387110Y92612D01*
X387231Y92579D01*
X387352Y92542D01*
X387471Y92501D01*
X387588Y92457D01*
X387705Y92408D01*
X387820Y92357D01*
X387933Y92301D01*
X388044Y92242D01*
X388153Y92180D01*
X388261Y92114D01*
X388366Y92045D01*
X388469Y91973D01*
X388570Y91897D01*
X388668Y91818D01*
X388764Y91736D01*
X388857Y91652D01*
X388947Y91564D01*
X389035Y91474D01*
X389119Y91381D01*
X389201Y91285D01*
X389280Y91187D01*
X389356Y91086D01*
X389428Y90983D01*
X389497Y90878D01*
X389563Y90770D01*
X389625Y90661D01*
X389684Y90550D01*
X389740Y90437D01*
X389791Y90322D01*
X389840Y90205D01*
X389884Y90088D01*
X389925Y89969D01*
X389962Y89848D01*
X389995Y89727D01*
X390024Y89604D01*
X390050Y89481D01*
X390072Y89357D01*
X390089Y89232D01*
X390103Y89107D01*
X390113Y88982D01*
X390119Y88856D01*
X390121Y88730D01*
X390120Y88730D02*
X390118Y88527D01*
X390110Y88325D01*
X390098Y88123D01*
X390081Y87921D01*
X390059Y87720D01*
X390033Y87519D01*
X390002Y87319D01*
X389965Y87119D01*
X389924Y86921D01*
X389879Y86724D01*
X389828Y86527D01*
X389773Y86332D01*
X389714Y86139D01*
X389649Y85947D01*
X389581Y85756D01*
X389507Y85568D01*
X389429Y85381D01*
X389347Y85196D01*
X389260Y85013D01*
X389169Y84832D01*
X389074Y84653D01*
X388974Y84477D01*
X388870Y84303D01*
X388762Y84131D01*
X388650Y83963D01*
X388534Y83797D01*
X388414Y83633D01*
X388290Y83473D01*
X388162Y83316D01*
X388031Y83162D01*
X387896Y83011D01*
X387757Y82863D01*
X387615Y82719D01*
X376094Y83219D02*
X375968Y83221D01*
X375842Y83227D01*
X375717Y83237D01*
X375592Y83251D01*
X375467Y83268D01*
X375343Y83290D01*
X375220Y83316D01*
X375097Y83345D01*
X374976Y83378D01*
X374855Y83415D01*
X374736Y83456D01*
X374619Y83500D01*
X374502Y83549D01*
X374387Y83600D01*
X374274Y83656D01*
X374163Y83715D01*
X374054Y83777D01*
X373946Y83843D01*
X373841Y83912D01*
X373738Y83984D01*
X373637Y84060D01*
X373539Y84139D01*
X373443Y84221D01*
X373350Y84305D01*
X373260Y84393D01*
X373172Y84483D01*
X373088Y84576D01*
X373006Y84672D01*
X372927Y84770D01*
X372851Y84871D01*
X372779Y84974D01*
X372710Y85079D01*
X372644Y85187D01*
X372582Y85296D01*
X372523Y85407D01*
X372467Y85520D01*
X372416Y85635D01*
X372367Y85752D01*
X372323Y85869D01*
X372282Y85988D01*
X372245Y86109D01*
X372212Y86230D01*
X372183Y86353D01*
X372157Y86476D01*
X372135Y86600D01*
X372118Y86725D01*
X372104Y86850D01*
X372094Y86975D01*
X372088Y87101D01*
X372086Y87227D01*
X372088Y87406D01*
X372095Y87585D01*
X372105Y87764D01*
X372120Y87942D01*
X372139Y88120D01*
X372163Y88298D01*
X372190Y88475D01*
X372222Y88651D01*
X372258Y88826D01*
X372298Y89001D01*
X372343Y89174D01*
X372391Y89347D01*
X372444Y89518D01*
X372500Y89688D01*
X372561Y89856D01*
X372626Y90023D01*
X372694Y90189D01*
X372767Y90353D01*
X372843Y90515D01*
X372924Y90675D01*
X373008Y90833D01*
X373095Y90989D01*
X373187Y91143D01*
X373282Y91294D01*
X373381Y91444D01*
X373483Y91591D01*
X373589Y91735D01*
X379600Y85224D02*
X379536Y85118D01*
X379468Y85014D01*
X379397Y84912D01*
X379323Y84812D01*
X379245Y84714D01*
X379165Y84619D01*
X379082Y84527D01*
X378997Y84437D01*
X378908Y84350D01*
X378817Y84265D01*
X378723Y84183D01*
X378627Y84104D01*
X378529Y84029D01*
X378428Y83956D01*
X378325Y83886D01*
X378220Y83820D01*
X378113Y83756D01*
X378004Y83696D01*
X377894Y83640D01*
X377782Y83586D01*
X377668Y83537D01*
X377552Y83490D01*
X377436Y83447D01*
X377318Y83408D01*
X377199Y83373D01*
X377078Y83341D01*
X376957Y83313D01*
X376836Y83288D01*
X376713Y83267D01*
X376590Y83250D01*
X376466Y83237D01*
X376342Y83228D01*
X376218Y83222D01*
X376094Y83220D01*
X382607Y90733D02*
X382671Y90839D01*
X382739Y90944D01*
X382810Y91045D01*
X382884Y91145D01*
X382962Y91243D01*
X383042Y91338D01*
X383125Y91430D01*
X383210Y91520D01*
X383299Y91607D01*
X383390Y91692D01*
X383484Y91774D01*
X383580Y91853D01*
X383678Y91928D01*
X383779Y92001D01*
X383882Y92071D01*
X383987Y92137D01*
X384094Y92201D01*
X384203Y92261D01*
X384313Y92317D01*
X384425Y92371D01*
X384539Y92420D01*
X384655Y92467D01*
X384771Y92510D01*
X384889Y92549D01*
X385008Y92584D01*
X385129Y92616D01*
X385250Y92644D01*
X385371Y92669D01*
X385494Y92690D01*
X385617Y92707D01*
X385741Y92720D01*
X385865Y92729D01*
X385989Y92735D01*
X386113Y92737D01*
X382606Y90734D02*
X379600Y85223D01*
X390120Y103411D02*
X390120Y108420D01*
X390120Y103411D02*
X390118Y103304D01*
X390112Y103197D01*
X390103Y103090D01*
X390089Y102983D01*
X390072Y102877D01*
X390051Y102772D01*
X390027Y102668D01*
X389998Y102564D01*
X389966Y102462D01*
X389930Y102361D01*
X389891Y102261D01*
X389848Y102162D01*
X389802Y102065D01*
X389752Y101970D01*
X389699Y101877D01*
X389643Y101786D01*
X389583Y101697D01*
X389520Y101610D01*
X389455Y101525D01*
X389386Y101442D01*
X389314Y101363D01*
X389240Y101285D01*
X389162Y101211D01*
X389083Y101139D01*
X389000Y101070D01*
X388915Y101005D01*
X388828Y100942D01*
X388739Y100882D01*
X388648Y100826D01*
X388555Y100773D01*
X388460Y100723D01*
X388363Y100677D01*
X388264Y100634D01*
X388165Y100595D01*
X388063Y100559D01*
X387961Y100527D01*
X387857Y100498D01*
X387753Y100474D01*
X387648Y100453D01*
X387542Y100436D01*
X387435Y100422D01*
X387328Y100413D01*
X387221Y100407D01*
X387114Y100405D01*
X382105Y100405D01*
X382105Y100404D02*
X381979Y100406D01*
X381853Y100412D01*
X381728Y100422D01*
X381603Y100436D01*
X381478Y100453D01*
X381354Y100475D01*
X381231Y100501D01*
X381108Y100530D01*
X380987Y100563D01*
X380866Y100600D01*
X380747Y100641D01*
X380630Y100685D01*
X380513Y100734D01*
X380398Y100785D01*
X380285Y100841D01*
X380174Y100900D01*
X380065Y100962D01*
X379957Y101028D01*
X379852Y101097D01*
X379749Y101169D01*
X379648Y101245D01*
X379550Y101324D01*
X379454Y101406D01*
X379361Y101490D01*
X379271Y101578D01*
X379183Y101668D01*
X379099Y101761D01*
X379017Y101857D01*
X378938Y101955D01*
X378862Y102056D01*
X378790Y102159D01*
X378721Y102264D01*
X378655Y102372D01*
X378593Y102481D01*
X378534Y102592D01*
X378478Y102705D01*
X378427Y102820D01*
X378378Y102937D01*
X378334Y103054D01*
X378293Y103173D01*
X378256Y103294D01*
X378223Y103415D01*
X378194Y103538D01*
X378168Y103661D01*
X378146Y103785D01*
X378129Y103910D01*
X378115Y104035D01*
X378105Y104160D01*
X378099Y104286D01*
X378097Y104412D01*
X378099Y104538D01*
X378105Y104664D01*
X378115Y104789D01*
X378129Y104914D01*
X378146Y105039D01*
X378168Y105163D01*
X378194Y105286D01*
X378223Y105409D01*
X378256Y105530D01*
X378293Y105651D01*
X378334Y105770D01*
X378378Y105887D01*
X378427Y106004D01*
X378478Y106119D01*
X378534Y106232D01*
X378593Y106343D01*
X378655Y106452D01*
X378721Y106560D01*
X378790Y106665D01*
X378862Y106768D01*
X378938Y106869D01*
X379017Y106967D01*
X379099Y107063D01*
X379183Y107156D01*
X379271Y107246D01*
X379361Y107334D01*
X379454Y107418D01*
X379550Y107500D01*
X379648Y107579D01*
X379749Y107655D01*
X379852Y107727D01*
X379957Y107796D01*
X380065Y107862D01*
X380174Y107924D01*
X380285Y107983D01*
X380398Y108039D01*
X380513Y108090D01*
X380630Y108139D01*
X380747Y108183D01*
X380866Y108224D01*
X380987Y108261D01*
X381108Y108294D01*
X381231Y108323D01*
X381354Y108349D01*
X381478Y108371D01*
X381603Y108388D01*
X381728Y108402D01*
X381853Y108412D01*
X381979Y108418D01*
X382105Y108420D01*
X384109Y108420D01*
X384109Y100405D01*
X390120Y117089D02*
X378097Y117089D01*
X378097Y122099D01*
X378099Y122206D01*
X378105Y122313D01*
X378114Y122420D01*
X378128Y122527D01*
X378145Y122633D01*
X378166Y122738D01*
X378190Y122842D01*
X378219Y122946D01*
X378251Y123048D01*
X378287Y123149D01*
X378326Y123249D01*
X378369Y123348D01*
X378415Y123445D01*
X378465Y123540D01*
X378518Y123633D01*
X378574Y123724D01*
X378634Y123813D01*
X378697Y123900D01*
X378762Y123985D01*
X378831Y124068D01*
X378903Y124147D01*
X378977Y124225D01*
X379055Y124299D01*
X379135Y124371D01*
X379217Y124440D01*
X379302Y124505D01*
X379389Y124568D01*
X379478Y124628D01*
X379569Y124684D01*
X379662Y124737D01*
X379757Y124787D01*
X379854Y124833D01*
X379953Y124876D01*
X380053Y124915D01*
X380154Y124951D01*
X380256Y124983D01*
X380360Y125012D01*
X380464Y125036D01*
X380569Y125057D01*
X380675Y125074D01*
X380782Y125088D01*
X380889Y125097D01*
X380996Y125103D01*
X381103Y125105D01*
X390120Y125105D01*
X383107Y135277D02*
X385111Y140286D01*
X383107Y135277D02*
X383068Y135185D01*
X383026Y135094D01*
X382980Y135005D01*
X382930Y134918D01*
X382878Y134833D01*
X382822Y134750D01*
X382763Y134669D01*
X382701Y134591D01*
X382635Y134514D01*
X382567Y134441D01*
X382497Y134370D01*
X382423Y134302D01*
X382347Y134237D01*
X382269Y134175D01*
X382188Y134116D01*
X382105Y134060D01*
X382020Y134007D01*
X381932Y133958D01*
X381843Y133912D01*
X381753Y133869D01*
X381661Y133830D01*
X381567Y133795D01*
X381472Y133763D01*
X381376Y133735D01*
X381279Y133710D01*
X381181Y133690D01*
X381082Y133673D01*
X380983Y133660D01*
X380883Y133651D01*
X380783Y133645D01*
X380683Y133644D01*
X380583Y133646D01*
X380483Y133653D01*
X380383Y133663D01*
X380284Y133677D01*
X380185Y133694D01*
X380088Y133716D01*
X379991Y133741D01*
X379895Y133770D01*
X379800Y133803D01*
X379707Y133839D01*
X379615Y133879D01*
X379525Y133922D01*
X379436Y133969D01*
X379350Y134019D01*
X379265Y134073D01*
X379182Y134130D01*
X379102Y134190D01*
X379024Y134252D01*
X378949Y134318D01*
X378876Y134387D01*
X378806Y134459D01*
X378739Y134533D01*
X378674Y134609D01*
X378613Y134688D01*
X378554Y134770D01*
X378499Y134853D01*
X378447Y134939D01*
X378399Y135027D01*
X378354Y135116D01*
X378312Y135207D01*
X378274Y135300D01*
X378239Y135394D01*
X378209Y135489D01*
X378181Y135585D01*
X378158Y135683D01*
X378138Y135781D01*
X378122Y135880D01*
X378110Y135979D01*
X378102Y136079D01*
X378098Y136179D01*
X378097Y136279D01*
X378104Y136552D01*
X378118Y136825D01*
X378138Y137098D01*
X378165Y137370D01*
X378199Y137642D01*
X378239Y137913D01*
X378285Y138182D01*
X378338Y138451D01*
X378397Y138718D01*
X378463Y138983D01*
X378535Y139247D01*
X378614Y139509D01*
X378698Y139769D01*
X378789Y140027D01*
X378887Y140283D01*
X378990Y140536D01*
X379099Y140787D01*
X385111Y140286D02*
X385150Y140378D01*
X385192Y140469D01*
X385238Y140558D01*
X385288Y140645D01*
X385340Y140730D01*
X385396Y140813D01*
X385455Y140894D01*
X385517Y140972D01*
X385583Y141049D01*
X385651Y141122D01*
X385721Y141193D01*
X385795Y141261D01*
X385871Y141326D01*
X385949Y141388D01*
X386030Y141447D01*
X386113Y141503D01*
X386198Y141556D01*
X386286Y141605D01*
X386375Y141651D01*
X386465Y141694D01*
X386557Y141733D01*
X386651Y141768D01*
X386746Y141800D01*
X386842Y141828D01*
X386939Y141853D01*
X387037Y141873D01*
X387136Y141890D01*
X387235Y141903D01*
X387335Y141912D01*
X387435Y141918D01*
X387535Y141919D01*
X387635Y141917D01*
X387735Y141910D01*
X387835Y141900D01*
X387934Y141886D01*
X388033Y141869D01*
X388130Y141847D01*
X388227Y141822D01*
X388323Y141793D01*
X388418Y141760D01*
X388511Y141724D01*
X388603Y141684D01*
X388693Y141641D01*
X388782Y141594D01*
X388868Y141544D01*
X388953Y141490D01*
X389036Y141433D01*
X389116Y141373D01*
X389194Y141311D01*
X389269Y141245D01*
X389342Y141176D01*
X389412Y141104D01*
X389479Y141030D01*
X389544Y140954D01*
X389605Y140875D01*
X389664Y140793D01*
X389719Y140710D01*
X389771Y140624D01*
X389819Y140536D01*
X389864Y140447D01*
X389906Y140356D01*
X389944Y140263D01*
X389979Y140169D01*
X390009Y140074D01*
X390037Y139978D01*
X390060Y139880D01*
X390080Y139782D01*
X390096Y139683D01*
X390108Y139584D01*
X390116Y139484D01*
X390120Y139384D01*
X390121Y139284D01*
X390120Y139284D02*
X390110Y138882D01*
X390090Y138481D01*
X390060Y138080D01*
X390021Y137680D01*
X389973Y137281D01*
X389915Y136884D01*
X389848Y136487D01*
X389771Y136093D01*
X389685Y135700D01*
X389590Y135310D01*
X389486Y134922D01*
X389373Y134536D01*
X389250Y134153D01*
X389118Y133774D01*
X386113Y149841D02*
X382105Y149841D01*
X382105Y149840D02*
X381979Y149842D01*
X381853Y149848D01*
X381728Y149858D01*
X381603Y149872D01*
X381478Y149889D01*
X381354Y149911D01*
X381231Y149937D01*
X381108Y149966D01*
X380987Y149999D01*
X380866Y150036D01*
X380747Y150077D01*
X380630Y150121D01*
X380513Y150170D01*
X380398Y150221D01*
X380285Y150277D01*
X380174Y150336D01*
X380065Y150398D01*
X379957Y150464D01*
X379852Y150533D01*
X379749Y150605D01*
X379648Y150681D01*
X379550Y150760D01*
X379454Y150842D01*
X379361Y150926D01*
X379271Y151014D01*
X379183Y151104D01*
X379099Y151197D01*
X379017Y151293D01*
X378938Y151391D01*
X378862Y151492D01*
X378790Y151595D01*
X378721Y151700D01*
X378655Y151808D01*
X378593Y151917D01*
X378534Y152028D01*
X378478Y152141D01*
X378427Y152256D01*
X378378Y152373D01*
X378334Y152490D01*
X378293Y152609D01*
X378256Y152730D01*
X378223Y152851D01*
X378194Y152974D01*
X378168Y153097D01*
X378146Y153221D01*
X378129Y153346D01*
X378115Y153471D01*
X378105Y153596D01*
X378099Y153722D01*
X378097Y153848D01*
X378099Y153974D01*
X378105Y154100D01*
X378115Y154225D01*
X378129Y154350D01*
X378146Y154475D01*
X378168Y154599D01*
X378194Y154722D01*
X378223Y154845D01*
X378256Y154966D01*
X378293Y155087D01*
X378334Y155206D01*
X378378Y155323D01*
X378427Y155440D01*
X378478Y155555D01*
X378534Y155668D01*
X378593Y155779D01*
X378655Y155888D01*
X378721Y155996D01*
X378790Y156101D01*
X378862Y156204D01*
X378938Y156305D01*
X379017Y156403D01*
X379099Y156499D01*
X379183Y156592D01*
X379271Y156682D01*
X379361Y156770D01*
X379454Y156854D01*
X379550Y156936D01*
X379648Y157015D01*
X379749Y157091D01*
X379852Y157163D01*
X379957Y157232D01*
X380065Y157298D01*
X380174Y157360D01*
X380285Y157419D01*
X380398Y157475D01*
X380513Y157526D01*
X380630Y157575D01*
X380747Y157619D01*
X380866Y157660D01*
X380987Y157697D01*
X381108Y157730D01*
X381231Y157759D01*
X381354Y157785D01*
X381478Y157807D01*
X381603Y157824D01*
X381728Y157838D01*
X381853Y157848D01*
X381979Y157854D01*
X382105Y157856D01*
X386113Y157856D01*
X386239Y157854D01*
X386365Y157848D01*
X386490Y157838D01*
X386615Y157824D01*
X386740Y157807D01*
X386864Y157785D01*
X386987Y157759D01*
X387110Y157730D01*
X387231Y157697D01*
X387352Y157660D01*
X387471Y157619D01*
X387588Y157575D01*
X387705Y157526D01*
X387820Y157475D01*
X387933Y157419D01*
X388044Y157360D01*
X388153Y157298D01*
X388261Y157232D01*
X388366Y157163D01*
X388469Y157091D01*
X388570Y157015D01*
X388668Y156936D01*
X388764Y156854D01*
X388857Y156770D01*
X388947Y156682D01*
X389035Y156592D01*
X389119Y156499D01*
X389201Y156403D01*
X389280Y156305D01*
X389356Y156204D01*
X389428Y156101D01*
X389497Y155996D01*
X389563Y155888D01*
X389625Y155779D01*
X389684Y155668D01*
X389740Y155555D01*
X389791Y155440D01*
X389840Y155323D01*
X389884Y155206D01*
X389925Y155087D01*
X389962Y154966D01*
X389995Y154845D01*
X390024Y154722D01*
X390050Y154599D01*
X390072Y154475D01*
X390089Y154350D01*
X390103Y154225D01*
X390113Y154100D01*
X390119Y153974D01*
X390121Y153848D01*
X390119Y153722D01*
X390113Y153596D01*
X390103Y153471D01*
X390089Y153346D01*
X390072Y153221D01*
X390050Y153097D01*
X390024Y152974D01*
X389995Y152851D01*
X389962Y152730D01*
X389925Y152609D01*
X389884Y152490D01*
X389840Y152373D01*
X389791Y152256D01*
X389740Y152141D01*
X389684Y152028D01*
X389625Y151917D01*
X389563Y151808D01*
X389497Y151700D01*
X389428Y151595D01*
X389356Y151492D01*
X389280Y151391D01*
X389201Y151293D01*
X389119Y151197D01*
X389035Y151104D01*
X388947Y151014D01*
X388857Y150926D01*
X388764Y150842D01*
X388668Y150760D01*
X388570Y150681D01*
X388469Y150605D01*
X388366Y150533D01*
X388261Y150464D01*
X388153Y150398D01*
X388044Y150336D01*
X387933Y150277D01*
X387820Y150221D01*
X387705Y150170D01*
X387588Y150121D01*
X387471Y150077D01*
X387352Y150036D01*
X387231Y149999D01*
X387110Y149966D01*
X386987Y149937D01*
X386864Y149911D01*
X386740Y149889D01*
X386615Y149872D01*
X386490Y149858D01*
X386365Y149848D01*
X386239Y149842D01*
X386113Y149840D01*
X390120Y166676D02*
X378097Y166676D01*
X378097Y172688D01*
X380101Y172688D01*
D11*
X257518Y167104D02*
X250660Y167104D01*
X250660Y169009D01*
X250662Y169094D01*
X250668Y169180D01*
X250677Y169265D01*
X250691Y169349D01*
X250708Y169433D01*
X250729Y169516D01*
X250753Y169598D01*
X250781Y169678D01*
X250813Y169758D01*
X250849Y169836D01*
X250887Y169912D01*
X250930Y169986D01*
X250975Y170058D01*
X251024Y170129D01*
X251076Y170197D01*
X251130Y170262D01*
X251188Y170325D01*
X251249Y170386D01*
X251312Y170444D01*
X251377Y170498D01*
X251445Y170550D01*
X251516Y170599D01*
X251588Y170644D01*
X251662Y170687D01*
X251738Y170725D01*
X251816Y170761D01*
X251896Y170793D01*
X251976Y170821D01*
X252058Y170845D01*
X252141Y170866D01*
X252225Y170883D01*
X252309Y170897D01*
X252394Y170906D01*
X252480Y170912D01*
X252565Y170914D01*
X252650Y170912D01*
X252736Y170906D01*
X252821Y170897D01*
X252905Y170883D01*
X252989Y170866D01*
X253072Y170845D01*
X253154Y170821D01*
X253234Y170793D01*
X253314Y170761D01*
X253392Y170725D01*
X253468Y170687D01*
X253542Y170644D01*
X253614Y170599D01*
X253685Y170550D01*
X253753Y170498D01*
X253818Y170444D01*
X253881Y170386D01*
X253942Y170325D01*
X254000Y170262D01*
X254054Y170197D01*
X254106Y170129D01*
X254155Y170058D01*
X254200Y169986D01*
X254243Y169912D01*
X254281Y169836D01*
X254317Y169758D01*
X254349Y169678D01*
X254377Y169598D01*
X254401Y169516D01*
X254422Y169433D01*
X254439Y169349D01*
X254453Y169265D01*
X254462Y169180D01*
X254468Y169094D01*
X254470Y169009D01*
X254470Y167104D01*
X254470Y169390D02*
X257518Y170914D01*
X257518Y174614D02*
X257518Y177662D01*
X257518Y174614D02*
X250660Y174614D01*
X250660Y177662D01*
X253708Y176900D02*
X253708Y174614D01*
X257518Y182731D02*
X257516Y182808D01*
X257510Y182885D01*
X257500Y182962D01*
X257487Y183038D01*
X257469Y183113D01*
X257448Y183187D01*
X257423Y183260D01*
X257394Y183332D01*
X257362Y183402D01*
X257327Y183471D01*
X257287Y183537D01*
X257245Y183602D01*
X257199Y183664D01*
X257150Y183724D01*
X257099Y183781D01*
X257044Y183836D01*
X256987Y183887D01*
X256927Y183936D01*
X256865Y183982D01*
X256800Y184024D01*
X256734Y184064D01*
X256665Y184099D01*
X256595Y184131D01*
X256523Y184160D01*
X256450Y184185D01*
X256376Y184206D01*
X256301Y184224D01*
X256225Y184237D01*
X256148Y184247D01*
X256071Y184253D01*
X255994Y184255D01*
X257518Y182731D02*
X257516Y182621D01*
X257510Y182510D01*
X257501Y182400D01*
X257488Y182290D01*
X257471Y182181D01*
X257450Y182073D01*
X257426Y181965D01*
X257397Y181858D01*
X257366Y181752D01*
X257330Y181648D01*
X257291Y181544D01*
X257249Y181442D01*
X257203Y181342D01*
X257153Y181243D01*
X257101Y181146D01*
X257044Y181050D01*
X256985Y180957D01*
X256923Y180866D01*
X256857Y180777D01*
X256789Y180690D01*
X256717Y180606D01*
X256643Y180524D01*
X256566Y180445D01*
X252184Y180636D02*
X252107Y180638D01*
X252030Y180644D01*
X251953Y180654D01*
X251877Y180667D01*
X251802Y180685D01*
X251728Y180706D01*
X251655Y180731D01*
X251583Y180760D01*
X251513Y180792D01*
X251444Y180827D01*
X251378Y180867D01*
X251313Y180909D01*
X251251Y180955D01*
X251191Y181004D01*
X251134Y181055D01*
X251079Y181110D01*
X251028Y181167D01*
X250979Y181227D01*
X250933Y181289D01*
X250891Y181354D01*
X250851Y181420D01*
X250816Y181489D01*
X250784Y181559D01*
X250755Y181631D01*
X250730Y181704D01*
X250709Y181778D01*
X250691Y181853D01*
X250678Y181929D01*
X250668Y182006D01*
X250662Y182083D01*
X250660Y182160D01*
X250662Y182262D01*
X250667Y182364D01*
X250676Y182466D01*
X250689Y182567D01*
X250706Y182668D01*
X250725Y182768D01*
X250749Y182868D01*
X250776Y182966D01*
X250807Y183064D01*
X250841Y183160D01*
X250878Y183255D01*
X250919Y183349D01*
X250963Y183441D01*
X251011Y183531D01*
X251061Y183620D01*
X251115Y183707D01*
X251172Y183792D01*
X251232Y183875D01*
X253518Y181397D02*
X253477Y181332D01*
X253434Y181269D01*
X253387Y181209D01*
X253337Y181150D01*
X253285Y181095D01*
X253230Y181042D01*
X253172Y180991D01*
X253112Y180944D01*
X253049Y180900D01*
X252985Y180858D01*
X252919Y180820D01*
X252850Y180786D01*
X252780Y180755D01*
X252709Y180727D01*
X252637Y180703D01*
X252563Y180682D01*
X252488Y180665D01*
X252413Y180652D01*
X252337Y180643D01*
X252261Y180637D01*
X252184Y180635D01*
X254660Y183493D02*
X254701Y183558D01*
X254744Y183621D01*
X254791Y183681D01*
X254841Y183740D01*
X254893Y183795D01*
X254948Y183848D01*
X255006Y183899D01*
X255066Y183946D01*
X255129Y183990D01*
X255193Y184032D01*
X255259Y184070D01*
X255328Y184104D01*
X255398Y184135D01*
X255469Y184163D01*
X255541Y184187D01*
X255615Y184208D01*
X255690Y184225D01*
X255765Y184238D01*
X255841Y184247D01*
X255917Y184253D01*
X255994Y184255D01*
X254661Y183493D02*
X253518Y181398D01*
X257518Y187782D02*
X257518Y190830D01*
X257518Y187782D02*
X250660Y187782D01*
X250660Y190830D01*
X253708Y190068D02*
X253708Y187782D01*
X250660Y195274D02*
X257518Y195274D01*
X250660Y193369D02*
X250660Y197179D01*
X220518Y151681D02*
X213660Y151681D01*
X213660Y153586D01*
X213662Y153671D01*
X213668Y153757D01*
X213677Y153842D01*
X213691Y153926D01*
X213708Y154010D01*
X213729Y154093D01*
X213753Y154175D01*
X213781Y154255D01*
X213813Y154335D01*
X213849Y154413D01*
X213887Y154489D01*
X213930Y154563D01*
X213975Y154635D01*
X214024Y154706D01*
X214076Y154774D01*
X214130Y154839D01*
X214188Y154902D01*
X214249Y154963D01*
X214312Y155021D01*
X214377Y155075D01*
X214445Y155127D01*
X214516Y155176D01*
X214588Y155221D01*
X214662Y155264D01*
X214738Y155302D01*
X214816Y155338D01*
X214896Y155370D01*
X214976Y155398D01*
X215058Y155422D01*
X215141Y155443D01*
X215225Y155460D01*
X215309Y155474D01*
X215394Y155483D01*
X215480Y155489D01*
X215565Y155491D01*
X218613Y155491D01*
X218698Y155489D01*
X218784Y155483D01*
X218869Y155474D01*
X218953Y155460D01*
X219037Y155443D01*
X219120Y155422D01*
X219202Y155398D01*
X219282Y155370D01*
X219362Y155338D01*
X219440Y155302D01*
X219516Y155264D01*
X219590Y155221D01*
X219662Y155176D01*
X219733Y155127D01*
X219801Y155075D01*
X219866Y155021D01*
X219929Y154963D01*
X219990Y154902D01*
X220048Y154839D01*
X220102Y154774D01*
X220154Y154706D01*
X220203Y154635D01*
X220248Y154563D01*
X220291Y154489D01*
X220329Y154413D01*
X220365Y154335D01*
X220397Y154255D01*
X220425Y154175D01*
X220449Y154093D01*
X220470Y154010D01*
X220487Y153926D01*
X220501Y153842D01*
X220510Y153757D01*
X220516Y153671D01*
X220518Y153586D01*
X220518Y151681D01*
X215184Y159240D02*
X213660Y161145D01*
X220518Y161145D01*
X220518Y159240D02*
X220518Y163050D01*
X220518Y166555D02*
X220518Y168460D01*
X220516Y168545D01*
X220510Y168631D01*
X220501Y168716D01*
X220487Y168800D01*
X220470Y168884D01*
X220449Y168967D01*
X220425Y169049D01*
X220397Y169129D01*
X220365Y169209D01*
X220329Y169287D01*
X220291Y169363D01*
X220248Y169437D01*
X220203Y169509D01*
X220154Y169580D01*
X220102Y169648D01*
X220048Y169713D01*
X219990Y169776D01*
X219929Y169837D01*
X219866Y169895D01*
X219801Y169949D01*
X219733Y170001D01*
X219662Y170050D01*
X219590Y170095D01*
X219516Y170138D01*
X219440Y170176D01*
X219362Y170212D01*
X219282Y170244D01*
X219202Y170272D01*
X219120Y170296D01*
X219037Y170317D01*
X218953Y170334D01*
X218869Y170348D01*
X218784Y170357D01*
X218698Y170363D01*
X218613Y170365D01*
X218528Y170363D01*
X218442Y170357D01*
X218357Y170348D01*
X218273Y170334D01*
X218189Y170317D01*
X218106Y170296D01*
X218024Y170272D01*
X217944Y170244D01*
X217864Y170212D01*
X217786Y170176D01*
X217710Y170138D01*
X217636Y170095D01*
X217564Y170050D01*
X217493Y170001D01*
X217425Y169949D01*
X217360Y169895D01*
X217297Y169837D01*
X217236Y169776D01*
X217178Y169713D01*
X217124Y169648D01*
X217072Y169580D01*
X217023Y169509D01*
X216978Y169437D01*
X216935Y169363D01*
X216897Y169287D01*
X216861Y169209D01*
X216829Y169129D01*
X216801Y169049D01*
X216777Y168967D01*
X216756Y168884D01*
X216739Y168800D01*
X216725Y168716D01*
X216716Y168631D01*
X216710Y168545D01*
X216708Y168460D01*
X213660Y168841D02*
X213660Y166555D01*
X213660Y168841D02*
X213662Y168918D01*
X213668Y168995D01*
X213678Y169072D01*
X213691Y169148D01*
X213709Y169223D01*
X213730Y169297D01*
X213755Y169370D01*
X213784Y169442D01*
X213816Y169512D01*
X213851Y169581D01*
X213891Y169647D01*
X213933Y169712D01*
X213979Y169774D01*
X214028Y169834D01*
X214079Y169891D01*
X214134Y169946D01*
X214191Y169997D01*
X214251Y170046D01*
X214313Y170092D01*
X214378Y170134D01*
X214444Y170174D01*
X214513Y170209D01*
X214583Y170241D01*
X214655Y170270D01*
X214728Y170295D01*
X214802Y170316D01*
X214877Y170334D01*
X214953Y170347D01*
X215030Y170357D01*
X215107Y170363D01*
X215184Y170365D01*
X215261Y170363D01*
X215338Y170357D01*
X215415Y170347D01*
X215491Y170334D01*
X215566Y170316D01*
X215640Y170295D01*
X215713Y170270D01*
X215785Y170241D01*
X215855Y170209D01*
X215924Y170174D01*
X215990Y170134D01*
X216055Y170092D01*
X216117Y170046D01*
X216177Y169997D01*
X216234Y169946D01*
X216289Y169891D01*
X216340Y169834D01*
X216389Y169774D01*
X216435Y169712D01*
X216477Y169647D01*
X216517Y169581D01*
X216552Y169512D01*
X216584Y169442D01*
X216613Y169370D01*
X216638Y169297D01*
X216659Y169223D01*
X216677Y169148D01*
X216690Y169072D01*
X216700Y168995D01*
X216706Y168918D01*
X216708Y168841D01*
X216708Y167317D01*
X221280Y173520D02*
X212898Y176568D01*
X218994Y183289D02*
X219071Y183287D01*
X219148Y183281D01*
X219225Y183271D01*
X219301Y183258D01*
X219376Y183240D01*
X219450Y183219D01*
X219523Y183194D01*
X219595Y183165D01*
X219665Y183133D01*
X219734Y183098D01*
X219800Y183058D01*
X219865Y183016D01*
X219927Y182970D01*
X219987Y182921D01*
X220044Y182870D01*
X220099Y182815D01*
X220150Y182758D01*
X220199Y182698D01*
X220245Y182636D01*
X220287Y182571D01*
X220327Y182505D01*
X220362Y182436D01*
X220394Y182366D01*
X220423Y182294D01*
X220448Y182221D01*
X220469Y182147D01*
X220487Y182072D01*
X220500Y181996D01*
X220510Y181919D01*
X220516Y181842D01*
X220518Y181765D01*
X220516Y181655D01*
X220510Y181544D01*
X220501Y181434D01*
X220488Y181324D01*
X220471Y181215D01*
X220450Y181107D01*
X220426Y180999D01*
X220397Y180892D01*
X220366Y180786D01*
X220330Y180682D01*
X220291Y180578D01*
X220249Y180476D01*
X220203Y180376D01*
X220153Y180277D01*
X220101Y180180D01*
X220044Y180084D01*
X219985Y179991D01*
X219923Y179900D01*
X219857Y179811D01*
X219789Y179724D01*
X219717Y179640D01*
X219643Y179558D01*
X219566Y179479D01*
X215184Y179669D02*
X215107Y179671D01*
X215030Y179677D01*
X214953Y179687D01*
X214877Y179700D01*
X214802Y179718D01*
X214728Y179739D01*
X214655Y179764D01*
X214583Y179793D01*
X214513Y179825D01*
X214444Y179860D01*
X214378Y179900D01*
X214313Y179942D01*
X214251Y179988D01*
X214191Y180037D01*
X214134Y180088D01*
X214079Y180143D01*
X214028Y180200D01*
X213979Y180260D01*
X213933Y180322D01*
X213891Y180387D01*
X213851Y180453D01*
X213816Y180522D01*
X213784Y180592D01*
X213755Y180664D01*
X213730Y180737D01*
X213709Y180811D01*
X213691Y180886D01*
X213678Y180962D01*
X213668Y181039D01*
X213662Y181116D01*
X213660Y181193D01*
X213662Y181295D01*
X213667Y181397D01*
X213676Y181499D01*
X213689Y181600D01*
X213706Y181701D01*
X213725Y181801D01*
X213749Y181901D01*
X213776Y181999D01*
X213807Y182097D01*
X213841Y182193D01*
X213878Y182288D01*
X213919Y182382D01*
X213963Y182474D01*
X214011Y182564D01*
X214061Y182653D01*
X214115Y182740D01*
X214172Y182825D01*
X214232Y182908D01*
X216518Y180431D02*
X216477Y180366D01*
X216434Y180303D01*
X216387Y180243D01*
X216337Y180184D01*
X216285Y180129D01*
X216230Y180076D01*
X216172Y180025D01*
X216112Y179978D01*
X216049Y179934D01*
X215985Y179892D01*
X215919Y179854D01*
X215850Y179820D01*
X215780Y179789D01*
X215709Y179761D01*
X215637Y179737D01*
X215563Y179716D01*
X215488Y179699D01*
X215413Y179686D01*
X215337Y179677D01*
X215261Y179671D01*
X215184Y179669D01*
X217660Y182527D02*
X217701Y182592D01*
X217744Y182655D01*
X217791Y182715D01*
X217841Y182774D01*
X217893Y182829D01*
X217948Y182882D01*
X218006Y182933D01*
X218066Y182980D01*
X218129Y183024D01*
X218193Y183066D01*
X218259Y183104D01*
X218328Y183138D01*
X218398Y183169D01*
X218469Y183197D01*
X218541Y183221D01*
X218615Y183242D01*
X218690Y183259D01*
X218765Y183272D01*
X218841Y183281D01*
X218917Y183287D01*
X218994Y183289D01*
X217661Y182527D02*
X216518Y180431D01*
X216708Y186954D02*
X216708Y188859D01*
X216710Y188944D01*
X216716Y189030D01*
X216725Y189115D01*
X216739Y189199D01*
X216756Y189283D01*
X216777Y189366D01*
X216801Y189448D01*
X216829Y189528D01*
X216861Y189608D01*
X216897Y189686D01*
X216935Y189762D01*
X216978Y189836D01*
X217023Y189908D01*
X217072Y189979D01*
X217124Y190047D01*
X217178Y190112D01*
X217236Y190175D01*
X217297Y190236D01*
X217360Y190294D01*
X217425Y190348D01*
X217493Y190400D01*
X217564Y190449D01*
X217636Y190494D01*
X217710Y190537D01*
X217786Y190575D01*
X217864Y190611D01*
X217944Y190643D01*
X218024Y190671D01*
X218106Y190695D01*
X218189Y190716D01*
X218273Y190733D01*
X218357Y190747D01*
X218442Y190756D01*
X218528Y190762D01*
X218613Y190764D01*
X218698Y190762D01*
X218784Y190756D01*
X218869Y190747D01*
X218953Y190733D01*
X219037Y190716D01*
X219120Y190695D01*
X219202Y190671D01*
X219282Y190643D01*
X219362Y190611D01*
X219440Y190575D01*
X219516Y190537D01*
X219590Y190494D01*
X219662Y190449D01*
X219733Y190400D01*
X219801Y190348D01*
X219866Y190294D01*
X219929Y190236D01*
X219990Y190175D01*
X220048Y190112D01*
X220102Y190047D01*
X220154Y189979D01*
X220203Y189908D01*
X220248Y189836D01*
X220291Y189762D01*
X220329Y189686D01*
X220365Y189608D01*
X220397Y189528D01*
X220425Y189448D01*
X220449Y189366D01*
X220470Y189283D01*
X220487Y189199D01*
X220501Y189115D01*
X220510Y189030D01*
X220516Y188944D01*
X220518Y188859D01*
X220518Y186954D01*
X213660Y186954D01*
X213660Y188859D01*
X213662Y188936D01*
X213668Y189013D01*
X213678Y189090D01*
X213691Y189166D01*
X213709Y189241D01*
X213730Y189315D01*
X213755Y189388D01*
X213784Y189460D01*
X213816Y189530D01*
X213851Y189599D01*
X213891Y189665D01*
X213933Y189730D01*
X213979Y189792D01*
X214028Y189852D01*
X214079Y189909D01*
X214134Y189964D01*
X214191Y190015D01*
X214251Y190064D01*
X214313Y190110D01*
X214378Y190152D01*
X214444Y190192D01*
X214513Y190227D01*
X214583Y190259D01*
X214655Y190288D01*
X214728Y190313D01*
X214802Y190334D01*
X214877Y190352D01*
X214953Y190365D01*
X215030Y190375D01*
X215107Y190381D01*
X215184Y190383D01*
X215261Y190381D01*
X215338Y190375D01*
X215415Y190365D01*
X215491Y190352D01*
X215566Y190334D01*
X215640Y190313D01*
X215713Y190288D01*
X215785Y190259D01*
X215855Y190227D01*
X215924Y190192D01*
X215990Y190152D01*
X216055Y190110D01*
X216117Y190064D01*
X216177Y190015D01*
X216234Y189964D01*
X216289Y189909D01*
X216340Y189852D01*
X216389Y189792D01*
X216435Y189730D01*
X216477Y189665D01*
X216517Y189599D01*
X216552Y189530D01*
X216584Y189460D01*
X216613Y189388D01*
X216638Y189315D01*
X216659Y189241D01*
X216677Y189166D01*
X216690Y189090D01*
X216700Y189013D01*
X216706Y188936D01*
X216708Y188859D01*
X213660Y194131D02*
X220518Y194131D01*
X220518Y197179D01*
D12*
X29639Y64453D02*
X25914Y64453D01*
X25914Y72835D01*
X29639Y72835D01*
X28708Y69109D02*
X25914Y69109D01*
X33505Y71903D02*
X33505Y72835D01*
X38162Y72835D01*
X35834Y64453D01*
X45210Y72835D02*
X45299Y72833D01*
X45388Y72827D01*
X45476Y72818D01*
X45564Y72805D01*
X45652Y72788D01*
X45738Y72767D01*
X45824Y72743D01*
X45908Y72715D01*
X45992Y72684D01*
X46073Y72649D01*
X46154Y72611D01*
X46232Y72569D01*
X46309Y72524D01*
X46384Y72476D01*
X46456Y72424D01*
X46527Y72370D01*
X46595Y72312D01*
X46660Y72252D01*
X46723Y72189D01*
X46783Y72124D01*
X46841Y72056D01*
X46895Y71985D01*
X46947Y71913D01*
X46995Y71838D01*
X47040Y71761D01*
X47082Y71683D01*
X47120Y71602D01*
X47155Y71521D01*
X47186Y71437D01*
X47214Y71353D01*
X47238Y71267D01*
X47259Y71181D01*
X47276Y71093D01*
X47289Y71005D01*
X47298Y70917D01*
X47304Y70828D01*
X47306Y70739D01*
X45210Y72834D02*
X45107Y72832D01*
X45005Y72826D01*
X44903Y72816D01*
X44801Y72803D01*
X44700Y72785D01*
X44600Y72764D01*
X44500Y72739D01*
X44402Y72710D01*
X44305Y72677D01*
X44209Y72641D01*
X44114Y72601D01*
X44021Y72557D01*
X43930Y72510D01*
X43841Y72460D01*
X43754Y72406D01*
X43668Y72349D01*
X43585Y72289D01*
X43505Y72225D01*
X43427Y72159D01*
X43351Y72089D01*
X43278Y72017D01*
X43208Y71942D01*
X43141Y71864D01*
X43077Y71784D01*
X43016Y71702D01*
X42958Y71617D01*
X42904Y71530D01*
X42852Y71441D01*
X42805Y71351D01*
X42760Y71258D01*
X42720Y71164D01*
X42682Y71068D01*
X42649Y70971D01*
X46607Y69109D02*
X46672Y69173D01*
X46734Y69240D01*
X46794Y69309D01*
X46850Y69381D01*
X46903Y69454D01*
X46954Y69530D01*
X47001Y69608D01*
X47045Y69688D01*
X47086Y69769D01*
X47124Y69852D01*
X47158Y69937D01*
X47189Y70023D01*
X47216Y70110D01*
X47240Y70198D01*
X47260Y70286D01*
X47277Y70376D01*
X47289Y70466D01*
X47299Y70557D01*
X47304Y70648D01*
X47306Y70739D01*
X46607Y69109D02*
X42649Y64453D01*
X47306Y64453D01*
X51937Y67712D02*
X57525Y67712D01*
X64718Y72835D02*
X64807Y72833D01*
X64896Y72827D01*
X64984Y72818D01*
X65072Y72805D01*
X65160Y72788D01*
X65246Y72767D01*
X65332Y72743D01*
X65416Y72715D01*
X65500Y72684D01*
X65581Y72649D01*
X65662Y72611D01*
X65740Y72569D01*
X65817Y72524D01*
X65892Y72476D01*
X65964Y72424D01*
X66035Y72370D01*
X66103Y72312D01*
X66168Y72252D01*
X66231Y72189D01*
X66291Y72124D01*
X66349Y72056D01*
X66403Y71985D01*
X66455Y71913D01*
X66503Y71838D01*
X66548Y71761D01*
X66590Y71683D01*
X66628Y71602D01*
X66663Y71521D01*
X66694Y71437D01*
X66722Y71353D01*
X66746Y71267D01*
X66767Y71181D01*
X66784Y71093D01*
X66797Y71005D01*
X66806Y70917D01*
X66812Y70828D01*
X66814Y70739D01*
X64718Y72834D02*
X64615Y72832D01*
X64513Y72826D01*
X64411Y72816D01*
X64309Y72803D01*
X64208Y72785D01*
X64108Y72764D01*
X64008Y72739D01*
X63910Y72710D01*
X63813Y72677D01*
X63717Y72641D01*
X63622Y72601D01*
X63529Y72557D01*
X63438Y72510D01*
X63349Y72460D01*
X63262Y72406D01*
X63176Y72349D01*
X63093Y72289D01*
X63013Y72225D01*
X62935Y72159D01*
X62859Y72089D01*
X62786Y72017D01*
X62716Y71942D01*
X62649Y71864D01*
X62585Y71784D01*
X62524Y71702D01*
X62466Y71617D01*
X62412Y71530D01*
X62360Y71441D01*
X62313Y71351D01*
X62268Y71258D01*
X62228Y71164D01*
X62190Y71068D01*
X62157Y70971D01*
X66114Y69109D02*
X66179Y69173D01*
X66241Y69240D01*
X66301Y69309D01*
X66357Y69381D01*
X66410Y69454D01*
X66461Y69530D01*
X66508Y69608D01*
X66552Y69688D01*
X66593Y69769D01*
X66631Y69852D01*
X66665Y69937D01*
X66696Y70023D01*
X66723Y70110D01*
X66747Y70198D01*
X66767Y70286D01*
X66784Y70376D01*
X66796Y70466D01*
X66806Y70557D01*
X66811Y70648D01*
X66813Y70739D01*
X66115Y69109D02*
X62156Y64453D01*
X66813Y64453D01*
X74865Y69109D02*
X76262Y69109D01*
X76262Y64453D01*
X73468Y64453D01*
X73468Y64452D02*
X73384Y64454D01*
X73301Y64459D01*
X73218Y64469D01*
X73135Y64482D01*
X73053Y64499D01*
X72972Y64519D01*
X72892Y64543D01*
X72813Y64571D01*
X72736Y64602D01*
X72660Y64636D01*
X72585Y64674D01*
X72512Y64716D01*
X72442Y64760D01*
X72373Y64808D01*
X72306Y64858D01*
X72242Y64912D01*
X72181Y64968D01*
X72121Y65028D01*
X72065Y65089D01*
X72011Y65153D01*
X71961Y65220D01*
X71913Y65289D01*
X71869Y65359D01*
X71827Y65432D01*
X71789Y65507D01*
X71755Y65583D01*
X71724Y65660D01*
X71696Y65739D01*
X71672Y65819D01*
X71652Y65900D01*
X71635Y65982D01*
X71622Y66065D01*
X71612Y66148D01*
X71607Y66231D01*
X71605Y66315D01*
X71605Y70972D01*
X71607Y71058D01*
X71613Y71144D01*
X71623Y71229D01*
X71637Y71314D01*
X71654Y71399D01*
X71676Y71482D01*
X71702Y71564D01*
X71731Y71645D01*
X71764Y71724D01*
X71800Y71802D01*
X71840Y71879D01*
X71884Y71953D01*
X71931Y72025D01*
X71981Y72095D01*
X72035Y72162D01*
X72091Y72227D01*
X72151Y72289D01*
X72213Y72349D01*
X72278Y72405D01*
X72345Y72459D01*
X72415Y72509D01*
X72487Y72556D01*
X72561Y72600D01*
X72638Y72640D01*
X72715Y72676D01*
X72795Y72709D01*
X72876Y72738D01*
X72958Y72764D01*
X73041Y72786D01*
X73126Y72803D01*
X73211Y72817D01*
X73296Y72827D01*
X73382Y72833D01*
X73468Y72835D01*
X76262Y72835D01*
X82917Y72835D02*
X81054Y66315D01*
X85711Y66315D01*
X84314Y64453D02*
X84314Y68178D01*
X90647Y64453D02*
X90647Y72835D01*
X93441Y68178D01*
X96235Y72835D01*
X96235Y64453D01*
X101171Y68644D02*
X101173Y68809D01*
X101179Y68974D01*
X101189Y69138D01*
X101202Y69303D01*
X101220Y69467D01*
X101242Y69630D01*
X101267Y69793D01*
X101297Y69955D01*
X101330Y70117D01*
X101367Y70277D01*
X101408Y70437D01*
X101453Y70596D01*
X101501Y70753D01*
X101553Y70910D01*
X101609Y71065D01*
X101669Y71219D01*
X101732Y71371D01*
X101799Y71522D01*
X101869Y71671D01*
X101898Y71748D01*
X101930Y71824D01*
X101965Y71898D01*
X102005Y71970D01*
X102047Y72040D01*
X102093Y72108D01*
X102142Y72174D01*
X102195Y72238D01*
X102250Y72299D01*
X102308Y72357D01*
X102368Y72412D01*
X102432Y72465D01*
X102498Y72514D01*
X102566Y72560D01*
X102636Y72603D01*
X102708Y72643D01*
X102782Y72679D01*
X102857Y72711D01*
X102934Y72740D01*
X103012Y72765D01*
X103092Y72786D01*
X103172Y72804D01*
X103253Y72817D01*
X103335Y72827D01*
X103417Y72833D01*
X103499Y72835D01*
X103581Y72833D01*
X103663Y72827D01*
X103745Y72817D01*
X103826Y72804D01*
X103906Y72786D01*
X103986Y72765D01*
X104064Y72740D01*
X104141Y72711D01*
X104216Y72679D01*
X104290Y72643D01*
X104362Y72603D01*
X104432Y72560D01*
X104500Y72514D01*
X104566Y72465D01*
X104630Y72412D01*
X104690Y72357D01*
X104748Y72299D01*
X104803Y72238D01*
X104856Y72174D01*
X104905Y72108D01*
X104951Y72040D01*
X104993Y71970D01*
X105033Y71898D01*
X105068Y71824D01*
X105100Y71748D01*
X105129Y71671D01*
X105199Y71522D01*
X105266Y71371D01*
X105329Y71219D01*
X105389Y71065D01*
X105445Y70910D01*
X105497Y70753D01*
X105545Y70596D01*
X105590Y70437D01*
X105631Y70277D01*
X105668Y70117D01*
X105701Y69955D01*
X105731Y69793D01*
X105756Y69630D01*
X105778Y69467D01*
X105796Y69303D01*
X105809Y69138D01*
X105819Y68974D01*
X105825Y68809D01*
X105827Y68644D01*
X101170Y68644D02*
X101172Y68479D01*
X101178Y68314D01*
X101188Y68150D01*
X101201Y67985D01*
X101219Y67821D01*
X101241Y67658D01*
X101266Y67495D01*
X101296Y67333D01*
X101329Y67171D01*
X101366Y67010D01*
X101407Y66851D01*
X101452Y66692D01*
X101500Y66534D01*
X101552Y66378D01*
X101608Y66223D01*
X101668Y66069D01*
X101731Y65917D01*
X101798Y65766D01*
X101869Y65617D01*
X101898Y65540D01*
X101930Y65464D01*
X101966Y65390D01*
X102005Y65318D01*
X102047Y65248D01*
X102093Y65180D01*
X102142Y65114D01*
X102195Y65050D01*
X102250Y64989D01*
X102308Y64931D01*
X102368Y64876D01*
X102432Y64823D01*
X102498Y64774D01*
X102566Y64728D01*
X102636Y64685D01*
X102708Y64645D01*
X102782Y64609D01*
X102857Y64577D01*
X102934Y64548D01*
X103012Y64523D01*
X103092Y64502D01*
X103172Y64484D01*
X103253Y64471D01*
X103335Y64461D01*
X103417Y64455D01*
X103499Y64453D01*
X105129Y65617D02*
X105200Y65766D01*
X105267Y65917D01*
X105330Y66069D01*
X105390Y66223D01*
X105446Y66378D01*
X105498Y66534D01*
X105546Y66692D01*
X105591Y66851D01*
X105632Y67010D01*
X105669Y67171D01*
X105702Y67333D01*
X105732Y67495D01*
X105757Y67658D01*
X105779Y67821D01*
X105797Y67985D01*
X105810Y68150D01*
X105820Y68314D01*
X105826Y68479D01*
X105828Y68644D01*
X105129Y65617D02*
X105100Y65540D01*
X105068Y65464D01*
X105032Y65390D01*
X104993Y65318D01*
X104951Y65248D01*
X104905Y65180D01*
X104856Y65114D01*
X104803Y65050D01*
X104748Y64989D01*
X104690Y64931D01*
X104630Y64876D01*
X104566Y64823D01*
X104500Y64774D01*
X104432Y64728D01*
X104362Y64685D01*
X104290Y64645D01*
X104216Y64609D01*
X104141Y64577D01*
X104064Y64548D01*
X103986Y64523D01*
X103906Y64502D01*
X103826Y64484D01*
X103745Y64471D01*
X103663Y64461D01*
X103581Y64455D01*
X103499Y64453D01*
X101636Y66315D02*
X105362Y70972D01*
X110315Y64453D02*
X113109Y64453D01*
X113109Y64452D02*
X113193Y64454D01*
X113276Y64460D01*
X113359Y64469D01*
X113442Y64482D01*
X113524Y64499D01*
X113605Y64519D01*
X113685Y64543D01*
X113764Y64571D01*
X113841Y64602D01*
X113917Y64636D01*
X113992Y64674D01*
X114065Y64716D01*
X114135Y64760D01*
X114204Y64808D01*
X114271Y64858D01*
X114335Y64912D01*
X114396Y64968D01*
X114456Y65028D01*
X114512Y65089D01*
X114566Y65153D01*
X114616Y65220D01*
X114664Y65289D01*
X114708Y65359D01*
X114750Y65432D01*
X114788Y65507D01*
X114822Y65583D01*
X114853Y65660D01*
X114881Y65739D01*
X114905Y65819D01*
X114925Y65900D01*
X114942Y65982D01*
X114955Y66065D01*
X114965Y66148D01*
X114970Y66231D01*
X114972Y66315D01*
X114971Y66315D02*
X114971Y67247D01*
X114972Y67247D02*
X114970Y67331D01*
X114965Y67414D01*
X114955Y67497D01*
X114942Y67580D01*
X114925Y67662D01*
X114905Y67743D01*
X114881Y67823D01*
X114853Y67902D01*
X114822Y67979D01*
X114788Y68055D01*
X114750Y68130D01*
X114708Y68203D01*
X114664Y68273D01*
X114616Y68342D01*
X114566Y68409D01*
X114512Y68473D01*
X114456Y68534D01*
X114396Y68594D01*
X114335Y68650D01*
X114271Y68704D01*
X114204Y68754D01*
X114135Y68802D01*
X114065Y68846D01*
X113992Y68888D01*
X113917Y68926D01*
X113841Y68960D01*
X113764Y68991D01*
X113685Y69019D01*
X113605Y69043D01*
X113524Y69063D01*
X113442Y69080D01*
X113359Y69093D01*
X113276Y69103D01*
X113193Y69108D01*
X113109Y69110D01*
X113109Y69109D02*
X110315Y69109D01*
X110315Y72835D01*
X114971Y72835D01*
X121948Y64452D02*
X122034Y64454D01*
X122120Y64460D01*
X122205Y64470D01*
X122290Y64484D01*
X122375Y64501D01*
X122458Y64523D01*
X122540Y64549D01*
X122621Y64578D01*
X122701Y64611D01*
X122778Y64647D01*
X122855Y64687D01*
X122929Y64731D01*
X123001Y64778D01*
X123071Y64828D01*
X123138Y64882D01*
X123203Y64938D01*
X123265Y64998D01*
X123325Y65060D01*
X123381Y65125D01*
X123435Y65192D01*
X123485Y65262D01*
X123532Y65334D01*
X123576Y65408D01*
X123616Y65485D01*
X123652Y65563D01*
X123685Y65642D01*
X123714Y65723D01*
X123740Y65805D01*
X123762Y65888D01*
X123779Y65973D01*
X123793Y66058D01*
X123803Y66143D01*
X123809Y66229D01*
X123811Y66315D01*
X121948Y64452D02*
X121824Y64454D01*
X121700Y64460D01*
X121576Y64470D01*
X121452Y64483D01*
X121329Y64501D01*
X121207Y64522D01*
X121085Y64548D01*
X120964Y64577D01*
X120844Y64610D01*
X120726Y64647D01*
X120608Y64687D01*
X120492Y64731D01*
X120377Y64779D01*
X120264Y64830D01*
X120153Y64885D01*
X120043Y64944D01*
X119935Y65006D01*
X119829Y65071D01*
X119726Y65140D01*
X119624Y65211D01*
X119525Y65286D01*
X119429Y65364D01*
X119334Y65445D01*
X119243Y65529D01*
X119154Y65616D01*
X119386Y70972D02*
X119388Y71056D01*
X119393Y71139D01*
X119403Y71222D01*
X119416Y71305D01*
X119433Y71387D01*
X119453Y71468D01*
X119477Y71548D01*
X119505Y71627D01*
X119536Y71704D01*
X119570Y71780D01*
X119608Y71855D01*
X119650Y71928D01*
X119694Y71998D01*
X119742Y72067D01*
X119792Y72134D01*
X119846Y72198D01*
X119902Y72259D01*
X119962Y72319D01*
X120023Y72375D01*
X120087Y72429D01*
X120154Y72479D01*
X120223Y72527D01*
X120293Y72571D01*
X120366Y72613D01*
X120441Y72651D01*
X120517Y72685D01*
X120594Y72716D01*
X120673Y72744D01*
X120753Y72768D01*
X120834Y72788D01*
X120916Y72805D01*
X120999Y72818D01*
X121082Y72828D01*
X121165Y72833D01*
X121249Y72835D01*
X121361Y72833D01*
X121474Y72828D01*
X121586Y72819D01*
X121697Y72806D01*
X121809Y72790D01*
X121919Y72770D01*
X122029Y72747D01*
X122138Y72720D01*
X122246Y72690D01*
X122354Y72656D01*
X122460Y72619D01*
X122564Y72578D01*
X122668Y72534D01*
X122770Y72487D01*
X122870Y72436D01*
X122969Y72382D01*
X123066Y72325D01*
X123161Y72265D01*
X123254Y72202D01*
X123345Y72136D01*
X120317Y69342D02*
X120245Y69387D01*
X120174Y69435D01*
X120106Y69487D01*
X120040Y69541D01*
X119977Y69598D01*
X119916Y69658D01*
X119858Y69721D01*
X119803Y69787D01*
X119751Y69854D01*
X119703Y69924D01*
X119657Y69996D01*
X119615Y70071D01*
X119576Y70147D01*
X119540Y70224D01*
X119508Y70303D01*
X119480Y70384D01*
X119455Y70466D01*
X119434Y70549D01*
X119417Y70632D01*
X119403Y70717D01*
X119394Y70801D01*
X119388Y70887D01*
X119386Y70972D01*
X122880Y67945D02*
X122952Y67900D01*
X123023Y67852D01*
X123091Y67800D01*
X123157Y67746D01*
X123220Y67689D01*
X123281Y67629D01*
X123339Y67566D01*
X123394Y67500D01*
X123446Y67433D01*
X123494Y67363D01*
X123540Y67291D01*
X123582Y67216D01*
X123621Y67140D01*
X123657Y67063D01*
X123689Y66984D01*
X123717Y66903D01*
X123742Y66821D01*
X123763Y66738D01*
X123780Y66655D01*
X123794Y66570D01*
X123803Y66486D01*
X123809Y66400D01*
X123811Y66315D01*
X122879Y67945D02*
X120318Y69342D01*
X127993Y70972D02*
X130321Y72835D01*
X130321Y64453D01*
X127993Y64453D02*
X132650Y64453D01*
X137471Y64453D02*
X137471Y72835D01*
X141196Y72835D01*
X141196Y69109D02*
X137471Y69109D01*
D13*
X320000Y208444D02*
X320000Y219000D01*
X320000Y198444D02*
X320000Y187889D01*
X320000Y177889D02*
X320000Y167333D01*
X320000Y157333D02*
X320000Y146778D01*
X320000Y136778D02*
X320000Y126222D01*
X320000Y116222D02*
X320000Y105667D01*
X320000Y95667D02*
X320000Y85111D01*
X320000Y75111D02*
X320000Y64556D01*
X320000Y54556D02*
X320000Y44000D01*
X425000Y196250D02*
X425000Y207000D01*
X425000Y186250D02*
X425000Y175500D01*
X425000Y165500D02*
X425000Y154750D01*
X425000Y144750D02*
X425000Y134000D01*
X425000Y124000D02*
X425000Y113250D01*
X425000Y103250D02*
X425000Y92500D01*
X425000Y82500D02*
X425000Y71750D01*
X425000Y61750D02*
X425000Y51000D01*
D14*
X20143Y190154D02*
X20143Y199242D01*
X20142Y190154D02*
X20140Y190055D01*
X20134Y189955D01*
X20125Y189856D01*
X20112Y189758D01*
X20095Y189660D01*
X20074Y189562D01*
X20049Y189466D01*
X20021Y189371D01*
X19989Y189277D01*
X19954Y189184D01*
X19915Y189092D01*
X19872Y189002D01*
X19827Y188914D01*
X19777Y188827D01*
X19725Y188743D01*
X19669Y188660D01*
X19611Y188580D01*
X19549Y188502D01*
X19484Y188427D01*
X19416Y188354D01*
X19346Y188284D01*
X19273Y188216D01*
X19198Y188151D01*
X19120Y188089D01*
X19040Y188031D01*
X18957Y187975D01*
X18873Y187923D01*
X18786Y187873D01*
X18698Y187828D01*
X18608Y187785D01*
X18516Y187746D01*
X18423Y187711D01*
X18329Y187679D01*
X18234Y187651D01*
X18138Y187626D01*
X18040Y187605D01*
X17942Y187588D01*
X17844Y187575D01*
X17745Y187566D01*
X17645Y187560D01*
X17546Y187558D01*
X16248Y187558D01*
X25820Y187558D02*
X25820Y199242D01*
X25820Y187558D02*
X31013Y187558D01*
X37885Y187558D02*
X40482Y187558D01*
X37885Y187558D02*
X37786Y187560D01*
X37686Y187566D01*
X37587Y187575D01*
X37489Y187588D01*
X37391Y187605D01*
X37293Y187626D01*
X37197Y187651D01*
X37102Y187679D01*
X37008Y187711D01*
X36915Y187746D01*
X36823Y187785D01*
X36733Y187828D01*
X36645Y187873D01*
X36558Y187923D01*
X36474Y187975D01*
X36391Y188031D01*
X36311Y188089D01*
X36233Y188151D01*
X36158Y188216D01*
X36085Y188284D01*
X36015Y188354D01*
X35947Y188427D01*
X35882Y188502D01*
X35820Y188580D01*
X35762Y188660D01*
X35706Y188743D01*
X35654Y188827D01*
X35604Y188914D01*
X35559Y189002D01*
X35516Y189092D01*
X35477Y189184D01*
X35442Y189277D01*
X35410Y189371D01*
X35382Y189466D01*
X35357Y189562D01*
X35336Y189660D01*
X35319Y189758D01*
X35306Y189856D01*
X35297Y189955D01*
X35291Y190055D01*
X35289Y190154D01*
X35289Y196646D01*
X35291Y196745D01*
X35297Y196845D01*
X35306Y196944D01*
X35319Y197042D01*
X35336Y197140D01*
X35357Y197238D01*
X35382Y197334D01*
X35410Y197429D01*
X35442Y197523D01*
X35477Y197616D01*
X35516Y197708D01*
X35559Y197798D01*
X35604Y197886D01*
X35654Y197973D01*
X35706Y198057D01*
X35762Y198140D01*
X35820Y198220D01*
X35882Y198298D01*
X35947Y198373D01*
X36015Y198446D01*
X36085Y198516D01*
X36158Y198584D01*
X36233Y198649D01*
X36311Y198711D01*
X36391Y198769D01*
X36474Y198825D01*
X36558Y198877D01*
X36645Y198927D01*
X36733Y198972D01*
X36823Y199015D01*
X36915Y199054D01*
X37007Y199089D01*
X37102Y199121D01*
X37197Y199149D01*
X37293Y199174D01*
X37391Y199195D01*
X37489Y199212D01*
X37587Y199225D01*
X37686Y199234D01*
X37786Y199240D01*
X37885Y199242D01*
X40482Y199242D01*
X47575Y199242D02*
X47575Y190154D01*
X47574Y190154D02*
X47572Y190055D01*
X47566Y189955D01*
X47557Y189856D01*
X47544Y189758D01*
X47527Y189660D01*
X47506Y189562D01*
X47481Y189466D01*
X47453Y189371D01*
X47421Y189277D01*
X47386Y189184D01*
X47347Y189092D01*
X47304Y189002D01*
X47259Y188914D01*
X47209Y188827D01*
X47157Y188743D01*
X47101Y188660D01*
X47043Y188580D01*
X46981Y188502D01*
X46916Y188427D01*
X46848Y188354D01*
X46778Y188284D01*
X46705Y188216D01*
X46630Y188151D01*
X46552Y188089D01*
X46472Y188031D01*
X46389Y187975D01*
X46305Y187923D01*
X46218Y187873D01*
X46130Y187828D01*
X46040Y187785D01*
X45948Y187746D01*
X45855Y187711D01*
X45761Y187679D01*
X45666Y187651D01*
X45570Y187626D01*
X45472Y187605D01*
X45374Y187588D01*
X45276Y187575D01*
X45177Y187566D01*
X45077Y187560D01*
X44978Y187558D01*
X43680Y187558D01*
X53252Y187558D02*
X53252Y199242D01*
X53252Y187558D02*
X58445Y187558D01*
X65317Y187558D02*
X67914Y187558D01*
X65317Y187558D02*
X65218Y187560D01*
X65118Y187566D01*
X65019Y187575D01*
X64921Y187588D01*
X64823Y187605D01*
X64725Y187626D01*
X64629Y187651D01*
X64534Y187679D01*
X64440Y187711D01*
X64347Y187746D01*
X64255Y187785D01*
X64165Y187828D01*
X64077Y187873D01*
X63990Y187923D01*
X63906Y187975D01*
X63823Y188031D01*
X63743Y188089D01*
X63665Y188151D01*
X63590Y188216D01*
X63517Y188284D01*
X63447Y188354D01*
X63379Y188427D01*
X63314Y188502D01*
X63252Y188580D01*
X63194Y188660D01*
X63138Y188743D01*
X63086Y188827D01*
X63036Y188914D01*
X62991Y189002D01*
X62948Y189092D01*
X62909Y189184D01*
X62874Y189277D01*
X62842Y189371D01*
X62814Y189466D01*
X62789Y189562D01*
X62768Y189660D01*
X62751Y189758D01*
X62738Y189856D01*
X62729Y189955D01*
X62723Y190055D01*
X62721Y190154D01*
X62721Y196646D01*
X62723Y196745D01*
X62729Y196845D01*
X62738Y196944D01*
X62751Y197042D01*
X62768Y197140D01*
X62789Y197238D01*
X62814Y197334D01*
X62842Y197429D01*
X62874Y197523D01*
X62909Y197616D01*
X62948Y197708D01*
X62991Y197798D01*
X63036Y197886D01*
X63086Y197973D01*
X63138Y198057D01*
X63194Y198140D01*
X63252Y198220D01*
X63314Y198298D01*
X63379Y198373D01*
X63447Y198446D01*
X63517Y198516D01*
X63590Y198584D01*
X63665Y198649D01*
X63743Y198711D01*
X63823Y198769D01*
X63906Y198825D01*
X63990Y198877D01*
X64077Y198927D01*
X64165Y198972D01*
X64255Y199015D01*
X64347Y199054D01*
X64439Y199089D01*
X64534Y199121D01*
X64629Y199149D01*
X64725Y199174D01*
X64823Y199195D01*
X64921Y199212D01*
X65019Y199225D01*
X65118Y199234D01*
X65218Y199240D01*
X65317Y199242D01*
X67914Y199242D01*
X75007Y199242D02*
X75007Y190154D01*
X75006Y190154D02*
X75004Y190055D01*
X74998Y189955D01*
X74989Y189856D01*
X74976Y189758D01*
X74959Y189660D01*
X74938Y189562D01*
X74913Y189466D01*
X74885Y189371D01*
X74853Y189277D01*
X74818Y189184D01*
X74779Y189092D01*
X74736Y189002D01*
X74691Y188914D01*
X74641Y188827D01*
X74589Y188743D01*
X74533Y188660D01*
X74475Y188580D01*
X74413Y188502D01*
X74348Y188427D01*
X74280Y188354D01*
X74210Y188284D01*
X74137Y188216D01*
X74062Y188151D01*
X73984Y188089D01*
X73904Y188031D01*
X73821Y187975D01*
X73737Y187923D01*
X73650Y187873D01*
X73562Y187828D01*
X73472Y187785D01*
X73380Y187746D01*
X73287Y187711D01*
X73193Y187679D01*
X73098Y187651D01*
X73002Y187626D01*
X72904Y187605D01*
X72806Y187588D01*
X72708Y187575D01*
X72609Y187566D01*
X72509Y187560D01*
X72410Y187558D01*
X71112Y187558D01*
X80684Y187558D02*
X80684Y199242D01*
X80684Y187558D02*
X85877Y187558D01*
X92749Y187558D02*
X95346Y187558D01*
X92749Y187558D02*
X92650Y187560D01*
X92550Y187566D01*
X92451Y187575D01*
X92353Y187588D01*
X92255Y187605D01*
X92157Y187626D01*
X92061Y187651D01*
X91966Y187679D01*
X91872Y187711D01*
X91779Y187746D01*
X91687Y187785D01*
X91597Y187828D01*
X91509Y187873D01*
X91422Y187923D01*
X91338Y187975D01*
X91255Y188031D01*
X91175Y188089D01*
X91097Y188151D01*
X91022Y188216D01*
X90949Y188284D01*
X90879Y188354D01*
X90811Y188427D01*
X90746Y188502D01*
X90684Y188580D01*
X90626Y188660D01*
X90570Y188743D01*
X90518Y188827D01*
X90468Y188914D01*
X90423Y189002D01*
X90380Y189092D01*
X90341Y189184D01*
X90306Y189277D01*
X90274Y189371D01*
X90246Y189466D01*
X90221Y189562D01*
X90200Y189660D01*
X90183Y189758D01*
X90170Y189856D01*
X90161Y189955D01*
X90155Y190055D01*
X90153Y190154D01*
X90153Y196646D01*
X90155Y196745D01*
X90161Y196845D01*
X90170Y196944D01*
X90183Y197042D01*
X90200Y197140D01*
X90221Y197238D01*
X90246Y197334D01*
X90274Y197429D01*
X90306Y197523D01*
X90341Y197616D01*
X90380Y197708D01*
X90423Y197798D01*
X90468Y197886D01*
X90518Y197973D01*
X90570Y198057D01*
X90626Y198140D01*
X90684Y198220D01*
X90746Y198298D01*
X90811Y198373D01*
X90879Y198446D01*
X90949Y198516D01*
X91022Y198584D01*
X91097Y198649D01*
X91175Y198711D01*
X91255Y198769D01*
X91338Y198825D01*
X91422Y198877D01*
X91509Y198927D01*
X91597Y198972D01*
X91687Y199015D01*
X91779Y199054D01*
X91871Y199089D01*
X91966Y199121D01*
X92061Y199149D01*
X92157Y199174D01*
X92255Y199195D01*
X92353Y199212D01*
X92451Y199225D01*
X92550Y199234D01*
X92650Y199240D01*
X92749Y199242D01*
X95346Y199242D01*
X102439Y199242D02*
X102439Y190154D01*
X102438Y190154D02*
X102436Y190055D01*
X102430Y189955D01*
X102421Y189856D01*
X102408Y189758D01*
X102391Y189660D01*
X102370Y189562D01*
X102345Y189466D01*
X102317Y189371D01*
X102285Y189277D01*
X102250Y189184D01*
X102211Y189092D01*
X102168Y189002D01*
X102123Y188914D01*
X102073Y188827D01*
X102021Y188743D01*
X101965Y188660D01*
X101907Y188580D01*
X101845Y188502D01*
X101780Y188427D01*
X101712Y188354D01*
X101642Y188284D01*
X101569Y188216D01*
X101494Y188151D01*
X101416Y188089D01*
X101336Y188031D01*
X101253Y187975D01*
X101169Y187923D01*
X101082Y187873D01*
X100994Y187828D01*
X100904Y187785D01*
X100812Y187746D01*
X100719Y187711D01*
X100625Y187679D01*
X100530Y187651D01*
X100434Y187626D01*
X100336Y187605D01*
X100238Y187588D01*
X100140Y187575D01*
X100041Y187566D01*
X99941Y187560D01*
X99842Y187558D01*
X98544Y187558D01*
X108116Y187558D02*
X108116Y199242D01*
X108116Y187558D02*
X113309Y187558D01*
X120181Y187558D02*
X122778Y187558D01*
X120181Y187558D02*
X120082Y187560D01*
X119982Y187566D01*
X119883Y187575D01*
X119785Y187588D01*
X119687Y187605D01*
X119589Y187626D01*
X119493Y187651D01*
X119398Y187679D01*
X119304Y187711D01*
X119211Y187746D01*
X119119Y187785D01*
X119029Y187828D01*
X118941Y187873D01*
X118854Y187923D01*
X118770Y187975D01*
X118687Y188031D01*
X118607Y188089D01*
X118529Y188151D01*
X118454Y188216D01*
X118381Y188284D01*
X118311Y188354D01*
X118243Y188427D01*
X118178Y188502D01*
X118116Y188580D01*
X118058Y188660D01*
X118002Y188743D01*
X117950Y188827D01*
X117900Y188914D01*
X117855Y189002D01*
X117812Y189092D01*
X117773Y189184D01*
X117738Y189277D01*
X117706Y189371D01*
X117678Y189466D01*
X117653Y189562D01*
X117632Y189660D01*
X117615Y189758D01*
X117602Y189856D01*
X117593Y189955D01*
X117587Y190055D01*
X117585Y190154D01*
X117585Y196646D01*
X117587Y196745D01*
X117593Y196845D01*
X117602Y196944D01*
X117615Y197042D01*
X117632Y197140D01*
X117653Y197238D01*
X117678Y197334D01*
X117706Y197429D01*
X117738Y197523D01*
X117773Y197616D01*
X117812Y197708D01*
X117855Y197798D01*
X117900Y197886D01*
X117950Y197973D01*
X118002Y198057D01*
X118058Y198140D01*
X118116Y198220D01*
X118178Y198298D01*
X118243Y198373D01*
X118311Y198446D01*
X118381Y198516D01*
X118454Y198584D01*
X118529Y198649D01*
X118607Y198711D01*
X118687Y198769D01*
X118770Y198825D01*
X118854Y198877D01*
X118941Y198927D01*
X119029Y198972D01*
X119119Y199015D01*
X119211Y199054D01*
X119303Y199089D01*
X119398Y199121D01*
X119493Y199149D01*
X119589Y199174D01*
X119687Y199195D01*
X119785Y199212D01*
X119883Y199225D01*
X119982Y199234D01*
X120082Y199240D01*
X120181Y199242D01*
X122778Y199242D01*
D11*
X19922Y228321D02*
X19922Y235179D01*
X19922Y228321D02*
X22970Y228321D01*
X26262Y228321D02*
X29310Y228321D01*
X26262Y228321D02*
X26262Y235179D01*
X29310Y235179D01*
X28548Y232131D02*
X26262Y232131D01*
X32580Y235179D02*
X32580Y228321D01*
X32580Y235179D02*
X34485Y235179D01*
X34570Y235177D01*
X34656Y235171D01*
X34741Y235162D01*
X34825Y235148D01*
X34909Y235131D01*
X34992Y235110D01*
X35074Y235086D01*
X35154Y235058D01*
X35234Y235026D01*
X35312Y234990D01*
X35388Y234952D01*
X35462Y234909D01*
X35534Y234864D01*
X35605Y234815D01*
X35673Y234763D01*
X35738Y234709D01*
X35801Y234651D01*
X35862Y234590D01*
X35920Y234527D01*
X35974Y234462D01*
X36026Y234394D01*
X36075Y234323D01*
X36120Y234251D01*
X36163Y234177D01*
X36201Y234101D01*
X36237Y234023D01*
X36269Y233943D01*
X36297Y233863D01*
X36321Y233781D01*
X36342Y233698D01*
X36359Y233614D01*
X36373Y233530D01*
X36382Y233445D01*
X36388Y233359D01*
X36390Y233274D01*
X36390Y230226D01*
X36388Y230141D01*
X36382Y230055D01*
X36373Y229970D01*
X36359Y229886D01*
X36342Y229802D01*
X36321Y229719D01*
X36297Y229637D01*
X36269Y229557D01*
X36237Y229477D01*
X36201Y229399D01*
X36163Y229323D01*
X36120Y229249D01*
X36075Y229177D01*
X36026Y229106D01*
X35974Y229038D01*
X35920Y228973D01*
X35862Y228910D01*
X35801Y228849D01*
X35738Y228791D01*
X35673Y228737D01*
X35605Y228685D01*
X35534Y228636D01*
X35462Y228591D01*
X35388Y228548D01*
X35312Y228510D01*
X35234Y228474D01*
X35154Y228442D01*
X35074Y228414D01*
X34992Y228390D01*
X34909Y228369D01*
X34825Y228352D01*
X34741Y228338D01*
X34656Y228329D01*
X34570Y228323D01*
X34485Y228321D01*
X32580Y228321D01*
D15*
X191300Y36000D02*
X191300Y6000D01*
X241300Y6000D01*
X241300Y36000D01*
X191300Y76000D02*
X191300Y96000D01*
X201300Y106000D01*
X231300Y106000D01*
X241300Y96000D01*
X241300Y76000D01*
D16*
X214055Y110884D02*
X212587Y110884D01*
X212513Y110886D01*
X212438Y110892D01*
X212365Y110901D01*
X212291Y110914D01*
X212219Y110931D01*
X212148Y110951D01*
X212077Y110975D01*
X212008Y111003D01*
X211941Y111034D01*
X211875Y111068D01*
X211810Y111106D01*
X211748Y111147D01*
X211688Y111191D01*
X211631Y111238D01*
X211576Y111288D01*
X211523Y111341D01*
X211473Y111396D01*
X211426Y111453D01*
X211382Y111513D01*
X211341Y111575D01*
X211303Y111640D01*
X211269Y111706D01*
X211238Y111773D01*
X211210Y111842D01*
X211186Y111913D01*
X211166Y111984D01*
X211149Y112056D01*
X211136Y112130D01*
X211127Y112203D01*
X211121Y112278D01*
X211119Y112352D01*
X211120Y112352D02*
X211120Y116020D01*
X211119Y116020D02*
X211121Y116094D01*
X211127Y116169D01*
X211136Y116242D01*
X211149Y116316D01*
X211166Y116388D01*
X211186Y116459D01*
X211210Y116530D01*
X211238Y116599D01*
X211269Y116666D01*
X211303Y116732D01*
X211341Y116797D01*
X211382Y116859D01*
X211426Y116919D01*
X211473Y116976D01*
X211523Y117031D01*
X211576Y117084D01*
X211631Y117134D01*
X211688Y117181D01*
X211748Y117225D01*
X211810Y117266D01*
X211875Y117304D01*
X211940Y117338D01*
X212008Y117369D01*
X212077Y117397D01*
X212148Y117421D01*
X212219Y117441D01*
X212291Y117458D01*
X212365Y117471D01*
X212438Y117480D01*
X212513Y117486D01*
X212587Y117488D01*
X214055Y117488D01*
X217251Y116020D02*
X219086Y117488D01*
X219086Y110884D01*
X220920Y110884D02*
X217251Y110884D01*
D17*
X265250Y114750D02*
X265250Y118750D01*
D14*
X247992Y111115D02*
X240880Y111115D01*
X240880Y113090D01*
X240882Y113176D01*
X240888Y113262D01*
X240897Y113348D01*
X240910Y113433D01*
X240927Y113518D01*
X240947Y113601D01*
X240971Y113684D01*
X240999Y113766D01*
X241030Y113846D01*
X241065Y113925D01*
X241103Y114002D01*
X241145Y114078D01*
X241189Y114152D01*
X241237Y114223D01*
X241288Y114293D01*
X241342Y114360D01*
X241399Y114425D01*
X241459Y114487D01*
X241521Y114547D01*
X241586Y114604D01*
X241653Y114658D01*
X241723Y114709D01*
X241794Y114757D01*
X241868Y114801D01*
X241944Y114843D01*
X242021Y114881D01*
X242100Y114916D01*
X242180Y114947D01*
X242262Y114975D01*
X242345Y114999D01*
X242428Y115019D01*
X242513Y115036D01*
X242598Y115049D01*
X242684Y115058D01*
X242770Y115064D01*
X242856Y115066D01*
X246016Y115066D01*
X246016Y115067D02*
X246102Y115065D01*
X246188Y115059D01*
X246274Y115050D01*
X246359Y115037D01*
X246444Y115020D01*
X246527Y115000D01*
X246610Y114976D01*
X246692Y114948D01*
X246772Y114917D01*
X246851Y114882D01*
X246928Y114844D01*
X247004Y114802D01*
X247078Y114758D01*
X247149Y114710D01*
X247219Y114659D01*
X247286Y114605D01*
X247351Y114548D01*
X247413Y114488D01*
X247473Y114426D01*
X247530Y114361D01*
X247584Y114294D01*
X247635Y114224D01*
X247683Y114153D01*
X247727Y114079D01*
X247769Y114003D01*
X247807Y113926D01*
X247842Y113847D01*
X247873Y113767D01*
X247901Y113685D01*
X247925Y113602D01*
X247945Y113519D01*
X247962Y113434D01*
X247975Y113349D01*
X247984Y113263D01*
X247990Y113177D01*
X247992Y113091D01*
X247992Y113090D02*
X247992Y111115D01*
X247992Y118674D02*
X247992Y121045D01*
X247990Y121123D01*
X247984Y121200D01*
X247975Y121277D01*
X247962Y121353D01*
X247945Y121429D01*
X247924Y121504D01*
X247900Y121577D01*
X247872Y121650D01*
X247840Y121721D01*
X247805Y121790D01*
X247767Y121857D01*
X247726Y121923D01*
X247681Y121986D01*
X247633Y122047D01*
X247583Y122106D01*
X247529Y122162D01*
X247473Y122216D01*
X247414Y122266D01*
X247353Y122314D01*
X247290Y122359D01*
X247224Y122400D01*
X247157Y122438D01*
X247088Y122473D01*
X247017Y122505D01*
X246944Y122533D01*
X246871Y122557D01*
X246796Y122578D01*
X246720Y122595D01*
X246644Y122608D01*
X246567Y122617D01*
X246490Y122623D01*
X246412Y122625D01*
X245621Y122625D01*
X245543Y122623D01*
X245466Y122617D01*
X245389Y122608D01*
X245313Y122595D01*
X245237Y122578D01*
X245162Y122557D01*
X245089Y122533D01*
X245016Y122505D01*
X244945Y122473D01*
X244876Y122438D01*
X244809Y122400D01*
X244743Y122359D01*
X244680Y122314D01*
X244619Y122266D01*
X244560Y122216D01*
X244504Y122162D01*
X244450Y122106D01*
X244400Y122047D01*
X244352Y121986D01*
X244307Y121923D01*
X244266Y121857D01*
X244228Y121790D01*
X244193Y121721D01*
X244161Y121650D01*
X244133Y121577D01*
X244109Y121504D01*
X244088Y121429D01*
X244071Y121353D01*
X244058Y121277D01*
X244049Y121200D01*
X244043Y121123D01*
X244041Y121045D01*
X244041Y118674D01*
X240880Y118674D01*
X240880Y122625D01*
D18*
X239003Y131681D02*
X246369Y131681D01*
X239003Y131681D02*
X239003Y133727D01*
X239005Y133816D01*
X239011Y133905D01*
X239021Y133994D01*
X239034Y134082D01*
X239051Y134170D01*
X239073Y134257D01*
X239098Y134342D01*
X239126Y134427D01*
X239159Y134510D01*
X239195Y134592D01*
X239234Y134672D01*
X239277Y134750D01*
X239323Y134826D01*
X239373Y134901D01*
X239426Y134973D01*
X239482Y135042D01*
X239541Y135109D01*
X239602Y135174D01*
X239667Y135235D01*
X239734Y135294D01*
X239803Y135350D01*
X239875Y135403D01*
X239950Y135453D01*
X240026Y135499D01*
X240104Y135542D01*
X240184Y135581D01*
X240266Y135617D01*
X240349Y135650D01*
X240434Y135678D01*
X240519Y135703D01*
X240606Y135725D01*
X240694Y135742D01*
X240782Y135755D01*
X240871Y135765D01*
X240960Y135771D01*
X241049Y135773D01*
X241138Y135771D01*
X241227Y135765D01*
X241316Y135755D01*
X241404Y135742D01*
X241492Y135725D01*
X241579Y135703D01*
X241664Y135678D01*
X241749Y135650D01*
X241832Y135617D01*
X241914Y135581D01*
X241994Y135542D01*
X242072Y135499D01*
X242148Y135453D01*
X242223Y135403D01*
X242295Y135350D01*
X242364Y135294D01*
X242431Y135235D01*
X242496Y135174D01*
X242557Y135109D01*
X242616Y135042D01*
X242672Y134973D01*
X242725Y134901D01*
X242775Y134826D01*
X242821Y134750D01*
X242864Y134672D01*
X242903Y134592D01*
X242939Y134510D01*
X242972Y134427D01*
X243000Y134342D01*
X243025Y134257D01*
X243047Y134170D01*
X243064Y134082D01*
X243077Y133994D01*
X243087Y133905D01*
X243093Y133816D01*
X243095Y133727D01*
X243095Y131681D01*
X243095Y134136D02*
X246369Y135773D01*
X240640Y138945D02*
X239003Y140991D01*
X246369Y140991D01*
X246369Y138945D02*
X246369Y143037D01*
X268471Y107337D02*
X268471Y99971D01*
X268471Y107337D02*
X270517Y107337D01*
X270606Y107335D01*
X270695Y107329D01*
X270784Y107319D01*
X270872Y107306D01*
X270960Y107289D01*
X271047Y107267D01*
X271132Y107242D01*
X271217Y107214D01*
X271300Y107181D01*
X271382Y107145D01*
X271462Y107106D01*
X271540Y107063D01*
X271616Y107017D01*
X271691Y106967D01*
X271763Y106914D01*
X271832Y106858D01*
X271899Y106799D01*
X271964Y106738D01*
X272025Y106673D01*
X272084Y106606D01*
X272140Y106537D01*
X272193Y106465D01*
X272243Y106390D01*
X272289Y106314D01*
X272332Y106236D01*
X272371Y106156D01*
X272407Y106074D01*
X272440Y105991D01*
X272468Y105906D01*
X272493Y105821D01*
X272515Y105734D01*
X272532Y105646D01*
X272545Y105558D01*
X272555Y105469D01*
X272561Y105380D01*
X272563Y105291D01*
X272561Y105202D01*
X272555Y105113D01*
X272545Y105024D01*
X272532Y104936D01*
X272515Y104848D01*
X272493Y104761D01*
X272468Y104676D01*
X272440Y104591D01*
X272407Y104508D01*
X272371Y104426D01*
X272332Y104346D01*
X272289Y104268D01*
X272243Y104192D01*
X272193Y104117D01*
X272140Y104045D01*
X272084Y103976D01*
X272025Y103909D01*
X271964Y103844D01*
X271899Y103783D01*
X271832Y103724D01*
X271763Y103668D01*
X271691Y103615D01*
X271616Y103565D01*
X271540Y103519D01*
X271462Y103476D01*
X271382Y103437D01*
X271300Y103401D01*
X271217Y103368D01*
X271132Y103340D01*
X271047Y103315D01*
X270960Y103293D01*
X270872Y103276D01*
X270784Y103263D01*
X270695Y103253D01*
X270606Y103247D01*
X270517Y103245D01*
X268471Y103245D01*
X270926Y103245D02*
X272563Y99971D01*
X279828Y105496D02*
X279826Y105581D01*
X279820Y105666D01*
X279810Y105750D01*
X279797Y105834D01*
X279779Y105918D01*
X279758Y106000D01*
X279733Y106081D01*
X279704Y106161D01*
X279671Y106240D01*
X279635Y106317D01*
X279595Y106392D01*
X279552Y106466D01*
X279506Y106537D01*
X279456Y106606D01*
X279403Y106673D01*
X279347Y106737D01*
X279288Y106798D01*
X279227Y106857D01*
X279163Y106913D01*
X279096Y106966D01*
X279027Y107016D01*
X278956Y107062D01*
X278882Y107105D01*
X278807Y107145D01*
X278730Y107181D01*
X278651Y107214D01*
X278571Y107243D01*
X278490Y107268D01*
X278408Y107289D01*
X278324Y107307D01*
X278240Y107320D01*
X278156Y107330D01*
X278071Y107336D01*
X277986Y107338D01*
X277986Y107337D02*
X277890Y107335D01*
X277794Y107329D01*
X277699Y107319D01*
X277604Y107306D01*
X277509Y107288D01*
X277416Y107267D01*
X277323Y107242D01*
X277232Y107213D01*
X277141Y107181D01*
X277052Y107145D01*
X276965Y107105D01*
X276879Y107062D01*
X276795Y107016D01*
X276713Y106966D01*
X276633Y106912D01*
X276556Y106856D01*
X276481Y106796D01*
X276408Y106734D01*
X276338Y106668D01*
X276270Y106600D01*
X276205Y106529D01*
X276144Y106456D01*
X276085Y106380D01*
X276029Y106301D01*
X275977Y106221D01*
X275928Y106138D01*
X275882Y106054D01*
X275840Y105968D01*
X275802Y105880D01*
X275767Y105791D01*
X275735Y105700D01*
X279213Y104064D02*
X279273Y104123D01*
X279330Y104185D01*
X279385Y104249D01*
X279436Y104316D01*
X279485Y104385D01*
X279531Y104455D01*
X279574Y104528D01*
X279614Y104602D01*
X279650Y104678D01*
X279683Y104756D01*
X279713Y104835D01*
X279740Y104915D01*
X279763Y104996D01*
X279782Y105078D01*
X279798Y105160D01*
X279811Y105244D01*
X279820Y105328D01*
X279825Y105412D01*
X279827Y105496D01*
X279213Y104063D02*
X275735Y99971D01*
X279827Y99971D01*
X252315Y100021D02*
X250678Y100021D01*
X250600Y100023D01*
X250522Y100028D01*
X250445Y100038D01*
X250368Y100051D01*
X250292Y100067D01*
X250217Y100087D01*
X250143Y100111D01*
X250070Y100138D01*
X249998Y100169D01*
X249928Y100203D01*
X249860Y100240D01*
X249793Y100281D01*
X249728Y100325D01*
X249666Y100371D01*
X249606Y100421D01*
X249548Y100473D01*
X249493Y100528D01*
X249441Y100586D01*
X249391Y100646D01*
X249345Y100708D01*
X249301Y100773D01*
X249260Y100840D01*
X249223Y100908D01*
X249189Y100978D01*
X249158Y101050D01*
X249131Y101123D01*
X249107Y101197D01*
X249087Y101272D01*
X249071Y101348D01*
X249058Y101425D01*
X249048Y101502D01*
X249043Y101580D01*
X249041Y101658D01*
X249041Y105750D01*
X249043Y105830D01*
X249049Y105910D01*
X249059Y105990D01*
X249072Y106069D01*
X249090Y106148D01*
X249111Y106225D01*
X249137Y106301D01*
X249166Y106376D01*
X249198Y106450D01*
X249234Y106522D01*
X249274Y106592D01*
X249317Y106659D01*
X249363Y106725D01*
X249413Y106788D01*
X249465Y106849D01*
X249520Y106908D01*
X249579Y106963D01*
X249639Y107015D01*
X249703Y107065D01*
X249769Y107111D01*
X249836Y107154D01*
X249906Y107194D01*
X249978Y107230D01*
X250052Y107262D01*
X250126Y107291D01*
X250203Y107317D01*
X250280Y107338D01*
X250359Y107356D01*
X250438Y107369D01*
X250518Y107379D01*
X250598Y107385D01*
X250678Y107387D01*
X252315Y107387D01*
X257411Y107388D02*
X257496Y107386D01*
X257581Y107380D01*
X257665Y107370D01*
X257749Y107357D01*
X257833Y107339D01*
X257915Y107318D01*
X257996Y107293D01*
X258076Y107264D01*
X258155Y107231D01*
X258232Y107195D01*
X258307Y107155D01*
X258381Y107112D01*
X258452Y107066D01*
X258521Y107016D01*
X258588Y106963D01*
X258652Y106907D01*
X258713Y106848D01*
X258772Y106787D01*
X258828Y106723D01*
X258881Y106656D01*
X258931Y106587D01*
X258977Y106516D01*
X259020Y106442D01*
X259060Y106367D01*
X259096Y106290D01*
X259129Y106211D01*
X259158Y106131D01*
X259183Y106050D01*
X259204Y105968D01*
X259222Y105884D01*
X259235Y105800D01*
X259245Y105716D01*
X259251Y105631D01*
X259253Y105546D01*
X257411Y107387D02*
X257315Y107385D01*
X257219Y107379D01*
X257124Y107369D01*
X257029Y107356D01*
X256934Y107338D01*
X256841Y107317D01*
X256748Y107292D01*
X256657Y107263D01*
X256566Y107231D01*
X256477Y107195D01*
X256390Y107155D01*
X256304Y107112D01*
X256220Y107066D01*
X256138Y107016D01*
X256058Y106962D01*
X255981Y106906D01*
X255906Y106846D01*
X255833Y106784D01*
X255763Y106718D01*
X255695Y106650D01*
X255630Y106579D01*
X255569Y106506D01*
X255510Y106430D01*
X255454Y106351D01*
X255402Y106271D01*
X255353Y106188D01*
X255307Y106104D01*
X255265Y106018D01*
X255227Y105930D01*
X255192Y105841D01*
X255160Y105750D01*
X258638Y104114D02*
X258698Y104173D01*
X258755Y104235D01*
X258810Y104299D01*
X258861Y104366D01*
X258910Y104435D01*
X258956Y104505D01*
X258999Y104578D01*
X259039Y104652D01*
X259075Y104728D01*
X259108Y104806D01*
X259138Y104885D01*
X259165Y104965D01*
X259188Y105046D01*
X259207Y105128D01*
X259223Y105210D01*
X259236Y105294D01*
X259245Y105378D01*
X259250Y105462D01*
X259252Y105546D01*
X258638Y104113D02*
X255160Y100021D01*
X259252Y100021D01*
D19*
X132750Y28500D02*
X118250Y19000D01*
X132750Y28500D02*
X132750Y9500D01*
X118250Y19000D01*
D20*
X117750Y19000D03*
D18*
X171041Y47791D02*
X171041Y55157D01*
X173087Y55157D01*
X173176Y55155D01*
X173265Y55149D01*
X173354Y55139D01*
X173442Y55126D01*
X173530Y55109D01*
X173617Y55087D01*
X173702Y55062D01*
X173787Y55034D01*
X173870Y55001D01*
X173952Y54965D01*
X174032Y54926D01*
X174110Y54883D01*
X174186Y54837D01*
X174261Y54787D01*
X174333Y54734D01*
X174402Y54678D01*
X174469Y54619D01*
X174534Y54558D01*
X174595Y54493D01*
X174654Y54426D01*
X174710Y54357D01*
X174763Y54285D01*
X174813Y54210D01*
X174859Y54134D01*
X174902Y54056D01*
X174941Y53976D01*
X174977Y53894D01*
X175010Y53811D01*
X175038Y53726D01*
X175063Y53641D01*
X175085Y53554D01*
X175102Y53466D01*
X175115Y53378D01*
X175125Y53289D01*
X175131Y53200D01*
X175133Y53111D01*
X175131Y53022D01*
X175125Y52933D01*
X175115Y52844D01*
X175102Y52756D01*
X175085Y52668D01*
X175063Y52581D01*
X175038Y52496D01*
X175010Y52411D01*
X174977Y52328D01*
X174941Y52246D01*
X174902Y52166D01*
X174859Y52088D01*
X174813Y52012D01*
X174763Y51937D01*
X174710Y51865D01*
X174654Y51796D01*
X174595Y51729D01*
X174534Y51664D01*
X174469Y51603D01*
X174402Y51544D01*
X174333Y51488D01*
X174261Y51435D01*
X174186Y51385D01*
X174110Y51339D01*
X174032Y51296D01*
X173952Y51257D01*
X173870Y51221D01*
X173787Y51188D01*
X173702Y51160D01*
X173617Y51135D01*
X173530Y51113D01*
X173442Y51096D01*
X173354Y51083D01*
X173265Y51073D01*
X173176Y51067D01*
X173087Y51065D01*
X171041Y51065D01*
X173496Y51065D02*
X175133Y47791D01*
X178305Y47791D02*
X180351Y47791D01*
X180440Y47793D01*
X180529Y47799D01*
X180618Y47809D01*
X180706Y47822D01*
X180794Y47839D01*
X180881Y47861D01*
X180966Y47886D01*
X181051Y47914D01*
X181134Y47947D01*
X181216Y47983D01*
X181296Y48022D01*
X181374Y48065D01*
X181450Y48111D01*
X181525Y48161D01*
X181597Y48214D01*
X181666Y48270D01*
X181733Y48329D01*
X181798Y48390D01*
X181859Y48455D01*
X181918Y48522D01*
X181974Y48591D01*
X182027Y48663D01*
X182077Y48738D01*
X182123Y48814D01*
X182166Y48892D01*
X182205Y48972D01*
X182241Y49054D01*
X182274Y49137D01*
X182302Y49222D01*
X182327Y49307D01*
X182349Y49394D01*
X182366Y49482D01*
X182379Y49570D01*
X182389Y49659D01*
X182395Y49748D01*
X182397Y49837D01*
X182395Y49926D01*
X182389Y50015D01*
X182379Y50104D01*
X182366Y50192D01*
X182349Y50280D01*
X182327Y50367D01*
X182302Y50452D01*
X182274Y50537D01*
X182241Y50620D01*
X182205Y50702D01*
X182166Y50782D01*
X182123Y50860D01*
X182077Y50936D01*
X182027Y51011D01*
X181974Y51083D01*
X181918Y51152D01*
X181859Y51219D01*
X181798Y51284D01*
X181733Y51345D01*
X181666Y51404D01*
X181597Y51460D01*
X181525Y51513D01*
X181450Y51563D01*
X181374Y51609D01*
X181296Y51652D01*
X181216Y51691D01*
X181134Y51727D01*
X181051Y51760D01*
X180966Y51788D01*
X180881Y51813D01*
X180794Y51835D01*
X180706Y51852D01*
X180618Y51865D01*
X180529Y51875D01*
X180440Y51881D01*
X180351Y51883D01*
X180760Y55157D02*
X178305Y55157D01*
X180760Y55157D02*
X180839Y55155D01*
X180918Y55149D01*
X180997Y55140D01*
X181075Y55127D01*
X181152Y55109D01*
X181228Y55089D01*
X181303Y55064D01*
X181377Y55036D01*
X181450Y55005D01*
X181521Y54969D01*
X181590Y54931D01*
X181657Y54889D01*
X181722Y54844D01*
X181785Y54796D01*
X181846Y54745D01*
X181903Y54691D01*
X181959Y54635D01*
X182011Y54576D01*
X182061Y54514D01*
X182107Y54450D01*
X182151Y54384D01*
X182191Y54316D01*
X182227Y54246D01*
X182261Y54174D01*
X182291Y54100D01*
X182317Y54026D01*
X182340Y53950D01*
X182358Y53873D01*
X182374Y53796D01*
X182385Y53717D01*
X182393Y53639D01*
X182397Y53560D01*
X182397Y53480D01*
X182393Y53401D01*
X182385Y53323D01*
X182374Y53244D01*
X182358Y53167D01*
X182340Y53090D01*
X182317Y53014D01*
X182291Y52940D01*
X182261Y52866D01*
X182227Y52794D01*
X182191Y52724D01*
X182151Y52656D01*
X182107Y52590D01*
X182061Y52526D01*
X182011Y52464D01*
X181959Y52405D01*
X181903Y52349D01*
X181846Y52295D01*
X181785Y52244D01*
X181722Y52196D01*
X181657Y52151D01*
X181590Y52109D01*
X181521Y52071D01*
X181450Y52035D01*
X181377Y52004D01*
X181303Y51976D01*
X181228Y51951D01*
X181152Y51931D01*
X181075Y51913D01*
X180997Y51900D01*
X180918Y51891D01*
X180839Y51885D01*
X180760Y51883D01*
X179123Y51883D01*
X94407Y242103D02*
X87041Y242103D01*
X87041Y244149D01*
X87043Y244238D01*
X87049Y244327D01*
X87059Y244416D01*
X87072Y244504D01*
X87089Y244592D01*
X87111Y244679D01*
X87136Y244764D01*
X87164Y244849D01*
X87197Y244932D01*
X87233Y245014D01*
X87272Y245094D01*
X87315Y245172D01*
X87361Y245248D01*
X87411Y245323D01*
X87464Y245395D01*
X87520Y245464D01*
X87579Y245531D01*
X87640Y245596D01*
X87705Y245657D01*
X87772Y245716D01*
X87841Y245772D01*
X87913Y245825D01*
X87988Y245875D01*
X88064Y245921D01*
X88142Y245964D01*
X88222Y246003D01*
X88304Y246039D01*
X88387Y246072D01*
X88472Y246100D01*
X88557Y246125D01*
X88644Y246147D01*
X88732Y246164D01*
X88820Y246177D01*
X88909Y246187D01*
X88998Y246193D01*
X89087Y246195D01*
X89176Y246193D01*
X89265Y246187D01*
X89354Y246177D01*
X89442Y246164D01*
X89530Y246147D01*
X89617Y246125D01*
X89702Y246100D01*
X89787Y246072D01*
X89870Y246039D01*
X89952Y246003D01*
X90032Y245964D01*
X90110Y245921D01*
X90186Y245875D01*
X90261Y245825D01*
X90333Y245772D01*
X90402Y245716D01*
X90469Y245657D01*
X90534Y245596D01*
X90595Y245531D01*
X90654Y245464D01*
X90710Y245395D01*
X90763Y245323D01*
X90813Y245248D01*
X90859Y245172D01*
X90902Y245094D01*
X90941Y245014D01*
X90977Y244932D01*
X91010Y244849D01*
X91038Y244764D01*
X91063Y244679D01*
X91085Y244592D01*
X91102Y244504D01*
X91115Y244416D01*
X91125Y244327D01*
X91131Y244238D01*
X91133Y244149D01*
X91133Y242103D01*
X91133Y244558D02*
X94407Y246195D01*
X92770Y249367D02*
X87041Y251004D01*
X92770Y249367D02*
X92770Y253459D01*
X91133Y252231D02*
X94407Y252231D01*
X8724Y252304D02*
X8724Y258569D01*
X11857Y255436D02*
X5592Y255436D01*
D21*
X29500Y252250D03*
X29500Y240250D03*
D22*
X29500Y246250D03*
D18*
X62405Y27413D02*
X64041Y27413D01*
X62405Y27413D02*
X62327Y27415D01*
X62249Y27420D01*
X62172Y27430D01*
X62095Y27443D01*
X62019Y27459D01*
X61944Y27479D01*
X61870Y27503D01*
X61797Y27530D01*
X61725Y27561D01*
X61655Y27595D01*
X61587Y27632D01*
X61520Y27673D01*
X61455Y27717D01*
X61393Y27763D01*
X61333Y27813D01*
X61275Y27865D01*
X61220Y27920D01*
X61168Y27978D01*
X61118Y28038D01*
X61072Y28100D01*
X61028Y28165D01*
X60987Y28232D01*
X60950Y28300D01*
X60916Y28370D01*
X60885Y28442D01*
X60858Y28515D01*
X60834Y28589D01*
X60814Y28664D01*
X60798Y28740D01*
X60785Y28817D01*
X60775Y28894D01*
X60770Y28972D01*
X60768Y29050D01*
X60768Y33142D01*
X60770Y33222D01*
X60776Y33302D01*
X60786Y33382D01*
X60799Y33461D01*
X60817Y33540D01*
X60838Y33617D01*
X60864Y33693D01*
X60893Y33768D01*
X60925Y33842D01*
X60961Y33914D01*
X61001Y33984D01*
X61044Y34051D01*
X61090Y34117D01*
X61140Y34180D01*
X61192Y34241D01*
X61247Y34300D01*
X61306Y34355D01*
X61366Y34407D01*
X61430Y34457D01*
X61496Y34503D01*
X61563Y34546D01*
X61633Y34586D01*
X61705Y34622D01*
X61779Y34654D01*
X61853Y34683D01*
X61930Y34709D01*
X62007Y34730D01*
X62086Y34748D01*
X62165Y34761D01*
X62245Y34771D01*
X62325Y34777D01*
X62405Y34779D01*
X64041Y34779D01*
X66887Y27413D02*
X68933Y27413D01*
X69022Y27415D01*
X69111Y27421D01*
X69200Y27431D01*
X69288Y27444D01*
X69376Y27461D01*
X69463Y27483D01*
X69548Y27508D01*
X69633Y27536D01*
X69716Y27569D01*
X69798Y27605D01*
X69878Y27644D01*
X69956Y27687D01*
X70032Y27733D01*
X70107Y27783D01*
X70179Y27836D01*
X70248Y27892D01*
X70315Y27951D01*
X70380Y28012D01*
X70441Y28077D01*
X70500Y28144D01*
X70556Y28213D01*
X70609Y28285D01*
X70659Y28360D01*
X70705Y28436D01*
X70748Y28514D01*
X70787Y28594D01*
X70823Y28676D01*
X70856Y28759D01*
X70884Y28844D01*
X70909Y28929D01*
X70931Y29016D01*
X70948Y29104D01*
X70961Y29192D01*
X70971Y29281D01*
X70977Y29370D01*
X70979Y29459D01*
X70977Y29548D01*
X70971Y29637D01*
X70961Y29726D01*
X70948Y29814D01*
X70931Y29902D01*
X70909Y29989D01*
X70884Y30074D01*
X70856Y30159D01*
X70823Y30242D01*
X70787Y30324D01*
X70748Y30404D01*
X70705Y30482D01*
X70659Y30558D01*
X70609Y30633D01*
X70556Y30705D01*
X70500Y30774D01*
X70441Y30841D01*
X70380Y30906D01*
X70315Y30967D01*
X70248Y31026D01*
X70179Y31082D01*
X70107Y31135D01*
X70032Y31185D01*
X69956Y31231D01*
X69878Y31274D01*
X69798Y31313D01*
X69716Y31349D01*
X69633Y31382D01*
X69548Y31410D01*
X69463Y31435D01*
X69376Y31457D01*
X69288Y31474D01*
X69200Y31487D01*
X69111Y31497D01*
X69022Y31503D01*
X68933Y31505D01*
X69342Y34779D02*
X66887Y34779D01*
X69342Y34779D02*
X69421Y34777D01*
X69500Y34771D01*
X69579Y34762D01*
X69657Y34749D01*
X69734Y34731D01*
X69810Y34711D01*
X69885Y34686D01*
X69959Y34658D01*
X70032Y34627D01*
X70103Y34591D01*
X70172Y34553D01*
X70239Y34511D01*
X70304Y34466D01*
X70367Y34418D01*
X70428Y34367D01*
X70485Y34313D01*
X70541Y34257D01*
X70593Y34198D01*
X70643Y34136D01*
X70689Y34072D01*
X70733Y34006D01*
X70773Y33938D01*
X70809Y33868D01*
X70843Y33796D01*
X70873Y33722D01*
X70899Y33648D01*
X70922Y33572D01*
X70940Y33495D01*
X70956Y33418D01*
X70967Y33339D01*
X70975Y33261D01*
X70979Y33182D01*
X70979Y33102D01*
X70975Y33023D01*
X70967Y32945D01*
X70956Y32866D01*
X70940Y32789D01*
X70922Y32712D01*
X70899Y32636D01*
X70873Y32562D01*
X70843Y32488D01*
X70809Y32416D01*
X70773Y32346D01*
X70733Y32278D01*
X70689Y32212D01*
X70643Y32148D01*
X70593Y32086D01*
X70541Y32027D01*
X70485Y31971D01*
X70428Y31917D01*
X70367Y31866D01*
X70304Y31818D01*
X70239Y31773D01*
X70172Y31731D01*
X70103Y31693D01*
X70032Y31657D01*
X69959Y31626D01*
X69885Y31598D01*
X69810Y31573D01*
X69734Y31553D01*
X69657Y31535D01*
X69579Y31522D01*
X69500Y31513D01*
X69421Y31507D01*
X69342Y31505D01*
X67705Y31505D01*
X194205Y126143D02*
X195841Y126143D01*
X194205Y126143D02*
X194127Y126145D01*
X194049Y126150D01*
X193972Y126160D01*
X193895Y126173D01*
X193819Y126189D01*
X193744Y126209D01*
X193670Y126233D01*
X193597Y126260D01*
X193525Y126291D01*
X193455Y126325D01*
X193387Y126362D01*
X193320Y126403D01*
X193255Y126447D01*
X193193Y126493D01*
X193133Y126543D01*
X193075Y126595D01*
X193020Y126650D01*
X192968Y126708D01*
X192918Y126768D01*
X192872Y126830D01*
X192828Y126895D01*
X192787Y126962D01*
X192750Y127030D01*
X192716Y127100D01*
X192685Y127172D01*
X192658Y127245D01*
X192634Y127319D01*
X192614Y127394D01*
X192598Y127470D01*
X192585Y127547D01*
X192575Y127624D01*
X192570Y127702D01*
X192568Y127780D01*
X192568Y131872D01*
X192570Y131952D01*
X192576Y132032D01*
X192586Y132112D01*
X192599Y132191D01*
X192617Y132270D01*
X192638Y132347D01*
X192664Y132423D01*
X192693Y132498D01*
X192725Y132572D01*
X192761Y132644D01*
X192801Y132714D01*
X192844Y132781D01*
X192890Y132847D01*
X192940Y132910D01*
X192992Y132971D01*
X193047Y133030D01*
X193106Y133085D01*
X193166Y133137D01*
X193230Y133187D01*
X193296Y133233D01*
X193363Y133276D01*
X193433Y133316D01*
X193505Y133352D01*
X193579Y133384D01*
X193653Y133413D01*
X193730Y133439D01*
X193807Y133460D01*
X193886Y133478D01*
X193965Y133491D01*
X194045Y133501D01*
X194125Y133507D01*
X194205Y133509D01*
X195841Y133509D01*
X200324Y133509D02*
X198687Y127780D01*
X202779Y127780D01*
X201551Y129417D02*
X201551Y126143D01*
D19*
X267500Y207500D02*
X267500Y246500D01*
X238500Y246500D02*
X238500Y207500D01*
X252377Y255080D02*
X252379Y255135D01*
X252385Y255190D01*
X252395Y255244D01*
X252409Y255297D01*
X252426Y255350D01*
X252448Y255400D01*
X252472Y255450D01*
X252501Y255497D01*
X252533Y255542D01*
X252567Y255584D01*
X252605Y255624D01*
X252646Y255662D01*
X252689Y255696D01*
X252735Y255727D01*
X252783Y255754D01*
X252832Y255778D01*
X252883Y255799D01*
X252936Y255815D01*
X252989Y255828D01*
X253044Y255837D01*
X253099Y255842D01*
X253154Y255843D01*
X253209Y255840D01*
X253263Y255833D01*
X253317Y255822D01*
X253371Y255807D01*
X253422Y255789D01*
X253473Y255767D01*
X253521Y255741D01*
X253568Y255712D01*
X253613Y255679D01*
X253655Y255643D01*
X253694Y255605D01*
X253730Y255563D01*
X253764Y255520D01*
X253794Y255473D01*
X253820Y255425D01*
X253844Y255375D01*
X253863Y255324D01*
X253879Y255271D01*
X253891Y255217D01*
X253899Y255162D01*
X253903Y255108D01*
X253903Y255052D01*
X253899Y254998D01*
X253891Y254943D01*
X253879Y254889D01*
X253863Y254836D01*
X253844Y254785D01*
X253820Y254735D01*
X253794Y254687D01*
X253764Y254640D01*
X253730Y254597D01*
X253694Y254555D01*
X253655Y254517D01*
X253613Y254481D01*
X253568Y254448D01*
X253522Y254419D01*
X253473Y254393D01*
X253422Y254371D01*
X253371Y254353D01*
X253317Y254338D01*
X253263Y254327D01*
X253209Y254320D01*
X253154Y254317D01*
X253099Y254318D01*
X253044Y254323D01*
X252989Y254332D01*
X252936Y254345D01*
X252883Y254361D01*
X252832Y254382D01*
X252783Y254406D01*
X252735Y254433D01*
X252689Y254464D01*
X252646Y254498D01*
X252605Y254536D01*
X252567Y254576D01*
X252533Y254618D01*
X252501Y254663D01*
X252472Y254710D01*
X252448Y254760D01*
X252426Y254810D01*
X252409Y254863D01*
X252395Y254916D01*
X252385Y254970D01*
X252379Y255025D01*
X252377Y255080D01*
X232250Y246250D02*
X232250Y207250D01*
X203250Y207250D02*
X203250Y246250D01*
X217127Y254830D02*
X217129Y254885D01*
X217135Y254940D01*
X217145Y254994D01*
X217159Y255047D01*
X217176Y255100D01*
X217198Y255150D01*
X217222Y255200D01*
X217251Y255247D01*
X217283Y255292D01*
X217317Y255334D01*
X217355Y255374D01*
X217396Y255412D01*
X217439Y255446D01*
X217485Y255477D01*
X217533Y255504D01*
X217582Y255528D01*
X217633Y255549D01*
X217686Y255565D01*
X217739Y255578D01*
X217794Y255587D01*
X217849Y255592D01*
X217904Y255593D01*
X217959Y255590D01*
X218013Y255583D01*
X218067Y255572D01*
X218121Y255557D01*
X218172Y255539D01*
X218223Y255517D01*
X218271Y255491D01*
X218318Y255462D01*
X218363Y255429D01*
X218405Y255393D01*
X218444Y255355D01*
X218480Y255313D01*
X218514Y255270D01*
X218544Y255223D01*
X218570Y255175D01*
X218594Y255125D01*
X218613Y255074D01*
X218629Y255021D01*
X218641Y254967D01*
X218649Y254912D01*
X218653Y254858D01*
X218653Y254802D01*
X218649Y254748D01*
X218641Y254693D01*
X218629Y254639D01*
X218613Y254586D01*
X218594Y254535D01*
X218570Y254485D01*
X218544Y254437D01*
X218514Y254390D01*
X218480Y254347D01*
X218444Y254305D01*
X218405Y254267D01*
X218363Y254231D01*
X218318Y254198D01*
X218272Y254169D01*
X218223Y254143D01*
X218172Y254121D01*
X218121Y254103D01*
X218067Y254088D01*
X218013Y254077D01*
X217959Y254070D01*
X217904Y254067D01*
X217849Y254068D01*
X217794Y254073D01*
X217739Y254082D01*
X217686Y254095D01*
X217633Y254111D01*
X217582Y254132D01*
X217533Y254156D01*
X217485Y254183D01*
X217439Y254214D01*
X217396Y254248D01*
X217355Y254286D01*
X217317Y254326D01*
X217283Y254368D01*
X217251Y254413D01*
X217222Y254460D01*
X217198Y254510D01*
X217176Y254560D01*
X217159Y254613D01*
X217145Y254666D01*
X217135Y254720D01*
X217129Y254775D01*
X217127Y254830D01*
D15*
X142000Y257000D02*
X142000Y229000D01*
X114000Y229000D01*
X114000Y257000D01*
X142000Y257000D01*
X124000Y250000D02*
X123998Y250118D01*
X123992Y250236D01*
X123982Y250354D01*
X123968Y250471D01*
X123950Y250588D01*
X123928Y250705D01*
X123903Y250820D01*
X123873Y250934D01*
X123839Y251048D01*
X123802Y251160D01*
X123761Y251271D01*
X123716Y251380D01*
X123668Y251488D01*
X123616Y251594D01*
X123560Y251699D01*
X123501Y251801D01*
X123439Y251901D01*
X123373Y251999D01*
X123304Y252095D01*
X123231Y252189D01*
X123156Y252280D01*
X123077Y252368D01*
X122996Y252454D01*
X122911Y252537D01*
X122824Y252617D01*
X122735Y252694D01*
X122642Y252768D01*
X122548Y252838D01*
X122451Y252906D01*
X122351Y252970D01*
X122250Y253031D01*
X122147Y253088D01*
X122041Y253142D01*
X121934Y253193D01*
X121826Y253239D01*
X121716Y253282D01*
X121604Y253321D01*
X121491Y253357D01*
X121377Y253388D01*
X121262Y253416D01*
X121147Y253440D01*
X121030Y253460D01*
X120913Y253476D01*
X120795Y253488D01*
X120677Y253496D01*
X120559Y253500D01*
X120441Y253500D01*
X120323Y253496D01*
X120205Y253488D01*
X120087Y253476D01*
X119970Y253460D01*
X119853Y253440D01*
X119738Y253416D01*
X119623Y253388D01*
X119509Y253357D01*
X119396Y253321D01*
X119284Y253282D01*
X119174Y253239D01*
X119066Y253193D01*
X118959Y253142D01*
X118853Y253088D01*
X118750Y253031D01*
X118649Y252970D01*
X118549Y252906D01*
X118452Y252838D01*
X118358Y252768D01*
X118265Y252694D01*
X118176Y252617D01*
X118089Y252537D01*
X118004Y252454D01*
X117923Y252368D01*
X117844Y252280D01*
X117769Y252189D01*
X117696Y252095D01*
X117627Y251999D01*
X117561Y251901D01*
X117499Y251801D01*
X117440Y251699D01*
X117384Y251594D01*
X117332Y251488D01*
X117284Y251380D01*
X117239Y251271D01*
X117198Y251160D01*
X117161Y251048D01*
X117127Y250934D01*
X117097Y250820D01*
X117072Y250705D01*
X117050Y250588D01*
X117032Y250471D01*
X117018Y250354D01*
X117008Y250236D01*
X117002Y250118D01*
X117000Y250000D01*
X124000Y250000D01*
D18*
X167178Y215271D02*
X168815Y215271D01*
X167178Y215271D02*
X167100Y215273D01*
X167022Y215278D01*
X166945Y215288D01*
X166868Y215301D01*
X166792Y215317D01*
X166717Y215337D01*
X166643Y215361D01*
X166570Y215388D01*
X166498Y215419D01*
X166428Y215453D01*
X166360Y215490D01*
X166293Y215531D01*
X166228Y215575D01*
X166166Y215621D01*
X166106Y215671D01*
X166048Y215723D01*
X165993Y215778D01*
X165941Y215836D01*
X165891Y215896D01*
X165845Y215958D01*
X165801Y216023D01*
X165760Y216090D01*
X165723Y216158D01*
X165689Y216228D01*
X165658Y216300D01*
X165631Y216373D01*
X165607Y216447D01*
X165587Y216522D01*
X165571Y216598D01*
X165558Y216675D01*
X165548Y216752D01*
X165543Y216830D01*
X165541Y216908D01*
X165541Y221000D01*
X165543Y221080D01*
X165549Y221160D01*
X165559Y221240D01*
X165572Y221319D01*
X165590Y221398D01*
X165611Y221475D01*
X165637Y221551D01*
X165666Y221626D01*
X165698Y221700D01*
X165734Y221772D01*
X165774Y221842D01*
X165817Y221909D01*
X165863Y221975D01*
X165913Y222038D01*
X165965Y222099D01*
X166020Y222158D01*
X166079Y222213D01*
X166139Y222265D01*
X166203Y222315D01*
X166269Y222361D01*
X166336Y222404D01*
X166406Y222444D01*
X166478Y222480D01*
X166552Y222512D01*
X166626Y222541D01*
X166703Y222567D01*
X166780Y222588D01*
X166859Y222606D01*
X166938Y222619D01*
X167018Y222629D01*
X167098Y222635D01*
X167178Y222637D01*
X168815Y222637D01*
X171660Y215271D02*
X174115Y215271D01*
X174193Y215273D01*
X174271Y215278D01*
X174348Y215288D01*
X174425Y215301D01*
X174501Y215317D01*
X174576Y215337D01*
X174650Y215361D01*
X174723Y215388D01*
X174795Y215419D01*
X174865Y215453D01*
X174934Y215490D01*
X175000Y215531D01*
X175065Y215575D01*
X175127Y215621D01*
X175187Y215671D01*
X175245Y215723D01*
X175300Y215778D01*
X175352Y215836D01*
X175402Y215896D01*
X175448Y215958D01*
X175492Y216023D01*
X175533Y216090D01*
X175570Y216158D01*
X175604Y216228D01*
X175635Y216300D01*
X175662Y216373D01*
X175686Y216447D01*
X175706Y216522D01*
X175722Y216598D01*
X175735Y216675D01*
X175745Y216752D01*
X175750Y216830D01*
X175752Y216908D01*
X175752Y217726D01*
X175750Y217804D01*
X175745Y217882D01*
X175735Y217959D01*
X175722Y218036D01*
X175706Y218112D01*
X175686Y218187D01*
X175662Y218261D01*
X175635Y218334D01*
X175604Y218406D01*
X175570Y218476D01*
X175533Y218545D01*
X175492Y218611D01*
X175448Y218676D01*
X175402Y218738D01*
X175352Y218798D01*
X175300Y218856D01*
X175245Y218911D01*
X175187Y218963D01*
X175127Y219013D01*
X175065Y219059D01*
X175000Y219103D01*
X174934Y219144D01*
X174865Y219181D01*
X174795Y219215D01*
X174723Y219246D01*
X174650Y219273D01*
X174576Y219297D01*
X174501Y219317D01*
X174425Y219333D01*
X174348Y219346D01*
X174271Y219356D01*
X174193Y219361D01*
X174115Y219363D01*
X171660Y219363D01*
X171660Y222637D01*
X175752Y222637D01*
D15*
X277224Y26524D02*
X277224Y18396D01*
X270636Y18396D01*
X248776Y18396D02*
X248776Y26524D01*
X248776Y18396D02*
X255364Y18396D01*
D16*
X258010Y48754D02*
X258010Y51689D01*
X258012Y51774D01*
X258018Y51858D01*
X258028Y51942D01*
X258041Y52026D01*
X258059Y52109D01*
X258080Y52191D01*
X258105Y52272D01*
X258134Y52352D01*
X258166Y52430D01*
X258202Y52506D01*
X258242Y52581D01*
X258285Y52654D01*
X258331Y52725D01*
X258380Y52794D01*
X258433Y52861D01*
X258489Y52925D01*
X258547Y52986D01*
X258608Y53044D01*
X258672Y53100D01*
X258739Y53153D01*
X258808Y53202D01*
X258879Y53248D01*
X258952Y53291D01*
X259027Y53331D01*
X259103Y53367D01*
X259181Y53399D01*
X259261Y53428D01*
X259342Y53453D01*
X259424Y53474D01*
X259507Y53492D01*
X259591Y53505D01*
X259675Y53515D01*
X259759Y53521D01*
X259844Y53523D01*
X259929Y53521D01*
X260013Y53515D01*
X260097Y53505D01*
X260181Y53492D01*
X260264Y53474D01*
X260346Y53453D01*
X260427Y53428D01*
X260507Y53399D01*
X260585Y53367D01*
X260661Y53331D01*
X260736Y53291D01*
X260809Y53248D01*
X260880Y53202D01*
X260949Y53153D01*
X261016Y53100D01*
X261080Y53044D01*
X261141Y52986D01*
X261199Y52925D01*
X261255Y52861D01*
X261308Y52794D01*
X261357Y52725D01*
X261403Y52654D01*
X261446Y52581D01*
X261486Y52506D01*
X261522Y52430D01*
X261554Y52352D01*
X261583Y52272D01*
X261608Y52191D01*
X261629Y52109D01*
X261647Y52026D01*
X261660Y51942D01*
X261670Y51858D01*
X261676Y51774D01*
X261678Y51689D01*
X261678Y48754D01*
X261676Y48669D01*
X261670Y48585D01*
X261660Y48501D01*
X261647Y48417D01*
X261629Y48334D01*
X261608Y48252D01*
X261583Y48171D01*
X261554Y48091D01*
X261522Y48013D01*
X261486Y47937D01*
X261446Y47862D01*
X261403Y47789D01*
X261357Y47718D01*
X261308Y47649D01*
X261255Y47582D01*
X261199Y47518D01*
X261141Y47457D01*
X261080Y47399D01*
X261016Y47343D01*
X260949Y47290D01*
X260880Y47241D01*
X260809Y47195D01*
X260736Y47152D01*
X260661Y47112D01*
X260585Y47076D01*
X260507Y47044D01*
X260427Y47015D01*
X260346Y46990D01*
X260264Y46969D01*
X260181Y46951D01*
X260097Y46938D01*
X260013Y46928D01*
X259929Y46922D01*
X259844Y46920D01*
X259759Y46922D01*
X259675Y46928D01*
X259591Y46938D01*
X259507Y46951D01*
X259424Y46969D01*
X259342Y46990D01*
X259261Y47015D01*
X259181Y47044D01*
X259103Y47076D01*
X259027Y47112D01*
X258952Y47152D01*
X258879Y47195D01*
X258808Y47241D01*
X258739Y47290D01*
X258672Y47343D01*
X258608Y47399D01*
X258547Y47457D01*
X258489Y47518D01*
X258433Y47582D01*
X258380Y47649D01*
X258331Y47718D01*
X258285Y47789D01*
X258242Y47862D01*
X258202Y47937D01*
X258166Y48013D01*
X258134Y48091D01*
X258105Y48171D01*
X258080Y48252D01*
X258059Y48334D01*
X258041Y48417D01*
X258028Y48501D01*
X258018Y48585D01*
X258012Y48669D01*
X258010Y48754D01*
X260945Y48387D02*
X262412Y46920D01*
X264855Y52056D02*
X266689Y53524D01*
X266689Y46920D01*
X264855Y46920D02*
X268524Y46920D01*
D11*
X167750Y51000D02*
X-32250Y51000D01*
X-93250Y51000D01*
X-93250Y211000D01*
X-32250Y211000D01*
X7750Y211000D01*
X167750Y211000D01*
X167750Y51000D01*
X-32250Y51000D02*
X-32250Y171000D01*
X-32250Y211000D01*
X7750Y211000D02*
X7750Y171000D01*
X-32250Y171000D01*
X-23564Y192000D02*
X-23561Y192278D01*
X-23550Y192555D01*
X-23533Y192832D01*
X-23510Y193109D01*
X-23479Y193385D01*
X-23442Y193660D01*
X-23397Y193934D01*
X-23347Y194207D01*
X-23289Y194479D01*
X-23225Y194749D01*
X-23154Y195018D01*
X-23077Y195284D01*
X-22993Y195549D01*
X-22903Y195812D01*
X-22806Y196072D01*
X-22703Y196330D01*
X-22593Y196585D01*
X-22478Y196837D01*
X-22356Y197087D01*
X-22228Y197333D01*
X-22094Y197577D01*
X-21954Y197817D01*
X-21809Y198053D01*
X-21657Y198286D01*
X-21500Y198515D01*
X-21337Y198740D01*
X-21169Y198961D01*
X-20996Y199178D01*
X-20817Y199390D01*
X-20633Y199598D01*
X-20444Y199801D01*
X-20250Y200000D01*
X-20051Y200194D01*
X-19848Y200383D01*
X-19640Y200567D01*
X-19428Y200746D01*
X-19211Y200919D01*
X-18990Y201087D01*
X-18765Y201250D01*
X-18536Y201407D01*
X-18303Y201559D01*
X-18067Y201704D01*
X-17827Y201844D01*
X-17583Y201978D01*
X-17337Y202106D01*
X-17087Y202228D01*
X-16835Y202343D01*
X-16580Y202453D01*
X-16322Y202556D01*
X-16062Y202653D01*
X-15799Y202743D01*
X-15534Y202827D01*
X-15268Y202904D01*
X-14999Y202975D01*
X-14729Y203039D01*
X-14457Y203097D01*
X-14184Y203147D01*
X-13910Y203192D01*
X-13635Y203229D01*
X-13359Y203260D01*
X-13082Y203283D01*
X-12805Y203300D01*
X-12528Y203311D01*
X-12250Y203314D01*
X-11972Y203311D01*
X-11695Y203300D01*
X-11418Y203283D01*
X-11141Y203260D01*
X-10865Y203229D01*
X-10590Y203192D01*
X-10316Y203147D01*
X-10043Y203097D01*
X-9771Y203039D01*
X-9501Y202975D01*
X-9232Y202904D01*
X-8966Y202827D01*
X-8701Y202743D01*
X-8438Y202653D01*
X-8178Y202556D01*
X-7920Y202453D01*
X-7665Y202343D01*
X-7413Y202228D01*
X-7163Y202106D01*
X-6917Y201978D01*
X-6673Y201844D01*
X-6433Y201704D01*
X-6197Y201559D01*
X-5964Y201407D01*
X-5735Y201250D01*
X-5510Y201087D01*
X-5289Y200919D01*
X-5072Y200746D01*
X-4860Y200567D01*
X-4652Y200383D01*
X-4449Y200194D01*
X-4250Y200000D01*
X-4056Y199801D01*
X-3867Y199598D01*
X-3683Y199390D01*
X-3504Y199178D01*
X-3331Y198961D01*
X-3163Y198740D01*
X-3000Y198515D01*
X-2843Y198286D01*
X-2691Y198053D01*
X-2546Y197817D01*
X-2406Y197577D01*
X-2272Y197333D01*
X-2144Y197087D01*
X-2022Y196837D01*
X-1907Y196585D01*
X-1797Y196330D01*
X-1694Y196072D01*
X-1597Y195812D01*
X-1507Y195549D01*
X-1423Y195284D01*
X-1346Y195018D01*
X-1275Y194749D01*
X-1211Y194479D01*
X-1153Y194207D01*
X-1103Y193934D01*
X-1058Y193660D01*
X-1021Y193385D01*
X-990Y193109D01*
X-967Y192832D01*
X-950Y192555D01*
X-939Y192278D01*
X-936Y192000D01*
X-939Y191722D01*
X-950Y191445D01*
X-967Y191168D01*
X-990Y190891D01*
X-1021Y190615D01*
X-1058Y190340D01*
X-1103Y190066D01*
X-1153Y189793D01*
X-1211Y189521D01*
X-1275Y189251D01*
X-1346Y188982D01*
X-1423Y188716D01*
X-1507Y188451D01*
X-1597Y188188D01*
X-1694Y187928D01*
X-1797Y187670D01*
X-1907Y187415D01*
X-2022Y187163D01*
X-2144Y186913D01*
X-2272Y186667D01*
X-2406Y186423D01*
X-2546Y186183D01*
X-2691Y185947D01*
X-2843Y185714D01*
X-3000Y185485D01*
X-3163Y185260D01*
X-3331Y185039D01*
X-3504Y184822D01*
X-3683Y184610D01*
X-3867Y184402D01*
X-4056Y184199D01*
X-4250Y184000D01*
X-4449Y183806D01*
X-4652Y183617D01*
X-4860Y183433D01*
X-5072Y183254D01*
X-5289Y183081D01*
X-5510Y182913D01*
X-5735Y182750D01*
X-5964Y182593D01*
X-6197Y182441D01*
X-6433Y182296D01*
X-6673Y182156D01*
X-6917Y182022D01*
X-7163Y181894D01*
X-7413Y181772D01*
X-7665Y181657D01*
X-7920Y181547D01*
X-8178Y181444D01*
X-8438Y181347D01*
X-8701Y181257D01*
X-8966Y181173D01*
X-9232Y181096D01*
X-9501Y181025D01*
X-9771Y180961D01*
X-10043Y180903D01*
X-10316Y180853D01*
X-10590Y180808D01*
X-10865Y180771D01*
X-11141Y180740D01*
X-11418Y180717D01*
X-11695Y180700D01*
X-11972Y180689D01*
X-12250Y180686D01*
X-12528Y180689D01*
X-12805Y180700D01*
X-13082Y180717D01*
X-13359Y180740D01*
X-13635Y180771D01*
X-13910Y180808D01*
X-14184Y180853D01*
X-14457Y180903D01*
X-14729Y180961D01*
X-14999Y181025D01*
X-15268Y181096D01*
X-15534Y181173D01*
X-15799Y181257D01*
X-16062Y181347D01*
X-16322Y181444D01*
X-16580Y181547D01*
X-16835Y181657D01*
X-17087Y181772D01*
X-17337Y181894D01*
X-17583Y182022D01*
X-17827Y182156D01*
X-18067Y182296D01*
X-18303Y182441D01*
X-18536Y182593D01*
X-18765Y182750D01*
X-18990Y182913D01*
X-19211Y183081D01*
X-19428Y183254D01*
X-19640Y183433D01*
X-19848Y183617D01*
X-20051Y183806D01*
X-20250Y184000D01*
X-20444Y184199D01*
X-20633Y184402D01*
X-20817Y184610D01*
X-20996Y184822D01*
X-21169Y185039D01*
X-21337Y185260D01*
X-21500Y185485D01*
X-21657Y185714D01*
X-21809Y185947D01*
X-21954Y186183D01*
X-22094Y186423D01*
X-22228Y186667D01*
X-22356Y186913D01*
X-22478Y187163D01*
X-22593Y187415D01*
X-22703Y187670D01*
X-22806Y187928D01*
X-22903Y188188D01*
X-22993Y188451D01*
X-23077Y188716D01*
X-23154Y188982D01*
X-23225Y189251D01*
X-23289Y189521D01*
X-23347Y189793D01*
X-23397Y190066D01*
X-23442Y190340D01*
X-23479Y190615D01*
X-23510Y190891D01*
X-23533Y191168D01*
X-23550Y191445D01*
X-23561Y191722D01*
X-23564Y192000D01*
D13*
X44600Y15000D02*
X44602Y15063D01*
X44608Y15125D01*
X44618Y15187D01*
X44631Y15249D01*
X44649Y15309D01*
X44670Y15368D01*
X44695Y15426D01*
X44724Y15482D01*
X44756Y15536D01*
X44791Y15588D01*
X44829Y15637D01*
X44871Y15685D01*
X44915Y15729D01*
X44963Y15771D01*
X45012Y15809D01*
X45064Y15844D01*
X45118Y15876D01*
X45174Y15905D01*
X45232Y15930D01*
X45291Y15951D01*
X45351Y15969D01*
X45413Y15982D01*
X45475Y15992D01*
X45537Y15998D01*
X45600Y16000D01*
X45663Y15998D01*
X45725Y15992D01*
X45787Y15982D01*
X45849Y15969D01*
X45909Y15951D01*
X45968Y15930D01*
X46026Y15905D01*
X46082Y15876D01*
X46136Y15844D01*
X46188Y15809D01*
X46237Y15771D01*
X46285Y15729D01*
X46329Y15685D01*
X46371Y15637D01*
X46409Y15588D01*
X46444Y15536D01*
X46476Y15482D01*
X46505Y15426D01*
X46530Y15368D01*
X46551Y15309D01*
X46569Y15249D01*
X46582Y15187D01*
X46592Y15125D01*
X46598Y15063D01*
X46600Y15000D01*
X46598Y14937D01*
X46592Y14875D01*
X46582Y14813D01*
X46569Y14751D01*
X46551Y14691D01*
X46530Y14632D01*
X46505Y14574D01*
X46476Y14518D01*
X46444Y14464D01*
X46409Y14412D01*
X46371Y14363D01*
X46329Y14315D01*
X46285Y14271D01*
X46237Y14229D01*
X46188Y14191D01*
X46136Y14156D01*
X46082Y14124D01*
X46026Y14095D01*
X45968Y14070D01*
X45909Y14049D01*
X45849Y14031D01*
X45787Y14018D01*
X45725Y14008D01*
X45663Y14002D01*
X45600Y14000D01*
X45537Y14002D01*
X45475Y14008D01*
X45413Y14018D01*
X45351Y14031D01*
X45291Y14049D01*
X45232Y14070D01*
X45174Y14095D01*
X45118Y14124D01*
X45064Y14156D01*
X45012Y14191D01*
X44963Y14229D01*
X44915Y14271D01*
X44871Y14315D01*
X44829Y14363D01*
X44791Y14412D01*
X44756Y14464D01*
X44724Y14518D01*
X44695Y14574D01*
X44670Y14632D01*
X44649Y14691D01*
X44631Y14751D01*
X44618Y14813D01*
X44608Y14875D01*
X44602Y14937D01*
X44600Y15000D01*
D11*
X36000Y8800D02*
X16000Y8800D01*
X16000Y31200D02*
X36000Y31200D01*
M02*
