G04 EAGLE Gerber RS-274X export*
G75*
%MOMM*%
%FSLAX34Y34*%
%LPD*%
%INSoldermask Top*%
%IPPOS*%
%AMOC8*
5,1,8,0,0,1.08239X$1,22.5*%
G01*
%ADD10C,0.411763*%
%ADD11R,2.811762X2.661763*%
%ADD12R,1.111762X0.911763*%
%ADD13R,1.411763X1.711763*%
%ADD14R,1.711763X1.411763*%
%ADD15R,1.611762X1.411763*%
%ADD16R,0.619762X0.619762*%
%ADD17R,1.911763X1.811763*%
%ADD18R,1.311763X1.311763*%
%ADD19R,1.411763X1.611762*%
%ADD20R,0.911763X2.111763*%
%ADD21R,1.311763X0.561763*%
%ADD22R,1.111762X1.511763*%
%ADD23R,0.761763X1.611762*%
%ADD24R,1.611762X0.761763*%
%ADD25C,0.198556*%
%ADD26R,0.811763X1.711763*%


D10*
X320000Y44000D03*
X320000Y54000D03*
X320000Y62000D03*
X320000Y74000D03*
X320000Y81000D03*
X320000Y88000D03*
X320000Y97000D03*
X320000Y103000D03*
X320000Y112000D03*
X320000Y123000D03*
X320000Y132000D03*
X320000Y144000D03*
X320000Y153000D03*
X320000Y161000D03*
X320000Y169000D03*
X320000Y178000D03*
X320000Y192000D03*
X320000Y200000D03*
X320000Y209000D03*
X320000Y218000D03*
D11*
X223300Y25300D03*
X223300Y88700D03*
D12*
X305750Y117750D03*
X282750Y117750D03*
D13*
X286000Y137750D03*
X305000Y137750D03*
D14*
X281500Y68750D03*
X281500Y87750D03*
D15*
X261000Y86750D03*
X261000Y69750D03*
D16*
X306750Y137750D03*
X309500Y185250D03*
D17*
X116750Y19000D03*
X157750Y19000D03*
D14*
X185750Y37500D03*
X185750Y18500D03*
D13*
X76250Y246250D03*
X57250Y246250D03*
D18*
X38500Y246250D03*
X17500Y246250D03*
D19*
X57250Y16500D03*
X74250Y16500D03*
D15*
X196000Y164500D03*
X196000Y147500D03*
D20*
X266000Y242000D03*
X308000Y242000D03*
X200750Y241750D03*
X242750Y241750D03*
D21*
X106250Y252750D03*
X106250Y246250D03*
X106250Y239750D03*
X106250Y233250D03*
X149750Y233250D03*
X149750Y239750D03*
X149750Y246250D03*
X149750Y252750D03*
D15*
X172000Y249500D03*
X172000Y232500D03*
D22*
X272000Y15000D03*
X262500Y37000D03*
X281500Y37000D03*
D23*
X26250Y48700D03*
X37250Y48700D03*
X48250Y48700D03*
X59250Y48700D03*
X70250Y48700D03*
X81250Y48700D03*
X92250Y48700D03*
X103250Y48700D03*
X114250Y48700D03*
X125250Y48700D03*
X136250Y48700D03*
X147250Y48700D03*
D24*
X170750Y64900D03*
X170750Y75900D03*
X170750Y86900D03*
X170750Y97900D03*
X170750Y108900D03*
X170750Y119900D03*
X170750Y130900D03*
D23*
X15250Y48700D03*
X26250Y212600D03*
X37250Y212600D03*
X48250Y212600D03*
X59250Y212600D03*
X70250Y212600D03*
X81250Y212600D03*
X92250Y212600D03*
X103250Y212600D03*
X114250Y212600D03*
X125250Y212600D03*
X136250Y212600D03*
X147250Y212600D03*
X15250Y212600D03*
D24*
X170750Y141900D03*
X170750Y152900D03*
X170750Y163900D03*
X170750Y174900D03*
X170750Y185900D03*
X170750Y196900D03*
D25*
X39016Y16316D02*
X32384Y16316D01*
X39016Y16316D02*
X39016Y13684D01*
X32384Y13684D01*
X32384Y16316D01*
X32384Y15571D02*
X39016Y15571D01*
X39016Y26316D02*
X32384Y26316D01*
X39016Y26316D02*
X39016Y23684D01*
X32384Y23684D01*
X32384Y26316D01*
X32384Y25571D02*
X39016Y25571D01*
X19616Y26316D02*
X12984Y26316D01*
X19616Y26316D02*
X19616Y23684D01*
X12984Y23684D01*
X12984Y26316D01*
X12984Y25571D02*
X19616Y25571D01*
X19616Y16316D02*
X12984Y16316D01*
X19616Y16316D02*
X19616Y13684D01*
X12984Y13684D01*
X12984Y16316D01*
X12984Y15571D02*
X19616Y15571D01*
D26*
X26000Y20000D03*
M02*
