G04 EAGLE Gerber RS-274X export*
G75*
%MOMM*%
%FSLAX34Y34*%
%LPD*%
%INSoldermask Bottom*%
%IPPOS*%
%AMOC8*
5,1,8,0,0,1.08239X$1,22.5*%
G01*
%ADD10C,0.411763*%
%ADD11C,1.381763*%
%ADD12C,8.911763*%
%ADD13R,2.211763X5.311763*%
%ADD14R,0.961763X1.061762*%
%ADD15C,0.391056*%
%ADD16R,0.611762X0.461763*%


D10*
X320000Y44000D03*
X320000Y54000D03*
X320000Y62000D03*
X320000Y74000D03*
X320000Y81000D03*
X320000Y88000D03*
X320000Y97000D03*
X320000Y103000D03*
X320000Y112000D03*
X320000Y123000D03*
X320000Y132000D03*
X320000Y144000D03*
X320000Y153000D03*
X320000Y161000D03*
X320000Y169000D03*
X320000Y178000D03*
X320000Y192000D03*
X320000Y200000D03*
X320000Y209000D03*
X320000Y218000D03*
D11*
X17700Y249400D03*
X47050Y249450D03*
X61350Y249300D03*
X90600Y249450D03*
X76000Y249500D03*
X32150Y249500D03*
D12*
X144604Y113922D02*
X195262Y146070D01*
D13*
G36*
X258958Y222460D02*
X277633Y234312D01*
X306094Y189464D01*
X287419Y177612D01*
X258958Y222460D01*
G37*
G36*
X29009Y78034D02*
X47684Y89886D01*
X76145Y45038D01*
X57470Y33186D01*
X29009Y78034D01*
G37*
D14*
X41750Y196250D03*
X41750Y181750D03*
X30250Y181750D03*
X30250Y196250D03*
D15*
X31396Y212604D02*
X34004Y212604D01*
X34004Y209396D01*
X31396Y209396D01*
X31396Y212604D01*
X39996Y209396D02*
X42604Y209396D01*
X39996Y209396D02*
X39996Y212604D01*
X42604Y212604D01*
X42604Y209396D01*
X40604Y167396D02*
X37996Y167396D01*
X37996Y170604D01*
X40604Y170604D01*
X40604Y167396D01*
X32004Y170604D02*
X29396Y170604D01*
X32004Y170604D02*
X32004Y167396D01*
X29396Y167396D01*
X29396Y170604D01*
D16*
X18750Y29250D03*
X18750Y22750D03*
X18750Y16250D03*
X18750Y35750D03*
X39250Y22750D03*
X39250Y29250D03*
X39250Y35750D03*
X39250Y16250D03*
M02*
