G04 EAGLE Gerber RS-274X export*
G75*
%MOMM*%
%FSLAX34Y34*%
%LPD*%
%INSolderpaste Top*%
%IPPOS*%
%AMOC8*
5,1,8,0,0,1.08239X$1,22.5*%
G01*
%ADD10R,2.700000X2.550000*%
%ADD11R,1.000000X0.800000*%
%ADD12R,1.300000X1.600000*%
%ADD13R,1.600000X1.300000*%
%ADD14R,1.500000X1.300000*%
%ADD15R,0.508000X0.508000*%
%ADD16R,1.800000X1.700000*%
%ADD17R,1.200000X1.200000*%
%ADD18R,1.300000X1.500000*%
%ADD19R,2.000000X0.800000*%
%ADD20R,1.200000X0.450000*%
%ADD21R,1.000000X1.400000*%
%ADD22R,0.650000X1.500000*%
%ADD23R,1.500000X0.650000*%
%ADD24C,0.087500*%
%ADD25R,0.700000X1.600000*%


D10*
X216300Y24300D03*
X216300Y87700D03*
D11*
X278750Y116750D03*
X255750Y116750D03*
D12*
X258000Y137750D03*
X277000Y137750D03*
D13*
X275500Y68750D03*
X275500Y87750D03*
D14*
X255000Y86750D03*
X255000Y69750D03*
D15*
X277750Y137750D03*
X287500Y185250D03*
D16*
X105750Y19000D03*
X146750Y19000D03*
D13*
X177750Y36500D03*
X177750Y17500D03*
D12*
X76250Y246250D03*
X57250Y246250D03*
D17*
X38500Y246250D03*
X17500Y246250D03*
D18*
X57250Y16500D03*
X74250Y16500D03*
D14*
X196000Y164500D03*
X196000Y147500D03*
D19*
X253000Y248000D03*
X253000Y206000D03*
X217750Y247750D03*
X217750Y205750D03*
D20*
X106250Y252750D03*
X106250Y246250D03*
X106250Y239750D03*
X106250Y233250D03*
X149750Y233250D03*
X149750Y239750D03*
X149750Y246250D03*
X149750Y252750D03*
D14*
X172000Y249500D03*
X172000Y232500D03*
D21*
X263000Y14000D03*
X253500Y36000D03*
X272500Y36000D03*
D22*
X26250Y48700D03*
X37250Y48700D03*
X48250Y48700D03*
X59250Y48700D03*
X70250Y48700D03*
X81250Y48700D03*
X92250Y48700D03*
X103250Y48700D03*
X114250Y48700D03*
X125250Y48700D03*
X136250Y48700D03*
X147250Y48700D03*
D23*
X170750Y64900D03*
X170750Y75900D03*
X170750Y86900D03*
X170750Y97900D03*
X170750Y108900D03*
X170750Y119900D03*
X170750Y130900D03*
D22*
X15250Y48700D03*
X26250Y212600D03*
X37250Y212600D03*
X48250Y212600D03*
X59250Y212600D03*
X70250Y212600D03*
X81250Y212600D03*
X92250Y212600D03*
X103250Y212600D03*
X114250Y212600D03*
X125250Y212600D03*
X136250Y212600D03*
X147250Y212600D03*
X15250Y212600D03*
D23*
X170750Y141900D03*
X170750Y152900D03*
X170750Y163900D03*
X170750Y174900D03*
X170750Y185900D03*
X170750Y196900D03*
D24*
X39013Y16313D02*
X32387Y16313D01*
X39013Y16313D02*
X39013Y13687D01*
X32387Y13687D01*
X32387Y16313D01*
X32387Y14518D02*
X39013Y14518D01*
X39013Y15349D02*
X32387Y15349D01*
X32387Y16180D02*
X39013Y16180D01*
X39013Y26313D02*
X32387Y26313D01*
X39013Y26313D02*
X39013Y23687D01*
X32387Y23687D01*
X32387Y26313D01*
X32387Y24518D02*
X39013Y24518D01*
X39013Y25349D02*
X32387Y25349D01*
X32387Y26180D02*
X39013Y26180D01*
X19613Y26313D02*
X12987Y26313D01*
X19613Y26313D02*
X19613Y23687D01*
X12987Y23687D01*
X12987Y26313D01*
X12987Y24518D02*
X19613Y24518D01*
X19613Y25349D02*
X12987Y25349D01*
X12987Y26180D02*
X19613Y26180D01*
X19613Y16313D02*
X12987Y16313D01*
X19613Y16313D02*
X19613Y13687D01*
X12987Y13687D01*
X12987Y16313D01*
X12987Y14518D02*
X19613Y14518D01*
X19613Y15349D02*
X12987Y15349D01*
X12987Y16180D02*
X19613Y16180D01*
D25*
X26000Y20000D03*
M02*
