G04 EAGLE Gerber RS-274X export*
G75*
%MOMM*%
%FSLAX34Y34*%
%LPD*%
%INSolderpaste Top*%
%IPPOS*%
%AMOC8*
5,1,8,0,0,1.08239X$1,22.5*%
G01*
%ADD10R,2.700000X2.550000*%
%ADD11R,1.000000X0.800000*%
%ADD12R,1.300000X1.600000*%
%ADD13R,1.600000X1.300000*%
%ADD14R,1.500000X1.300000*%
%ADD15R,0.508000X0.508000*%
%ADD16R,1.200000X1.200000*%
%ADD17R,1.300000X1.500000*%
%ADD18R,0.800000X2.000000*%
%ADD19R,1.200000X0.450000*%
%ADD20R,1.000000X1.400000*%
%ADD21R,0.650000X1.500000*%
%ADD22R,1.500000X0.650000*%
%ADD23C,0.087500*%
%ADD24R,0.700000X1.600000*%
%ADD25R,0.550000X0.250000*%
%ADD26R,0.600000X0.540000*%
%ADD27C,0.270000*%


D10*
X223300Y25300D03*
X223300Y88700D03*
D11*
X305750Y117750D03*
X282750Y117750D03*
D12*
X286000Y137750D03*
X305000Y137750D03*
D13*
X281500Y68750D03*
X281500Y87750D03*
D14*
X261000Y86750D03*
X261000Y69750D03*
D15*
X306750Y137750D03*
X309500Y185250D03*
D12*
X76250Y246250D03*
X57250Y246250D03*
D16*
X38500Y246250D03*
X17500Y246250D03*
D17*
X57250Y16500D03*
X74250Y16500D03*
D14*
X196000Y164500D03*
X196000Y147500D03*
D18*
X266000Y242000D03*
X308000Y242000D03*
X200750Y241750D03*
X242750Y241750D03*
D19*
X106250Y252750D03*
X106250Y246250D03*
X106250Y239750D03*
X106250Y233250D03*
X149750Y233250D03*
X149750Y239750D03*
X149750Y246250D03*
X149750Y252750D03*
D14*
X172000Y249500D03*
X172000Y232500D03*
D20*
X272000Y15000D03*
X262500Y37000D03*
X281500Y37000D03*
D21*
X26250Y48700D03*
X37250Y48700D03*
X48250Y48700D03*
X59250Y48700D03*
X70250Y48700D03*
X81250Y48700D03*
X92250Y48700D03*
X103250Y48700D03*
X114250Y48700D03*
X125250Y48700D03*
X136250Y48700D03*
X147250Y48700D03*
D22*
X170750Y64900D03*
X170750Y75900D03*
X170750Y86900D03*
X170750Y97900D03*
X170750Y108900D03*
X170750Y119900D03*
X170750Y130900D03*
D21*
X15250Y48700D03*
X26250Y212600D03*
X37250Y212600D03*
X48250Y212600D03*
X59250Y212600D03*
X70250Y212600D03*
X81250Y212600D03*
X92250Y212600D03*
X103250Y212600D03*
X114250Y212600D03*
X125250Y212600D03*
X136250Y212600D03*
X147250Y212600D03*
X15250Y212600D03*
D22*
X170750Y141900D03*
X170750Y152900D03*
X170750Y163900D03*
X170750Y174900D03*
X170750Y185900D03*
X170750Y196900D03*
D23*
X39013Y16313D02*
X32387Y16313D01*
X39013Y16313D02*
X39013Y13687D01*
X32387Y13687D01*
X32387Y16313D01*
X32387Y14518D02*
X39013Y14518D01*
X39013Y15349D02*
X32387Y15349D01*
X32387Y16180D02*
X39013Y16180D01*
X39013Y26313D02*
X32387Y26313D01*
X39013Y26313D02*
X39013Y23687D01*
X32387Y23687D01*
X32387Y26313D01*
X32387Y24518D02*
X39013Y24518D01*
X39013Y25349D02*
X32387Y25349D01*
X32387Y26180D02*
X39013Y26180D01*
X19613Y26313D02*
X12987Y26313D01*
X19613Y26313D02*
X19613Y23687D01*
X12987Y23687D01*
X12987Y26313D01*
X12987Y24518D02*
X19613Y24518D01*
X19613Y25349D02*
X12987Y25349D01*
X12987Y26180D02*
X19613Y26180D01*
X19613Y16313D02*
X12987Y16313D01*
X19613Y16313D02*
X19613Y13687D01*
X12987Y13687D01*
X12987Y16313D01*
X12987Y14518D02*
X19613Y14518D01*
X19613Y15349D02*
X12987Y15349D01*
X12987Y16180D02*
X19613Y16180D01*
D24*
X26000Y20000D03*
D25*
X169750Y14000D03*
X169750Y19000D03*
X169750Y24000D03*
X142250Y24000D03*
X142250Y19000D03*
X142250Y14000D03*
D26*
X115680Y15680D03*
X115680Y24320D03*
D27*
X125030Y22970D02*
X125030Y25670D01*
X128330Y25670D01*
X128330Y22970D01*
X125030Y22970D01*
X125030Y25535D02*
X128330Y25535D01*
X125030Y17030D02*
X125030Y14330D01*
X125030Y17030D02*
X128330Y17030D01*
X128330Y14330D01*
X125030Y14330D01*
X125030Y16895D02*
X128330Y16895D01*
D26*
X187680Y14680D03*
X187680Y23320D03*
M02*
