M48
;GenerationSoftware,Autodesk,EAGLE,9.6.2*%
;CreationDate,2023-12-25T04:56:47Z*%
FMAT,2
ICI,OFF
METRIC,TZ,000.000
T6C0.250
T5C0.300
T4C0.600
T3C0.700
T2C1.270
T1C2.370
%
G90
M71
T1
X26750Y4985
X26750Y22515
T2
X50600Y20100
X50600Y7400
T3
X20340Y25700
X31100Y3100
X19070Y25700
X21610Y25700
X22880Y25700
X24150Y25700
X17800Y25700
X16530Y25700
X15260Y25700
X13990Y25700
X12720Y25700
X11450Y25700
X10180Y25700
T4
X46420Y1900
X43880Y1900
X47690Y1900
X48960Y1900
X50230Y1900
X51500Y1900
X45150Y1900
T5
X53100Y5000
X53100Y6500
X53100Y7300
X53100Y22400
X53100Y8500
X53100Y9300
X53100Y10100
X53100Y10900
X53100Y11800
X53100Y12900
X53100Y13800
X53100Y15000
X53100Y15900
X53100Y17500
X53100Y16700
X53100Y18400
X53100Y19800
X53100Y21500
X53100Y5700
X53100Y20600
T6
X1275Y15375
X1275Y17000
X1275Y18625
X1275Y20125
X1275Y21750
X1275Y23250
X29900Y9375
X31400Y9375
X33150Y9375
X34900Y9375
X36775Y9375
X38275Y9375
X39900Y9375
X41525Y9375
X43650Y9375
X28600Y9375
X27000Y9375
X25800Y10675
X24700Y11675
X21800Y14475
X20800Y15575
X19800Y16575
X18500Y17775
X17500Y18675
X16100Y18675
X14500Y18675
X12900Y18675
X11300Y18675
X7800Y20475
X20700Y18975
X19800Y19875
X18100Y20475
X15100Y20475
X13400Y20475
X11500Y20475
X21700Y17975
X24000Y15475
X25200Y14275
X23900Y12475
X16700Y20475
X10000Y18675
X8800Y19475
X26675Y18375
X46900Y18175
X48700Y18175
X50000Y17075
X12200Y24875
X12200Y23875
X14700Y24875
X14700Y23875
X17200Y24875
X19700Y24875
X46650Y16250
X19700Y23975
X22000Y24875
X19700Y23075
X17200Y23075
X14700Y23075
X12200Y23075
X9400Y24875
X9400Y23075
X25600Y25875
X27000Y25875
X22000Y23975
X41400Y1575
X10200Y20475
X9400Y23975
X11975Y12875
X11975Y11075
X11975Y7775
X10075Y7775
X39800Y1575
X38200Y1575
X36700Y1575
X34900Y1575
X6500Y6075
X22625Y1575
X21325Y1575
X19925Y1575
X18425Y1575
X34900Y2975
X34900Y4175
X34900Y5275
X25225Y6175
X10425Y2575
X33400Y5275
X42900Y1575
X34200Y23600
X34700Y23600
X23300Y3100
X22900Y3500
X7600Y4200
X10100Y6800
X11400Y6700
X8700Y8500
X7600Y23200
X13800Y2600
X1900Y24100
X19100Y20700
X22000Y4200
X29900Y11375
X39100Y24500
X19800Y7200
X21700Y9100
X10400Y10300
X31400Y11375
X33150Y11375
X34900Y11375
X36775Y11375
X38275Y11375
X39900Y11375
X41525Y11375
X43950Y11475
X28275Y11500
X27025Y12375
X26525Y13875
X27025Y15500
X28275Y16375
X29900Y16375
X31400Y16375
X33275Y16375
X34900Y16375
X36400Y16375
X38400Y16375
X17200Y23975
X39900Y16375
X41650Y16375
X43275Y16375
X44900Y16375
X47825Y15250
X47625Y12400
X46025Y11600
X28275Y18375
X31400Y18375
X33275Y18375
X34775Y18375
X36400Y18375
X38400Y18375
X39900Y18375
X41650Y18375
X43150Y18375
X44900Y18175
X1275Y6300
X1275Y7575
X1275Y8875
X1275Y10500
X1275Y12125
X1275Y13750
X23600Y9100
M30