M48
;GenerationSoftware,Autodesk,EAGLE,9.6.2*%
;CreationDate,2023-11-19T15:45:25Z*%
FMAT,2
ICI,OFF
METRIC,TZ,000.000
T6C0.250
T5C0.300
T4C0.400
T3C0.700
T2C1.270
T1C2.370
%
G90
M71
T1
X26750Y4985
X26750Y22515
T2
X50600Y7400
X50600Y20100
T3
X21660Y27500
X20390Y27500
X11500Y27500
X10230Y27500
X19120Y27500
X16580Y27500
X12770Y27500
X14040Y27500
X15310Y27500
X17850Y27500
X24200Y27500
X22930Y27500
T4
X51420Y2260
X49960Y2250
X45660Y2240
X48530Y2230
X47110Y2230
X44210Y2250
T5
X53100Y16700
X53100Y17500
X53100Y18400
X53100Y19800
X53100Y20600
X53100Y21500
X53100Y22400
X53100Y15000
X53100Y12900
X53100Y11800
X53100Y10900
X53100Y10100
X53100Y9300
X53100Y8500
X53100Y7300
X53100Y15900
X53100Y6500
X53100Y5700
X53100Y5000
X49900Y3400
X53100Y13800
T6
X1275Y10500
X1275Y12125
X1275Y13750
X1275Y15375
X1275Y17000
X1275Y18625
X1275Y20125
X1275Y21750
X1275Y23250
X25125Y4075
X11075Y2675
X6175Y4975
X15275Y7075
X12775Y7075
X29900Y9375
X31400Y9375
X33150Y9375
X34900Y9375
X36775Y9375
X38275Y9375
X39900Y9375
X41525Y9375
X43650Y9375
X28600Y9375
X27000Y9375
X25800Y10675
X24700Y11675
X21800Y14475
X20800Y15575
X19800Y16575
X18500Y17775
X17500Y18675
X16100Y18675
X14500Y18675
X12900Y18675
X11300Y18675
X7800Y20475
X21000Y18675
X19800Y19875
X18100Y20475
X15100Y20475
X13400Y20475
X11500Y20475
X22000Y17675
X24000Y15475
X25200Y14275
X23900Y12475
X16700Y20475
X9900Y20475
X10000Y18675
X44900Y16375
X26675Y18375
X46800Y18375
X48700Y18375
X50100Y17375
X12200Y24875
X12200Y23875
X14700Y24875
X14700Y23875
X17200Y24875
X19700Y24875
X17200Y23975
X19700Y23975
X22000Y24875
X19700Y23075
X17200Y23075
X14700Y23075
X12200Y23075
X9400Y24875
X9400Y23875
X9400Y23075
X25500Y25475
X26900Y25475
X28500Y25475
X11100Y1675
X12600Y1675
X14500Y1675
X22000Y23975
X12575Y2675
X14475Y2675
X16500Y1675
X18300Y1675
X20300Y1675
X22200Y1675
X24100Y1675
X26100Y1675
X28400Y1675
X30800Y1675
X33200Y1675
X35300Y1675
X37300Y1675
X39300Y1675
X41400Y1675
X43200Y1675
X22800Y3575
X6400Y4250
X29900Y11375
X31400Y11375
X33150Y11375
X34900Y11375
X36775Y11375
X38275Y11375
X35600Y2200
X7600Y23200
X31300Y22700
X24100Y8900
X19300Y6800
X20300Y8900
X39900Y11375
X41525Y11375
X43650Y11375
X28275Y11500
X27025Y12375
X26525Y13875
X27025Y15500
X28275Y16375
X29900Y16375
X31400Y16375
X33275Y16375
X34900Y16375
X8800Y19475
X36400Y16375
X38400Y16375
X39900Y16375
X41650Y16375
X43275Y16375
X46650Y16250
X48025Y15250
X48400Y13750
X47525Y12000
X45525Y11500
X28275Y18375
X31400Y18375
X33275Y18375
X34775Y18375
X36400Y18375
X38400Y18375
X39900Y18375
X41650Y18375
X43150Y18375
X44900Y18375
X1275Y6300
X1275Y7575
X1275Y8875
M30